<svg viewBox="0 0 1498 400" xmlns="http://www.w3.org/2000/svg">
    <g>
        <g>
            <g>
                <g>
                    <g>
                        <line x1="41.171875" y1="372.08419963355703" x2="36.171875" y2="372.08419963355703"
                              style="visibility: inherit;" fill="rgb(0, 0, 0)" stroke="rgb(204, 204, 204)"
                              stroke-width="1px"></line>
                        <line x1="41.171875" y1="356.9505595508503" x2="36.171875" y2="356.9505595508503"
                              style="visibility: inherit;" fill="rgb(0, 0, 0)" stroke="rgb(204, 204, 204)"
                              stroke-width="1px"></line>
                        <line x1="41.171875" y1="343.4130571931625" x2="36.171875" y2="343.4130571931625"
                              style="visibility: inherit;" fill="rgb(0, 0, 0)" stroke="rgb(204, 204, 204)"
                              stroke-width="1px"></line>
                        <line x1="41.171875" y1="254.35235421094507" x2="36.171875" y2="254.35235421094507"
                              style="visibility: inherit;" fill="rgb(0, 0, 0)" stroke="rgb(204, 204, 204)"
                              stroke-width="1px"></line>
                        <line x1="41.171875" y1="202.25518267848298" x2="36.171875" y2="202.25518267848298"
                              style="visibility: inherit;" fill="rgb(0, 0, 0)" stroke="rgb(204, 204, 204)"
                              stroke-width="1px"></line>
                        <line x1="41.171875" y1="165.29165122872757" x2="36.171875" y2="165.29165122872757"
                              style="visibility: inherit;" fill="rgb(0, 0, 0)" stroke="rgb(204, 204, 204)"
                              stroke-width="1px"></line>
                        <line x1="41.171875" y1="136.62050878833307" x2="36.171875" y2="136.62050878833307"
                              style="visibility: inherit;" fill="rgb(0, 0, 0)" stroke="rgb(204, 204, 204)"
                              stroke-width="1px"></line>
                        <line x1="41.171875" y1="113.19447969626553" x2="36.171875" y2="113.19447969626553"
                              style="visibility: inherit;" fill="rgb(0, 0, 0)" stroke="rgb(204, 204, 204)"
                              stroke-width="1px"></line>
                        <line x1="41.171875" y1="93.38805431412388" x2="36.171875" y2="93.38805431412388"
                              style="visibility: inherit;" fill="rgb(0, 0, 0)" stroke="rgb(204, 204, 204)"
                              stroke-width="1px"></line>
                        <line x1="41.171875" y1="76.23094824651015" x2="36.171875" y2="76.23094824651015"
                              style="visibility: inherit;" fill="rgb(0, 0, 0)" stroke="rgb(204, 204, 204)"
                              stroke-width="1px"></line>
                        <line x1="41.171875" y1="61.09730816380341" x2="36.171875" y2="61.09730816380341"
                              style="visibility: inherit;" fill="rgb(0, 0, 0)" stroke="rgb(204, 204, 204)"
                              stroke-width="1px"></line>
                        <line x1="41.171875" y1="47.559805806115506" x2="36.171875" y2="47.559805806115506"
                              style="visibility: inherit;" fill="rgb(0, 0, 0)" stroke="rgb(204, 204, 204)"
                              stroke-width="1px"></line>
                    </g>
                    <g transform="translate(31.171875, 0)">
                        <text x="0" y="372.08419963355703" dx="0em" dy="0.3em"
                              style="text-anchor: end; visibility: hidden; font-family: Roboto, sans-serif; font-size: 12px; font-weight: 200;"
                              fill="rgb(33, 33, 33)" stroke="none" stroke-width="1px">8
                        </text>
                        <text x="0" y="356.9505595508503" dx="0em" dy="0.3em"
                              style="text-anchor: end; visibility: inherit; font-family: Roboto, sans-serif; font-size: 12px; font-weight: 200;"
                              fill="rgb(33, 33, 33)" stroke="none" stroke-width="1px">9
                        </text>
                        <text x="0" y="343.4130571931625" dx="0em" dy="0.3em"
                              style="text-anchor: end; visibility: hidden; font-family: Roboto, sans-serif; font-size: 12px; font-weight: 200;"
                              fill="rgb(33, 33, 33)" stroke="none" stroke-width="1px">10
                        </text>
                        <text x="0" y="254.35235421094507" dx="0em" dy="0.3em"
                              style="text-anchor: end; visibility: inherit; font-family: Roboto, sans-serif; font-size: 12px; font-weight: 200;"
                              fill="rgb(33, 33, 33)" stroke="none" stroke-width="1px">20
                        </text>
                        <text x="0" y="202.25518267848298" dx="0em" dy="0.3em"
                              style="text-anchor: end; visibility: hidden; font-family: Roboto, sans-serif; font-size: 12px; font-weight: 200;"
                              fill="rgb(33, 33, 33)" stroke="none" stroke-width="1px">30
                        </text>
                        <text x="0" y="165.29165122872757" dx="0em" dy="0.3em"
                              style="text-anchor: end; visibility: inherit; font-family: Roboto, sans-serif; font-size: 12px; font-weight: 200;"
                              fill="rgb(33, 33, 33)" stroke="none" stroke-width="1px">40
                        </text>
                        <text x="0" y="136.62050878833307" dx="0em" dy="0.3em"
                              style="text-anchor: end; visibility: hidden; font-family: Roboto, sans-serif; font-size: 12px; font-weight: 200;"
                              fill="rgb(33, 33, 33)" stroke="none" stroke-width="1px">50
                        </text>
                        <text x="0" y="113.19447969626553" dx="0em" dy="0.3em"
                              style="text-anchor: end; visibility: inherit; font-family: Roboto, sans-serif; font-size: 12px; font-weight: 200;"
                              fill="rgb(33, 33, 33)" stroke="none" stroke-width="1px">60
                        </text>
                        <text x="0" y="93.38805431412388" dx="0em" dy="0.3em"
                              style="text-anchor: end; visibility: hidden; font-family: Roboto, sans-serif; font-size: 12px; font-weight: 200;"
                              fill="rgb(33, 33, 33)" stroke="none" stroke-width="1px">70
                        </text>
                        <text x="0" y="76.23094824651015" dx="0em" dy="0.3em"
                              style="text-anchor: end; visibility: inherit; font-family: Roboto, sans-serif; font-size: 12px; font-weight: 200;"
                              fill="rgb(33, 33, 33)" stroke="none" stroke-width="1px">80
                        </text>
                        <text x="0" y="61.09730816380341" dx="0em" dy="0.3em"
                              style="text-anchor: end; visibility: hidden; font-family: Roboto, sans-serif; font-size: 12px; font-weight: 200;"
                              fill="rgb(33, 33, 33)" stroke="none" stroke-width="1px">90
                        </text>
                        <text x="0" y="47.559805806115506" dx="0em" dy="0.3em"
                              style="text-anchor: end; visibility: inherit; font-family: Roboto, sans-serif; font-size: 12px; font-weight: 200;"
                              fill="rgb(33, 33, 33)" stroke="none" stroke-width="1px">100
                        </text>
                    </g>
                    <line x1="41.171875" y1="0" x2="41.171875" y2="377" fill="rgb(0, 0, 0)" stroke="rgb(204, 204, 204)"
                          stroke-width="1px"></line>
                </g>
            </g>
            <g transform="translate(41, 0)" clip-path="url(#clip_0)">
                <clipPath id="clip_0">
                    <rect width="1456" height="377"></rect>
                </clipPath>
                <g>
                    <g>
                        <g>
                            <line x1="59.29003418482229" y1="0" x2="59.29003418482229" y2="377" fill="rgb(0, 0, 0)"
                                  stroke="rgb(66, 66, 66)" stroke-width="1px" opacity="0.25"></line>
                            <line x1="179.94052405806084" y1="0" x2="179.94052405806084" y2="377" fill="rgb(0, 0, 0)"
                                  stroke="rgb(66, 66, 66)" stroke-width="1px" opacity="0.25"></line>
                            <line x1="300.59101393129936" y1="0" x2="300.59101393129936" y2="377" fill="rgb(0, 0, 0)"
                                  stroke="rgb(66, 66, 66)" stroke-width="1px" opacity="0.25"></line>
                            <line x1="421.2415038045379" y1="0" x2="421.2415038045379" y2="377" fill="rgb(0, 0, 0)"
                                  stroke="rgb(66, 66, 66)" stroke-width="1px" opacity="0.25"></line>
                            <line x1="541.8919936777764" y1="0" x2="541.8919936777764" y2="377" fill="rgb(0, 0, 0)"
                                  stroke="rgb(66, 66, 66)" stroke-width="1px" opacity="0.25"></line>
                            <line x1="662.542483551015" y1="0" x2="662.542483551015" y2="377" fill="rgb(0, 0, 0)"
                                  stroke="rgb(66, 66, 66)" stroke-width="1px" opacity="0.25"></line>
                            <line x1="783.1929734242535" y1="0" x2="783.1929734242535" y2="377" fill="rgb(0, 0, 0)"
                                  stroke="rgb(66, 66, 66)" stroke-width="1px" opacity="0.25"></line>
                            <line x1="903.8434632974921" y1="0" x2="903.8434632974921" y2="377" fill="rgb(0, 0, 0)"
                                  stroke="rgb(66, 66, 66)" stroke-width="1px" opacity="0.25"></line>
                            <line x1="1024.4939531707307" y1="0" x2="1024.4939531707307" y2="377" fill="rgb(0, 0, 0)"
                                  stroke="rgb(66, 66, 66)" stroke-width="1px" opacity="0.25"></line>
                            <line x1="1145.1444430439692" y1="0" x2="1145.1444430439692" y2="377" fill="rgb(0, 0, 0)"
                                  stroke="rgb(66, 66, 66)" stroke-width="1px" opacity="0.25"></line>
                            <line x1="1265.7949329172077" y1="0" x2="1265.7949329172077" y2="377" fill="rgb(0, 0, 0)"
                                  stroke="rgb(66, 66, 66)" stroke-width="1px" opacity="0.25"></line>
                            <line x1="1386.4454227904462" y1="0" x2="1386.4454227904462" y2="377" fill="rgb(0, 0, 0)"
                                  stroke="rgb(66, 66, 66)" stroke-width="1px" opacity="0.25"></line>
                        </g>
                        <g>
                            <line x1="0" y1="372.08419963355703" x2="1456.828125" y2="372.08419963355703"
                                  fill="rgb(0, 0, 0)" stroke="rgb(66, 66, 66)" stroke-width="1px" opacity="0.25"></line>
                            <line x1="0" y1="356.9505595508503" x2="1456.828125" y2="356.9505595508503"
                                  fill="rgb(0, 0, 0)" stroke="rgb(66, 66, 66)" stroke-width="1px" opacity="0.25"></line>
                            <line x1="0" y1="343.4130571931625" x2="1456.828125" y2="343.4130571931625"
                                  fill="rgb(0, 0, 0)" stroke="rgb(66, 66, 66)" stroke-width="1px" opacity="0.25"></line>
                            <line x1="0" y1="254.35235421094507" x2="1456.828125" y2="254.35235421094507"
                                  fill="rgb(0, 0, 0)" stroke="rgb(66, 66, 66)" stroke-width="1px" opacity="0.25"></line>
                            <line x1="0" y1="202.25518267848298" x2="1456.828125" y2="202.25518267848298"
                                  fill="rgb(0, 0, 0)" stroke="rgb(66, 66, 66)" stroke-width="1px" opacity="0.25"></line>
                            <line x1="0" y1="165.29165122872757" x2="1456.828125" y2="165.29165122872757"
                                  fill="rgb(0, 0, 0)" stroke="rgb(66, 66, 66)" stroke-width="1px" opacity="0.25"></line>
                            <line x1="0" y1="136.62050878833307" x2="1456.828125" y2="136.62050878833307"
                                  fill="rgb(0, 0, 0)" stroke="rgb(66, 66, 66)" stroke-width="1px" opacity="0.25"></line>
                            <line x1="0" y1="113.19447969626553" x2="1456.828125" y2="113.19447969626553"
                                  fill="rgb(0, 0, 0)" stroke="rgb(66, 66, 66)" stroke-width="1px" opacity="0.25"></line>
                            <line x1="0" y1="93.38805431412388" x2="1456.828125" y2="93.38805431412388"
                                  fill="rgb(0, 0, 0)" stroke="rgb(66, 66, 66)" stroke-width="1px" opacity="0.25"></line>
                            <line x1="0" y1="76.23094824651015" x2="1456.828125" y2="76.23094824651015"
                                  fill="rgb(0, 0, 0)" stroke="rgb(66, 66, 66)" stroke-width="1px" opacity="0.25"></line>
                            <line x1="0" y1="61.09730816380341" x2="1456.828125" y2="61.09730816380341"
                                  fill="rgb(0, 0, 0)" stroke="rgb(66, 66, 66)" stroke-width="1px" opacity="0.25"></line>
                            <line x1="0" y1="47.559805806115506" x2="1456.828125" y2="47.559805806115506"
                                  fill="rgb(0, 0, 0)" stroke="rgb(66, 66, 66)" stroke-width="1px" opacity="0.25"></line>
                        </g>
                    </g>
                </g>
                <g>
                    <g>
                        <line x1="300.59101393129936" y1="0" x2="300.59101393129936" y2="377" fill="rgb(0, 0, 0)"
                              stroke="rgb(153, 153, 153)" stroke-width="1.5px"></line>
                    </g>
                </g>
                <g>
                    <g>
                        <g>
                            <g>
                                <g>
                                    <path stroke="rgb(255, 112, 67)" stroke-width="2px"
                                          d="M300.59101393129936,68.17631732896864L301.64335431519373,67.11309647667072L302.6956946990881,74.48065826813374L303.7145210580177,80.19351843936236L304.71323900196836,76.58840968730937L305.7119569459191,68.89431356412958L306.7039720848768,69.51563712124386L307.69598722383455,72.9440121318619L308.69470516778523,73.6839388541693L309.68001750174994,74.74087153788204L310.6787354457007,79.62580433424044L311.67075058465844,83.46619042922448L312.6694685286092,87.85352208254612L313.6748892775528,93.2868858791921L314.68031002649644,98.17721609931341L315.66562236046127,100.72632675284773L316.65093469442604,104.74580899375424L317.68986946833445,105.13911374052094L318.6818846072922,108.87399673219907L319.6738997462499,111.88128591351392L320.65921208021473,115.63657743683177L321.6512272191724,119.9343185882546L322.6633507731091,122.38304267981356L323.6553659120668,124.77977965585762L324.6339754410386,127.76477911081747L325.61928777500344,132.04110197968419L326.59789730397523,133.25266073101614L327.58320963794,135.4066355751342L328.5685219719048,138.09011446273917L329.5471315008766,140.79549278128835L330.5324438348414,142.63151912156655L331.5177561688062,146.22765684200425L332.52987972274275,149.36496401466255L333.5285976666935,151.41243842501825L334.50050439067235,154.6524634756622L335.4925195296301,157.05726217501643L336.48453466858786,160.10124254193136L337.46314419755964,163.12508778814464L338.4417537265315,165.51722962860225L339.42706606049626,166.9310690339355L340.425784004447,169.25519705847913L341.4043935334188,170.69098206012993L342.40981428236245,172.28502510851553L343.40182942132014,173.01039873086202L344.37373614529906,174.75201723682153L345.35904847926383,177.28386943703075L346.3376580082356,179.5767012886009L347.3430787571793,182.15278960064126L348.33509389613704,183.7856774838179L349.3405146450807,184.57279185881558L350.3325297840384,186.9418367839238L351.3178421180032,188.5415082672444L352.31656006195396,188.86042018676847L353.3554948358624,189.11032739133802L354.36091558480604,190.35589160335792L355.3596335287567,191.96369484970188L356.3449458627215,193.26747748627002L357.35036661166515,194.80864481652853L358.34238175062285,196.21118100702634L359.3612081095525,197.62626249825124L360.34652044351725,199.15698605775427L361.338535582475,200.98744074627885L362.3372535264256,202.8174655393997L363.3493770803623,204.28872604511483L364.34809502431295,205.77441521577487L365.3200017482918,207.00704576494255L366.30531408225664,208.48565105430364L367.29732922121434,210.03218156339994L368.30274997015806,210.73847164237714L369.30817071910167,211.403775467868L370.29348305306644,212.74708616070237L371.3324178269749,213.57175504341626L372.32443296593266,214.83579746106227L373.34996212985516,216.38214439859232L374.36208568379175,217.50625504690822L375.36750643273547,218.39871348276876L376.3461159617072,219.6487882864137L377.331428295672,220.71269372546183L378.3301462396227,222.0559820506765L379.32216137858046,222.9926721504551L380.3141765175382,224.17227864368485L381.31289446148895,224.85876793031312L382.29820679545367,225.66464630124435L383.2835191294184,226.78129594022204L384.30234548834807,227.22292577579597L385.30106343229875,228.51439618704111L386.27967296127053,229.1659366003622L387.27839090522133,230.4040210870087L388.27040604417897,231.2158953291064L389.2758267931227,232.17762837991683L390.2611391270874,233.44768023588574L391.2665598760311,234.27077819376717L392.2652778199818,234.70921566448342L393.2706985689254,235.25624411185996L394.289524927855,236.14104062498433L395.2815400668128,237.51401394969358L396.3003664257423,237.4520720945184L397.28567875970714,238.32417193864L398.2978023136438,239.15090360873594L399.1892753777071,240.37254091388647L410.33604008099576,241.09559633759665L411.34146082993936,242.05354046115372L412.34017877389016,242.15474969984666L413.3321939128478,242.70354028848203L414.34431746678445,243.63350070888004L415.34973821572805,243.9683279508083L416.3551589646717,245.1498255646925L417.3538769086224,245.7199018479283L418.35259485257313,246.53373268180272L419.331204381545,247.29070193711902L420.31651671550975,247.90325815939048L421.3018290494745,248.5638301329138L422.3139526034111,249.22176489900855L423.3059677423689,249.68922007020586L424.29798288132656,250.49429556640746L425.3101064352632,251.50243432009893L426.31552718420687,252.46056114228304L427.30083951817164,253.56712565536915L428.2995574621223,254.14945472970862L429.2915726010801,254.82650470886873L430.29029054503076,255.6942935924111L431.28900848898155,256.2061927083637L432.2810236279392,256.96046609557055L433.2797415718899,257.69286452800014L434.28516232083365,258.53087780295334L435.30398867976317,259.1683781772705L436.3094094287068,259.5775538448366L437.30142456766464,260.47414783072014L438.3001425116152,260.9531428939031L439.2988604555659,261.58095544930893L440.2975783995167,262.15261980145897L441.3097019534532,263.02137379701117L442.29501428741804,263.68354711721486L443.30043503636165,264.22327353866837L444.29915298031244,264.5783137221224L445.311276534249,265.2962150600613L446.30999447819966,265.9873222567555L447.29530681216454,266.6459478405695L448.29402475611516,267.2557038531487L449.272634285087,268.10346834432136L450.25794661905184,268.7959749554388L451.2499617580095,269.53946255098055L452.24197689696723,270.10862782001834L453.2406948409179,270.7889585823492L454.21930436988976,270.82941105564856L455.2448335338123,271.2927133155553L456.243551477763,271.22587731264025L457.2489722267066,271.7432803115115L458.2476901706573,272.31117311756435L459.23970530961515,272.4350098699662L460.2317204485728,272.95767459405596L461.21703278253756,272.84340189354737L462.2023451165024,273.41337349732976L463.1876574504672,274.1818631917903L464.1796725894249,274.3368671552933L465.1716877283826,274.8866511861793L466.18381128231925,275.4150997361534L467.175826421277,275.78903002269914L468.1678415602347,275.9483773496667L469.1732623091784,276.4350280972991L470.1652774481362,276.8182929927547L471.150589782101,277.4452957371779L472.12919931107274,277.79977572643327L473.1145116450375,278.03858673036837L474.11322958898825,278.4023510115981L475.11865033793185,278.9654905626349L476.1307738918685,279.0932420483056L477.1093834208403,279.7517270171942L478.08799294981213,280.18446396590224L479.08000808876983,280.92399905652934L480.0720232277276,281.3278870659955L481.05733556169247,281.8729072711028L482.0225394806783,282.4106242768447L483.00785181464306,282.9464859923857L484.01327256358667,283.46220471459566L485.01199050753746,283.90420239774573L485.99730284150223,284.16914371474485L486.975912370474,284.5599125374258L487.98133311941774,284.6351082363901L488.9934566733542,285.2430474116782L489.985471812312,285.7147494696526L490.97078414627686,285.9511776147176L491.93598806526273,286.61899150387586L492.92800320422043,287.0881154962885L493.9133155381853,287.4881594790635L494.8919250671571,287.9766681303859L495.8973458161007,288.5449088996945L496.88936095505846,288.88639062060685L497.86126767903727,289.46761286512105L498.84658001300215,290.00235921276476L499.82518954197394,290.24201223873206L500.81050187593877,290.3104096687752L501.7757057949246,290.7542111510491L502.76101812888936,291.1096277662804L503.73962765786115,291.80257669256724L504.73834560181194,292.3112821404414L505.7303607407696,292.7210148298302L506.7290786847204,293.2199724316958L507.7009854086992,293.7985836050387L508.5790528627767,293.89379116625145L519.5247334162766,294.4697930828657L520.5301541652202,295.0604536908196L521.528872109171,295.3435244403701L522.5074816381428,295.4086291969814L523.4927939721075,295.9219354571935L524.4781063060724,296.4065088566401L525.463418640037,296.73273561142616L526.4554337789949,297.1791484774338L527.4474489179527,297.66616634968517L528.4126528369385,298.24698863076804L529.4046679758962,298.6713722385348L530.389980309861,299.0030378875704L531.3752926438258,299.20082703536406L532.3606049777906,299.6201776367217L533.3526201167483,299.95279327424527L534.3245268407272,300.2173142602596L535.316541979685,300.62160735759466L536.3353683386146,300.8604923023978L537.3407890875582,301.2473940325385L538.3328042265159,301.69324044445233L539.3248193654737,302.17328604257807L540.3235373094244,302.47342297034197L541.3088496433891,302.866177733117L542.3075675873398,303.1663640963446L543.3062855312905,303.5335690675652L544.3050034752412,303.87223247608085L545.2903158092059,304.0464872277323L546.2957365581495,304.48279428457914L547.3011573070933,304.68785944167445L548.2998752510441,304.94588326469585L549.2851875850087,305.1507243927333L550.2637971139807,305.41264679399L551.2692178629243,305.7370896175759L552.254530196889,306.04192331984956L553.2465453358467,306.4270427564014L554.2184520598256,306.61567612540836L555.2104671987834,306.82690627849155L556.2158879477271,307.04041487558334L557.2079030866847,307.28593211209085L558.1999182256425,307.56544369782983L559.1919333646002,307.8568553019727L560.183948503558,308.25475510856825L561.1692608375228,308.539053803438L562.1612759764805,308.87089064371145L563.1398855054523,309.2339631587896L564.145306254396,309.6245427432705L565.1306185883608,310.15391882891373L566.1159309223257,310.4374781157477L567.1280544762622,310.74733089435466L568.106664005234,311.0032930572175L569.0852735342058,311.3009854526558L570.0772886731636,311.2464751626457L571.0760066171142,311.4863945555426L572.054616146086,311.53048862649945L573.0466312850438,311.7234301914452L574.0386464240016,312.0015318949141L575.0306615629593,312.22674747057874L576.022676701917,312.60127517765494L577.0348002558537,312.74297071898377L578.0402210047973,312.72192756724274L579.032236143755,312.9265041418124L580.0175484777199,313.14999177167215L581.0028608116845,313.1455490821494L581.9948759506424,313.30047279710107L582.9868910896,313.3078066440368L583.9655006185718,313.1243100676915L584.9508129525367,313.6188447499749L585.9428280914944,314.0239365215003L586.9415460354452,314.2484265275316L587.9536695893817,314.5459084079542L588.9456847283394,314.70378638779727L589.9376998672972,314.77216568007435L590.9364178112479,315.1358200591098L591.9418385601915,315.2190751782695L592.9472593091352,315.3321895664686L593.9660856680648,315.6923336216077L594.9983176369802,315.98148453690186L596.0104411909169,316.307179246273L597.0225647448535,316.3580140756265L598.048093908776,316.3148550737456L599.0401090477337,316.44602929106827L600.0455297966773,316.60986908894137L601.050950545621,316.94799633939834L602.0563712945647,317.20966076558415L603.0550892385154,317.4966201211924L604.0672127924521,317.7674306941458L605.0659307364028,318.0614525240926L606.0646486803533,318.1474752884741L607.0901778442759,318.31924064179333L608.1224098131914,318.48627270341683L609.134533367128,318.6212291299117L610.1466569210647,318.9065772207993L611.1587804750012,319.21976486067945L612.157498418952,319.4158640798412L613.1562163629026,319.7006294254427L614.1415286968675,319.6563142847049L615.153652250804,320.00734456669056L616.1657758047407,320.3463472753264L617.1711965536844,320.5494077519558L618.0693724227407,320.7392830327391L629.26305676098,320.94977498532114L630.2751803149166,321.1460906055019L631.2738982588672,321.4729655203033L632.2927246177969,321.79577718630793L633.3048481717336,321.82206894041667L634.3169717256701,321.96982813111754L635.3156896696208,322.200492208058L636.3010020035856,322.3762492710989L637.2930171425434,322.7306501381233L638.3118435014729,322.7556379205154L639.3038586404306,322.9788156110565L640.3092793893743,323.02378762923183L641.307997333325,323.11493570536504L642.3134180822686,323.03666106681175L643.2987304162334,323.0375756301531L644.2840427501982,323.06688769277633L645.2760578891559,323.2664253397855L646.2814786380997,323.5066131756293L647.2600881670714,323.345068870486L648.265508916015,323.6394280286797L649.2709296649587,323.7625392639641L650.2763504139024,324.1408860106894L651.2750683578532,324.35363832542106L652.2804891067967,324.5531234358295L653.2859098557404,324.56819680553866L654.298033409677,324.76366827709165L655.2967513536277,325.061902803904L656.2887664925854,325.44220393528605L657.2740788265502,325.63024307595646L658.2862023804868,325.85029675505757L659.2983259344235,325.9948341554233L660.2970438783742,326.1632622624078L661.289059017332,326.489772770082L662.2810741562896,326.5754563241111L663.2663864902544,326.78276826975L664.2584016292122,326.9867880711097L665.2571195731629,327.1290739510242L666.2424319071276,327.12679905695626L667.2210414360995,327.1202379913165L668.2197593800502,327.3397841702176L669.2251801289938,327.71779100750274L670.2037896579656,327.84050381197386L671.1823991869375,328.00702655261676L672.1677115209022,328.28652500746847L673.1396182448811,328.4350562370298L674.1249305788459,328.8365411060461L675.1035401078177,328.8618567065256L676.0821496367895,329.1874926178354L677.0540563607684,329.4106222216508L678.0393686947331,329.62562199970273L679.0783034686417,329.81668919654635L680.0837242175854,329.93714169168334L681.0623337465571,330.08581170088604L682.0543488855147,330.2917136374461L683.0396612194796,330.46338712658087L684.0316763584374,330.5398377041207L685.030394302388,330.8334224554204L686.0358150513317,330.9787259294926L687.0278301902895,331.3319144505442L688.0332509392331,331.10218038496214L689.0319688831837,331.26683323086047L690.0239840221416,331.31585566427145L691.0227019660922,331.52383979220895L692.0214199100428,331.67427613616286L693.0134350490007,331.86937438671845L694.0054501879584,332.11863006862643L694.9974653269162,332.1678187951514L695.976074855888,332.4026931090794L696.9747927998387,332.56807184112535L697.9869163537753,332.6101484679406L698.9923371027189,332.66752093349635L700.0044606566555,332.98526747803095L700.9964757956133,333.16876901155473L701.981788129578,333.4018024640664L702.9738032685358,333.7553036943653L703.9591156025006,333.85874712441733L704.9511307414583,334.047453623759L705.9498486854089,334.2076026691999L706.9284582143808,334.26920203271175L707.9003649383596,334.5862947374297L708.9124884922963,334.81935717909795L709.9246120462329,335.0863354051293L710.9166271851906,335.33291339518615L711.9086423241483,335.48773077523236L712.914063073092,335.726589674935L713.9060782120498,335.9529359228177L714.8913905460146,336.1522033615855L715.8901084899654,336.2888151170403L716.8754208239301,336.6147455513002L717.8607331578947,336.8776494313599L718.8594511018455,336.96037975593117L719.8715746557822,337.13255747611345L720.8769954047258,337.34368773089614L721.8690105436837,337.5977405931721L722.8677284876344,337.506540265815L723.853040821599,337.62913725044683L724.8383531555637,337.9134996526382L725.8437739045074,337.9689645802257L726.8357890434652,338.1445468508153L727.7138564975427,338.2241021491265L738.8204043708736,338.4554956841311L739.8593391447821,338.4957302767538L740.8513542837397,338.66158800561135L741.8366666177045,338.94525624815725L742.8353845616551,339.1815543631919L743.8341025056059,339.13779795928593L744.8261176445635,338.9315628543515L745.8181327835215,339.25894357287325L746.8101479224791,339.2948657123993L747.80886586643,339.58483412565323L748.7874753954015,339.5280836983902L749.7928961443453,339.74477464981265L750.7849112833031,340.0396341531553L751.7635208122749,340.4066562518496L752.7689415612185,340.4136517773575L753.7475510901903,340.5044280697606L754.7462690341409,340.69419074944193L755.7315813681058,340.7516017922545L756.7235965070637,340.69881980119135L757.6888004260494,340.8171565159308L758.6741127600143,341.0400744783102L759.6795335089579,341.16116244806875L760.6715486479156,341.07431479025774L761.6702665918663,341.31421558523135L762.668984535817,341.56449153099567L763.6677024797677,341.6831456173533L764.6664204237184,341.7791560604367L765.6517327576832,341.98080899976947L766.637045091648,342.1689714018115L767.6290602306057,342.1847948908216L768.6210753695635,342.3561772196048L769.6130905085213,342.3523049922946L770.6051056474789,342.4744739036344L771.6172292014156,342.63303735613624L772.6025415353805,342.70377820355327L773.587853869345,342.87463313362207L774.5798690083029,343.12788713348664L775.5651813422678,343.328294999138L776.5437908712394,343.24624096047506L777.5291032052043,343.4364158450083L778.514415539169,343.6054903258283L779.5064306781267,343.87126819998747L780.5252570370563,343.95236470357224L781.4904609560423,344.0172886420024L782.4824760949999,343.79689938035995L783.4677884289647,343.8911197731759L784.4598035679226,343.7720122049668L785.4317102919015,343.7885861136882L786.4304282358521,343.78066198037914L787.4157405698169,343.972664814219L788.4077557087745,344.1086864301389L789.3863652377464,344.21782476881083L790.3783803767041,344.395803048627L791.3636927106688,344.6625765279474L792.3758162646056,344.7886469672772L793.3812370135494,345.05651728748677L794.373252152507,345.2513471990496L795.3719700964577,345.2350980599178L796.3639852354154,345.36184311994606L797.3627031793662,345.4393356574456L798.3547183183239,345.54101561021594L799.3400306522885,345.6403206836859L800.3588570112183,345.7712330123146L801.3575749551687,345.9257209113026L802.3562928991196,345.84673342384707L803.3550108430701,346.0235296434788L804.340323177035,346.07330901086965L805.3323383159928,346.13787503600315L806.3243534549505,346.20440291193717L807.3163685939081,346.37427067962136L808.315086537859,346.66826383965116L809.3071016768166,346.78130143155704L810.2857112057885,346.9918215018632L811.2911319547322,347.1049187944552L812.2831470936899,347.1439229229093L813.2952706476264,347.14614693791384L814.2872857865843,347.364264987479L815.2860037305348,347.35621119817665L816.2713160644997,347.43348594935054L817.2633312034575,347.4342173846876L818.2419407324293,347.67687469599247L819.2339558713869,347.7200992078001L820.2192682053517,347.85564187651323L821.2246889542954,348.0313461348372L822.2100012882603,347.9193417361496L823.208719232211,348.1063248883511L824.1940315661758,348.12798575124043L825.2329663400842,348.29527979513733L826.2383870890279,348.5197260113599L827.2505106429644,348.4765186427929L828.2492285869151,348.64080830590484L829.2412437258728,348.60314222378554L830.2332588648306,348.71072645269123L831.2520852237602,348.76748731174496L832.3111284126475,348.8551112290297L833.3768744065278,348.7794813453341L834.4158091804362,349.00856368266443L835.561988834232,348.977702420112L836.5875179981545,349.0869269348082L837.5125050871827,349.0861490317143L848.8134343053093,349.16854290788746L849.8188550542529,349.4512959043555L850.8175729982037,349.64236492591925L851.8498049671191,349.6243127233318L852.8351173010839,349.4826401152614L853.8070240250629,349.68517779825714L854.7856335540347,349.72933184253964L855.7709458879993,349.7934654796052L856.7495554169714,349.8052589389971L857.734867750936,349.6208365480576L858.7402884998796,349.5078571344818L859.7323036388374,349.6072350144792L860.7176159728023,349.56622130207455L861.7096311117599,349.7546667093927L862.7083490557108,349.8048460997147L863.6936613896754,349.73908113339L864.692379333626,349.95011184328183L865.6642860576048,350.1078130988656L866.6630040015557,350.07935202690874L867.6617219455064,350.04845316302163L868.660439889457,349.9294889996937L869.6457522234219,350.114144815459L870.6377673623797,350.26136988170185L871.6632965263022,350.46547134976134L872.6754200802387,350.58645562481723L873.6875436341752,350.6865408679732L874.692964383119,350.8311477922233L875.6983851320628,350.8939727302902L876.6836974660273,351.03353836041833L877.6489013850132,351.10302511186865L878.647619328964,351.107247713974L879.6396344679218,351.3581437822871L880.6249468018866,351.56587035498796L881.6169619408442,351.59479558389273L882.615679884795,351.459315822531L883.5875866087738,351.4029898890264L884.5728989427387,351.4869715118471L885.5716168866893,351.5915738969662L886.5569292206542,351.7227990953506L887.5489443596118,351.8380763108136L888.5409594985696,352.0494724157866L889.5195690275415,352.29548872771466L890.4981785565133,352.28012720565306L891.476788085485,352.5121571907804L892.4755060294358,352.5613784820794L893.52784641333,352.7521956703791L894.5332671622738,352.9033236554281L895.5118766912457,352.9719075234854L896.4971890252104,353.09198892808695L897.4959069691611,353.0800632568257L898.5013277181048,353.0183785366285L899.4933428570625,353.0533197113548L900.505466410999,353.1023592429156L901.484075939971,353.24493080981244L902.4961994939075,353.4415802398552L903.4882146328652,353.4641122193695L904.4601213568442,353.4908685845516L905.42532527583,353.68291563071585L906.4106376097948,353.79256288685866L907.3892471387667,353.8482001649225L908.3812622777244,354.00840048702975L909.3665746116891,354.124875775787L910.358589750647,354.04930628159417L911.3371992796187,354.09547703154533L912.3560256385483,354.17973311571166L913.3480407775061,354.15378612829477L914.3534615264497,353.9550546746925L915.3521794704004,353.82900441158995L916.3173833893861,354.0259056511295L917.2959929183581,354.0114929545234L918.27460244733,354.2174964620802L919.2532119763018,354.19744203761536L920.2318215052736,354.19409525308816L921.2171338392385,354.18367705596023L922.1957433682102,354.0553404021596L923.1944613121609,354.21352797276467L924.1864764511187,354.10035361864885L925.1784915900764,354.19794257336184L926.1839123390199,354.009814850093L927.2027386979497,354.07921743621284L928.2014566419004,354.24040069207354L929.1934717808581,353.7599380604858L930.1720813098299,353.81563476870394L931.1775020587736,353.6039325624317L932.1695171977312,353.5826476912596L933.168235141682,353.4033480596511L934.1669530856326,353.3868411613388L935.1522654195975,353.5147356153624L936.1509833635481,353.44139120818767L937.136295697513,353.6987502418861L938.1551220564426,353.4112918301574L939.167245610379,353.3946991458965L940.1391523343578,353.5399336889607L941.1311674733157,353.6075724101611L942.1432910272523,353.71806847494827L943.1353061662101,353.6265481725428L944.1273213051677,353.63016675581576L945.1193364441257,353.5155021509687L946.1314599980622,353.6146505636977L946.9961218421536,353.66913352658776L958.0892641054986,353.67525649601254L959.0812792444564,353.7351197374618L960.0934027983931,353.79195648954453L961.0854179373507,353.9288460896981L962.0774330763086,353.72487200719905L963.089556630245,354.00770412542363L964.0949773791888,353.82314469466945L965.0668841031676,353.67214439841825L966.0723048521113,353.57750860001005L967.057617186076,353.57821513641574L968.0563351300268,353.76587950758136L969.0282418540056,353.8956677291613L970.0202569929633,354.02519859928975L971.025677741907,354.2305714722878L972.0243956858577,354.17833157185663L973.0097080198225,354.23498237730223L974.0151287687662,354.3615311304846L975.0071439077238,354.46411181111574L975.9924562416887,354.70110763036996L976.9777685756534,354.79029415995274L977.9630809096183,354.99584952922146L978.955096048576,355.23140316684186L979.9404083825407,355.41716790551675L980.9324235214985,355.55390822796L981.9244386604563,355.7660289717431L982.9164537994141,355.83484470227387L983.9218745483576,355.8455540308509L984.9205924923083,355.84391715606375L985.9059048262732,356.0857622857763L986.8778115502521,356.18918009488567L987.8564210792237,356.11215793129765L988.8551390231744,356.20194984171474L989.8404513571393,356.2748762782134L990.825763691104,356.37985232107394L991.804373220076,356.49742440448057L992.7963883590337,356.7260654370245L993.7884034979913,356.63118233880317L994.7938242469351,356.69984556299704L995.7791365808997,356.8566837112023L996.7510433048785,356.8627901479745L997.7363556388434,357.09638831437104L998.7216679728082,357.2128489858664L999.7069803067731,357.23338460721703L1000.6855898357448,357.4068366174522L1001.6776049747027,357.50842319178173L1002.6763229186535,357.6679598100947L1003.6683380576111,357.84048100433984L1004.6670560015618,357.7707678261571L1005.6523683355264,358.0051456666293L1006.6242750595054,358.0970644150416L1007.622993003456,358.1333012330034L1008.6418193623856,358.2679937742027L1009.6673485263082,358.26781185863035L1010.6995804952238,358.23539393137446L1011.7050012441673,358.41327790697466L1012.717124798104,358.33123308430703L1013.7426539620265,358.3977700052631L1014.7480747109701,358.2842965368185L1015.733387044935,358.44395855204L1016.7186993788996,358.6176948797776L1017.7308229328363,358.7561357552358L1018.7496492917659,358.80258651652514L1019.7684756506954,358.67456454150766L1020.8074104246039,358.6607539973524L1021.8195339785406,358.71998425431667L1022.858468752449,358.7896120020245L1023.8705923063854,358.6762069357881L1024.8693102503362,358.79000569605046L1025.8613253892938,358.8746708977471L1026.82652930828,358.87874319939L1027.8252472522306,359.01847415315797L1028.8440736111602,358.96837406207777L1029.8360887501178,358.9404081935719L1030.8549151090474,358.9380873881682L1031.8469302480053,358.9579864546125L1032.8858650219138,359.0379414002142L1033.9046913808434,359.0869310932027L1034.910112129787,359.1308139899741L1035.9155328787306,359.09768261802606L1036.9544676526389,359.2111033882724L1037.9866996215544,359.3004297479836L1038.998823175491,359.20223890645804"
                                          style="fill: none;" fill="none"></path>
                                </g>
                            </g>
                        </g>
                    </g>
                    <g opacity="0.2">
                        <g>
                            <g>
                                <g>
                                    <path stroke="rgb(255, 112, 67)" stroke-width="2px"
                                          d="M300.59101393129936,68.17631732896864L301.64335431519373,66.05965169954406L302.6956946990881,90.59300211554651L303.7145210580177,98.99463506009668L304.71323900196836,63.133632210396215L305.7119569459191,36.20075404095105L306.7039720848768,73.29457934268457L307.69598722383455,99.78707750138877L308.69470516778523,79.73400736609996L309.68001750174994,84.61471889353773L310.6787354457007,142.16767890807313L311.67075058465844,135.2582150260191L312.6694685286092,156.54994645657064L313.6748892775528,198.07552333709376L314.68031002649644,197.69055216234258L315.66562236046127,146.21892162216605L316.65093469442604,194.87490510809963L317.68986946833445,111.95312032844635L318.6818846072922,204.76597376634092L319.6738997462499,187.6426990638941L320.65921208021473,229.25132920662102L321.6512272191724,277.44320195316243L322.6633507731091,192.03395176904127L323.6553659120668,196.53194750611465L324.6339754410386,232.40460591794275L325.61928777500344,363.6606099211328L326.59789730397523,169.02694379212332L327.58320963794,212.24698825779407L328.5685219719048,250.3021473660097L329.5471315008766,261.09537060031903L330.5324438348414,213.7648755083181L331.5177561688062,404.4314359711853L332.52987972274275,342.7784001146795L333.5285976666935,246.02868425000634L334.50050439067235,401.21363389606466L335.4925195296301,291.7509677835049L336.48453466858786,401.5421994243953L337.46314419755964,419.99103509727496L338.4417537265315,320.3604856717887L339.42706606049626,237.5863716065078L340.425784004447,330.6960557637865L341.4043935334188,247.78081088881186L342.40981428236245,264.7798583206841L343.40182942132014,207.961518098538L344.37373614529906,288.421633589393L345.35904847926383,444.696026076906L347.3430787571793,522.612800199677L348.33509389613704,301.22713732582145L349.3405146450807,229.2474790820824L350.3325297840384,492.2652336314677L351.3178421180032,313.73983842910263L352.31656006195396,206.14383862345272L353.3554948358624,202.71161083255924L354.36091558480604,282.48816974704204L355.3596335287567,335.78650037303424L356.3449458627215,297.3448908494236L357.35036661166515,336.5724683560221L358.34238175062285,319.91091546580276L359.3612081095525,326.82560520731784L360.34652044351725,352.81695149570123L361.338535582475,443.58276952633787L362.3372535264256,457.21256543971293L363.3493770803623,360.1847909985865L364.34809502431295,369.62450455578147L365.3200017482918,326.78802525943877L366.30531408225664,381.0033710413574L367.29732922121434,407.13050295997505L368.30274997015806,268.5181849968333L369.30817071910167,265.9556080063119L370.29348305306644,371.86452880057493L371.3324178269749,288.31994270275555L372.32443296593266,363.8529903387515L373.34996212985516,461.8034986654364L374.36208568379175,344.02819571202133L375.36750643273547,308.32860742264944L376.3461159617072,380.98903079166894L377.331428295672,343.6484053337149L378.3301462396227,421.46744705063793L379.32216137858046,327.16904983326594L380.3141765175382,382.6613550608611L381.31289446148895,294.0990800335196L382.29820679545367,313.46707168470147L383.2835191294184,379.2944755069334L384.30234548834807,268.94324081477004L385.30106343229875,450.8310106672173L386.27967296127053,298.87109576952963L387.27839090522133,441.3396500755775L388.27040604417897,329.23921389535707L389.2758267931227,363.2477239078487L390.2611391270874,481.1449031603085L391.2665598760311,339.3803290098706L392.2652778199818,280.58862769378607L393.2706985689254,296.40804366380934L394.289524927855,360.33600549500426L395.2815400668128,702.0435570049663L396.3003664257423,231.90785437619286L397.28567875970714,365.81697460762734L398.2978023136438,357.61502659320223L399.1892753777071,536.2057195961127L410.33604008099576,339.9650832565042L411.34146082993936,404.9412848902631L412.34017877389016,252.36273440746425L413.3321939128478,312.40766051908133L414.34431746678445,405.88020913751444L415.34973821572805,282.6474662326876L416.3551589646717,584.3053252575683L417.3538769086224,322.7651261867863L418.35259485257313,381.472341697956L419.331204381545,368.2344840690816L420.31651671550975,336.3302364311447L421.3018290494745,348.6848195979214L422.3139526034111,350.0232339210043L423.3059677423689,313.0390892702918L424.29798288132656,395.63905017157197L427.30083951817164,650.6558889369677L428.2995574621223,344.58657674637897L429.2915726010801,370.1496543400803L430.29029054503076,442.2616837618473L431.28900848898155,334.12577641398684L432.2810236279392,401.7078972469888L434.28516232083365,443.34792662693144L435.30398867976317,371.9038625816197L436.3094094287068,320.46244441516717L437.30142456766464,491.76256644033026L438.3001425116152,337.41735110890016L439.2988604555659,376.92177555766483L440.2975783995167,362.8505284407229L441.3097019534532,492.6362726239478L442.29501428741804,394.45216519026957L443.30043503636165,359.58929419179435L444.29915298031244,319.30353052216697L445.311276534249,423.10769042207704L453.2406948409179,428.5263577129882L454.21930436988976,276.37030670075893L455.2448335338123,357.13621185313104L456.243551477763,262.45989063391653L457.2489722267066,374.71677260941186L458.2476901706573,392.98349703643356L459.23970530961515,290.8334810146498L460.2317204485728,380.64202873824365L461.21703278253756,257.76405170354616L462.2023451165024,399.9808539716145L463.1876574504672,518.4687156907884L464.1796725894249,298.6180686600446L465.1716877283826,397.65273732101025L466.18381128231925,391.53977572429943L467.175826421277,346.4983075060879L468.1678415602347,301.64552383852543L469.1732623091784,381.2033901527175L470.1652774481362,351.6531751654205L471.150589782101,444.2854247106467L472.12919931107274,346.24016063299524L473.1145116450375,320.18723286649066L474.11322958898825,350.31366633080603L475.11865033793185,420.5452131919296L476.1307738918685,300.2883300206959L477.1093834208403,480.1574119218158L478.08799294981213,374.87460052642535L479.08000808876983,573.0476836443983L480.0720232277276,368.3317216557797L481.05733556169247,423.45920629124504L485.01199050753746,387.33880055285954L485.99730284150223,336.1890823363053L486.975912370474,372.0480721559476L487.98133311941774,297.518068862787L488.9934566733542,477.9806161253164L489.985471812312,405.23749748726607L490.97078414627686,332.65760722171365L491.93598806526273,545.4802235456779L495.8973458161007,467.633010782092L496.88936095505846,366.55495244647597L497.86126767903727,482.0468943888102L498.84658001300215,452.5702348390943L499.82518954197394,340.3397961743311L500.81050187593877,302.7856561722145L501.7757057949246,409.81340200354276L502.76101812888936,376.60136424662284L503.73962765786115,684.8926553136921L507.7009854086992,507.38433617613515L508.5790528627767,312.33296264932466L519.5247334162766,510.58487281334817L520.5301541652202,529.3479438243128L521.528872109171,361.6612143010645L522.5074816381428,307.9597904242923L523.4927939721075,468.16415682995495L530.389980309861,385.87130674750665L531.3752926438258,343.95745627713336L532.3606049777906,426.2650451968845L533.3526201167483,388.77937424531154L534.3245268407272,365.5245904920521L535.316541979685,422.23053940074664L536.3353683386146,358.76870058279474L537.3407890875582,415.9258382181303L544.3050034752412,401.28585279405405L545.2903158092059,345.25411499823235L546.2957365581495,455.1262737320376L547.3011573070933,355.27714941278583L548.2998752510441,373.0013014852322L549.2851875850087,356.1560388028414L550.2637971139807,375.5491572874767L551.2692178629243,400.9023803029452L553.2465453358467,432.77632461854773L554.2184520598256,353.83153809846027L555.2104671987834,361.3273466102548L556.2158879477271,362.5351582120264L557.2079030866847,373.9675618012077L558.1999182256425,387.38237572600866L569.0852735342058,403.6945969409886L570.0772886731636,299.6912812019889L571.0760066171142,380.6152799859931L572.054616146086,321.78134383469L573.0466312850438,364.5086056290134L574.0386464240016,397.8721878729326L576.022676701917,451.669270716545L577.0348002558537,349.83995957116076L578.0402210047973,308.01088817616153L579.032236143755,371.1986333983834L580.0175484777199,378.7182927214132L581.0028608116845,312.12620627865545L581.9948759506424,355.3041508939135L582.9868910896,315.0198995409155L583.9655006185718,276.2859212843601L584.9508129525367,609.6981855587118L587.9536695893817,416.1185677161622L588.9456847283394,358.8471184571661L589.9376998672972,332.11950991962937L590.9364178112479,459.3849233955063L591.9418385601915,336.823131580088L592.9472593091352,345.7767667921328L593.9660856680648,459.8943487604992L596.0104411909169,438.52438915167915L597.0225647448535,329.3239916071925L598.048093908776,306.22206298999555L599.0401090477337,353.2912227716507L600.0455297966773,364.7337912634865L601.050950545621,450.7902222703764L605.0659307364028,426.3580974772257L606.0646486803533,341.6240094465555L607.0901778442759,370.6527669514873L608.1224098131914,369.2364166719897L609.134533367128,358.0755368274702L610.1466569210647,424.69249267584627L613.1562163629026,426.6089511149644L614.1415286968675,308.8141901442446L615.153652250804,474.93210351502444L632.2927246177969,459.35276138139653L633.3048481717336,328.9024781684051L634.3169717256701,368.22205771321046L635.3156896696208,404.60117078253785L637.2930171425434,491.80393797763134L638.3118435014729,329.5723784902205L639.3038586404306,402.897620946493L640.3092793893743,335.63889450183524L641.307997333325,350.20400546247413L642.3134180822686,303.57075052454616L643.2987304162334,323.2841287195635L644.2840427501982,331.23808707635527L645.2760578891559,393.4451027521693L646.2814786380997,414.64682768163266L647.2600881670714,285.54269528151985L648.265508916015,450.0318240985206L649.2709296649587,362.862403219268L650.2763504139024,537.0173923072064L652.2804891067967,396.4708193903152L653.2859098557404,328.8067344993058L654.298033409677,395.2435077533969L658.2862023804868,409.94240459593016L659.2983259344235,374.8281815928697L660.2970438783742,385.41076925886836L661.289059017332,489.32430778668277L662.2810741562896,353.46487409625263L663.2663864902544,405.5382596423598L664.2584016292122,404.2927903444749L665.2571195731629,375.93121793734093L666.2424319071276,326.4779958596164L667.2210414360995,325.2532626317849L668.2197593800502,414.21315236642727L669.2251801289938,570.3823138841476L670.2037896579656,369.3242961702887L671.1823991869375,388.4831113935181L674.1249305788459,642.0220814881868L675.1035401078177,336.4844789396509L676.0821496367895,504.0489891532837L679.0783034686417,404.13589431843724L680.0837242175854,371.69566194510514L681.0623337465571,384.1235631999391L683.0396612194796,395.74773131903584L684.0316763584374,355.686556959502L685.030394302388,479.1707461849576L687.0278301902895,557.389168795782L688.0332509392331,275.74824277120865L689.0319688831837,394.23970248754887L690.0239840221416,347.0952769237569L691.0227019660922,418.4796487860693L694.0054501879584,447.76755393124216L694.9974653269162,348.1976849797666L695.976074855888,438.39346917224674L696.9747927998387,397.4138295559178L697.9869163537753,346.2916658268565L698.9923371027189,351.7544173184981L700.0044606566555,520.1618544681006L702.9738032685358,585.5806582510154L703.9591156025006,371.1159540413035L704.9511307414583,413.30222907114165L705.9498486854089,398.033413685293L706.9284582143808,355.27998504084934L707.9003649383596,528.5550374163822L717.8607331578947,475.37297654770515L718.8594511018455,366.9034235497693L719.8715746557822,410.1936383879447L721.8690105436837,469.8728737488175L722.8677284876344,310.81128237368017L723.853040821599,385.55294242502487L724.8383531555637,503.34954295894966L725.8437739045074,357.55597307183297L726.8357890434652,414.661569046785L727.7138564975427,367.4834846737056L738.8204043708736,454.24402070891773L739.8593391447821,352.51964110363264L740.8513542837397,410.28353032115353L742.8353845616551,460.63720224932763L743.8341025056059,325.3446158276894L744.8261176445635,283.88273088052716L745.8181327835215,585.177647146724L746.8101479224791,351.9249683037127L747.80886586643,521.8713615108023L748.7874753954015,321.7450758666158L749.7928961443453,447.73836517188903L751.7635208122749,779.7263635496723L752.7689415612185,342.805910784051L753.7475510901903,375.751053713279L754.7462690341409,430.4475517295502L755.7315813681058,361.9813958433111L756.7235965070637,323.8373660189921L757.6888004260494,389.4681433608064L759.6795335089579,391.43029461875153L760.6715486479156,314.2168329246229L761.6702665918663,474.09991870701566L766.637045091648,433.81749836753414L767.6290602306057,347.8236344502682L768.6210753695635,423.01160001407413L769.6130905085213,341.0044081432924L770.6051056474789,394.603450017261L771.6172292014156,415.6974321443406L772.6025415353805,370.38051198054904L773.587853869345,424.2247750912509L775.5651813422678,446.58300197688425L776.5437908712394,317.0354677043353L777.5291032052043,439.3536577590463L779.5064306781267,515.9517222086721L780.5252570370563,376.77220856007193L781.4904609560423,369.63766841437024L782.4824760949999,282.2814263381389L783.4677884289647,383.15757919109217L784.4598035679226,306.8219930144962L785.4317102919015,349.9027232252005L786.4304282358521,340.9524665411303L787.4157405698169,443.9223105342481L794.373252152507,449.3849391015273L795.3719700964577,339.4125258932885L796.3639852354154,403.192646820936L801.3575749551687,421.71647327970646L802.3562928991196,319.45622131163867L803.3550108430701,438.13184945824975L804.340323177035,366.08923617489046L805.3323383159928,372.8057021391003L806.3243534549505,373.82781242800473L807.3163685939081,434.1483094053728L811.2911319547322,398.8824083403244L812.2831470936899,362.7742595111735L813.2952706476264,347.9893355565098L814.2872857865843,479.74130329210954L815.2860037305348,344.3386192784517L816.2713160644997,380.7580262383101L817.2633312034575,347.71273236559716L818.2419407324293,511.3259714953939L819.2339558713869,365.37691754652155L820.2192682053517,414.2247078460201L821.2246889542954,443.37985627432033L822.2100012882603,310.88047735682534L823.208719232211,453.39559831111245L824.1940315661758,356.74376415875753L825.2329663400842,437.8693173200818L826.2383870890279,492.8164326146888L827.2505106429644,332.77795478870877L828.2492285869151,436.50598614882153L829.2412437258728,334.7721878320611L830.2332588648306,399.2716621666816L831.2520852237602,372.9983241832356L832.3111284126475,388.54920390530805L833.3768744065278,322.22207701966465L834.4158091804362,502.58758127949443L835.561988834232,337.43427468215316L836.5875179981545,401.1940077501442L837.5125050871827,348.7810912470578L848.8134343053093,386.5167353958651L850.8175729982037,463.2621130174982L851.8498049671191,342.6842669831069L852.8351173010839,302.98735103961565L853.8070240250629,475.74741144947734L854.7856335540347,368.57143440749985L855.7709458879993,378.2137524875927L856.7495554169714,354.5878551696114L857.734867750936,291.5163542877944L858.7402884998796,310.8611777574513L859.7323036388374,397.1702168546016L860.7176159728023,334.1123832105875L861.7096311117599,463.887484129519L862.7083490557108,371.73254585458363L863.6936613896754,325.689776776686L864.692379333626,489.39370450776096L865.6642860576048,438.01154998745807L866.6630040015557,339.06694106383736L867.6617219455064,338.11860203688644L868.660439889457,309.01031824862304L869.6457522234219,462.6976543264916L877.6489013850132,383.37167688352605L878.647619328964,352.85519071682444L879.6396344679218,561.2464998232483L880.6249468018866,492.9029596051377L881.6169619408442,364.1316130397012L882.615679884795,304.98615763878286L883.5875866087738,329.975381342857L884.5728989427387,392.1199626692728L889.5195690275415,559.2802995052605L890.4981785565133,346.0123997943506L891.476788085485,534.2089416031814L892.4755060294358,375.0651313008339L893.52784641333,478.4521757227002L896.4971890252104,417.4972353994534L897.4959069691611,348.14131660554335L898.5013277181048,329.2796692569114L899.4933428570625,368.77148000786667L900.505466410999,375.7854552080391L901.484075939971,435.13605049195894L902.4961994939075,488.7320473018007L903.4882146328652,363.43284222214726L904.4601213568442,365.43487843408076L905.42532527583,484.38789657337753L909.3665746116891,417.4575569880051L910.358589750647,325.10807622114754L911.3371992796187,375.6785294503216L912.3560256385483,396.85169168332885L913.3480407775061,343.4230319428691L914.3534615264497,288.251581930962L915.3521794704004,308.40431570389086L916.3173833893861,494.22460835711234L917.2959929183581,347.90921196924256L918.27460244733,507.5122228963009L919.2532119763018,345.7621897832691L920.2318215052736,352.7453560868315L921.2171338392385,349.72103627237817L922.1957433682102,307.58510290622246L923.1944613121609,453.5329107243767L924.1864764511187,312.22776448405665L925.1784915900764,406.2126527634098L926.1839123390199,290.30130794709066L927.2027386979497,388.89079100825677L928.2014566419004,457.43695632555244L929.1934717808581,228.8479760600275L930.1720813098299,381.07806964355376L931.1775020587736,283.41230637833695L932.1695171977312,344.50281241432396L933.168235141682,291.6382140141572L934.1669530856326,346.2725823172111L935.1522654195975,428.45043725589767L936.1509833635481,324.40723093531324L937.136295697513,639.5393310935424L938.1551220564426,264.6505906602412L939.167245610379,346.20095986345603L940.1391523343578,443.8865630385631L942.1432910272523,416.19928364468905L943.1353061662101,318.0418763761675L944.1273213051677,355.2642084545801L945.1193364441257,310.2147823551082L946.1314599980622,408.4182399357638L946.9961218421536,380.9036954983885L958.0892641054986,356.4662749485853L959.0812792444564,384.084753473953L961.0854179373507,438.5432075053209L962.0774330763086,284.1392616754948L963.089556630245,1381.9947689236128L964.0949773791888,289.3304525613638L965.0668841031676,298.6877541548046L966.0723048521113,316.43414310418535L967.057617186076,353.90067015195575L968.0563351300268,495.063161662665L971.025677741907,523.7175495864985L972.0243956858577,332.21815950852846L973.0097080198225,383.30010419949684L982.9164537994141,392.59526988218755L983.9218745483576,360.9244066658134L984.9205924923083,355.084191577534L985.9059048262732,626.4254596928575L986.8778115502521,416.7210738915978L987.8564210792237,324.40120693898956L988.8551390231744,407.0688095653452L992.7963883590337,589.5494849286521L993.7884034979913,318.34166789883017L994.7938242469351,393.95014862851355L995.7791365808997,467.011735202541L996.7510433048785,359.7771452455054L997.7363556388434,609.3874432482853L998.7216679728082,429.18065915835336L999.7069803067731,367.3444827127267L1000.6855898357448,488.7780093698329L1003.6683380576111,488.73952771629945L1004.6670560015618,328.2559251822696L1005.6523683355264,620.3228049835703L1006.6242750595054,411.76861937595464L1007.622993003456,376.7268380115273L1008.6418193623856,447.72051016442913L1009.6673485263082,358.1807606077006L1010.6995804952238,343.5718996450517L1011.7050012441673,498.7838432192335L1012.717124798104,323.97388641945804L1013.7426539620265,395.1949102216172L1014.7480747109701,312.7904822605938L1015.733387044935,475.87827482424393L1018.7496492917659,383.48460904975224L1019.7684756506954,308.13941991413236L1020.8074104246039,352.13982996670313L1021.8195339785406,391.2352377148607L1022.858468752449,398.0202555187324L1023.8705923063854,312.8367383026399L1024.8693102503362,431.24525720377625L1025.8613253892938,408.61200048846L1026.82652930828,360.8793656382228L1027.8252472522306,456.29324863244193L1028.8440736111602,336.57069078234395L1029.8360887501178,345.94645846778843L1030.8549151090474,357.80704225545657L1031.8469302480053,369.0995020270901L1032.8858650219138,405.8497072483114L1034.910112129787,382.74820729404337L1035.9155328787306,343.75158955325065L1036.9544676526389,432.5659642028765L1037.9866996215544,413.25534157930076L1038.998823175491,318.09414755077995"
                                          style="fill: none;" fill="none"></path>
                                </g>
                            </g>
                        </g>
                    </g>
                </g>
            </g>
            <g transform="translate(41, 377)" clip-path="url(#clip_1)">
                <clipPath id="clip_1">
                    <rect width="1456" height="23"></rect>
                </clipPath>
                <g>
                    <g>
                        <line x1="59.29003418482229" y1="0" x2="59.29003418482229" y2="5" style="visibility: inherit;"
                              fill="rgb(0, 0, 0)" stroke="rgb(204, 204, 204)" stroke-width="1px"></line>
                        <line x1="179.94052405806084" y1="0" x2="179.94052405806084" y2="5" style="visibility: inherit;"
                              fill="rgb(0, 0, 0)" stroke="rgb(204, 204, 204)" stroke-width="1px"></line>
                        <line x1="300.59101393129936" y1="0" x2="300.59101393129936" y2="5" style="visibility: inherit;"
                              fill="rgb(0, 0, 0)" stroke="rgb(204, 204, 204)" stroke-width="1px"></line>
                        <line x1="421.2415038045379" y1="0" x2="421.2415038045379" y2="5" style="visibility: inherit;"
                              fill="rgb(0, 0, 0)" stroke="rgb(204, 204, 204)" stroke-width="1px"></line>
                        <line x1="541.8919936777764" y1="0" x2="541.8919936777764" y2="5" style="visibility: inherit;"
                              fill="rgb(0, 0, 0)" stroke="rgb(204, 204, 204)" stroke-width="1px"></line>
                        <line x1="662.542483551015" y1="0" x2="662.542483551015" y2="5" style="visibility: inherit;"
                              fill="rgb(0, 0, 0)" stroke="rgb(204, 204, 204)" stroke-width="1px"></line>
                        <line x1="783.1929734242535" y1="0" x2="783.1929734242535" y2="5" style="visibility: inherit;"
                              fill="rgb(0, 0, 0)" stroke="rgb(204, 204, 204)" stroke-width="1px"></line>
                        <line x1="903.8434632974921" y1="0" x2="903.8434632974921" y2="5" style="visibility: inherit;"
                              fill="rgb(0, 0, 0)" stroke="rgb(204, 204, 204)" stroke-width="1px"></line>
                        <line x1="1024.4939531707307" y1="0" x2="1024.4939531707307" y2="5" style="visibility: inherit;"
                              fill="rgb(0, 0, 0)" stroke="rgb(204, 204, 204)" stroke-width="1px"></line>
                        <line x1="1145.1444430439692" y1="0" x2="1145.1444430439692" y2="5" style="visibility: inherit;"
                              fill="rgb(0, 0, 0)" stroke="rgb(204, 204, 204)" stroke-width="1px"></line>
                        <line x1="1265.7949329172077" y1="0" x2="1265.7949329172077" y2="5" style="visibility: inherit;"
                              fill="rgb(0, 0, 0)" stroke="rgb(204, 204, 204)" stroke-width="1px"></line>
                        <line x1="1386.4454227904462" y1="0" x2="1386.4454227904462" y2="5" style="visibility: inherit;"
                              fill="rgb(0, 0, 0)" stroke="rgb(204, 204, 204)" stroke-width="1px"></line>
                    </g>
                    <g transform="translate(0, 8)">
                        <text x="59.29003418482229" y="0" dx="0em" dy="0.95em"
                              style="text-anchor: middle; visibility: inherit; font-family: Roboto, sans-serif; font-size: 12px; font-weight: 200;"
                              fill="rgb(33, 33, 33)" stroke="none" stroke-width="1px">-0.01
                        </text>
                        <text x="179.94052405806084" y="0" dx="0em" dy="0.95em"
                              style="text-anchor: middle; visibility: inherit; font-family: Roboto, sans-serif; font-size: 12px; font-weight: 200;"
                              fill="rgb(33, 33, 33)" stroke="none" stroke-width="1px">-0.005
                        </text>
                        <text x="300.59101393129936" y="0" dx="0em" dy="0.95em"
                              style="text-anchor: middle; visibility: inherit; font-family: Roboto, sans-serif; font-size: 12px; font-weight: 200;"
                              fill="rgb(33, 33, 33)" stroke="none" stroke-width="1px">0
                        </text>
                        <text x="421.2415038045379" y="0" dx="0em" dy="0.95em"
                              style="text-anchor: middle; visibility: inherit; font-family: Roboto, sans-serif; font-size: 12px; font-weight: 200;"
                              fill="rgb(33, 33, 33)" stroke="none" stroke-width="1px">0.005
                        </text>
                        <text x="541.8919936777764" y="0" dx="0em" dy="0.95em"
                              style="text-anchor: middle; visibility: inherit; font-family: Roboto, sans-serif; font-size: 12px; font-weight: 200;"
                              fill="rgb(33, 33, 33)" stroke="none" stroke-width="1px">0.01
                        </text>
                        <text x="662.542483551015" y="0" dx="0em" dy="0.95em"
                              style="text-anchor: middle; visibility: inherit; font-family: Roboto, sans-serif; font-size: 12px; font-weight: 200;"
                              fill="rgb(33, 33, 33)" stroke="none" stroke-width="1px">0.015
                        </text>
                        <text x="783.1929734242535" y="0" dx="0em" dy="0.95em"
                              style="text-anchor: middle; visibility: inherit; font-family: Roboto, sans-serif; font-size: 12px; font-weight: 200;"
                              fill="rgb(33, 33, 33)" stroke="none" stroke-width="1px">0.02
                        </text>
                        <text x="903.8434632974921" y="0" dx="0em" dy="0.95em"
                              style="text-anchor: middle; visibility: inherit; font-family: Roboto, sans-serif; font-size: 12px; font-weight: 200;"
                              fill="rgb(33, 33, 33)" stroke="none" stroke-width="1px">0.025
                        </text>
                        <text x="1024.4939531707307" y="0" dx="0em" dy="0.95em"
                              style="text-anchor: middle; visibility: inherit; font-family: Roboto, sans-serif; font-size: 12px; font-weight: 200;"
                              fill="rgb(33, 33, 33)" stroke="none" stroke-width="1px">0.03
                        </text>
                        <text x="1145.1444430439692" y="0" dx="0em" dy="0.95em"
                              style="text-anchor: middle; visibility: inherit; font-family: Roboto, sans-serif; font-size: 12px; font-weight: 200;"
                              fill="rgb(33, 33, 33)" stroke="none" stroke-width="1px">0.035
                        </text>
                        <text x="1265.7949329172077" y="0" dx="0em" dy="0.95em"
                              style="text-anchor: middle; visibility: inherit; font-family: Roboto, sans-serif; font-size: 12px; font-weight: 200;"
                              fill="rgb(33, 33, 33)" stroke="none" stroke-width="1px">0.04
                        </text>
                        <text x="1386.4454227904462" y="0" dx="0em" dy="0.95em"
                              style="text-anchor: middle; visibility: inherit; font-family: Roboto, sans-serif; font-size: 12px; font-weight: 200;"
                              fill="rgb(33, 33, 33)" stroke="none" stroke-width="1px">0.045
                        </text>
                    </g>
                    <line x1="0" y1="0" x2="1456.828125" y2="0" fill="rgb(0, 0, 0)" stroke="rgb(204, 204, 204)"
                          stroke-width="1px"></line>
                </g>
            </g>
        </g>
    </g>
</svg>