<?xml version="1.0" encoding="UTF-8" standalone="no"?>
<svg
        xmlns:inkscape="http://www.inkscape.org/namespaces/inkscape"
        xmlns:sodipodi="http://sodipodi.sourceforge.net/DTD/sodipodi-0.dtd"
        width="522.25488pt"
        height="337.66034pt"
        viewBox="0 0 522.25488 337.66034"
        version="1.1"
        id="svg499"
        sodipodi:docname="ModelSelection.svg"
        xmlns="http://www.w3.org/2000/svg"
>
  <sodipodi:namedview
     id="namedview501"
     pagecolor="#ffffff"
     bordercolor="#000000"
     borderopacity="0.25"
     inkscape:showpageshadow="2"
     inkscape:pageopacity="0.0"
     inkscape:pagecheckerboard="0"
     inkscape:deskcolor="#d1d1d1"
     inkscape:document-units="pt"
     showgrid="false" />
  <defs
     id="defs190">
    <clipPath
       id="clip1-6">
      <path
         d="M 48.402344,23.582031 H 643.52344 V 381.72266 H 48.402344 Z m 0,0"
         id="path142-5" />
    </clipPath>
    <clipPath
       id="clip2-6">
      <path
         d="M 48.402344,287 H 643.52344 v 2 H 48.402344 Z m 0,0"
         id="path145-1" />
    </clipPath>
    <clipPath
       id="clip16-5">
      <path
         d="M 48.402344,23.582031 H 643.52344 V 381.72266 H 48.402344 Z m 0,0"
         id="path187-7" />
    </clipPath>
  </defs>
  <g
     id="surface10775"
     transform="translate(-67.981467,-52.325783)">
    <rect
       x="720.70416"
       y="425.13446"
       width="649"
       height="414"
       style="fill:#ffffff;fill-opacity:1;stroke:none"
       id="rect192" />
    <rect
       x="807.75549"
       y="487.89243"
       width="649"
       height="414"
       style="fill:#ffffff;fill-opacity:1;stroke:none"
       id="rect194" />
    <path
       style="fill:none;stroke:#ffffff;stroke-width:0.812734;stroke-linecap:round;stroke-linejoin:round;stroke-miterlimit:10;stroke-opacity:1"
       d="M 93.421777,378.19314 H 589.83006 V 64.149168 H 93.421777 Z m 0,0"
       id="path196" />
    <g
       clip-path="url(#clip1-6)"
       clip-rule="nonzero"
       id="g200"
       transform="matrix(0.76488179,0,0,0.75856033,93.421777,64.149168)">
      <path
         style="fill:#ffffff;fill-opacity:1;fill-rule:nonzero;stroke:none"
         d="M 48.402344,381.72266 H 643.52344 V 23.582031 H 48.402344 Z m 0,0"
         id="path198" />
    </g>
    <g
       clip-path="url(#clip2-6)"
       clip-rule="nonzero"
       id="g204"
       transform="matrix(0.76488179,0,0,0.75856033,93.421777,64.149168)">
      <path
         style="fill:none;stroke:#ebebeb;stroke-width:0.533489;stroke-linecap:butt;stroke-linejoin:round;stroke-miterlimit:10;stroke-opacity:1"
         d="M 48.402344,288.02734 H 643.51953"
         id="path202" />
    </g>
    <path
       style="fill:none;stroke:#000000;stroke-width:0.812734;stroke-linecap:butt;stroke-linejoin:round;stroke-miterlimit:10;stroke-opacity:1"
       d="m 151.1345,94.387868 21.77822,86.229942 21.7812,74.64412 21.77822,60.77964 21.7812,20.59372 21.77822,4.72619 21.7812,-4.37654 21.77822,0.19557 21.7812,-4.9336 21.77822,-2.40902 21.78121,-6.49814 21.77821,-4.56025 21.78121,-6.33517 21.77821,-8.7353 21.78121,-8.2197 21.77821,-10.01834 21.7812,-11.66286 21.77822,-15.0438 21.7812,-14.70895 21.77822,-16.1846"
       id="path258" />
    <path
       style="fill:#000000;fill-opacity:1;fill-rule:nonzero;stroke:#000000;stroke-width:0.539797;stroke-linecap:round;stroke-linejoin:round;stroke-miterlimit:10;stroke-opacity:1"
       d="m 152.62841,94.387868 c 0,1.97641 -2.99081,1.97641 -2.99081,0 0,-1.97641 2.99081,-1.97641 2.99081,0"
       id="path260" />
    <path
       style="fill:#000000;fill-opacity:1;fill-rule:nonzero;stroke:#000000;stroke-width:0.539797;stroke-linecap:round;stroke-linejoin:round;stroke-miterlimit:10;stroke-opacity:1"
       d="m 174.40962,180.61781 c 0,1.9764 -2.99081,1.9764 -2.99081,0 0,-1.97641 2.99081,-1.97641 2.99081,0"
       id="path262" />
    <path
       style="fill:#000000;fill-opacity:1;fill-rule:nonzero;stroke:#000000;stroke-width:0.539797;stroke-linecap:round;stroke-linejoin:round;stroke-miterlimit:10;stroke-opacity:1"
       d="m 196.18783,255.26193 c 0,1.97639 -2.99081,1.97639 -2.99081,0 0,-1.97641 2.99081,-1.97641 2.99081,0"
       id="path264" />
    <path
       style="fill:#000000;fill-opacity:1;fill-rule:nonzero;stroke:#000000;stroke-width:0.539797;stroke-linecap:round;stroke-linejoin:round;stroke-miterlimit:10;stroke-opacity:1"
       d="m 217.96904,316.04157 c 0,1.9764 -2.99081,1.9764 -2.99081,0 0,-1.9764 2.99081,-1.9764 2.99081,0"
       id="path266" />
    <path
       style="fill:#000000;fill-opacity:1;fill-rule:nonzero;stroke:#000000;stroke-width:0.539797;stroke-linecap:round;stroke-linejoin:round;stroke-miterlimit:10;stroke-opacity:1"
       d="m 239.74726,336.63529 c 0,1.97641 -2.99081,1.97641 -2.99081,0 0,-1.97936 2.99081,-1.97936 2.99081,0"
       id="path268" />
    <path
       style="fill:#000000;fill-opacity:1;fill-rule:nonzero;stroke:#000000;stroke-width:0.539797;stroke-linecap:round;stroke-linejoin:round;stroke-miterlimit:10;stroke-opacity:1"
       d="m 261.52846,341.36148 c 0,1.97641 -2.99081,1.97641 -2.99081,0 0,-1.9764 2.99081,-1.9764 2.99081,0"
       id="path270" />
    <path
       style="fill:#000000;fill-opacity:1;fill-rule:nonzero;stroke:#000000;stroke-width:0.539797;stroke-linecap:round;stroke-linejoin:round;stroke-miterlimit:10;stroke-opacity:1"
       d="m 283.30668,336.98494 c 0,1.97641 -2.99081,1.97641 -2.99081,0 0,-1.9764 2.99081,-1.9764 2.99081,0"
       id="path272" />
    <path
       style="fill:#000000;fill-opacity:1;fill-rule:nonzero;stroke:#000000;stroke-width:0.539797;stroke-linecap:round;stroke-linejoin:round;stroke-miterlimit:10;stroke-opacity:1"
       d="m 305.08788,337.18051 c 0,1.97641 -2.99081,1.97641 -2.99081,0 0,-1.97641 2.99081,-1.97641 2.99081,0"
       id="path274" />
    <path
       style="fill:#000000;fill-opacity:1;fill-rule:nonzero;stroke:#000000;stroke-width:0.539797;stroke-linecap:round;stroke-linejoin:round;stroke-miterlimit:10;stroke-opacity:1"
       d="m 326.86609,332.24691 c 0,1.97936 -2.9908,1.97936 -2.9908,0 0,-1.97641 2.9908,-1.97641 2.9908,0"
       id="path276" />
    <path
       style="fill:#000000;fill-opacity:1;fill-rule:nonzero;stroke:#000000;stroke-width:0.539797;stroke-linecap:round;stroke-linejoin:round;stroke-miterlimit:10;stroke-opacity:1"
       d="m 348.6473,329.83789 c 0,1.9764 -2.99081,1.9764 -2.99081,0 0,-1.97641 2.99081,-1.97641 2.99081,0"
       id="path278" />
    <path
       style="fill:#000000;fill-opacity:1;fill-rule:nonzero;stroke:#000000;stroke-width:0.539797;stroke-linecap:round;stroke-linejoin:round;stroke-miterlimit:10;stroke-opacity:1"
       d="m 370.42551,323.33975 c 0,1.97641 -2.9908,1.97641 -2.9908,0 0,-1.97937 2.9908,-1.97937 2.9908,0"
       id="path280" />
    <path
       style="fill:#000000;fill-opacity:1;fill-rule:nonzero;stroke:#000000;stroke-width:0.539797;stroke-linecap:round;stroke-linejoin:round;stroke-miterlimit:10;stroke-opacity:1"
       d="m 392.20672,318.7795 c 0,1.97937 -2.99081,1.97937 -2.99081,0 0,-1.97641 2.99081,-1.97641 2.99081,0"
       id="path282" />
    <path
       style="fill:#000000;fill-opacity:1;fill-rule:nonzero;stroke:#000000;stroke-width:0.539797;stroke-linecap:round;stroke-linejoin:round;stroke-miterlimit:10;stroke-opacity:1"
       d="m 413.98493,312.44433 c 0,1.97641 -2.9908,1.97641 -2.9908,0 0,-1.97937 2.9908,-1.97937 2.9908,0"
       id="path284" />
    <path
       style="fill:#000000;fill-opacity:1;fill-rule:nonzero;stroke:#000000;stroke-width:0.539797;stroke-linecap:round;stroke-linejoin:round;stroke-miterlimit:10;stroke-opacity:1"
       d="m 435.76614,303.70903 c 0,1.97641 -2.99081,1.97641 -2.99081,0 0,-1.9764 2.99081,-1.9764 2.99081,0"
       id="path286" />
    <path
       style="fill:#000000;fill-opacity:1;fill-rule:nonzero;stroke:#000000;stroke-width:0.539797;stroke-linecap:round;stroke-linejoin:round;stroke-miterlimit:10;stroke-opacity:1"
       d="m 457.54435,295.48933 c 0,1.9764 -2.99081,1.9764 -2.99081,0 0,-1.97937 2.99081,-1.97937 2.99081,0"
       id="path288" />
    <path
       style="fill:#000000;fill-opacity:1;fill-rule:nonzero;stroke:#000000;stroke-width:0.539797;stroke-linecap:round;stroke-linejoin:round;stroke-miterlimit:10;stroke-opacity:1"
       d="m 479.32556,285.47099 c 0,1.97641 -2.99081,1.97641 -2.99081,0 0,-1.9764 2.99081,-1.9764 2.99081,0"
       id="path290" />
    <path
       style="fill:#000000;fill-opacity:1;fill-rule:nonzero;stroke:#000000;stroke-width:0.539797;stroke-linecap:round;stroke-linejoin:round;stroke-miterlimit:10;stroke-opacity:1"
       d="m 501.10378,273.80813 c 0,1.9764 -2.99081,1.9764 -2.99081,0 0,-1.9764 2.99081,-1.9764 2.99081,0"
       id="path292" />
    <path
       style="fill:#000000;fill-opacity:1;fill-rule:nonzero;stroke:#000000;stroke-width:0.539797;stroke-linecap:round;stroke-linejoin:round;stroke-miterlimit:10;stroke-opacity:1"
       d="m 522.88498,258.76433 c 0,1.97641 -2.9908,1.97641 -2.9908,0 0,-1.9764 2.9908,-1.9764 2.9908,0"
       id="path294" />
    <path
       style="fill:#000000;fill-opacity:1;fill-rule:nonzero;stroke:#000000;stroke-width:0.539797;stroke-linecap:round;stroke-linejoin:round;stroke-miterlimit:10;stroke-opacity:1"
       d="m 544.6632,244.05538 c 0,1.97936 -2.99081,1.97936 -2.99081,0 0,-1.97641 2.99081,-1.97641 2.99081,0"
       id="path296" />
    <path
       style="fill:#000000;fill-opacity:1;fill-rule:nonzero;stroke:#000000;stroke-width:0.539797;stroke-linecap:round;stroke-linejoin:round;stroke-miterlimit:10;stroke-opacity:1"
       d="m 566.4444,227.87078 c 0,1.97937 -2.99081,1.97937 -2.99081,0 0,-1.9764 2.99081,-1.9764 2.99081,0"
       id="path298" />
    <g
       clip-path="url(#clip16-5)"
       clip-rule="nonzero"
       id="g302"
       transform="matrix(0.76488179,0,0,0.75856033,93.421777,64.149168)">
      <path
         style="fill:none;stroke:#333333;stroke-width:1.06698;stroke-linecap:round;stroke-linejoin:round;stroke-miterlimit:10;stroke-opacity:1"
         d="M 48.402344,381.72266 H 643.52344 V 23.582031 H 48.402344 Z m 0,0"
         id="path300" />
    </g>
    <path
       style="fill:none;stroke:#333333;stroke-width:0.812734;stroke-linecap:butt;stroke-linejoin:round;stroke-miterlimit:10;stroke-opacity:1"
       d="m 128.34641,327.40812 h 2.09744"
       id="path340" />
    <path
       style="fill:none;stroke:#333333;stroke-width:0.812734;stroke-linecap:butt;stroke-linejoin:round;stroke-miterlimit:10;stroke-opacity:1"
       d="m 128.34641,237.86245 h 2.09744"
       id="path342" />
    <path
       style="fill:none;stroke:#333333;stroke-width:0.812734;stroke-linecap:butt;stroke-linejoin:round;stroke-miterlimit:10;stroke-opacity:1"
       d="m 128.34641,148.31677 h 2.09744"
       id="path344" />
    <path
       style="fill:none;stroke:#333333;stroke-width:0.812734;stroke-linecap:butt;stroke-linejoin:round;stroke-miterlimit:10;stroke-opacity:1"
       d="m 238.25334,355.78894 v -2.08011"
       id="path346" />
    <path
       style="fill:none;stroke:#333333;stroke-width:0.812734;stroke-linecap:butt;stroke-linejoin:round;stroke-miterlimit:10;stroke-opacity:1"
       d="m 347.1504,355.78894 v -2.08011"
       id="path348" />
    <path
       style="fill:none;stroke:#333333;stroke-width:0.812734;stroke-linecap:butt;stroke-linejoin:round;stroke-miterlimit:10;stroke-opacity:1"
       d="m 456.05045,355.78894 v -2.08011"
       id="path350" />
    <path
       style="fill:none;stroke:#333333;stroke-width:0.812734;stroke-linecap:butt;stroke-linejoin:round;stroke-miterlimit:10;stroke-opacity:1"
       d="m 564.9475,355.78894 v -2.08011"
       id="path352" />
    <text
       xml:space="preserve"
       style="font-size:20px;font-family:'Times New Roman';-inkscape-font-specification:'Times New Roman, ';fill:#000000;stroke-width:0.75"
       x="226.39418"
       y="66.212502"
       id="text2129"><tspan
         sodipodi:role="line"
         id="tspan2127"
         x="226.39418"
         y="66.212502"
         style="stroke-width:0.75">ICL curve on different initial clusters</tspan></text>
    <text
       xml:space="preserve"
       style="font-size:14px;font-family:'Times New Roman';-inkscape-font-specification:'Times New Roman, ';fill:#000000;stroke-width:0.75"
       x="-326.45166"
       y="78.039513"
       id="text2133"
       transform="rotate(-89.930042)"><tspan
         sodipodi:role="line"
         id="tspan2131"
         x="-326.45166"
         y="78.039513"
         style="font-size:14px;stroke-width:0.75">Integrated Classification Likelihood</tspan></text>
    <text
       xml:space="preserve"
       style="font-size:12px;font-family:'Times New Roman';-inkscape-font-specification:'Times New Roman, ';fill:#000000;stroke-width:0.75"
       x="96.246941"
       y="152.45499"
       id="text2137"><tspan
         sodipodi:role="line"
         id="tspan2135"
         style="font-size:12px;stroke-width:0.75"
         x="96.246941"
         y="152.45499">27000</tspan></text>
    <text
       xml:space="preserve"
       style="font-size:12px;font-family:'Times New Roman';-inkscape-font-specification:'Times New Roman, ';fill:#000000;stroke-width:0.75"
       x="95.291832"
       y="241.52936"
       id="text2137-7"><tspan
         sodipodi:role="line"
         style="font-size:12px;stroke-width:0.75"
         x="95.291832"
         y="241.52936"
         id="tspan2213">26000</tspan></text>
    <text
       xml:space="preserve"
       style="font-size:12px;font-family:'Times New Roman';-inkscape-font-specification:'Times New Roman, ';fill:#000000;stroke-width:0.75"
       x="96.64579"
       y="331.09174"
       id="text2137-7-5"><tspan
         sodipodi:role="line"
         style="font-size:12px;stroke-width:0.75"
         x="96.64579"
         y="331.09174"
         id="tspan2213-5">25000</tspan></text>
    <text
       xml:space="preserve"
       style="font-size:12px;font-family:'Times New Roman';-inkscape-font-specification:'Times New Roman, ';fill:#000000;stroke-width:0.75"
       x="235.06384"
       y="367.59003"
       id="text2137-7-5-6"><tspan
         sodipodi:role="line"
         style="font-size:12px;stroke-width:0.75"
         x="235.06384"
         y="367.59003"
         id="tspan2213-5-2">5</tspan></text>
    <text
       xml:space="preserve"
       style="font-size:12px;font-family:'Times New Roman';-inkscape-font-specification:'Times New Roman, ';fill:#000000;stroke-width:0.75"
       x="340.74332"
       y="366.81934"
       id="text2137-7-5-6-1"><tspan
         sodipodi:role="line"
         style="font-size:12px;stroke-width:0.75"
         x="340.74332"
         y="366.81934"
         id="tspan2213-5-2-8">10</tspan></text>
    <text
       xml:space="preserve"
       style="font-size:12px;font-family:'Times New Roman';-inkscape-font-specification:'Times New Roman, ';fill:#000000;stroke-width:0.75"
       x="451.06384"
       y="366.36026"
       id="text2327"><tspan
         sodipodi:role="line"
         id="tspan2325"
         style="stroke-width:0.75"
         x="451.06384"
         y="366.36026">15</tspan></text>
    <text
       xml:space="preserve"
       style="font-size:12px;font-family:'Times New Roman';-inkscape-font-specification:'Times New Roman, ';fill:#000000;stroke-width:0.75"
       x="559.1814"
       y="366.36023"
       id="text2331"><tspan
         sodipodi:role="line"
         id="tspan2329"
         style="stroke-width:0.75"
         x="559.1814"
         y="366.36023">20</tspan></text>
    <text
       xml:space="preserve"
       style="font-size:14px;font-family:'Times New Roman';-inkscape-font-specification:'Times New Roman, ';fill:#000000;stroke-width:0.75"
       x="342.25763"
       y="389.77423"
       id="text2345"><tspan
         sodipodi:role="line"
         id="tspan2343"
         style="font-size:14px;stroke-width:0.75"
         x="342.25763"
         y="389.77423">Initial Clusters</tspan></text>
  </g>
</svg>
