<?xml version="1.0" encoding="UTF-8" standalone="no"?>
<svg
   width="338.25739pt"
   height="281.14468pt"
   viewBox="0 0 338.25739 281.14468"
   version="1.1"
   id="svg12648"
   sodipodi:docname="0.315.svg"
   xml:space="preserve"
   inkscape:export-filename="0.325.svg"
   inkscape:export-xdpi="96"
   inkscape:export-ydpi="96"
   xmlns:inkscape="http://www.inkscape.org/namespaces/inkscape"
   xmlns:sodipodi="http://sodipodi.sourceforge.net/DTD/sodipodi-0.dtd"
   xmlns="http://www.w3.org/2000/svg"
   xmlns:svg="http://www.w3.org/2000/svg"><sodipodi:namedview
     id="namedview12650"
     pagecolor="#ffffff"
     bordercolor="#000000"
     borderopacity="0.25"
     inkscape:showpageshadow="2"
     inkscape:pageopacity="0.0"
     inkscape:pagecheckerboard="0"
     inkscape:deskcolor="#d1d1d1"
     inkscape:document-units="pt"
     showgrid="false" /><defs
     id="defs6881"><clipPath
       id="clip0-4"><rect
         x="5899"
         y="1456"
         width="1098"
         height="1590"
         id="rect42576" /></clipPath><clipPath
       id="clip1-3"><rect
         x="6182"
         y="1208"
         width="806"
         height="1233"
         id="rect42579" /></clipPath><clipPath
       id="clip2-7"><rect
         x="6182"
         y="1417"
         width="806"
         height="1233"
         id="rect42582" /></clipPath><clipPath
       id="clip3-5"><rect
         x="6182"
         y="1626"
         width="806"
         height="1233"
         id="rect42585" /></clipPath><clipPath
       id="clip4-48"><rect
         x="6182"
         y="1835"
         width="806"
         height="1233"
         id="rect42588" /></clipPath><clipPath
       id="clip5-1"><rect
         x="6182"
         y="2044"
         width="806"
         height="1233"
         id="rect42591" /></clipPath><clipPath
       id="clip6-1"><rect
         x="6182"
         y="2253"
         width="806"
         height="1233"
         id="rect42594" /></clipPath></defs><g
     id="surface25456"
     inkscape:groupmode="layer"
     transform="translate(-887.69255,-57.850502)"><text
       xml:space="preserve"
       style="font-size:20px;fill:#000000;stroke-width:0.75"
       x="888.11786"
       y="71.737221"
       id="text12864-7"><tspan
         sodipodi:role="line"
         id="tspan12862-5"
         style="font-style:normal;font-variant:normal;font-weight:normal;font-stretch:normal;font-size:20px;font-family:'Times New Roman';-inkscape-font-specification:'Times New Roman, ';stroke-width:0.75"
         x="888.11786"
         y="71.737221">Threshold Subgraph from GNN Explainer</tspan></text><path
       style="fill:none;stroke:#a8a8a8;stroke-width:0.75;stroke-linecap:round;stroke-linejoin:round;stroke-miterlimit:10;stroke-opacity:1"
       d="m 957.37286,309.07463 1.09375,-6.80468"
       id="path76369" /><path
       style="fill:none;stroke:#a8a8a8;stroke-width:0.75;stroke-linecap:round;stroke-linejoin:round;stroke-miterlimit:10;stroke-opacity:1"
       d="m 938.86114,238.62932 -17.34765,-3.89844"
       id="path76371" /><path
       style="fill:none;stroke:#a8a8a8;stroke-width:0.75;stroke-linecap:round;stroke-linejoin:round;stroke-miterlimit:10;stroke-opacity:1"
       d="m 1015.6619,125.59026 -5.0899,-10.74219"
       id="path76373" /><path
       style="fill:none;stroke:#a8a8a8;stroke-width:0.75;stroke-linecap:round;stroke-linejoin:round;stroke-miterlimit:10;stroke-opacity:1"
       d="m 1025.197,145.10588 3.4649,6.88672"
       id="path76375" /><path
       style="fill:none;stroke:#a8a8a8;stroke-width:0.75;stroke-linecap:round;stroke-linejoin:round;stroke-miterlimit:10;stroke-opacity:1"
       d="m 1018.4002,198.96917 9.8203,-18.10157"
       id="path76377" /><path
       style="fill:none;stroke:#a8a8a8;stroke-width:0.75;stroke-linecap:round;stroke-linejoin:round;stroke-miterlimit:10;stroke-opacity:1"
       d="m 1098.7322,129.47307 -14.6836,9.42188"
       id="path76379" /><path
       style="fill:none;stroke:#a8a8a8;stroke-width:0.75;stroke-linecap:round;stroke-linejoin:round;stroke-miterlimit:10;stroke-opacity:1"
       d="m 1050.2049,158.59026 15.2265,-8.52344"
       id="path76381" /><path
       style="fill:none;stroke:#a8a8a8;stroke-width:0.75;stroke-linecap:round;stroke-linejoin:round;stroke-miterlimit:10;stroke-opacity:1"
       d="m 1116.8689,117.51995 12.0703,-8.16797"
       id="path76383" /><path
       style="fill:none;stroke:#a8a8a8;stroke-width:0.75;stroke-linecap:round;stroke-linejoin:round;stroke-miterlimit:10;stroke-opacity:1"
       d="m 1045.2674,296.12542 -12.8868,-10.83985"
       id="path76385" /><path
       style="fill:none;stroke:#a8a8a8;stroke-width:0.75;stroke-linecap:round;stroke-linejoin:round;stroke-miterlimit:10;stroke-opacity:1"
       d="m 946.26349,293.03557 -10.81641,5.01172"
       id="path76387" /><path
       style="fill:none;stroke:#a8a8a8;stroke-width:0.75;stroke-linecap:round;stroke-linejoin:round;stroke-miterlimit:10;stroke-opacity:1"
       d="m 971.39239,273.60198 4.16407,-5.06641"
       id="path76389" /><path
       style="fill:none;stroke:#a8a8a8;stroke-width:0.75;stroke-linecap:round;stroke-linejoin:round;stroke-miterlimit:10;stroke-opacity:1"
       d="m 959.94708,243.83635 8.42969,2.26953"
       id="path76391" /><path
       style="fill:none;stroke:#a8a8a8;stroke-width:0.75;stroke-linecap:round;stroke-linejoin:round;stroke-miterlimit:10;stroke-opacity:1"
       d="m 1007.9744,218.02385 -8.12505,14.71875"
       id="path76393" /><path
       style="fill:none;stroke:#a8a8a8;stroke-width:0.75;stroke-linecap:round;stroke-linejoin:round;stroke-miterlimit:10;stroke-opacity:1"
       d="m 1015.4431,271.69963 -8.832,-6.75"
       id="path76395" /><path
       style="fill:none;stroke:#a8a8a8;stroke-width:0.75;stroke-linecap:round;stroke-linejoin:round;stroke-miterlimit:10;stroke-opacity:1"
       d="m 1061.6345,310.39885 10.4922,9.49219"
       id="path76397" /><path
       style="fill:#e69e00;fill-opacity:1;fill-rule:nonzero;stroke:#000000;stroke-width:0.75;stroke-linecap:round;stroke-linejoin:round;stroke-miterlimit:10;stroke-opacity:1"
       d="m 1031.1736,135.40276 c 0,6 -4.8633,10.86328 -10.8594,10.86328 -6,0 -10.8632,-4.86328 -10.8632,-10.86328 0,-5.99609 4.8632,-10.85937 10.8632,-10.85937 5.9961,0 10.8594,4.86328 10.8594,10.85937"
       id="path76399" /><path
       style="fill:#d45c00;fill-opacity:1;fill-rule:nonzero;stroke:#000000;stroke-width:0.75;stroke-linecap:round;stroke-linejoin:round;stroke-miterlimit:10;stroke-opacity:1"
       d="m 961.94708,314.43792 c 0,3 -2.43359,5.42968 -5.43359,5.42968 -2.9961,0 -5.42969,-2.42968 -5.42969,-5.42968 0,-3 2.43359,-5.42969 5.42969,-5.42969 3,0 5.43359,2.42969 5.43359,5.42969"
       id="path76401" /><path
       style="fill:#e69e00;fill-opacity:1;fill-rule:nonzero;stroke:#000000;stroke-width:0.75;stroke-linecap:round;stroke-linejoin:round;stroke-miterlimit:10;stroke-opacity:1"
       d="m 1118.7361,123.60589 c 0,5.99609 -4.8633,10.85937 -10.8633,10.85937 -5.9961,0 -10.8593,-4.86328 -10.8593,-10.85937 0,-6 4.8632,-10.86329 10.8593,-10.86329 6,0 10.8633,4.86329 10.8633,10.86329"
       id="path76403" /><path
       style="fill:#e69e00;fill-opacity:1;fill-rule:nonzero;stroke:#000000;stroke-width:0.75;stroke-linecap:round;stroke-linejoin:round;stroke-miterlimit:10;stroke-opacity:1"
       d="m 977.33381,286.18401 c 0,8.99609 -7.29298,16.29297 -16.28907,16.29297 -9,0 -16.29297,-7.29688 -16.29297,-16.29297 0,-8.99609 7.29297,-16.29297 16.29297,-16.29297 8.99609,0 16.28907,7.29688 16.28907,16.29297"
       id="path76405" /><path
       style="fill:#009c73;fill-opacity:1;fill-rule:nonzero;stroke:#000000;stroke-width:0.75;stroke-linecap:round;stroke-linejoin:round;stroke-miterlimit:10;stroke-opacity:1"
       d="m 960.32208,241.00823 c 0,6 -4.86328,10.86328 -10.86328,10.86328 -5.99609,0 -10.85938,-4.86328 -10.85938,-10.86328 0,-5.9961 4.86329,-10.85938 10.85938,-10.85938 6,0 10.86328,4.86328 10.86328,10.85938"
       id="path76407" /><path
       style="fill:#e69e00;fill-opacity:1;fill-rule:nonzero;stroke:#000000;stroke-width:0.75;stroke-linecap:round;stroke-linejoin:round;stroke-miterlimit:10;stroke-opacity:1"
       d="m 921.6463,233.53948 c 0,2.99609 -2.42969,5.42969 -5.42969,5.42969 -3,0 -5.42969,-2.4336 -5.42969,-5.42969 0,-3 2.42969,-5.4336 5.42969,-5.4336 3,0 5.42969,2.4336 5.42969,5.4336"
       id="path76409" /><path
       style="fill:#e69e00;fill-opacity:1;fill-rule:nonzero;stroke:#000000;stroke-width:0.75;stroke-linecap:round;stroke-linejoin:round;stroke-miterlimit:10;stroke-opacity:1"
       d="m 1064.4392,303.1176 c 0,5.9961 -4.8632,10.85938 -10.8632,10.85938 -5.9961,0 -10.8594,-4.86328 -10.8594,-10.85938 0,-6 4.8633,-10.86328 10.8594,-10.86328 6,0 10.8632,4.86328 10.8632,10.86328"
       id="path76411" /><path
       style="fill:#e69e00;fill-opacity:1;fill-rule:nonzero;stroke:#000000;stroke-width:0.75;stroke-linecap:round;stroke-linejoin:round;stroke-miterlimit:10;stroke-opacity:1"
       d="m 1024.0838,208.51604 c 0,5.99609 -4.8633,10.85938 -10.8594,10.85938 -6,0 -10.8633,-4.86329 -10.8633,-10.85938 0,-6 4.8633,-10.86328 10.8633,-10.86328 5.9961,0 10.8594,4.86328 10.8594,10.86328"
       id="path76413" /><path
       style="fill:#f0e33f;fill-opacity:1;fill-rule:nonzero;stroke:#000000;stroke-width:0.75;stroke-linecap:round;stroke-linejoin:round;stroke-miterlimit:10;stroke-opacity:1"
       d="m 1013.6736,109.94182 c 0,3 -2.4297,5.42969 -5.4297,5.42969 -3,0 -5.4297,-2.42969 -5.4297,-5.42969 0,-3 2.4297,-5.42969 5.4297,-5.42969 3,0 5.4297,2.42969 5.4297,5.42969"
       id="path76415" /><path
       style="fill:#f0e33f;fill-opacity:1;fill-rule:nonzero;stroke:#000000;stroke-width:0.75;stroke-linecap:round;stroke-linejoin:round;stroke-miterlimit:10;stroke-opacity:1"
       d="m 1052.2791,166.54729 c 0,8.99609 -7.293,16.28906 -16.293,16.28906 -8.9961,0 -16.2891,-7.29297 -16.2891,-16.28906 0,-9 7.293,-16.29297 16.2891,-16.29297 9,0 16.293,7.29297 16.293,16.29297"
       id="path76417" /><path
       style="fill:#e69e00;fill-opacity:1;fill-rule:nonzero;stroke:#000000;stroke-width:0.75;stroke-linecap:round;stroke-linejoin:round;stroke-miterlimit:10;stroke-opacity:1"
       d="m 1085.7674,144.76213 c 0,6 -4.8594,10.86329 -10.8594,10.86329 -6,0 -10.8594,-4.86329 -10.8594,-10.86329 0,-5.99609 4.8594,-10.85937 10.8594,-10.85937 6,0 10.8594,4.86328 10.8594,10.85937"
       id="path76419" /><path
       style="fill:#54b3e8;fill-opacity:1;fill-rule:nonzero;stroke:#000000;stroke-width:0.75;stroke-linecap:round;stroke-linejoin:round;stroke-miterlimit:10;stroke-opacity:1"
       d="m 1138.8689,106.30901 c 0,3 -2.4297,5.43359 -5.4297,5.43359 -3,0 -5.4297,-2.43359 -5.4297,-5.43359 0,-2.99609 2.4297,-5.42969 5.4297,-5.42969 3,0 5.4297,2.4336 5.4297,5.42969"
       id="path76421" /><path
       style="fill:#0070b0;fill-opacity:1;fill-rule:nonzero;stroke:#000000;stroke-width:0.75;stroke-linecap:round;stroke-linejoin:round;stroke-miterlimit:10;stroke-opacity:1"
       d="m 1034.9314,278.29729 c 0,5.99609 -4.8633,10.85938 -10.8594,10.85938 -6,0 -10.8632,-4.86329 -10.8632,-10.85938 0,-6 4.8632,-10.86328 10.8632,-10.86328 5.9961,0 10.8594,4.86328 10.8594,10.86328"
       id="path76423" /><path
       style="fill:#009c73;fill-opacity:1;fill-rule:nonzero;stroke:#000000;stroke-width:0.75;stroke-linecap:round;stroke-linejoin:round;stroke-miterlimit:10;stroke-opacity:1"
       d="m 935.95099,300.32854 c 0,3 -2.42969,5.42969 -5.42969,5.42969 -3,0 -5.42969,-2.42969 -5.42969,-5.42969 0,-3 2.42969,-5.42969 5.42969,-5.42969 3,0 5.42969,2.42969 5.42969,5.42969"
       id="path76425" /><path
       style="fill:#0070b0;fill-opacity:1;fill-rule:nonzero;stroke:#000000;stroke-width:0.75;stroke-linecap:round;stroke-linejoin:round;stroke-miterlimit:10;stroke-opacity:1"
       d="m 1011.072,251.75823 c 0,11.99609 -9.7226,21.72265 -21.72261,21.72265 -11.99608,0 -21.71872,-9.72656 -21.71872,-21.72265 0,-11.9961 9.72264,-21.72266 21.71872,-21.72266 12.00001,0 21.72261,9.72656 21.72261,21.72266"
       id="path76427" /><path
       style="fill:#e69e00;fill-opacity:1;fill-rule:nonzero;stroke:#000000;stroke-width:0.75;stroke-linecap:round;stroke-linejoin:round;stroke-miterlimit:10;stroke-opacity:1"
       d="m 1081.5877,323.53167 c 0,3 -2.4336,5.42968 -5.4297,5.42968 -3,0 -5.4336,-2.42968 -5.4336,-5.42968 0,-3 2.4336,-5.42969 5.4336,-5.42969 2.9961,0 5.4297,2.42969 5.4297,5.42969"
       id="path76429" /></g><g
     style="overflow:hidden"
     id="g42710"
     transform="matrix(0.05768476,0,0,0.0568319,273.69805,49.753528)"><g
       clip-path="url(#clip0-4)"
       transform="translate(-5899,-1456)"
       id="g42659"><path
         d="M 6182.87,1713.34 V 2976.51"
         stroke="#ffffff"
         stroke-width="4.58333"
         stroke-linejoin="round"
         stroke-miterlimit="10"
         fill="none"
         fill-rule="evenodd"
         id="path42599" /><path
         d="M 5899.33,1720.22 H 6989.49"
         stroke="#ffffff"
         stroke-width="13.75"
         stroke-linejoin="round"
         stroke-miterlimit="10"
         fill="none"
         fill-rule="evenodd"
         id="path42601" /><path
         d="M 5899.33,1929.22 H 6989.49"
         stroke="#ffffff"
         stroke-width="4.58333"
         stroke-linejoin="round"
         stroke-miterlimit="10"
         fill="none"
         fill-rule="evenodd"
         id="path42603" /><path
         d="M 5899.33,2138.22 H 6989.49"
         stroke="#ffffff"
         stroke-width="4.58333"
         stroke-linejoin="round"
         stroke-miterlimit="10"
         fill="none"
         fill-rule="evenodd"
         id="path42605" /><path
         d="M 5899.33,2347.22 H 6989.49"
         stroke="#ffffff"
         stroke-width="4.58333"
         stroke-linejoin="round"
         stroke-miterlimit="10"
         fill="none"
         fill-rule="evenodd"
         id="path42607" /><path
         d="M 5899.33,2556.22 H 6989.49"
         stroke="#ffffff"
         stroke-width="4.58333"
         stroke-linejoin="round"
         stroke-miterlimit="10"
         fill="none"
         fill-rule="evenodd"
         id="path42609" /><path
         d="M 5899.33,2765.22 H 6989.49"
         stroke="#ffffff"
         stroke-width="4.58333"
         stroke-linejoin="round"
         stroke-miterlimit="10"
         fill="none"
         fill-rule="evenodd"
         id="path42611" /><path
         d="M 5901.62,1486.92 V 2976.51"
         stroke="#000000"
         stroke-width="4.58333"
         stroke-linejoin="round"
         stroke-miterlimit="10"
         fill="none"
         fill-rule="evenodd"
         id="path42613" /><path
         d="M 6987.2,1486.92 V 2976.51"
         stroke="#000000"
         stroke-width="4.58333"
         stroke-linejoin="round"
         stroke-miterlimit="10"
         fill="none"
         fill-rule="evenodd"
         id="path42615" /><path
         d="M 5899.33,1489.22 H 6989.49"
         stroke="#000000"
         stroke-width="4.58333"
         stroke-linejoin="round"
         stroke-miterlimit="10"
         fill="none"
         fill-rule="evenodd"
         id="path42617" /><path
         d="M 5899.33,2974.22 H 6989.49"
         stroke="#000000"
         stroke-width="4.58333"
         stroke-linejoin="round"
         stroke-miterlimit="10"
         fill="none"
         fill-rule="evenodd"
         id="path42619" /><text
         font-family="'Times New Roman', 'Times New Roman_MSFontService', sans-serif"
         font-weight="700"
         font-size="165px"
         transform="translate(6183.16,1665)"
         id="text42621">Cluster</text><g
         clip-path="url(#clip1-3)"
         id="g42625"><text
           font-family="'Times New Roman', 'Times New Roman_MSFontService', sans-serif"
           font-weight="400"
           font-size="147px"
           transform="translate(6215.87,1879)"
           id="text42623">Cluster 1</text></g><g
         clip-path="url(#clip2-7)"
         id="g42629"><text
           font-family="'Times New Roman', 'Times New Roman_MSFontService', sans-serif"
           font-weight="400"
           font-size="147px"
           transform="translate(6215.87,2088)"
           id="text42627">Cluster 2</text></g><g
         clip-path="url(#clip3-5)"
         id="g42633"><text
           font-family="'Times New Roman', 'Times New Roman_MSFontService', sans-serif"
           font-weight="400"
           font-size="147px"
           transform="translate(6215.87,2297)"
           id="text42631">Cluster 3</text></g><g
         clip-path="url(#clip4-48)"
         id="g42637"><text
           font-family="'Times New Roman', 'Times New Roman_MSFontService', sans-serif"
           font-weight="400"
           font-size="147px"
           transform="translate(6215.87,2506)"
           id="text42635">Cluster 4</text></g><g
         clip-path="url(#clip5-1)"
         id="g42641"><text
           font-family="'Times New Roman', 'Times New Roman_MSFontService', sans-serif"
           font-weight="400"
           font-size="147px"
           transform="translate(6215.87,2715)"
           id="text42639">Cluster 5</text></g><g
         clip-path="url(#clip6-1)"
         id="g42645"><text
           font-family="'Times New Roman', 'Times New Roman_MSFontService', sans-serif"
           font-weight="400"
           font-size="147px"
           transform="translate(6215.87,2924)"
           id="text42643">Cluster 6</text></g><path
         d="m 5958,1816 c 0,-49.15 41.19,-89 92,-89 50.81,0 92,39.85 92,89 0,49.15 -41.19,89 -92,89 -50.81,0 -92,-39.85 -92,-89 z"
         fill="#e69f00"
         fill-rule="evenodd"
         id="path42647" /><path
         d="m 5958,2023.5 c 0,-48.88 41.19,-88.5 92,-88.5 50.81,0 92,39.62 92,88.5 0,48.88 -41.19,88.5 -92,88.5 -50.81,0 -92,-39.62 -92,-88.5 z"
         fill="#56b4e9"
         fill-rule="evenodd"
         id="path42649" /><path
         d="m 5958,2231.5 c 0,-48.88 41.19,-88.5 92,-88.5 50.81,0 92,39.62 92,88.5 0,48.88 -41.19,88.5 -92,88.5 -50.81,0 -92,-39.62 -92,-88.5 z"
         fill="#009e73"
         fill-rule="evenodd"
         id="path42651" /><path
         d="m 5958,2439.5 c 0,-48.88 41.19,-88.5 92,-88.5 50.81,0 92,39.62 92,88.5 0,48.88 -41.19,88.5 -92,88.5 -50.81,0 -92,-39.62 -92,-88.5 z"
         fill="#e1d647"
         fill-rule="evenodd"
         id="path42653" /><path
         d="m 5958,2645.5 c 0,-48.88 41.19,-88.5 92,-88.5 50.81,0 92,39.62 92,88.5 0,48.88 -41.19,88.5 -92,88.5 -50.81,0 -92,-39.62 -92,-88.5 z"
         fill="#0072b2"
         fill-rule="evenodd"
         id="path42655" /><path
         d="m 5958,2849.5 c 0,-48.88 41.19,-88.5 92,-88.5 50.81,0 92,39.62 92,88.5 0,48.88 -41.19,88.5 -92,88.5 -50.81,0 -92,-39.62 -92,-88.5 z"
         fill="#d55e00"
         fill-rule="evenodd"
         id="path42657" /></g></g></svg>
