<?xml version="1.0" encoding="utf-8" standalone="no"?>
<!DOCTYPE svg PUBLIC "-//W3C//DTD SVG 1.1//EN"
        "http://www.w3.org/Graphics/SVG/1.1/DTD/svg11.dtd">
<svg xmlns:xlink="http://www.w3.org/1999/xlink" width="460.8pt" height="345.6pt" viewBox="0 0 460.8 345.6"
     xmlns="http://www.w3.org/2000/svg" version="1.1">
 <metadata>
  <rdf:RDF xmlns:dc="http://purl.org/dc/elements/1.1/" xmlns:cc="http://creativecommons.org/ns#"
           xmlns:rdf="http://www.w3.org/1999/02/22-rdf-syntax-ns#">
   <cc:Work>
    <dc:type rdf:resource="http://purl.org/dc/dcmitype/StillImage"/>
    <dc:date>2022-04-07T19:13:46.058519</dc:date>
    <dc:format>image/svg+xml</dc:format>
    <dc:creator>
     <cc:Agent>
      <dc:title>Matplotlib v3.5.1, https://matplotlib.org/</dc:title>
     </cc:Agent>
    </dc:creator>
   </cc:Work>
  </rdf:RDF>
 </metadata>
 <defs>
  <style type="text/css">*{stroke-linejoin: round; stroke-linecap: butt}</style>
 </defs>
 <g id="figure_1">
  <g id="patch_1">
   <path d="M 0 345.6 
L 460.8 345.6 
L 460.8 0 
L 0 0 
z
" style="fill: #ffffff"/>
  </g>
  <g id="axes_1">
   <g id="patch_2">
    <path d="M 39.94 320.72 
L 340.51 320.72 
L 340.51 26.88 
L 39.94 26.88 
z
" style="fill: #ffffff"/>
   </g>
   <g id="matplotlib.axis_1">
    <g id="text_1">
     <!-- Iterations -->
     <g transform="translate(166.411719 332.318437)scale(0.1 -0.1)">
      <defs>
       <path id="DejaVuSans-49" d="M 628 4666 
L 1259 4666 
L 1259 0 
L 628 0 
L 628 4666 
z
" transform="scale(0.015625)"/>
       <path id="DejaVuSans-74" d="M 1172 4494 
L 1172 3500 
L 2356 3500 
L 2356 3053 
L 1172 3053 
L 1172 1153 
Q 1172 725 1289 603 
Q 1406 481 1766 481 
L 2356 481 
L 2356 0 
L 1766 0 
Q 1100 0 847 248 
Q 594 497 594 1153 
L 594 3053 
L 172 3053 
L 172 3500 
L 594 3500 
L 594 4494 
L 1172 4494 
z
" transform="scale(0.015625)"/>
       <path id="DejaVuSans-65" d="M 3597 1894 
L 3597 1613 
L 953 1613 
Q 991 1019 1311 708 
Q 1631 397 2203 397 
Q 2534 397 2845 478 
Q 3156 559 3463 722 
L 3463 178 
Q 3153 47 2828 -22 
Q 2503 -91 2169 -91 
Q 1331 -91 842 396 
Q 353 884 353 1716 
Q 353 2575 817 3079 
Q 1281 3584 2069 3584 
Q 2775 3584 3186 3129 
Q 3597 2675 3597 1894 
z
M 3022 2063 
Q 3016 2534 2758 2815 
Q 2500 3097 2075 3097 
Q 1594 3097 1305 2825 
Q 1016 2553 972 2059 
L 3022 2063 
z
" transform="scale(0.015625)"/>
       <path id="DejaVuSans-72" d="M 2631 2963 
Q 2534 3019 2420 3045 
Q 2306 3072 2169 3072 
Q 1681 3072 1420 2755 
Q 1159 2438 1159 1844 
L 1159 0 
L 581 0 
L 581 3500 
L 1159 3500 
L 1159 2956 
Q 1341 3275 1631 3429 
Q 1922 3584 2338 3584 
Q 2397 3584 2469 3576 
Q 2541 3569 2628 3553 
L 2631 2963 
z
" transform="scale(0.015625)"/>
       <path id="DejaVuSans-61" d="M 2194 1759 
Q 1497 1759 1228 1600 
Q 959 1441 959 1056 
Q 959 750 1161 570 
Q 1363 391 1709 391 
Q 2188 391 2477 730 
Q 2766 1069 2766 1631 
L 2766 1759 
L 2194 1759 
z
M 3341 1997 
L 3341 0 
L 2766 0 
L 2766 531 
Q 2569 213 2275 61 
Q 1981 -91 1556 -91 
Q 1019 -91 701 211 
Q 384 513 384 1019 
Q 384 1609 779 1909 
Q 1175 2209 1959 2209 
L 2766 2209 
L 2766 2266 
Q 2766 2663 2505 2880 
Q 2244 3097 1772 3097 
Q 1472 3097 1187 3025 
Q 903 2953 641 2809 
L 641 3341 
Q 956 3463 1253 3523 
Q 1550 3584 1831 3584 
Q 2591 3584 2966 3190 
Q 3341 2797 3341 1997 
z
" transform="scale(0.015625)"/>
       <path id="DejaVuSans-69" d="M 603 3500 
L 1178 3500 
L 1178 0 
L 603 0 
L 603 3500 
z
M 603 4863 
L 1178 4863 
L 1178 4134 
L 603 4134 
L 603 4863 
z
" transform="scale(0.015625)"/>
       <path id="DejaVuSans-6f" d="M 1959 3097 
Q 1497 3097 1228 2736 
Q 959 2375 959 1747 
Q 959 1119 1226 758 
Q 1494 397 1959 397 
Q 2419 397 2687 759 
Q 2956 1122 2956 1747 
Q 2956 2369 2687 2733 
Q 2419 3097 1959 3097 
z
M 1959 3584 
Q 2709 3584 3137 3096 
Q 3566 2609 3566 1747 
Q 3566 888 3137 398 
Q 2709 -91 1959 -91 
Q 1206 -91 779 398 
Q 353 888 353 1747 
Q 353 2609 779 3096 
Q 1206 3584 1959 3584 
z
" transform="scale(0.015625)"/>
       <path id="DejaVuSans-6e" d="M 3513 2113 
L 3513 0 
L 2938 0 
L 2938 2094 
Q 2938 2591 2744 2837 
Q 2550 3084 2163 3084 
Q 1697 3084 1428 2787 
Q 1159 2491 1159 1978 
L 1159 0 
L 581 0 
L 581 3500 
L 1159 3500 
L 1159 2956 
Q 1366 3272 1645 3428 
Q 1925 3584 2291 3584 
Q 2894 3584 3203 3211 
Q 3513 2838 3513 2113 
z
" transform="scale(0.015625)"/>
       <path id="DejaVuSans-73" d="M 2834 3397 
L 2834 2853 
Q 2591 2978 2328 3040 
Q 2066 3103 1784 3103 
Q 1356 3103 1142 2972 
Q 928 2841 928 2578 
Q 928 2378 1081 2264 
Q 1234 2150 1697 2047 
L 1894 2003 
Q 2506 1872 2764 1633 
Q 3022 1394 3022 966 
Q 3022 478 2636 193 
Q 2250 -91 1575 -91 
Q 1294 -91 989 -36 
Q 684 19 347 128 
L 347 722 
Q 666 556 975 473 
Q 1284 391 1588 391 
Q 1994 391 2212 530 
Q 2431 669 2431 922 
Q 2431 1156 2273 1281 
Q 2116 1406 1581 1522 
L 1381 1569 
Q 847 1681 609 1914 
Q 372 2147 372 2553 
Q 372 3047 722 3315 
Q 1072 3584 1716 3584 
Q 2034 3584 2315 3537 
Q 2597 3491 2834 3397 
z
" transform="scale(0.015625)"/>
      </defs>
      <use xlink:href="#DejaVuSans-49"/>
      <use xlink:href="#DejaVuSans-74" x="29.492188"/>
      <use xlink:href="#DejaVuSans-65" x="68.701172"/>
      <use xlink:href="#DejaVuSans-72" x="130.224609"/>
      <use xlink:href="#DejaVuSans-61" x="171.337891"/>
      <use xlink:href="#DejaVuSans-74" x="232.617188"/>
      <use xlink:href="#DejaVuSans-69" x="271.826172"/>
      <use xlink:href="#DejaVuSans-6f" x="299.609375"/>
      <use xlink:href="#DejaVuSans-6e" x="360.791016"/>
      <use xlink:href="#DejaVuSans-73" x="424.169922"/>
     </g>
    </g>
   </g>
   <g id="matplotlib.axis_2">
    <g id="ytick_1">
     <g id="line2d_1">
      <defs>
       <path id="m7881a82260" d="M 0 0 
L -3.5 0 
" style="stroke: #000000; stroke-width: 0.8"/>
      </defs>
      <g>
       <use xlink:href="#m7881a82260" x="39.94" y="301.587586" style="stroke: #000000; stroke-width: 0.8"/>
      </g>
     </g>
     <g id="text_2">
      <!-- 0.50 -->
      <g transform="translate(10.674375 305.386804)scale(0.1 -0.1)">
       <defs>
        <path id="DejaVuSans-30" d="M 2034 4250 
Q 1547 4250 1301 3770 
Q 1056 3291 1056 2328 
Q 1056 1369 1301 889 
Q 1547 409 2034 409 
Q 2525 409 2770 889 
Q 3016 1369 3016 2328 
Q 3016 3291 2770 3770 
Q 2525 4250 2034 4250 
z
M 2034 4750 
Q 2819 4750 3233 4129 
Q 3647 3509 3647 2328 
Q 3647 1150 3233 529 
Q 2819 -91 2034 -91 
Q 1250 -91 836 529 
Q 422 1150 422 2328 
Q 422 3509 836 4129 
Q 1250 4750 2034 4750 
z
" transform="scale(0.015625)"/>
        <path id="DejaVuSans-2e" d="M 684 794 
L 1344 794 
L 1344 0 
L 684 0 
L 684 794 
z
" transform="scale(0.015625)"/>
        <path id="DejaVuSans-35" d="M 691 4666 
L 3169 4666 
L 3169 4134 
L 1269 4134 
L 1269 2991 
Q 1406 3038 1543 3061 
Q 1681 3084 1819 3084 
Q 2600 3084 3056 2656 
Q 3513 2228 3513 1497 
Q 3513 744 3044 326 
Q 2575 -91 1722 -91 
Q 1428 -91 1123 -41 
Q 819 9 494 109 
L 494 744 
Q 775 591 1075 516 
Q 1375 441 1709 441 
Q 2250 441 2565 725 
Q 2881 1009 2881 1497 
Q 2881 1984 2565 2268 
Q 2250 2553 1709 2553 
Q 1456 2553 1204 2497 
Q 953 2441 691 2322 
L 691 4666 
z
" transform="scale(0.015625)"/>
       </defs>
       <use xlink:href="#DejaVuSans-30"/>
       <use xlink:href="#DejaVuSans-2e" x="63.623047"/>
       <use xlink:href="#DejaVuSans-35" x="95.410156"/>
       <use xlink:href="#DejaVuSans-30" x="159.033203"/>
      </g>
     </g>
    </g>
    <g id="ytick_2">
     <g id="line2d_2">
      <g>
       <use xlink:href="#m7881a82260" x="39.94" y="257.860016" style="stroke: #000000; stroke-width: 0.8"/>
      </g>
     </g>
     <g id="text_3">
      <!-- 0.55 -->
      <g transform="translate(10.674375 261.659234)scale(0.1 -0.1)">
       <use xlink:href="#DejaVuSans-30"/>
       <use xlink:href="#DejaVuSans-2e" x="63.623047"/>
       <use xlink:href="#DejaVuSans-35" x="95.410156"/>
       <use xlink:href="#DejaVuSans-35" x="159.033203"/>
      </g>
     </g>
    </g>
    <g id="ytick_3">
     <g id="line2d_3">
      <g>
       <use xlink:href="#m7881a82260" x="39.94" y="214.132445" style="stroke: #000000; stroke-width: 0.8"/>
      </g>
     </g>
     <g id="text_4">
      <!-- 0.60 -->
      <g transform="translate(10.674375 217.931664)scale(0.1 -0.1)">
       <defs>
        <path id="DejaVuSans-36" d="M 2113 2584 
Q 1688 2584 1439 2293 
Q 1191 2003 1191 1497 
Q 1191 994 1439 701 
Q 1688 409 2113 409 
Q 2538 409 2786 701 
Q 3034 994 3034 1497 
Q 3034 2003 2786 2293 
Q 2538 2584 2113 2584 
z
M 3366 4563 
L 3366 3988 
Q 3128 4100 2886 4159 
Q 2644 4219 2406 4219 
Q 1781 4219 1451 3797 
Q 1122 3375 1075 2522 
Q 1259 2794 1537 2939 
Q 1816 3084 2150 3084 
Q 2853 3084 3261 2657 
Q 3669 2231 3669 1497 
Q 3669 778 3244 343 
Q 2819 -91 2113 -91 
Q 1303 -91 875 529 
Q 447 1150 447 2328 
Q 447 3434 972 4092 
Q 1497 4750 2381 4750 
Q 2619 4750 2861 4703 
Q 3103 4656 3366 4563 
z
" transform="scale(0.015625)"/>
       </defs>
       <use xlink:href="#DejaVuSans-30"/>
       <use xlink:href="#DejaVuSans-2e" x="63.623047"/>
       <use xlink:href="#DejaVuSans-36" x="95.410156"/>
       <use xlink:href="#DejaVuSans-30" x="159.033203"/>
      </g>
     </g>
    </g>
    <g id="ytick_4">
     <g id="line2d_4">
      <g>
       <use xlink:href="#m7881a82260" x="39.94" y="170.404875" style="stroke: #000000; stroke-width: 0.8"/>
      </g>
     </g>
     <g id="text_5">
      <!-- 0.65 -->
      <g transform="translate(10.674375 174.204094)scale(0.1 -0.1)">
       <use xlink:href="#DejaVuSans-30"/>
       <use xlink:href="#DejaVuSans-2e" x="63.623047"/>
       <use xlink:href="#DejaVuSans-36" x="95.410156"/>
       <use xlink:href="#DejaVuSans-35" x="159.033203"/>
      </g>
     </g>
    </g>
    <g id="ytick_5">
     <g id="line2d_5">
      <g>
       <use xlink:href="#m7881a82260" x="39.94" y="126.677305" style="stroke: #000000; stroke-width: 0.8"/>
      </g>
     </g>
     <g id="text_6">
      <!-- 0.70 -->
      <g transform="translate(10.674375 130.476524)scale(0.1 -0.1)">
       <defs>
        <path id="DejaVuSans-37" d="M 525 4666 
L 3525 4666 
L 3525 4397 
L 1831 0 
L 1172 0 
L 2766 4134 
L 525 4134 
L 525 4666 
z
" transform="scale(0.015625)"/>
       </defs>
       <use xlink:href="#DejaVuSans-30"/>
       <use xlink:href="#DejaVuSans-2e" x="63.623047"/>
       <use xlink:href="#DejaVuSans-37" x="95.410156"/>
       <use xlink:href="#DejaVuSans-30" x="159.033203"/>
      </g>
     </g>
    </g>
    <g id="ytick_6">
     <g id="line2d_6">
      <g>
       <use xlink:href="#m7881a82260" x="39.94" y="82.949735" style="stroke: #000000; stroke-width: 0.8"/>
      </g>
     </g>
     <g id="text_7">
      <!-- 0.75 -->
      <g transform="translate(10.674375 86.748954)scale(0.1 -0.1)">
       <use xlink:href="#DejaVuSans-30"/>
       <use xlink:href="#DejaVuSans-2e" x="63.623047"/>
       <use xlink:href="#DejaVuSans-37" x="95.410156"/>
       <use xlink:href="#DejaVuSans-35" x="159.033203"/>
      </g>
     </g>
    </g>
    <g id="ytick_7">
     <g id="line2d_7">
      <g>
       <use xlink:href="#m7881a82260" x="39.94" y="39.222165" style="stroke: #000000; stroke-width: 0.8"/>
      </g>
     </g>
     <g id="text_8">
      <!-- 0.80 -->
      <g transform="translate(10.674375 43.021383)scale(0.1 -0.1)">
       <defs>
        <path id="DejaVuSans-38" d="M 2034 2216 
Q 1584 2216 1326 1975 
Q 1069 1734 1069 1313 
Q 1069 891 1326 650 
Q 1584 409 2034 409 
Q 2484 409 2743 651 
Q 3003 894 3003 1313 
Q 3003 1734 2745 1975 
Q 2488 2216 2034 2216 
z
M 1403 2484 
Q 997 2584 770 2862 
Q 544 3141 544 3541 
Q 544 4100 942 4425 
Q 1341 4750 2034 4750 
Q 2731 4750 3128 4425 
Q 3525 4100 3525 3541 
Q 3525 3141 3298 2862 
Q 3072 2584 2669 2484 
Q 3125 2378 3379 2068 
Q 3634 1759 3634 1313 
Q 3634 634 3220 271 
Q 2806 -91 2034 -91 
Q 1263 -91 848 271 
Q 434 634 434 1313 
Q 434 1759 690 2068 
Q 947 2378 1403 2484 
z
M 1172 3481 
Q 1172 3119 1398 2916 
Q 1625 2713 2034 2713 
Q 2441 2713 2670 2916 
Q 2900 3119 2900 3481 
Q 2900 3844 2670 4047 
Q 2441 4250 2034 4250 
Q 1625 4250 1398 4047 
Q 1172 3844 1172 3481 
z
" transform="scale(0.015625)"/>
       </defs>
       <use xlink:href="#DejaVuSans-30"/>
       <use xlink:href="#DejaVuSans-2e" x="63.623047"/>
       <use xlink:href="#DejaVuSans-38" x="95.410156"/>
       <use xlink:href="#DejaVuSans-30" x="159.033203"/>
      </g>
     </g>
    </g>
   </g>
   <g id="line2d_8">
    <path d="M 53.602273 295.815546 
L 53.946013 304.617476 
L 54.203818 307.12951 
L 54.375688 307.351066 
L 54.547558 306.717621 
L 54.891298 303.940039 
L 55.406909 299.95058 
L 55.578779 299.722245 
L 55.750649 300.405944 
L 56.180324 304.195461 
L 56.524064 306.162176 
L 56.609999 306.101387 
L 56.781869 305.133776 
L 57.125609 300.918678 
L 57.727155 293.161993 
L 57.98496 291.889655 
L 58.15683 291.770213 
L 58.3287 292.168525 
L 58.586505 293.614395 
L 59.531791 300.593095 
L 59.617726 300.607467 
L 59.789596 300.1011 
L 60.563011 296.15629 
L 60.734881 296.579244 
L 61.422362 300.243529 
L 61.508297 300.180881 
L 61.680167 299.242583 
L 62.453582 291.565428 
L 62.539517 291.68931 
L 62.711387 293.223733 
L 63.141062 301.279458 
L 63.484803 306.205053 
L 63.570738 306.484956 
L 63.656673 306.231425 
L 63.828543 304.359038 
L 64.344153 293.825485 
L 64.687893 289.32638 
L 64.773828 289.073285 
L 64.859763 289.115283 
L 65.031633 289.896354 
L 65.890984 296.01303 
L 66.062854 296.155551 
L 66.234724 295.976127 
L 66.578464 294.985184 
L 67.180009 293.081557 
L 67.351879 292.97333 
L 67.52375 293.240356 
L 67.781555 294.470537 
L 68.72684 300.179191 
L 68.89871 300.262545 
L 69.156515 299.947022 
L 69.672126 299.132227 
L 70.015866 299.129311 
L 70.359606 299.110367 
L 70.617411 298.747193 
L 70.875216 297.907352 
L 71.304891 295.513232 
L 72.336112 288.848974 
L 72.422047 288.980992 
L 72.593917 289.951446 
L 72.937657 294.349717 
L 73.539202 302.408817 
L 73.711073 303.060242 
L 73.797008 303.032661 
L 73.968878 302.39535 
L 74.312618 299.489037 
L 75.257903 290.48103 
L 75.515708 289.4745 
L 75.687579 289.394346 
L 75.859449 289.724334 
L 76.203189 291.125383 
L 76.804734 293.493701 
L 77.148474 294.027684 
L 77.492214 294.155847 
L 78.007825 294.02554 
L 78.523435 293.975872 
L 78.867175 294.201924 
L 79.29685 294.780343 
L 80.585876 296.789495 
L 80.843681 296.712611 
L 81.445226 296.40639 
L 81.703031 296.564953 
L 82.304577 297.111181 
L 82.476447 297.015045 
L 82.734252 296.454411 
L 83.335797 294.11232 
L 83.765472 292.831046 
L 84.109213 292.466856 
L 84.367018 292.561632 
L 84.624823 292.952314 
L 85.656043 295.058292 
L 85.913848 295.047958 
L 86.257589 294.710393 
L 87.031004 293.426637 
L 87.718484 291.885219 
L 88.234095 290.822137 
L 88.4919 290.65407 
L 88.66377 290.753888 
L 89.00751 291.326111 
L 89.69499 292.539655 
L 90.038731 292.65605 
L 90.382471 292.501242 
L 91.413691 291.7656 
L 91.671496 291.928531 
L 92.101172 292.579348 
L 92.874587 293.772762 
L 93.218327 293.988373 
L 93.562067 293.948789 
L 94.077677 293.515116 
L 94.593288 293.153975 
L 95.108898 293.149299 
L 95.538573 293.080771 
L 95.882313 292.744093 
L 96.226054 291.972332 
L 96.483859 291.005514 
L 96.483859 291.005514 
" clip-path="url(#p9df6d8d9f4)" style="fill: none; stroke: #1f77b4; stroke-width: 1.5; stroke-linecap: square"/>
   </g>
   <g id="line2d_9">
    <path d="M 97.481105 295.640636 
L 98.340455 295.194368 
L 98.856066 294.820057 
L 99.285741 294.252128 
L 99.801351 293.138332 
L 100.231026 292.331935 
L 100.488831 292.236571 
L 100.746636 292.556231 
L 101.605987 294.177856 
L 101.863792 294.130418 
L 102.121597 293.783421 
L 102.551272 292.667411 
L 103.238753 290.789501 
L 103.410623 290.710518 
L 103.582493 290.914809 
L 104.355908 292.664575 
L 104.441843 292.608198 
L 104.613713 292.166385 
L 104.871518 290.758875 
L 105.301194 286.940353 
L 106.504284 275.296026 
L 106.762089 274.599756 
L 106.933959 274.5495 
L 107.191765 274.897294 
L 108.13705 276.741407 
L 108.30892 276.660336 
L 108.48079 276.320393 
L 108.82453 274.904732 
L 109.597946 271.405447 
L 110.027621 270.674614 
L 110.371361 270.048213 
L 110.715101 268.790914 
L 112.949412 258.503025 
L 113.293153 257.74976 
L 113.465023 257.806067 
L 113.722828 258.489533 
L 114.496243 261.173659 
L 114.668113 261.163177 
L 114.839983 260.830998 
L 115.097788 259.760177 
L 115.441529 257.337163 
L 116.300879 250.236173 
L 116.472749 249.870781 
L 116.558684 249.928541 
L 116.730554 250.423186 
L 117.589905 253.917375 
L 117.761775 253.711233 
L 118.01958 252.880355 
L 119.22267 248.21355 
L 120.941371 243.442593 
L 121.628852 241.200187 
L 122.488202 238.960602 
L 123.089747 236.213284 
L 125.324058 225.297168 
L 125.409993 225.333291 
L 125.581864 225.754692 
L 126.441214 228.895729 
L 126.613084 228.512499 
L 126.956824 226.72484 
L 127.55837 223.488276 
L 127.90211 222.740334 
L 128.331785 221.997929 
L 128.675525 220.757032 
L 129.1052 218.082509 
L 129.620811 213.330683 
L 130.480161 205.085688 
L 131.081706 201.903383 
L 131.597316 198.957368 
L 132.370732 194.073498 
L 132.714472 193.178787 
L 133.316017 192.283908 
L 133.659758 190.930665 
L 134.605043 186.612438 
L 135.206588 185.04245 
L 135.550328 183.054994 
L 136.065939 178.210732 
L 137.097159 168.401587 
L 137.612769 165.498035 
L 138.558055 161.475777 
L 139.1596 157.074781 
L 140.362691 147.666539 
L 140.362691 147.666539 
" clip-path="url(#p9df6d8d9f4)" style="fill: none; stroke: #ff7f0e; stroke-width: 1.5; stroke-linecap: square"/>
   </g>
   <g id="line2d_10">
    <path d="M 141.359937 267.217716 
L 141.599756 268.13078 
L 141.719665 268.039591 
L 141.879544 267.448169 
L 142.159333 265.411867 
L 143.438366 254.340021 
L 143.598245 254.257106 
L 143.878034 254.530119 
L 144.077882 254.572621 
L 144.237762 254.228133 
L 144.437611 253.020452 
L 144.797339 248.870842 
L 145.516795 240.522785 
L 145.916493 238.694195 
L 146.316191 236.970268 
L 146.675919 234.092795 
L 147.315435 229.183303 
L 147.515284 228.82366 
L 147.635194 228.90377 
L 147.914982 229.534767 
L 148.23474 230.154357 
L 148.35465 230.121529 
L 148.514529 229.732672 
L 148.794317 228.258484 
L 149.313925 223.968812 
L 151.072595 209.0742 
L 151.951931 203.387456 
L 153.071085 197.440626 
L 153.310903 196.998492 
L 153.470782 197.048273 
L 153.790541 197.580157 
L 154.030359 197.834691 
L 154.150269 197.756868 
L 154.310148 197.314579 
L 154.549967 195.776348 
L 155.029604 190.780345 
L 155.669121 184.781035 
L 156.108788 182.523794 
L 156.548456 181.335158 
L 156.948154 180.233834 
L 157.227942 178.708991 
L 157.58767 175.171789 
L 158.506976 165.387866 
L 158.866704 164.001756 
L 159.54619 161.967564 
L 160.065797 159.057671 
L 161.304861 151.339655 
L 161.304861 151.339655 
" clip-path="url(#p9df6d8d9f4)" style="fill: none; stroke: #2ca02c; stroke-width: 1.5; stroke-linecap: square"/>
   </g>
   <g id="line2d_11">
    <path d="M 162.302107 247.89013 
L 162.697808 247.051278 
L 163.665077 245.66626 
L 163.972844 244.453906 
L 164.324578 242.054117 
L 164.808212 236.831629 
L 165.995315 223.390593 
L 166.347049 221.674634 
L 166.566883 221.437324 
L 166.786717 221.540076 
L 167.094484 221.633858 
L 167.270351 221.354886 
L 167.490185 220.407141 
L 167.841919 217.591866 
L 168.36952 211.135927 
L 169.072989 202.692733 
L 169.292823 201.790027 
L 169.380756 201.815367 
L 169.556623 202.415641 
L 170.348025 206.557931 
L 170.391992 206.520394 
L 170.523892 206.148927 
L 170.787693 204.420256 
L 171.22736 199.626751 
L 172.150662 189.466642 
L 172.45843 188.215617 
L 172.634297 188.090781 
L 172.854131 188.236231 
L 173.161898 188.421296 
L 173.293798 188.29938 
L 173.513632 187.638542 
L 173.821399 185.717337 
L 174.2171 181.511337 
L 175.316269 168.262729 
L 175.404203 168.208623 
L 175.44817 168.252981 
L 175.624037 168.763099 
L 176.063704 170.216393 
L 176.151638 170.144276 
L 176.283538 169.579125 
L 176.503372 167.355161 
L 177.338741 157.344501 
L 177.426674 157.255442 
L 177.470641 157.288857 
L 177.646508 157.770146 
L 178.042209 158.874163 
L 178.130142 158.718023 
L 178.262043 157.952066 
L 178.525843 154.361634 
L 179.317245 141.990034 
L 179.449145 141.796295 
L 179.581046 142.158675 
L 180.19658 145.123072 
L 180.240547 145.070199 
L 180.372448 144.468433 
L 180.636248 141.703843 
L 181.515583 130.918387 
L 181.867318 129.569335 
L 182.306985 128.157862 
L 182.702686 125.671519 
L 183.713922 118.87434 
L 183.977722 118.393986 
L 184.109623 118.537045 
L 184.241523 118.981253 
L 184.241523 118.981253 
" clip-path="url(#p9df6d8d9f4)" style="fill: none; stroke: #d62728; stroke-width: 1.5; stroke-linecap: square"/>
   </g>
   <g id="line2d_12">
    <path d="M 185.238769 245.17902 
L 185.618482 235.039748 
L 185.960224 231.01612 
L 186.188052 230.243557 
L 186.301965 230.262777 
L 186.491822 230.7026 
L 187.175305 232.797749 
L 187.289219 232.662183 
L 187.479076 231.912637 
L 187.820817 229.336707 
L 188.997928 217.358642 
L 190.478808 201.744412 
L 190.858521 200.831784 
L 191.162292 199.969596 
L 191.466062 198.182301 
L 193.022885 187.24857 
L 193.440569 183.661013 
L 194.61768 172.274987 
L 195.339134 166.961606 
L 196.554216 156.172838 
L 197.047843 152.934301 
L 197.389584 148.959369 
L 198.186982 139.003051 
L 198.376838 138.507663 
L 198.490752 138.609127 
L 198.756551 139.408975 
L 199.060321 140.054318 
L 199.174235 139.883037 
L 199.364092 138.807502 
L 199.705833 134.951602 
L 200.731059 122.256169 
L 202.363824 108.1045 
L 202.629623 107.699369 
L 203.12325 107.321937 
L 203.351078 106.600322 
L 203.616877 104.75326 
L 203.920647 100.711633 
L 204.186447 94.931089 
L 204.186447 94.931089 
" clip-path="url(#p9df6d8d9f4)" style="fill: none; stroke: #9467bd; stroke-width: 1.5; stroke-linecap: square"/>
   </g>
   <g id="line2d_13">
    <path d="M 205.183693 247.365399 
L 205.943119 237.722531 
L 207.342061 221.054216 
L 208.101487 211.499691 
L 208.381276 210.12247 
L 208.621094 209.816127 
L 208.940853 209.607876 
L 209.140702 209.036854 
L 209.38052 207.455173 
L 210.619584 197.513273 
L 210.979312 195.610331 
L 211.2591 192.842807 
L 212.418224 179.031245 
L 212.658043 178.719917 
L 212.897862 178.483399 
L 213.097711 177.794366 
L 213.337529 175.820579 
L 214.296804 166.4336 
L 214.416714 166.436527 
L 214.656532 166.892598 
L 214.896351 167.155842 
L 215.01626 166.917734 
L 215.17614 165.949707 
L 215.455928 162.296766 
L 216.335263 149.169629 
L 216.615052 148.170117 
L 216.89484 147.957471 
L 217.094689 147.718766 
L 217.294538 147.01823 
L 217.654266 144.693109 
L 218.533602 138.766875 
L 219.372967 134.175186 
L 220.252302 128.676336 
L 220.69197 127.489575 
L 221.091668 126.277823 
L 221.451396 124.204689 
L 222.050943 119.025842 
L 223.729674 103.860513 
L 224.688949 97.588432 
L 225.128616 95.105999 
L 225.128616 95.105999 
" clip-path="url(#p9df6d8d9f4)" style="fill: none; stroke: #8c564b; stroke-width: 1.5; stroke-linecap: square"/>
   </g>
   <g id="line2d_14">
    <path d="M 226.125863 218.592658 
L 226.325712 218.914656 
L 226.445621 218.820743 
L 226.64547 218.265019 
L 227.005198 216.333954 
L 228.204292 209.101403 
L 228.843808 207.539373 
L 229.083627 205.675645 
L 229.403385 201.078923 
L 230.242751 188.354474 
L 230.562509 186.92184 
L 230.922237 185.689266 
L 231.162056 183.795659 
L 231.561754 178.026739 
L 232.121331 170.487601 
L 232.361149 169.474215 
L 232.521029 169.454818 
L 232.760847 169.891738 
L 233.040636 170.273092 
L 233.160545 170.13684 
L 233.360394 169.363472 
L 233.680152 166.991213 
L 234.319669 160.043763 
L 235.398853 148.729974 
L 236.557977 139.884154 
L 237.117554 136.7361 
L 237.91695 133.400428 
L 238.236708 129.93675 
L 239.116043 118.770809 
L 239.275923 118.451659 
L 239.395832 118.587572 
L 239.915439 119.814648 
L 239.955409 119.775839 
L 240.075318 119.394257 
L 240.275167 117.750518 
L 240.714835 111.454487 
L 241.234442 104.934744 
L 241.5542 103.313189 
L 242.353596 100.561358 
L 242.753294 97.202934 
L 243.232931 91.060735 
L 243.952388 82.002553 
L 244.192206 81.19936 
L 244.312116 81.383747 
L 244.511965 82.308704 
L 245.35133 86.964271 
L 245.47124 86.72086 
L 245.631119 85.663729 
L 245.870937 82.130862 
L 246.070786 77.002785 
L 246.070786 77.002785 
" clip-path="url(#p9df6d8d9f4)" style="fill: none; stroke: #e377c2; stroke-width: 1.5; stroke-linecap: square"/>
   </g>
   <g id="line2d_15">
    <path d="M 247.068033 239.931712 
L 247.159963 239.918459 
L 247.297859 239.516798 
L 247.527685 237.976405 
L 247.941372 233.248003 
L 249.090504 219.11278 
L 249.412261 217.82924 
L 249.917878 216.388547 
L 250.19367 214.380282 
L 250.653322 208.593727 
L 251.526662 197.366887 
L 251.894384 195.181045 
L 252.078245 194.994054 
L 252.216141 195.262439 
L 252.721759 196.515847 
L 252.859655 196.150359 
L 253.043516 194.640354 
L 253.319307 189.838629 
L 254.192647 172.558343 
L 254.422473 171.548794 
L 254.560369 171.497033 
L 255.020022 171.846265 
L 255.065987 171.762326 
L 255.249848 171.028767 
L 255.61757 168.28487 
L 256.307049 163.148125 
L 257.088458 158.729542 
L 257.640041 152.990991 
L 258.283555 147.006193 
L 258.743207 144.670838 
L 259.432686 142.463473 
L 259.846373 141.715532 
L 260.0762 141.640266 
L 260.535852 141.742934 
L 260.719713 141.369511 
L 260.94954 140.137331 
L 261.225331 137.155239 
L 262.00674 127.966409 
L 262.098671 127.791423 
L 262.144636 127.811157 
L 262.282532 128.196366 
L 262.834115 130.495166 
L 262.88008 130.443041 
L 263.017976 129.786239 
L 263.247802 126.862022 
L 264.121142 113.260983 
L 264.213073 113.1975 
L 264.350968 113.601873 
L 264.948517 116.429993 
L 264.994482 116.347956 
L 265.132378 115.570528 
L 265.408169 112.223027 
L 266.051683 103.800127 
L 266.235544 103.309609 
L 266.327474 103.398782 
L 266.557301 104.202637 
L 266.970988 105.675157 
L 267.062918 105.648063 
L 267.200814 105.245588 
L 267.476606 103.401894 
L 268.074154 97.12455 
L 268.717668 91.366434 
L 269.08539 89.607487 
L 269.315216 89.304976 
L 269.453112 89.468284 
L 269.636973 90.132584 
L 269.912764 92.188723 
L 270.004695 93.181986 
L 270.004695 93.181986 
" clip-path="url(#p9df6d8d9f4)" style="fill: none; stroke: #7f7f7f; stroke-width: 1.5; stroke-linecap: square"/>
   </g>
   <g id="line2d_16">
    <path d="M 271.001941 229.786915 
L 271.365666 220.136475 
L 271.62547 217.383033 
L 271.833313 216.913994 
L 271.989195 217.245368 
L 272.40488 219.272731 
L 272.664684 220.030219 
L 272.768606 219.949968 
L 272.924488 219.223626 
L 273.132331 216.860615 
L 274.015663 204.034523 
L 274.067624 204.040856 
L 274.171545 204.424892 
L 274.431349 206.736799 
L 274.795074 209.796909 
L 274.898995 209.900337 
L 275.002917 209.405228 
L 275.21076 206.479577 
L 275.678406 194.770291 
L 276.146053 185.203892 
L 276.457817 182.902951 
L 277.185267 180.024797 
L 277.756835 174.352707 
L 278.276442 170.249541 
L 279.679382 163.302747 
L 279.939185 162.789821 
L 280.043107 162.862735 
L 280.30291 163.560952 
L 280.666635 164.386732 
L 280.770557 164.291447 
L 280.926439 163.659137 
L 281.134282 161.674956 
L 281.549968 154.948383 
L 282.225457 144.55325 
L 282.589182 141.895061 
L 282.900947 140.870214 
L 283.16075 140.58183 
L 283.628397 140.2842 
L 283.83624 139.801274 
L 284.096043 138.527128 
L 284.56369 134.726653 
L 285.187218 130.001948 
L 286.01859 124.85117 
L 287.057804 115.941781 
L 287.265647 115.738534 
L 287.785254 115.881234 
L 287.941137 115.455784 
L 288.20094 113.765159 
L 289.136233 106.495306 
L 289.344076 106.294234 
L 289.551919 106.450901 
L 289.967605 106.822277 
L 290.123487 106.678605 
L 290.33133 106.149428 
L 290.643094 104.62305 
L 291.05878 101.202386 
L 292.097994 91.62966 
L 292.51368 90.230973 
L 292.877405 88.831986 
L 293.24113 86.126644 
L 293.812698 81.835903 
L 294.020541 81.407154 
L 294.124463 81.530467 
L 294.332306 82.277364 
L 295.215638 86.216883 
L 295.37152 86.19294 
L 295.579363 85.765425 
L 295.891127 84.344266 
L 296.306813 81.168857 
L 296.878381 74.867341 
L 296.930342 74.204221 
L 296.930342 74.204221 
" clip-path="url(#p9df6d8d9f4)" style="fill: none; stroke: #bcbd22; stroke-width: 1.5; stroke-linecap: square"/>
   </g>
   <g id="line2d_17">
    <path d="M 297.927588 219.817029 
L 298.159413 220.725324 
L 298.275325 220.662153 
L 298.449194 220.028963 
L 298.738975 217.858455 
L 300.071967 205.876775 
L 300.593573 204.830799 
L 300.825397 203.182327 
L 301.115178 198.794304 
L 301.984521 183.582197 
L 302.15839 183.220919 
L 302.274302 183.484113 
L 302.622039 185.330522 
L 302.853864 186.203428 
L 302.969777 186.164415 
L 303.143645 185.396526 
L 303.433426 182.757765 
L 304.418681 172.703451 
L 306.794885 156.421063 
L 307.664228 152.405065 
L 308.011965 149.304416 
L 308.881308 140.642511 
L 309.055177 140.3118 
L 309.171089 140.39809 
L 309.692695 141.312946 
L 309.750651 141.250396 
L 309.924519 140.583583 
L 310.2143 137.806549 
L 311.141599 127.539143 
L 311.43138 126.813692 
L 311.663205 126.794167 
L 312.126855 126.98335 
L 312.300723 126.835264 
L 312.532548 126.278163 
L 312.822329 124.789918 
L 313.170066 121.558504 
L 313.807584 112.991454 
L 314.503059 104.363526 
L 314.79284 102.856099 
L 314.908752 102.829831 
L 315.08262 103.414224 
L 315.778095 106.92118 
L 315.894007 106.67578 
L 316.067876 105.456002 
L 316.415613 100.86623 
L 317.227 89.709267 
L 317.574737 87.813218 
L 317.748605 87.605219 
L 317.864518 87.742174 
L 318.096342 88.58929 
L 318.617948 90.683759 
L 318.733861 90.666251 
L 318.849773 90.309756 
L 319.081598 88.448988 
L 320.124809 77.632235 
L 320.472546 77.151654 
L 320.646415 76.730143 
L 320.87824 75.303095 
L 321.225977 70.861882 
L 321.805539 63.712918 
L 321.979407 63.273007 
L 322.09532 63.526464 
L 322.385101 65.244249 
L 322.790794 67.431333 
L 322.906706 67.407865 
L 323.080575 66.645533 
L 323.544224 62.707081 
L 323.834005 61.041961 
L 323.949918 60.973725 
L 324.123786 61.462209 
L 324.703348 63.758168 
L 324.819261 63.51797 
L 324.993129 62.261955 
L 325.28291 58.179516 
L 326.384078 40.481725 
L 326.49999 40.236364 
L 326.615903 40.60557 
L 326.789771 42.486574 
L 326.847727 43.507467 
L 326.847727 43.507467 
" clip-path="url(#p9df6d8d9f4)" style="fill: none; stroke: #17becf; stroke-width: 1.5; stroke-linecap: square"/>
   </g>
   <g id="patch_3">
    <path d="M 39.94 320.72 
L 39.94 26.88 
" style="fill: none; stroke: #000000; stroke-width: 0.8; stroke-linejoin: miter; stroke-linecap: square"/>
   </g>
   <g id="patch_4">
    <path d="M 340.51 320.72 
L 340.51 26.88 
" style="fill: none; stroke: #000000; stroke-width: 0.8; stroke-linejoin: miter; stroke-linecap: square"/>
   </g>
   <g id="patch_5">
    <path d="M 39.94 320.72 
L 340.51 320.72 
" style="fill: none; stroke: #000000; stroke-width: 0.8; stroke-linejoin: miter; stroke-linecap: square"/>
   </g>
   <g id="patch_6">
    <path d="M 39.94 26.88 
L 340.51 26.88 
" style="fill: none; stroke: #000000; stroke-width: 0.8; stroke-linejoin: miter; stroke-linecap: square"/>
   </g>
   <g id="text_9">
    <!-- Train acc Curve -->
    <g transform="translate(144.041875 20.88)scale(0.12 -0.12)">
     <defs>
      <path id="DejaVuSans-54" d="M -19 4666 
L 3928 4666 
L 3928 4134 
L 2272 4134 
L 2272 0 
L 1638 0 
L 1638 4134 
L -19 4134 
L -19 4666 
z
" transform="scale(0.015625)"/>
      <path id="DejaVuSans-20" transform="scale(0.015625)"/>
      <path id="DejaVuSans-63" d="M 3122 3366 
L 3122 2828 
Q 2878 2963 2633 3030 
Q 2388 3097 2138 3097 
Q 1578 3097 1268 2742 
Q 959 2388 959 1747 
Q 959 1106 1268 751 
Q 1578 397 2138 397 
Q 2388 397 2633 464 
Q 2878 531 3122 666 
L 3122 134 
Q 2881 22 2623 -34 
Q 2366 -91 2075 -91 
Q 1284 -91 818 406 
Q 353 903 353 1747 
Q 353 2603 823 3093 
Q 1294 3584 2113 3584 
Q 2378 3584 2631 3529 
Q 2884 3475 3122 3366 
z
" transform="scale(0.015625)"/>
      <path id="DejaVuSans-43" d="M 4122 4306 
L 4122 3641 
Q 3803 3938 3442 4084 
Q 3081 4231 2675 4231 
Q 1875 4231 1450 3742 
Q 1025 3253 1025 2328 
Q 1025 1406 1450 917 
Q 1875 428 2675 428 
Q 3081 428 3442 575 
Q 3803 722 4122 1019 
L 4122 359 
Q 3791 134 3420 21 
Q 3050 -91 2638 -91 
Q 1578 -91 968 557 
Q 359 1206 359 2328 
Q 359 3453 968 4101 
Q 1578 4750 2638 4750 
Q 3056 4750 3426 4639 
Q 3797 4528 4122 4306 
z
" transform="scale(0.015625)"/>
      <path id="DejaVuSans-75" d="M 544 1381 
L 544 3500 
L 1119 3500 
L 1119 1403 
Q 1119 906 1312 657 
Q 1506 409 1894 409 
Q 2359 409 2629 706 
Q 2900 1003 2900 1516 
L 2900 3500 
L 3475 3500 
L 3475 0 
L 2900 0 
L 2900 538 
Q 2691 219 2414 64 
Q 2138 -91 1772 -91 
Q 1169 -91 856 284 
Q 544 659 544 1381 
z
M 1991 3584 
L 1991 3584 
z
" transform="scale(0.015625)"/>
      <path id="DejaVuSans-76" d="M 191 3500 
L 800 3500 
L 1894 563 
L 2988 3500 
L 3597 3500 
L 2284 0 
L 1503 0 
L 191 3500 
z
" transform="scale(0.015625)"/>
     </defs>
     <use xlink:href="#DejaVuSans-54"/>
     <use xlink:href="#DejaVuSans-72" x="46.333984"/>
     <use xlink:href="#DejaVuSans-61" x="87.447266"/>
     <use xlink:href="#DejaVuSans-69" x="148.726562"/>
     <use xlink:href="#DejaVuSans-6e" x="176.509766"/>
     <use xlink:href="#DejaVuSans-20" x="239.888672"/>
     <use xlink:href="#DejaVuSans-61" x="271.675781"/>
     <use xlink:href="#DejaVuSans-63" x="332.955078"/>
     <use xlink:href="#DejaVuSans-63" x="387.935547"/>
     <use xlink:href="#DejaVuSans-20" x="442.916016"/>
     <use xlink:href="#DejaVuSans-43" x="474.703125"/>
     <use xlink:href="#DejaVuSans-75" x="544.527344"/>
     <use xlink:href="#DejaVuSans-72" x="607.90625"/>
     <use xlink:href="#DejaVuSans-76" x="649.019531"/>
     <use xlink:href="#DejaVuSans-65" x="708.199219"/>
    </g>
   </g>
   <g id="legend_1">
    <g id="patch_7">
     <path d="M 349.51 250.690625 
L 449.899062 250.690625 
Q 451.899062 250.690625 451.899062 248.690625 
L 451.899062 102.909375 
Q 451.899062 100.909375 449.899062 100.909375 
L 349.51 100.909375 
Q 347.51 100.909375 347.51 102.909375 
L 347.51 248.690625 
Q 347.51 250.690625 349.51 250.690625 
z
" style="fill: #4c4c4c; opacity: 0.5; stroke: #4c4c4c; stroke-linejoin: miter"/>
    </g>
    <g id="patch_8">
     <path d="M 347.51 248.690625 
L 447.899062 248.690625 
Q 449.899062 248.690625 449.899062 246.690625 
L 449.899062 100.909375 
Q 449.899062 98.909375 447.899062 98.909375 
L 347.51 98.909375 
Q 345.51 98.909375 345.51 100.909375 
L 345.51 246.690625 
Q 345.51 248.690625 347.51 248.690625 
z
" style="fill: #ffffff; stroke: #cccccc; stroke-linejoin: miter"/>
    </g>
    <g id="line2d_18">
     <path d="M 349.51 107.007812 
L 359.51 107.007812 
L 369.51 107.007812 
" style="fill: none; stroke: #1f77b4; stroke-width: 1.5; stroke-linecap: square"/>
    </g>
    <g id="text_10">
     <!-- No.0 iteration -->
     <g transform="translate(377.51 110.507812)scale(0.1 -0.1)">
      <defs>
       <path id="DejaVuSans-4e" d="M 628 4666 
L 1478 4666 
L 3547 763 
L 3547 4666 
L 4159 4666 
L 4159 0 
L 3309 0 
L 1241 3903 
L 1241 0 
L 628 0 
L 628 4666 
z
" transform="scale(0.015625)"/>
      </defs>
      <use xlink:href="#DejaVuSans-4e"/>
      <use xlink:href="#DejaVuSans-6f" x="74.804688"/>
      <use xlink:href="#DejaVuSans-2e" x="134.236328"/>
      <use xlink:href="#DejaVuSans-30" x="166.023438"/>
      <use xlink:href="#DejaVuSans-20" x="229.646484"/>
      <use xlink:href="#DejaVuSans-69" x="261.433594"/>
      <use xlink:href="#DejaVuSans-74" x="289.216797"/>
      <use xlink:href="#DejaVuSans-65" x="328.425781"/>
      <use xlink:href="#DejaVuSans-72" x="389.949219"/>
      <use xlink:href="#DejaVuSans-61" x="431.0625"/>
      <use xlink:href="#DejaVuSans-74" x="492.341797"/>
      <use xlink:href="#DejaVuSans-69" x="531.550781"/>
      <use xlink:href="#DejaVuSans-6f" x="559.333984"/>
      <use xlink:href="#DejaVuSans-6e" x="620.515625"/>
     </g>
    </g>
    <g id="line2d_19">
     <path d="M 349.51 121.685938 
L 359.51 121.685938 
L 369.51 121.685938 
" style="fill: none; stroke: #ff7f0e; stroke-width: 1.5; stroke-linecap: square"/>
    </g>
    <g id="text_11">
     <!-- No.1 iteration -->
     <g transform="translate(377.51 125.185938)scale(0.1 -0.1)">
      <defs>
       <path id="DejaVuSans-31" d="M 794 531 
L 1825 531 
L 1825 4091 
L 703 3866 
L 703 4441 
L 1819 4666 
L 2450 4666 
L 2450 531 
L 3481 531 
L 3481 0 
L 794 0 
L 794 531 
z
" transform="scale(0.015625)"/>
      </defs>
      <use xlink:href="#DejaVuSans-4e"/>
      <use xlink:href="#DejaVuSans-6f" x="74.804688"/>
      <use xlink:href="#DejaVuSans-2e" x="134.236328"/>
      <use xlink:href="#DejaVuSans-31" x="166.023438"/>
      <use xlink:href="#DejaVuSans-20" x="229.646484"/>
      <use xlink:href="#DejaVuSans-69" x="261.433594"/>
      <use xlink:href="#DejaVuSans-74" x="289.216797"/>
      <use xlink:href="#DejaVuSans-65" x="328.425781"/>
      <use xlink:href="#DejaVuSans-72" x="389.949219"/>
      <use xlink:href="#DejaVuSans-61" x="431.0625"/>
      <use xlink:href="#DejaVuSans-74" x="492.341797"/>
      <use xlink:href="#DejaVuSans-69" x="531.550781"/>
      <use xlink:href="#DejaVuSans-6f" x="559.333984"/>
      <use xlink:href="#DejaVuSans-6e" x="620.515625"/>
     </g>
    </g>
    <g id="line2d_20">
     <path d="M 349.51 136.364063 
L 359.51 136.364063 
L 369.51 136.364063 
" style="fill: none; stroke: #2ca02c; stroke-width: 1.5; stroke-linecap: square"/>
    </g>
    <g id="text_12">
     <!-- No.2 iteration -->
     <g transform="translate(377.51 139.864063)scale(0.1 -0.1)">
      <defs>
       <path id="DejaVuSans-32" d="M 1228 531 
L 3431 531 
L 3431 0 
L 469 0 
L 469 531 
Q 828 903 1448 1529 
Q 2069 2156 2228 2338 
Q 2531 2678 2651 2914 
Q 2772 3150 2772 3378 
Q 2772 3750 2511 3984 
Q 2250 4219 1831 4219 
Q 1534 4219 1204 4116 
Q 875 4013 500 3803 
L 500 4441 
Q 881 4594 1212 4672 
Q 1544 4750 1819 4750 
Q 2544 4750 2975 4387 
Q 3406 4025 3406 3419 
Q 3406 3131 3298 2873 
Q 3191 2616 2906 2266 
Q 2828 2175 2409 1742 
Q 1991 1309 1228 531 
z
" transform="scale(0.015625)"/>
      </defs>
      <use xlink:href="#DejaVuSans-4e"/>
      <use xlink:href="#DejaVuSans-6f" x="74.804688"/>
      <use xlink:href="#DejaVuSans-2e" x="134.236328"/>
      <use xlink:href="#DejaVuSans-32" x="166.023438"/>
      <use xlink:href="#DejaVuSans-20" x="229.646484"/>
      <use xlink:href="#DejaVuSans-69" x="261.433594"/>
      <use xlink:href="#DejaVuSans-74" x="289.216797"/>
      <use xlink:href="#DejaVuSans-65" x="328.425781"/>
      <use xlink:href="#DejaVuSans-72" x="389.949219"/>
      <use xlink:href="#DejaVuSans-61" x="431.0625"/>
      <use xlink:href="#DejaVuSans-74" x="492.341797"/>
      <use xlink:href="#DejaVuSans-69" x="531.550781"/>
      <use xlink:href="#DejaVuSans-6f" x="559.333984"/>
      <use xlink:href="#DejaVuSans-6e" x="620.515625"/>
     </g>
    </g>
    <g id="line2d_21">
     <path d="M 349.51 151.042188 
L 359.51 151.042188 
L 369.51 151.042188 
" style="fill: none; stroke: #d62728; stroke-width: 1.5; stroke-linecap: square"/>
    </g>
    <g id="text_13">
     <!-- No.3 iteration -->
     <g transform="translate(377.51 154.542188)scale(0.1 -0.1)">
      <defs>
       <path id="DejaVuSans-33" d="M 2597 2516 
Q 3050 2419 3304 2112 
Q 3559 1806 3559 1356 
Q 3559 666 3084 287 
Q 2609 -91 1734 -91 
Q 1441 -91 1130 -33 
Q 819 25 488 141 
L 488 750 
Q 750 597 1062 519 
Q 1375 441 1716 441 
Q 2309 441 2620 675 
Q 2931 909 2931 1356 
Q 2931 1769 2642 2001 
Q 2353 2234 1838 2234 
L 1294 2234 
L 1294 2753 
L 1863 2753 
Q 2328 2753 2575 2939 
Q 2822 3125 2822 3475 
Q 2822 3834 2567 4026 
Q 2313 4219 1838 4219 
Q 1578 4219 1281 4162 
Q 984 4106 628 3988 
L 628 4550 
Q 988 4650 1302 4700 
Q 1616 4750 1894 4750 
Q 2613 4750 3031 4423 
Q 3450 4097 3450 3541 
Q 3450 3153 3228 2886 
Q 3006 2619 2597 2516 
z
" transform="scale(0.015625)"/>
      </defs>
      <use xlink:href="#DejaVuSans-4e"/>
      <use xlink:href="#DejaVuSans-6f" x="74.804688"/>
      <use xlink:href="#DejaVuSans-2e" x="134.236328"/>
      <use xlink:href="#DejaVuSans-33" x="166.023438"/>
      <use xlink:href="#DejaVuSans-20" x="229.646484"/>
      <use xlink:href="#DejaVuSans-69" x="261.433594"/>
      <use xlink:href="#DejaVuSans-74" x="289.216797"/>
      <use xlink:href="#DejaVuSans-65" x="328.425781"/>
      <use xlink:href="#DejaVuSans-72" x="389.949219"/>
      <use xlink:href="#DejaVuSans-61" x="431.0625"/>
      <use xlink:href="#DejaVuSans-74" x="492.341797"/>
      <use xlink:href="#DejaVuSans-69" x="531.550781"/>
      <use xlink:href="#DejaVuSans-6f" x="559.333984"/>
      <use xlink:href="#DejaVuSans-6e" x="620.515625"/>
     </g>
    </g>
    <g id="line2d_22">
     <path d="M 349.51 165.720313 
L 359.51 165.720313 
L 369.51 165.720313 
" style="fill: none; stroke: #9467bd; stroke-width: 1.5; stroke-linecap: square"/>
    </g>
    <g id="text_14">
     <!-- No.4 iteration -->
     <g transform="translate(377.51 169.220313)scale(0.1 -0.1)">
      <defs>
       <path id="DejaVuSans-34" d="M 2419 4116 
L 825 1625 
L 2419 1625 
L 2419 4116 
z
M 2253 4666 
L 3047 4666 
L 3047 1625 
L 3713 1625 
L 3713 1100 
L 3047 1100 
L 3047 0 
L 2419 0 
L 2419 1100 
L 313 1100 
L 313 1709 
L 2253 4666 
z
" transform="scale(0.015625)"/>
      </defs>
      <use xlink:href="#DejaVuSans-4e"/>
      <use xlink:href="#DejaVuSans-6f" x="74.804688"/>
      <use xlink:href="#DejaVuSans-2e" x="134.236328"/>
      <use xlink:href="#DejaVuSans-34" x="166.023438"/>
      <use xlink:href="#DejaVuSans-20" x="229.646484"/>
      <use xlink:href="#DejaVuSans-69" x="261.433594"/>
      <use xlink:href="#DejaVuSans-74" x="289.216797"/>
      <use xlink:href="#DejaVuSans-65" x="328.425781"/>
      <use xlink:href="#DejaVuSans-72" x="389.949219"/>
      <use xlink:href="#DejaVuSans-61" x="431.0625"/>
      <use xlink:href="#DejaVuSans-74" x="492.341797"/>
      <use xlink:href="#DejaVuSans-69" x="531.550781"/>
      <use xlink:href="#DejaVuSans-6f" x="559.333984"/>
      <use xlink:href="#DejaVuSans-6e" x="620.515625"/>
     </g>
    </g>
    <g id="line2d_23">
     <path d="M 349.51 180.398438 
L 359.51 180.398438 
L 369.51 180.398438 
" style="fill: none; stroke: #8c564b; stroke-width: 1.5; stroke-linecap: square"/>
    </g>
    <g id="text_15">
     <!-- No.5 iteration -->
     <g transform="translate(377.51 183.898438)scale(0.1 -0.1)">
      <use xlink:href="#DejaVuSans-4e"/>
      <use xlink:href="#DejaVuSans-6f" x="74.804688"/>
      <use xlink:href="#DejaVuSans-2e" x="134.236328"/>
      <use xlink:href="#DejaVuSans-35" x="166.023438"/>
      <use xlink:href="#DejaVuSans-20" x="229.646484"/>
      <use xlink:href="#DejaVuSans-69" x="261.433594"/>
      <use xlink:href="#DejaVuSans-74" x="289.216797"/>
      <use xlink:href="#DejaVuSans-65" x="328.425781"/>
      <use xlink:href="#DejaVuSans-72" x="389.949219"/>
      <use xlink:href="#DejaVuSans-61" x="431.0625"/>
      <use xlink:href="#DejaVuSans-74" x="492.341797"/>
      <use xlink:href="#DejaVuSans-69" x="531.550781"/>
      <use xlink:href="#DejaVuSans-6f" x="559.333984"/>
      <use xlink:href="#DejaVuSans-6e" x="620.515625"/>
     </g>
    </g>
    <g id="line2d_24">
     <path d="M 349.51 195.076563 
L 359.51 195.076563 
L 369.51 195.076563 
" style="fill: none; stroke: #e377c2; stroke-width: 1.5; stroke-linecap: square"/>
    </g>
    <g id="text_16">
     <!-- No.6 iteration -->
     <g transform="translate(377.51 198.576563)scale(0.1 -0.1)">
      <use xlink:href="#DejaVuSans-4e"/>
      <use xlink:href="#DejaVuSans-6f" x="74.804688"/>
      <use xlink:href="#DejaVuSans-2e" x="134.236328"/>
      <use xlink:href="#DejaVuSans-36" x="166.023438"/>
      <use xlink:href="#DejaVuSans-20" x="229.646484"/>
      <use xlink:href="#DejaVuSans-69" x="261.433594"/>
      <use xlink:href="#DejaVuSans-74" x="289.216797"/>
      <use xlink:href="#DejaVuSans-65" x="328.425781"/>
      <use xlink:href="#DejaVuSans-72" x="389.949219"/>
      <use xlink:href="#DejaVuSans-61" x="431.0625"/>
      <use xlink:href="#DejaVuSans-74" x="492.341797"/>
      <use xlink:href="#DejaVuSans-69" x="531.550781"/>
      <use xlink:href="#DejaVuSans-6f" x="559.333984"/>
      <use xlink:href="#DejaVuSans-6e" x="620.515625"/>
     </g>
    </g>
    <g id="line2d_25">
     <path d="M 349.51 209.754687 
L 359.51 209.754687 
L 369.51 209.754687 
" style="fill: none; stroke: #7f7f7f; stroke-width: 1.5; stroke-linecap: square"/>
    </g>
    <g id="text_17">
     <!-- No.7 iteration -->
     <g transform="translate(377.51 213.254687)scale(0.1 -0.1)">
      <use xlink:href="#DejaVuSans-4e"/>
      <use xlink:href="#DejaVuSans-6f" x="74.804688"/>
      <use xlink:href="#DejaVuSans-2e" x="134.236328"/>
      <use xlink:href="#DejaVuSans-37" x="166.023438"/>
      <use xlink:href="#DejaVuSans-20" x="229.646484"/>
      <use xlink:href="#DejaVuSans-69" x="261.433594"/>
      <use xlink:href="#DejaVuSans-74" x="289.216797"/>
      <use xlink:href="#DejaVuSans-65" x="328.425781"/>
      <use xlink:href="#DejaVuSans-72" x="389.949219"/>
      <use xlink:href="#DejaVuSans-61" x="431.0625"/>
      <use xlink:href="#DejaVuSans-74" x="492.341797"/>
      <use xlink:href="#DejaVuSans-69" x="531.550781"/>
      <use xlink:href="#DejaVuSans-6f" x="559.333984"/>
      <use xlink:href="#DejaVuSans-6e" x="620.515625"/>
     </g>
    </g>
    <g id="line2d_26">
     <path d="M 349.51 224.432813 
L 359.51 224.432813 
L 369.51 224.432813 
" style="fill: none; stroke: #bcbd22; stroke-width: 1.5; stroke-linecap: square"/>
    </g>
    <g id="text_18">
     <!-- No.8 iteration -->
     <g transform="translate(377.51 227.932813)scale(0.1 -0.1)">
      <use xlink:href="#DejaVuSans-4e"/>
      <use xlink:href="#DejaVuSans-6f" x="74.804688"/>
      <use xlink:href="#DejaVuSans-2e" x="134.236328"/>
      <use xlink:href="#DejaVuSans-38" x="166.023438"/>
      <use xlink:href="#DejaVuSans-20" x="229.646484"/>
      <use xlink:href="#DejaVuSans-69" x="261.433594"/>
      <use xlink:href="#DejaVuSans-74" x="289.216797"/>
      <use xlink:href="#DejaVuSans-65" x="328.425781"/>
      <use xlink:href="#DejaVuSans-72" x="389.949219"/>
      <use xlink:href="#DejaVuSans-61" x="431.0625"/>
      <use xlink:href="#DejaVuSans-74" x="492.341797"/>
      <use xlink:href="#DejaVuSans-69" x="531.550781"/>
      <use xlink:href="#DejaVuSans-6f" x="559.333984"/>
      <use xlink:href="#DejaVuSans-6e" x="620.515625"/>
     </g>
    </g>
    <g id="line2d_27">
     <path d="M 349.51 239.110937 
L 359.51 239.110937 
L 369.51 239.110937 
" style="fill: none; stroke: #17becf; stroke-width: 1.5; stroke-linecap: square"/>
    </g>
    <g id="text_19">
     <!-- No.9 iteration -->
     <g transform="translate(377.51 242.610937)scale(0.1 -0.1)">
      <defs>
       <path id="DejaVuSans-39" d="M 703 97 
L 703 672 
Q 941 559 1184 500 
Q 1428 441 1663 441 
Q 2288 441 2617 861 
Q 2947 1281 2994 2138 
Q 2813 1869 2534 1725 
Q 2256 1581 1919 1581 
Q 1219 1581 811 2004 
Q 403 2428 403 3163 
Q 403 3881 828 4315 
Q 1253 4750 1959 4750 
Q 2769 4750 3195 4129 
Q 3622 3509 3622 2328 
Q 3622 1225 3098 567 
Q 2575 -91 1691 -91 
Q 1453 -91 1209 -44 
Q 966 3 703 97 
z
M 1959 2075 
Q 2384 2075 2632 2365 
Q 2881 2656 2881 3163 
Q 2881 3666 2632 3958 
Q 2384 4250 1959 4250 
Q 1534 4250 1286 3958 
Q 1038 3666 1038 3163 
Q 1038 2656 1286 2365 
Q 1534 2075 1959 2075 
z
" transform="scale(0.015625)"/>
      </defs>
      <use xlink:href="#DejaVuSans-4e"/>
      <use xlink:href="#DejaVuSans-6f" x="74.804688"/>
      <use xlink:href="#DejaVuSans-2e" x="134.236328"/>
      <use xlink:href="#DejaVuSans-39" x="166.023438"/>
      <use xlink:href="#DejaVuSans-20" x="229.646484"/>
      <use xlink:href="#DejaVuSans-69" x="261.433594"/>
      <use xlink:href="#DejaVuSans-74" x="289.216797"/>
      <use xlink:href="#DejaVuSans-65" x="328.425781"/>
      <use xlink:href="#DejaVuSans-72" x="389.949219"/>
      <use xlink:href="#DejaVuSans-61" x="431.0625"/>
      <use xlink:href="#DejaVuSans-74" x="492.341797"/>
      <use xlink:href="#DejaVuSans-69" x="531.550781"/>
      <use xlink:href="#DejaVuSans-6f" x="559.333984"/>
      <use xlink:href="#DejaVuSans-6e" x="620.515625"/>
     </g>
    </g>
   </g>
  </g>
 </g>
 <defs>
  <clipPath id="p9df6d8d9f4">
   <rect x="39.94" y="26.88" width="300.57" height="293.84"/>
  </clipPath>
 </defs>
</svg>
