<?xml version="1.0" encoding="utf-8" standalone="no"?>
<!DOCTYPE svg PUBLIC "-//W3C//DTD SVG 1.1//EN"
        "http://www.w3.org/Graphics/SVG/1.1/DTD/svg11.dtd">
<svg xmlns:xlink="http://www.w3.org/1999/xlink" width="460.8pt" height="345.6pt" viewBox="0 0 460.8 345.6"
     xmlns="http://www.w3.org/2000/svg" version="1.1">
 <metadata>
  <rdf:RDF xmlns:dc="http://purl.org/dc/elements/1.1/" xmlns:cc="http://creativecommons.org/ns#"
           xmlns:rdf="http://www.w3.org/1999/02/22-rdf-syntax-ns#">
   <cc:Work>
    <dc:type rdf:resource="http://purl.org/dc/dcmitype/StillImage"/>
    <dc:date>2022-04-07T19:13:45.948986</dc:date>
    <dc:format>image/svg+xml</dc:format>
    <dc:creator>
     <cc:Agent>
      <dc:title>Matplotlib v3.5.1, https://matplotlib.org/</dc:title>
     </cc:Agent>
    </dc:creator>
   </cc:Work>
  </rdf:RDF>
 </metadata>
 <defs>
  <style type="text/css">*{stroke-linejoin: round; stroke-linecap: butt}</style>
 </defs>
 <g id="figure_1">
  <g id="patch_1">
   <path d="M 0 345.6 
L 460.8 345.6 
L 460.8 0 
L 0 0 
z
" style="fill: #ffffff"/>
  </g>
  <g id="axes_1">
   <g id="patch_2">
    <path d="M 33.64 320.72 
L 340.51 320.72 
L 340.51 26.88 
L 33.64 26.88 
z
" style="fill: #ffffff"/>
   </g>
   <g id="matplotlib.axis_1">
    <g id="text_1">
     <!-- Iterations -->
     <g transform="translate(163.261719 332.318437)scale(0.1 -0.1)">
      <defs>
       <path id="DejaVuSans-49" d="M 628 4666 
L 1259 4666 
L 1259 0 
L 628 0 
L 628 4666 
z
" transform="scale(0.015625)"/>
       <path id="DejaVuSans-74" d="M 1172 4494 
L 1172 3500 
L 2356 3500 
L 2356 3053 
L 1172 3053 
L 1172 1153 
Q 1172 725 1289 603 
Q 1406 481 1766 481 
L 2356 481 
L 2356 0 
L 1766 0 
Q 1100 0 847 248 
Q 594 497 594 1153 
L 594 3053 
L 172 3053 
L 172 3500 
L 594 3500 
L 594 4494 
L 1172 4494 
z
" transform="scale(0.015625)"/>
       <path id="DejaVuSans-65" d="M 3597 1894 
L 3597 1613 
L 953 1613 
Q 991 1019 1311 708 
Q 1631 397 2203 397 
Q 2534 397 2845 478 
Q 3156 559 3463 722 
L 3463 178 
Q 3153 47 2828 -22 
Q 2503 -91 2169 -91 
Q 1331 -91 842 396 
Q 353 884 353 1716 
Q 353 2575 817 3079 
Q 1281 3584 2069 3584 
Q 2775 3584 3186 3129 
Q 3597 2675 3597 1894 
z
M 3022 2063 
Q 3016 2534 2758 2815 
Q 2500 3097 2075 3097 
Q 1594 3097 1305 2825 
Q 1016 2553 972 2059 
L 3022 2063 
z
" transform="scale(0.015625)"/>
       <path id="DejaVuSans-72" d="M 2631 2963 
Q 2534 3019 2420 3045 
Q 2306 3072 2169 3072 
Q 1681 3072 1420 2755 
Q 1159 2438 1159 1844 
L 1159 0 
L 581 0 
L 581 3500 
L 1159 3500 
L 1159 2956 
Q 1341 3275 1631 3429 
Q 1922 3584 2338 3584 
Q 2397 3584 2469 3576 
Q 2541 3569 2628 3553 
L 2631 2963 
z
" transform="scale(0.015625)"/>
       <path id="DejaVuSans-61" d="M 2194 1759 
Q 1497 1759 1228 1600 
Q 959 1441 959 1056 
Q 959 750 1161 570 
Q 1363 391 1709 391 
Q 2188 391 2477 730 
Q 2766 1069 2766 1631 
L 2766 1759 
L 2194 1759 
z
M 3341 1997 
L 3341 0 
L 2766 0 
L 2766 531 
Q 2569 213 2275 61 
Q 1981 -91 1556 -91 
Q 1019 -91 701 211 
Q 384 513 384 1019 
Q 384 1609 779 1909 
Q 1175 2209 1959 2209 
L 2766 2209 
L 2766 2266 
Q 2766 2663 2505 2880 
Q 2244 3097 1772 3097 
Q 1472 3097 1187 3025 
Q 903 2953 641 2809 
L 641 3341 
Q 956 3463 1253 3523 
Q 1550 3584 1831 3584 
Q 2591 3584 2966 3190 
Q 3341 2797 3341 1997 
z
" transform="scale(0.015625)"/>
       <path id="DejaVuSans-69" d="M 603 3500 
L 1178 3500 
L 1178 0 
L 603 0 
L 603 3500 
z
M 603 4863 
L 1178 4863 
L 1178 4134 
L 603 4134 
L 603 4863 
z
" transform="scale(0.015625)"/>
       <path id="DejaVuSans-6f" d="M 1959 3097 
Q 1497 3097 1228 2736 
Q 959 2375 959 1747 
Q 959 1119 1226 758 
Q 1494 397 1959 397 
Q 2419 397 2687 759 
Q 2956 1122 2956 1747 
Q 2956 2369 2687 2733 
Q 2419 3097 1959 3097 
z
M 1959 3584 
Q 2709 3584 3137 3096 
Q 3566 2609 3566 1747 
Q 3566 888 3137 398 
Q 2709 -91 1959 -91 
Q 1206 -91 779 398 
Q 353 888 353 1747 
Q 353 2609 779 3096 
Q 1206 3584 1959 3584 
z
" transform="scale(0.015625)"/>
       <path id="DejaVuSans-6e" d="M 3513 2113 
L 3513 0 
L 2938 0 
L 2938 2094 
Q 2938 2591 2744 2837 
Q 2550 3084 2163 3084 
Q 1697 3084 1428 2787 
Q 1159 2491 1159 1978 
L 1159 0 
L 581 0 
L 581 3500 
L 1159 3500 
L 1159 2956 
Q 1366 3272 1645 3428 
Q 1925 3584 2291 3584 
Q 2894 3584 3203 3211 
Q 3513 2838 3513 2113 
z
" transform="scale(0.015625)"/>
       <path id="DejaVuSans-73" d="M 2834 3397 
L 2834 2853 
Q 2591 2978 2328 3040 
Q 2066 3103 1784 3103 
Q 1356 3103 1142 2972 
Q 928 2841 928 2578 
Q 928 2378 1081 2264 
Q 1234 2150 1697 2047 
L 1894 2003 
Q 2506 1872 2764 1633 
Q 3022 1394 3022 966 
Q 3022 478 2636 193 
Q 2250 -91 1575 -91 
Q 1294 -91 989 -36 
Q 684 19 347 128 
L 347 722 
Q 666 556 975 473 
Q 1284 391 1588 391 
Q 1994 391 2212 530 
Q 2431 669 2431 922 
Q 2431 1156 2273 1281 
Q 2116 1406 1581 1522 
L 1381 1569 
Q 847 1681 609 1914 
Q 372 2147 372 2553 
Q 372 3047 722 3315 
Q 1072 3584 1716 3584 
Q 2034 3584 2315 3537 
Q 2597 3491 2834 3397 
z
" transform="scale(0.015625)"/>
      </defs>
      <use xlink:href="#DejaVuSans-49"/>
      <use xlink:href="#DejaVuSans-74" x="29.492188"/>
      <use xlink:href="#DejaVuSans-65" x="68.701172"/>
      <use xlink:href="#DejaVuSans-72" x="130.224609"/>
      <use xlink:href="#DejaVuSans-61" x="171.337891"/>
      <use xlink:href="#DejaVuSans-74" x="232.617188"/>
      <use xlink:href="#DejaVuSans-69" x="271.826172"/>
      <use xlink:href="#DejaVuSans-6f" x="299.609375"/>
      <use xlink:href="#DejaVuSans-6e" x="360.791016"/>
      <use xlink:href="#DejaVuSans-73" x="424.169922"/>
     </g>
    </g>
   </g>
   <g id="matplotlib.axis_2">
    <g id="ytick_1">
     <g id="line2d_1">
      <defs>
       <path id="m6e8bba6400" d="M 0 0 
L -3.5 0 
" style="stroke: #000000; stroke-width: 0.8"/>
      </defs>
      <g>
       <use xlink:href="#m6e8bba6400" x="33.64" y="312.483692" style="stroke: #000000; stroke-width: 0.8"/>
      </g>
     </g>
     <g id="text_2">
      <!-- 0.4 -->
      <g transform="translate(10.736875 316.28291)scale(0.1 -0.1)">
       <defs>
        <path id="DejaVuSans-30" d="M 2034 4250 
Q 1547 4250 1301 3770 
Q 1056 3291 1056 2328 
Q 1056 1369 1301 889 
Q 1547 409 2034 409 
Q 2525 409 2770 889 
Q 3016 1369 3016 2328 
Q 3016 3291 2770 3770 
Q 2525 4250 2034 4250 
z
M 2034 4750 
Q 2819 4750 3233 4129 
Q 3647 3509 3647 2328 
Q 3647 1150 3233 529 
Q 2819 -91 2034 -91 
Q 1250 -91 836 529 
Q 422 1150 422 2328 
Q 422 3509 836 4129 
Q 1250 4750 2034 4750 
z
" transform="scale(0.015625)"/>
        <path id="DejaVuSans-2e" d="M 684 794 
L 1344 794 
L 1344 0 
L 684 0 
L 684 794 
z
" transform="scale(0.015625)"/>
        <path id="DejaVuSans-34" d="M 2419 4116 
L 825 1625 
L 2419 1625 
L 2419 4116 
z
M 2253 4666 
L 3047 4666 
L 3047 1625 
L 3713 1625 
L 3713 1100 
L 3047 1100 
L 3047 0 
L 2419 0 
L 2419 1100 
L 313 1100 
L 313 1709 
L 2253 4666 
z
" transform="scale(0.015625)"/>
       </defs>
       <use xlink:href="#DejaVuSans-30"/>
       <use xlink:href="#DejaVuSans-2e" x="63.623047"/>
       <use xlink:href="#DejaVuSans-34" x="95.410156"/>
      </g>
     </g>
    </g>
    <g id="ytick_2">
     <g id="line2d_2">
      <g>
       <use xlink:href="#m6e8bba6400" x="33.64" y="258.658597" style="stroke: #000000; stroke-width: 0.8"/>
      </g>
     </g>
     <g id="text_3">
      <!-- 0.5 -->
      <g transform="translate(10.736875 262.457816)scale(0.1 -0.1)">
       <defs>
        <path id="DejaVuSans-35" d="M 691 4666 
L 3169 4666 
L 3169 4134 
L 1269 4134 
L 1269 2991 
Q 1406 3038 1543 3061 
Q 1681 3084 1819 3084 
Q 2600 3084 3056 2656 
Q 3513 2228 3513 1497 
Q 3513 744 3044 326 
Q 2575 -91 1722 -91 
Q 1428 -91 1123 -41 
Q 819 9 494 109 
L 494 744 
Q 775 591 1075 516 
Q 1375 441 1709 441 
Q 2250 441 2565 725 
Q 2881 1009 2881 1497 
Q 2881 1984 2565 2268 
Q 2250 2553 1709 2553 
Q 1456 2553 1204 2497 
Q 953 2441 691 2322 
L 691 4666 
z
" transform="scale(0.015625)"/>
       </defs>
       <use xlink:href="#DejaVuSans-30"/>
       <use xlink:href="#DejaVuSans-2e" x="63.623047"/>
       <use xlink:href="#DejaVuSans-35" x="95.410156"/>
      </g>
     </g>
    </g>
    <g id="ytick_3">
     <g id="line2d_3">
      <g>
       <use xlink:href="#m6e8bba6400" x="33.64" y="204.833503" style="stroke: #000000; stroke-width: 0.8"/>
      </g>
     </g>
     <g id="text_4">
      <!-- 0.6 -->
      <g transform="translate(10.736875 208.632721)scale(0.1 -0.1)">
       <defs>
        <path id="DejaVuSans-36" d="M 2113 2584 
Q 1688 2584 1439 2293 
Q 1191 2003 1191 1497 
Q 1191 994 1439 701 
Q 1688 409 2113 409 
Q 2538 409 2786 701 
Q 3034 994 3034 1497 
Q 3034 2003 2786 2293 
Q 2538 2584 2113 2584 
z
M 3366 4563 
L 3366 3988 
Q 3128 4100 2886 4159 
Q 2644 4219 2406 4219 
Q 1781 4219 1451 3797 
Q 1122 3375 1075 2522 
Q 1259 2794 1537 2939 
Q 1816 3084 2150 3084 
Q 2853 3084 3261 2657 
Q 3669 2231 3669 1497 
Q 3669 778 3244 343 
Q 2819 -91 2113 -91 
Q 1303 -91 875 529 
Q 447 1150 447 2328 
Q 447 3434 972 4092 
Q 1497 4750 2381 4750 
Q 2619 4750 2861 4703 
Q 3103 4656 3366 4563 
z
" transform="scale(0.015625)"/>
       </defs>
       <use xlink:href="#DejaVuSans-30"/>
       <use xlink:href="#DejaVuSans-2e" x="63.623047"/>
       <use xlink:href="#DejaVuSans-36" x="95.410156"/>
      </g>
     </g>
    </g>
    <g id="ytick_4">
     <g id="line2d_4">
      <g>
       <use xlink:href="#m6e8bba6400" x="33.64" y="151.008408" style="stroke: #000000; stroke-width: 0.8"/>
      </g>
     </g>
     <g id="text_5">
      <!-- 0.7 -->
      <g transform="translate(10.736875 154.807627)scale(0.1 -0.1)">
       <defs>
        <path id="DejaVuSans-37" d="M 525 4666 
L 3525 4666 
L 3525 4397 
L 1831 0 
L 1172 0 
L 2766 4134 
L 525 4134 
L 525 4666 
z
" transform="scale(0.015625)"/>
       </defs>
       <use xlink:href="#DejaVuSans-30"/>
       <use xlink:href="#DejaVuSans-2e" x="63.623047"/>
       <use xlink:href="#DejaVuSans-37" x="95.410156"/>
      </g>
     </g>
    </g>
    <g id="ytick_5">
     <g id="line2d_5">
      <g>
       <use xlink:href="#m6e8bba6400" x="33.64" y="97.183314" style="stroke: #000000; stroke-width: 0.8"/>
      </g>
     </g>
     <g id="text_6">
      <!-- 0.8 -->
      <g transform="translate(10.736875 100.982532)scale(0.1 -0.1)">
       <defs>
        <path id="DejaVuSans-38" d="M 2034 2216 
Q 1584 2216 1326 1975 
Q 1069 1734 1069 1313 
Q 1069 891 1326 650 
Q 1584 409 2034 409 
Q 2484 409 2743 651 
Q 3003 894 3003 1313 
Q 3003 1734 2745 1975 
Q 2488 2216 2034 2216 
z
M 1403 2484 
Q 997 2584 770 2862 
Q 544 3141 544 3541 
Q 544 4100 942 4425 
Q 1341 4750 2034 4750 
Q 2731 4750 3128 4425 
Q 3525 4100 3525 3541 
Q 3525 3141 3298 2862 
Q 3072 2584 2669 2484 
Q 3125 2378 3379 2068 
Q 3634 1759 3634 1313 
Q 3634 634 3220 271 
Q 2806 -91 2034 -91 
Q 1263 -91 848 271 
Q 434 634 434 1313 
Q 434 1759 690 2068 
Q 947 2378 1403 2484 
z
M 1172 3481 
Q 1172 3119 1398 2916 
Q 1625 2713 2034 2713 
Q 2441 2713 2670 2916 
Q 2900 3119 2900 3481 
Q 2900 3844 2670 4047 
Q 2441 4250 2034 4250 
Q 1625 4250 1398 4047 
Q 1172 3844 1172 3481 
z
" transform="scale(0.015625)"/>
       </defs>
       <use xlink:href="#DejaVuSans-30"/>
       <use xlink:href="#DejaVuSans-2e" x="63.623047"/>
       <use xlink:href="#DejaVuSans-38" x="95.410156"/>
      </g>
     </g>
    </g>
    <g id="ytick_6">
     <g id="line2d_6">
      <g>
       <use xlink:href="#m6e8bba6400" x="33.64" y="43.358219" style="stroke: #000000; stroke-width: 0.8"/>
      </g>
     </g>
     <g id="text_7">
      <!-- 0.9 -->
      <g transform="translate(10.736875 47.157438)scale(0.1 -0.1)">
       <defs>
        <path id="DejaVuSans-39" d="M 703 97 
L 703 672 
Q 941 559 1184 500 
Q 1428 441 1663 441 
Q 2288 441 2617 861 
Q 2947 1281 2994 2138 
Q 2813 1869 2534 1725 
Q 2256 1581 1919 1581 
Q 1219 1581 811 2004 
Q 403 2428 403 3163 
Q 403 3881 828 4315 
Q 1253 4750 1959 4750 
Q 2769 4750 3195 4129 
Q 3622 3509 3622 2328 
Q 3622 1225 3098 567 
Q 2575 -91 1691 -91 
Q 1453 -91 1209 -44 
Q 966 3 703 97 
z
M 1959 2075 
Q 2384 2075 2632 2365 
Q 2881 2656 2881 3163 
Q 2881 3666 2632 3958 
Q 2384 4250 1959 4250 
Q 1534 4250 1286 3958 
Q 1038 3666 1038 3163 
Q 1038 2656 1286 2365 
Q 1534 2075 1959 2075 
z
" transform="scale(0.015625)"/>
       </defs>
       <use xlink:href="#DejaVuSans-30"/>
       <use xlink:href="#DejaVuSans-2e" x="63.623047"/>
       <use xlink:href="#DejaVuSans-39" x="95.410156"/>
      </g>
     </g>
    </g>
   </g>
   <g id="line2d_7">
    <path d="M 47.588636 40.236364 
L 48.027318 104.578966 
L 48.465999 137.520952 
L 48.816944 147.62291 
L 48.992416 148.921558 
L 49.080153 148.897667 
L 49.255625 147.881834 
L 50.045252 140.878074 
L 50.30846 140.257078 
L 50.483933 140.337379 
L 50.659405 140.78416 
L 51.01035 142.533577 
L 51.71224 146.209952 
L 51.975449 146.607459 
L 52.150922 146.597129 
L 52.589603 146.182451 
L 52.852812 146.044865 
L 53.203757 146.149636 
L 55.309427 147.447284 
L 56.713207 148.089763 
L 57.590569 148.256951 
L 58.906613 148.431751 
L 59.871712 148.911201 
L 60.485866 148.750271 
L 60.836811 148.751648 
L 61.275492 149.044564 
L 61.80191 149.386504 
L 62.152855 149.342128 
L 62.591536 149.281199 
L 62.854745 149.492668 
L 63.644371 150.572076 
L 63.819844 150.245096 
L 64.083052 148.965948 
L 64.784942 144.870641 
L 64.960415 144.831831 
L 65.135887 145.438771 
L 65.574569 148.450066 
L 66.01325 150.914587 
L 66.188723 151.188335 
L 66.364195 151.14036 
L 66.71514 150.554942 
L 67.066085 150.097662 
L 67.329294 150.119209 
L 68.11892 150.520218 
L 69.084019 150.25189 
L 69.5227 150.677576 
L 69.961382 151.053266 
L 70.22459 151.052635 
L 71.189689 150.722276 
L 71.716107 151.083093 
L 72.154788 151.318306 
L 72.681205 151.300897 
L 73.295359 151.326234 
L 74.172722 151.473779 
L 75.225557 151.263867 
L 75.839711 151.660272 
L 76.366128 151.902651 
L 77.243491 151.92886 
L 78.20859 152.103451 
L 79.173688 152.245272 
L 80.577468 152.232532 
L 81.981249 152.615569 
L 83.209556 152.569781 
L 84.086919 152.63906 
L 85.402962 152.864772 
L 86.63127 152.589167 
L 87.420896 152.894472 
L 88.473731 153.24459 
L 91.105819 153.521912 
L 91.369028 153.484362 
L 91.369028 153.484362 
" clip-path="url(#p11c358dc87)" style="fill: none; stroke: #1f77b4; stroke-width: 1.5; stroke-linecap: square"/>
   </g>
   <g id="line2d_8">
    <path d="M 92.387177 153.645838 
L 93.352275 153.803134 
L 95.019264 154.041428 
L 95.633418 154.057005 
L 96.861726 153.959577 
L 97.651352 154.265911 
L 98.353242 154.505599 
L 98.791923 154.44247 
L 99.493813 154.288926 
L 99.932494 154.471042 
L 100.809857 154.903504 
L 101.862692 155.118259 
L 102.915527 155.564718 
L 103.880626 155.808715 
L 105.89856 156.899905 
L 106.512714 157.342525 
L 106.863659 157.298787 
L 107.741021 156.948889 
L 108.179703 157.266378 
L 108.70612 157.636667 
L 109.057065 157.607178 
L 109.671219 157.512659 
L 110.022164 157.771682 
L 111.51368 159.391398 
L 111.864625 159.369805 
L 112.566515 159.148094 
L 112.829724 159.323528 
L 113.356142 160.169998 
L 113.707087 160.610898 
L 113.970295 160.631378 
L 114.32124 160.34398 
L 114.759922 160.002693 
L 115.02313 160.058821 
L 115.374075 160.425271 
L 116.690119 162.114228 
L 117.392009 162.473649 
L 117.742954 162.771967 
L 118.181636 163.535416 
L 118.795789 164.667736 
L 119.146734 164.861856 
L 119.848624 164.926121 
L 120.19957 165.384612 
L 120.90146 166.405704 
L 121.164668 166.418635 
L 121.866558 166.258939 
L 122.129767 166.593106 
L 122.656185 167.843536 
L 123.182602 168.954159 
L 124.586382 171.210306 
L 125.200536 173.018393 
L 125.990162 175.291228 
L 126.428844 175.838503 
L 127.042997 176.476268 
L 127.481679 177.443167 
L 129.236404 182.327497 
L 131.254338 190.302943 
L 132.394909 193.506493 
L 136.167568 207.147982 
L 136.167568 207.147982 
" clip-path="url(#p11c358dc87)" style="fill: none; stroke: #ff7f0e; stroke-width: 1.5; stroke-linecap: square"/>
   </g>
   <g id="line2d_9">
    <path d="M 137.185717 153.914963 
L 137.838638 156.12075 
L 138.450751 157.445299 
L 139.062864 158.274675 
L 140.572744 160.002046 
L 141.062435 161.164115 
L 141.674548 163.275698 
L 142.205047 164.832485 
L 142.4907 165.130738 
L 142.898775 165.142355 
L 143.143621 165.237881 
L 143.388466 165.628486 
L 143.796541 166.929526 
L 144.408655 168.802764 
L 144.775923 169.204187 
L 145.306421 169.647564 
L 145.632882 170.371691 
L 146.081765 172.025139 
L 146.857109 175.970353 
L 147.428414 178.376296 
L 147.83649 179.19275 
L 148.938294 180.776032 
L 149.713638 182.744552 
L 151.631593 188.322805 
L 153.223088 195.188476 
L 154.488122 198.987237 
L 155.059428 202.74128 
L 155.549119 205.269862 
L 155.793964 205.679541 
L 155.998002 205.687175 
L 156.650923 205.424685 
L 156.854961 205.780239 
L 157.099806 206.826113 
L 157.385459 209.216406 
L 157.548689 211.292514 
L 157.548689 211.292514 
" clip-path="url(#p11c358dc87)" style="fill: none; stroke: #2ca02c; stroke-width: 1.5; stroke-linecap: square"/>
   </g>
   <g id="line2d_10">
    <path d="M 158.566838 157.521245 
L 158.970833 158.947495 
L 159.329939 159.460332 
L 159.689046 159.57762 
L 160.272594 159.703865 
L 160.541924 160.038234 
L 160.856142 160.853507 
L 161.349914 162.93806 
L 162.965893 170.480728 
L 163.369888 171.097621 
L 163.728995 171.255699 
L 164.177878 171.36443 
L 164.402319 171.687477 
L 164.671649 172.573505 
L 165.075644 175.015514 
L 165.614304 177.998434 
L 165.838745 178.293579 
L 166.018299 178.086732 
L 166.691623 176.933245 
L 166.826288 177.167004 
L 167.095618 178.267951 
L 169.384922 190.102942 
L 169.744029 191.192539 
L 169.923582 191.219267 
L 170.192912 190.857431 
L 170.462242 190.583355 
L 170.596907 190.679703 
L 170.77646 191.23038 
L 171.04579 193.121479 
L 171.85378 199.492985 
L 172.033333 199.626503 
L 172.212886 199.351798 
L 172.616881 198.63053 
L 172.751546 198.760716 
L 172.931099 199.513799 
L 173.290206 202.476064 
L 173.783977 206.049523 
L 173.918642 206.223418 
L 174.053307 205.983883 
L 174.681744 203.942313 
L 174.726632 203.998344 
L 174.861297 204.535983 
L 175.085739 206.737642 
L 175.983505 217.472319 
L 176.073282 217.543201 
L 176.11817 217.499267 
L 176.297723 216.926182 
L 176.92616 214.421671 
L 177.060825 214.721393 
L 177.285266 216.029507 
L 177.734149 220.472372 
L 178.542139 228.342142 
L 179.080799 231.710516 
L 179.529682 233.292695 
L 179.933677 233.99176 
L 180.292783 234.21599 
L 180.741667 234.208015 
L 180.966108 234.168179 
L 180.966108 234.168179 
" clip-path="url(#p11c358dc87)" style="fill: none; stroke: #d62728; stroke-width: 1.5; stroke-linecap: square"/>
   </g>
   <g id="line2d_11">
    <path d="M 181.984257 154.237914 
L 182.449463 160.676806 
L 182.875902 163.838211 
L 183.263574 165.225429 
L 183.72878 166.011968 
L 184.116452 166.734115 
L 184.581658 168.243904 
L 185.628372 172.691273 
L 186.364948 176.631064 
L 187.101525 180.326547 
L 187.527964 181.371983 
L 188.031937 182.594637 
L 188.419609 184.378527 
L 189.194953 188.008552 
L 189.660159 188.840751 
L 189.931529 189.558659 
L 190.2029 191.001798 
L 190.668106 195.197559 
L 191.288381 200.367441 
L 191.676052 201.852567 
L 192.412629 204.121669 
L 193.304274 207.526258 
L 193.924549 208.911302 
L 194.195919 210.490421 
L 194.583591 214.525114 
L 195.2814 221.815907 
L 195.591538 223.007174 
L 195.901675 223.402588 
L 196.173046 223.778032 
L 196.405649 224.552957 
L 196.793321 226.811114 
L 199.507023 245.146861 
L 200.825108 251.501602 
L 201.290314 255.406284 
L 201.329081 255.805867 
L 201.329081 255.805867 
" clip-path="url(#p11c358dc87)" style="fill: none; stroke: #9467bd; stroke-width: 1.5; stroke-linecap: square"/>
   </g>
   <g id="line2d_12">
    <path d="M 202.34723 154.668515 
L 202.83692 160.638508 
L 203.285803 163.665335 
L 203.775494 165.468852 
L 204.51003 167.9155 
L 205.69345 172.970898 
L 206.754446 175.424711 
L 207.774635 179.629028 
L 208.549979 183.286498 
L 209.447745 187.857898 
L 209.774206 188.44495 
L 210.263896 189.077269 
L 210.508742 189.949116 
L 210.87601 192.379463 
L 211.569738 196.995526 
L 211.855391 197.638658 
L 212.467505 198.441973 
L 212.71235 199.500102 
L 213.161233 202.723858 
L 214.22223 210.652619 
L 214.71192 212.76754 
L 215.691302 216.110178 
L 216.793106 221.797827 
L 217.527642 223.232391 
L 217.813295 224.956905 
L 218.955907 233.222707 
L 219.853673 235.985515 
L 220.343364 239.441346 
L 222.669395 257.616993 
L 222.710202 257.851221 
L 222.710202 257.851221 
" clip-path="url(#p11c358dc87)" style="fill: none; stroke: #8c564b; stroke-width: 1.5; stroke-linecap: square"/>
   </g>
   <g id="line2d_13">
    <path d="M 223.728351 160.4278 
L 223.850774 160.603717 
L 224.054812 161.37076 
L 224.42208 163.862599 
L 225.687114 173.44382 
L 225.891152 173.709089 
L 226.054382 173.583902 
L 226.544073 173.039579 
L 226.666495 173.213386 
L 226.829726 173.854106 
L 227.115379 176.094979 
L 228.013145 183.802104 
L 228.339605 184.617212 
L 228.706873 185.407459 
L 228.992526 186.77536 
L 229.523025 190.90178 
L 230.09433 194.801665 
L 230.543214 196.478933 
L 231.645018 199.763756 
L 232.012286 202.480624 
L 233.032475 211.216605 
L 233.318128 211.7874 
L 233.889434 212.417317 
L 234.175087 213.633595 
L 235.399313 219.859182 
L 235.766581 221.341321 
L 236.093042 223.726427 
L 237.113231 232.490594 
L 237.439691 233.11818 
L 237.725344 233.659358 
L 237.929382 234.566934 
L 238.215035 237.098733 
L 239.235224 247.49803 
L 239.520877 248.173039 
L 240.010568 248.892635 
L 240.255413 249.904621 
L 240.622681 252.470996 
L 241.193987 258.346252 
L 241.846908 264.644866 
L 242.091753 265.415586 
L 242.214176 265.298244 
L 242.418214 264.531364 
L 243.275173 260.568794 
L 243.397595 260.835464 
L 243.560826 261.864276 
L 243.805671 265.197797 
L 244.091324 272.491646 
L 244.091324 272.491646 
" clip-path="url(#p11c358dc87)" style="fill: none; stroke: #e377c2; stroke-width: 1.5; stroke-linecap: square"/>
   </g>
   <g id="line2d_14">
    <path d="M 245.109472 93.953808 
L 245.578759 138.894253 
L 246.001118 159.795409 
L 246.329619 167.006348 
L 246.611191 169.100979 
L 246.798905 169.279026 
L 247.221264 168.976305 
L 247.268192 169.041909 
L 247.502836 169.72388 
L 248.769911 174.479709 
L 249.098412 175.732076 
L 249.473841 178.335485 
L 250.130843 183.015384 
L 250.365486 183.490747 
L 250.506272 183.438151 
L 251.022488 183.010979 
L 251.163274 183.30588 
L 251.397918 184.623903 
L 251.867205 189.276728 
L 252.430349 194.160694 
L 252.805778 195.527267 
L 253.321994 196.387955 
L 253.83821 197.515997 
L 254.682926 199.968908 
L 255.105284 201.878823 
L 255.527643 204.914401 
L 256.607003 213.272429 
L 257.07629 214.918957 
L 257.639434 216.061846 
L 258.014864 216.442549 
L 258.249507 216.427982 
L 258.531079 216.108142 
L 258.812651 215.833262 
L 258.953437 215.915802 
L 259.141152 216.43818 
L 259.375796 218.027053 
L 259.751225 222.772051 
L 260.31437 229.505483 
L 260.502084 230.133962 
L 260.595942 230.079634 
L 260.783657 229.534383 
L 261.159086 228.4184 
L 261.252943 228.492618 
L 261.39373 229.118541 
L 261.628373 231.726082 
L 262.47309 242.719708 
L 262.566947 242.693901 
L 262.707733 242.107656 
L 263.130091 238.638774 
L 263.411663 237.292589 
L 263.505521 237.408839 
L 263.693236 238.525768 
L 264.068665 242.803168 
L 264.537952 247.579798 
L 264.772596 248.308475 
L 264.913382 248.302551 
L 265.101096 247.960587 
L 265.758098 246.541712 
L 265.898884 246.591628 
L 266.086599 246.946194 
L 266.321243 247.915424 
L 266.649743 250.390613 
L 267.916818 261.69789 
L 268.010676 261.782961 
L 268.057604 261.749082 
L 268.19839 261.31179 
L 268.386105 259.852229 
L 268.526891 258.012696 
L 268.526891 258.012696 
" clip-path="url(#p11c358dc87)" style="fill: none; stroke: #7f7f7f; stroke-width: 1.5; stroke-linecap: square"/>
   </g>
   <g id="line2d_15">
    <path d="M 269.54504 146.863876 
L 270.022488 160.47009 
L 270.446887 167.009288 
L 270.818236 169.830247 
L 271.189585 171.131364 
L 271.773133 172.785481 
L 272.46278 175.119061 
L 272.62193 175.228072 
L 272.781079 175.084626 
L 273.205478 174.556071 
L 273.311578 174.645309 
L 273.470727 175.136123 
L 273.682926 176.698651 
L 274.107325 182.293484 
L 274.531724 187.050335 
L 274.690873 187.573659 
L 274.796973 187.417751 
L 275.009172 186.279452 
L 275.53967 183.063581 
L 275.64577 183.119989 
L 275.80492 184.001639 
L 276.123219 187.769806 
L 276.706767 194.893631 
L 276.918966 195.587811 
L 277.025066 195.559385 
L 277.237265 195.040458 
L 277.714713 193.733121 
L 277.820813 193.788286 
L 278.033012 194.350353 
L 278.404361 196.270706 
L 279.253159 200.759304 
L 280.208055 205.262076 
L 280.685504 208.805848 
L 281.640401 216.916503 
L 281.7465 217.056477 
L 281.79955 217.014664 
L 281.9587 216.489978 
L 282.383098 213.697858 
L 282.701397 212.351694 
L 282.807497 212.417539 
L 282.966647 213.121869 
L 283.284946 215.98902 
L 283.921543 221.691964 
L 284.186793 222.351165 
L 284.717291 223.05057 
L 284.92949 224.115536 
L 285.353889 227.931781 
L 285.990487 233.605603 
L 286.361836 235.205898 
L 287.688081 239.330159 
L 288.21858 242.662976 
L 288.802128 246.005291 
L 289.067377 246.574106 
L 289.279576 246.618512 
L 289.703975 246.598748 
L 289.863124 246.856255 
L 290.128373 247.914331 
L 291.454619 254.6229 
L 291.772918 255.949237 
L 292.091217 258.413882 
L 292.993064 266.681801 
L 293.152214 266.93473 
L 293.258313 266.842332 
L 293.470513 266.188976 
L 294.478459 262.058261 
L 294.637609 262.029505 
L 294.796758 262.260207 
L 295.008958 263.013198 
L 295.327257 265.213488 
L 295.698605 269.635411 
L 296.016904 275.236726 
L 296.016904 275.236726 
" clip-path="url(#p11c358dc87)" style="fill: none; stroke: #bcbd22; stroke-width: 1.5; stroke-linecap: square"/>
   </g>
   <g id="line2d_16">
    <path d="M 297.035053 159.728073 
L 297.626763 166.81264 
L 298.10013 170.150837 
L 298.514327 171.675922 
L 298.810182 172.106034 
L 299.046866 172.12101 
L 299.638575 171.832241 
L 299.816088 172.174167 
L 300.052772 173.34219 
L 300.407798 176.909579 
L 301.11785 184.490644 
L 301.354533 185.193107 
L 301.532046 185.174987 
L 301.946243 184.817528 
L 302.064585 184.965267 
L 302.242098 185.64909 
L 302.597124 188.285106 
L 303.129662 192.180342 
L 303.366346 192.705678 
L 303.543859 192.663081 
L 304.017227 192.346855 
L 304.19474 192.721369 
L 304.490594 194.34867 
L 305.378159 200.221025 
L 306.324894 203.418947 
L 306.916604 208.502307 
L 307.389972 211.84187 
L 307.744997 213.046867 
L 308.100023 213.583713 
L 308.691733 214.288157 
L 308.987588 215.044307 
L 309.342613 216.704223 
L 310.407691 222.699964 
L 310.644375 222.895038 
L 310.9994 223.067397 
L 311.176913 223.446776 
L 311.413597 224.599736 
L 311.827794 228.170619 
L 312.597016 234.964795 
L 313.307068 238.704661 
L 314.549658 244.462045 
L 315.318881 246.882153 
L 315.792248 249.636202 
L 316.324787 252.417118 
L 316.561471 252.864829 
L 316.738984 252.879908 
L 317.449035 252.575806 
L 317.685719 253.116429 
L 317.981574 254.473994 
L 318.395771 257.655666 
L 319.57919 268.450909 
L 319.993387 269.395001 
L 320.230071 270.14584 
L 320.466754 271.702969 
L 320.940122 277.326594 
L 321.354319 280.997317 
L 321.472661 281.155518 
L 321.591003 280.769524 
L 321.886858 278.270382 
L 322.301054 274.929689 
L 322.419396 274.831961 
L 322.537738 275.398353 
L 322.774422 278.377922 
L 323.484474 289.088928 
L 323.602815 289.241713 
L 323.721157 288.722598 
L 324.017012 285.642565 
L 324.431209 281.380472 
L 324.549551 281.100327 
L 324.667893 281.483022 
L 324.904577 283.936612 
L 325.318773 291.73189 
L 326.028825 305.432017 
L 326.265509 307.277468 
L 326.32468 307.363636 
L 326.383851 307.276771 
L 326.502193 306.538033 
L 326.561364 305.863205 
L 326.561364 305.863205 
" clip-path="url(#p11c358dc87)" style="fill: none; stroke: #17becf; stroke-width: 1.5; stroke-linecap: square"/>
   </g>
   <g id="patch_3">
    <path d="M 33.64 320.72 
L 33.64 26.88 
" style="fill: none; stroke: #000000; stroke-width: 0.8; stroke-linejoin: miter; stroke-linecap: square"/>
   </g>
   <g id="patch_4">
    <path d="M 340.51 320.72 
L 340.51 26.88 
" style="fill: none; stroke: #000000; stroke-width: 0.8; stroke-linejoin: miter; stroke-linecap: square"/>
   </g>
   <g id="patch_5">
    <path d="M 33.64 320.72 
L 340.51 320.72 
" style="fill: none; stroke: #000000; stroke-width: 0.8; stroke-linejoin: miter; stroke-linecap: square"/>
   </g>
   <g id="patch_6">
    <path d="M 33.64 26.88 
L 340.51 26.88 
" style="fill: none; stroke: #000000; stroke-width: 0.8; stroke-linejoin: miter; stroke-linecap: square"/>
   </g>
   <g id="text_8">
    <!-- Train Loss Curve -->
    <g transform="translate(138.00625 20.88)scale(0.12 -0.12)">
     <defs>
      <path id="DejaVuSans-54" d="M -19 4666 
L 3928 4666 
L 3928 4134 
L 2272 4134 
L 2272 0 
L 1638 0 
L 1638 4134 
L -19 4134 
L -19 4666 
z
" transform="scale(0.015625)"/>
      <path id="DejaVuSans-20" transform="scale(0.015625)"/>
      <path id="DejaVuSans-4c" d="M 628 4666 
L 1259 4666 
L 1259 531 
L 3531 531 
L 3531 0 
L 628 0 
L 628 4666 
z
" transform="scale(0.015625)"/>
      <path id="DejaVuSans-43" d="M 4122 4306 
L 4122 3641 
Q 3803 3938 3442 4084 
Q 3081 4231 2675 4231 
Q 1875 4231 1450 3742 
Q 1025 3253 1025 2328 
Q 1025 1406 1450 917 
Q 1875 428 2675 428 
Q 3081 428 3442 575 
Q 3803 722 4122 1019 
L 4122 359 
Q 3791 134 3420 21 
Q 3050 -91 2638 -91 
Q 1578 -91 968 557 
Q 359 1206 359 2328 
Q 359 3453 968 4101 
Q 1578 4750 2638 4750 
Q 3056 4750 3426 4639 
Q 3797 4528 4122 4306 
z
" transform="scale(0.015625)"/>
      <path id="DejaVuSans-75" d="M 544 1381 
L 544 3500 
L 1119 3500 
L 1119 1403 
Q 1119 906 1312 657 
Q 1506 409 1894 409 
Q 2359 409 2629 706 
Q 2900 1003 2900 1516 
L 2900 3500 
L 3475 3500 
L 3475 0 
L 2900 0 
L 2900 538 
Q 2691 219 2414 64 
Q 2138 -91 1772 -91 
Q 1169 -91 856 284 
Q 544 659 544 1381 
z
M 1991 3584 
L 1991 3584 
z
" transform="scale(0.015625)"/>
      <path id="DejaVuSans-76" d="M 191 3500 
L 800 3500 
L 1894 563 
L 2988 3500 
L 3597 3500 
L 2284 0 
L 1503 0 
L 191 3500 
z
" transform="scale(0.015625)"/>
     </defs>
     <use xlink:href="#DejaVuSans-54"/>
     <use xlink:href="#DejaVuSans-72" x="46.333984"/>
     <use xlink:href="#DejaVuSans-61" x="87.447266"/>
     <use xlink:href="#DejaVuSans-69" x="148.726562"/>
     <use xlink:href="#DejaVuSans-6e" x="176.509766"/>
     <use xlink:href="#DejaVuSans-20" x="239.888672"/>
     <use xlink:href="#DejaVuSans-4c" x="271.675781"/>
     <use xlink:href="#DejaVuSans-6f" x="325.638672"/>
     <use xlink:href="#DejaVuSans-73" x="386.820312"/>
     <use xlink:href="#DejaVuSans-73" x="438.919922"/>
     <use xlink:href="#DejaVuSans-20" x="491.019531"/>
     <use xlink:href="#DejaVuSans-43" x="522.806641"/>
     <use xlink:href="#DejaVuSans-75" x="592.630859"/>
     <use xlink:href="#DejaVuSans-72" x="656.009766"/>
     <use xlink:href="#DejaVuSans-76" x="697.123047"/>
     <use xlink:href="#DejaVuSans-65" x="756.302734"/>
    </g>
   </g>
   <g id="legend_1">
    <g id="patch_7">
     <path d="M 349.51 250.690625 
L 449.899062 250.690625 
Q 451.899062 250.690625 451.899062 248.690625 
L 451.899062 102.909375 
Q 451.899062 100.909375 449.899062 100.909375 
L 349.51 100.909375 
Q 347.51 100.909375 347.51 102.909375 
L 347.51 248.690625 
Q 347.51 250.690625 349.51 250.690625 
z
" style="fill: #4c4c4c; opacity: 0.5; stroke: #4c4c4c; stroke-linejoin: miter"/>
    </g>
    <g id="patch_8">
     <path d="M 347.51 248.690625 
L 447.899062 248.690625 
Q 449.899062 248.690625 449.899062 246.690625 
L 449.899062 100.909375 
Q 449.899062 98.909375 447.899062 98.909375 
L 347.51 98.909375 
Q 345.51 98.909375 345.51 100.909375 
L 345.51 246.690625 
Q 345.51 248.690625 347.51 248.690625 
z
" style="fill: #ffffff; stroke: #cccccc; stroke-linejoin: miter"/>
    </g>
    <g id="line2d_17">
     <path d="M 349.51 107.007812 
L 359.51 107.007812 
L 369.51 107.007812 
" style="fill: none; stroke: #1f77b4; stroke-width: 1.5; stroke-linecap: square"/>
    </g>
    <g id="text_9">
     <!-- No.0 iteration -->
     <g transform="translate(377.51 110.507812)scale(0.1 -0.1)">
      <defs>
       <path id="DejaVuSans-4e" d="M 628 4666 
L 1478 4666 
L 3547 763 
L 3547 4666 
L 4159 4666 
L 4159 0 
L 3309 0 
L 1241 3903 
L 1241 0 
L 628 0 
L 628 4666 
z
" transform="scale(0.015625)"/>
      </defs>
      <use xlink:href="#DejaVuSans-4e"/>
      <use xlink:href="#DejaVuSans-6f" x="74.804688"/>
      <use xlink:href="#DejaVuSans-2e" x="134.236328"/>
      <use xlink:href="#DejaVuSans-30" x="166.023438"/>
      <use xlink:href="#DejaVuSans-20" x="229.646484"/>
      <use xlink:href="#DejaVuSans-69" x="261.433594"/>
      <use xlink:href="#DejaVuSans-74" x="289.216797"/>
      <use xlink:href="#DejaVuSans-65" x="328.425781"/>
      <use xlink:href="#DejaVuSans-72" x="389.949219"/>
      <use xlink:href="#DejaVuSans-61" x="431.0625"/>
      <use xlink:href="#DejaVuSans-74" x="492.341797"/>
      <use xlink:href="#DejaVuSans-69" x="531.550781"/>
      <use xlink:href="#DejaVuSans-6f" x="559.333984"/>
      <use xlink:href="#DejaVuSans-6e" x="620.515625"/>
     </g>
    </g>
    <g id="line2d_18">
     <path d="M 349.51 121.685938 
L 359.51 121.685938 
L 369.51 121.685938 
" style="fill: none; stroke: #ff7f0e; stroke-width: 1.5; stroke-linecap: square"/>
    </g>
    <g id="text_10">
     <!-- No.1 iteration -->
     <g transform="translate(377.51 125.185938)scale(0.1 -0.1)">
      <defs>
       <path id="DejaVuSans-31" d="M 794 531 
L 1825 531 
L 1825 4091 
L 703 3866 
L 703 4441 
L 1819 4666 
L 2450 4666 
L 2450 531 
L 3481 531 
L 3481 0 
L 794 0 
L 794 531 
z
" transform="scale(0.015625)"/>
      </defs>
      <use xlink:href="#DejaVuSans-4e"/>
      <use xlink:href="#DejaVuSans-6f" x="74.804688"/>
      <use xlink:href="#DejaVuSans-2e" x="134.236328"/>
      <use xlink:href="#DejaVuSans-31" x="166.023438"/>
      <use xlink:href="#DejaVuSans-20" x="229.646484"/>
      <use xlink:href="#DejaVuSans-69" x="261.433594"/>
      <use xlink:href="#DejaVuSans-74" x="289.216797"/>
      <use xlink:href="#DejaVuSans-65" x="328.425781"/>
      <use xlink:href="#DejaVuSans-72" x="389.949219"/>
      <use xlink:href="#DejaVuSans-61" x="431.0625"/>
      <use xlink:href="#DejaVuSans-74" x="492.341797"/>
      <use xlink:href="#DejaVuSans-69" x="531.550781"/>
      <use xlink:href="#DejaVuSans-6f" x="559.333984"/>
      <use xlink:href="#DejaVuSans-6e" x="620.515625"/>
     </g>
    </g>
    <g id="line2d_19">
     <path d="M 349.51 136.364063 
L 359.51 136.364063 
L 369.51 136.364063 
" style="fill: none; stroke: #2ca02c; stroke-width: 1.5; stroke-linecap: square"/>
    </g>
    <g id="text_11">
     <!-- No.2 iteration -->
     <g transform="translate(377.51 139.864063)scale(0.1 -0.1)">
      <defs>
       <path id="DejaVuSans-32" d="M 1228 531 
L 3431 531 
L 3431 0 
L 469 0 
L 469 531 
Q 828 903 1448 1529 
Q 2069 2156 2228 2338 
Q 2531 2678 2651 2914 
Q 2772 3150 2772 3378 
Q 2772 3750 2511 3984 
Q 2250 4219 1831 4219 
Q 1534 4219 1204 4116 
Q 875 4013 500 3803 
L 500 4441 
Q 881 4594 1212 4672 
Q 1544 4750 1819 4750 
Q 2544 4750 2975 4387 
Q 3406 4025 3406 3419 
Q 3406 3131 3298 2873 
Q 3191 2616 2906 2266 
Q 2828 2175 2409 1742 
Q 1991 1309 1228 531 
z
" transform="scale(0.015625)"/>
      </defs>
      <use xlink:href="#DejaVuSans-4e"/>
      <use xlink:href="#DejaVuSans-6f" x="74.804688"/>
      <use xlink:href="#DejaVuSans-2e" x="134.236328"/>
      <use xlink:href="#DejaVuSans-32" x="166.023438"/>
      <use xlink:href="#DejaVuSans-20" x="229.646484"/>
      <use xlink:href="#DejaVuSans-69" x="261.433594"/>
      <use xlink:href="#DejaVuSans-74" x="289.216797"/>
      <use xlink:href="#DejaVuSans-65" x="328.425781"/>
      <use xlink:href="#DejaVuSans-72" x="389.949219"/>
      <use xlink:href="#DejaVuSans-61" x="431.0625"/>
      <use xlink:href="#DejaVuSans-74" x="492.341797"/>
      <use xlink:href="#DejaVuSans-69" x="531.550781"/>
      <use xlink:href="#DejaVuSans-6f" x="559.333984"/>
      <use xlink:href="#DejaVuSans-6e" x="620.515625"/>
     </g>
    </g>
    <g id="line2d_20">
     <path d="M 349.51 151.042188 
L 359.51 151.042188 
L 369.51 151.042188 
" style="fill: none; stroke: #d62728; stroke-width: 1.5; stroke-linecap: square"/>
    </g>
    <g id="text_12">
     <!-- No.3 iteration -->
     <g transform="translate(377.51 154.542188)scale(0.1 -0.1)">
      <defs>
       <path id="DejaVuSans-33" d="M 2597 2516 
Q 3050 2419 3304 2112 
Q 3559 1806 3559 1356 
Q 3559 666 3084 287 
Q 2609 -91 1734 -91 
Q 1441 -91 1130 -33 
Q 819 25 488 141 
L 488 750 
Q 750 597 1062 519 
Q 1375 441 1716 441 
Q 2309 441 2620 675 
Q 2931 909 2931 1356 
Q 2931 1769 2642 2001 
Q 2353 2234 1838 2234 
L 1294 2234 
L 1294 2753 
L 1863 2753 
Q 2328 2753 2575 2939 
Q 2822 3125 2822 3475 
Q 2822 3834 2567 4026 
Q 2313 4219 1838 4219 
Q 1578 4219 1281 4162 
Q 984 4106 628 3988 
L 628 4550 
Q 988 4650 1302 4700 
Q 1616 4750 1894 4750 
Q 2613 4750 3031 4423 
Q 3450 4097 3450 3541 
Q 3450 3153 3228 2886 
Q 3006 2619 2597 2516 
z
" transform="scale(0.015625)"/>
      </defs>
      <use xlink:href="#DejaVuSans-4e"/>
      <use xlink:href="#DejaVuSans-6f" x="74.804688"/>
      <use xlink:href="#DejaVuSans-2e" x="134.236328"/>
      <use xlink:href="#DejaVuSans-33" x="166.023438"/>
      <use xlink:href="#DejaVuSans-20" x="229.646484"/>
      <use xlink:href="#DejaVuSans-69" x="261.433594"/>
      <use xlink:href="#DejaVuSans-74" x="289.216797"/>
      <use xlink:href="#DejaVuSans-65" x="328.425781"/>
      <use xlink:href="#DejaVuSans-72" x="389.949219"/>
      <use xlink:href="#DejaVuSans-61" x="431.0625"/>
      <use xlink:href="#DejaVuSans-74" x="492.341797"/>
      <use xlink:href="#DejaVuSans-69" x="531.550781"/>
      <use xlink:href="#DejaVuSans-6f" x="559.333984"/>
      <use xlink:href="#DejaVuSans-6e" x="620.515625"/>
     </g>
    </g>
    <g id="line2d_21">
     <path d="M 349.51 165.720313 
L 359.51 165.720313 
L 369.51 165.720313 
" style="fill: none; stroke: #9467bd; stroke-width: 1.5; stroke-linecap: square"/>
    </g>
    <g id="text_13">
     <!-- No.4 iteration -->
     <g transform="translate(377.51 169.220313)scale(0.1 -0.1)">
      <use xlink:href="#DejaVuSans-4e"/>
      <use xlink:href="#DejaVuSans-6f" x="74.804688"/>
      <use xlink:href="#DejaVuSans-2e" x="134.236328"/>
      <use xlink:href="#DejaVuSans-34" x="166.023438"/>
      <use xlink:href="#DejaVuSans-20" x="229.646484"/>
      <use xlink:href="#DejaVuSans-69" x="261.433594"/>
      <use xlink:href="#DejaVuSans-74" x="289.216797"/>
      <use xlink:href="#DejaVuSans-65" x="328.425781"/>
      <use xlink:href="#DejaVuSans-72" x="389.949219"/>
      <use xlink:href="#DejaVuSans-61" x="431.0625"/>
      <use xlink:href="#DejaVuSans-74" x="492.341797"/>
      <use xlink:href="#DejaVuSans-69" x="531.550781"/>
      <use xlink:href="#DejaVuSans-6f" x="559.333984"/>
      <use xlink:href="#DejaVuSans-6e" x="620.515625"/>
     </g>
    </g>
    <g id="line2d_22">
     <path d="M 349.51 180.398438 
L 359.51 180.398438 
L 369.51 180.398438 
" style="fill: none; stroke: #8c564b; stroke-width: 1.5; stroke-linecap: square"/>
    </g>
    <g id="text_14">
     <!-- No.5 iteration -->
     <g transform="translate(377.51 183.898438)scale(0.1 -0.1)">
      <use xlink:href="#DejaVuSans-4e"/>
      <use xlink:href="#DejaVuSans-6f" x="74.804688"/>
      <use xlink:href="#DejaVuSans-2e" x="134.236328"/>
      <use xlink:href="#DejaVuSans-35" x="166.023438"/>
      <use xlink:href="#DejaVuSans-20" x="229.646484"/>
      <use xlink:href="#DejaVuSans-69" x="261.433594"/>
      <use xlink:href="#DejaVuSans-74" x="289.216797"/>
      <use xlink:href="#DejaVuSans-65" x="328.425781"/>
      <use xlink:href="#DejaVuSans-72" x="389.949219"/>
      <use xlink:href="#DejaVuSans-61" x="431.0625"/>
      <use xlink:href="#DejaVuSans-74" x="492.341797"/>
      <use xlink:href="#DejaVuSans-69" x="531.550781"/>
      <use xlink:href="#DejaVuSans-6f" x="559.333984"/>
      <use xlink:href="#DejaVuSans-6e" x="620.515625"/>
     </g>
    </g>
    <g id="line2d_23">
     <path d="M 349.51 195.076563 
L 359.51 195.076563 
L 369.51 195.076563 
" style="fill: none; stroke: #e377c2; stroke-width: 1.5; stroke-linecap: square"/>
    </g>
    <g id="text_15">
     <!-- No.6 iteration -->
     <g transform="translate(377.51 198.576563)scale(0.1 -0.1)">
      <use xlink:href="#DejaVuSans-4e"/>
      <use xlink:href="#DejaVuSans-6f" x="74.804688"/>
      <use xlink:href="#DejaVuSans-2e" x="134.236328"/>
      <use xlink:href="#DejaVuSans-36" x="166.023438"/>
      <use xlink:href="#DejaVuSans-20" x="229.646484"/>
      <use xlink:href="#DejaVuSans-69" x="261.433594"/>
      <use xlink:href="#DejaVuSans-74" x="289.216797"/>
      <use xlink:href="#DejaVuSans-65" x="328.425781"/>
      <use xlink:href="#DejaVuSans-72" x="389.949219"/>
      <use xlink:href="#DejaVuSans-61" x="431.0625"/>
      <use xlink:href="#DejaVuSans-74" x="492.341797"/>
      <use xlink:href="#DejaVuSans-69" x="531.550781"/>
      <use xlink:href="#DejaVuSans-6f" x="559.333984"/>
      <use xlink:href="#DejaVuSans-6e" x="620.515625"/>
     </g>
    </g>
    <g id="line2d_24">
     <path d="M 349.51 209.754687 
L 359.51 209.754687 
L 369.51 209.754687 
" style="fill: none; stroke: #7f7f7f; stroke-width: 1.5; stroke-linecap: square"/>
    </g>
    <g id="text_16">
     <!-- No.7 iteration -->
     <g transform="translate(377.51 213.254687)scale(0.1 -0.1)">
      <use xlink:href="#DejaVuSans-4e"/>
      <use xlink:href="#DejaVuSans-6f" x="74.804688"/>
      <use xlink:href="#DejaVuSans-2e" x="134.236328"/>
      <use xlink:href="#DejaVuSans-37" x="166.023438"/>
      <use xlink:href="#DejaVuSans-20" x="229.646484"/>
      <use xlink:href="#DejaVuSans-69" x="261.433594"/>
      <use xlink:href="#DejaVuSans-74" x="289.216797"/>
      <use xlink:href="#DejaVuSans-65" x="328.425781"/>
      <use xlink:href="#DejaVuSans-72" x="389.949219"/>
      <use xlink:href="#DejaVuSans-61" x="431.0625"/>
      <use xlink:href="#DejaVuSans-74" x="492.341797"/>
      <use xlink:href="#DejaVuSans-69" x="531.550781"/>
      <use xlink:href="#DejaVuSans-6f" x="559.333984"/>
      <use xlink:href="#DejaVuSans-6e" x="620.515625"/>
     </g>
    </g>
    <g id="line2d_25">
     <path d="M 349.51 224.432813 
L 359.51 224.432813 
L 369.51 224.432813 
" style="fill: none; stroke: #bcbd22; stroke-width: 1.5; stroke-linecap: square"/>
    </g>
    <g id="text_17">
     <!-- No.8 iteration -->
     <g transform="translate(377.51 227.932813)scale(0.1 -0.1)">
      <use xlink:href="#DejaVuSans-4e"/>
      <use xlink:href="#DejaVuSans-6f" x="74.804688"/>
      <use xlink:href="#DejaVuSans-2e" x="134.236328"/>
      <use xlink:href="#DejaVuSans-38" x="166.023438"/>
      <use xlink:href="#DejaVuSans-20" x="229.646484"/>
      <use xlink:href="#DejaVuSans-69" x="261.433594"/>
      <use xlink:href="#DejaVuSans-74" x="289.216797"/>
      <use xlink:href="#DejaVuSans-65" x="328.425781"/>
      <use xlink:href="#DejaVuSans-72" x="389.949219"/>
      <use xlink:href="#DejaVuSans-61" x="431.0625"/>
      <use xlink:href="#DejaVuSans-74" x="492.341797"/>
      <use xlink:href="#DejaVuSans-69" x="531.550781"/>
      <use xlink:href="#DejaVuSans-6f" x="559.333984"/>
      <use xlink:href="#DejaVuSans-6e" x="620.515625"/>
     </g>
    </g>
    <g id="line2d_26">
     <path d="M 349.51 239.110937 
L 359.51 239.110937 
L 369.51 239.110937 
" style="fill: none; stroke: #17becf; stroke-width: 1.5; stroke-linecap: square"/>
    </g>
    <g id="text_18">
     <!-- No.9 iteration -->
     <g transform="translate(377.51 242.610937)scale(0.1 -0.1)">
      <use xlink:href="#DejaVuSans-4e"/>
      <use xlink:href="#DejaVuSans-6f" x="74.804688"/>
      <use xlink:href="#DejaVuSans-2e" x="134.236328"/>
      <use xlink:href="#DejaVuSans-39" x="166.023438"/>
      <use xlink:href="#DejaVuSans-20" x="229.646484"/>
      <use xlink:href="#DejaVuSans-69" x="261.433594"/>
      <use xlink:href="#DejaVuSans-74" x="289.216797"/>
      <use xlink:href="#DejaVuSans-65" x="328.425781"/>
      <use xlink:href="#DejaVuSans-72" x="389.949219"/>
      <use xlink:href="#DejaVuSans-61" x="431.0625"/>
      <use xlink:href="#DejaVuSans-74" x="492.341797"/>
      <use xlink:href="#DejaVuSans-69" x="531.550781"/>
      <use xlink:href="#DejaVuSans-6f" x="559.333984"/>
      <use xlink:href="#DejaVuSans-6e" x="620.515625"/>
     </g>
    </g>
   </g>
  </g>
 </g>
 <defs>
  <clipPath id="p11c358dc87">
   <rect x="33.64" y="26.88" width="306.87" height="293.84"/>
  </clipPath>
 </defs>
</svg>
