<svg id="图层_1" data-name="图层 1" xmlns="http://www.w3.org/2000/svg" xmlns:xlink="http://www.w3.org/1999/xlink" viewBox="0 0 1072.33 438.19"><defs><style>.cls-1{fill:#a0a0a0;}.cls-1,.cls-2,.cls-3,.cls-8,.cls-9{stroke:#000;}.cls-1,.cls-2,.cls-3{stroke-miterlimit:2;}.cls-1,.cls-2{stroke-width:1.5px;}.cls-2{fill:#e0e0e0;}.cls-3{fill:none;stroke-width:0.75px;}.cls-4,.cls-5{isolation:isolate;}.cls-5,.cls-6{font-size:16.66px;}.cls-5{font-family:TimesNewRomanPSMT, Times New Roman;}.cls-10,.cls-6,.cls-7{font-family:AdobeSongStd-Light-GBpc-EUC-H, Adobe Song Std;}.cls-7{font-size:18.51px;}.cls-8,.cls-9{stroke-miterlimit:10;stroke-width:2px;}.cls-9{fill:#f6b839;}.cls-10{font-size:18px;}</style></defs><title>GNN</title><rect id="_0_0" data-name="0_0" class="cls-1" x="189.74" y="297.85" width="92.12" height="9.78"/><rect id="_1_0" data-name="1_0" class="cls-1" x="202.98" y="58.96" width="88.47" height="89.97"/><rect id="_1_1" data-name="1_1" class="cls-2" x="191.57" y="52.64" width="88.47" height="89.97"/><rect id="_2_0" data-name="2_0" class="cls-1" x="401.64" y="224.65" width="31.14" height="120.09"/><polygon id="fc_0" data-name="fc 0" class="cls-2" points="625.95 120.6 631.57 120.6 834.74 337.99 829.13 337.99 625.95 120.6"/><polygon id="fc_1" data-name="fc 1" class="cls-2" points="835.86 174.95 841.48 174.95 943.06 283.64 937.45 283.64 835.86 174.95"/><polygon id="fc_2" data-name="fc 2" class="cls-2" points="944.19 215.71 949.8 215.71 975.2 242.88 969.58 242.88 944.19 215.71"/><polygon id="fc_3" data-name="fc 3" class="cls-2" points="976.32 229.08 981.93 229.08 982.33 229.51 976.71 229.51 976.32 229.08"/><line id="fc_0-2" data-name="fc 0" class="cls-3" x1="569.83" y1="344.58" x2="829.13" y2="337.99"/><line id="fc_0-3" data-name="fc 0" class="cls-3" x1="569.83" y1="224.49" x2="625.95" y2="120.6"/><line id="fc_1-2" data-name="fc 1" class="cls-3" x1="834.74" y1="337.99" x2="937.45" y2="283.64"/><line id="fc_1-3" data-name="fc 1" class="cls-3" x1="631.56" y1="120.6" x2="835.86" y2="174.95"/><line id="fc_2-2" data-name="fc 2" class="cls-3" x1="943.06" y1="283.64" x2="969.58" y2="242.88"/><line id="fc_2-3" data-name="fc 2" class="cls-3" x1="841.48" y1="174.95" x2="944.19" y2="215.71"/><line id="fc_3-2" data-name="fc 3" class="cls-3" x1="975.19" y1="242.88" x2="976.71" y2="229.51"/><line id="fc_3-3" data-name="fc 3" class="cls-3" x1="949.8" y1="215.71" x2="976.32" y2="229.08"/><text class="cls-4" x="-29.93" y="-438.32"/><text class="cls-5" transform="translate(610.08 105.66) scale(0.93 1)">1x512</text><text class="cls-6" transform="translate(122.4 14.66)">切比雪夫多项式矩阵</text><text class="cls-7" transform="translate(122.4 368.87)">节点特征矩阵</text><image width="385" height="379" transform="translate(0 186.38) scale(0.2 0.2)" xlink:href="../../../OneDrive/%E6%A1%8C%E9%9D%A2/Graph.png"/><line class="cls-8" x1="86.06" y1="258.85" x2="158.74" y2="298.66"/><line class="cls-8" x1="86.06" y1="180.9" x2="162.93" y2="105.66"/><rect id="_1_0-2" data-name="1_0" class="cls-1" x="384.05" y="58.96" width="88.47" height="89.97"/><rect id="_1_1-2" data-name="1_1" class="cls-2" x="372.64" y="52.64" width="88.47" height="89.97"/><line class="cls-9" x1="299.78" y1="99.94" x2="361.78" y2="99.94"/><polygon class="cls-8" points="169 97.31 154.61 104.99 165.2 113.1 169 97.31"/><polygon class="cls-8" points="366.54 99.83 357.02 95.64 357.21 104.25 366.54 99.83"/><polygon class="cls-8" points="166.79 299.7 154.92 288.5 150.69 301.18 166.79 299.7"/><line class="cls-8" x1="276.63" y1="156.04" x2="370.59" y2="248.83"/><polygon class="cls-8" points="377.09 257.91 371.8 242.43 362.16 251.66 377.09 257.91"/><line class="cls-8" x1="307.57" y1="307.17" x2="372.13" y2="307.17"/><polygon class="cls-8" points="377.09 307.06 367.18 302.75 367.37 311.61 377.09 307.06"/><line class="cls-8" x1="438.57" y1="307.17" x2="520.44" y2="307.17"/><polygon class="cls-8" points="525.4 307.06 515.49 302.75 515.68 311.61 525.4 307.06"/><line class="cls-8" x1="426.48" y1="157.48" x2="520.44" y2="250.28"/><polygon class="cls-8" points="527.91 258.45 522.61 242.97 512.98 252.2 527.91 258.45"/><text class="cls-6" transform="translate(311.4 413.96)">切比雪夫<tspan x="0" y="19.99">卷积层</tspan></text><text class="cls-6" transform="translate(467.73 413.96)">切比雪夫<tspan x="0" y="19.99">卷积层</tspan></text><text class="cls-6" transform="translate(653.56 420.12)">读出层</text><rect id="_2_0-2" data-name="2_0" class="cls-1" x="539.36" y="223.6" width="31.14" height="120.09"/><text class="cls-6" transform="translate(870.86 420.12)">全连接层</text><text class="cls-5" transform="translate(534.01 374.27) scale(0.93 1)">200x16</text><text class="cls-5" transform="translate(394.59 374.27) scale(0.93 1)">200x16</text><text class="cls-5" transform="translate(202.98 180.9) scale(0.93 1)">2@200x200</text><text class="cls-5" transform="translate(815.98 163.29) scale(0.93 1)">1x256</text><text class="cls-5" transform="translate(931.49 195.33) scale(0.93 1)">1x64</text><text class="cls-5" transform="translate(202.98 269.6) scale(0.93 1)">200x2</text><text class="cls-10" transform="translate(0 301.18)">输入图结构</text><text class="cls-10" transform="translate(982.33 288.5)">输出预测值</text></svg>