<?xml version="1.0" encoding="utf-8"?>
<!-- Generator: Adobe Illustrator 24.0.1, SVG Export Plug-In . SVG Version: 6.00 Build 0)  -->
<svg version="1.1" id="图层_1" xmlns="http://www.w3.org/2000/svg" x="0px" y="0px"
     viewBox="0 0 1805 1890" style="enable-background:new 0 0 1805 1890;" xml:space="preserve">
<style type="text/css">
	.st0{fill:none;}
	.st1{fill-rule:evenodd;clip-rule:evenodd;fill:#4472C4;stroke:#2F528F;stroke-width:4.5833;stroke-miterlimit:8;}
	.st2{fill:#FFFFFF;}
	.st3{font-family:'ArialMT';}
	.st4{font-size:83px;}
	.st5{fill-rule:evenodd;clip-rule:evenodd;fill:#ED7D31;stroke:#2F528F;stroke-width:4.5833;stroke-miterlimit:8;}
	.st6{fill:none;stroke:#4472C4;stroke-width:10.3125;stroke-miterlimit:8;}
	.st7{fill:none;stroke:#C55A11;stroke-width:10.3125;stroke-miterlimit:8;}
	.st8{fill:none;stroke:#C55A11;stroke-width:20.625;stroke-miterlimit:8;stroke-dasharray:82.5,61.875,20.625,61.875;}
	.st9{fill:none;stroke:#2F5597;stroke-width:20.625;stroke-miterlimit:8;stroke-dasharray:82.5,61.875,20.625,61.875;}
	.st10{fill-rule:evenodd;clip-rule:evenodd;}
	.st11{font-size:92px;}
</style>
<rect x="-70.8" y="-8.3" class="st0" width="1805" height="1890"/>
<g transform="translate(-631 -176)">
	<path class="st1" d="M956.9,770c0-33.4,28.4-60.5,63.5-60.5c35.1,0,63.5,27.1,63.5,60.5s-28.4,60.5-63.5,60.5
		C985.3,830.5,956.9,803.4,956.9,770z"/>
	<path class="st1" d="M1218.9,1011c0-33.4,28.4-60.5,63.5-60.5s63.5,27.1,63.5,60.5c0,33.4-28.4,60.5-63.5,60.5
		S1218.9,1044.4,1218.9,1011z"/>
	<path class="st1" d="M1154.9,664.5c0-33.1,28.4-60,63.5-60s63.5,26.9,63.5,60s-28.4,60-63.5,60S1154.9,697.6,1154.9,664.5z"/>
	<path class="st1" d="M1392.9,692c0-33.4,28.4-60.5,63.5-60.5s63.5,27.1,63.5,60.5s-28.4,60.5-63.5,60.5S1392.9,725.4,1392.9,692z"
		/>
	<text transform="matrix(1 0 0 1 1446.3367 719)" class="st2 st3 st4">i</text>
	<path class="st5" d="M1395.9,1850c0-33.4,28.4-60.5,63.5-60.5s63.5,27.1,63.5,60.5s-28.4,60.5-63.5,60.5S1395.9,1883.4,1395.9,1850
		z"/>
	<path class="st5" d="M1092.9,1876c0-33.4,28.2-60.5,63-60.5s63,27.1,63,60.5s-28.2,60.5-63,60.5S1092.9,1909.4,1092.9,1876z"/>
	<path class="st5" d="M985.9,1544.5c0-33.1,28.2-60,63-60c34.8,0,63,26.9,63,60s-28.2,60-63,60
		C1014.1,1604.5,985.9,1577.6,985.9,1544.5z"/>
	<path class="st5" d="M1326.9,1573.5c0-33.1,28.4-60,63.5-60s63.5,26.9,63.5,60s-28.4,60-63.5,60S1326.9,1606.6,1326.9,1573.5z"/>
	<path class="st6" d="M1154.8,664l-90.4,62.7"/>
	<path class="st6" d="M1218.2,1010.7L1064.4,812"/>
	<path class="st6" d="M1326.4,968l84.5-234"/>
	<path class="st6" d="M1209.4,719l71.8,231.5"/>
	<path class="st7" d="M1326,1573l-214.7-29"/>
	<path class="st7" d="M1110.5,1832.5l-62.1-228.5"/>
	<path class="st7" d="M1413.9,1807.2L1093.4,1587"/>
	<rect x="782.9" y="1297.5" class="st8" width="901" height="752"/>
	<rect x="795.9" y="418.5" class="st9" width="901" height="752"/>
	<text transform="matrix(6.123230e-17 1 -1 6.123230e-17 657.5049 1489)" class="st3 st4">Cluster n</text>
	<text transform="matrix(6.123230e-17 1 -1 6.123230e-17 651.0537 625)" class="st3 st4">Cluster </text>
	<text transform="matrix(6.123230e-17 1 -1 6.123230e-17 651.0537 911.36)" class="st3 st4">m</text>
	<path class="st10" d="M1883,807.6h33.3l-1.2,5.4h-9.6l-4.6,20.3c-0.6,2.6-0.9,4.6-0.9,6c0,1.1,0.2,1.9,0.5,2.4
		c0.3,0.5,0.9,0.7,1.7,0.7c1.6,0,3.5-1.3,5.7-3.9l2.3,2.2c-2,2.2-3.9,3.9-5.6,4.9c-1.7,1-3.5,1.5-5.4,1.5c-1.8,0-3.3-0.6-4.3-1.9
		c-1-1.3-1.6-2.9-1.6-5c0-1.8,0.4-4.4,1.1-7.9l0.9-4.1c0.5-2.2,1.1-4.8,2-7.8c0.8-3.1,1.6-5.4,2.2-7.1l-0.2-0.4h-11.9l-5,23.1
		c-0.4,1.8-0.9,3.8-1.4,5.9c-0.5,2.1-1,3.6-1.3,4.5h-8.6l0.4-2c2.9-2.8,5.5-9.5,7.9-19.9l2.7-11.5h-1.3c-1.9,0-3.5,0.3-4.9,1
		c-1.3,0.6-2.8,1.9-4.3,3.9l-2.6-2.1c1.4-1.7,2.6-3,3.4-3.9c0.9-0.9,1.8-1.6,2.8-2.3c1-0.6,2.1-1.1,3.3-1.4
		C1879.9,807.8,1881.3,807.6,1883,807.6z"/>
	<path class="st10" d="M1983.2,832.8c1.5,0,2.6,0.5,3.4,1.4c0.8,1,1.2,2.2,1.2,3.8c0,0.4,0,0.9-0.1,1.3c0,0.4-0.2,0.8-0.3,1.2
		l0.3,0.1c1.9-2.6,3.8-4.6,5.7-5.9c1.9-1.3,3.8-2,5.8-2c2.1,0,3.7,0.5,4.7,1.6c1.1,1.1,1.6,2.7,1.6,4.8c0,0.2,0,0.4,0,0.5
		c0,0.2,0,0.3-0.1,0.5h0.1c1.8-2.5,3.7-4.4,5.5-5.6c1.8-1.2,3.7-1.8,5.7-1.8c2.1,0,3.7,0.6,4.7,1.7c1,1.1,1.6,2.7,1.6,4.8
		c0,0.6-0.1,1.4-0.3,2.5c-0.2,1-0.4,2.2-0.7,3.4c-0.3,1.3-0.6,2.5-0.9,3.9c-0.3,1.3-0.6,2.6-0.9,3.8c-0.2,0.8-0.3,1.4-0.4,1.9
		c-0.1,0.5-0.2,0.9-0.3,1.2c-0.1,0.3-0.1,0.6-0.1,0.8c0,0.2,0,0.5,0,0.8c0,0.8,0.1,1.3,0.4,1.6c0.3,0.3,0.7,0.5,1.3,0.5
		c0.4,0,0.7-0.1,1.1-0.2c0.3-0.1,0.7-0.4,1.1-0.7c0.4-0.3,0.9-0.7,1.3-1.1c0.5-0.5,1-1,1.6-1.7l2.1,2c-0.9,1-1.8,1.8-2.7,2.6
		c-0.8,0.7-1.6,1.3-2.4,1.8c-0.8,0.5-1.5,0.8-2.3,1c-0.8,0.2-1.5,0.3-2.4,0.3c-0.8,0-1.4-0.1-2.1-0.4c-0.6-0.3-1.1-0.7-1.6-1.1
		c-0.4-0.5-0.8-1.1-1-1.7c-0.2-0.7-0.4-1.4-0.4-2.2c0-1.6,0.4-3.7,1-6.3c0.4-1.3,0.7-2.5,1-3.7c0.3-1.2,0.6-2.3,0.8-3.3
		c0.2-1,0.4-1.9,0.5-2.7c0.1-0.8,0.2-1.4,0.2-2c0-1.2-0.2-2.1-0.7-2.7c-0.5-0.6-1.2-0.9-2.2-0.9c-0.6,0-1.3,0.2-2,0.5
		c-0.7,0.3-1.4,0.8-2.1,1.3c-0.7,0.6-1.4,1.2-2.1,2c-0.7,0.8-1.3,1.6-1.9,2.5c-0.6,0.9-1.1,1.9-1.5,2.8c-0.4,1-0.8,2-1,3l-3,14.2
		h-5.8c0.3-1.3,0.6-2.6,0.9-4.1c0.3-1.5,0.7-2.9,1.1-4.4c0.4-1.5,0.7-3,1-4.4c0.3-1.4,0.6-2.8,0.9-4.1c0.3-1.3,0.5-2.4,0.6-3.4
		c0.2-1,0.2-1.8,0.2-2.4c0-1.3-0.2-2.2-0.7-2.8c-0.5-0.6-1.3-0.9-2.3-0.9c-1,0-2,0.4-3.1,1.1c-1.1,0.7-2.1,1.7-3.1,2.8
		c-1,1.2-1.9,2.5-2.6,3.9c-0.8,1.5-1.3,2.9-1.6,4.4l-3,14.2h-5.8l4.5-19.4c0.3-1.1,0.4-2,0.6-2.8c0.1-0.8,0.2-1.5,0.2-2
		c0-1.5-0.6-2.2-1.8-2.2c-0.4,0-0.7,0.1-1.1,0.2c-0.4,0.1-0.8,0.4-1.2,0.7c-0.4,0.3-0.8,0.7-1.3,1.1c-0.5,0.5-1,1-1.6,1.6l-2.1-1.9
		c1-1,1.9-1.9,2.7-2.6c0.8-0.7,1.6-1.3,2.4-1.8c0.8-0.5,1.5-0.8,2.2-1C1981.7,832.9,1982.4,832.8,1983.2,832.8z M1927.2,832.8
		c1.5,0,2.6,0.5,3.4,1.4c0.8,1,1.2,2.2,1.2,3.8c0,0.4,0,0.9-0.1,1.3c0,0.4-0.2,0.8-0.3,1.2l0.3,0.1c1.9-2.6,3.8-4.6,5.7-5.9
		c1.9-1.3,3.8-2,5.8-2c2.1,0,3.7,0.5,4.7,1.6c1,1.1,1.6,2.7,1.6,4.8c0,0.2,0,0.4,0,0.5c0,0.2,0,0.3-0.1,0.5h0.1
		c1.8-2.5,3.7-4.4,5.5-5.6c1.8-1.2,3.7-1.8,5.7-1.8c2.1,0,3.7,0.6,4.7,1.7c1,1.1,1.6,2.7,1.6,4.8c0,0.6-0.1,1.4-0.3,2.5
		c-0.2,1-0.4,2.2-0.7,3.4c-0.3,1.3-0.6,2.5-0.9,3.9c-0.3,1.3-0.7,2.6-0.9,3.8c-0.2,0.8-0.3,1.4-0.4,1.9c-0.1,0.5-0.2,0.9-0.3,1.2
		c-0.1,0.3-0.1,0.6-0.1,0.8c0,0.2,0,0.5,0,0.8c0,0.8,0.1,1.3,0.4,1.6c0.3,0.3,0.7,0.5,1.3,0.5c0.4,0,0.7-0.1,1.1-0.2
		c0.3-0.1,0.7-0.4,1.1-0.7c0.4-0.3,0.9-0.7,1.3-1.1c0.5-0.5,1-1,1.6-1.7l2,2c-0.9,1-1.8,1.8-2.7,2.6c-0.8,0.7-1.6,1.3-2.4,1.8
		c-0.8,0.5-1.5,0.8-2.3,1c-0.8,0.2-1.5,0.3-2.4,0.3c-0.8,0-1.4-0.1-2-0.4c-0.6-0.3-1.1-0.7-1.6-1.1c-0.4-0.5-0.8-1.1-1-1.7
		c-0.2-0.7-0.4-1.4-0.4-2.2c0-1.6,0.3-3.7,1-6.3c0.4-1.3,0.7-2.5,1-3.7c0.3-1.2,0.6-2.3,0.8-3.3c0.2-1,0.4-1.9,0.5-2.7
		s0.2-1.4,0.2-2c0-1.2-0.2-2.1-0.7-2.7c-0.5-0.6-1.2-0.9-2.2-0.9c-0.6,0-1.3,0.2-2,0.5c-0.7,0.3-1.4,0.8-2.1,1.3
		c-0.7,0.6-1.4,1.2-2.1,2c-0.7,0.8-1.3,1.6-1.9,2.5c-0.6,0.9-1.1,1.9-1.5,2.8c-0.5,1-0.8,2-1,3l-2.9,14.2h-5.8
		c0.3-1.3,0.6-2.6,0.9-4.1c0.3-1.5,0.7-2.9,1.1-4.4c0.4-1.5,0.7-3,1-4.4c0.3-1.4,0.6-2.8,0.9-4.1c0.3-1.3,0.5-2.4,0.6-3.4
		c0.2-1,0.2-1.8,0.2-2.4c0-1.3-0.3-2.2-0.7-2.8c-0.5-0.6-1.3-0.9-2.3-0.9c-1,0-2,0.4-3.1,1.1c-1.1,0.7-2.1,1.7-3.1,2.8
		c-1,1.2-1.9,2.5-2.6,3.9c-0.8,1.5-1.3,2.9-1.6,4.4l-3,14.2h-5.8l4.5-19.4c0.3-1.1,0.4-2,0.6-2.8c0.1-0.8,0.2-1.5,0.2-2
		c0-1.5-0.6-2.2-1.8-2.2c-0.4,0-0.7,0.1-1.1,0.2c-0.4,0.1-0.8,0.4-1.2,0.7c-0.4,0.3-0.8,0.7-1.3,1.1c-0.5,0.5-1,1-1.6,1.6l-2.1-1.9
		c1-1,1.9-1.9,2.7-2.6c0.8-0.7,1.6-1.3,2.4-1.8c0.8-0.5,1.5-0.8,2.2-1C1925.7,832.9,1926.4,832.8,1927.2,832.8z"/>
	<path class="st10" d="M1886.8,1669.7h33.3l-1.2,5.3h-9.6l-4.6,20.3c-0.6,2.7-0.9,4.7-0.9,6c0,1.1,0.2,1.9,0.5,2.3
		c0.4,0.5,0.9,0.7,1.7,0.7c1.6,0,3.5-1.3,5.7-3.9l2.3,2.2c-2.1,2.3-3.9,3.9-5.6,4.9c-1.7,1-3.5,1.5-5.4,1.5c-1.8,0-3.3-0.6-4.3-1.9
		c-1.1-1.3-1.6-2.9-1.6-5c0-1.8,0.4-4.4,1.1-7.9l0.9-4.1c0.5-2.2,1.1-4.8,2-7.8c0.9-3.1,1.6-5.4,2.2-7.1l-0.2-0.4h-11.9l-5,23.1
		c-0.4,1.8-0.9,3.8-1.4,5.9s-1,3.6-1.3,4.5h-8.6l0.4-2c2.9-2.8,5.5-9.5,7.9-19.9l2.7-11.5h-1.3c-1.9,0-3.5,0.3-4.9,1
		c-1.3,0.7-2.8,1.9-4.3,3.9l-2.5-2.1c1.4-1.7,2.5-3,3.4-3.9s1.8-1.7,2.8-2.3c1-0.6,2.1-1.1,3.3-1.4
		C1883.7,1669.9,1885.2,1669.7,1886.8,1669.7z"/>
	<path class="st10" d="M1970,1694.9c1.5,0,2.6,0.5,3.4,1.4c0.8,1,1.2,2.2,1.2,3.8c0,0.4,0,0.8-0.1,1.3c-0.1,0.4-0.2,0.8-0.4,1.3
		l0.4,0.1c1.9-2.6,3.8-4.6,5.7-5.9c1.9-1.3,3.8-2,5.8-2c2.1,0,3.7,0.6,4.7,1.7c1,1.1,1.6,2.7,1.6,4.8c0,0.6-0.1,1.5-0.3,2.6
		c-0.2,1.1-0.4,2.3-0.7,3.6c-0.3,1.3-0.6,2.6-0.9,4c-0.3,1.4-0.6,2.6-0.9,3.8c-0.3,1.2-0.5,2.1-0.7,2.9c-0.2,0.8-0.3,1.3-0.3,1.5
		c0,0.8,0.1,1.3,0.4,1.6s0.7,0.5,1.3,0.5c0.4,0,0.8-0.1,1.1-0.2c0.4-0.1,0.8-0.4,1.1-0.7c0.4-0.3,0.8-0.7,1.3-1.1
		c0.5-0.5,1-1,1.6-1.7l2.1,2c-1,1-1.9,1.8-2.7,2.6c-0.8,0.7-1.6,1.3-2.4,1.8c-0.8,0.5-1.5,0.8-2.3,1.1c-0.8,0.2-1.6,0.3-2.4,0.3
		c-0.7,0-1.4-0.1-2-0.4c-0.6-0.3-1.1-0.7-1.6-1.1c-0.4-0.5-0.8-1.1-1-1.7c-0.2-0.7-0.4-1.4-0.4-2.2c0-0.8,0.1-1.7,0.3-2.8
		c0.2-1.1,0.4-2.2,0.8-3.5c0.3-1.3,0.7-2.5,1-3.7c0.3-1.2,0.6-2.3,0.8-3.3s0.4-1.9,0.5-2.7c0.1-0.8,0.2-1.4,0.2-1.9
		c0-1.2-0.2-2.1-0.7-2.7c-0.5-0.6-1.2-0.9-2.3-0.9c-0.6,0-1.2,0.2-1.9,0.5c-0.7,0.3-1.4,0.7-2.1,1.3c-0.7,0.5-1.4,1.2-2,1.9
		c-0.7,0.8-1.3,1.5-1.8,2.4c-0.6,0.8-1.1,1.7-1.5,2.7c-0.4,0.9-0.7,1.8-0.9,2.8l-3.3,14.9h-5.8l4.5-19.4c0.3-1,0.4-2,0.6-2.8
		c0.1-0.8,0.2-1.5,0.2-2c0-1.5-0.6-2.2-1.8-2.2c-0.3,0-0.7,0.1-1.1,0.2c-0.4,0.2-0.8,0.4-1.2,0.7c-0.4,0.3-0.8,0.7-1.3,1.1
		c-0.5,0.4-1,1-1.6,1.6l-2-1.9c1-1,1.9-1.9,2.7-2.6c0.8-0.7,1.6-1.3,2.4-1.8c0.7-0.5,1.5-0.8,2.2-1
		C1968.4,1695,1969.2,1694.9,1970,1694.9z M1931,1694.9c1.5,0,2.6,0.5,3.4,1.4c0.8,1,1.2,2.2,1.2,3.8c0,0.4,0,0.8-0.1,1.3
		c-0.1,0.4-0.2,0.8-0.4,1.3l0.4,0.1c1.9-2.6,3.8-4.6,5.7-5.9c1.9-1.3,3.8-2,5.8-2c2.1,0,3.7,0.6,4.7,1.7c1,1.1,1.6,2.7,1.6,4.8
		c0,0.6-0.1,1.5-0.3,2.6c-0.2,1.1-0.4,2.3-0.7,3.6c-0.3,1.3-0.6,2.6-0.9,4c-0.3,1.4-0.6,2.6-0.9,3.8c-0.3,1.2-0.5,2.1-0.7,2.9
		c-0.2,0.8-0.3,1.3-0.3,1.5c0,0.8,0.1,1.3,0.4,1.6s0.7,0.5,1.3,0.5c0.4,0,0.8-0.1,1.1-0.2c0.4-0.1,0.8-0.4,1.1-0.7
		c0.4-0.3,0.8-0.7,1.3-1.1c0.5-0.5,1-1,1.6-1.7l2.1,2c-1,1-1.9,1.8-2.7,2.6c-0.8,0.7-1.6,1.3-2.4,1.8c-0.8,0.5-1.5,0.8-2.3,1.1
		c-0.8,0.2-1.6,0.3-2.4,0.3c-0.7,0-1.4-0.1-2-0.4c-0.6-0.3-1.1-0.7-1.6-1.1c-0.4-0.5-0.8-1.1-1-1.7c-0.2-0.7-0.4-1.4-0.4-2.2
		c0-0.8,0.1-1.7,0.3-2.8c0.2-1.1,0.4-2.2,0.8-3.5c0.3-1.3,0.7-2.5,1-3.7c0.3-1.2,0.6-2.3,0.8-3.3s0.4-1.9,0.5-2.7
		c0.1-0.8,0.2-1.4,0.2-1.9c0-1.2-0.2-2.1-0.7-2.7c-0.5-0.6-1.2-0.9-2.3-0.9c-0.6,0-1.2,0.2-1.9,0.5c-0.7,0.3-1.4,0.7-2.1,1.3
		c-0.7,0.5-1.4,1.2-2,1.9c-0.7,0.8-1.3,1.5-1.8,2.4c-0.6,0.8-1.1,1.7-1.5,2.7c-0.4,0.9-0.7,1.8-0.9,2.8l-3.3,14.9h-5.8l4.5-19.4
		c0.3-1,0.4-2,0.6-2.8c0.1-0.8,0.2-1.5,0.2-2c0-1.5-0.6-2.2-1.8-2.2c-0.3,0-0.7,0.1-1.1,0.2c-0.4,0.2-0.8,0.4-1.2,0.7
		c-0.4,0.3-0.8,0.7-1.3,1.1c-0.5,0.4-1,1-1.6,1.6l-2-1.9c1-1,1.9-1.9,2.7-2.6c0.8-0.7,1.6-1.3,2.4-1.8c0.7-0.5,1.5-0.8,2.2-1
		C1929.4,1695,1930.2,1694.9,1931,1694.9z"/>
	<path d="M1858.1,823.5l-439.5-24.3l0.4-6.9l439.5,24.3L1858.1,823.5z M1422.6,809.7l-26.7-15.2l28.2-12.2L1422.6,809.7z"/>
	<path d="M1858,816.1l-561.5,47.1l0.6,6.9l561.5-47.1L1858,816.1z M1300.1,852.6l-26.3,16l28.6,11.4L1300.1,852.6z"/>
	<path d="M1861.9,1685.8l-606.2-16.2l0.2-6.9l606.2,16.2L1861.9,1685.8z M1260,1680l-27.1-14.5l27.9-13L1260,1680z"/>
	<path d="M1862,1678.1l-746.7,88.8l0.8,6.8l746.7-88.8L1862,1678.1z M1118.6,1756.1l-25.7,16.9l28.9,10.4L1118.6,1756.1z"/>
	<path class="st6" d="M1048.2,1483.9L1019.4,830"/>
	<path class="st6" d="M1389.6,1512.5L1281.4,1071"/>
	<path class="st10" d="M1886.8,1201.8h33.3l-1.2,5.3h-9.6l-4.6,20.3c-0.6,2.6-0.9,4.6-0.9,6c0,1.1,0.2,1.9,0.5,2.3
		c0.4,0.5,0.9,0.7,1.7,0.7c1.6,0,3.5-1.3,5.7-3.9l2.3,2.2c-2.1,2.2-3.9,3.9-5.6,4.9c-1.7,1-3.5,1.5-5.4,1.5c-1.8,0-3.3-0.6-4.3-1.9
		c-1.1-1.3-1.6-2.9-1.6-5c0-1.8,0.4-4.4,1.1-7.9l0.9-4.1c0.5-2.2,1.1-4.8,2-7.8c0.9-3.1,1.6-5.4,2.2-7.1l-0.2-0.4h-11.9l-5,23.1
		c-0.4,1.8-0.9,3.8-1.4,5.8c-0.5,2.1-1,3.6-1.3,4.5h-8.6l0.4-2c2.9-2.8,5.5-9.5,7.9-19.9l2.7-11.5h-1.3c-1.9,0-3.5,0.3-4.9,1
		c-1.3,0.7-2.8,2-4.3,3.9l-2.5-2.2c1.4-1.7,2.5-3,3.4-3.9c0.9-0.9,1.8-1.6,2.8-2.3c1-0.6,2.1-1.1,3.3-1.4
		C1883.7,1201.9,1885.2,1201.8,1886.8,1201.8z"/>
	<path class="st10" d="M1987,1226.9c1.5,0,2.6,0.5,3.4,1.4c0.8,1,1.2,2.2,1.2,3.8c0,0.4,0,0.8-0.1,1.3c-0.1,0.4-0.2,0.9-0.4,1.3
		l0.4,0.2c1.9-2.6,3.8-4.6,5.7-5.9c1.9-1.3,3.8-2,5.8-2c2.1,0,3.7,0.6,4.7,1.7c1,1.1,1.6,2.7,1.6,4.8c0,0.6-0.1,1.5-0.3,2.6
		c-0.2,1.1-0.4,2.3-0.7,3.6c-0.3,1.3-0.6,2.6-0.9,4c-0.3,1.4-0.6,2.6-0.9,3.8c-0.3,1.1-0.5,2.1-0.7,2.9c-0.2,0.8-0.3,1.3-0.3,1.5
		c0,0.8,0.1,1.3,0.4,1.6c0.3,0.3,0.7,0.5,1.3,0.5c0.4,0,0.8-0.1,1.1-0.2c0.4-0.1,0.8-0.3,1.1-0.6c0.4-0.3,0.8-0.7,1.3-1.2
		c0.5-0.5,1-1,1.6-1.7l2.1,2c-1,1-1.9,1.8-2.7,2.6c-0.8,0.7-1.6,1.3-2.4,1.8c-0.8,0.5-1.5,0.8-2.3,1c-0.8,0.2-1.6,0.3-2.4,0.3
		c-0.7,0-1.4-0.1-2-0.4c-0.6-0.3-1.1-0.7-1.6-1.2c-0.4-0.5-0.8-1.1-1-1.7c-0.2-0.7-0.4-1.4-0.4-2.2c0-0.8,0.1-1.7,0.3-2.8
		c0.2-1.1,0.4-2.2,0.8-3.5c0.4-1.3,0.7-2.5,1-3.7c0.3-1.2,0.6-2.3,0.8-3.3c0.2-1,0.4-1.9,0.5-2.7c0.1-0.8,0.2-1.4,0.2-1.9
		c0-1.2-0.2-2.1-0.7-2.7c-0.5-0.6-1.2-0.9-2.3-0.9c-0.6,0-1.2,0.2-1.9,0.5c-0.7,0.3-1.4,0.7-2.1,1.3c-0.7,0.5-1.4,1.2-2,1.9
		c-0.7,0.7-1.3,1.5-1.8,2.4c-0.6,0.8-1.1,1.7-1.5,2.7c-0.4,0.9-0.7,1.8-0.9,2.8l-3.3,15h-5.8l4.5-19.4c0.3-1,0.4-2,0.6-2.8
		c0.1-0.8,0.2-1.5,0.2-2c0-1.5-0.6-2.2-1.8-2.2c-0.3,0-0.7,0.1-1.1,0.2c-0.4,0.2-0.8,0.4-1.2,0.7c-0.4,0.3-0.8,0.7-1.3,1.1
		c-0.5,0.5-1,1-1.6,1.6l-2-1.9c1-1,1.9-1.9,2.7-2.6c0.8-0.7,1.6-1.3,2.4-1.8c0.7-0.5,1.5-0.8,2.2-1
		C1985.4,1227.1,1986.2,1226.9,1987,1226.9z M1931,1226.9c1.5,0,2.6,0.5,3.4,1.4c0.8,1,1.2,2.2,1.2,3.8c0,0.4,0,0.9-0.1,1.3
		c-0.1,0.4-0.2,0.8-0.3,1.2l0.3,0.2c1.9-2.6,3.8-4.6,5.7-5.9c1.9-1.3,3.8-2,5.8-2c2.1,0,3.7,0.5,4.7,1.6c1.1,1.1,1.6,2.7,1.6,4.8
		c0,0.2,0,0.3,0,0.5s0,0.3-0.1,0.5h0.1c1.8-2.5,3.7-4.4,5.5-5.6c1.8-1.2,3.7-1.8,5.7-1.8c2.1,0,3.7,0.6,4.7,1.7
		c1,1.1,1.6,2.7,1.6,4.8c0,0.6-0.1,1.4-0.3,2.5c-0.2,1-0.4,2.2-0.7,3.4s-0.6,2.5-0.9,3.9c-0.3,1.3-0.7,2.6-1,3.8
		c-0.2,0.8-0.3,1.4-0.4,1.9c-0.1,0.5-0.2,0.9-0.3,1.2c-0.1,0.3-0.1,0.6-0.1,0.8c0,0.2,0,0.5,0,0.8c0,0.8,0.1,1.3,0.4,1.6
		c0.3,0.3,0.7,0.5,1.3,0.5c0.4,0,0.7-0.1,1.1-0.2c0.3-0.1,0.7-0.3,1.1-0.6c0.4-0.3,0.9-0.7,1.3-1.2c0.5-0.5,1-1,1.6-1.7l2.1,2
		c-0.9,1-1.8,1.8-2.7,2.6c-0.8,0.7-1.6,1.3-2.4,1.8c-0.8,0.5-1.5,0.8-2.3,1c-0.8,0.2-1.5,0.3-2.4,0.3c-0.8,0-1.4-0.1-2.1-0.4
		c-0.6-0.3-1.1-0.7-1.6-1.2c-0.4-0.5-0.8-1.1-1-1.7c-0.2-0.7-0.4-1.4-0.4-2.2c0-1.6,0.4-3.7,1-6.3c0.4-1.3,0.7-2.5,1-3.7
		c0.3-1.2,0.6-2.3,0.8-3.3c0.2-1,0.4-1.9,0.5-2.7c0.1-0.8,0.2-1.4,0.2-1.9c0-1.2-0.2-2.1-0.7-2.7c-0.5-0.6-1.2-0.9-2.2-0.9
		c-0.6,0-1.3,0.2-2,0.5c-0.7,0.3-1.4,0.8-2.1,1.3c-0.7,0.6-1.4,1.2-2.1,2c-0.7,0.8-1.3,1.6-1.9,2.5c-0.6,0.9-1.1,1.8-1.5,2.8
		c-0.4,1-0.8,2-1,3l-2.9,14.2h-5.8c0.3-1.3,0.6-2.6,0.9-4.1s0.7-2.9,1.1-4.4c0.4-1.5,0.7-3,1-4.4c0.3-1.5,0.6-2.8,0.9-4.1
		c0.3-1.3,0.5-2.4,0.6-3.4c0.2-1,0.2-1.8,0.2-2.4c0-1.3-0.3-2.2-0.7-2.8c-0.5-0.6-1.3-0.9-2.3-0.9c-0.9,0-2,0.4-3.1,1.1
		c-1.1,0.7-2.1,1.7-3.1,2.8c-1,1.2-1.9,2.5-2.6,3.9c-0.8,1.5-1.3,2.9-1.6,4.4l-3,14.2h-5.8l4.5-19.4c0.3-1.1,0.4-2,0.6-2.8
		c0.1-0.8,0.2-1.5,0.2-2c0-1.5-0.6-2.2-1.8-2.2c-0.3,0-0.7,0.1-1.1,0.2c-0.4,0.2-0.8,0.4-1.2,0.7c-0.4,0.3-0.8,0.7-1.3,1.1
		c-0.5,0.5-1,1-1.6,1.6l-2-1.9c1-1,1.9-1.8,2.7-2.6c0.8-0.7,1.6-1.3,2.4-1.8c0.8-0.5,1.5-0.8,2.2-1
		C1929.5,1227.1,1930.2,1226.9,1931,1226.9z"/>
	<path d="M1862.2,1217l-468.5-10.6l0.2-6.9l468.5,10.6L1862.2,1217z M1398.1,1216.9l-27.2-14.4l27.8-13.1L1398.1,1216.9z"/>
	<path d="M1861.7,1210.1l-747,153l1.4,6.7l747-153L1861.7,1210.1z M1117.1,1352.2l-24.2,19l29.7,8L1117.1,1352.2z"/>
	<path class="st10" d="M1880.9,556.9h28.8l0.8,2l-19.3,22.2c-3.8,4.3-7,7.9-9.8,10.9l0.2,0.3h9.2c1.6,0,2.9-0.1,3.7-0.3
		c0.9-0.2,1.6-0.5,2.3-1c0.7-0.5,1.3-1.2,2-2.2c0.7-1,1.5-2.5,2.6-4.6h3.6l-2.5,11.4h-29.3l-0.8-2l22.2-25.5
		c3.1-3.6,5.4-6.1,6.9-7.7l-0.2-0.3h-9.5c-1.4,0-2.4,0.1-3.1,0.3c-0.6,0.2-1.3,0.5-1.9,1c-0.7,0.5-1.3,1.2-2.1,2.1
		c-0.7,0.9-1.6,2.3-2.5,4h-3.6L1880.9,556.9z"/>
	<path class="st10" d="M1923.7,582.4h1.5l-4.4,19.8c-0.3,1.2-0.5,2.1-0.6,2.8c-0.1,0.7-0.2,1.3-0.2,1.9c0,0.8,0.2,1.3,0.5,1.6
		c0.3,0.3,0.8,0.5,1.4,0.5c0.4,0,0.7-0.1,1.1-0.2c0.4-0.1,0.7-0.4,1.2-0.7c0.4-0.3,0.8-0.7,1.3-1.1c0.5-0.5,1-1,1.6-1.7l2,2
		c-1,1.1-2,1.9-2.8,2.7c-0.8,0.7-1.6,1.3-2.4,1.8c-0.8,0.5-1.5,0.8-2.2,1c-0.7,0.2-1.5,0.3-2.3,0.3c-0.8,0-1.4-0.1-2-0.4
		c-0.6-0.3-1.1-0.7-1.6-1.1c-0.4-0.5-0.8-1.1-1-1.7s-0.4-1.4-0.4-2.2c0-0.7,0.1-1.5,0.2-2.4c0.2-1,0.4-2,0.6-3.2
		c0.3-1.1,0.5-2.3,0.8-3.6c0.3-1.3,0.6-2.5,0.9-3.7c0.3-1.2,0.5-2.4,0.8-3.6c0.2-1.1,0.4-2.2,0.5-3.1c0-0.2,0.1-0.3,0.1-0.5
		s0-0.3,0-0.4c0-0.8-0.3-1.3-0.8-1.7c-0.5-0.4-1.4-0.6-2.7-0.6l0.4-2L1923.7,582.4z M1941.3,582.1c1.5,0,2.6,0.5,3.4,1.4
		c0.8,1,1.2,2.2,1.2,3.8c0,0.4,0,0.9-0.1,1.3c-0.1,0.4-0.2,0.8-0.3,1.2l0.4,0.1c1.9-2.6,3.8-4.6,5.7-5.9c1.9-1.3,3.8-2,5.8-2
		c2.1,0,3.7,0.5,4.7,1.6c1.1,1.1,1.6,2.7,1.6,4.8c0,0.2,0,0.4,0,0.5c0,0.2,0,0.3-0.1,0.5h0.1c1.8-2.5,3.7-4.4,5.5-5.6
		c1.8-1.2,3.7-1.8,5.7-1.8c2.1,0,3.7,0.6,4.7,1.7c1,1.1,1.6,2.7,1.6,4.8c0,0.6-0.1,1.4-0.3,2.5c-0.2,1-0.4,2.2-0.7,3.4
		c-0.3,1.3-0.6,2.5-0.9,3.9c-0.3,1.3-0.7,2.6-1,3.8c-0.2,0.8-0.3,1.4-0.4,1.9c-0.1,0.5-0.2,0.9-0.3,1.2c-0.1,0.3-0.1,0.6-0.1,0.8
		c0,0.2,0,0.5,0,0.8c0,0.8,0.1,1.3,0.4,1.6c0.3,0.3,0.7,0.5,1.3,0.5c0.3,0,0.7-0.1,1.1-0.2c0.4-0.1,0.7-0.4,1.2-0.7
		c0.4-0.3,0.8-0.7,1.3-1.1c0.5-0.5,1-1,1.6-1.7l2.1,2c-0.9,1-1.8,1.8-2.7,2.6c-0.8,0.7-1.6,1.3-2.4,1.8c-0.8,0.5-1.5,0.8-2.3,1
		c-0.8,0.2-1.5,0.3-2.4,0.3c-0.8,0-1.4-0.1-2.1-0.4c-0.6-0.3-1.1-0.7-1.6-1.1c-0.4-0.5-0.8-1.1-1-1.7c-0.2-0.7-0.4-1.4-0.4-2.2
		c0-1.6,0.4-3.7,1-6.3c0.4-1.3,0.7-2.5,1-3.7c0.3-1.2,0.6-2.3,0.8-3.3c0.2-1,0.4-1.9,0.5-2.7c0.1-0.8,0.2-1.4,0.2-2
		c0-1.2-0.2-2.1-0.7-2.7c-0.5-0.6-1.2-0.9-2.2-0.9c-0.6,0-1.3,0.2-2,0.5c-0.7,0.3-1.4,0.8-2.1,1.3c-0.7,0.6-1.4,1.2-2.1,2
		c-0.7,0.8-1.3,1.6-1.9,2.5c-0.6,0.9-1.1,1.9-1.5,2.8c-0.4,1-0.8,2-1,3l-2.9,14.2h-5.8c0.3-1.3,0.6-2.6,0.9-4.1
		c0.3-1.5,0.7-2.9,1.1-4.4c0.4-1.5,0.7-3,1-4.4c0.3-1.4,0.6-2.8,0.9-4.1c0.3-1.3,0.5-2.4,0.6-3.4c0.2-1,0.2-1.8,0.2-2.4
		c0-1.3-0.2-2.2-0.7-2.8s-1.3-0.9-2.3-0.9c-0.9,0-2,0.4-3.1,1.1c-1.1,0.7-2.1,1.7-3.1,2.8c-1,1.2-1.9,2.5-2.6,3.9
		c-0.8,1.5-1.3,2.9-1.6,4.4l-3,14.2h-5.8l4.5-19.4c0.3-1.1,0.4-2,0.6-2.8c0.1-0.8,0.2-1.4,0.2-2c0-1.4-0.6-2.2-1.8-2.2
		c-0.4,0-0.7,0.1-1.1,0.2s-0.8,0.4-1.2,0.7c-0.4,0.3-0.8,0.7-1.3,1.1c-0.5,0.5-1,1-1.6,1.6l-2-1.9c1-1,1.9-1.9,2.7-2.6
		c0.8-0.7,1.6-1.3,2.4-1.8c0.8-0.5,1.5-0.8,2.3-1C1939.7,582.2,1940.5,582.1,1941.3,582.1z M1922,570.4h5.9l-1.5,6.4h-5.9
		L1922,570.4z"/>
	<path d="M1860.9,566.1l-338.4,75.1l1.5,6.7l338.4-75.1L1860.9,566.1z M1524.8,630.2l-23.9,19.4l29.8,7.5L1524.8,630.2z"/>
	<text transform="matrix(1 0 0 1 718.2028 287)" class="st3 st11">Representation of Stochastic Block Model </text>
	<path class="st10" d="M2290.2,559.5c-2.5,0-4.8,1.1-6.9,3.3c-2.1,2.2-3.8,5.2-5.1,9c-1.3,3.8-1.9,7.7-1.9,11.6
		c0,2.7,0.4,4.8,1.2,6.1c0.8,1.3,2,2,3.6,2c2.3,0,4.7-1.4,7.2-4.1c2.5-2.7,4.7-6.5,6.8-11.4c0.5-2.8,0.7-5.3,0.7-7.5
		c0-3.1-0.4-5.4-1.3-6.8C2293.5,560.2,2292.1,559.5,2290.2,559.5z M2290.5,556.3c3,0,5.4,0.9,7.1,2.8c1.7,1.9,2.7,4.7,2.9,8.3l0.4,0
		l5.3-10.5h7l-0.4,2.1c-3.4,4.5-7.3,10.1-11.8,16.7c-0.7,5.2-1,8.8-1,10.9c0,1.8,0.2,3.1,0.6,3.8c0.4,0.8,1.1,1.2,2,1.2
		c0.8,0,1.6-0.3,2.6-1c1-0.6,2-1.6,3.1-2.9l2.4,2.2c-2.3,2.4-4.3,4.1-5.9,5c-1.7,0.9-3.4,1.4-5.2,1.4c-3.6,0-5.4-2.6-5.4-7.9
		c0-1.2,0.1-2.4,0.2-3.8h-0.4c-2.8,4.2-5.4,7.2-7.9,9c-2.5,1.8-5.2,2.7-8,2.7c-2,0-3.6-0.6-5-1.7c-1.3-1.1-2.3-2.6-3-4.5
		c-0.6-1.9-1-3.9-1-6.1c0-4.8,0.9-9.4,2.8-13.8c1.8-4.3,4.4-7.7,7.7-10.2S2286.4,556.3,2290.5,556.3z"/>
	<path class="st10" d="M2324.9,582.1c1.5,0,2.6,0.5,3.4,1.4c0.8,1,1.2,2.2,1.2,3.8c0,0.4,0,0.9-0.1,1.3s-0.2,0.8-0.3,1.2l0.4,0.1
		c1.9-2.6,3.8-4.6,5.7-5.9c1.9-1.3,3.8-2,5.8-2c2.1,0,3.7,0.5,4.7,1.6c1,1.1,1.6,2.7,1.6,4.8c0,0.2,0,0.4,0,0.5c0,0.2,0,0.3-0.1,0.5
		h0.1c1.9-2.5,3.7-4.4,5.5-5.6c1.8-1.2,3.7-1.8,5.7-1.8c2.1,0,3.7,0.6,4.7,1.7c1,1.1,1.6,2.7,1.6,4.8c0,0.6-0.1,1.4-0.3,2.5
		c-0.2,1-0.5,2.2-0.7,3.4c-0.3,1.3-0.6,2.5-0.9,3.9c-0.3,1.3-0.7,2.6-0.9,3.8c-0.2,0.8-0.3,1.4-0.4,1.9c-0.1,0.5-0.2,0.9-0.3,1.2
		s-0.1,0.6-0.1,0.8s0,0.5,0,0.8c0,0.8,0.1,1.3,0.4,1.6c0.3,0.3,0.7,0.5,1.3,0.5c0.4,0,0.7-0.1,1.1-0.2c0.4-0.1,0.7-0.4,1.1-0.7
		c0.4-0.3,0.9-0.7,1.3-1.1c0.5-0.5,1-1,1.6-1.7l2.1,2c-1,1-1.8,1.8-2.7,2.6c-0.8,0.7-1.6,1.3-2.4,1.8c-0.8,0.5-1.5,0.8-2.3,1
		c-0.8,0.2-1.6,0.3-2.4,0.3c-0.8,0-1.4-0.1-2.1-0.4c-0.6-0.3-1.1-0.7-1.6-1.1c-0.4-0.5-0.8-1.1-1-1.7c-0.2-0.7-0.4-1.4-0.4-2.2
		c0-1.6,0.4-3.7,1.1-6.3c0.4-1.3,0.7-2.5,1-3.7c0.3-1.2,0.6-2.3,0.8-3.3c0.2-1,0.4-1.9,0.5-2.7c0.1-0.8,0.2-1.4,0.2-2
		c0-1.2-0.2-2.1-0.7-2.7c-0.5-0.6-1.2-0.9-2.2-0.9c-0.6,0-1.3,0.2-2,0.5c-0.7,0.3-1.4,0.8-2.1,1.3c-0.7,0.6-1.4,1.2-2.1,2
		c-0.7,0.8-1.3,1.6-1.9,2.5c-0.6,0.9-1.1,1.9-1.5,2.8c-0.5,1-0.8,2-1,3l-2.9,14.2h-5.8c0.3-1.3,0.6-2.6,0.9-4.1
		c0.3-1.5,0.7-2.9,1.1-4.4c0.4-1.5,0.7-3,1-4.4c0.3-1.4,0.6-2.8,0.9-4.1c0.3-1.3,0.5-2.4,0.6-3.4c0.2-1,0.2-1.8,0.2-2.4
		c0-1.3-0.2-2.2-0.7-2.8c-0.5-0.6-1.3-0.9-2.3-0.9c-0.9,0-2,0.4-3.1,1.1c-1.1,0.7-2.1,1.7-3.1,2.8c-1,1.2-1.9,2.5-2.6,3.9
		c-0.8,1.5-1.3,2.9-1.6,4.4l-3,14.2h-5.8l4.5-19.4c0.3-1.1,0.5-2,0.6-2.8c0.1-0.8,0.2-1.4,0.2-2c0-1.4-0.6-2.2-1.8-2.2
		c-0.4,0-0.7,0.1-1.1,0.2c-0.4,0.1-0.8,0.4-1.2,0.7c-0.4,0.3-0.8,0.7-1.3,1.1c-0.5,0.5-1,1-1.6,1.6l-2.1-1.9c1-1,1.9-1.9,2.7-2.6
		c0.8-0.7,1.6-1.3,2.4-1.8c0.8-0.5,1.5-0.8,2.3-1C2323.4,582.2,2324.1,582.1,2324.9,582.1z"/>
	<path d="M2255.3,566.1l-230.5,0v6.9l230.5,0V566.1z M2029.4,555.8l-27.5,13.8l27.5,13.7V555.8z"/>
	<path class="st10" d="M2280,1207.9h33.3l-1.2,5.3h-9.6l-4.6,20.3c-0.6,2.7-0.9,4.7-0.9,6c0,1.1,0.2,1.9,0.5,2.3
		c0.4,0.5,0.9,0.7,1.7,0.7c1.6,0,3.5-1.3,5.7-3.9l2.4,2.2c-2.1,2.2-3.9,3.9-5.6,4.9s-3.5,1.5-5.4,1.5c-1.8,0-3.3-0.6-4.3-1.9
		c-1.1-1.3-1.6-2.9-1.6-5c0-1.8,0.4-4.4,1.1-7.9l0.9-4.1c0.5-2.2,1.1-4.8,2-7.8c0.9-3.1,1.6-5.4,2.2-7.1l-0.2-0.4h-11.9l-5,23.1
		c-0.4,1.8-0.9,3.8-1.4,5.8c-0.5,2.1-1,3.6-1.3,4.5h-8.6l0.4-2c2.9-2.8,5.5-9.5,7.9-19.9l2.7-11.5h-1.3c-1.9,0-3.5,0.3-4.9,1
		c-1.3,0.7-2.8,2-4.3,3.9l-2.6-2.2c1.4-1.7,2.6-3,3.4-3.9c0.9-0.9,1.8-1.7,2.8-2.3c1-0.6,2.1-1.1,3.3-1.4
		C2276.9,1208,2278.4,1207.9,2280,1207.9z"/>
	<path d="M2252.1,1221.4l-200.6-380l6.1-3.2l200.6,380L2252.1,1221.4z M2044.6,850.2l-0.7-30.7l25,17.9L2044.6,850.2z"/>
	<path d="M2255.6,1223.1l-201.9-5.5l0.2-6.9l201.9,5.5L2255.6,1223.1z M2058,1228l-27.1-14.5l27.9-13L2058,1228z"/>
	<path d="M2252,1218.9l-231.5,441.6l6.1,3.2l231.5-441.6L2252,1218.9z M2013.5,1651.6l-0.6,30.7l24.9-18L2013.5,1651.6z"/>
</g>
</svg>
