<?xml version="1.0" encoding="utf-8" standalone="no"?>
<!DOCTYPE svg PUBLIC "-//W3C//DTD SVG 1.1//EN"
        "http://www.w3.org/Graphics/SVG/1.1/DTD/svg11.dtd">
<svg xmlns:xlink="http://www.w3.org/1999/xlink" width="720pt" height="720pt" viewBox="0 0 720 720"
     xmlns="http://www.w3.org/2000/svg" version="1.1">
    <metadata>
        <rdf:RDF xmlns:dc="http://purl.org/dc/elements/1.1/" xmlns:cc="http://creativecommons.org/ns#"
                 xmlns:rdf="http://www.w3.org/1999/02/22-rdf-syntax-ns#">
            <cc:Work>
                <dc:type rdf:resource="http://purl.org/dc/dcmitype/StillImage"/>
                <dc:date>2022-06-10T17:50:35.386267</dc:date>
                <dc:format>image/svg+xml</dc:format>
                <dc:creator>
                    <cc:Agent>
                        <dc:title>Matplotlib v3.5.1, https://matplotlib.org/</dc:title>
                    </cc:Agent>
                </dc:creator>
            </cc:Work>
        </rdf:RDF>
    </metadata>
    <defs>
        <style type="text/css">*{stroke-linejoin: round; stroke-linecap: butt}</style>
    </defs>
    <g id="figure_1">
        <g id="patch_1">
            <path d="M 0 720
L 720 720 
L 720 0 
L 0 0 
z
" style="fill: #ffffff"/>
        </g>
        <g id="axes_1">
            <g id="patch_2">
                <path d="M 600.416547 343.636882
C 600.416547 301.96345 588.669558 261.121986 566.528654 225.816812 
C 544.387751 190.511637 512.736976 162.152417 475.222021 144.005705 
C 437.707067 125.858994 395.82583 118.649353 354.402397 123.207225 
C 312.978965 127.765097 273.667292 143.908495 240.99549 169.777943 
L 378.656547 343.636882 
L 600.416547 343.636882 
z
" style="fill: #1f77b4"/>
            </g>
            <g id="patch_3">
                <path d="M 231.338943 189.74106
C 207.735939 208.429857 188.184044 231.730896 173.877787 258.220591 
C 159.571531 284.710286 150.808319 313.837956 148.123544 343.824034 
C 145.438769 373.810113 148.888242 404.031234 158.261218 432.641026 
C 167.634194 461.250819 182.735821 487.654529 202.64346 510.23901 
L 369 363.6 
L 231.338943 189.74106 
z
" style="fill: #ff7f0e"/>
            </g>
            <g id="patch_4">
                <path d="M 202.64346 510.23901
C 217.618491 527.227629 235.107906 541.822528 254.502378 553.515224 
C 273.89685 565.207919 294.9685 573.861027 316.983197 579.173073 
L 369 363.6 
L 202.64346 510.23901 
z
" style="fill: #2ca02c"/>
            </g>
            <g id="patch_5">
                <path d="M 316.983197 579.173073
C 334.894961 583.4951 353.275769 585.56792 371.700233 585.34356 
C 390.124697 585.1192 408.449579 582.599405 426.250786 577.842491 
L 369 363.6 
L 316.983197 579.173073 
z
" style="fill: #d62728"/>
            </g>
            <g id="patch_6">
                <path d="M 426.250786 577.842491
C 433.788981 575.828103 441.21561 573.417267 448.499681 570.620043 
C 455.783751 567.82282 462.915116 564.643106 469.864016 561.094172 
L 369 363.6 
L 426.250786 577.842491 
z
" style="fill: #9467bd"/>
            </g>
            <g id="patch_7">
                <path d="M 469.864016 561.094172
C 476.456409 557.727312 482.87609 554.032479 489.098944 550.023554 
C 495.321797 546.014628 501.340022 541.696635 507.131011 537.085796 
L 369 363.6 
L 469.864016 561.094172 
z
" style="fill: #8c564b"/>
            </g>
            <g id="patch_8">
                <path d="M 507.131011 537.085796
C 512.295726 532.973601 517.274235 528.632825 522.051659 524.076439 
C 526.829082 519.520053 531.400657 514.752601 535.75272 509.788331 
L 369 363.6 
L 507.131011 537.085796 
z
" style="fill: #e377c2"/>
            </g>
            <g id="patch_9">
                <path d="M 535.75272 509.788331
C 539.709027 505.275488 543.480506 500.6039 547.057843 495.785106 
C 550.635179 490.966312 554.015424 486.004283 557.190229 480.911275 
L 369 363.6 
L 535.75272 509.788331 
z
" style="fill: #7f7f7f"/>
            </g>
            <g id="patch_10">
                <path d="M 557.190229 480.911275
C 559.941632 476.497486 562.536904 471.988266 564.971227 467.391982 
C 567.405551 462.795699 569.677421 458.115196 571.78262 453.359158 
L 369 363.6 
L 557.190229 480.911275 
z
" style="fill: #bcbd22"/>
            </g>
            <g id="patch_11">
                <path d="M 571.78262 453.359158
C 573.401937 449.700822 574.921958 445.999335 576.341015 442.258763 
C 577.760073 438.51819 579.077647 434.739901 580.292291 430.928044 
L 369 363.6 
L 571.78262 453.359158 
z
" style="fill: #17becf"/>
            </g>
            <g id="patch_12">
                <path d="M 580.292291 430.928044
C 581.32472 427.688021 582.282488 424.424679 583.164834 421.140608 
C 584.04718 417.856536 584.853871 414.552603 585.584266 411.231431 
L 369 363.6 
L 580.292291 430.928044 
z
" style="fill: #1f77b4"/>
            </g>
            <g id="patch_13">
                <path d="M 585.584266 411.231431
C 586.314662 407.910259 586.968569 404.572726 587.545468 401.221481 
C 588.122368 397.870235 588.622108 394.506163 589.044292 391.131934 
L 369 363.6 
L 585.584266 411.231431 
z
" style="fill: #ff7f0e"/>
            </g>
            <g id="patch_14">
                <path d="M 589.044292 391.131934
C 589.342297 388.750177 589.601612 386.36374 589.822135 383.973564 
C 590.042659 381.583389 590.22436 379.18979 590.367169 376.793715 
L 369 363.6 
L 589.044292 391.131934 
z
" style="fill: #2ca02c"/>
            </g>
            <g id="patch_15">
                <path d="M 590.367169 376.793715
C 590.498076 374.597321 590.596288 372.3991 590.66177 370.199783 
C 590.727253 368.000466 590.76 365.800296 590.76 363.600004 
L 369 363.6 
L 590.367169 376.793715 
z
" style="fill: #d62728"/>
            </g>
            <g id="matplotlib.axis_1"/>
            <g id="matplotlib.axis_2"/>
            <g id="text_1">
                <!-- Metabolic -->
                <g transform="translate(484.878569 129.561338)scale(0.2 -0.2)">
                    <defs>
                        <path id="DejaVuSans-4d" d="M 628 4666
L 1569 4666 
L 2759 1491 
L 3956 4666 
L 4897 4666 
L 4897 0 
L 4281 0 
L 4281 4097 
L 3078 897 
L 2444 897 
L 1241 4097 
L 1241 0 
L 628 0 
L 628 4666 
z
" transform="scale(0.015625)"/>
                        <path id="DejaVuSans-65" d="M 3597 1894
L 3597 1613 
L 953 1613 
Q 991 1019 1311 708 
Q 1631 397 2203 397 
Q 2534 397 2845 478 
Q 3156 559 3463 722 
L 3463 178 
Q 3153 47 2828 -22 
Q 2503 -91 2169 -91 
Q 1331 -91 842 396 
Q 353 884 353 1716 
Q 353 2575 817 3079 
Q 1281 3584 2069 3584 
Q 2775 3584 3186 3129 
Q 3597 2675 3597 1894 
z
M 3022 2063 
Q 3016 2534 2758 2815 
Q 2500 3097 2075 3097 
Q 1594 3097 1305 2825 
Q 1016 2553 972 2059 
L 3022 2063 
z
" transform="scale(0.015625)"/>
                        <path id="DejaVuSans-74" d="M 1172 4494
L 1172 3500 
L 2356 3500 
L 2356 3053 
L 1172 3053 
L 1172 1153 
Q 1172 725 1289 603 
Q 1406 481 1766 481 
L 2356 481 
L 2356 0 
L 1766 0 
Q 1100 0 847 248 
Q 594 497 594 1153 
L 594 3053 
L 172 3053 
L 172 3500 
L 594 3500 
L 594 4494 
L 1172 4494 
z
" transform="scale(0.015625)"/>
                        <path id="DejaVuSans-61" d="M 2194 1759
Q 1497 1759 1228 1600 
Q 959 1441 959 1056 
Q 959 750 1161 570 
Q 1363 391 1709 391 
Q 2188 391 2477 730 
Q 2766 1069 2766 1631 
L 2766 1759 
L 2194 1759 
z
M 3341 1997 
L 3341 0 
L 2766 0 
L 2766 531 
Q 2569 213 2275 61 
Q 1981 -91 1556 -91 
Q 1019 -91 701 211 
Q 384 513 384 1019 
Q 384 1609 779 1909 
Q 1175 2209 1959 2209 
L 2766 2209 
L 2766 2266 
Q 2766 2663 2505 2880 
Q 2244 3097 1772 3097 
Q 1472 3097 1187 3025 
Q 903 2953 641 2809 
L 641 3341 
Q 956 3463 1253 3523 
Q 1550 3584 1831 3584 
Q 2591 3584 2966 3190 
Q 3341 2797 3341 1997 
z
" transform="scale(0.015625)"/>
                        <path id="DejaVuSans-62" d="M 3116 1747
Q 3116 2381 2855 2742 
Q 2594 3103 2138 3103 
Q 1681 3103 1420 2742 
Q 1159 2381 1159 1747 
Q 1159 1113 1420 752 
Q 1681 391 2138 391 
Q 2594 391 2855 752 
Q 3116 1113 3116 1747 
z
M 1159 2969 
Q 1341 3281 1617 3432 
Q 1894 3584 2278 3584 
Q 2916 3584 3314 3078 
Q 3713 2572 3713 1747 
Q 3713 922 3314 415 
Q 2916 -91 2278 -91 
Q 1894 -91 1617 61 
Q 1341 213 1159 525 
L 1159 0 
L 581 0 
L 581 4863 
L 1159 4863 
L 1159 2969 
z
" transform="scale(0.015625)"/>
                        <path id="DejaVuSans-6f" d="M 1959 3097
Q 1497 3097 1228 2736 
Q 959 2375 959 1747 
Q 959 1119 1226 758 
Q 1494 397 1959 397 
Q 2419 397 2687 759 
Q 2956 1122 2956 1747 
Q 2956 2369 2687 2733 
Q 2419 3097 1959 3097 
z
M 1959 3584 
Q 2709 3584 3137 3096 
Q 3566 2609 3566 1747 
Q 3566 888 3137 398 
Q 2709 -91 1959 -91 
Q 1206 -91 779 398 
Q 353 888 353 1747 
Q 353 2609 779 3096 
Q 1206 3584 1959 3584 
z
" transform="scale(0.015625)"/>
                        <path id="DejaVuSans-6c" d="M 603 4863
L 1178 4863 
L 1178 0 
L 603 0 
L 603 4863 
z
" transform="scale(0.015625)"/>
                        <path id="DejaVuSans-69" d="M 603 3500
L 1178 3500 
L 1178 0 
L 603 0 
L 603 3500 
z
M 603 4863 
L 1178 4863 
L 1178 4134 
L 603 4134 
L 603 4863 
z
" transform="scale(0.015625)"/>
                        <path id="DejaVuSans-63" d="M 3122 3366
L 3122 2828 
Q 2878 2963 2633 3030 
Q 2388 3097 2138 3097 
Q 1578 3097 1268 2742 
Q 959 2388 959 1747 
Q 959 1106 1268 751 
Q 1578 397 2138 397 
Q 2388 397 2633 464 
Q 2878 531 3122 666 
L 3122 134 
Q 2881 22 2623 -34 
Q 2366 -91 2075 -91 
Q 1284 -91 818 406 
Q 353 903 353 1747 
Q 353 2603 823 3093 
Q 1294 3584 2113 3584 
Q 2378 3584 2631 3529 
Q 2884 3475 3122 3366 
z
" transform="scale(0.015625)"/>
                    </defs>
                    <use xlink:href="#DejaVuSans-4d"/>
                    <use xlink:href="#DejaVuSans-65" x="86.279297"/>
                    <use xlink:href="#DejaVuSans-74" x="147.802734"/>
                    <use xlink:href="#DejaVuSans-61" x="187.011719"/>
                    <use xlink:href="#DejaVuSans-62" x="248.291016"/>
                    <use xlink:href="#DejaVuSans-6f" x="311.767578"/>
                    <use xlink:href="#DejaVuSans-6c" x="372.949219"/>
                    <use xlink:href="#DejaVuSans-69" x="400.732422"/>
                    <use xlink:href="#DejaVuSans-63" x="428.515625"/>
                </g>
            </g>
            <g id="text_2">
                <!-- Immunological -->
                <g transform="translate(-21.270352 347.365188)scale(0.2 -0.2)">
                    <defs>
                        <path id="DejaVuSans-49" d="M 628 4666
L 1259 4666 
L 1259 0 
L 628 0 
L 628 4666 
z
" transform="scale(0.015625)"/>
                        <path id="DejaVuSans-6d" d="M 3328 2828
Q 3544 3216 3844 3400 
Q 4144 3584 4550 3584 
Q 5097 3584 5394 3201 
Q 5691 2819 5691 2113 
L 5691 0 
L 5113 0 
L 5113 2094 
Q 5113 2597 4934 2840 
Q 4756 3084 4391 3084 
Q 3944 3084 3684 2787 
Q 3425 2491 3425 1978 
L 3425 0 
L 2847 0 
L 2847 2094 
Q 2847 2600 2669 2842 
Q 2491 3084 2119 3084 
Q 1678 3084 1418 2786 
Q 1159 2488 1159 1978 
L 1159 0 
L 581 0 
L 581 3500 
L 1159 3500 
L 1159 2956 
Q 1356 3278 1631 3431 
Q 1906 3584 2284 3584 
Q 2666 3584 2933 3390 
Q 3200 3197 3328 2828 
z
" transform="scale(0.015625)"/>
                        <path id="DejaVuSans-75" d="M 544 1381
L 544 3500 
L 1119 3500 
L 1119 1403 
Q 1119 906 1312 657 
Q 1506 409 1894 409 
Q 2359 409 2629 706 
Q 2900 1003 2900 1516 
L 2900 3500 
L 3475 3500 
L 3475 0 
L 2900 0 
L 2900 538 
Q 2691 219 2414 64 
Q 2138 -91 1772 -91 
Q 1169 -91 856 284 
Q 544 659 544 1381 
z
M 1991 3584 
L 1991 3584 
z
" transform="scale(0.015625)"/>
                        <path id="DejaVuSans-6e" d="M 3513 2113
L 3513 0 
L 2938 0 
L 2938 2094 
Q 2938 2591 2744 2837 
Q 2550 3084 2163 3084 
Q 1697 3084 1428 2787 
Q 1159 2491 1159 1978 
L 1159 0 
L 581 0 
L 581 3500 
L 1159 3500 
L 1159 2956 
Q 1366 3272 1645 3428 
Q 1925 3584 2291 3584 
Q 2894 3584 3203 3211 
Q 3513 2838 3513 2113 
z
" transform="scale(0.015625)"/>
                        <path id="DejaVuSans-67" d="M 2906 1791
Q 2906 2416 2648 2759 
Q 2391 3103 1925 3103 
Q 1463 3103 1205 2759 
Q 947 2416 947 1791 
Q 947 1169 1205 825 
Q 1463 481 1925 481 
Q 2391 481 2648 825 
Q 2906 1169 2906 1791 
z
M 3481 434 
Q 3481 -459 3084 -895 
Q 2688 -1331 1869 -1331 
Q 1566 -1331 1297 -1286 
Q 1028 -1241 775 -1147 
L 775 -588 
Q 1028 -725 1275 -790 
Q 1522 -856 1778 -856 
Q 2344 -856 2625 -561 
Q 2906 -266 2906 331 
L 2906 616 
Q 2728 306 2450 153 
Q 2172 0 1784 0 
Q 1141 0 747 490 
Q 353 981 353 1791 
Q 353 2603 747 3093 
Q 1141 3584 1784 3584 
Q 2172 3584 2450 3431 
Q 2728 3278 2906 2969 
L 2906 3500 
L 3481 3500 
L 3481 434 
z
" transform="scale(0.015625)"/>
                    </defs>
                    <use xlink:href="#DejaVuSans-49"/>
                    <use xlink:href="#DejaVuSans-6d" x="29.492188"/>
                    <use xlink:href="#DejaVuSans-6d" x="126.904297"/>
                    <use xlink:href="#DejaVuSans-75" x="224.316406"/>
                    <use xlink:href="#DejaVuSans-6e" x="287.695312"/>
                    <use xlink:href="#DejaVuSans-6f" x="351.074219"/>
                    <use xlink:href="#DejaVuSans-6c" x="412.255859"/>
                    <use xlink:href="#DejaVuSans-6f" x="440.039062"/>
                    <use xlink:href="#DejaVuSans-67" x="501.220703"/>
                    <use xlink:href="#DejaVuSans-69" x="564.697266"/>
                    <use xlink:href="#DejaVuSans-63" x="592.480469"/>
                    <use xlink:href="#DejaVuSans-61" x="647.460938"/>
                    <use xlink:href="#DejaVuSans-6c" x="708.740234"/>
                </g>
            </g>
            <g id="text_3">
                <!-- Psychiatric -->
                <g transform="translate(134.986991 578.025496)scale(0.2 -0.2)">
                    <defs>
                        <path id="DejaVuSans-50" d="M 1259 4147
L 1259 2394 
L 2053 2394 
Q 2494 2394 2734 2622 
Q 2975 2850 2975 3272 
Q 2975 3691 2734 3919 
Q 2494 4147 2053 4147 
L 1259 4147 
z
M 628 4666 
L 2053 4666 
Q 2838 4666 3239 4311 
Q 3641 3956 3641 3272 
Q 3641 2581 3239 2228 
Q 2838 1875 2053 1875 
L 1259 1875 
L 1259 0 
L 628 0 
L 628 4666 
z
" transform="scale(0.015625)"/>
                        <path id="DejaVuSans-73" d="M 2834 3397
L 2834 2853 
Q 2591 2978 2328 3040 
Q 2066 3103 1784 3103 
Q 1356 3103 1142 2972 
Q 928 2841 928 2578 
Q 928 2378 1081 2264 
Q 1234 2150 1697 2047 
L 1894 2003 
Q 2506 1872 2764 1633 
Q 3022 1394 3022 966 
Q 3022 478 2636 193 
Q 2250 -91 1575 -91 
Q 1294 -91 989 -36 
Q 684 19 347 128 
L 347 722 
Q 666 556 975 473 
Q 1284 391 1588 391 
Q 1994 391 2212 530 
Q 2431 669 2431 922 
Q 2431 1156 2273 1281 
Q 2116 1406 1581 1522 
L 1381 1569 
Q 847 1681 609 1914 
Q 372 2147 372 2553 
Q 372 3047 722 3315 
Q 1072 3584 1716 3584 
Q 2034 3584 2315 3537 
Q 2597 3491 2834 3397 
z
" transform="scale(0.015625)"/>
                        <path id="DejaVuSans-79" d="M 2059 -325
Q 1816 -950 1584 -1140 
Q 1353 -1331 966 -1331 
L 506 -1331 
L 506 -850 
L 844 -850 
Q 1081 -850 1212 -737 
Q 1344 -625 1503 -206 
L 1606 56 
L 191 3500 
L 800 3500 
L 1894 763 
L 2988 3500 
L 3597 3500 
L 2059 -325 
z
" transform="scale(0.015625)"/>
                        <path id="DejaVuSans-68" d="M 3513 2113
L 3513 0 
L 2938 0 
L 2938 2094 
Q 2938 2591 2744 2837 
Q 2550 3084 2163 3084 
Q 1697 3084 1428 2787 
Q 1159 2491 1159 1978 
L 1159 0 
L 581 0 
L 581 4863 
L 1159 4863 
L 1159 2956 
Q 1366 3272 1645 3428 
Q 1925 3584 2291 3584 
Q 2894 3584 3203 3211 
Q 3513 2838 3513 2113 
z
" transform="scale(0.015625)"/>
                        <path id="DejaVuSans-72" d="M 2631 2963
Q 2534 3019 2420 3045 
Q 2306 3072 2169 3072 
Q 1681 3072 1420 2755 
Q 1159 2438 1159 1844 
L 1159 0 
L 581 0 
L 581 3500 
L 1159 3500 
L 1159 2956 
Q 1341 3275 1631 3429 
Q 1922 3584 2338 3584 
Q 2397 3584 2469 3576 
Q 2541 3569 2628 3553 
L 2631 2963 
z
" transform="scale(0.015625)"/>
                    </defs>
                    <use xlink:href="#DejaVuSans-50"/>
                    <use xlink:href="#DejaVuSans-73" x="58.552734"/>
                    <use xlink:href="#DejaVuSans-79" x="110.652344"/>
                    <use xlink:href="#DejaVuSans-63" x="169.832031"/>
                    <use xlink:href="#DejaVuSans-68" x="224.8125"/>
                    <use xlink:href="#DejaVuSans-69" x="288.191406"/>
                    <use xlink:href="#DejaVuSans-61" x="315.974609"/>
                    <use xlink:href="#DejaVuSans-74" x="377.253906"/>
                    <use xlink:href="#DejaVuSans-72" x="416.462891"/>
                    <use xlink:href="#DejaVuSans-69" x="457.576172"/>
                    <use xlink:href="#DejaVuSans-63" x="485.359375"/>
                </g>
            </g>
            <g id="text_4">
                <!-- Skeletal -->
                <g transform="translate(371.970256 613.036666)scale(0.2 -0.2)">
                    <defs>
                        <path id="DejaVuSans-53" d="M 3425 4513
L 3425 3897 
Q 3066 4069 2747 4153 
Q 2428 4238 2131 4238 
Q 1616 4238 1336 4038 
Q 1056 3838 1056 3469 
Q 1056 3159 1242 3001 
Q 1428 2844 1947 2747 
L 2328 2669 
Q 3034 2534 3370 2195 
Q 3706 1856 3706 1288 
Q 3706 609 3251 259 
Q 2797 -91 1919 -91 
Q 1588 -91 1214 -16 
Q 841 59 441 206 
L 441 856 
Q 825 641 1194 531 
Q 1563 422 1919 422 
Q 2459 422 2753 634 
Q 3047 847 3047 1241 
Q 3047 1584 2836 1778 
Q 2625 1972 2144 2069 
L 1759 2144 
Q 1053 2284 737 2584 
Q 422 2884 422 3419 
Q 422 4038 858 4394 
Q 1294 4750 2059 4750 
Q 2388 4750 2728 4690 
Q 3069 4631 3425 4513 
z
" transform="scale(0.015625)"/>
                        <path id="DejaVuSans-6b" d="M 581 4863
L 1159 4863 
L 1159 1991 
L 2875 3500 
L 3609 3500 
L 1753 1863 
L 3688 0 
L 2938 0 
L 1159 1709 
L 1159 0 
L 581 0 
L 581 4863 
z
" transform="scale(0.015625)"/>
                    </defs>
                    <use xlink:href="#DejaVuSans-53"/>
                    <use xlink:href="#DejaVuSans-6b" x="63.476562"/>
                    <use xlink:href="#DejaVuSans-65" x="117.761719"/>
                    <use xlink:href="#DejaVuSans-6c" x="179.285156"/>
                    <use xlink:href="#DejaVuSans-65" x="207.068359"/>
                    <use xlink:href="#DejaVuSans-74" x="268.591797"/>
                    <use xlink:href="#DejaVuSans-61" x="307.800781"/>
                    <use xlink:href="#DejaVuSans-6c" x="369.080078"/>
                </g>
            </g>
            <g id="text_5">
                <!-- Endocrine -->
                <g transform="translate(456.449649 596.840798)scale(0.2 -0.2)">
                    <defs>
                        <path id="DejaVuSans-45" d="M 628 4666
L 3578 4666 
L 3578 4134 
L 1259 4134 
L 1259 2753 
L 3481 2753 
L 3481 2222 
L 1259 2222 
L 1259 531 
L 3634 531 
L 3634 0 
L 628 0 
L 628 4666 
z
" transform="scale(0.015625)"/>
                        <path id="DejaVuSans-64" d="M 2906 2969
L 2906 4863 
L 3481 4863 
L 3481 0 
L 2906 0 
L 2906 525 
Q 2725 213 2448 61 
Q 2172 -91 1784 -91 
Q 1150 -91 751 415 
Q 353 922 353 1747 
Q 353 2572 751 3078 
Q 1150 3584 1784 3584 
Q 2172 3584 2448 3432 
Q 2725 3281 2906 2969 
z
M 947 1747 
Q 947 1113 1208 752 
Q 1469 391 1925 391 
Q 2381 391 2643 752 
Q 2906 1113 2906 1747 
Q 2906 2381 2643 2742 
Q 2381 3103 1925 3103 
Q 1469 3103 1208 2742 
Q 947 2381 947 1747 
z
" transform="scale(0.015625)"/>
                    </defs>
                    <use xlink:href="#DejaVuSans-45"/>
                    <use xlink:href="#DejaVuSans-6e" x="63.183594"/>
                    <use xlink:href="#DejaVuSans-64" x="126.5625"/>
                    <use xlink:href="#DejaVuSans-6f" x="190.039062"/>
                    <use xlink:href="#DejaVuSans-63" x="251.220703"/>
                    <use xlink:href="#DejaVuSans-72" x="306.201172"/>
                    <use xlink:href="#DejaVuSans-69" x="347.314453"/>
                    <use xlink:href="#DejaVuSans-6e" x="375.097656"/>
                    <use xlink:href="#DejaVuSans-65" x="438.476562"/>
                </g>
            </g>
            <g id="text_6">
                <!-- Environmental -->
                <g transform="translate(501.108838 574.184659)scale(0.2 -0.2)">
                    <defs>
                        <path id="DejaVuSans-76" d="M 191 3500
L 800 3500 
L 1894 563 
L 2988 3500 
L 3597 3500 
L 2284 0 
L 1503 0 
L 191 3500 
z
" transform="scale(0.015625)"/>
                    </defs>
                    <use xlink:href="#DejaVuSans-45"/>
                    <use xlink:href="#DejaVuSans-6e" x="63.183594"/>
                    <use xlink:href="#DejaVuSans-76" x="126.5625"/>
                    <use xlink:href="#DejaVuSans-69" x="185.742188"/>
                    <use xlink:href="#DejaVuSans-72" x="213.525391"/>
                    <use xlink:href="#DejaVuSans-6f" x="252.388672"/>
                    <use xlink:href="#DejaVuSans-6e" x="313.570312"/>
                    <use xlink:href="#DejaVuSans-6d" x="376.949219"/>
                    <use xlink:href="#DejaVuSans-65" x="474.361328"/>
                    <use xlink:href="#DejaVuSans-6e" x="535.884766"/>
                    <use xlink:href="#DejaVuSans-74" x="599.263672"/>
                    <use xlink:href="#DejaVuSans-61" x="638.472656"/>
                    <use xlink:href="#DejaVuSans-6c" x="699.751953"/>
                </g>
            </g>
            <g id="text_7">
                <!-- Respiratory -->
                <g transform="translate(537.356825 545.642832)scale(0.2 -0.2)">
                    <defs>
                        <path id="DejaVuSans-52" d="M 2841 2188
Q 3044 2119 3236 1894 
Q 3428 1669 3622 1275 
L 4263 0 
L 3584 0 
L 2988 1197 
Q 2756 1666 2539 1819 
Q 2322 1972 1947 1972 
L 1259 1972 
L 1259 0 
L 628 0 
L 628 4666 
L 2053 4666 
Q 2853 4666 3247 4331 
Q 3641 3997 3641 3322 
Q 3641 2881 3436 2590 
Q 3231 2300 2841 2188 
z
M 1259 4147 
L 1259 2491 
L 2053 2491 
Q 2509 2491 2742 2702 
Q 2975 2913 2975 3322 
Q 2975 3731 2742 3939 
Q 2509 4147 2053 4147 
L 1259 4147 
z
" transform="scale(0.015625)"/>
                        <path id="DejaVuSans-70" d="M 1159 525
L 1159 -1331 
L 581 -1331 
L 581 3500 
L 1159 3500 
L 1159 2969 
Q 1341 3281 1617 3432 
Q 1894 3584 2278 3584 
Q 2916 3584 3314 3078 
Q 3713 2572 3713 1747 
Q 3713 922 3314 415 
Q 2916 -91 2278 -91 
Q 1894 -91 1617 61 
Q 1341 213 1159 525 
z
M 3116 1747 
Q 3116 2381 2855 2742 
Q 2594 3103 2138 3103 
Q 1681 3103 1420 2742 
Q 1159 2381 1159 1747 
Q 1159 1113 1420 752 
Q 1681 391 2138 391 
Q 2594 391 2855 752 
Q 3116 1113 3116 1747 
z
" transform="scale(0.015625)"/>
                    </defs>
                    <use xlink:href="#DejaVuSans-52"/>
                    <use xlink:href="#DejaVuSans-65" x="64.982422"/>
                    <use xlink:href="#DejaVuSans-73" x="126.505859"/>
                    <use xlink:href="#DejaVuSans-70" x="178.605469"/>
                    <use xlink:href="#DejaVuSans-69" x="242.082031"/>
                    <use xlink:href="#DejaVuSans-72" x="269.865234"/>
                    <use xlink:href="#DejaVuSans-61" x="310.978516"/>
                    <use xlink:href="#DejaVuSans-74" x="372.257812"/>
                    <use xlink:href="#DejaVuSans-6f" x="411.466797"/>
                    <use xlink:href="#DejaVuSans-72" x="472.648438"/>
                    <use xlink:href="#DejaVuSans-79" x="513.761719"/>
                </g>
            </g>
            <g id="text_8">
                <!-- Dermatological -->
                <g transform="translate(564.863627 514.522367)scale(0.2 -0.2)">
                    <defs>
                        <path id="DejaVuSans-44" d="M 1259 4147
L 1259 519 
L 2022 519 
Q 2988 519 3436 956 
Q 3884 1394 3884 2338 
Q 3884 3275 3436 3711 
Q 2988 4147 2022 4147 
L 1259 4147 
z
M 628 4666 
L 1925 4666 
Q 3281 4666 3915 4102 
Q 4550 3538 4550 2338 
Q 4550 1131 3912 565 
Q 3275 0 1925 0 
L 628 0 
L 628 4666 
z
" transform="scale(0.015625)"/>
                    </defs>
                    <use xlink:href="#DejaVuSans-44"/>
                    <use xlink:href="#DejaVuSans-65" x="77.001953"/>
                    <use xlink:href="#DejaVuSans-72" x="138.525391"/>
                    <use xlink:href="#DejaVuSans-6d" x="177.888672"/>
                    <use xlink:href="#DejaVuSans-61" x="275.300781"/>
                    <use xlink:href="#DejaVuSans-74" x="336.580078"/>
                    <use xlink:href="#DejaVuSans-6f" x="375.789062"/>
                    <use xlink:href="#DejaVuSans-6c" x="436.970703"/>
                    <use xlink:href="#DejaVuSans-6f" x="464.753906"/>
                    <use xlink:href="#DejaVuSans-67" x="525.935547"/>
                    <use xlink:href="#DejaVuSans-69" x="589.412109"/>
                    <use xlink:href="#DejaVuSans-63" x="617.195312"/>
                    <use xlink:href="#DejaVuSans-61" x="672.175781"/>
                    <use xlink:href="#DejaVuSans-6c" x="733.455078"/>
                </g>
            </g>
            <g id="text_9">
                <!-- Nutritional -->
                <g transform="translate(584.56835 483.289931)scale(0.2 -0.2)">
                    <defs>
                        <path id="DejaVuSans-4e" d="M 628 4666
L 1478 4666 
L 3547 763 
L 3547 4666 
L 4159 4666 
L 4159 0 
L 3309 0 
L 1241 3903 
L 1241 0 
L 628 0 
L 628 4666 
z
" transform="scale(0.015625)"/>
                    </defs>
                    <use xlink:href="#DejaVuSans-4e"/>
                    <use xlink:href="#DejaVuSans-75" x="74.804688"/>
                    <use xlink:href="#DejaVuSans-74" x="138.183594"/>
                    <use xlink:href="#DejaVuSans-72" x="177.392578"/>
                    <use xlink:href="#DejaVuSans-69" x="218.505859"/>
                    <use xlink:href="#DejaVuSans-74" x="246.289062"/>
                    <use xlink:href="#DejaVuSans-69" x="285.498047"/>
                    <use xlink:href="#DejaVuSans-6f" x="313.28125"/>
                    <use xlink:href="#DejaVuSans-6e" x="374.462891"/>
                    <use xlink:href="#DejaVuSans-61" x="437.841797"/>
                    <use xlink:href="#DejaVuSans-6c" x="499.121094"/>
                </g>
            </g>
            <g id="text_10">
                <!-- Activities -->
                <g transform="translate(597.075117 455.643389)scale(0.2 -0.2)">
                    <defs>
                        <path id="DejaVuSans-41" d="M 2188 4044
L 1331 1722 
L 3047 1722 
L 2188 4044 
z
M 1831 4666 
L 2547 4666 
L 4325 0 
L 3669 0 
L 3244 1197 
L 1141 1197 
L 716 0 
L 50 0 
L 1831 4666 
z
" transform="scale(0.015625)"/>
                    </defs>
                    <use xlink:href="#DejaVuSans-41"/>
                    <use xlink:href="#DejaVuSans-63" x="66.658203"/>
                    <use xlink:href="#DejaVuSans-74" x="121.638672"/>
                    <use xlink:href="#DejaVuSans-69" x="160.847656"/>
                    <use xlink:href="#DejaVuSans-76" x="188.630859"/>
                    <use xlink:href="#DejaVuSans-69" x="247.810547"/>
                    <use xlink:href="#DejaVuSans-74" x="275.59375"/>
                    <use xlink:href="#DejaVuSans-69" x="314.802734"/>
                    <use xlink:href="#DejaVuSans-65" x="342.585938"/>
                    <use xlink:href="#DejaVuSans-73" x="404.109375"/>
                </g>
            </g>
            <g id="text_11">
                <!-- Neurological -->
                <g transform="translate(604.581317 432.413418)scale(0.2 -0.2)">
                    <use xlink:href="#DejaVuSans-4e"/>
                    <use xlink:href="#DejaVuSans-65" x="74.804688"/>
                    <use xlink:href="#DejaVuSans-75" x="136.328125"/>
                    <use xlink:href="#DejaVuSans-72" x="199.707031"/>
                    <use xlink:href="#DejaVuSans-6f" x="238.570312"/>
                    <use xlink:href="#DejaVuSans-6c" x="299.751953"/>
                    <use xlink:href="#DejaVuSans-6f" x="327.535156"/>
                    <use xlink:href="#DejaVuSans-67" x="388.716797"/>
                    <use xlink:href="#DejaVuSans-69" x="452.193359"/>
                    <use xlink:href="#DejaVuSans-63" x="479.976562"/>
                    <use xlink:href="#DejaVuSans-61" x="534.957031"/>
                    <use xlink:href="#DejaVuSans-6c" x="596.236328"/>
                </g>
            </g>
            <g id="text_12">
                <!-- Reproduction -->
                <g transform="translate(609.400015 410.502379)scale(0.2 -0.2)">
                    <use xlink:href="#DejaVuSans-52"/>
                    <use xlink:href="#DejaVuSans-65" x="64.982422"/>
                    <use xlink:href="#DejaVuSans-70" x="126.505859"/>
                    <use xlink:href="#DejaVuSans-72" x="189.982422"/>
                    <use xlink:href="#DejaVuSans-6f" x="228.845703"/>
                    <use xlink:href="#DejaVuSans-64" x="290.027344"/>
                    <use xlink:href="#DejaVuSans-75" x="353.503906"/>
                    <use xlink:href="#DejaVuSans-63" x="416.882812"/>
                    <use xlink:href="#DejaVuSans-74" x="471.863281"/>
                    <use xlink:href="#DejaVuSans-69" x="511.072266"/>
                    <use xlink:href="#DejaVuSans-6f" x="538.855469"/>
                    <use xlink:href="#DejaVuSans-6e" x="600.037109"/>
                </g>
            </g>
            <g id="text_13">
                <!-- Cardiovascular -->
                <g transform="translate(611.904349 391.529671)scale(0.2 -0.2)">
                    <defs>
                        <path id="DejaVuSans-43" d="M 4122 4306
L 4122 3641 
Q 3803 3938 3442 4084 
Q 3081 4231 2675 4231 
Q 1875 4231 1450 3742 
Q 1025 3253 1025 2328 
Q 1025 1406 1450 917 
Q 1875 428 2675 428 
Q 3081 428 3442 575 
Q 3803 722 4122 1019 
L 4122 359 
Q 3791 134 3420 21 
Q 3050 -91 2638 -91 
Q 1578 -91 968 557 
Q 359 1206 359 2328 
Q 359 3453 968 4101 
Q 1578 4750 2638 4750 
Q 3056 4750 3426 4639 
Q 3797 4528 4122 4306 
z
" transform="scale(0.015625)"/>
                    </defs>
                    <use xlink:href="#DejaVuSans-43"/>
                    <use xlink:href="#DejaVuSans-61" x="69.824219"/>
                    <use xlink:href="#DejaVuSans-72" x="131.103516"/>
                    <use xlink:href="#DejaVuSans-64" x="170.466797"/>
                    <use xlink:href="#DejaVuSans-69" x="233.943359"/>
                    <use xlink:href="#DejaVuSans-6f" x="261.726562"/>
                    <use xlink:href="#DejaVuSans-76" x="322.908203"/>
                    <use xlink:href="#DejaVuSans-61" x="382.087891"/>
                    <use xlink:href="#DejaVuSans-73" x="443.367188"/>
                    <use xlink:href="#DejaVuSans-63" x="495.466797"/>
                    <use xlink:href="#DejaVuSans-75" x="550.447266"/>
                    <use xlink:href="#DejaVuSans-6c" x="613.826172"/>
                    <use xlink:href="#DejaVuSans-61" x="641.609375"/>
                    <use xlink:href="#DejaVuSans-72" x="702.888672"/>
                </g>
            </g>
            <g id="text_14">
                <!-- Others -->
                <g transform="translate(612.827947 376.378511)scale(0.2 -0.2)">
                    <defs>
                        <path id="DejaVuSans-4f" d="M 2522 4238
Q 1834 4238 1429 3725 
Q 1025 3213 1025 2328 
Q 1025 1447 1429 934 
Q 1834 422 2522 422 
Q 3209 422 3611 934 
Q 4013 1447 4013 2328 
Q 4013 3213 3611 3725 
Q 3209 4238 2522 4238 
z
M 2522 4750 
Q 3503 4750 4090 4092 
Q 4678 3434 4678 2328 
Q 4678 1225 4090 567 
Q 3503 -91 2522 -91 
Q 1538 -91 948 565 
Q 359 1222 359 2328 
Q 359 3434 948 4092 
Q 1538 4750 2522 4750 
z
" transform="scale(0.015625)"/>
                    </defs>
                    <use xlink:href="#DejaVuSans-4f"/>
                    <use xlink:href="#DejaVuSans-74" x="78.710938"/>
                    <use xlink:href="#DejaVuSans-68" x="117.919922"/>
                    <use xlink:href="#DejaVuSans-65" x="181.298828"/>
                    <use xlink:href="#DejaVuSans-72" x="242.822266"/>
                    <use xlink:href="#DejaVuSans-73" x="283.935547"/>
                </g>
            </g>
            <g id="text_15">
                <!-- Cluster 5 -->
                <g transform="translate(314.960625 80.4)scale(0.24 -0.24)">
                    <defs>
                        <path id="DejaVuSans-20" transform="scale(0.015625)"/>
                        <path id="DejaVuSans-35" d="M 691 4666
L 3169 4666 
L 3169 4134 
L 1269 4134 
L 1269 2991 
Q 1406 3038 1543 3061 
Q 1681 3084 1819 3084 
Q 2600 3084 3056 2656 
Q 3513 2228 3513 1497 
Q 3513 744 3044 326 
Q 2575 -91 1722 -91 
Q 1428 -91 1123 -41 
Q 819 9 494 109 
L 494 744 
Q 775 591 1075 516 
Q 1375 441 1709 441 
Q 2250 441 2565 725 
Q 2881 1009 2881 1497 
Q 2881 1984 2565 2268 
Q 2250 2553 1709 2553 
Q 1456 2553 1204 2497 
Q 953 2441 691 2322 
L 691 4666 
z
" transform="scale(0.015625)"/>
                    </defs>
                    <use xlink:href="#DejaVuSans-43"/>
                    <use xlink:href="#DejaVuSans-6c" x="69.824219"/>
                    <use xlink:href="#DejaVuSans-75" x="97.607422"/>
                    <use xlink:href="#DejaVuSans-73" x="160.986328"/>
                    <use xlink:href="#DejaVuSans-74" x="213.085938"/>
                    <use xlink:href="#DejaVuSans-65" x="252.294922"/>
                    <use xlink:href="#DejaVuSans-72" x="313.818359"/>
                    <use xlink:href="#DejaVuSans-20" x="354.931641"/>
                    <use xlink:href="#DejaVuSans-35" x="386.71875"/>
                </g>
            </g>
        </g>
    </g>
</svg>
