<?xml version="1.0" encoding="utf-8" standalone="no"?>
<!DOCTYPE svg PUBLIC "-//W3C//DTD SVG 1.1//EN"
        "http://www.w3.org/Graphics/SVG/1.1/DTD/svg11.dtd">
<svg xmlns:xlink="http://www.w3.org/1999/xlink" width="2160pt" height="720pt" viewBox="0 0 2160 720"
     xmlns="http://www.w3.org/2000/svg" version="1.1">
    <metadata>
        <rdf:RDF xmlns:dc="http://purl.org/dc/elements/1.1/" xmlns:cc="http://creativecommons.org/ns#"
                 xmlns:rdf="http://www.w3.org/1999/02/22-rdf-syntax-ns#">
            <cc:Work>
                <dc:type rdf:resource="http://purl.org/dc/dcmitype/StillImage"/>
                <dc:date>2022-06-10T17:50:37.642566</dc:date>
                <dc:format>image/svg+xml</dc:format>
                <dc:creator>
                    <cc:Agent>
                        <dc:title>Matplotlib v3.5.1, https://matplotlib.org/</dc:title>
                    </cc:Agent>
                </dc:creator>
            </cc:Work>
        </rdf:RDF>
    </metadata>
    <defs>
        <style type="text/css">*{stroke-linejoin: round; stroke-linecap: butt}</style>
    </defs>
    <g id="figure_1">
        <g id="patch_1">
            <path d="M 0 720
L 2160 720 
L 2160 0 
L 0 0 
z
" style="fill: #ffffff"/>
        </g>
        <g id="axes_1">
            <g id="patch_2">
                <path d="M 270 640.8
L 1944 640.8 
L 1944 86.4 
L 270 86.4 
z
" style="fill: #ffffff"/>
            </g>
            <g id="PolyCollection_1">
                <defs>
                    <path id="mb2d3433ba7" d="M 412.414884 -104.4
L 406.585116 -104.4 
L 405.905182 -109.452274 
L 405.103646 -114.504549 
L 404.168073 -119.556823 
L 403.0869 -124.609097 
L 401.849993 -129.661371 
L 400.449251 -134.713646 
L 398.879228 -139.76592 
L 397.137738 -144.818194 
L 395.226418 -149.870469 
L 393.151211 -154.922743 
L 390.922731 -159.975017 
L 388.556477 -165.027291 
L 386.072867 -170.079566 
L 383.497072 -175.13184 
L 380.858638 -180.184114 
L 378.190895 -185.236389 
L 375.530156 -190.288663 
L 372.914751 -195.340937 
L 370.383906 -200.393211 
L 367.976531 -205.445486 
L 365.729962 -210.49776 
L 363.678724 -215.550034 
L 361.853362 -220.602309 
L 360.27941 -225.654583 
L 358.976539 -230.706857 
L 357.957943 -235.759131 
L 357.22997 -240.811406 
L 356.792042 -245.86368 
L 356.636842 -250.915954 
L 356.750778 -255.968229 
L 357.114681 -261.020503 
L 357.704712 -266.072777 
L 358.493416 -271.125051 
L 359.450889 -276.177326 
L 360.545973 -281.2296 
L 361.747442 -286.281874 
L 363.025113 -291.334149 
L 364.350833 -296.386423 
L 365.699297 -301.438697 
L 367.048678 -306.490971 
L 368.381029 -311.543246 
L 369.682478 -316.59552 
L 370.943192 -321.647794 
L 372.157157 -326.700069 
L 373.321779 -331.752343 
L 374.437349 -336.804617 
L 375.506425 -341.856891 
L 376.533152 -346.909166 
L 377.522586 -351.96144 
L 378.480048 -357.013714 
L 379.41055 -362.065989 
L 380.318326 -367.118263 
L 381.206477 -372.170537 
L 382.076755 -377.222811 
L 382.929482 -382.275086 
L 383.763597 -387.32736 
L 384.576821 -392.379634 
L 385.365924 -397.431909 
L 386.12706 -402.484183 
L 386.856157 -407.536457 
L 387.549313 -412.588731 
L 388.203199 -417.641006 
L 388.815417 -422.69328 
L 389.384807 -427.745554 
L 389.911669 -432.797829 
L 390.397911 -437.850103 
L 390.847084 -442.902377 
L 391.264321 -447.954651 
L 391.656184 -453.006926 
L 392.030413 -458.0592 
L 392.395602 -463.111474 
L 392.760817 -468.163749 
L 393.135174 -473.216023 
L 393.527409 -478.268297 
L 393.945452 -483.320571 
L 394.396041 -488.372846 
L 394.884393 -493.42512 
L 395.413945 -498.477394 
L 395.986196 -503.529669 
L 396.600636 -508.581943 
L 397.254788 -513.634217 
L 397.944335 -518.686491 
L 398.663346 -523.738766 
L 399.404565 -528.79104 
L 400.159761 -533.843314 
L 400.920102 -538.895589 
L 401.676549 -543.947863 
L 402.420223 -549.000137 
L 403.142756 -554.052411 
L 403.83658 -559.104686 
L 404.495162 -564.15696 
L 405.113174 -569.209234 
L 405.686584 -574.261509 
L 406.212686 -579.313783 
L 406.690066 -584.366057 
L 407.118515 -589.418331 
L 407.498898 -594.470606 
L 407.832999 -599.52288 
L 408.123339 -604.575154 
L 410.876661 -604.575154 
L 410.876661 -604.575154 
L 411.167001 -599.52288 
L 411.501102 -594.470606 
L 411.881485 -589.418331 
L 412.309934 -584.366057 
L 412.787314 -579.313783 
L 413.313416 -574.261509 
L 413.886826 -569.209234 
L 414.504838 -564.15696 
L 415.16342 -559.104686 
L 415.857244 -554.052411 
L 416.579777 -549.000137 
L 417.323451 -543.947863 
L 418.079898 -538.895589 
L 418.840239 -533.843314 
L 419.595435 -528.79104 
L 420.336654 -523.738766 
L 421.055665 -518.686491 
L 421.745212 -513.634217 
L 422.399364 -508.581943 
L 423.013804 -503.529669 
L 423.586055 -498.477394 
L 424.115607 -493.42512 
L 424.603959 -488.372846 
L 425.054548 -483.320571 
L 425.472591 -478.268297 
L 425.864826 -473.216023 
L 426.239183 -468.163749 
L 426.604398 -463.111474 
L 426.969587 -458.0592 
L 427.343816 -453.006926 
L 427.735679 -447.954651 
L 428.152916 -442.902377 
L 428.602089 -437.850103 
L 429.088331 -432.797829 
L 429.615193 -427.745554 
L 430.184583 -422.69328 
L 430.796801 -417.641006 
L 431.450687 -412.588731 
L 432.143843 -407.536457 
L 432.87294 -402.484183 
L 433.634076 -397.431909 
L 434.423179 -392.379634 
L 435.236403 -387.32736 
L 436.070518 -382.275086 
L 436.923245 -377.222811 
L 437.793523 -372.170537 
L 438.681674 -367.118263 
L 439.58945 -362.065989 
L 440.519952 -357.013714 
L 441.477414 -351.96144 
L 442.466848 -346.909166 
L 443.493575 -341.856891 
L 444.562651 -336.804617 
L 445.678221 -331.752343 
L 446.842843 -326.700069 
L 448.056808 -321.647794 
L 449.317522 -316.59552 
L 450.618971 -311.543246 
L 451.951322 -306.490971 
L 453.300703 -301.438697 
L 454.649167 -296.386423 
L 455.974887 -291.334149 
L 457.252558 -286.281874 
L 458.454027 -281.2296 
L 459.549111 -276.177326 
L 460.506584 -271.125051 
L 461.295288 -266.072777 
L 461.885319 -261.020503 
L 462.249222 -255.968229 
L 462.363158 -250.915954 
L 462.207958 -245.86368 
L 461.77003 -240.811406 
L 461.042057 -235.759131 
L 460.023461 -230.706857 
L 458.72059 -225.654583 
L 457.146638 -220.602309 
L 455.321276 -215.550034 
L 453.270038 -210.49776 
L 451.023469 -205.445486 
L 448.616094 -200.393211 
L 446.085249 -195.340937 
L 443.469844 -190.288663 
L 440.809105 -185.236389 
L 438.141362 -180.184114 
L 435.502928 -175.13184 
L 432.927133 -170.079566 
L 430.443523 -165.027291 
L 428.077269 -159.975017 
L 425.848789 -154.922743 
L 423.773582 -149.870469 
L 421.862262 -144.818194 
L 420.120772 -139.76592 
L 418.550749 -134.713646 
L 417.150007 -129.661371 
L 415.9131 -124.609097 
L 414.831927 -119.556823 
L 413.896354 -114.504549 
L 413.094818 -109.452274 
L 412.414884 -104.4 
z
" style="stroke: #595959; stroke-width: 1.5"/>
                </defs>
                <g clip-path="url(#p42c996ecb6)">
                    <use xlink:href="#mb2d3433ba7" x="0" y="720"
                         style="fill: #72b6a1; stroke: #595959; stroke-width: 1.5"/>
                </g>
            </g>
            <g id="PolyCollection_2">
                <defs>
                    <path id="mf838b96073" d="M 689.425806 -121.103631
L 687.574194 -121.103631 
L 687.392294 -126.025816 
L 687.182151 -130.948002 
L 686.940946 -135.870187 
L 686.665869 -140.792373 
L 686.354188 -145.714559 
L 686.00331 -150.636744 
L 685.61086 -155.55893 
L 685.174754 -160.481115 
L 684.693286 -165.403301 
L 684.165205 -170.325486 
L 683.589798 -175.247672 
L 682.966962 -180.169857 
L 682.297272 -185.092043 
L 681.582039 -190.014228 
L 680.823353 -194.936414 
L 680.024114 -199.8586 
L 679.188042 -204.780785 
L 678.319671 -209.702971 
L 677.424321 -214.625156 
L 676.508053 -219.547342 
L 675.577599 -224.469527 
L 674.640276 -229.391713 
L 673.703884 -234.313898 
L 672.776586 -239.236084 
L 671.866775 -244.158269 
L 670.982935 -249.080455 
L 670.133496 -254.002641 
L 669.326687 -258.924826 
L 668.570387 -263.847012 
L 667.871991 -268.769197 
L 667.238275 -273.691383 
L 666.67528 -278.613568 
L 666.188208 -283.535754 
L 665.781331 -288.457939 
L 665.457925 -293.380125 
L 665.220209 -298.302311 
L 665.069314 -303.224496 
L 665.005263 -308.146682 
L 665.026969 -313.068867 
L 665.132247 -317.991053 
L 665.317845 -322.913238 
L 665.579488 -327.835424 
L 665.911936 -332.757609 
L 666.309056 -337.679795 
L 666.763909 -342.60198 
L 667.268855 -347.524166 
L 667.815664 -352.446352 
L 668.395654 -357.368537 
L 668.999832 -362.290723 
L 669.61906 -367.212908 
L 670.24422 -372.135094 
L 670.866405 -377.057279 
L 671.477099 -381.979465 
L 672.068374 -386.90165 
L 672.63307 -391.823836 
L 673.164977 -396.746021 
L 673.658989 -401.668207 
L 674.111246 -406.590393 
L 674.519231 -411.512578 
L 674.881848 -416.434764 
L 675.199444 -421.356949 
L 675.473791 -426.279135 
L 675.708026 -431.20132 
L 675.906538 -436.123506 
L 676.074811 -441.045691 
L 676.219233 -445.967877 
L 676.346868 -450.890062 
L 676.465202 -455.812248 
L 676.581879 -460.734434 
L 676.704428 -465.656619 
L 676.84 -470.578805 
L 676.995123 -475.50099 
L 677.175482 -480.423176 
L 677.385736 -485.345361 
L 677.629383 -490.267547 
L 677.908665 -495.189732 
L 678.224532 -500.111918 
L 678.576648 -505.034104 
L 678.963453 -509.956289 
L 679.382265 -514.878475 
L 679.829415 -519.80066 
L 680.300422 -524.722846 
L 680.790178 -529.645031 
L 681.29315 -534.567217 
L 681.803582 -539.489402 
L 682.315695 -544.411588 
L 682.823866 -549.333773 
L 683.322791 -554.255959 
L 683.807625 -559.178145 
L 684.274086 -564.10033 
L 684.718536 -569.022516 
L 685.138028 -573.944701 
L 685.530324 -578.866887 
L 685.893889 -583.789072 
L 686.227856 -588.711258 
L 686.531982 -593.633443 
L 686.806576 -598.555629 
L 687.05243 -603.477814 
L 687.270735 -608.4 
L 689.729265 -608.4 
L 689.729265 -608.4 
L 689.94757 -603.477814 
L 690.193424 -598.555629 
L 690.468018 -593.633443 
L 690.772144 -588.711258 
L 691.106111 -583.789072 
L 691.469676 -578.866887 
L 691.861972 -573.944701 
L 692.281464 -569.022516 
L 692.725914 -564.10033 
L 693.192375 -559.178145 
L 693.677209 -554.255959 
L 694.176134 -549.333773 
L 694.684305 -544.411588 
L 695.196418 -539.489402 
L 695.70685 -534.567217 
L 696.209822 -529.645031 
L 696.699578 -524.722846 
L 697.170585 -519.80066 
L 697.617735 -514.878475 
L 698.036547 -509.956289 
L 698.423352 -505.034104 
L 698.775468 -500.111918 
L 699.091335 -495.189732 
L 699.370617 -490.267547 
L 699.614264 -485.345361 
L 699.824518 -480.423176 
L 700.004877 -475.50099 
L 700.16 -470.578805 
L 700.295572 -465.656619 
L 700.418121 -460.734434 
L 700.534798 -455.812248 
L 700.653132 -450.890062 
L 700.780767 -445.967877 
L 700.925189 -441.045691 
L 701.093462 -436.123506 
L 701.291974 -431.20132 
L 701.526209 -426.279135 
L 701.800556 -421.356949 
L 702.118152 -416.434764 
L 702.480769 -411.512578 
L 702.888754 -406.590393 
L 703.341011 -401.668207 
L 703.835023 -396.746021 
L 704.36693 -391.823836 
L 704.931626 -386.90165 
L 705.522901 -381.979465 
L 706.133595 -377.057279 
L 706.75578 -372.135094 
L 707.38094 -367.212908 
L 708.000168 -362.290723 
L 708.604346 -357.368537 
L 709.184336 -352.446352 
L 709.731145 -347.524166 
L 710.236091 -342.60198 
L 710.690944 -337.679795 
L 711.088064 -332.757609 
L 711.420512 -327.835424 
L 711.682155 -322.913238 
L 711.867753 -317.991053 
L 711.973031 -313.068867 
L 711.994737 -308.146682 
L 711.930686 -303.224496 
L 711.779791 -298.302311 
L 711.542075 -293.380125 
L 711.218669 -288.457939 
L 710.811792 -283.535754 
L 710.32472 -278.613568 
L 709.761725 -273.691383 
L 709.128009 -268.769197 
L 708.429613 -263.847012 
L 707.673313 -258.924826 
L 706.866504 -254.002641 
L 706.017065 -249.080455 
L 705.133225 -244.158269 
L 704.223414 -239.236084 
L 703.296116 -234.313898 
L 702.359724 -229.391713 
L 701.422401 -224.469527 
L 700.491947 -219.547342 
L 699.575679 -214.625156 
L 698.680329 -209.702971 
L 697.811958 -204.780785 
L 696.975886 -199.8586 
L 696.176647 -194.936414 
L 695.417961 -190.014228 
L 694.702728 -185.092043 
L 694.033038 -180.169857 
L 693.410202 -175.247672 
L 692.834795 -170.325486 
L 692.306714 -165.403301 
L 691.825246 -160.481115 
L 691.38914 -155.55893 
L 690.99669 -150.636744 
L 690.645812 -145.714559 
L 690.334131 -140.792373 
L 690.059054 -135.870187 
L 689.817849 -130.948002 
L 689.607706 -126.025816 
L 689.425806 -121.103631 
z
" style="stroke: #595959; stroke-width: 1.5"/>
                </defs>
                <g clip-path="url(#p42c996ecb6)">
                    <use xlink:href="#mf838b96073" x="0" y="720"
                         style="fill: #e99675; stroke: #595959; stroke-width: 1.5"/>
                </g>
            </g>
            <g id="PolyCollection_3">
                <defs>
                    <path id="m11cbfc6a19" d="M 968.410049 -170.311524
L 966.589951 -170.311524 
L 966.463179 -171.977544 
L 966.323395 -173.643564 
L 966.170018 -175.309584 
L 966.002556 -176.975604 
L 965.820633 -178.641624 
L 965.624002 -180.307644 
L 965.41257 -181.973664 
L 965.186412 -183.639684 
L 964.945793 -185.305704 
L 964.691179 -186.971724 
L 964.423251 -188.637745 
L 964.142911 -190.303765 
L 963.851294 -191.969785 
L 963.54976 -193.635805 
L 963.239894 -195.301825 
L 962.923497 -196.967845 
L 962.602571 -198.633865 
L 962.279295 -200.299885 
L 961.956004 -201.965905 
L 961.635156 -203.631925 
L 961.319298 -205.297945 
L 961.011026 -206.963965 
L 960.712942 -208.629985 
L 960.427608 -210.296005 
L 960.157506 -211.962025 
L 959.904982 -213.628045 
L 959.67221 -215.294065 
L 959.461143 -216.960085 
L 959.273473 -218.626105 
L 959.110602 -220.292125 
L 958.973604 -221.958145 
L 958.86321 -223.624165 
L 958.779786 -225.290186 
L 958.72333 -226.956206 
L 958.69347 -228.622226 
L 958.689474 -230.288246 
L 958.710267 -231.954266 
L 958.754458 -233.620286 
L 958.82037 -235.286306 
L 958.906081 -236.952326 
L 959.00947 -238.618346 
L 959.128261 -240.284366 
L 959.260082 -241.950386 
L 959.402514 -243.616406 
L 959.553145 -245.282426 
L 959.709624 -246.948446 
L 959.869709 -248.614466 
L 960.031316 -250.280486 
L 960.192555 -251.946506 
L 960.351765 -253.612526 
L 960.507545 -255.278546 
L 960.658769 -256.944566 
L 960.804599 -258.610586 
L 960.944491 -260.276606 
L 961.078184 -261.942627 
L 961.205696 -263.608647 
L 961.3273 -265.274667 
L 961.443498 -266.940687 
L 961.554996 -268.606707 
L 961.662661 -270.272727 
L 961.767493 -271.938747 
L 961.870578 -273.604767 
L 961.973049 -275.270787 
L 962.076052 -276.936807 
L 962.1807 -278.602827 
L 962.288044 -280.268847 
L 962.399039 -281.934867 
L 962.514516 -283.600887 
L 962.635162 -285.266907 
L 962.761501 -286.932927 
L 962.893882 -288.598947 
L 963.032477 -290.264967 
L 963.177274 -291.930987 
L 963.328089 -293.597007 
L 963.484567 -295.263027 
L 963.646203 -296.929047 
L 963.812355 -298.595068 
L 963.982262 -300.261088 
L 964.155071 -301.927108 
L 964.329855 -303.593128 
L 964.505639 -305.259148 
L 964.681423 -306.925168 
L 964.856205 -308.591188 
L 965.029003 -310.257208 
L 965.19887 -311.923228 
L 965.364919 -313.589248 
L 965.526331 -315.255268 
L 965.682369 -316.921288 
L 965.832389 -318.587308 
L 965.975844 -320.253328 
L 966.112289 -321.919348 
L 966.24138 -323.585368 
L 966.362876 -325.251388 
L 966.476633 -326.917408 
L 966.5826 -328.583428 
L 966.680809 -330.249448 
L 966.771373 -331.915468 
L 966.854473 -333.581489 
L 966.930348 -335.247509 
L 968.069652 -335.247509 
L 968.069652 -335.247509 
L 968.145527 -333.581489 
L 968.228627 -331.915468 
L 968.319191 -330.249448 
L 968.4174 -328.583428 
L 968.523367 -326.917408 
L 968.637124 -325.251388 
L 968.75862 -323.585368 
L 968.887711 -321.919348 
L 969.024156 -320.253328 
L 969.167611 -318.587308 
L 969.317631 -316.921288 
L 969.473669 -315.255268 
L 969.635081 -313.589248 
L 969.80113 -311.923228 
L 969.970997 -310.257208 
L 970.143795 -308.591188 
L 970.318577 -306.925168 
L 970.494361 -305.259148 
L 970.670145 -303.593128 
L 970.844929 -301.927108 
L 971.017738 -300.261088 
L 971.187645 -298.595068 
L 971.353797 -296.929047 
L 971.515433 -295.263027 
L 971.671911 -293.597007 
L 971.822726 -291.930987 
L 971.967523 -290.264967 
L 972.106118 -288.598947 
L 972.238499 -286.932927 
L 972.364838 -285.266907 
L 972.485484 -283.600887 
L 972.600961 -281.934867 
L 972.711956 -280.268847 
L 972.8193 -278.602827 
L 972.923948 -276.936807 
L 973.026951 -275.270787 
L 973.129422 -273.604767 
L 973.232507 -271.938747 
L 973.337339 -270.272727 
L 973.445004 -268.606707 
L 973.556502 -266.940687 
L 973.6727 -265.274667 
L 973.794304 -263.608647 
L 973.921816 -261.942627 
L 974.055509 -260.276606 
L 974.195401 -258.610586 
L 974.341231 -256.944566 
L 974.492455 -255.278546 
L 974.648235 -253.612526 
L 974.807445 -251.946506 
L 974.968684 -250.280486 
L 975.130291 -248.614466 
L 975.290376 -246.948446 
L 975.446855 -245.282426 
L 975.597486 -243.616406 
L 975.739918 -241.950386 
L 975.871739 -240.284366 
L 975.99053 -238.618346 
L 976.093919 -236.952326 
L 976.17963 -235.286306 
L 976.245542 -233.620286 
L 976.289733 -231.954266 
L 976.310526 -230.288246 
L 976.30653 -228.622226 
L 976.27667 -226.956206 
L 976.220214 -225.290186 
L 976.13679 -223.624165 
L 976.026396 -221.958145 
L 975.889398 -220.292125 
L 975.726527 -218.626105 
L 975.538857 -216.960085 
L 975.32779 -215.294065 
L 975.095018 -213.628045 
L 974.842494 -211.962025 
L 974.572392 -210.296005 
L 974.287058 -208.629985 
L 973.988974 -206.963965 
L 973.680702 -205.297945 
L 973.364844 -203.631925 
L 973.043996 -201.965905 
L 972.720705 -200.299885 
L 972.397429 -198.633865 
L 972.076503 -196.967845 
L 971.760106 -195.301825 
L 971.45024 -193.635805 
L 971.148706 -191.969785 
L 970.857089 -190.303765 
L 970.576749 -188.637745 
L 970.308821 -186.971724 
L 970.054207 -185.305704 
L 969.813588 -183.639684 
L 969.58743 -181.973664 
L 969.375998 -180.307644 
L 969.179367 -178.641624 
L 968.997444 -176.975604 
L 968.829982 -175.309584 
L 968.676605 -173.643564 
L 968.536821 -171.977544 
L 968.410049 -170.311524 
z
" style="stroke: #595959; stroke-width: 1.5"/>
                </defs>
                <g clip-path="url(#p42c996ecb6)">
                    <use xlink:href="#m11cbfc6a19" x="0" y="720"
                         style="fill: #95a3c3; stroke: #595959; stroke-width: 1.5"/>
                </g>
            </g>
            <g id="PolyCollection_4">
                <defs>
                    <path id="m219b315758" d="M 1247.491663 -155.430683
L 1245.508337 -155.430683 
L 1245.358931 -157.343488 
L 1245.19267 -159.256292 
L 1245.008626 -161.169097 
L 1244.805982 -163.081901 
L 1244.58406 -164.994706 
L 1244.342348 -166.90751 
L 1244.080536 -168.820315 
L 1243.798539 -170.733119 
L 1243.496528 -172.645924 
L 1243.174951 -174.558728 
L 1242.834555 -176.471533 
L 1242.476402 -178.384337 
L 1242.101875 -180.297142 
L 1241.712683 -182.209946 
L 1241.310855 -184.122751 
L 1240.898726 -186.035555 
L 1240.478914 -187.94836 
L 1240.054292 -189.861164 
L 1239.627944 -191.773968 
L 1239.203122 -193.686773 
L 1238.783187 -195.599577 
L 1238.37155 -197.512382 
L 1237.971604 -199.425186 
L 1237.586655 -201.337991 
L 1237.219847 -203.250795 
L 1236.874095 -205.1636 
L 1236.552014 -207.076404 
L 1236.255851 -208.989209 
L 1235.987432 -210.902013 
L 1235.748113 -212.814818 
L 1235.538736 -214.727622 
L 1235.359608 -216.640427 
L 1235.210487 -218.553231 
L 1235.090583 -220.466036 
L 1234.998575 -222.37884 
L 1234.932641 -224.291645 
L 1234.890507 -226.204449 
L 1234.869505 -228.117254 
L 1234.866645 -230.030058 
L 1234.878696 -231.942863 
L 1234.902275 -233.855667 
L 1234.933947 -235.768472 
L 1234.970319 -237.681276 
L 1235.008137 -239.594081 
L 1235.044387 -241.506885 
L 1235.076376 -243.41969 
L 1235.101818 -245.332494 
L 1235.118898 -247.245299 
L 1235.12633 -249.158103 
L 1235.123395 -251.070908 
L 1235.109965 -252.983712 
L 1235.086505 -254.896517 
L 1235.054066 -256.809321 
L 1235.014252 -258.722126 
L 1234.969174 -260.63493 
L 1234.921392 -262.547735 
L 1234.873836 -264.460539 
L 1234.829728 -266.373344 
L 1234.792483 -268.286148 
L 1234.765614 -270.198953 
L 1234.752632 -272.111757 
L 1234.756942 -274.024562 
L 1234.781756 -275.937366 
L 1234.829994 -277.850171 
L 1234.90421 -279.762975 
L 1235.006522 -281.67578 
L 1235.138555 -283.588584 
L 1235.301401 -285.501389 
L 1235.495593 -287.414193 
L 1235.721094 -289.326998 
L 1235.9773 -291.239802 
L 1236.263067 -293.152607 
L 1236.576733 -295.065411 
L 1236.916173 -296.978216 
L 1237.278853 -298.89102 
L 1237.661887 -300.803825 
L 1238.062117 -302.716629 
L 1238.47618 -304.629434 
L 1238.900586 -306.542238 
L 1239.331792 -308.455043 
L 1239.766274 -310.367847 
L 1240.200595 -312.280652 
L 1240.631464 -314.193456 
L 1241.055794 -316.106261 
L 1241.470742 -318.019065 
L 1241.873752 -319.93187 
L 1242.262575 -321.844674 
L 1242.635294 -323.757478 
L 1242.99033 -325.670283 
L 1243.326443 -327.583087 
L 1243.642725 -329.495892 
L 1243.938589 -331.408696 
L 1244.213745 -333.321501 
L 1244.46818 -335.234305 
L 1244.702132 -337.14711 
L 1244.916055 -339.059914 
L 1245.110592 -340.972719 
L 1245.286541 -342.885523 
L 1245.444826 -344.798328 
L 1247.555174 -344.798328 
L 1247.555174 -344.798328 
L 1247.713459 -342.885523 
L 1247.889408 -340.972719 
L 1248.083945 -339.059914 
L 1248.297868 -337.14711 
L 1248.53182 -335.234305 
L 1248.786255 -333.321501 
L 1249.061411 -331.408696 
L 1249.357275 -329.495892 
L 1249.673557 -327.583087 
L 1250.00967 -325.670283 
L 1250.364706 -323.757478 
L 1250.737425 -321.844674 
L 1251.126248 -319.93187 
L 1251.529258 -318.019065 
L 1251.944206 -316.106261 
L 1252.368536 -314.193456 
L 1252.799405 -312.280652 
L 1253.233726 -310.367847 
L 1253.668208 -308.455043 
L 1254.099414 -306.542238 
L 1254.52382 -304.629434 
L 1254.937883 -302.716629 
L 1255.338113 -300.803825 
L 1255.721147 -298.89102 
L 1256.083827 -296.978216 
L 1256.423267 -295.065411 
L 1256.736933 -293.152607 
L 1257.0227 -291.239802 
L 1257.278906 -289.326998 
L 1257.504407 -287.414193 
L 1257.698599 -285.501389 
L 1257.861445 -283.588584 
L 1257.993478 -281.67578 
L 1258.09579 -279.762975 
L 1258.170006 -277.850171 
L 1258.218244 -275.937366 
L 1258.243058 -274.024562 
L 1258.247368 -272.111757 
L 1258.234386 -270.198953 
L 1258.207517 -268.286148 
L 1258.170272 -266.373344 
L 1258.126164 -264.460539 
L 1258.078608 -262.547735 
L 1258.030826 -260.63493 
L 1257.985748 -258.722126 
L 1257.945934 -256.809321 
L 1257.913495 -254.896517 
L 1257.890035 -252.983712 
L 1257.876605 -251.070908 
L 1257.87367 -249.158103 
L 1257.881102 -247.245299 
L 1257.898182 -245.332494 
L 1257.923624 -243.41969 
L 1257.955613 -241.506885 
L 1257.991863 -239.594081 
L 1258.029681 -237.681276 
L 1258.066053 -235.768472 
L 1258.097725 -233.855667 
L 1258.121304 -231.942863 
L 1258.133355 -230.030058 
L 1258.130495 -228.117254 
L 1258.109493 -226.204449 
L 1258.067359 -224.291645 
L 1258.001425 -222.37884 
L 1257.909417 -220.466036 
L 1257.789513 -218.553231 
L 1257.640392 -216.640427 
L 1257.461264 -214.727622 
L 1257.251887 -212.814818 
L 1257.012568 -210.902013 
L 1256.744149 -208.989209 
L 1256.447986 -207.076404 
L 1256.125905 -205.1636 
L 1255.780153 -203.250795 
L 1255.413345 -201.337991 
L 1255.028396 -199.425186 
L 1254.62845 -197.512382 
L 1254.216813 -195.599577 
L 1253.796878 -193.686773 
L 1253.372056 -191.773968 
L 1252.945708 -189.861164 
L 1252.521086 -187.94836 
L 1252.101274 -186.035555 
L 1251.689145 -184.122751 
L 1251.287317 -182.209946 
L 1250.898125 -180.297142 
L 1250.523598 -178.384337 
L 1250.165445 -176.471533 
L 1249.825049 -174.558728 
L 1249.503472 -172.645924 
L 1249.201461 -170.733119 
L 1248.919464 -168.820315 
L 1248.657652 -166.90751 
L 1248.41594 -164.994706 
L 1248.194018 -163.081901 
L 1247.991374 -161.169097 
L 1247.80733 -159.256292 
L 1247.641069 -157.343488 
L 1247.491663 -155.430683 
z
" style="stroke: #595959; stroke-width: 1.5"/>
                </defs>
                <g clip-path="url(#p42c996ecb6)">
                    <use xlink:href="#m219b315758" x="0" y="720"
                         style="fill: #db96c0; stroke: #595959; stroke-width: 1.5"/>
                </g>
            </g>
            <g id="PolyCollection_5">
                <defs>
                    <path id="mc38d7a76fe" d="M 1531.470743 -157.458299
L 1519.529257 -157.458299 
L 1517.290123 -161.175425 
L 1514.429764 -164.892551 
L 1510.860186 -168.609676 
L 1506.509964 -172.326802 
L 1501.334908 -176.043928 
L 1495.32871 -179.761054 
L 1488.532203 -183.47818 
L 1481.039686 -187.195306 
L 1473.000896 -190.912432 
L 1464.617554 -194.629557 
L 1456.134022 -198.346683 
L 1447.822413 -202.063809 
L 1439.963373 -205.780935 
L 1432.824494 -209.498061 
L 1426.638881 -213.215187 
L 1421.586534 -216.932312 
L 1417.780949 -220.649438 
L 1415.262659 -224.366564 
L 1414.000467 -228.08369 
L 1413.9 -231.800816 
L 1414.818173 -235.517942 
L 1416.581341 -239.235067 
L 1419.004528 -242.952193 
L 1421.909153 -246.669319 
L 1425.13712 -250.386445 
L 1428.559939 -254.103571 
L 1432.082447 -257.820697 
L 1435.64157 -261.537822 
L 1439.20131 -265.254948 
L 1442.745529 -268.972074 
L 1446.270162 -272.6892 
L 1449.776313 -276.406326 
L 1453.265172 -280.123452 
L 1456.735204 -283.840577 
L 1460.181467 -287.557703 
L 1463.596534 -291.274829 
L 1466.972255 -294.991955 
L 1470.301561 -298.709081 
L 1473.579677 -302.426207 
L 1476.80438 -306.143332 
L 1479.975258 -309.860458 
L 1483.092211 -313.577584 
L 1486.153634 -317.29471 
L 1489.154791 -321.011836 
L 1492.086803 -324.728962 
L 1494.936554 -328.446087 
L 1497.687547 -332.163213 
L 1500.321569 -335.880339 
L 1502.820803 -339.597465 
L 1505.169989 -343.314591 
L 1507.358188 -347.031717 
L 1509.37987 -350.748842 
L 1511.235138 -354.465968 
L 1512.929127 -358.183094 
L 1514.470763 -361.90022 
L 1515.871157 -365.617346 
L 1517.141966 -369.334472 
L 1518.293996 -373.051598 
L 1519.336258 -376.768723 
L 1520.275538 -380.485849 
L 1521.116466 -384.202975 
L 1521.861935 -387.920101 
L 1522.51372 -391.637227 
L 1523.073105 -395.354353 
L 1523.54138 -399.071478 
L 1523.920133 -402.788604 
L 1524.211317 -406.50573 
L 1524.417154 -410.222856 
L 1524.539953 -413.939982 
L 1524.58197 -417.657108 
L 1524.545392 -421.374233 
L 1524.43254 -425.091359 
L 1524.246291 -428.808485 
L 1523.990699 -432.525611 
L 1523.671736 -436.242737 
L 1523.298012 -439.959863 
L 1522.881329 -443.676988 
L 1522.436926 -447.394114 
L 1521.983291 -451.11124 
L 1521.54147 -454.828366 
L 1521.133897 -458.545492 
L 1520.782829 -462.262618 
L 1520.50856 -465.979743 
L 1520.327633 -469.696869 
L 1520.251292 -473.413995 
L 1520.284395 -477.131121 
L 1520.424943 -480.848247 
L 1520.664314 -484.565373 
L 1520.988149 -488.282498 
L 1521.377789 -491.999624 
L 1521.812059 -495.71675 
L 1522.269158 -499.433876 
L 1522.728432 -503.151002 
L 1523.171838 -506.868128 
L 1523.584956 -510.585253 
L 1523.957511 -514.302379 
L 1524.283412 -518.019505 
L 1524.560401 -521.736631 
L 1524.789409 -525.453757 
L 1526.210591 -525.453757 
L 1526.210591 -525.453757 
L 1526.439599 -521.736631 
L 1526.716588 -518.019505 
L 1527.042489 -514.302379 
L 1527.415044 -510.585253 
L 1527.828162 -506.868128 
L 1528.271568 -503.151002 
L 1528.730842 -499.433876 
L 1529.187941 -495.71675 
L 1529.622211 -491.999624 
L 1530.011851 -488.282498 
L 1530.335686 -484.565373 
L 1530.575057 -480.848247 
L 1530.715605 -477.131121 
L 1530.748708 -473.413995 
L 1530.672367 -469.696869 
L 1530.49144 -465.979743 
L 1530.217171 -462.262618 
L 1529.866103 -458.545492 
L 1529.45853 -454.828366 
L 1529.016709 -451.11124 
L 1528.563074 -447.394114 
L 1528.118671 -443.676988 
L 1527.701988 -439.959863 
L 1527.328264 -436.242737 
L 1527.009301 -432.525611 
L 1526.753709 -428.808485 
L 1526.56746 -425.091359 
L 1526.454608 -421.374233 
L 1526.41803 -417.657108 
L 1526.460047 -413.939982 
L 1526.582846 -410.222856 
L 1526.788683 -406.50573 
L 1527.079867 -402.788604 
L 1527.45862 -399.071478 
L 1527.926895 -395.354353 
L 1528.48628 -391.637227 
L 1529.138065 -387.920101 
L 1529.883534 -384.202975 
L 1530.724462 -380.485849 
L 1531.663742 -376.768723 
L 1532.706004 -373.051598 
L 1533.858034 -369.334472 
L 1535.128843 -365.617346 
L 1536.529237 -361.90022 
L 1538.070873 -358.183094 
L 1539.764862 -354.465968 
L 1541.62013 -350.748842 
L 1543.641812 -347.031717 
L 1545.830011 -343.314591 
L 1548.179197 -339.597465 
L 1550.678431 -335.880339 
L 1553.312453 -332.163213 
L 1556.063446 -328.446087 
L 1558.913197 -324.728962 
L 1561.845209 -321.011836 
L 1564.846366 -317.29471 
L 1567.907789 -313.577584 
L 1571.024742 -309.860458 
L 1574.19562 -306.143332 
L 1577.420323 -302.426207 
L 1580.698439 -298.709081 
L 1584.027745 -294.991955 
L 1587.403466 -291.274829 
L 1590.818533 -287.557703 
L 1594.264796 -283.840577 
L 1597.734828 -280.123452 
L 1601.223687 -276.406326 
L 1604.729838 -272.6892 
L 1608.254471 -268.972074 
L 1611.79869 -265.254948 
L 1615.35843 -261.537822 
L 1618.917553 -257.820697 
L 1622.440061 -254.103571 
L 1625.86288 -250.386445 
L 1629.090847 -246.669319 
L 1631.995472 -242.952193 
L 1634.418659 -239.235067 
L 1636.181827 -235.517942 
L 1637.1 -231.800816 
L 1636.999533 -228.08369 
L 1635.737341 -224.366564 
L 1633.219051 -220.649438 
L 1629.413466 -216.932312 
L 1624.361119 -213.215187 
L 1618.175506 -209.498061 
L 1611.036627 -205.780935 
L 1603.177587 -202.063809 
L 1594.865978 -198.346683 
L 1586.382446 -194.629557 
L 1577.999104 -190.912432 
L 1569.960314 -187.195306 
L 1562.467797 -183.47818 
L 1555.67129 -179.761054 
L 1549.665092 -176.043928 
L 1544.490036 -172.326802 
L 1540.139814 -168.609676 
L 1536.570236 -164.892551 
L 1533.709877 -161.175425 
L 1531.470743 -157.458299 
z
" style="stroke: #595959; stroke-width: 1.5"/>
                </defs>
                <g clip-path="url(#p42c996ecb6)">
                    <use xlink:href="#mc38d7a76fe" x="0" y="720"
                         style="fill: #a2c865; stroke: #595959; stroke-width: 1.5"/>
                </g>
            </g>
            <g id="PolyCollection_6">
                <defs>
                    <path id="m1caee3c1cc" d="M 1805.148481 -132.969159
L 1803.851519 -132.969159 
L 1803.747666 -135.723136 
L 1803.631333 -138.477114 
L 1803.501733 -141.231091 
L 1803.358145 -143.985068 
L 1803.199921 -146.739045 
L 1803.026509 -149.493022 
L 1802.837466 -152.247 
L 1802.632477 -155.000977 
L 1802.411361 -157.754954 
L 1802.174087 -160.508931 
L 1801.920779 -163.262909 
L 1801.651723 -166.016886 
L 1801.367369 -168.770863 
L 1801.068328 -171.52484 
L 1800.75537 -174.278818 
L 1800.429422 -177.032795 
L 1800.091551 -179.786772 
L 1799.742967 -182.540749 
L 1799.385001 -185.294726 
L 1799.019103 -188.048704 
L 1798.646829 -190.802681 
L 1798.26983 -193.556658 
L 1797.889846 -196.310635 
L 1797.508695 -199.064613 
L 1797.128272 -201.81859 
L 1796.750537 -204.572567 
L 1796.377513 -207.326544 
L 1796.011278 -210.080522 
L 1795.653962 -212.834499 
L 1795.307733 -215.588476 
L 1794.97479 -218.342453 
L 1794.657344 -221.09643 
L 1794.357599 -223.850408 
L 1794.077731 -226.604385 
L 1793.819854 -229.358362 
L 1793.585988 -232.112339 
L 1793.378021 -234.866317 
L 1793.197669 -237.620294 
L 1793.04643 -240.374271 
L 1792.925542 -243.128248 
L 1792.835942 -245.882226 
L 1792.77823 -248.636203 
L 1792.752632 -251.39018 
L 1792.75898 -254.144157 
L 1792.7967 -256.898134 
L 1792.864804 -259.652112 
L 1792.961903 -262.406089 
L 1793.086232 -265.160066 
L 1793.235679 -267.914043 
L 1793.407841 -270.668021 
L 1793.600075 -273.421998 
L 1793.809569 -276.175975 
L 1794.033418 -278.929952 
L 1794.268697 -281.68393 
L 1794.512541 -284.437907 
L 1794.762224 -287.191884 
L 1795.015225 -289.945861 
L 1795.269291 -292.699838 
L 1795.522489 -295.453816 
L 1795.773242 -298.207793 
L 1796.020354 -300.96177 
L 1796.263019 -303.715747 
L 1796.50081 -306.469725 
L 1796.733663 -309.223702 
L 1796.961838 -311.977679 
L 1797.185875 -314.731656 
L 1797.406539 -317.485634 
L 1797.624755 -320.239611 
L 1797.841549 -322.993588 
L 1798.057978 -325.747565 
L 1798.275066 -328.501542 
L 1798.493749 -331.25552 
L 1798.714821 -334.009497 
L 1798.938892 -336.763474 
L 1799.166357 -339.517451 
L 1799.397376 -342.271429 
L 1799.63186 -345.025406 
L 1799.869478 -347.779383 
L 1800.109666 -350.53336 
L 1800.351651 -353.287338 
L 1800.594475 -356.041315 
L 1800.837036 -358.795292 
L 1801.078123 -361.549269 
L 1801.316459 -364.303247 
L 1801.550743 -367.057224 
L 1801.779686 -369.811201 
L 1802.002058 -372.565178 
L 1802.216711 -375.319155 
L 1802.422614 -378.073133 
L 1802.618873 -380.82711 
L 1802.804748 -383.581087 
L 1802.979665 -386.335064 
L 1803.143217 -389.089042 
L 1803.295166 -391.843019 
L 1803.435436 -394.596996 
L 1803.564102 -397.350973 
L 1803.681378 -400.104951 
L 1803.7876 -402.858928 
L 1803.883206 -405.612905 
L 1805.116794 -405.612905 
L 1805.116794 -405.612905 
L 1805.2124 -402.858928 
L 1805.318622 -400.104951 
L 1805.435898 -397.350973 
L 1805.564564 -394.596996 
L 1805.704834 -391.843019 
L 1805.856783 -389.089042 
L 1806.020335 -386.335064 
L 1806.195252 -383.581087 
L 1806.381127 -380.82711 
L 1806.577386 -378.073133 
L 1806.783289 -375.319155 
L 1806.997942 -372.565178 
L 1807.220314 -369.811201 
L 1807.449257 -367.057224 
L 1807.683541 -364.303247 
L 1807.921877 -361.549269 
L 1808.162964 -358.795292 
L 1808.405525 -356.041315 
L 1808.648349 -353.287338 
L 1808.890334 -350.53336 
L 1809.130522 -347.779383 
L 1809.36814 -345.025406 
L 1809.602624 -342.271429 
L 1809.833643 -339.517451 
L 1810.061108 -336.763474 
L 1810.285179 -334.009497 
L 1810.506251 -331.25552 
L 1810.724934 -328.501542 
L 1810.942022 -325.747565 
L 1811.158451 -322.993588 
L 1811.375245 -320.239611 
L 1811.593461 -317.485634 
L 1811.814125 -314.731656 
L 1812.038162 -311.977679 
L 1812.266337 -309.223702 
L 1812.49919 -306.469725 
L 1812.736981 -303.715747 
L 1812.979646 -300.96177 
L 1813.226758 -298.207793 
L 1813.477511 -295.453816 
L 1813.730709 -292.699838 
L 1813.984775 -289.945861 
L 1814.237776 -287.191884 
L 1814.487459 -284.437907 
L 1814.731303 -281.68393 
L 1814.966582 -278.929952 
L 1815.190431 -276.175975 
L 1815.399925 -273.421998 
L 1815.592159 -270.668021 
L 1815.764321 -267.914043 
L 1815.913768 -265.160066 
L 1816.038097 -262.406089 
L 1816.135196 -259.652112 
L 1816.2033 -256.898134 
L 1816.24102 -254.144157 
L 1816.247368 -251.39018 
L 1816.22177 -248.636203 
L 1816.164058 -245.882226 
L 1816.074458 -243.128248 
L 1815.95357 -240.374271 
L 1815.802331 -237.620294 
L 1815.621979 -234.866317 
L 1815.414012 -232.112339 
L 1815.180146 -229.358362 
L 1814.922269 -226.604385 
L 1814.642401 -223.850408 
L 1814.342656 -221.09643 
L 1814.02521 -218.342453 
L 1813.692267 -215.588476 
L 1813.346038 -212.834499 
L 1812.988722 -210.080522 
L 1812.622487 -207.326544 
L 1812.249463 -204.572567 
L 1811.871728 -201.81859 
L 1811.491305 -199.064613 
L 1811.110154 -196.310635 
L 1810.73017 -193.556658 
L 1810.353171 -190.802681 
L 1809.980897 -188.048704 
L 1809.614999 -185.294726 
L 1809.257033 -182.540749 
L 1808.908449 -179.786772 
L 1808.570578 -177.032795 
L 1808.24463 -174.278818 
L 1807.931672 -171.52484 
L 1807.632631 -168.770863 
L 1807.348277 -166.016886 
L 1807.079221 -163.262909 
L 1806.825913 -160.508931 
L 1806.588639 -157.754954 
L 1806.367523 -155.000977 
L 1806.162534 -152.247 
L 1805.973491 -149.493022 
L 1805.800079 -146.739045 
L 1805.641855 -143.985068 
L 1805.498267 -141.231091 
L 1805.368667 -138.477114 
L 1805.252334 -135.723136 
L 1805.148481 -132.969159 
z
" style="stroke: #595959; stroke-width: 1.5"/>
                </defs>
                <g clip-path="url(#p42c996ecb6)">
                    <use xlink:href="#m1caee3c1cc" x="0" y="720"
                         style="fill: #e5c849; stroke: #595959; stroke-width: 1.5"/>
                </g>
            </g>
            <g id="matplotlib.axis_1">
                <g id="xtick_1">
                    <g id="line2d_1">
                        <defs>
                            <path id="mb51af17340" d="M 0 0
L 0 3.5 
" style="stroke: #000000; stroke-width: 0.8"/>
                        </defs>
                        <g>
                            <use xlink:href="#mb51af17340" x="409.5" y="640.8"
                                 style="stroke: #000000; stroke-width: 0.8"/>
                        </g>
                    </g>
                    <g id="text_1">
                        <!-- 1 -->
                        <g transform="translate(403.1375 662.996875)scale(0.2 -0.2)">
                            <defs>
                                <path id="DejaVuSans-31" d="M 794 531
L 1825 531 
L 1825 4091 
L 703 3866 
L 703 4441 
L 1819 4666 
L 2450 4666 
L 2450 531 
L 3481 531 
L 3481 0 
L 794 0 
L 794 531 
z
" transform="scale(0.015625)"/>
                            </defs>
                            <use xlink:href="#DejaVuSans-31"/>
                        </g>
                    </g>
                </g>
                <g id="xtick_2">
                    <g id="line2d_2">
                        <g>
                            <use xlink:href="#mb51af17340" x="688.5" y="640.8"
                                 style="stroke: #000000; stroke-width: 0.8"/>
                        </g>
                    </g>
                    <g id="text_2">
                        <!-- 2 -->
                        <g transform="translate(682.1375 662.996875)scale(0.2 -0.2)">
                            <defs>
                                <path id="DejaVuSans-32" d="M 1228 531
L 3431 531 
L 3431 0 
L 469 0 
L 469 531 
Q 828 903 1448 1529 
Q 2069 2156 2228 2338 
Q 2531 2678 2651 2914 
Q 2772 3150 2772 3378 
Q 2772 3750 2511 3984 
Q 2250 4219 1831 4219 
Q 1534 4219 1204 4116 
Q 875 4013 500 3803 
L 500 4441 
Q 881 4594 1212 4672 
Q 1544 4750 1819 4750 
Q 2544 4750 2975 4387 
Q 3406 4025 3406 3419 
Q 3406 3131 3298 2873 
Q 3191 2616 2906 2266 
Q 2828 2175 2409 1742 
Q 1991 1309 1228 531 
z
" transform="scale(0.015625)"/>
                            </defs>
                            <use xlink:href="#DejaVuSans-32"/>
                        </g>
                    </g>
                </g>
                <g id="xtick_3">
                    <g id="line2d_3">
                        <g>
                            <use xlink:href="#mb51af17340" x="967.5" y="640.8"
                                 style="stroke: #000000; stroke-width: 0.8"/>
                        </g>
                    </g>
                    <g id="text_3">
                        <!-- 3 -->
                        <g transform="translate(961.1375 662.996875)scale(0.2 -0.2)">
                            <defs>
                                <path id="DejaVuSans-33" d="M 2597 2516
Q 3050 2419 3304 2112 
Q 3559 1806 3559 1356 
Q 3559 666 3084 287 
Q 2609 -91 1734 -91 
Q 1441 -91 1130 -33 
Q 819 25 488 141 
L 488 750 
Q 750 597 1062 519 
Q 1375 441 1716 441 
Q 2309 441 2620 675 
Q 2931 909 2931 1356 
Q 2931 1769 2642 2001 
Q 2353 2234 1838 2234 
L 1294 2234 
L 1294 2753 
L 1863 2753 
Q 2328 2753 2575 2939 
Q 2822 3125 2822 3475 
Q 2822 3834 2567 4026 
Q 2313 4219 1838 4219 
Q 1578 4219 1281 4162 
Q 984 4106 628 3988 
L 628 4550 
Q 988 4650 1302 4700 
Q 1616 4750 1894 4750 
Q 2613 4750 3031 4423 
Q 3450 4097 3450 3541 
Q 3450 3153 3228 2886 
Q 3006 2619 2597 2516 
z
" transform="scale(0.015625)"/>
                            </defs>
                            <use xlink:href="#DejaVuSans-33"/>
                        </g>
                    </g>
                </g>
                <g id="xtick_4">
                    <g id="line2d_4">
                        <g>
                            <use xlink:href="#mb51af17340" x="1246.5" y="640.8"
                                 style="stroke: #000000; stroke-width: 0.8"/>
                        </g>
                    </g>
                    <g id="text_4">
                        <!-- 4 -->
                        <g transform="translate(1240.1375 662.996875)scale(0.2 -0.2)">
                            <defs>
                                <path id="DejaVuSans-34" d="M 2419 4116
L 825 1625 
L 2419 1625 
L 2419 4116 
z
M 2253 4666 
L 3047 4666 
L 3047 1625 
L 3713 1625 
L 3713 1100 
L 3047 1100 
L 3047 0 
L 2419 0 
L 2419 1100 
L 313 1100 
L 313 1709 
L 2253 4666 
z
" transform="scale(0.015625)"/>
                            </defs>
                            <use xlink:href="#DejaVuSans-34"/>
                        </g>
                    </g>
                </g>
                <g id="xtick_5">
                    <g id="line2d_5">
                        <g>
                            <use xlink:href="#mb51af17340" x="1525.5" y="640.8"
                                 style="stroke: #000000; stroke-width: 0.8"/>
                        </g>
                    </g>
                    <g id="text_5">
                        <!-- 5 -->
                        <g transform="translate(1519.1375 662.996875)scale(0.2 -0.2)">
                            <defs>
                                <path id="DejaVuSans-35" d="M 691 4666
L 3169 4666 
L 3169 4134 
L 1269 4134 
L 1269 2991 
Q 1406 3038 1543 3061 
Q 1681 3084 1819 3084 
Q 2600 3084 3056 2656 
Q 3513 2228 3513 1497 
Q 3513 744 3044 326 
Q 2575 -91 1722 -91 
Q 1428 -91 1123 -41 
Q 819 9 494 109 
L 494 744 
Q 775 591 1075 516 
Q 1375 441 1709 441 
Q 2250 441 2565 725 
Q 2881 1009 2881 1497 
Q 2881 1984 2565 2268 
Q 2250 2553 1709 2553 
Q 1456 2553 1204 2497 
Q 953 2441 691 2322 
L 691 4666 
z
" transform="scale(0.015625)"/>
                            </defs>
                            <use xlink:href="#DejaVuSans-35"/>
                        </g>
                    </g>
                </g>
                <g id="xtick_6">
                    <g id="line2d_6">
                        <g>
                            <use xlink:href="#mb51af17340" x="1804.5" y="640.8"
                                 style="stroke: #000000; stroke-width: 0.8"/>
                        </g>
                    </g>
                    <g id="text_6">
                        <!-- 6 -->
                        <g transform="translate(1798.1375 662.996875)scale(0.2 -0.2)">
                            <defs>
                                <path id="DejaVuSans-36" d="M 2113 2584
Q 1688 2584 1439 2293 
Q 1191 2003 1191 1497 
Q 1191 994 1439 701 
Q 1688 409 2113 409 
Q 2538 409 2786 701 
Q 3034 994 3034 1497 
Q 3034 2003 2786 2293 
Q 2538 2584 2113 2584 
z
M 3366 4563 
L 3366 3988 
Q 3128 4100 2886 4159 
Q 2644 4219 2406 4219 
Q 1781 4219 1451 3797 
Q 1122 3375 1075 2522 
Q 1259 2794 1537 2939 
Q 1816 3084 2150 3084 
Q 2853 3084 3261 2657 
Q 3669 2231 3669 1497 
Q 3669 778 3244 343 
Q 2819 -91 2113 -91 
Q 1303 -91 875 529 
Q 447 1150 447 2328 
Q 447 3434 972 4092 
Q 1497 4750 2381 4750 
Q 2619 4750 2861 4703 
Q 3103 4656 3366 4563 
z
" transform="scale(0.015625)"/>
                            </defs>
                            <use xlink:href="#DejaVuSans-36"/>
                        </g>
                    </g>
                </g>
                <g id="text_7">
                    <!-- cluster -->
                    <g transform="translate(1072.992188 686.353125)scale(0.2 -0.2)">
                        <defs>
                            <path id="DejaVuSans-63" d="M 3122 3366
L 3122 2828 
Q 2878 2963 2633 3030 
Q 2388 3097 2138 3097 
Q 1578 3097 1268 2742 
Q 959 2388 959 1747 
Q 959 1106 1268 751 
Q 1578 397 2138 397 
Q 2388 397 2633 464 
Q 2878 531 3122 666 
L 3122 134 
Q 2881 22 2623 -34 
Q 2366 -91 2075 -91 
Q 1284 -91 818 406 
Q 353 903 353 1747 
Q 353 2603 823 3093 
Q 1294 3584 2113 3584 
Q 2378 3584 2631 3529 
Q 2884 3475 3122 3366 
z
" transform="scale(0.015625)"/>
                            <path id="DejaVuSans-6c" d="M 603 4863
L 1178 4863 
L 1178 0 
L 603 0 
L 603 4863 
z
" transform="scale(0.015625)"/>
                            <path id="DejaVuSans-75" d="M 544 1381
L 544 3500 
L 1119 3500 
L 1119 1403 
Q 1119 906 1312 657 
Q 1506 409 1894 409 
Q 2359 409 2629 706 
Q 2900 1003 2900 1516 
L 2900 3500 
L 3475 3500 
L 3475 0 
L 2900 0 
L 2900 538 
Q 2691 219 2414 64 
Q 2138 -91 1772 -91 
Q 1169 -91 856 284 
Q 544 659 544 1381 
z
M 1991 3584 
L 1991 3584 
z
" transform="scale(0.015625)"/>
                            <path id="DejaVuSans-73" d="M 2834 3397
L 2834 2853 
Q 2591 2978 2328 3040 
Q 2066 3103 1784 3103 
Q 1356 3103 1142 2972 
Q 928 2841 928 2578 
Q 928 2378 1081 2264 
Q 1234 2150 1697 2047 
L 1894 2003 
Q 2506 1872 2764 1633 
Q 3022 1394 3022 966 
Q 3022 478 2636 193 
Q 2250 -91 1575 -91 
Q 1294 -91 989 -36 
Q 684 19 347 128 
L 347 722 
Q 666 556 975 473 
Q 1284 391 1588 391 
Q 1994 391 2212 530 
Q 2431 669 2431 922 
Q 2431 1156 2273 1281 
Q 2116 1406 1581 1522 
L 1381 1569 
Q 847 1681 609 1914 
Q 372 2147 372 2553 
Q 372 3047 722 3315 
Q 1072 3584 1716 3584 
Q 2034 3584 2315 3537 
Q 2597 3491 2834 3397 
z
" transform="scale(0.015625)"/>
                            <path id="DejaVuSans-74" d="M 1172 4494
L 1172 3500 
L 2356 3500 
L 2356 3053 
L 1172 3053 
L 1172 1153 
Q 1172 725 1289 603 
Q 1406 481 1766 481 
L 2356 481 
L 2356 0 
L 1766 0 
Q 1100 0 847 248 
Q 594 497 594 1153 
L 594 3053 
L 172 3053 
L 172 3500 
L 594 3500 
L 594 4494 
L 1172 4494 
z
" transform="scale(0.015625)"/>
                            <path id="DejaVuSans-65" d="M 3597 1894
L 3597 1613 
L 953 1613 
Q 991 1019 1311 708 
Q 1631 397 2203 397 
Q 2534 397 2845 478 
Q 3156 559 3463 722 
L 3463 178 
Q 3153 47 2828 -22 
Q 2503 -91 2169 -91 
Q 1331 -91 842 396 
Q 353 884 353 1716 
Q 353 2575 817 3079 
Q 1281 3584 2069 3584 
Q 2775 3584 3186 3129 
Q 3597 2675 3597 1894 
z
M 3022 2063 
Q 3016 2534 2758 2815 
Q 2500 3097 2075 3097 
Q 1594 3097 1305 2825 
Q 1016 2553 972 2059 
L 3022 2063 
z
" transform="scale(0.015625)"/>
                            <path id="DejaVuSans-72" d="M 2631 2963
Q 2534 3019 2420 3045 
Q 2306 3072 2169 3072 
Q 1681 3072 1420 2755 
Q 1159 2438 1159 1844 
L 1159 0 
L 581 0 
L 581 3500 
L 1159 3500 
L 1159 2956 
Q 1341 3275 1631 3429 
Q 1922 3584 2338 3584 
Q 2397 3584 2469 3576 
Q 2541 3569 2628 3553 
L 2631 2963 
z
" transform="scale(0.015625)"/>
                        </defs>
                        <use xlink:href="#DejaVuSans-63"/>
                        <use xlink:href="#DejaVuSans-6c" x="54.980469"/>
                        <use xlink:href="#DejaVuSans-75" x="82.763672"/>
                        <use xlink:href="#DejaVuSans-73" x="146.142578"/>
                        <use xlink:href="#DejaVuSans-74" x="198.242188"/>
                        <use xlink:href="#DejaVuSans-65" x="237.451172"/>
                        <use xlink:href="#DejaVuSans-72" x="298.974609"/>
                    </g>
                </g>
            </g>
            <g id="matplotlib.axis_2">
                <g id="ytick_1">
                    <g id="line2d_7">
                        <defs>
                            <path id="m2aa8a30e12" d="M 0 0
L -3.5 0 
" style="stroke: #000000; stroke-width: 0.8"/>
                        </defs>
                        <g>
                            <use xlink:href="#m2aa8a30e12" x="270" y="615.564176"
                                 style="stroke: #000000; stroke-width: 0.8"/>
                        </g>
                    </g>
                    <g id="text_8">
                        <!-- 0 -->
                        <g transform="translate(250.275 623.162613)scale(0.2 -0.2)">
                            <defs>
                                <path id="DejaVuSans-30" d="M 2034 4250
Q 1547 4250 1301 3770 
Q 1056 3291 1056 2328 
Q 1056 1369 1301 889 
Q 1547 409 2034 409 
Q 2525 409 2770 889 
Q 3016 1369 3016 2328 
Q 3016 3291 2770 3770 
Q 2525 4250 2034 4250 
z
M 2034 4750 
Q 2819 4750 3233 4129 
Q 3647 3509 3647 2328 
Q 3647 1150 3233 529 
Q 2819 -91 2034 -91 
Q 1250 -91 836 529 
Q 422 1150 422 2328 
Q 422 3509 836 4129 
Q 1250 4750 2034 4750 
z
" transform="scale(0.015625)"/>
                            </defs>
                            <use xlink:href="#DejaVuSans-30"/>
                        </g>
                    </g>
                </g>
                <g id="ytick_2">
                    <g id="line2d_8">
                        <g>
                            <use xlink:href="#m2aa8a30e12" x="270" y="511.996125"
                                 style="stroke: #000000; stroke-width: 0.8"/>
                        </g>
                    </g>
                    <g id="text_9">
                        <!-- 5 -->
                        <g transform="translate(250.275 519.594563)scale(0.2 -0.2)">
                            <use xlink:href="#DejaVuSans-35"/>
                        </g>
                    </g>
                </g>
                <g id="ytick_3">
                    <g id="line2d_9">
                        <g>
                            <use xlink:href="#m2aa8a30e12" x="270" y="408.428075"
                                 style="stroke: #000000; stroke-width: 0.8"/>
                        </g>
                    </g>
                    <g id="text_10">
                        <!-- 10 -->
                        <g transform="translate(237.55 416.026512)scale(0.2 -0.2)">
                            <use xlink:href="#DejaVuSans-31"/>
                            <use xlink:href="#DejaVuSans-30" x="63.623047"/>
                        </g>
                    </g>
                </g>
                <g id="ytick_4">
                    <g id="line2d_10">
                        <g>
                            <use xlink:href="#m2aa8a30e12" x="270" y="304.860024"
                                 style="stroke: #000000; stroke-width: 0.8"/>
                        </g>
                    </g>
                    <g id="text_11">
                        <!-- 15 -->
                        <g transform="translate(237.55 312.458462)scale(0.2 -0.2)">
                            <use xlink:href="#DejaVuSans-31"/>
                            <use xlink:href="#DejaVuSans-35" x="63.623047"/>
                        </g>
                    </g>
                </g>
                <g id="ytick_5">
                    <g id="line2d_11">
                        <g>
                            <use xlink:href="#m2aa8a30e12" x="270" y="201.291973"
                                 style="stroke: #000000; stroke-width: 0.8"/>
                        </g>
                    </g>
                    <g id="text_12">
                        <!-- 20 -->
                        <g transform="translate(237.55 208.890411)scale(0.2 -0.2)">
                            <use xlink:href="#DejaVuSans-32"/>
                            <use xlink:href="#DejaVuSans-30" x="63.623047"/>
                        </g>
                    </g>
                </g>
                <g id="ytick_6">
                    <g id="line2d_12">
                        <g>
                            <use xlink:href="#m2aa8a30e12" x="270" y="97.723923"
                                 style="stroke: #000000; stroke-width: 0.8"/>
                        </g>
                    </g>
                    <g id="text_13">
                        <!-- 25 -->
                        <g transform="translate(237.55 105.32236)scale(0.2 -0.2)">
                            <use xlink:href="#DejaVuSans-32"/>
                            <use xlink:href="#DejaVuSans-35" x="63.623047"/>
                        </g>
                    </g>
                </g>
                <g id="text_14">
                    <!-- log -->
                    <g transform="translate(229.390625 378.845312)rotate(-90)scale(0.2 -0.2)">
                        <defs>
                            <path id="DejaVuSans-6f" d="M 1959 3097
Q 1497 3097 1228 2736 
Q 959 2375 959 1747 
Q 959 1119 1226 758 
Q 1494 397 1959 397 
Q 2419 397 2687 759 
Q 2956 1122 2956 1747 
Q 2956 2369 2687 2733 
Q 2419 3097 1959 3097 
z
M 1959 3584 
Q 2709 3584 3137 3096 
Q 3566 2609 3566 1747 
Q 3566 888 3137 398 
Q 2709 -91 1959 -91 
Q 1206 -91 779 398 
Q 353 888 353 1747 
Q 353 2609 779 3096 
Q 1206 3584 1959 3584 
z
" transform="scale(0.015625)"/>
                            <path id="DejaVuSans-67" d="M 2906 1791
Q 2906 2416 2648 2759 
Q 2391 3103 1925 3103 
Q 1463 3103 1205 2759 
Q 947 2416 947 1791 
Q 947 1169 1205 825 
Q 1463 481 1925 481 
Q 2391 481 2648 825 
Q 2906 1169 2906 1791 
z
M 3481 434 
Q 3481 -459 3084 -895 
Q 2688 -1331 1869 -1331 
Q 1566 -1331 1297 -1286 
Q 1028 -1241 775 -1147 
L 775 -588 
Q 1028 -725 1275 -790 
Q 1522 -856 1778 -856 
Q 2344 -856 2625 -561 
Q 2906 -266 2906 331 
L 2906 616 
Q 2728 306 2450 153 
Q 2172 0 1784 0 
Q 1141 0 747 490 
Q 353 981 353 1791 
Q 353 2603 747 3093 
Q 1141 3584 1784 3584 
Q 2172 3584 2450 3431 
Q 2728 3278 2906 2969 
L 2906 3500 
L 3481 3500 
L 3481 434 
z
" transform="scale(0.015625)"/>
                        </defs>
                        <use xlink:href="#DejaVuSans-6c"/>
                        <use xlink:href="#DejaVuSans-6f" x="27.783203"/>
                        <use xlink:href="#DejaVuSans-67" x="88.964844"/>
                    </g>
                </g>
            </g>
            <g id="line2d_13">
                <path d="M 409.5 509.546263
L 409.5 221.478583 
" clip-path="url(#p42c996ecb6)" style="fill: none; stroke: #595959; stroke-width: 1.5; stroke-linecap: square"/>
            </g>
            <g id="line2d_14">
                <path d="M 409.5 488.518433
L 409.5 358.816922 
" clip-path="url(#p42c996ecb6)" style="fill: none; stroke: #595959; stroke-width: 4.5; stroke-linecap: square"/>
            </g>
            <g id="line2d_15">
                <path d="M 688.5 478.444452
L 688.5 232.051917 
" clip-path="url(#p42c996ecb6)" style="fill: none; stroke: #595959; stroke-width: 1.5; stroke-linecap: square"/>
            </g>
            <g id="line2d_16">
                <path d="M 688.5 433.915114
L 688.5 321.649897 
" clip-path="url(#p42c996ecb6)" style="fill: none; stroke: #595959; stroke-width: 4.5; stroke-linecap: square"/>
            </g>
            <g id="line2d_17">
                <path d="M 967.5 497.056508
L 967.5 437.384459 
" clip-path="url(#p42c996ecb6)" style="fill: none; stroke: #595959; stroke-width: 1.5; stroke-linecap: square"/>
            </g>
            <g id="line2d_18">
                <path d="M 967.5 493.902194
L 967.5 464.066169 
" clip-path="url(#p42c996ecb6)" style="fill: none; stroke: #595959; stroke-width: 4.5; stroke-linecap: square"/>
            </g>
            <g id="line2d_19">
                <path d="M 1246.5 507.602465
L 1246.5 432.168524 
" clip-path="url(#p42c996ecb6)" style="fill: none; stroke: #595959; stroke-width: 1.5; stroke-linecap: square"/>
            </g>
            <g id="line2d_20">
                <path d="M 1246.5 498.156338
L 1246.5 439.739458 
" clip-path="url(#p42c996ecb6)" style="fill: none; stroke: #595959; stroke-width: 4.5; stroke-linecap: square"/>
            </g>
            <g id="line2d_21">
                <path d="M 1525.5 511.24604
L 1525.5 359.539506 
" clip-path="url(#p42c996ecb6)" style="fill: none; stroke: #595959; stroke-width: 1.5; stroke-linecap: square"/>
            </g>
            <g id="line2d_22">
                <path d="M 1525.5 500.803795
L 1525.5 441.491713 
" clip-path="url(#p42c996ecb6)" style="fill: none; stroke: #595959; stroke-width: 4.5; stroke-linecap: square"/>
            </g>
            <g id="line2d_23">
                <path d="M 1804.5 511.343293
L 1804.5 390.074643 
" clip-path="url(#p42c996ecb6)" style="fill: none; stroke: #595959; stroke-width: 1.5; stroke-linecap: square"/>
            </g>
            <g id="line2d_24">
                <path d="M 1804.5 476.003121
L 1804.5 441.008028 
" clip-path="url(#p42c996ecb6)" style="fill: none; stroke: #595959; stroke-width: 4.5; stroke-linecap: square"/>
            </g>
            <g id="patch_3">
                <path d="M 270 640.8
L 270 86.4 
" style="fill: none; stroke: #000000; stroke-width: 0.8; stroke-linejoin: miter; stroke-linecap: square"/>
            </g>
            <g id="patch_4">
                <path d="M 1944 640.8
L 1944 86.4 
" style="fill: none; stroke: #000000; stroke-width: 0.8; stroke-linejoin: miter; stroke-linecap: square"/>
            </g>
            <g id="patch_5">
                <path d="M 270 640.8
L 1944 640.8 
" style="fill: none; stroke: #000000; stroke-width: 0.8; stroke-linejoin: miter; stroke-linecap: square"/>
            </g>
            <g id="patch_6">
                <path d="M 270 86.4
L 1944 86.4 
" style="fill: none; stroke: #000000; stroke-width: 0.8; stroke-linejoin: miter; stroke-linecap: square"/>
            </g>
            <g id="PathCollection_1">
                <defs>
                    <path id="me560714fa3" d="M 0 1.5
C 0.397805 1.5 0.77937 1.341951 1.06066 1.06066 
C 1.341951 0.77937 1.5 0.397805 1.5 0 
C 1.5 -0.397805 1.341951 -0.77937 1.06066 -1.06066 
C 0.77937 -1.341951 0.397805 -1.5 0 -1.5 
C -0.397805 -1.5 -0.77937 -1.341951 -1.06066 -1.06066 
C -1.341951 -0.77937 -1.5 -0.397805 -1.5 0 
C -1.5 0.397805 -1.341951 0.77937 -1.06066 1.06066 
C -0.77937 1.341951 -0.397805 1.5 0 1.5 
z
" style="stroke: #595959"/>
                </defs>
                <g clip-path="url(#p42c996ecb6)">
                    <use xlink:href="#me560714fa3" x="409.5" y="448.095416" style="fill: #ffffff; stroke: #595959"/>
                </g>
            </g>
            <g id="PathCollection_2">
                <g clip-path="url(#p42c996ecb6)">
                    <use xlink:href="#me560714fa3" x="688.5" y="387.240563" style="fill: #ffffff; stroke: #595959"/>
                </g>
            </g>
            <g id="PathCollection_3">
                <g clip-path="url(#p42c996ecb6)">
                    <use xlink:href="#me560714fa3" x="967.5" y="490.74788" style="fill: #ffffff; stroke: #595959"/>
                </g>
            </g>
            <g id="PathCollection_4">
                <g clip-path="url(#p42c996ecb6)">
                    <use xlink:href="#me560714fa3" x="1246.5" y="468.635366" style="fill: #ffffff; stroke: #595959"/>
                </g>
            </g>
            <g id="PathCollection_5">
                <g clip-path="url(#p42c996ecb6)">
                    <use xlink:href="#me560714fa3" x="1525.5" y="472.905601" style="fill: #ffffff; stroke: #595959"/>
                </g>
            </g>
            <g id="PathCollection_6">
                <g clip-path="url(#p42c996ecb6)">
                    <use xlink:href="#me560714fa3" x="1804.5" y="461.104443" style="fill: #ffffff; stroke: #595959"/>
                </g>
            </g>
            <g id="PathCollection_7">
                <defs>
                    <path id="C0_0_f80e980578" d="M 0 2.5
C 0.663008 2.5 1.29895 2.236584 1.767767 1.767767 
C 2.236584 1.29895 2.5 0.663008 2.5 -0 
C 2.5 -0.663008 2.236584 -1.29895 1.767767 -1.767767 
C 1.29895 -2.236584 0.663008 -2.5 0 -2.5 
C -0.663008 -2.5 -1.29895 -2.236584 -1.767767 -1.767767 
C -2.236584 -1.29895 -2.5 -0.663008 -2.5 0 
C -2.5 0.663008 -2.236584 1.29895 -1.767767 1.767767 
C -1.29895 2.236584 -0.663008 2.5 0 2.5 
z
"/>
                </defs>
                <g clip-path="url(#p42c996ecb6)">
                    <use xlink:href="#C0_0_f80e980578" x="409.5" y="509.546263" style="fill: #1f77b4"/>
                </g>
                <g clip-path="url(#p42c996ecb6)">
                    <use xlink:href="#C0_0_f80e980578" x="406.897034" y="505.204088" style="fill: #1f77b4"/>
                </g>
                <g clip-path="url(#p42c996ecb6)">
                    <use xlink:href="#C0_0_f80e980578" x="409.5" y="497.95684" style="fill: #1f77b4"/>
                </g>
                <g clip-path="url(#p42c996ecb6)">
                    <use xlink:href="#C0_0_f80e980578" x="406.468039" y="493.874944" style="fill: #1f77b4"/>
                </g>
                <g clip-path="url(#p42c996ecb6)">
                    <use xlink:href="#C0_0_f80e980578" x="409.5" y="489.162003" style="fill: #1f77b4"/>
                </g>
                <g clip-path="url(#p42c996ecb6)">
                    <use xlink:href="#C0_0_f80e980578" x="404.999296" y="486.587724" style="fill: #1f77b4"/>
                </g>
                <g clip-path="url(#p42c996ecb6)">
                    <use xlink:href="#C0_0_f80e980578" x="409.5" y="461.124908" style="fill: #1f77b4"/>
                </g>
                <g clip-path="url(#p42c996ecb6)">
                    <use xlink:href="#C0_0_f80e980578" x="404.857379" y="458.790396" style="fill: #1f77b4"/>
                </g>
                <g clip-path="url(#p42c996ecb6)">
                    <use xlink:href="#C0_0_f80e980578" x="409.5" y="449.673555" style="fill: #1f77b4"/>
                </g>
                <g clip-path="url(#p42c996ecb6)">
                    <use xlink:href="#C0_0_f80e980578" x="405.428232" y="446.517278" style="fill: #1f77b4"/>
                </g>
                <g clip-path="url(#p42c996ecb6)">
                    <use xlink:href="#C0_0_f80e980578" x="409.5" y="414.676976" style="fill: #1f77b4"/>
                </g>
                <g clip-path="url(#p42c996ecb6)">
                    <use xlink:href="#C0_0_f80e980578" x="409.5" y="381.591686" style="fill: #1f77b4"/>
                </g>
                <g clip-path="url(#p42c996ecb6)">
                    <use xlink:href="#C0_0_f80e980578" x="409.5" y="365.872332" style="fill: #1f77b4"/>
                </g>
                <g clip-path="url(#p42c996ecb6)">
                    <use xlink:href="#C0_0_f80e980578" x="409.5" y="356.465119" style="fill: #1f77b4"/>
                </g>
                <g clip-path="url(#p42c996ecb6)">
                    <use xlink:href="#C0_0_f80e980578" x="409.5" y="327.933812" style="fill: #1f77b4"/>
                </g>
                <g clip-path="url(#p42c996ecb6)">
                    <use xlink:href="#C0_0_f80e980578" x="409.5" y="284.780245" style="fill: #1f77b4"/>
                </g>
                <g clip-path="url(#p42c996ecb6)">
                    <use xlink:href="#C0_0_f80e980578" x="409.5" y="224.198133" style="fill: #1f77b4"/>
                </g>
                <g clip-path="url(#p42c996ecb6)">
                    <use xlink:href="#C0_0_f80e980578" x="405.094497" y="221.478583" style="fill: #1f77b4"/>
                </g>
            </g>
            <g id="PathCollection_8">
                <defs>
                    <path id="C1_0_1f7f6478f9" d="M 0 2.5
C 0.663008 2.5 1.29895 2.236584 1.767767 1.767767 
C 2.236584 1.29895 2.5 0.663008 2.5 -0 
C 2.5 -0.663008 2.236584 -1.29895 1.767767 -1.767767 
C 1.29895 -2.236584 0.663008 -2.5 0 -2.5 
C -0.663008 -2.5 -1.29895 -2.236584 -1.767767 -1.767767 
C -2.236584 -1.29895 -2.5 -0.663008 -2.5 0 
C -2.5 0.663008 -2.236584 1.29895 -1.767767 1.767767 
C -1.29895 2.236584 -0.663008 2.5 0 2.5 
z
"/>
                </defs>
                <g clip-path="url(#p42c996ecb6)">
                    <use xlink:href="#C1_0_1f7f6478f9" x="688.5" y="478.444452" style="fill: #ff7f0e"/>
                </g>
                <g clip-path="url(#p42c996ecb6)">
                    <use xlink:href="#C1_0_1f7f6478f9" x="688.5" y="433.915114" style="fill: #ff7f0e"/>
                </g>
                <g clip-path="url(#p42c996ecb6)">
                    <use xlink:href="#C1_0_1f7f6478f9" x="683.25" y="433.915114" style="fill: #ff7f0e"/>
                </g>
                <g clip-path="url(#p42c996ecb6)">
                    <use xlink:href="#C1_0_1f7f6478f9" x="688.5" y="405.840142" style="fill: #ff7f0e"/>
                </g>
                <g clip-path="url(#p42c996ecb6)">
                    <use xlink:href="#C1_0_1f7f6478f9" x="688.5" y="368.640984" style="fill: #ff7f0e"/>
                </g>
                <g clip-path="url(#p42c996ecb6)">
                    <use xlink:href="#C1_0_1f7f6478f9" x="688.5" y="349.922728" style="fill: #ff7f0e"/>
                </g>
                <g clip-path="url(#p42c996ecb6)">
                    <use xlink:href="#C1_0_1f7f6478f9" x="688.5" y="236.831406" style="fill: #ff7f0e"/>
                </g>
                <g clip-path="url(#p42c996ecb6)">
                    <use xlink:href="#C1_0_1f7f6478f9" x="686.958079" y="232.051917" style="fill: #ff7f0e"/>
                </g>
            </g>
            <g id="PathCollection_9">
                <defs>
                    <path id="C2_0_8fa26913b9" d="M 0 2.5
C 0.663008 2.5 1.29895 2.236584 1.767767 1.767767 
C 2.236584 1.29895 2.5 0.663008 2.5 -0 
C 2.5 -0.663008 2.236584 -1.29895 1.767767 -1.767767 
C 1.29895 -2.236584 0.663008 -2.5 0 -2.5 
C -0.663008 -2.5 -1.29895 -2.236584 -1.767767 -1.767767 
C -2.236584 -1.29895 -2.5 -0.663008 -2.5 0 
C -2.5 0.663008 -2.236584 1.29895 -1.767767 1.767767 
C -1.29895 2.236584 -0.663008 2.5 0 2.5 
z
"/>
                </defs>
                <g clip-path="url(#p42c996ecb6)">
                    <use xlink:href="#C2_0_8fa26913b9" x="967.5" y="497.056508" style="fill: #2ca02c"/>
                </g>
                <g clip-path="url(#p42c996ecb6)">
                    <use xlink:href="#C2_0_8fa26913b9" x="967.5" y="490.74788" style="fill: #2ca02c"/>
                </g>
                <g clip-path="url(#p42c996ecb6)">
                    <use xlink:href="#C2_0_8fa26913b9" x="967.5" y="437.384459" style="fill: #2ca02c"/>
                </g>
            </g>
            <g id="PathCollection_10">
                <defs>
                    <path id="C3_0_bee44fbe63" d="M 0 2.5
C 0.663008 2.5 1.29895 2.236584 1.767767 1.767767 
C 2.236584 1.29895 2.5 0.663008 2.5 -0 
C 2.5 -0.663008 2.236584 -1.29895 1.767767 -1.767767 
C 1.29895 -2.236584 0.663008 -2.5 0 -2.5 
C -0.663008 -2.5 -1.29895 -2.236584 -1.767767 -1.767767 
C -2.236584 -1.29895 -2.5 -0.663008 -2.5 0 
C -2.5 0.663008 -2.236584 1.29895 -1.767767 1.767767 
C -1.29895 2.236584 -0.663008 2.5 0 2.5 
z
"/>
                </defs>
                <g clip-path="url(#p42c996ecb6)">
                    <use xlink:href="#C3_0_bee44fbe63" x="1246.5" y="507.602465" style="fill: #d62728"/>
                </g>
                <g clip-path="url(#p42c996ecb6)">
                    <use xlink:href="#C3_0_bee44fbe63" x="1246.5" y="495.007629" style="fill: #d62728"/>
                </g>
                <g clip-path="url(#p42c996ecb6)">
                    <use xlink:href="#C3_0_bee44fbe63" x="1246.5" y="442.263103" style="fill: #d62728"/>
                </g>
                <g clip-path="url(#p42c996ecb6)">
                    <use xlink:href="#C3_0_bee44fbe63" x="1246.5" y="432.168524" style="fill: #d62728"/>
                </g>
            </g>
            <g id="PathCollection_11">
                <defs>
                    <path id="C4_0_e0881e59b2" d="M 0 2.5
C 0.663008 2.5 1.29895 2.236584 1.767767 1.767767 
C 2.236584 1.29895 2.5 0.663008 2.5 -0 
C 2.5 -0.663008 2.236584 -1.29895 1.767767 -1.767767 
C 1.29895 -2.236584 0.663008 -2.5 0 -2.5 
C -0.663008 -2.5 -1.29895 -2.236584 -1.767767 -1.767767 
C -2.236584 -1.29895 -2.5 -0.663008 -2.5 0 
C -2.5 0.663008 -2.236584 1.29895 -1.767767 1.767767 
C -1.29895 2.236584 -0.663008 2.5 0 2.5 
z
"/>
                </defs>
                <g clip-path="url(#p42c996ecb6)">
                    <use xlink:href="#C4_0_e0881e59b2" x="1525.5" y="511.24604" style="fill: #9467bd"/>
                </g>
                <g clip-path="url(#p42c996ecb6)">
                    <use xlink:href="#C4_0_e0881e59b2" x="1520.331475" y="510.368581" style="fill: #9467bd"/>
                </g>
                <g clip-path="url(#p42c996ecb6)">
                    <use xlink:href="#C4_0_e0881e59b2" x="1530.602834" y="510.070483" style="fill: #9467bd"/>
                </g>
                <g clip-path="url(#p42c996ecb6)">
                    <use xlink:href="#C4_0_e0881e59b2" x="1516.675507" y="506.78019" style="fill: #9467bd"/>
                </g>
                <g clip-path="url(#p42c996ecb6)">
                    <use xlink:href="#C4_0_e0881e59b2" x="1525.5" y="505.010622" style="fill: #9467bd"/>
                </g>
                <g clip-path="url(#p42c996ecb6)">
                    <use xlink:href="#C4_0_e0881e59b2" x="1530.741877" y="504.732584" style="fill: #9467bd"/>
                </g>
                <g clip-path="url(#p42c996ecb6)">
                    <use xlink:href="#C4_0_e0881e59b2" x="1535.984436" y="504.466477" style="fill: #9467bd"/>
                </g>
                <g clip-path="url(#p42c996ecb6)">
                    <use xlink:href="#C4_0_e0881e59b2" x="1512.287897" y="504.034527" style="fill: #9467bd"/>
                </g>
                <g clip-path="url(#p42c996ecb6)">
                    <use xlink:href="#C4_0_e0881e59b2" x="1521.094299" y="502.291362" style="fill: #9467bd"/>
                </g>
                <g clip-path="url(#p42c996ecb6)">
                    <use xlink:href="#C4_0_e0881e59b2" x="1540.211321" y="501.500924" style="fill: #9467bd"/>
                </g>
                <g clip-path="url(#p42c996ecb6)">
                    <use xlink:href="#C4_0_e0881e59b2" x="1525.5" y="498.712406" style="fill: #9467bd"/>
                </g>
                <g clip-path="url(#p42c996ecb6)">
                    <use xlink:href="#C4_0_e0881e59b2" x="1530.733973" y="498.32201" style="fill: #9467bd"/>
                </g>
                <g clip-path="url(#p42c996ecb6)">
                    <use xlink:href="#C4_0_e0881e59b2" x="1518.124054" y="498.168516" style="fill: #9467bd"/>
                </g>
                <g clip-path="url(#p42c996ecb6)">
                    <use xlink:href="#C4_0_e0881e59b2" x="1525.5" y="492.139907" style="fill: #9467bd"/>
                </g>
                <g clip-path="url(#p42c996ecb6)">
                    <use xlink:href="#C4_0_e0881e59b2" x="1520.310838" y="491.380929" style="fill: #9467bd"/>
                </g>
                <g clip-path="url(#p42c996ecb6)">
                    <use xlink:href="#C4_0_e0881e59b2" x="1529.555894" y="488.965145" style="fill: #9467bd"/>
                </g>
                <g clip-path="url(#p42c996ecb6)">
                    <use xlink:href="#C4_0_e0881e59b2" x="1524.673898" y="487.126133" style="fill: #9467bd"/>
                </g>
                <g clip-path="url(#p42c996ecb6)">
                    <use xlink:href="#C4_0_e0881e59b2" x="1519.482325" y="486.382255" style="fill: #9467bd"/>
                </g>
                <g clip-path="url(#p42c996ecb6)">
                    <use xlink:href="#C4_0_e0881e59b2" x="1525.5" y="475.85652" style="fill: #9467bd"/>
                </g>
                <g clip-path="url(#p42c996ecb6)">
                    <use xlink:href="#C4_0_e0881e59b2" x="1525.5" y="469.954682" style="fill: #9467bd"/>
                </g>
                <g clip-path="url(#p42c996ecb6)">
                    <use xlink:href="#C4_0_e0881e59b2" x="1520.928123" y="467.496793" style="fill: #9467bd"/>
                </g>
                <g clip-path="url(#p42c996ecb6)">
                    <use xlink:href="#C4_0_e0881e59b2" x="1525.5" y="463.119919" style="fill: #9467bd"/>
                </g>
                <g clip-path="url(#p42c996ecb6)">
                    <use xlink:href="#C4_0_e0881e59b2" x="1530.715574" y="462.548261" style="fill: #9467bd"/>
                </g>
                <g clip-path="url(#p42c996ecb6)">
                    <use xlink:href="#C4_0_e0881e59b2" x="1525.5" y="454.043914" style="fill: #9467bd"/>
                </g>
                <g clip-path="url(#p42c996ecb6)">
                    <use xlink:href="#C4_0_e0881e59b2" x="1520.539255" y="452.407172" style="fill: #9467bd"/>
                </g>
                <g clip-path="url(#p42c996ecb6)">
                    <use xlink:href="#C4_0_e0881e59b2" x="1530.386372" y="452.215473" style="fill: #9467bd"/>
                </g>
                <g clip-path="url(#p42c996ecb6)">
                    <use xlink:href="#C4_0_e0881e59b2" x="1525.5" y="445.108813" style="fill: #9467bd"/>
                </g>
                <g clip-path="url(#p42c996ecb6)">
                    <use xlink:href="#C4_0_e0881e59b2" x="1520.387325" y="443.972699" style="fill: #9467bd"/>
                </g>
                <g clip-path="url(#p42c996ecb6)">
                    <use xlink:href="#C4_0_e0881e59b2" x="1527.905857" y="440.664718" style="fill: #9467bd"/>
                </g>
                <g clip-path="url(#p42c996ecb6)">
                    <use xlink:href="#C4_0_e0881e59b2" x="1533.10027" y="439.939045" style="fill: #9467bd"/>
                </g>
                <g clip-path="url(#p42c996ecb6)">
                    <use xlink:href="#C4_0_e0881e59b2" x="1525.5" y="421.121041" style="fill: #9467bd"/>
                </g>
                <g clip-path="url(#p42c996ecb6)">
                    <use xlink:href="#C4_0_e0881e59b2" x="1520.340318" y="420.197584" style="fill: #9467bd"/>
                </g>
                <g clip-path="url(#p42c996ecb6)">
                    <use xlink:href="#C4_0_e0881e59b2" x="1527.8934" y="416.670849" style="fill: #9467bd"/>
                </g>
                <g clip-path="url(#p42c996ecb6)">
                    <use xlink:href="#C4_0_e0881e59b2" x="1525.5" y="400.624207" style="fill: #9467bd"/>
                </g>
                <g clip-path="url(#p42c996ecb6)">
                    <use xlink:href="#C4_0_e0881e59b2" x="1520.265055" y="400.245818" style="fill: #9467bd"/>
                </g>
                <g clip-path="url(#p42c996ecb6)">
                    <use xlink:href="#C4_0_e0881e59b2" x="1525.5" y="393.229084" style="fill: #9467bd"/>
                </g>
                <g clip-path="url(#p42c996ecb6)">
                    <use xlink:href="#C4_0_e0881e59b2" x="1525.5" y="359.539506" style="fill: #9467bd"/>
                </g>
                <g clip-path="url(#p42c996ecb6)">
                    <use xlink:href="#C4_0_e0881e59b2" x="1525.5" y="245.841904" style="fill: #9467bd"/>
                </g>
            </g>
            <g id="PathCollection_12">
                <defs>
                    <path id="C5_0_36f7db818f" d="M 0 2.5
C 0.663008 2.5 1.29895 2.236584 1.767767 1.767767 
C 2.236584 1.29895 2.5 0.663008 2.5 -0 
C 2.5 -0.663008 2.236584 -1.29895 1.767767 -1.767767 
C 1.29895 -2.236584 0.663008 -2.5 0 -2.5 
C -0.663008 -2.5 -1.29895 -2.236584 -1.767767 -1.767767 
C -2.236584 -1.29895 -2.5 -0.663008 -2.5 0 
C -2.5 0.663008 -2.236584 1.29895 -1.767767 1.767767 
C -1.29895 2.236584 -0.663008 2.5 0 2.5 
z
"/>
                </defs>
                <g clip-path="url(#p42c996ecb6)">
                    <use xlink:href="#C5_0_36f7db818f" x="1804.5" y="511.343293" style="fill: #8c564b"/>
                </g>
                <g clip-path="url(#p42c996ecb6)">
                    <use xlink:href="#C5_0_36f7db818f" x="1804.5" y="464.223063" style="fill: #8c564b"/>
                </g>
                <g clip-path="url(#p42c996ecb6)">
                    <use xlink:href="#C5_0_36f7db818f" x="1804.5" y="457.985824" style="fill: #8c564b"/>
                </g>
                <g clip-path="url(#p42c996ecb6)">
                    <use xlink:href="#C5_0_36f7db818f" x="1804.5" y="390.074643" style="fill: #8c564b"/>
                </g>
            </g>
            <g id="text_15">
                <!-- P values of Field Endocrine -->
                <g transform="translate(946.209375 80.4)scale(0.24 -0.24)">
                    <defs>
                        <path id="DejaVuSans-50" d="M 1259 4147
L 1259 2394 
L 2053 2394 
Q 2494 2394 2734 2622 
Q 2975 2850 2975 3272 
Q 2975 3691 2734 3919 
Q 2494 4147 2053 4147 
L 1259 4147 
z
M 628 4666 
L 2053 4666 
Q 2838 4666 3239 4311 
Q 3641 3956 3641 3272 
Q 3641 2581 3239 2228 
Q 2838 1875 2053 1875 
L 1259 1875 
L 1259 0 
L 628 0 
L 628 4666 
z
" transform="scale(0.015625)"/>
                        <path id="DejaVuSans-20" transform="scale(0.015625)"/>
                        <path id="DejaVuSans-76" d="M 191 3500
L 800 3500 
L 1894 563 
L 2988 3500 
L 3597 3500 
L 2284 0 
L 1503 0 
L 191 3500 
z
" transform="scale(0.015625)"/>
                        <path id="DejaVuSans-61" d="M 2194 1759
Q 1497 1759 1228 1600 
Q 959 1441 959 1056 
Q 959 750 1161 570 
Q 1363 391 1709 391 
Q 2188 391 2477 730 
Q 2766 1069 2766 1631 
L 2766 1759 
L 2194 1759 
z
M 3341 1997 
L 3341 0 
L 2766 0 
L 2766 531 
Q 2569 213 2275 61 
Q 1981 -91 1556 -91 
Q 1019 -91 701 211 
Q 384 513 384 1019 
Q 384 1609 779 1909 
Q 1175 2209 1959 2209 
L 2766 2209 
L 2766 2266 
Q 2766 2663 2505 2880 
Q 2244 3097 1772 3097 
Q 1472 3097 1187 3025 
Q 903 2953 641 2809 
L 641 3341 
Q 956 3463 1253 3523 
Q 1550 3584 1831 3584 
Q 2591 3584 2966 3190 
Q 3341 2797 3341 1997 
z
" transform="scale(0.015625)"/>
                        <path id="DejaVuSans-66" d="M 2375 4863
L 2375 4384 
L 1825 4384 
Q 1516 4384 1395 4259 
Q 1275 4134 1275 3809 
L 1275 3500 
L 2222 3500 
L 2222 3053 
L 1275 3053 
L 1275 0 
L 697 0 
L 697 3053 
L 147 3053 
L 147 3500 
L 697 3500 
L 697 3744 
Q 697 4328 969 4595 
Q 1241 4863 1831 4863 
L 2375 4863 
z
" transform="scale(0.015625)"/>
                        <path id="DejaVuSans-46" d="M 628 4666
L 3309 4666 
L 3309 4134 
L 1259 4134 
L 1259 2759 
L 3109 2759 
L 3109 2228 
L 1259 2228 
L 1259 0 
L 628 0 
L 628 4666 
z
" transform="scale(0.015625)"/>
                        <path id="DejaVuSans-69" d="M 603 3500
L 1178 3500 
L 1178 0 
L 603 0 
L 603 3500 
z
M 603 4863 
L 1178 4863 
L 1178 4134 
L 603 4134 
L 603 4863 
z
" transform="scale(0.015625)"/>
                        <path id="DejaVuSans-64" d="M 2906 2969
L 2906 4863 
L 3481 4863 
L 3481 0 
L 2906 0 
L 2906 525 
Q 2725 213 2448 61 
Q 2172 -91 1784 -91 
Q 1150 -91 751 415 
Q 353 922 353 1747 
Q 353 2572 751 3078 
Q 1150 3584 1784 3584 
Q 2172 3584 2448 3432 
Q 2725 3281 2906 2969 
z
M 947 1747 
Q 947 1113 1208 752 
Q 1469 391 1925 391 
Q 2381 391 2643 752 
Q 2906 1113 2906 1747 
Q 2906 2381 2643 2742 
Q 2381 3103 1925 3103 
Q 1469 3103 1208 2742 
Q 947 2381 947 1747 
z
" transform="scale(0.015625)"/>
                        <path id="DejaVuSans-45" d="M 628 4666
L 3578 4666 
L 3578 4134 
L 1259 4134 
L 1259 2753 
L 3481 2753 
L 3481 2222 
L 1259 2222 
L 1259 531 
L 3634 531 
L 3634 0 
L 628 0 
L 628 4666 
z
" transform="scale(0.015625)"/>
                        <path id="DejaVuSans-6e" d="M 3513 2113
L 3513 0 
L 2938 0 
L 2938 2094 
Q 2938 2591 2744 2837 
Q 2550 3084 2163 3084 
Q 1697 3084 1428 2787 
Q 1159 2491 1159 1978 
L 1159 0 
L 581 0 
L 581 3500 
L 1159 3500 
L 1159 2956 
Q 1366 3272 1645 3428 
Q 1925 3584 2291 3584 
Q 2894 3584 3203 3211 
Q 3513 2838 3513 2113 
z
" transform="scale(0.015625)"/>
                    </defs>
                    <use xlink:href="#DejaVuSans-50"/>
                    <use xlink:href="#DejaVuSans-20" x="60.302734"/>
                    <use xlink:href="#DejaVuSans-76" x="92.089844"/>
                    <use xlink:href="#DejaVuSans-61" x="151.269531"/>
                    <use xlink:href="#DejaVuSans-6c" x="212.548828"/>
                    <use xlink:href="#DejaVuSans-75" x="240.332031"/>
                    <use xlink:href="#DejaVuSans-65" x="303.710938"/>
                    <use xlink:href="#DejaVuSans-73" x="365.234375"/>
                    <use xlink:href="#DejaVuSans-20" x="417.333984"/>
                    <use xlink:href="#DejaVuSans-6f" x="449.121094"/>
                    <use xlink:href="#DejaVuSans-66" x="510.302734"/>
                    <use xlink:href="#DejaVuSans-20" x="545.507812"/>
                    <use xlink:href="#DejaVuSans-46" x="577.294922"/>
                    <use xlink:href="#DejaVuSans-69" x="627.564453"/>
                    <use xlink:href="#DejaVuSans-65" x="655.347656"/>
                    <use xlink:href="#DejaVuSans-6c" x="716.871094"/>
                    <use xlink:href="#DejaVuSans-64" x="744.654297"/>
                    <use xlink:href="#DejaVuSans-20" x="808.130859"/>
                    <use xlink:href="#DejaVuSans-45" x="839.917969"/>
                    <use xlink:href="#DejaVuSans-6e" x="903.101562"/>
                    <use xlink:href="#DejaVuSans-64" x="966.480469"/>
                    <use xlink:href="#DejaVuSans-6f" x="1029.957031"/>
                    <use xlink:href="#DejaVuSans-63" x="1091.138672"/>
                    <use xlink:href="#DejaVuSans-72" x="1146.119141"/>
                    <use xlink:href="#DejaVuSans-69" x="1187.232422"/>
                    <use xlink:href="#DejaVuSans-6e" x="1215.015625"/>
                    <use xlink:href="#DejaVuSans-65" x="1278.394531"/>
                </g>
            </g>
        </g>
    </g>
    <defs>
        <clipPath id="p42c996ecb6">
            <rect x="270" y="86.4" width="1674" height="554.4"/>
        </clipPath>
    </defs>
</svg>
