<?xml version="1.0" encoding="utf-8" standalone="no"?>
<!DOCTYPE svg PUBLIC "-//W3C//DTD SVG 1.1//EN"
        "http://www.w3.org/Graphics/SVG/1.1/DTD/svg11.dtd">
<svg xmlns:xlink="http://www.w3.org/1999/xlink" width="2160pt" height="720pt" viewBox="0 0 2160 720"
     xmlns="http://www.w3.org/2000/svg" version="1.1">
    <metadata>
        <rdf:RDF xmlns:dc="http://purl.org/dc/elements/1.1/" xmlns:cc="http://creativecommons.org/ns#"
                 xmlns:rdf="http://www.w3.org/1999/02/22-rdf-syntax-ns#">
            <cc:Work>
                <dc:type rdf:resource="http://purl.org/dc/dcmitype/StillImage"/>
                <dc:date>2022-06-10T17:50:37.516800</dc:date>
                <dc:format>image/svg+xml</dc:format>
                <dc:creator>
                    <cc:Agent>
                        <dc:title>Matplotlib v3.5.1, https://matplotlib.org/</dc:title>
                    </cc:Agent>
                </dc:creator>
            </cc:Work>
        </rdf:RDF>
    </metadata>
    <defs>
        <style type="text/css">*{stroke-linejoin: round; stroke-linecap: butt}</style>
    </defs>
    <g id="figure_1">
        <g id="patch_1">
            <path d="M 0 720
L 2160 720 
L 2160 0 
L 0 0 
z
" style="fill: #ffffff"/>
        </g>
        <g id="axes_1">
            <g id="patch_2">
                <path d="M 270 640.8
L 1944 640.8 
L 1944 86.4 
L 270 86.4 
z
" style="fill: #ffffff"/>
            </g>
            <g id="PolyCollection_1">
                <defs>
                    <path id="md8da41e5e2" d="M 412.427372 -104.4
L 406.572628 -104.4 
L 406.003394 -109.490909 
L 405.349957 -114.581818 
L 404.60553 -119.672727 
L 403.763901 -124.763636 
L 402.819699 -129.854545 
L 401.768661 -134.945455 
L 400.607917 -140.036364 
L 399.336264 -145.127273 
L 397.954434 -150.218182 
L 396.465331 -155.309091 
L 394.874237 -160.4 
L 393.188964 -165.490909 
L 391.419948 -170.581818 
L 389.580275 -175.672727 
L 387.685628 -180.763636 
L 385.754151 -185.854545 
L 383.806225 -190.945455 
L 381.864163 -196.036364 
L 379.951819 -201.127273 
L 378.094131 -206.218182 
L 376.31659 -211.309091 
L 374.644676 -216.4 
L 373.103245 -221.490909 
L 371.715922 -226.581818 
L 370.504484 -231.672727 
L 369.48828 -236.763636 
L 368.683701 -241.854545 
L 368.103708 -246.945455 
L 367.757455 -252.036364 
L 367.65 -257.127273 
L 367.782131 -262.218182 
L 368.150306 -267.309091 
L 368.746714 -272.4 
L 369.559445 -277.490909 
L 370.572782 -282.581818 
L 371.767589 -287.672727 
L 373.121784 -292.763636 
L 374.610891 -297.854545 
L 376.208641 -302.945455 
L 377.887612 -308.036364 
L 379.619875 -313.127273 
L 381.377642 -318.218182 
L 383.133885 -323.309091 
L 384.862913 -328.4 
L 386.540893 -333.490909 
L 388.146298 -338.581818 
L 389.660282 -343.672727 
L 391.066963 -348.763636 
L 392.353623 -353.854545 
L 393.510821 -358.945455 
L 394.532414 -364.036364 
L 395.415503 -369.127273 
L 396.160309 -374.218182 
L 396.769971 -379.309091 
L 397.250305 -384.4 
L 397.609503 -389.490909 
L 397.857802 -394.581818 
L 398.007131 -399.672727 
L 398.070735 -404.763636 
L 398.062798 -409.854545 
L 397.998068 -414.945455 
L 397.891488 -420.036364 
L 397.757846 -425.127273 
L 397.611456 -430.218182 
L 397.465854 -435.309091 
L 397.333543 -440.4 
L 397.225767 -445.490909 
L 397.152325 -450.581818 
L 397.121437 -455.672727 
L 397.139646 -460.763636 
L 397.211768 -465.854545 
L 397.340888 -470.945455 
L 397.528395 -476.036364 
L 397.774058 -481.127273 
L 398.07614 -486.218182 
L 398.431543 -491.309091 
L 398.835974 -496.4 
L 399.284144 -501.490909 
L 399.769962 -506.581818 
L 400.28676 -511.672727 
L 400.827496 -516.763636 
L 401.38497 -521.854545 
L 401.952016 -526.945455 
L 402.521686 -532.036364 
L 403.087408 -537.127273 
L 403.643121 -542.218182 
L 404.183386 -547.309091 
L 404.703467 -552.4 
L 405.19938 -557.490909 
L 405.667925 -562.581818 
L 406.106681 -567.672727 
L 406.513986 -572.763636 
L 406.888896 -577.854545 
L 407.231123 -582.945455 
L 407.540969 -588.036364 
L 407.819243 -593.127273 
L 408.067181 -598.218182 
L 408.286359 -603.309091 
L 408.478608 -608.4 
L 410.521392 -608.4 
L 410.521392 -608.4 
L 410.713641 -603.309091 
L 410.932819 -598.218182 
L 411.180757 -593.127273 
L 411.459031 -588.036364 
L 411.768877 -582.945455 
L 412.111104 -577.854545 
L 412.486014 -572.763636 
L 412.893319 -567.672727 
L 413.332075 -562.581818 
L 413.80062 -557.490909 
L 414.296533 -552.4 
L 414.816614 -547.309091 
L 415.356879 -542.218182 
L 415.912592 -537.127273 
L 416.478314 -532.036364 
L 417.047984 -526.945455 
L 417.61503 -521.854545 
L 418.172504 -516.763636 
L 418.71324 -511.672727 
L 419.230038 -506.581818 
L 419.715856 -501.490909 
L 420.164026 -496.4 
L 420.568457 -491.309091 
L 420.92386 -486.218182 
L 421.225942 -481.127273 
L 421.471605 -476.036364 
L 421.659112 -470.945455 
L 421.788232 -465.854545 
L 421.860354 -460.763636 
L 421.878563 -455.672727 
L 421.847675 -450.581818 
L 421.774233 -445.490909 
L 421.666457 -440.4 
L 421.534146 -435.309091 
L 421.388544 -430.218182 
L 421.242154 -425.127273 
L 421.108512 -420.036364 
L 421.001932 -414.945455 
L 420.937202 -409.854545 
L 420.929265 -404.763636 
L 420.992869 -399.672727 
L 421.142198 -394.581818 
L 421.390497 -389.490909 
L 421.749695 -384.4 
L 422.230029 -379.309091 
L 422.839691 -374.218182 
L 423.584497 -369.127273 
L 424.467586 -364.036364 
L 425.489179 -358.945455 
L 426.646377 -353.854545 
L 427.933037 -348.763636 
L 429.339718 -343.672727 
L 430.853702 -338.581818 
L 432.459107 -333.490909 
L 434.137087 -328.4 
L 435.866115 -323.309091 
L 437.622358 -318.218182 
L 439.380125 -313.127273 
L 441.112388 -308.036364 
L 442.791359 -302.945455 
L 444.389109 -297.854545 
L 445.878216 -292.763636 
L 447.232411 -287.672727 
L 448.427218 -282.581818 
L 449.440555 -277.490909 
L 450.253286 -272.4 
L 450.849694 -267.309091 
L 451.217869 -262.218182 
L 451.35 -257.127273 
L 451.242545 -252.036364 
L 450.896292 -246.945455 
L 450.316299 -241.854545 
L 449.51172 -236.763636 
L 448.495516 -231.672727 
L 447.284078 -226.581818 
L 445.896755 -221.490909 
L 444.355324 -216.4 
L 442.68341 -211.309091 
L 440.905869 -206.218182 
L 439.048181 -201.127273 
L 437.135837 -196.036364 
L 435.193775 -190.945455 
L 433.245849 -185.854545 
L 431.314372 -180.763636 
L 429.419725 -175.672727 
L 427.580052 -170.581818 
L 425.811036 -165.490909 
L 424.125763 -160.4 
L 422.534669 -155.309091 
L 421.045566 -150.218182 
L 419.663736 -145.127273 
L 418.392083 -140.036364 
L 417.231339 -134.945455 
L 416.180301 -129.854545 
L 415.236099 -124.763636 
L 414.39447 -119.672727 
L 413.650043 -114.581818 
L 412.996606 -109.490909 
L 412.427372 -104.4 
z
" style="stroke: #595959; stroke-width: 1.5"/>
                </defs>
                <g clip-path="url(#pbc3b2eed19)">
                    <use xlink:href="#md8da41e5e2" x="0" y="720"
                         style="fill: #72b6a1; stroke: #595959; stroke-width: 1.5"/>
                </g>
            </g>
            <g id="PolyCollection_2">
                <defs>
                    <path id="m285f01e835" d="M 690.439243 -118.31737
L 686.560757 -118.31737 
L 686.144446 -122.707712 
L 685.660184 -127.098055 
L 685.101768 -131.488398 
L 684.463421 -135.87874 
L 683.740014 -140.269083 
L 682.927286 -144.659425 
L 682.022067 -149.049768 
L 681.022484 -153.440111 
L 679.928139 -157.830453 
L 678.740254 -162.220796 
L 677.461773 -166.611139 
L 676.097407 -171.001481 
L 674.653631 -175.391824 
L 673.138609 -179.782166 
L 671.562081 -184.172509 
L 669.935182 -188.562852 
L 668.270231 -192.953194 
L 666.580482 -197.343537 
L 664.879854 -201.73388 
L 663.182664 -206.124222 
L 661.503351 -210.514565 
L 659.856237 -214.904908 
L 658.255301 -219.29525 
L 656.713998 -223.685593 
L 655.245109 -228.075935 
L 653.860632 -232.466278 
L 652.571712 -236.856621 
L 651.388592 -241.246963 
L 650.32059 -245.637306 
L 649.376088 -250.027649 
L 648.562521 -254.417991 
L 647.886367 -258.808334 
L 647.353118 -263.198676 
L 646.967241 -267.589019 
L 646.732123 -271.979362 
L 646.65 -276.369704 
L 646.721873 -280.760047 
L 646.947424 -285.15039 
L 647.324929 -289.540732 
L 647.85119 -293.931075 
L 648.521474 -298.321418 
L 649.329489 -302.71176 
L 650.267381 -307.102103 
L 651.325774 -311.492445 
L 652.493844 -315.882788 
L 653.759426 -320.273131 
L 655.109162 -324.663473 
L 656.528676 -329.053816 
L 658.002782 -333.444159 
L 659.515714 -337.834501 
L 661.051368 -342.224844 
L 662.593569 -346.615186 
L 664.126339 -351.005529 
L 665.634172 -355.395872 
L 667.102305 -359.786214 
L 668.516991 -364.176557 
L 669.865753 -368.5669 
L 671.137629 -372.957242 
L 672.323392 -377.347585 
L 673.415735 -381.737927 
L 674.409434 -386.12827 
L 675.301448 -390.518613 
L 676.090986 -394.908955 
L 676.779502 -399.299298 
L 677.370641 -403.689641 
L 677.870107 -408.079983 
L 678.285476 -412.470326 
L 678.625946 -416.860669 
L 678.902025 -421.251011 
L 679.125182 -425.641354 
L 679.307459 -430.031696 
L 679.461063 -434.422039 
L 679.597961 -438.812382 
L 679.729488 -443.202724 
L 679.865986 -447.593067 
L 680.016492 -451.98341 
L 680.188488 -456.373752 
L 680.387724 -460.764095 
L 680.618116 -465.154437 
L 680.881728 -469.54478 
L 681.178829 -473.935123 
L 681.508021 -478.325465 
L 681.866434 -482.715808 
L 682.249966 -487.106151 
L 682.653554 -491.496493 
L 683.071473 -495.886836 
L 683.497628 -500.277179 
L 683.925839 -504.667521 
L 684.350102 -509.057864 
L 684.764812 -513.448206 
L 685.164946 -517.838549 
L 685.546199 -522.228892 
L 685.905073 -526.619234 
L 686.238917 -531.009577 
L 686.545927 -535.39992 
L 686.825112 -539.790262 
L 687.076224 -544.180605 
L 687.29967 -548.570947 
L 687.496411 -552.96129 
L 689.503589 -552.96129 
L 689.503589 -552.96129 
L 689.70033 -548.570947 
L 689.923776 -544.180605 
L 690.174888 -539.790262 
L 690.454073 -535.39992 
L 690.761083 -531.009577 
L 691.094927 -526.619234 
L 691.453801 -522.228892 
L 691.835054 -517.838549 
L 692.235188 -513.448206 
L 692.649898 -509.057864 
L 693.074161 -504.667521 
L 693.502372 -500.277179 
L 693.928527 -495.886836 
L 694.346446 -491.496493 
L 694.750034 -487.106151 
L 695.133566 -482.715808 
L 695.491979 -478.325465 
L 695.821171 -473.935123 
L 696.118272 -469.54478 
L 696.381884 -465.154437 
L 696.612276 -460.764095 
L 696.811512 -456.373752 
L 696.983508 -451.98341 
L 697.134014 -447.593067 
L 697.270512 -443.202724 
L 697.402039 -438.812382 
L 697.538937 -434.422039 
L 697.692541 -430.031696 
L 697.874818 -425.641354 
L 698.097975 -421.251011 
L 698.374054 -416.860669 
L 698.714524 -412.470326 
L 699.129893 -408.079983 
L 699.629359 -403.689641 
L 700.220498 -399.299298 
L 700.909014 -394.908955 
L 701.698552 -390.518613 
L 702.590566 -386.12827 
L 703.584265 -381.737927 
L 704.676608 -377.347585 
L 705.862371 -372.957242 
L 707.134247 -368.5669 
L 708.483009 -364.176557 
L 709.897695 -359.786214 
L 711.365828 -355.395872 
L 712.873661 -351.005529 
L 714.406431 -346.615186 
L 715.948632 -342.224844 
L 717.484286 -337.834501 
L 718.997218 -333.444159 
L 720.471324 -329.053816 
L 721.890838 -324.663473 
L 723.240574 -320.273131 
L 724.506156 -315.882788 
L 725.674226 -311.492445 
L 726.732619 -307.102103 
L 727.670511 -302.71176 
L 728.478526 -298.321418 
L 729.14881 -293.931075 
L 729.675071 -289.540732 
L 730.052576 -285.15039 
L 730.278127 -280.760047 
L 730.35 -276.369704 
L 730.267877 -271.979362 
L 730.032759 -267.589019 
L 729.646882 -263.198676 
L 729.113633 -258.808334 
L 728.437479 -254.417991 
L 727.623912 -250.027649 
L 726.67941 -245.637306 
L 725.611408 -241.246963 
L 724.428288 -236.856621 
L 723.139368 -232.466278 
L 721.754891 -228.075935 
L 720.286002 -223.685593 
L 718.744699 -219.29525 
L 717.143763 -214.904908 
L 715.496649 -210.514565 
L 713.817336 -206.124222 
L 712.120146 -201.73388 
L 710.419518 -197.343537 
L 708.729769 -192.953194 
L 707.064818 -188.562852 
L 705.437919 -184.172509 
L 703.861391 -179.782166 
L 702.346369 -175.391824 
L 700.902593 -171.001481 
L 699.538227 -166.611139 
L 698.259746 -162.220796 
L 697.071861 -157.830453 
L 695.977516 -153.440111 
L 694.977933 -149.049768 
L 694.072714 -144.659425 
L 693.259986 -140.269083 
L 692.536579 -135.87874 
L 691.898232 -131.488398 
L 691.339816 -127.098055 
L 690.855554 -122.707712 
L 690.439243 -118.31737 
z
" style="stroke: #595959; stroke-width: 1.5"/>
                </defs>
                <g clip-path="url(#pbc3b2eed19)">
                    <use xlink:href="#m285f01e835" x="0" y="720"
                         style="fill: #e99675; stroke: #595959; stroke-width: 1.5"/>
                </g>
            </g>
            <g id="PolyCollection_3">
                <defs>
                    <path id="ma42cff543e" d="M 968.938996 -160.295564
L 966.061004 -160.295564 
L 965.860482 -162.890342 
L 965.639368 -165.485121 
L 965.39674 -168.079899 
L 965.131818 -170.674678 
L 964.844004 -173.269456 
L 964.532905 -175.864235 
L 964.198371 -178.459013 
L 963.840521 -181.053792 
L 963.459768 -183.64857 
L 963.056847 -186.243349 
L 962.632833 -188.838127 
L 962.189154 -191.432906 
L 961.727599 -194.027684 
L 961.250319 -196.622463 
L 960.759823 -199.217241 
L 960.258957 -201.81202 
L 959.750887 -204.406798 
L 959.239062 -207.001577 
L 958.727176 -209.596355 
L 958.219121 -212.191134 
L 957.718926 -214.785912 
L 957.230701 -217.380691 
L 956.758566 -219.975469 
L 956.306581 -222.570248 
L 955.878672 -225.165026 
L 955.47856 -227.759805 
L 955.109688 -230.354583 
L 954.77515 -232.949361 
L 954.477632 -235.54414 
L 954.219356 -238.138918 
L 954.002029 -240.733697 
L 953.826811 -243.328475 
L 953.694289 -245.923254 
L 953.604464 -248.518032 
L 953.556752 -251.112811 
L 953.55 -253.707589 
L 953.582511 -256.302368 
L 953.652086 -258.897146 
L 953.756075 -261.491925 
L 953.891439 -264.086703 
L 954.054819 -266.681482 
L 954.242619 -269.27626 
L 954.451082 -271.871039 
L 954.676379 -274.465817 
L 954.914692 -277.060596 
L 955.162297 -279.655374 
L 955.415647 -282.250153 
L 955.671436 -284.844931 
L 955.926672 -287.43971 
L 956.178724 -290.034488 
L 956.425369 -292.629267 
L 956.664823 -295.224045 
L 956.895756 -297.818824 
L 957.117301 -300.413602 
L 957.329047 -303.008381 
L 957.531015 -305.603159 
L 957.723636 -308.197938 
L 957.907705 -310.792716 
L 958.084333 -313.387494 
L 958.254896 -315.982273 
L 958.420972 -318.577051 
L 958.58428 -321.17183 
L 958.746616 -323.766608 
L 958.90979 -326.361387 
L 959.075567 -328.956165 
L 959.245609 -331.550944 
L 959.421429 -334.145722 
L 959.604343 -336.740501 
L 959.795439 -339.335279 
L 959.995547 -341.930058 
L 960.205222 -344.524836 
L 960.424733 -347.119615 
L 960.654066 -349.714393 
L 960.892926 -352.309172 
L 961.140755 -354.90395 
L 961.396751 -357.498729 
L 961.659896 -360.093507 
L 961.92899 -362.688286 
L 962.202678 -365.283064 
L 962.479495 -367.877843 
L 962.757895 -370.472621 
L 963.036295 -373.0674 
L 963.313109 -375.662178 
L 963.586778 -378.256957 
L 963.855808 -380.851735 
L 964.118789 -383.446514 
L 964.374426 -386.041292 
L 964.621552 -388.636071 
L 964.859146 -391.230849 
L 965.086342 -393.825628 
L 965.302434 -396.420406 
L 965.506879 -399.015184 
L 965.699295 -401.609963 
L 965.879454 -404.204741 
L 966.047272 -406.79952 
L 966.202805 -409.394298 
L 966.346229 -411.989077 
L 966.47783 -414.583855 
L 966.597988 -417.178634 
L 968.402012 -417.178634 
L 968.402012 -417.178634 
L 968.52217 -414.583855 
L 968.653771 -411.989077 
L 968.797195 -409.394298 
L 968.952728 -406.79952 
L 969.120546 -404.204741 
L 969.300705 -401.609963 
L 969.493121 -399.015184 
L 969.697566 -396.420406 
L 969.913658 -393.825628 
L 970.140854 -391.230849 
L 970.378448 -388.636071 
L 970.625574 -386.041292 
L 970.881211 -383.446514 
L 971.144192 -380.851735 
L 971.413222 -378.256957 
L 971.686891 -375.662178 
L 971.963705 -373.0674 
L 972.242105 -370.472621 
L 972.520505 -367.877843 
L 972.797322 -365.283064 
L 973.07101 -362.688286 
L 973.340104 -360.093507 
L 973.603249 -357.498729 
L 973.859245 -354.90395 
L 974.107074 -352.309172 
L 974.345934 -349.714393 
L 974.575267 -347.119615 
L 974.794778 -344.524836 
L 975.004453 -341.930058 
L 975.204561 -339.335279 
L 975.395657 -336.740501 
L 975.578571 -334.145722 
L 975.754391 -331.550944 
L 975.924433 -328.956165 
L 976.09021 -326.361387 
L 976.253384 -323.766608 
L 976.41572 -321.17183 
L 976.579028 -318.577051 
L 976.745104 -315.982273 
L 976.915667 -313.387494 
L 977.092295 -310.792716 
L 977.276364 -308.197938 
L 977.468985 -305.603159 
L 977.670953 -303.008381 
L 977.882699 -300.413602 
L 978.104244 -297.818824 
L 978.335177 -295.224045 
L 978.574631 -292.629267 
L 978.821276 -290.034488 
L 979.073328 -287.43971 
L 979.328564 -284.844931 
L 979.584353 -282.250153 
L 979.837703 -279.655374 
L 980.085308 -277.060596 
L 980.323621 -274.465817 
L 980.548918 -271.871039 
L 980.757381 -269.27626 
L 980.945181 -266.681482 
L 981.108561 -264.086703 
L 981.243925 -261.491925 
L 981.347914 -258.897146 
L 981.417489 -256.302368 
L 981.45 -253.707589 
L 981.443248 -251.112811 
L 981.395536 -248.518032 
L 981.305711 -245.923254 
L 981.173189 -243.328475 
L 980.997971 -240.733697 
L 980.780644 -238.138918 
L 980.522368 -235.54414 
L 980.22485 -232.949361 
L 979.890312 -230.354583 
L 979.52144 -227.759805 
L 979.121328 -225.165026 
L 978.693419 -222.570248 
L 978.241434 -219.975469 
L 977.769299 -217.380691 
L 977.281074 -214.785912 
L 976.780879 -212.191134 
L 976.272824 -209.596355 
L 975.760938 -207.001577 
L 975.249113 -204.406798 
L 974.741043 -201.81202 
L 974.240177 -199.217241 
L 973.749681 -196.622463 
L 973.272401 -194.027684 
L 972.810846 -191.432906 
L 972.367167 -188.838127 
L 971.943153 -186.243349 
L 971.540232 -183.64857 
L 971.159479 -181.053792 
L 970.801629 -178.459013 
L 970.467095 -175.864235 
L 970.155996 -173.269456 
L 969.868182 -170.674678 
L 969.60326 -168.079899 
L 969.360632 -165.485121 
L 969.139518 -162.890342 
L 968.938996 -160.295564 
z
" style="stroke: #595959; stroke-width: 1.5"/>
                </defs>
                <g clip-path="url(#pbc3b2eed19)">
                    <use xlink:href="#ma42cff543e" x="0" y="720"
                         style="fill: #95a3c3; stroke: #595959; stroke-width: 1.5"/>
                </g>
            </g>
            <g id="PolyCollection_4">
                <defs>
                    <path id="mb84f23a365" d="M 1247.384442 -209.759844
L 1245.615558 -209.759844 
L 1245.509746 -210.336212 
L 1245.394743 -210.912581 
L 1245.270232 -211.48895 
L 1245.135949 -212.065319 
L 1244.991691 -212.641687 
L 1244.837327 -213.218056 
L 1244.672799 -213.794425 
L 1244.498137 -214.370793 
L 1244.313459 -214.947162 
L 1244.118979 -215.523531 
L 1243.915011 -216.099899 
L 1243.701968 -216.676268 
L 1243.480368 -217.252637 
L 1243.250828 -217.829005 
L 1243.014064 -218.405374 
L 1242.770886 -218.981743 
L 1242.522191 -219.558112 
L 1242.268955 -220.13448 
L 1242.012221 -220.710849 
L 1241.753093 -221.287218 
L 1241.492714 -221.863586 
L 1241.23226 -222.439955 
L 1240.972922 -223.016324 
L 1240.715888 -223.592692 
L 1240.462331 -224.169061 
L 1240.213391 -224.74543 
L 1239.970161 -225.321798 
L 1239.733674 -225.898167 
L 1239.504885 -226.474536 
L 1239.28467 -227.050904 
L 1239.073806 -227.627273 
L 1238.872973 -228.203642 
L 1238.682742 -228.780011 
L 1238.503579 -229.356379 
L 1238.335845 -229.932748 
L 1238.179794 -230.509117 
L 1238.035587 -231.085485 
L 1237.90329 -231.661854 
L 1237.782895 -232.238223 
L 1237.674323 -232.814591 
L 1237.577439 -233.39096 
L 1237.49207 -233.967329 
L 1237.418014 -234.543697 
L 1237.355057 -235.120066 
L 1237.302985 -235.696435 
L 1237.2616 -236.272804 
L 1237.230726 -236.849172 
L 1237.210225 -237.425541 
L 1237.2 -238.00191 
L 1237.2 -238.578278 
L 1237.210225 -239.154647 
L 1237.230726 -239.731016 
L 1237.2616 -240.307384 
L 1237.302985 -240.883753 
L 1237.355057 -241.460122 
L 1237.418014 -242.03649 
L 1237.49207 -242.612859 
L 1237.577439 -243.189228 
L 1237.674323 -243.765597 
L 1237.782895 -244.341965 
L 1237.90329 -244.918334 
L 1238.035587 -245.494703 
L 1238.179794 -246.071071 
L 1238.335845 -246.64744 
L 1238.503579 -247.223809 
L 1238.682742 -247.800177 
L 1238.872973 -248.376546 
L 1239.073806 -248.952915 
L 1239.28467 -249.529283 
L 1239.504885 -250.105652 
L 1239.733674 -250.682021 
L 1239.970161 -251.25839 
L 1240.213391 -251.834758 
L 1240.462331 -252.411127 
L 1240.715888 -252.987496 
L 1240.972922 -253.563864 
L 1241.23226 -254.140233 
L 1241.492714 -254.716602 
L 1241.753093 -255.29297 
L 1242.012221 -255.869339 
L 1242.268955 -256.445708 
L 1242.522191 -257.022076 
L 1242.770886 -257.598445 
L 1243.014064 -258.174814 
L 1243.250828 -258.751182 
L 1243.480368 -259.327551 
L 1243.701968 -259.90392 
L 1243.915011 -260.480289 
L 1244.118979 -261.056657 
L 1244.313459 -261.633026 
L 1244.498137 -262.209395 
L 1244.672799 -262.785763 
L 1244.837327 -263.362132 
L 1244.991691 -263.938501 
L 1245.135949 -264.514869 
L 1245.270232 -265.091238 
L 1245.394743 -265.667607 
L 1245.509746 -266.243975 
L 1245.615558 -266.820344 
L 1247.384442 -266.820344 
L 1247.384442 -266.820344 
L 1247.490254 -266.243975 
L 1247.605257 -265.667607 
L 1247.729768 -265.091238 
L 1247.864051 -264.514869 
L 1248.008309 -263.938501 
L 1248.162673 -263.362132 
L 1248.327201 -262.785763 
L 1248.501863 -262.209395 
L 1248.686541 -261.633026 
L 1248.881021 -261.056657 
L 1249.084989 -260.480289 
L 1249.298032 -259.90392 
L 1249.519632 -259.327551 
L 1249.749172 -258.751182 
L 1249.985936 -258.174814 
L 1250.229114 -257.598445 
L 1250.477809 -257.022076 
L 1250.731045 -256.445708 
L 1250.987779 -255.869339 
L 1251.246907 -255.29297 
L 1251.507286 -254.716602 
L 1251.76774 -254.140233 
L 1252.027078 -253.563864 
L 1252.284112 -252.987496 
L 1252.537669 -252.411127 
L 1252.786609 -251.834758 
L 1253.029839 -251.25839 
L 1253.266326 -250.682021 
L 1253.495115 -250.105652 
L 1253.71533 -249.529283 
L 1253.926194 -248.952915 
L 1254.127027 -248.376546 
L 1254.317258 -247.800177 
L 1254.496421 -247.223809 
L 1254.664155 -246.64744 
L 1254.820206 -246.071071 
L 1254.964413 -245.494703 
L 1255.09671 -244.918334 
L 1255.217105 -244.341965 
L 1255.325677 -243.765597 
L 1255.422561 -243.189228 
L 1255.50793 -242.612859 
L 1255.581986 -242.03649 
L 1255.644943 -241.460122 
L 1255.697015 -240.883753 
L 1255.7384 -240.307384 
L 1255.769274 -239.731016 
L 1255.789775 -239.154647 
L 1255.8 -238.578278 
L 1255.8 -238.00191 
L 1255.789775 -237.425541 
L 1255.769274 -236.849172 
L 1255.7384 -236.272804 
L 1255.697015 -235.696435 
L 1255.644943 -235.120066 
L 1255.581986 -234.543697 
L 1255.50793 -233.967329 
L 1255.422561 -233.39096 
L 1255.325677 -232.814591 
L 1255.217105 -232.238223 
L 1255.09671 -231.661854 
L 1254.964413 -231.085485 
L 1254.820206 -230.509117 
L 1254.664155 -229.932748 
L 1254.496421 -229.356379 
L 1254.317258 -228.780011 
L 1254.127027 -228.203642 
L 1253.926194 -227.627273 
L 1253.71533 -227.050904 
L 1253.495115 -226.474536 
L 1253.266326 -225.898167 
L 1253.029839 -225.321798 
L 1252.786609 -224.74543 
L 1252.537669 -224.169061 
L 1252.284112 -223.592692 
L 1252.027078 -223.016324 
L 1251.76774 -222.439955 
L 1251.507286 -221.863586 
L 1251.246907 -221.287218 
L 1250.987779 -220.710849 
L 1250.731045 -220.13448 
L 1250.477809 -219.558112 
L 1250.229114 -218.981743 
L 1249.985936 -218.405374 
L 1249.749172 -217.829005 
L 1249.519632 -217.252637 
L 1249.298032 -216.676268 
L 1249.084989 -216.099899 
L 1248.881021 -215.523531 
L 1248.686541 -214.947162 
L 1248.501863 -214.370793 
L 1248.327201 -213.794425 
L 1248.162673 -213.218056 
L 1248.008309 -212.641687 
L 1247.864051 -212.065319 
L 1247.729768 -211.48895 
L 1247.605257 -210.912581 
L 1247.490254 -210.336212 
L 1247.384442 -209.759844 
z
" style="stroke: #595959; stroke-width: 1.5"/>
                </defs>
                <g clip-path="url(#pbc3b2eed19)">
                    <use xlink:href="#mb84f23a365" x="0" y="720"
                         style="fill: #db96c0; stroke: #595959; stroke-width: 1.5"/>
                </g>
            </g>
            <g id="PolyCollection_5">
                <defs>
                    <path id="m4c791baabe" d="M 1530.831572 -158.354827
L 1520.168428 -158.354827 
L 1518.661953 -161.473241 
L 1516.826206 -164.591654 
L 1514.618177 -167.710068 
L 1511.997141 -170.828482 
L 1508.927111 -173.946896 
L 1505.379579 -177.065309 
L 1501.336413 -180.183723 
L 1496.792737 -183.302137 
L 1491.75958 -186.42055 
L 1486.266085 -189.538964 
L 1480.361009 -192.657378 
L 1474.113346 -195.775792 
L 1467.611847 -198.894205 
L 1460.963368 -202.012619 
L 1454.289979 -205.131033 
L 1447.724923 -208.249447 
L 1441.407571 -211.36786 
L 1435.477635 -214.486274 
L 1430.068987 -217.604688 
L 1425.30347 -220.723102 
L 1421.285125 -223.841515 
L 1418.095252 -226.959929 
L 1415.788655 -230.078343 
L 1414.391366 -233.196757 
L 1413.9 -236.31517 
L 1414.282799 -239.433584 
L 1415.482266 -242.551998 
L 1417.419172 -245.670411 
L 1419.997627 -248.788825 
L 1423.110818 -251.907239 
L 1426.646973 -255.025653 
L 1430.49514 -258.144066 
L 1434.550382 -261.26248 
L 1438.718072 -264.380894 
L 1442.917069 -267.499308 
L 1447.081657 -270.617721 
L 1451.162247 -273.736135 
L 1455.124931 -276.854549 
L 1458.950073 -279.972963 
L 1462.63016 -283.091376 
L 1466.167199 -286.20979 
L 1469.569894 -289.328204 
L 1472.850893 -292.446618 
L 1476.024264 -295.565031 
L 1479.103395 -298.683445 
L 1482.09937 -301.801859 
L 1485.01989 -304.920272 
L 1487.868694 -308.038686 
L 1490.645436 -311.1571 
L 1493.345923 -314.275514 
L 1495.962625 -317.393927 
L 1498.485338 -320.512341 
L 1500.901929 -323.630755 
L 1503.199076 -326.749169 
L 1505.362953 -329.867582 
L 1507.379839 -332.985996 
L 1509.23663 -336.10441 
L 1510.921269 -339.222824 
L 1512.423116 -342.341237 
L 1513.73327 -345.459651 
L 1514.844878 -348.578065 
L 1515.753446 -351.696479 
L 1516.457163 -354.814892 
L 1516.957228 -357.933306 
L 1517.258182 -361.05172 
L 1517.368209 -364.170133 
L 1517.299366 -367.288547 
L 1517.067724 -370.406961 
L 1516.693355 -373.525375 
L 1516.200138 -376.643788 
L 1515.615363 -379.762202 
L 1514.969104 -382.880616 
L 1514.293373 -385.99903 
L 1513.621086 -389.117443 
L 1512.984865 -392.235857 
L 1512.415761 -395.354271 
L 1511.941971 -398.472685 
L 1511.587622 -401.591098 
L 1511.371723 -404.709512 
L 1511.307364 -407.827926 
L 1511.401216 -410.946339 
L 1511.653379 -414.064753 
L 1512.057589 -417.183167 
L 1512.601774 -420.301581 
L 1513.268908 -423.419994 
L 1514.038106 -426.538408 
L 1514.885866 -429.656822 
L 1515.787388 -432.775236 
L 1516.717844 -435.893649 
L 1517.653557 -439.012063 
L 1518.572986 -442.130477 
L 1519.457493 -445.248891 
L 1520.29185 -448.367304 
L 1521.064493 -451.485718 
L 1521.767542 -454.604132 
L 1522.396601 -457.722546 
L 1522.95041 -460.840959 
L 1523.430369 -463.959373 
L 1523.840014 -467.077787 
L 1527.159986 -467.077787 
L 1527.159986 -467.077787 
L 1527.569631 -463.959373 
L 1528.04959 -460.840959 
L 1528.603399 -457.722546 
L 1529.232458 -454.604132 
L 1529.935507 -451.485718 
L 1530.70815 -448.367304 
L 1531.542507 -445.248891 
L 1532.427014 -442.130477 
L 1533.346443 -439.012063 
L 1534.282156 -435.893649 
L 1535.212612 -432.775236 
L 1536.114134 -429.656822 
L 1536.961894 -426.538408 
L 1537.731092 -423.419994 
L 1538.398226 -420.301581 
L 1538.942411 -417.183167 
L 1539.346621 -414.064753 
L 1539.598784 -410.946339 
L 1539.692636 -407.827926 
L 1539.628277 -404.709512 
L 1539.412378 -401.591098 
L 1539.058029 -398.472685 
L 1538.584239 -395.354271 
L 1538.015135 -392.235857 
L 1537.378914 -389.117443 
L 1536.706627 -385.99903 
L 1536.030896 -382.880616 
L 1535.384637 -379.762202 
L 1534.799862 -376.643788 
L 1534.306645 -373.525375 
L 1533.932276 -370.406961 
L 1533.700634 -367.288547 
L 1533.631791 -364.170133 
L 1533.741818 -361.05172 
L 1534.042772 -357.933306 
L 1534.542837 -354.814892 
L 1535.246554 -351.696479 
L 1536.155122 -348.578065 
L 1537.26673 -345.459651 
L 1538.576884 -342.341237 
L 1540.078731 -339.222824 
L 1541.76337 -336.10441 
L 1543.620161 -332.985996 
L 1545.637047 -329.867582 
L 1547.800924 -326.749169 
L 1550.098071 -323.630755 
L 1552.514662 -320.512341 
L 1555.037375 -317.393927 
L 1557.654077 -314.275514 
L 1560.354564 -311.1571 
L 1563.131306 -308.038686 
L 1565.98011 -304.920272 
L 1568.90063 -301.801859 
L 1571.896605 -298.683445 
L 1574.975736 -295.565031 
L 1578.149107 -292.446618 
L 1581.430106 -289.328204 
L 1584.832801 -286.20979 
L 1588.36984 -283.091376 
L 1592.049927 -279.972963 
L 1595.875069 -276.854549 
L 1599.837753 -273.736135 
L 1603.918343 -270.617721 
L 1608.082931 -267.499308 
L 1612.281928 -264.380894 
L 1616.449618 -261.26248 
L 1620.50486 -258.144066 
L 1624.353027 -255.025653 
L 1627.889182 -251.907239 
L 1631.002373 -248.788825 
L 1633.580828 -245.670411 
L 1635.517734 -242.551998 
L 1636.717201 -239.433584 
L 1637.1 -236.31517 
L 1636.608634 -233.196757 
L 1635.211345 -230.078343 
L 1632.904748 -226.959929 
L 1629.714875 -223.841515 
L 1625.69653 -220.723102 
L 1620.931013 -217.604688 
L 1615.522365 -214.486274 
L 1609.592429 -211.36786 
L 1603.275077 -208.249447 
L 1596.710021 -205.131033 
L 1590.036632 -202.012619 
L 1583.388153 -198.894205 
L 1576.886654 -195.775792 
L 1570.638991 -192.657378 
L 1564.733915 -189.538964 
L 1559.24042 -186.42055 
L 1554.207263 -183.302137 
L 1549.663587 -180.183723 
L 1545.620421 -177.065309 
L 1542.072889 -173.946896 
L 1539.002859 -170.828482 
L 1536.381823 -167.710068 
L 1534.173794 -164.591654 
L 1532.338047 -161.473241 
L 1530.831572 -158.354827 
z
" style="stroke: #595959; stroke-width: 1.5"/>
                </defs>
                <g clip-path="url(#pbc3b2eed19)">
                    <use xlink:href="#m4c791baabe" x="0" y="720"
                         style="fill: #a2c865; stroke: #595959; stroke-width: 1.5"/>
                </g>
            </g>
            <g id="matplotlib.axis_1">
                <g id="xtick_1">
                    <g id="line2d_1">
                        <defs>
                            <path id="m4843ad7828" d="M 0 0
L 0 3.5 
" style="stroke: #000000; stroke-width: 0.8"/>
                        </defs>
                        <g>
                            <use xlink:href="#m4843ad7828" x="409.5" y="640.8"
                                 style="stroke: #000000; stroke-width: 0.8"/>
                        </g>
                    </g>
                    <g id="text_1">
                        <!-- 1 -->
                        <g transform="translate(403.1375 662.996875)scale(0.2 -0.2)">
                            <defs>
                                <path id="DejaVuSans-31" d="M 794 531
L 1825 531 
L 1825 4091 
L 703 3866 
L 703 4441 
L 1819 4666 
L 2450 4666 
L 2450 531 
L 3481 531 
L 3481 0 
L 794 0 
L 794 531 
z
" transform="scale(0.015625)"/>
                            </defs>
                            <use xlink:href="#DejaVuSans-31"/>
                        </g>
                    </g>
                </g>
                <g id="xtick_2">
                    <g id="line2d_2">
                        <g>
                            <use xlink:href="#m4843ad7828" x="688.5" y="640.8"
                                 style="stroke: #000000; stroke-width: 0.8"/>
                        </g>
                    </g>
                    <g id="text_2">
                        <!-- 2 -->
                        <g transform="translate(682.1375 662.996875)scale(0.2 -0.2)">
                            <defs>
                                <path id="DejaVuSans-32" d="M 1228 531
L 3431 531 
L 3431 0 
L 469 0 
L 469 531 
Q 828 903 1448 1529 
Q 2069 2156 2228 2338 
Q 2531 2678 2651 2914 
Q 2772 3150 2772 3378 
Q 2772 3750 2511 3984 
Q 2250 4219 1831 4219 
Q 1534 4219 1204 4116 
Q 875 4013 500 3803 
L 500 4441 
Q 881 4594 1212 4672 
Q 1544 4750 1819 4750 
Q 2544 4750 2975 4387 
Q 3406 4025 3406 3419 
Q 3406 3131 3298 2873 
Q 3191 2616 2906 2266 
Q 2828 2175 2409 1742 
Q 1991 1309 1228 531 
z
" transform="scale(0.015625)"/>
                            </defs>
                            <use xlink:href="#DejaVuSans-32"/>
                        </g>
                    </g>
                </g>
                <g id="xtick_3">
                    <g id="line2d_3">
                        <g>
                            <use xlink:href="#m4843ad7828" x="967.5" y="640.8"
                                 style="stroke: #000000; stroke-width: 0.8"/>
                        </g>
                    </g>
                    <g id="text_3">
                        <!-- 3 -->
                        <g transform="translate(961.1375 662.996875)scale(0.2 -0.2)">
                            <defs>
                                <path id="DejaVuSans-33" d="M 2597 2516
Q 3050 2419 3304 2112 
Q 3559 1806 3559 1356 
Q 3559 666 3084 287 
Q 2609 -91 1734 -91 
Q 1441 -91 1130 -33 
Q 819 25 488 141 
L 488 750 
Q 750 597 1062 519 
Q 1375 441 1716 441 
Q 2309 441 2620 675 
Q 2931 909 2931 1356 
Q 2931 1769 2642 2001 
Q 2353 2234 1838 2234 
L 1294 2234 
L 1294 2753 
L 1863 2753 
Q 2328 2753 2575 2939 
Q 2822 3125 2822 3475 
Q 2822 3834 2567 4026 
Q 2313 4219 1838 4219 
Q 1578 4219 1281 4162 
Q 984 4106 628 3988 
L 628 4550 
Q 988 4650 1302 4700 
Q 1616 4750 1894 4750 
Q 2613 4750 3031 4423 
Q 3450 4097 3450 3541 
Q 3450 3153 3228 2886 
Q 3006 2619 2597 2516 
z
" transform="scale(0.015625)"/>
                            </defs>
                            <use xlink:href="#DejaVuSans-33"/>
                        </g>
                    </g>
                </g>
                <g id="xtick_4">
                    <g id="line2d_4">
                        <g>
                            <use xlink:href="#m4843ad7828" x="1246.5" y="640.8"
                                 style="stroke: #000000; stroke-width: 0.8"/>
                        </g>
                    </g>
                    <g id="text_4">
                        <!-- 4 -->
                        <g transform="translate(1240.1375 662.996875)scale(0.2 -0.2)">
                            <defs>
                                <path id="DejaVuSans-34" d="M 2419 4116
L 825 1625 
L 2419 1625 
L 2419 4116 
z
M 2253 4666 
L 3047 4666 
L 3047 1625 
L 3713 1625 
L 3713 1100 
L 3047 1100 
L 3047 0 
L 2419 0 
L 2419 1100 
L 313 1100 
L 313 1709 
L 2253 4666 
z
" transform="scale(0.015625)"/>
                            </defs>
                            <use xlink:href="#DejaVuSans-34"/>
                        </g>
                    </g>
                </g>
                <g id="xtick_5">
                    <g id="line2d_5">
                        <g>
                            <use xlink:href="#m4843ad7828" x="1525.5" y="640.8"
                                 style="stroke: #000000; stroke-width: 0.8"/>
                        </g>
                    </g>
                    <g id="text_5">
                        <!-- 5 -->
                        <g transform="translate(1519.1375 662.996875)scale(0.2 -0.2)">
                            <defs>
                                <path id="DejaVuSans-35" d="M 691 4666
L 3169 4666 
L 3169 4134 
L 1269 4134 
L 1269 2991 
Q 1406 3038 1543 3061 
Q 1681 3084 1819 3084 
Q 2600 3084 3056 2656 
Q 3513 2228 3513 1497 
Q 3513 744 3044 326 
Q 2575 -91 1722 -91 
Q 1428 -91 1123 -41 
Q 819 9 494 109 
L 494 744 
Q 775 591 1075 516 
Q 1375 441 1709 441 
Q 2250 441 2565 725 
Q 2881 1009 2881 1497 
Q 2881 1984 2565 2268 
Q 2250 2553 1709 2553 
Q 1456 2553 1204 2497 
Q 953 2441 691 2322 
L 691 4666 
z
" transform="scale(0.015625)"/>
                            </defs>
                            <use xlink:href="#DejaVuSans-35"/>
                        </g>
                    </g>
                </g>
                <g id="xtick_6">
                    <g id="line2d_6">
                        <g>
                            <use xlink:href="#m4843ad7828" x="1804.5" y="640.8"
                                 style="stroke: #000000; stroke-width: 0.8"/>
                        </g>
                    </g>
                    <g id="text_6">
                        <!-- 6 -->
                        <g transform="translate(1798.1375 662.996875)scale(0.2 -0.2)">
                            <defs>
                                <path id="DejaVuSans-36" d="M 2113 2584
Q 1688 2584 1439 2293 
Q 1191 2003 1191 1497 
Q 1191 994 1439 701 
Q 1688 409 2113 409 
Q 2538 409 2786 701 
Q 3034 994 3034 1497 
Q 3034 2003 2786 2293 
Q 2538 2584 2113 2584 
z
M 3366 4563 
L 3366 3988 
Q 3128 4100 2886 4159 
Q 2644 4219 2406 4219 
Q 1781 4219 1451 3797 
Q 1122 3375 1075 2522 
Q 1259 2794 1537 2939 
Q 1816 3084 2150 3084 
Q 2853 3084 3261 2657 
Q 3669 2231 3669 1497 
Q 3669 778 3244 343 
Q 2819 -91 2113 -91 
Q 1303 -91 875 529 
Q 447 1150 447 2328 
Q 447 3434 972 4092 
Q 1497 4750 2381 4750 
Q 2619 4750 2861 4703 
Q 3103 4656 3366 4563 
z
" transform="scale(0.015625)"/>
                            </defs>
                            <use xlink:href="#DejaVuSans-36"/>
                        </g>
                    </g>
                </g>
                <g id="text_7">
                    <!-- cluster -->
                    <g transform="translate(1072.992188 686.353125)scale(0.2 -0.2)">
                        <defs>
                            <path id="DejaVuSans-63" d="M 3122 3366
L 3122 2828 
Q 2878 2963 2633 3030 
Q 2388 3097 2138 3097 
Q 1578 3097 1268 2742 
Q 959 2388 959 1747 
Q 959 1106 1268 751 
Q 1578 397 2138 397 
Q 2388 397 2633 464 
Q 2878 531 3122 666 
L 3122 134 
Q 2881 22 2623 -34 
Q 2366 -91 2075 -91 
Q 1284 -91 818 406 
Q 353 903 353 1747 
Q 353 2603 823 3093 
Q 1294 3584 2113 3584 
Q 2378 3584 2631 3529 
Q 2884 3475 3122 3366 
z
" transform="scale(0.015625)"/>
                            <path id="DejaVuSans-6c" d="M 603 4863
L 1178 4863 
L 1178 0 
L 603 0 
L 603 4863 
z
" transform="scale(0.015625)"/>
                            <path id="DejaVuSans-75" d="M 544 1381
L 544 3500 
L 1119 3500 
L 1119 1403 
Q 1119 906 1312 657 
Q 1506 409 1894 409 
Q 2359 409 2629 706 
Q 2900 1003 2900 1516 
L 2900 3500 
L 3475 3500 
L 3475 0 
L 2900 0 
L 2900 538 
Q 2691 219 2414 64 
Q 2138 -91 1772 -91 
Q 1169 -91 856 284 
Q 544 659 544 1381 
z
M 1991 3584 
L 1991 3584 
z
" transform="scale(0.015625)"/>
                            <path id="DejaVuSans-73" d="M 2834 3397
L 2834 2853 
Q 2591 2978 2328 3040 
Q 2066 3103 1784 3103 
Q 1356 3103 1142 2972 
Q 928 2841 928 2578 
Q 928 2378 1081 2264 
Q 1234 2150 1697 2047 
L 1894 2003 
Q 2506 1872 2764 1633 
Q 3022 1394 3022 966 
Q 3022 478 2636 193 
Q 2250 -91 1575 -91 
Q 1294 -91 989 -36 
Q 684 19 347 128 
L 347 722 
Q 666 556 975 473 
Q 1284 391 1588 391 
Q 1994 391 2212 530 
Q 2431 669 2431 922 
Q 2431 1156 2273 1281 
Q 2116 1406 1581 1522 
L 1381 1569 
Q 847 1681 609 1914 
Q 372 2147 372 2553 
Q 372 3047 722 3315 
Q 1072 3584 1716 3584 
Q 2034 3584 2315 3537 
Q 2597 3491 2834 3397 
z
" transform="scale(0.015625)"/>
                            <path id="DejaVuSans-74" d="M 1172 4494
L 1172 3500 
L 2356 3500 
L 2356 3053 
L 1172 3053 
L 1172 1153 
Q 1172 725 1289 603 
Q 1406 481 1766 481 
L 2356 481 
L 2356 0 
L 1766 0 
Q 1100 0 847 248 
Q 594 497 594 1153 
L 594 3053 
L 172 3053 
L 172 3500 
L 594 3500 
L 594 4494 
L 1172 4494 
z
" transform="scale(0.015625)"/>
                            <path id="DejaVuSans-65" d="M 3597 1894
L 3597 1613 
L 953 1613 
Q 991 1019 1311 708 
Q 1631 397 2203 397 
Q 2534 397 2845 478 
Q 3156 559 3463 722 
L 3463 178 
Q 3153 47 2828 -22 
Q 2503 -91 2169 -91 
Q 1331 -91 842 396 
Q 353 884 353 1716 
Q 353 2575 817 3079 
Q 1281 3584 2069 3584 
Q 2775 3584 3186 3129 
Q 3597 2675 3597 1894 
z
M 3022 2063 
Q 3016 2534 2758 2815 
Q 2500 3097 2075 3097 
Q 1594 3097 1305 2825 
Q 1016 2553 972 2059 
L 3022 2063 
z
" transform="scale(0.015625)"/>
                            <path id="DejaVuSans-72" d="M 2631 2963
Q 2534 3019 2420 3045 
Q 2306 3072 2169 3072 
Q 1681 3072 1420 2755 
Q 1159 2438 1159 1844 
L 1159 0 
L 581 0 
L 581 3500 
L 1159 3500 
L 1159 2956 
Q 1341 3275 1631 3429 
Q 1922 3584 2338 3584 
Q 2397 3584 2469 3576 
Q 2541 3569 2628 3553 
L 2631 2963 
z
" transform="scale(0.015625)"/>
                        </defs>
                        <use xlink:href="#DejaVuSans-63"/>
                        <use xlink:href="#DejaVuSans-6c" x="54.980469"/>
                        <use xlink:href="#DejaVuSans-75" x="82.763672"/>
                        <use xlink:href="#DejaVuSans-73" x="146.142578"/>
                        <use xlink:href="#DejaVuSans-74" x="198.242188"/>
                        <use xlink:href="#DejaVuSans-65" x="237.451172"/>
                        <use xlink:href="#DejaVuSans-72" x="298.974609"/>
                    </g>
                </g>
            </g>
            <g id="matplotlib.axis_2">
                <g id="ytick_1">
                    <g id="line2d_7">
                        <defs>
                            <path id="m17978b44b4" d="M 0 0
L -3.5 0 
" style="stroke: #000000; stroke-width: 0.8"/>
                        </defs>
                        <g>
                            <use xlink:href="#m17978b44b4" x="270" y="599.03443"
                                 style="stroke: #000000; stroke-width: 0.8"/>
                        </g>
                    </g>
                    <g id="text_8">
                        <!-- 0 -->
                        <g transform="translate(250.275 606.632867)scale(0.2 -0.2)">
                            <defs>
                                <path id="DejaVuSans-30" d="M 2034 4250
Q 1547 4250 1301 3770 
Q 1056 3291 1056 2328 
Q 1056 1369 1301 889 
Q 1547 409 2034 409 
Q 2525 409 2770 889 
Q 3016 1369 3016 2328 
Q 3016 3291 2770 3770 
Q 2525 4250 2034 4250 
z
M 2034 4750 
Q 2819 4750 3233 4129 
Q 3647 3509 3647 2328 
Q 3647 1150 3233 529 
Q 2819 -91 2034 -91 
Q 1250 -91 836 529 
Q 422 1150 422 2328 
Q 422 3509 836 4129 
Q 1250 4750 2034 4750 
z
" transform="scale(0.015625)"/>
                            </defs>
                            <use xlink:href="#DejaVuSans-30"/>
                        </g>
                    </g>
                </g>
                <g id="ytick_2">
                    <g id="line2d_8">
                        <g>
                            <use xlink:href="#m17978b44b4" x="270" y="505.753803"
                                 style="stroke: #000000; stroke-width: 0.8"/>
                        </g>
                    </g>
                    <g id="text_9">
                        <!-- 5 -->
                        <g transform="translate(250.275 513.352241)scale(0.2 -0.2)">
                            <use xlink:href="#DejaVuSans-35"/>
                        </g>
                    </g>
                </g>
                <g id="ytick_3">
                    <g id="line2d_9">
                        <g>
                            <use xlink:href="#m17978b44b4" x="270" y="412.473177"
                                 style="stroke: #000000; stroke-width: 0.8"/>
                        </g>
                    </g>
                    <g id="text_10">
                        <!-- 10 -->
                        <g transform="translate(237.55 420.071615)scale(0.2 -0.2)">
                            <use xlink:href="#DejaVuSans-31"/>
                            <use xlink:href="#DejaVuSans-30" x="63.623047"/>
                        </g>
                    </g>
                </g>
                <g id="ytick_4">
                    <g id="line2d_10">
                        <g>
                            <use xlink:href="#m17978b44b4" x="270" y="319.192551"
                                 style="stroke: #000000; stroke-width: 0.8"/>
                        </g>
                    </g>
                    <g id="text_11">
                        <!-- 15 -->
                        <g transform="translate(237.55 326.790988)scale(0.2 -0.2)">
                            <use xlink:href="#DejaVuSans-31"/>
                            <use xlink:href="#DejaVuSans-35" x="63.623047"/>
                        </g>
                    </g>
                </g>
                <g id="ytick_5">
                    <g id="line2d_11">
                        <g>
                            <use xlink:href="#m17978b44b4" x="270" y="225.911925"
                                 style="stroke: #000000; stroke-width: 0.8"/>
                        </g>
                    </g>
                    <g id="text_12">
                        <!-- 20 -->
                        <g transform="translate(237.55 233.510362)scale(0.2 -0.2)">
                            <use xlink:href="#DejaVuSans-32"/>
                            <use xlink:href="#DejaVuSans-30" x="63.623047"/>
                        </g>
                    </g>
                </g>
                <g id="ytick_6">
                    <g id="line2d_12">
                        <g>
                            <use xlink:href="#m17978b44b4" x="270" y="132.631298"
                                 style="stroke: #000000; stroke-width: 0.8"/>
                        </g>
                    </g>
                    <g id="text_13">
                        <!-- 25 -->
                        <g transform="translate(237.55 140.229736)scale(0.2 -0.2)">
                            <use xlink:href="#DejaVuSans-32"/>
                            <use xlink:href="#DejaVuSans-35" x="63.623047"/>
                        </g>
                    </g>
                </g>
                <g id="text_14">
                    <!-- log -->
                    <g transform="translate(229.390625 378.845312)rotate(-90)scale(0.2 -0.2)">
                        <defs>
                            <path id="DejaVuSans-6f" d="M 1959 3097
Q 1497 3097 1228 2736 
Q 959 2375 959 1747 
Q 959 1119 1226 758 
Q 1494 397 1959 397 
Q 2419 397 2687 759 
Q 2956 1122 2956 1747 
Q 2956 2369 2687 2733 
Q 2419 3097 1959 3097 
z
M 1959 3584 
Q 2709 3584 3137 3096 
Q 3566 2609 3566 1747 
Q 3566 888 3137 398 
Q 2709 -91 1959 -91 
Q 1206 -91 779 398 
Q 353 888 353 1747 
Q 353 2609 779 3096 
Q 1206 3584 1959 3584 
z
" transform="scale(0.015625)"/>
                            <path id="DejaVuSans-67" d="M 2906 1791
Q 2906 2416 2648 2759 
Q 2391 3103 1925 3103 
Q 1463 3103 1205 2759 
Q 947 2416 947 1791 
Q 947 1169 1205 825 
Q 1463 481 1925 481 
Q 2391 481 2648 825 
Q 2906 1169 2906 1791 
z
M 3481 434 
Q 3481 -459 3084 -895 
Q 2688 -1331 1869 -1331 
Q 1566 -1331 1297 -1286 
Q 1028 -1241 775 -1147 
L 775 -588 
Q 1028 -725 1275 -790 
Q 1522 -856 1778 -856 
Q 2344 -856 2625 -561 
Q 2906 -266 2906 331 
L 2906 616 
Q 2728 306 2450 153 
Q 2172 0 1784 0 
Q 1141 0 747 490 
Q 353 981 353 1791 
Q 353 2603 747 3093 
Q 1141 3584 1784 3584 
Q 2172 3584 2450 3431 
Q 2728 3278 2906 2969 
L 2906 3500 
L 3481 3500 
L 3481 434 
z
" transform="scale(0.015625)"/>
                        </defs>
                        <use xlink:href="#DejaVuSans-6c"/>
                        <use xlink:href="#DejaVuSans-6f" x="27.783203"/>
                        <use xlink:href="#DejaVuSans-67" x="88.964844"/>
                    </g>
                </g>
            </g>
            <g id="line2d_13">
                <path d="M 409.5 493.437939
L 409.5 428.122851 
" clip-path="url(#pbc3b2eed19)" style="fill: none; stroke: #595959; stroke-width: 1.5; stroke-linecap: square"/>
            </g>
            <g id="line2d_14">
                <path d="M 409.5 486.106014
L 409.5 428.122851 
" clip-path="url(#pbc3b2eed19)" style="fill: none; stroke: #595959; stroke-width: 4.5; stroke-linecap: square"/>
            </g>
            <g id="line2d_15">
                <path d="M 688.5 505.666642
L 688.5 366.937086 
" clip-path="url(#pbc3b2eed19)" style="fill: none; stroke: #595959; stroke-width: 1.5; stroke-linecap: square"/>
            </g>
            <g id="line2d_16">
                <path d="M 688.5 468.170505
L 688.5 403.246255 
" clip-path="url(#pbc3b2eed19)" style="fill: none; stroke: #595959; stroke-width: 4.5; stroke-linecap: square"/>
            </g>
            <g id="line2d_17">
                <path d="M 967.5 477.740669
L 967.5 384.785134 
" clip-path="url(#pbc3b2eed19)" style="fill: none; stroke: #595959; stroke-width: 1.5; stroke-linecap: square"/>
            </g>
            <g id="line2d_18">
                <path d="M 967.5 472.794503
L 967.5 426.316736 
" clip-path="url(#pbc3b2eed19)" style="fill: none; stroke: #595959; stroke-width: 4.5; stroke-linecap: square"/>
            </g>
            <g id="line2d_19">
                <path d="M 1246.5 489.950192
L 1246.5 473.46962 
" clip-path="url(#pbc3b2eed19)" style="fill: none; stroke: #595959; stroke-width: 1.5; stroke-linecap: square"/>
            </g>
            <g id="line2d_20">
                <path d="M 1246.5 485.830049
L 1246.5 477.589763 
" clip-path="url(#pbc3b2eed19)" style="fill: none; stroke: #595959; stroke-width: 4.5; stroke-linecap: square"/>
            </g>
            <g id="line2d_21">
                <path d="M 1525.5 504.864056
L 1525.5 395.481148 
" clip-path="url(#pbc3b2eed19)" style="fill: none; stroke: #595959; stroke-width: 1.5; stroke-linecap: square"/>
            </g>
            <g id="line2d_22">
                <path d="M 1525.5 491.169652
L 1525.5 437.93843 
" clip-path="url(#pbc3b2eed19)" style="fill: none; stroke: #595959; stroke-width: 4.5; stroke-linecap: square"/>
            </g>
            <g id="line2d_23">
                <path d="M 1799.85 440.405243
L 1809.15 440.405243 
" clip-path="url(#pbc3b2eed19)" style="fill: none; stroke: #595959; stroke-width: 1.5; stroke-linecap: square"/>
            </g>
            <g id="patch_3">
                <path d="M 270 640.8
L 270 86.4 
" style="fill: none; stroke: #000000; stroke-width: 0.8; stroke-linejoin: miter; stroke-linecap: square"/>
            </g>
            <g id="patch_4">
                <path d="M 1944 640.8
L 1944 86.4 
" style="fill: none; stroke: #000000; stroke-width: 0.8; stroke-linejoin: miter; stroke-linecap: square"/>
            </g>
            <g id="patch_5">
                <path d="M 270 640.8
L 1944 640.8 
" style="fill: none; stroke: #000000; stroke-width: 0.8; stroke-linejoin: miter; stroke-linecap: square"/>
            </g>
            <g id="patch_6">
                <path d="M 270 86.4
L 1944 86.4 
" style="fill: none; stroke: #000000; stroke-width: 0.8; stroke-linejoin: miter; stroke-linecap: square"/>
            </g>
            <g id="PathCollection_1">
                <defs>
                    <path id="m2129d6f6a9" d="M 0 1.5
C 0.397805 1.5 0.77937 1.341951 1.06066 1.06066 
C 1.341951 0.77937 1.5 0.397805 1.5 0 
C 1.5 -0.397805 1.341951 -0.77937 1.06066 -1.06066 
C 0.77937 -1.341951 0.397805 -1.5 0 -1.5 
C -0.397805 -1.5 -0.77937 -1.341951 -1.06066 -1.06066 
C -1.341951 -0.77937 -1.5 -0.397805 -1.5 0 
C -1.5 0.397805 -1.341951 0.77937 -1.06066 1.06066 
C -0.77937 1.341951 -0.397805 1.5 0 1.5 
z
" style="stroke: #595959"/>
                </defs>
                <g clip-path="url(#pbc3b2eed19)">
                    <use xlink:href="#m2129d6f6a9" x="409.5" y="452.096019" style="fill: #ffffff; stroke: #595959"/>
                </g>
            </g>
            <g id="PathCollection_2">
                <g clip-path="url(#pbc3b2eed19)">
                    <use xlink:href="#m2129d6f6a9" x="688.5" y="437.140666" style="fill: #ffffff; stroke: #595959"/>
                </g>
            </g>
            <g id="PathCollection_3">
                <g clip-path="url(#pbc3b2eed19)">
                    <use xlink:href="#m2129d6f6a9" x="967.5" y="467.848338" style="fill: #ffffff; stroke: #595959"/>
                </g>
            </g>
            <g id="PathCollection_4">
                <g clip-path="url(#pbc3b2eed19)">
                    <use xlink:href="#m2129d6f6a9" x="1246.5" y="481.709906" style="fill: #ffffff; stroke: #595959"/>
                </g>
            </g>
            <g id="PathCollection_5">
                <g clip-path="url(#pbc3b2eed19)">
                    <use xlink:href="#m2129d6f6a9" x="1525.5" y="478.95636" style="fill: #ffffff; stroke: #595959"/>
                </g>
            </g>
            <g id="PathCollection_6">
                <defs>
                    <path id="C0_0_d4e7f072cf" d="M 0 2.5
C 0.663008 2.5 1.29895 2.236584 1.767767 1.767767 
C 2.236584 1.29895 2.5 0.663008 2.5 -0 
C 2.5 -0.663008 2.236584 -1.29895 1.767767 -1.767767 
C 1.29895 -2.236584 0.663008 -2.5 0 -2.5 
C -0.663008 -2.5 -1.29895 -2.236584 -1.767767 -1.767767 
C -2.236584 -1.29895 -2.5 -0.663008 -2.5 0 
C -2.5 0.663008 -2.236584 1.29895 -1.767767 1.767767 
C -1.29895 2.236584 -0.663008 2.5 0 2.5 
z
"/>
                </defs>
                <g clip-path="url(#pbc3b2eed19)">
                    <use xlink:href="#C0_0_d4e7f072cf" x="409.5" y="493.437939" style="fill: #1f77b4"/>
                </g>
                <g clip-path="url(#pbc3b2eed19)">
                    <use xlink:href="#C0_0_d4e7f072cf" x="404.409005" y="492.21671" style="fill: #1f77b4"/>
                </g>
                <g clip-path="url(#pbc3b2eed19)">
                    <use xlink:href="#C0_0_d4e7f072cf" x="409.5" y="486.106014" style="fill: #1f77b4"/>
                </g>
                <g clip-path="url(#pbc3b2eed19)">
                    <use xlink:href="#C0_0_d4e7f072cf" x="409.5" y="452.51161" style="fill: #1f77b4"/>
                </g>
                <g clip-path="url(#pbc3b2eed19)">
                    <use xlink:href="#C0_0_d4e7f072cf" x="404.268167" y="452.096019" style="fill: #1f77b4"/>
                </g>
                <g clip-path="url(#pbc3b2eed19)">
                    <use xlink:href="#C0_0_d4e7f072cf" x="409.5" y="440.802763" style="fill: #1f77b4"/>
                </g>
                <g clip-path="url(#pbc3b2eed19)">
                    <use xlink:href="#C0_0_d4e7f072cf" x="409.5" y="428.122851" style="fill: #1f77b4"/>
                </g>
                <g clip-path="url(#pbc3b2eed19)">
                    <use xlink:href="#C0_0_d4e7f072cf" x="409.5" y="279.715167" style="fill: #1f77b4"/>
                </g>
                <g clip-path="url(#pbc3b2eed19)">
                    <use xlink:href="#C0_0_d4e7f072cf" x="409.5" y="233.762061" style="fill: #1f77b4"/>
                </g>
            </g>
            <g id="PathCollection_7">
                <defs>
                    <path id="C1_0_9625dadb3e" d="M 0 2.5
C 0.663008 2.5 1.29895 2.236584 1.767767 1.767767 
C 2.236584 1.29895 2.5 0.663008 2.5 -0 
C 2.5 -0.663008 2.236584 -1.29895 1.767767 -1.767767 
C 1.29895 -2.236584 0.663008 -2.5 0 -2.5 
C -0.663008 -2.5 -1.29895 -2.236584 -1.767767 -1.767767 
C -2.236584 -1.29895 -2.5 -0.663008 -2.5 0 
C -2.5 0.663008 -2.236584 1.29895 -1.767767 1.767767 
C -1.29895 2.236584 -0.663008 2.5 0 2.5 
z
"/>
                </defs>
                <g clip-path="url(#pbc3b2eed19)">
                    <use xlink:href="#C1_0_9625dadb3e" x="688.5" y="505.666642" style="fill: #ff7f0e"/>
                </g>
                <g clip-path="url(#pbc3b2eed19)">
                    <use xlink:href="#C1_0_9625dadb3e" x="688.5" y="497.920587" style="fill: #ff7f0e"/>
                </g>
                <g clip-path="url(#pbc3b2eed19)">
                    <use xlink:href="#C1_0_9625dadb3e" x="688.5" y="468.170505" style="fill: #ff7f0e"/>
                </g>
                <g clip-path="url(#pbc3b2eed19)">
                    <use xlink:href="#C1_0_9625dadb3e" x="688.5" y="446.295116" style="fill: #ff7f0e"/>
                </g>
                <g clip-path="url(#pbc3b2eed19)">
                    <use xlink:href="#C1_0_9625dadb3e" x="688.5" y="437.140666" style="fill: #ff7f0e"/>
                </g>
                <g clip-path="url(#pbc3b2eed19)">
                    <use xlink:href="#C1_0_9625dadb3e" x="688.5" y="415.337079" style="fill: #ff7f0e"/>
                </g>
                <g clip-path="url(#pbc3b2eed19)">
                    <use xlink:href="#C1_0_9625dadb3e" x="688.5" y="403.246255" style="fill: #ff7f0e"/>
                </g>
                <g clip-path="url(#pbc3b2eed19)">
                    <use xlink:href="#C1_0_9625dadb3e" x="688.5" y="366.937086" style="fill: #ff7f0e"/>
                </g>
                <g clip-path="url(#pbc3b2eed19)">
                    <use xlink:href="#C1_0_9625dadb3e" x="688.5" y="263.054698" style="fill: #ff7f0e"/>
                </g>
            </g>
            <g id="PathCollection_8">
                <defs>
                    <path id="C2_0_2183ec6e28" d="M 0 2.5
C 0.663008 2.5 1.29895 2.236584 1.767767 1.767767 
C 2.236584 1.29895 2.5 0.663008 2.5 -0 
C 2.5 -0.663008 2.236584 -1.29895 1.767767 -1.767767 
C 1.29895 -2.236584 0.663008 -2.5 0 -2.5 
C -0.663008 -2.5 -1.29895 -2.236584 -1.767767 -1.767767 
C -2.236584 -1.29895 -2.5 -0.663008 -2.5 0 
C -2.5 0.663008 -2.236584 1.29895 -1.767767 1.767767 
C -1.29895 2.236584 -0.663008 2.5 0 2.5 
z
"/>
                </defs>
                <g clip-path="url(#pbc3b2eed19)">
                    <use xlink:href="#C2_0_2183ec6e28" x="967.5" y="477.740669" style="fill: #2ca02c"/>
                </g>
                <g clip-path="url(#pbc3b2eed19)">
                    <use xlink:href="#C2_0_2183ec6e28" x="967.5" y="467.848338" style="fill: #2ca02c"/>
                </g>
                <g clip-path="url(#pbc3b2eed19)">
                    <use xlink:href="#C2_0_2183ec6e28" x="967.5" y="384.785134" style="fill: #2ca02c"/>
                </g>
            </g>
            <g id="PathCollection_9">
                <defs>
                    <path id="C3_0_2337a1ad07" d="M 0 2.5
C 0.663008 2.5 1.29895 2.236584 1.767767 1.767767 
C 2.236584 1.29895 2.5 0.663008 2.5 -0 
C 2.5 -0.663008 2.236584 -1.29895 1.767767 -1.767767 
C 1.29895 -2.236584 0.663008 -2.5 0 -2.5 
C -0.663008 -2.5 -1.29895 -2.236584 -1.767767 -1.767767 
C -2.236584 -1.29895 -2.5 -0.663008 -2.5 0 
C -2.5 0.663008 -2.236584 1.29895 -1.767767 1.767767 
C -1.29895 2.236584 -0.663008 2.5 0 2.5 
z
"/>
                </defs>
                <g clip-path="url(#pbc3b2eed19)">
                    <use xlink:href="#C3_0_2337a1ad07" x="1246.5" y="489.950192" style="fill: #d62728"/>
                </g>
                <g clip-path="url(#pbc3b2eed19)">
                    <use xlink:href="#C3_0_2337a1ad07" x="1246.5" y="473.46962" style="fill: #d62728"/>
                </g>
            </g>
            <g id="PathCollection_10">
                <defs>
                    <path id="C4_0_c1f55445c6" d="M 0 2.5
C 0.663008 2.5 1.29895 2.236584 1.767767 1.767767 
C 2.236584 1.29895 2.5 0.663008 2.5 -0 
C 2.5 -0.663008 2.236584 -1.29895 1.767767 -1.767767 
C 1.29895 -2.236584 0.663008 -2.5 0 -2.5 
C -0.663008 -2.5 -1.29895 -2.236584 -1.767767 -1.767767 
C -2.236584 -1.29895 -2.5 -0.663008 -2.5 0 
C -2.5 0.663008 -2.236584 1.29895 -1.767767 1.767767 
C -1.29895 2.236584 -0.663008 2.5 0 2.5 
z
"/>
                </defs>
                <g clip-path="url(#pbc3b2eed19)">
                    <use xlink:href="#C4_0_c1f55445c6" x="1525.5" y="504.864056" style="fill: #9467bd"/>
                </g>
                <g clip-path="url(#pbc3b2eed19)">
                    <use xlink:href="#C4_0_c1f55445c6" x="1521.509529" y="501.614965" style="fill: #9467bd"/>
                </g>
                <g clip-path="url(#pbc3b2eed19)">
                    <use xlink:href="#C4_0_c1f55445c6" x="1528.500771" y="500.761308" style="fill: #9467bd"/>
                </g>
                <g clip-path="url(#pbc3b2eed19)">
                    <use xlink:href="#C4_0_c1f55445c6" x="1533.088165" y="498.329785" style="fill: #9467bd"/>
                </g>
                <g clip-path="url(#pbc3b2eed19)">
                    <use xlink:href="#C4_0_c1f55445c6" x="1525.5" y="494.938584" style="fill: #9467bd"/>
                </g>
                <g clip-path="url(#pbc3b2eed19)">
                    <use xlink:href="#C4_0_c1f55445c6" x="1530.537372" y="493.530032" style="fill: #9467bd"/>
                </g>
                <g clip-path="url(#pbc3b2eed19)">
                    <use xlink:href="#C4_0_c1f55445c6" x="1523.33655" y="490.382859" style="fill: #9467bd"/>
                </g>
                <g clip-path="url(#pbc3b2eed19)">
                    <use xlink:href="#C4_0_c1f55445c6" x="1527.128557" y="486.924891" style="fill: #9467bd"/>
                </g>
                <g clip-path="url(#pbc3b2eed19)">
                    <use xlink:href="#C4_0_c1f55445c6" x="1520.256792" y="486.333549" style="fill: #9467bd"/>
                </g>
                <g clip-path="url(#pbc3b2eed19)">
                    <use xlink:href="#C4_0_c1f55445c6" x="1532.337819" y="486.30322" style="fill: #9467bd"/>
                </g>
                <g clip-path="url(#pbc3b2eed19)">
                    <use xlink:href="#C4_0_c1f55445c6" x="1515.328673" y="484.609729" style="fill: #9467bd"/>
                </g>
                <g clip-path="url(#pbc3b2eed19)">
                    <use xlink:href="#C4_0_c1f55445c6" x="1525.5" y="480.548355" style="fill: #9467bd"/>
                </g>
                <g clip-path="url(#pbc3b2eed19)">
                    <use xlink:href="#C4_0_c1f55445c6" x="1521.45209" y="477.364364" style="fill: #9467bd"/>
                </g>
                <g clip-path="url(#pbc3b2eed19)">
                    <use xlink:href="#C4_0_c1f55445c6" x="1529.529091" y="477.342787" style="fill: #9467bd"/>
                </g>
                <g clip-path="url(#pbc3b2eed19)">
                    <use xlink:href="#C4_0_c1f55445c6" x="1525.5" y="473.642015" style="fill: #9467bd"/>
                </g>
                <g clip-path="url(#pbc3b2eed19)">
                    <use xlink:href="#C4_0_c1f55445c6" x="1525.5" y="452.569278" style="fill: #9467bd"/>
                </g>
                <g clip-path="url(#pbc3b2eed19)">
                    <use xlink:href="#C4_0_c1f55445c6" x="1520.250349" y="452.51161" style="fill: #9467bd"/>
                </g>
                <g clip-path="url(#pbc3b2eed19)">
                    <use xlink:href="#C4_0_c1f55445c6" x="1525.5" y="441.371576" style="fill: #9467bd"/>
                </g>
                <g clip-path="url(#pbc3b2eed19)">
                    <use xlink:href="#C4_0_c1f55445c6" x="1525.5" y="427.63899" style="fill: #9467bd"/>
                </g>
                <g clip-path="url(#pbc3b2eed19)">
                    <use xlink:href="#C4_0_c1f55445c6" x="1520.251657" y="427.513372" style="fill: #9467bd"/>
                </g>
                <g clip-path="url(#pbc3b2eed19)">
                    <use xlink:href="#C4_0_c1f55445c6" x="1525.5" y="421.035217" style="fill: #9467bd"/>
                </g>
                <g clip-path="url(#pbc3b2eed19)">
                    <use xlink:href="#C4_0_c1f55445c6" x="1525.5" y="395.481148" style="fill: #9467bd"/>
                </g>
                <g clip-path="url(#pbc3b2eed19)">
                    <use xlink:href="#C4_0_c1f55445c6" x="1525.5" y="313.894274" style="fill: #9467bd"/>
                </g>
                <g clip-path="url(#pbc3b2eed19)">
                    <use xlink:href="#C4_0_c1f55445c6" x="1522.636752" y="309.703331" style="fill: #9467bd"/>
                </g>
            </g>
            <g id="PathCollection_11">
                <defs>
                    <path id="m424a9ca54a" d="M 0 2.5
C 0.663008 2.5 1.29895 2.236584 1.767767 1.767767 
C 2.236584 1.29895 2.5 0.663008 2.5 0 
C 2.5 -0.663008 2.236584 -1.29895 1.767767 -1.767767 
C 1.29895 -2.236584 0.663008 -2.5 0 -2.5 
C -0.663008 -2.5 -1.29895 -2.236584 -1.767767 -1.767767 
C -2.236584 -1.29895 -2.5 -0.663008 -2.5 0 
C -2.5 0.663008 -2.236584 1.29895 -1.767767 1.767767 
C -1.29895 2.236584 -0.663008 2.5 0 2.5 
z
"/>
                </defs>
                <g clip-path="url(#pbc3b2eed19)">
                    <use xlink:href="#m424a9ca54a" x="1804.5" y="440.405243" style="fill: #8c564b"/>
                </g>
            </g>
            <g id="text_15">
                <!-- P values of Field Dermatological -->
                <g transform="translate(914.86125 80.4)scale(0.24 -0.24)">
                    <defs>
                        <path id="DejaVuSans-50" d="M 1259 4147
L 1259 2394 
L 2053 2394 
Q 2494 2394 2734 2622 
Q 2975 2850 2975 3272 
Q 2975 3691 2734 3919 
Q 2494 4147 2053 4147 
L 1259 4147 
z
M 628 4666 
L 2053 4666 
Q 2838 4666 3239 4311 
Q 3641 3956 3641 3272 
Q 3641 2581 3239 2228 
Q 2838 1875 2053 1875 
L 1259 1875 
L 1259 0 
L 628 0 
L 628 4666 
z
" transform="scale(0.015625)"/>
                        <path id="DejaVuSans-20" transform="scale(0.015625)"/>
                        <path id="DejaVuSans-76" d="M 191 3500
L 800 3500 
L 1894 563 
L 2988 3500 
L 3597 3500 
L 2284 0 
L 1503 0 
L 191 3500 
z
" transform="scale(0.015625)"/>
                        <path id="DejaVuSans-61" d="M 2194 1759
Q 1497 1759 1228 1600 
Q 959 1441 959 1056 
Q 959 750 1161 570 
Q 1363 391 1709 391 
Q 2188 391 2477 730 
Q 2766 1069 2766 1631 
L 2766 1759 
L 2194 1759 
z
M 3341 1997 
L 3341 0 
L 2766 0 
L 2766 531 
Q 2569 213 2275 61 
Q 1981 -91 1556 -91 
Q 1019 -91 701 211 
Q 384 513 384 1019 
Q 384 1609 779 1909 
Q 1175 2209 1959 2209 
L 2766 2209 
L 2766 2266 
Q 2766 2663 2505 2880 
Q 2244 3097 1772 3097 
Q 1472 3097 1187 3025 
Q 903 2953 641 2809 
L 641 3341 
Q 956 3463 1253 3523 
Q 1550 3584 1831 3584 
Q 2591 3584 2966 3190 
Q 3341 2797 3341 1997 
z
" transform="scale(0.015625)"/>
                        <path id="DejaVuSans-66" d="M 2375 4863
L 2375 4384 
L 1825 4384 
Q 1516 4384 1395 4259 
Q 1275 4134 1275 3809 
L 1275 3500 
L 2222 3500 
L 2222 3053 
L 1275 3053 
L 1275 0 
L 697 0 
L 697 3053 
L 147 3053 
L 147 3500 
L 697 3500 
L 697 3744 
Q 697 4328 969 4595 
Q 1241 4863 1831 4863 
L 2375 4863 
z
" transform="scale(0.015625)"/>
                        <path id="DejaVuSans-46" d="M 628 4666
L 3309 4666 
L 3309 4134 
L 1259 4134 
L 1259 2759 
L 3109 2759 
L 3109 2228 
L 1259 2228 
L 1259 0 
L 628 0 
L 628 4666 
z
" transform="scale(0.015625)"/>
                        <path id="DejaVuSans-69" d="M 603 3500
L 1178 3500 
L 1178 0 
L 603 0 
L 603 3500 
z
M 603 4863 
L 1178 4863 
L 1178 4134 
L 603 4134 
L 603 4863 
z
" transform="scale(0.015625)"/>
                        <path id="DejaVuSans-64" d="M 2906 2969
L 2906 4863 
L 3481 4863 
L 3481 0 
L 2906 0 
L 2906 525 
Q 2725 213 2448 61 
Q 2172 -91 1784 -91 
Q 1150 -91 751 415 
Q 353 922 353 1747 
Q 353 2572 751 3078 
Q 1150 3584 1784 3584 
Q 2172 3584 2448 3432 
Q 2725 3281 2906 2969 
z
M 947 1747 
Q 947 1113 1208 752 
Q 1469 391 1925 391 
Q 2381 391 2643 752 
Q 2906 1113 2906 1747 
Q 2906 2381 2643 2742 
Q 2381 3103 1925 3103 
Q 1469 3103 1208 2742 
Q 947 2381 947 1747 
z
" transform="scale(0.015625)"/>
                        <path id="DejaVuSans-44" d="M 1259 4147
L 1259 519 
L 2022 519 
Q 2988 519 3436 956 
Q 3884 1394 3884 2338 
Q 3884 3275 3436 3711 
Q 2988 4147 2022 4147 
L 1259 4147 
z
M 628 4666 
L 1925 4666 
Q 3281 4666 3915 4102 
Q 4550 3538 4550 2338 
Q 4550 1131 3912 565 
Q 3275 0 1925 0 
L 628 0 
L 628 4666 
z
" transform="scale(0.015625)"/>
                        <path id="DejaVuSans-6d" d="M 3328 2828
Q 3544 3216 3844 3400 
Q 4144 3584 4550 3584 
Q 5097 3584 5394 3201 
Q 5691 2819 5691 2113 
L 5691 0 
L 5113 0 
L 5113 2094 
Q 5113 2597 4934 2840 
Q 4756 3084 4391 3084 
Q 3944 3084 3684 2787 
Q 3425 2491 3425 1978 
L 3425 0 
L 2847 0 
L 2847 2094 
Q 2847 2600 2669 2842 
Q 2491 3084 2119 3084 
Q 1678 3084 1418 2786 
Q 1159 2488 1159 1978 
L 1159 0 
L 581 0 
L 581 3500 
L 1159 3500 
L 1159 2956 
Q 1356 3278 1631 3431 
Q 1906 3584 2284 3584 
Q 2666 3584 2933 3390 
Q 3200 3197 3328 2828 
z
" transform="scale(0.015625)"/>
                    </defs>
                    <use xlink:href="#DejaVuSans-50"/>
                    <use xlink:href="#DejaVuSans-20" x="60.302734"/>
                    <use xlink:href="#DejaVuSans-76" x="92.089844"/>
                    <use xlink:href="#DejaVuSans-61" x="151.269531"/>
                    <use xlink:href="#DejaVuSans-6c" x="212.548828"/>
                    <use xlink:href="#DejaVuSans-75" x="240.332031"/>
                    <use xlink:href="#DejaVuSans-65" x="303.710938"/>
                    <use xlink:href="#DejaVuSans-73" x="365.234375"/>
                    <use xlink:href="#DejaVuSans-20" x="417.333984"/>
                    <use xlink:href="#DejaVuSans-6f" x="449.121094"/>
                    <use xlink:href="#DejaVuSans-66" x="510.302734"/>
                    <use xlink:href="#DejaVuSans-20" x="545.507812"/>
                    <use xlink:href="#DejaVuSans-46" x="577.294922"/>
                    <use xlink:href="#DejaVuSans-69" x="627.564453"/>
                    <use xlink:href="#DejaVuSans-65" x="655.347656"/>
                    <use xlink:href="#DejaVuSans-6c" x="716.871094"/>
                    <use xlink:href="#DejaVuSans-64" x="744.654297"/>
                    <use xlink:href="#DejaVuSans-20" x="808.130859"/>
                    <use xlink:href="#DejaVuSans-44" x="839.917969"/>
                    <use xlink:href="#DejaVuSans-65" x="916.919922"/>
                    <use xlink:href="#DejaVuSans-72" x="978.443359"/>
                    <use xlink:href="#DejaVuSans-6d" x="1017.806641"/>
                    <use xlink:href="#DejaVuSans-61" x="1115.21875"/>
                    <use xlink:href="#DejaVuSans-74" x="1176.498047"/>
                    <use xlink:href="#DejaVuSans-6f" x="1215.707031"/>
                    <use xlink:href="#DejaVuSans-6c" x="1276.888672"/>
                    <use xlink:href="#DejaVuSans-6f" x="1304.671875"/>
                    <use xlink:href="#DejaVuSans-67" x="1365.853516"/>
                    <use xlink:href="#DejaVuSans-69" x="1429.330078"/>
                    <use xlink:href="#DejaVuSans-63" x="1457.113281"/>
                    <use xlink:href="#DejaVuSans-61" x="1512.09375"/>
                    <use xlink:href="#DejaVuSans-6c" x="1573.373047"/>
                </g>
            </g>
        </g>
    </g>
    <defs>
        <clipPath id="pbc3b2eed19">
            <rect x="270" y="86.4" width="1674" height="554.4"/>
        </clipPath>
    </defs>
</svg>
