<?xml version="1.0" encoding="utf-8" standalone="no"?>
<!DOCTYPE svg PUBLIC "-//W3C//DTD SVG 1.1//EN"
        "http://www.w3.org/Graphics/SVG/1.1/DTD/svg11.dtd">
<svg xmlns:xlink="http://www.w3.org/1999/xlink" width="720pt" height="720pt" viewBox="0 0 720 720"
     xmlns="http://www.w3.org/2000/svg" version="1.1">
    <metadata>
        <rdf:RDF xmlns:dc="http://purl.org/dc/elements/1.1/" xmlns:cc="http://creativecommons.org/ns#"
                 xmlns:rdf="http://www.w3.org/1999/02/22-rdf-syntax-ns#">
            <cc:Work>
                <dc:type rdf:resource="http://purl.org/dc/dcmitype/StillImage"/>
                <dc:date>2022-05-29T16:22:22.419253</dc:date>
                <dc:format>image/svg+xml</dc:format>
                <dc:creator>
                    <cc:Agent>
                        <dc:title>Matplotlib v3.5.1, https://matplotlib.org/</dc:title>
                    </cc:Agent>
                </dc:creator>
            </cc:Work>
        </rdf:RDF>
    </metadata>
    <defs>
        <style type="text/css">*{stroke-linejoin: round; stroke-linecap: butt}</style>
    </defs>
    <g id="figure_1">
        <g id="patch_1">
            <path d="M 0 720
L 720 720 
L 720 0 
L 0 0 
z
" style="fill: #ffffff"/>
        </g>
        <g id="axes_1">
            <g id="patch_2">
                <path d="M 590.76 363.6
C 590.76 354.338775 590.179844 345.086637 589.022941 335.897956 
C 587.866037 326.709274 586.134657 317.602082 583.838975 308.629895 
L 519.387283 325.120927 
C 520.99426 331.401458 522.206226 337.776492 523.016058 344.208569 
C 523.825891 350.640646 524.232 357.117142 524.232 363.6 
L 590.76 363.6 
z
" style="fill: #1f77b4; stroke: #ffffff; stroke-linejoin: miter"/>
            </g>
            <g id="patch_3">
                <path d="M 583.838975 308.629895
C 576.741021 280.889051 564.336784 254.783761 547.312999 231.759293 
C 530.289214 208.734825 508.96595 189.224067 484.523726 174.307194 
L 449.866608 231.095036 
C 466.976165 241.536847 481.90245 255.194377 493.819099 271.311505 
C 505.735749 287.428633 514.418715 305.702336 519.387283 325.120927 
L 583.838975 308.629895 
z
" style="fill: #ff7f0e; stroke: #ffffff; stroke-linejoin: miter"/>
            </g>
            <g id="patch_4">
                <path d="M 484.523726 174.307194
C 465.720198 162.831567 445.311274 154.221516 423.9701 148.761024 
C 402.628925 143.300532 380.592737 141.0503 358.58835 142.084549 
C 336.583963 143.118797 314.855988 147.426028 294.121074 154.864176 
C 273.38616 162.302325 253.874806 172.788706 236.23055 185.977449 
C 218.586294 199.166192 203.005278 214.910685 190.001406 232.691631 
C 176.997535 250.472577 166.715366 270.092315 159.494033 290.903732 
C 152.2727 311.715149 148.192479 333.486895 147.387947 355.500877 
C 146.583416 377.51486 149.063516 399.526362 154.746449 420.809384 
C 160.429382 442.092405 169.251973 462.410353 180.923228 481.093086 
C 192.594483 499.775819 206.984659 516.615652 223.619129 531.057159 
C 240.253599 545.498666 258.947446 557.381309 279.084095 566.313166 
C 299.220744 575.245023 320.576348 581.126803 342.446538 583.764509 
C 364.316728 586.402216 386.458386 585.766526 408.141219 581.878406 
C 429.824052 577.990287 450.807023 570.89296 470.398056 560.820516 
C 489.989089 550.748071 507.970401 537.812479 523.748919 522.440391 
C 539.527436 507.068302 552.927758 489.430601 563.507904 470.109027 
L 505.155533 438.156319 
C 497.74943 451.681421 488.369205 464.027812 477.324243 474.788274 
C 466.279281 485.548735 453.692362 494.60365 439.978639 501.654361 
C 426.264916 508.705072 411.576836 513.673201 396.398853 516.394884 
C 381.22087 519.116568 365.72171 519.561551 350.412576 517.715157 
C 335.103443 515.868762 320.154521 511.751516 306.058867 505.499216 
C 291.963212 499.246916 278.877519 490.929066 267.23339 480.820011 
C 255.589261 470.710956 245.516138 458.923074 237.346259 445.84516 
C 229.176381 432.767247 223.000567 418.544683 219.022514 403.646569 
C 215.044462 388.748454 213.308391 373.340402 213.871563 357.930614 
C 214.434736 342.520826 217.29089 327.280604 222.345823 312.712612 
C 227.400756 298.144621 234.598275 284.410804 243.700984 271.964142 
C 252.803694 259.517479 263.710406 248.496334 276.061385 239.264214 
C 288.412364 230.032094 302.070312 222.691628 316.584752 217.484923 
C 331.099192 212.278219 346.308774 209.263158 361.711845 208.539184 
C 377.114916 207.81521 392.540247 209.390372 407.47907 213.212717 
C 422.417892 217.035061 436.704138 223.062097 449.866608 231.095036 
L 484.523726 174.307194 
z
" style="fill: #2ca02c; stroke: #ffffff; stroke-linejoin: miter"/>
            </g>
            <g id="patch_5">
                <path d="M 563.507904 470.109027
C 572.412749 453.846906 579.243118 436.532035 583.838975 418.570105 
C 588.434832 400.608174 590.76 382.140573 590.76 363.6 
L 524.232 363.6 
C 524.232 376.578401 522.604382 389.505722 519.387283 402.079073 
C 516.170183 414.652425 511.388924 426.772834 505.155533 438.156319 
L 563.507904 470.109027 
z
" style="fill: #d62728; stroke: #ffffff; stroke-linejoin: miter"/>
            </g>
            <g id="patch_6">
                <path d="M 524.232 363.6
C 524.232 357.117142 523.825891 350.640646 523.016058 344.208569 
C 522.206226 337.776492 520.99426 331.401458 519.387283 325.120927 
L 454.93559 341.611958 
C 455.853863 345.200833 456.546415 348.84371 457.009176 352.519182 
C 457.471938 356.194655 457.704 359.89551 457.704 363.6 
L 524.232 363.6 
z
" style="fill: #9467bd; stroke: #ffffff; stroke-linejoin: miter"/>
            </g>
            <g id="patch_7">
                <path d="M 519.387283 325.120927
C 517.780305 318.840396 515.781469 312.666695 513.402521 306.636102 
C 511.023573 300.605509 508.269182 294.72986 505.155533 289.043681 
L 446.803162 320.996389 
C 448.58239 324.245634 450.156328 327.603148 451.515726 331.049201 
C 452.875125 334.495254 454.017317 338.023083 454.93559 341.611958 
L 519.387283 325.120927 
z
" style="fill: #8c564b; stroke: #ffffff; stroke-linejoin: miter"/>
            </g>
            <g id="patch_8">
                <path d="M 505.155533 289.043681
C 504.896146 288.569986 504.634289 288.097649 504.369973 287.626687 
C 504.105656 287.155726 503.838884 286.686147 503.569667 286.217969 
L 445.896952 319.381697 
C 446.050791 319.649227 446.203232 319.917557 446.35427 320.186678 
C 446.505308 320.455799 446.654941 320.725706 446.803162 320.996389 
L 505.155533 289.043681 
z
" style="fill: #e377c2; stroke: #ffffff; stroke-linejoin: miter"/>
            </g>
            <g id="patch_9">
                <path d="M 503.569667 286.217969
C 500.338009 280.59802 496.757469 275.186028 492.849086 270.013795 
C 488.940703 264.841563 484.712149 259.919241 480.188271 255.275754 
L 432.536155 301.700431 
C 435.121228 304.353852 437.537545 307.166607 439.770906 310.122169 
C 442.004268 313.07773 444.050291 316.170297 445.896952 319.381697 
L 503.569667 286.217969 
z
" style="fill: #7f7f7f; stroke: #ffffff; stroke-linejoin: miter"/>
            </g>
            <g id="patch_10">
                <path d="M 480.188271 255.275754
C 475.664392 250.632267 470.854069 246.276729 465.785567 242.234733 
C 460.717064 238.192738 455.400331 234.472218 449.866608 231.095036 
L 415.20949 287.882878 
C 418.371617 289.812696 421.409751 291.938707 424.306038 294.248419 
C 427.202325 296.558131 429.951081 299.04701 432.536155 301.700431 
L 480.188271 255.275754 
z
" style="fill: #bcbd22; stroke: #ffffff; stroke-linejoin: miter"/>
            </g>
            <g id="patch_11">
                <path d="M 449.866608 231.095036
C 444.332885 227.717854 438.593034 224.690638 432.680783 222.031177 
C 426.768532 219.371716 420.695485 217.085229 414.497328 215.185152 
L 394.998473 278.791516 
C 398.540277 279.877274 402.01059 281.183838 405.389019 282.70353 
C 408.767448 284.223222 412.047363 285.953059 415.20949 287.882878 
L 449.866608 231.095036 
z
" style="fill: #17becf; stroke: #ffffff; stroke-linejoin: miter"/>
            </g>
            <g id="patch_12">
                <path d="M 414.497328 215.185152
C 408.299171 213.285076 401.988068 211.775138 395.601106 210.664213 
C 389.214143 209.553287 382.763856 208.843554 376.288147 208.539184 
L 373.164656 274.993819 
C 376.865061 275.167745 380.550939 275.573307 384.200632 276.208122 
C 387.850325 276.842936 391.456669 277.705758 394.998473 278.791516 
L 414.497328 215.185152 
z
" style="fill: #1f77b4; stroke: #ffffff; stroke-linejoin: miter"/>
            </g>
            <g id="patch_13">
                <path d="M 376.288147 208.539184
C 369.812439 208.234813 363.324018 208.336403 356.861012 208.843356 
C 350.398006 209.350309 343.9731 210.261631 337.624048 211.571965 
L 351.070884 276.726837 
C 354.698914 275.978075 358.370289 275.45732 362.063435 275.167632 
C 365.756582 274.877945 369.464251 274.819893 373.164656 274.993819 
L 376.288147 208.539184 
z
" style="fill: #ff7f0e; stroke: #ffffff; stroke-linejoin: miter"/>
            </g>
            <g id="patch_14">
                <path d="M 337.624048 211.571965
C 331.274995 212.882299 325.014257 214.589075 318.878623 216.682263 
C 312.742988 218.775451 306.7445 221.250943 300.918405 224.094193 
L 330.096232 283.882396 
C 333.425428 282.257682 336.853136 280.843115 340.359213 279.647008 
C 343.86529 278.4509 347.442854 277.4756 351.070884 276.726837 
L 337.624048 211.571965 
z
" style="fill: #2ca02c; stroke: #ffffff; stroke-linejoin: miter"/>
            </g>
            <g id="patch_15">
                <path d="M 300.918405 224.094193
C 295.578097 226.700369 290.391839 229.611038 285.385244 232.811827 
C 280.378648 236.012615 275.55997 239.498245 270.953007 243.251502 
L 312.973147 294.829429 
C 315.605697 292.684711 318.359227 290.692923 321.220139 288.863901 
C 324.081051 287.034879 327.044627 285.371639 330.096232 283.882396 
L 300.918405 224.094193 
z
" style="fill: #d62728; stroke: #ffffff; stroke-linejoin: miter"/>
            </g>
            <g id="patch_16">
                <path d="M 270.953007 243.251502
C 265.926968 247.346177 261.162365 251.751684 256.687198 256.442134 
C 252.21203 261.132584 248.035081 266.098771 244.180894 271.311514 
L 297.674797 310.863722 
C 299.877189 307.885012 302.264017 305.047191 304.821256 302.366934 
C 307.378494 299.686677 310.101124 297.169244 312.973147 294.829429 
L 270.953007 243.251502 
z
" style="fill: #9467bd; stroke: #ffffff; stroke-linejoin: miter"/>
            </g>
            <g id="patch_17">
                <path d="M 244.180894 271.311514
C 240.326707 276.524257 236.802847 281.973325 233.630021 287.626697 
C 230.457196 293.28007 227.641631 299.126652 225.199871 305.132087 
L 286.828498 330.189764 
C 288.223789 326.758087 289.832683 323.417183 291.645727 320.186684 
C 293.45877 316.956186 295.472404 313.842433 297.674797 310.863722 
L 244.180894 271.311514 
z
" style="fill: #8c564b; stroke: #ffffff; stroke-linejoin: miter"/>
            </g>
            <g id="patch_18">
                <path d="M 225.199871 305.132087
C 222.758112 311.137523 220.694951 317.290026 219.022512 323.553442 
C 217.350072 329.816859 216.071636 336.178897 215.194717 342.602172 
L 281.111267 351.601241 
C 281.612364 347.930798 282.342898 344.295348 283.298578 340.716253 
C 284.254258 337.137158 285.433207 333.621442 286.828498 330.189764 
L 225.199871 305.132087 
z
" style="fill: #e377c2; stroke: #ffffff; stroke-linejoin: miter"/>
            </g>
            <g id="patch_19">
                <path d="M 215.194717 342.602172
C 214.317798 349.025447 213.844116 355.497351 213.776455 361.979856 
C 213.708794 368.462361 214.047286 374.942742 214.789943 381.382921 
L 280.879968 373.761669 
C 280.455592 370.081567 280.262168 366.378492 280.300831 362.674203 
C 280.339495 358.969915 280.61017 355.271684 281.111267 351.601241 
L 215.194717 342.602172 
z
" style="fill: #7f7f7f; stroke: #ffffff; stroke-linejoin: miter"/>
            </g>
            <g id="patch_20">
                <path d="M 214.789943 381.382921
C 215.532601 387.8231 216.677965 394.210437 218.219305 400.507397 
C 219.760646 406.804358 221.694939 412.998584 224.010816 419.053678 
L 286.149038 395.287816 
C 284.825679 391.827762 283.720369 388.288205 282.839603 384.689941 
C 281.958837 381.091678 281.304343 377.441772 280.879968 373.761669 
L 214.789943 381.382921 
z
" style="fill: #bcbd22; stroke: #ffffff; stroke-linejoin: miter"/>
            </g>
            <g id="patch_21">
                <path d="M 224.010816 419.053678
C 226.326694 425.108771 229.019611 431.012848 232.073745 436.731214 
C 235.127878 442.44958 238.537234 447.971013 242.281777 453.263068 
L 296.589587 414.836039 
C 294.449848 411.812007 292.501645 408.656903 290.756426 405.389265 
C 289.011206 402.121627 287.472396 398.747869 286.149038 395.287816 
L 224.010816 419.053678 
z
" style="fill: #17becf; stroke: #ffffff; stroke-linejoin: miter"/>
            </g>
            <g id="patch_22">
                <path d="M 242.281777 453.263068
C 246.02632 458.555122 250.098701 463.607412 254.474992 468.390249 
C 258.851282 473.173086 263.522891 477.677083 268.462369 481.875774 
L 311.549925 431.186156 
C 308.727367 428.786904 306.057875 426.213192 303.557138 423.480142 
C 301.056401 420.747093 298.729326 417.86007 296.589587 414.836039 
L 242.281777 453.263068 
z
" style="fill: #1f77b4; stroke: #ffffff; stroke-linejoin: miter"/>
            </g>
            <g id="patch_23">
                <path d="M 268.462369 481.875774
C 273.401847 486.074464 278.599499 489.959608 284.024781 493.508376 
C 289.450064 497.057143 295.092331 500.262569 300.918426 503.105817 
L 330.096243 443.31761 
C 326.767046 441.692896 323.542894 439.861225 320.442732 437.833357 
C 317.342571 435.80549 314.372484 433.585408 311.549925 431.186156 
L 268.462369 481.875774 
z
" style="fill: #ff7f0e; stroke: #ffffff; stroke-linejoin: miter"/>
            </g>
            <g id="patch_24">
                <path d="M 300.918426 503.105817
C 306.744521 505.949066 312.74301 508.424557 318.878644 510.517744 
C 325.014279 512.610931 331.275017 514.317706 337.62407 515.62804 
L 351.070897 450.473166 
C 347.442867 449.724404 343.865302 448.749104 340.359225 447.552997 
C 336.853148 446.35689 333.42544 444.942323 330.096243 443.31761 
L 300.918426 503.105817 
z
" style="fill: #2ca02c; stroke: #ffffff; stroke-linejoin: miter"/>
            </g>
            <g id="patch_25">
                <path d="M 337.62407 515.62804
C 338.152986 515.737199 338.682468 515.843597 339.212495 515.94723 
C 339.742521 516.050862 340.273085 516.151728 340.804165 516.249824 
L 352.888094 450.828471 
C 352.58462 450.772416 352.281441 450.714778 351.978568 450.65556 
C 351.675696 450.596341 351.373135 450.535542 351.070897 450.473166 
L 337.62407 515.62804 
z
" style="fill: #d62728; stroke: #ffffff; stroke-linejoin: miter"/>
            </g>
            <g id="patch_26">
                <path d="M 340.804165 516.249824
C 347.179184 517.427349 353.621713 518.204365 360.093892 518.576305 
C 366.566071 518.948245 373.055199 518.91438 379.523144 518.474908 
L 375.013225 452.099948 
C 371.317257 452.351074 367.609184 452.370426 363.910796 452.157888 
C 360.212407 451.945351 356.530963 451.501342 352.888094 450.828471 
L 340.804165 516.249824 
z
" style="fill: #9467bd; stroke: #ffffff; stroke-linejoin: miter"/>
            </g>
            <g id="patch_27">
                <path d="M 379.523144 518.474908
C 385.991089 518.035437 392.425156 517.191221 398.787539 515.947223 
C 405.149921 514.703224 411.428132 513.061884 417.585279 511.032848 
L 396.763016 447.847341 
C 393.244647 449.006791 389.657098 449.9447 386.021451 450.655556 
C 382.385804 451.366412 378.709194 451.848821 375.013225 452.099948 
L 379.523144 518.474908 
z
" style="fill: #8c564b; stroke: #ffffff; stroke-linejoin: miter"/>
            </g>
            <g id="patch_28">
                <path d="M 417.585279 511.032848
C 423.742425 509.003811 429.766424 506.591059 435.621875 503.808771 
C 441.477327 501.026483 447.152741 497.880119 452.614766 494.388167 
L 416.779866 438.336096 
C 413.658709 440.331497 410.415616 442.129419 407.069643 443.719298 
C 403.723671 445.309177 400.281386 446.687892 396.763016 447.847341 
L 417.585279 511.032848 
z
" style="fill: #e377c2; stroke: #ffffff; stroke-linejoin: miter"/>
            </g>
            <g id="patch_29">
                <path d="M 452.614766 494.388167
C 458.076791 490.896216 463.314708 487.06553 468.297738 482.91862 
C 473.280767 478.77171 477.999129 474.316715 482.425099 469.579813 
L 433.814342 424.159893 
C 431.285217 426.866694 428.58901 429.412406 425.741564 431.782069 
C 422.894119 434.151731 419.901023 436.340695 416.779866 438.336096 
L 452.614766 494.388167 
z
" style="fill: #7f7f7f; stroke: #ffffff; stroke-linejoin: miter"/>
            </g>
            <g id="patch_30">
                <path d="M 482.425099 469.579813
C 486.851068 464.842911 490.975957 459.833399 494.775529 454.580714 
C 498.5751 449.328028 502.041895 443.842479 505.155544 438.156299 
L 446.803168 406.2036 
C 445.02394 409.452845 443.042914 412.587445 440.871731 415.588979 
C 438.700547 418.590514 436.343467 421.453092 433.814342 424.159893 
L 482.425099 469.579813 
z
" style="fill: #bcbd22; stroke: #ffffff; stroke-linejoin: miter"/>
            </g>
            <g id="patch_31">
                <path d="M 505.155544 438.156299
C 508.269192 432.47012 511.023583 426.59447 513.40253 420.563877 
C 515.781477 414.533283 517.780311 408.359582 519.387288 402.079051 
L 454.935593 385.588029 
C 454.017321 389.176904 452.87513 392.704733 451.515731 396.150787 
C 450.156333 399.59684 448.582396 402.954354 446.803168 406.2036 
L 505.155544 438.156299 
z
" style="fill: #17becf; stroke: #ffffff; stroke-linejoin: miter"/>
            </g>
            <g id="patch_32">
                <path d="M 519.387288 402.079051
C 520.994265 395.79852 522.20623 389.423486 523.016061 382.991408 
C 523.825893 376.559331 524.232001 370.082835 524.232 363.599977 
L 457.704 363.599987 
C 457.704001 367.304477 457.471939 371.005332 457.009178 374.680805 
C 456.546417 378.356277 455.853866 381.999154 454.935593 385.588029 
L 519.387288 402.079051 
z
" style="fill: #1f77b4; stroke: #ffffff; stroke-linejoin: miter"/>
            </g>
            <g id="matplotlib.axis_1"/>
            <g id="matplotlib.axis_2"/>
            <g id="text_1">
                <!-- Activities -->
                <g transform="translate(611.025235 335.887126)scale(0.1 -0.1)">
                    <defs>
                        <path id="DejaVuSans-41" d="M 2188 4044
L 1331 1722 
L 3047 1722 
L 2188 4044 
z
M 1831 4666 
L 2547 4666 
L 4325 0 
L 3669 0 
L 3244 1197 
L 1141 1197 
L 716 0 
L 50 0 
L 1831 4666 
z
" transform="scale(0.015625)"/>
                        <path id="DejaVuSans-63" d="M 3122 3366
L 3122 2828 
Q 2878 2963 2633 3030 
Q 2388 3097 2138 3097 
Q 1578 3097 1268 2742 
Q 959 2388 959 1747 
Q 959 1106 1268 751 
Q 1578 397 2138 397 
Q 2388 397 2633 464 
Q 2878 531 3122 666 
L 3122 134 
Q 2881 22 2623 -34 
Q 2366 -91 2075 -91 
Q 1284 -91 818 406 
Q 353 903 353 1747 
Q 353 2603 823 3093 
Q 1294 3584 2113 3584 
Q 2378 3584 2631 3529 
Q 2884 3475 3122 3366 
z
" transform="scale(0.015625)"/>
                        <path id="DejaVuSans-74" d="M 1172 4494
L 1172 3500 
L 2356 3500 
L 2356 3053 
L 1172 3053 
L 1172 1153 
Q 1172 725 1289 603 
Q 1406 481 1766 481 
L 2356 481 
L 2356 0 
L 1766 0 
Q 1100 0 847 248 
Q 594 497 594 1153 
L 594 3053 
L 172 3053 
L 172 3500 
L 594 3500 
L 594 4494 
L 1172 4494 
z
" transform="scale(0.015625)"/>
                        <path id="DejaVuSans-69" d="M 603 3500
L 1178 3500 
L 1178 0 
L 603 0 
L 603 3500 
z
M 603 4863 
L 1178 4863 
L 1178 4134 
L 603 4134 
L 603 4863 
z
" transform="scale(0.015625)"/>
                        <path id="DejaVuSans-76" d="M 191 3500
L 800 3500 
L 1894 563 
L 2988 3500 
L 3597 3500 
L 2284 0 
L 1503 0 
L 191 3500 
z
" transform="scale(0.015625)"/>
                        <path id="DejaVuSans-65" d="M 3597 1894
L 3597 1613 
L 953 1613 
Q 991 1019 1311 708 
Q 1631 397 2203 397 
Q 2534 397 2845 478 
Q 3156 559 3463 722 
L 3463 178 
Q 3153 47 2828 -22 
Q 2503 -91 2169 -91 
Q 1331 -91 842 396 
Q 353 884 353 1716 
Q 353 2575 817 3079 
Q 1281 3584 2069 3584 
Q 2775 3584 3186 3129 
Q 3597 2675 3597 1894 
z
M 3022 2063 
Q 3016 2534 2758 2815 
Q 2500 3097 2075 3097 
Q 1594 3097 1305 2825 
Q 1016 2553 972 2059 
L 3022 2063 
z
" transform="scale(0.015625)"/>
                        <path id="DejaVuSans-73" d="M 2834 3397
L 2834 2853 
Q 2591 2978 2328 3040 
Q 2066 3103 1784 3103 
Q 1356 3103 1142 2972 
Q 928 2841 928 2578 
Q 928 2378 1081 2264 
Q 1234 2150 1697 2047 
L 1894 2003 
Q 2506 1872 2764 1633 
Q 3022 1394 3022 966 
Q 3022 478 2636 193 
Q 2250 -91 1575 -91 
Q 1294 -91 989 -36 
Q 684 19 347 128 
L 347 722 
Q 666 556 975 473 
Q 1284 391 1588 391 
Q 1994 391 2212 530 
Q 2431 669 2431 922 
Q 2431 1156 2273 1281 
Q 2116 1406 1581 1522 
L 1381 1569 
Q 847 1681 609 1914 
Q 372 2147 372 2553 
Q 372 3047 722 3315 
Q 1072 3584 1716 3584 
Q 2034 3584 2315 3537 
Q 2597 3491 2834 3397 
z
" transform="scale(0.015625)"/>
                    </defs>
                    <use xlink:href="#DejaVuSans-41"/>
                    <use xlink:href="#DejaVuSans-63" x="66.658203"/>
                    <use xlink:href="#DejaVuSans-74" x="121.638672"/>
                    <use xlink:href="#DejaVuSans-69" x="160.847656"/>
                    <use xlink:href="#DejaVuSans-76" x="188.630859"/>
                    <use xlink:href="#DejaVuSans-69" x="247.810547"/>
                    <use xlink:href="#DejaVuSans-74" x="275.59375"/>
                    <use xlink:href="#DejaVuSans-69" x="314.802734"/>
                    <use xlink:href="#DejaVuSans-65" x="342.585938"/>
                    <use xlink:href="#DejaVuSans-73" x="404.109375"/>
                </g>
            </g>
            <g id="text_2">
                <!-- Dermatological -->
                <g transform="translate(565.144299 221.334597)scale(0.1 -0.1)">
                    <defs>
                        <path id="DejaVuSans-44" d="M 1259 4147
L 1259 519 
L 2022 519 
Q 2988 519 3436 956 
Q 3884 1394 3884 2338 
Q 3884 3275 3436 3711 
Q 2988 4147 2022 4147 
L 1259 4147 
z
M 628 4666 
L 1925 4666 
Q 3281 4666 3915 4102 
Q 4550 3538 4550 2338 
Q 4550 1131 3912 565 
Q 3275 0 1925 0 
L 628 0 
L 628 4666 
z
" transform="scale(0.015625)"/>
                        <path id="DejaVuSans-72" d="M 2631 2963
Q 2534 3019 2420 3045 
Q 2306 3072 2169 3072 
Q 1681 3072 1420 2755 
Q 1159 2438 1159 1844 
L 1159 0 
L 581 0 
L 581 3500 
L 1159 3500 
L 1159 2956 
Q 1341 3275 1631 3429 
Q 1922 3584 2338 3584 
Q 2397 3584 2469 3576 
Q 2541 3569 2628 3553 
L 2631 2963 
z
" transform="scale(0.015625)"/>
                        <path id="DejaVuSans-6d" d="M 3328 2828
Q 3544 3216 3844 3400 
Q 4144 3584 4550 3584 
Q 5097 3584 5394 3201 
Q 5691 2819 5691 2113 
L 5691 0 
L 5113 0 
L 5113 2094 
Q 5113 2597 4934 2840 
Q 4756 3084 4391 3084 
Q 3944 3084 3684 2787 
Q 3425 2491 3425 1978 
L 3425 0 
L 2847 0 
L 2847 2094 
Q 2847 2600 2669 2842 
Q 2491 3084 2119 3084 
Q 1678 3084 1418 2786 
Q 1159 2488 1159 1978 
L 1159 0 
L 581 0 
L 581 3500 
L 1159 3500 
L 1159 2956 
Q 1356 3278 1631 3431 
Q 1906 3584 2284 3584 
Q 2666 3584 2933 3390 
Q 3200 3197 3328 2828 
z
" transform="scale(0.015625)"/>
                        <path id="DejaVuSans-61" d="M 2194 1759
Q 1497 1759 1228 1600 
Q 959 1441 959 1056 
Q 959 750 1161 570 
Q 1363 391 1709 391 
Q 2188 391 2477 730 
Q 2766 1069 2766 1631 
L 2766 1759 
L 2194 1759 
z
M 3341 1997 
L 3341 0 
L 2766 0 
L 2766 531 
Q 2569 213 2275 61 
Q 1981 -91 1556 -91 
Q 1019 -91 701 211 
Q 384 513 384 1019 
Q 384 1609 779 1909 
Q 1175 2209 1959 2209 
L 2766 2209 
L 2766 2266 
Q 2766 2663 2505 2880 
Q 2244 3097 1772 3097 
Q 1472 3097 1187 3025 
Q 903 2953 641 2809 
L 641 3341 
Q 956 3463 1253 3523 
Q 1550 3584 1831 3584 
Q 2591 3584 2966 3190 
Q 3341 2797 3341 1997 
z
" transform="scale(0.015625)"/>
                        <path id="DejaVuSans-6f" d="M 1959 3097
Q 1497 3097 1228 2736 
Q 959 2375 959 1747 
Q 959 1119 1226 758 
Q 1494 397 1959 397 
Q 2419 397 2687 759 
Q 2956 1122 2956 1747 
Q 2956 2369 2687 2733 
Q 2419 3097 1959 3097 
z
M 1959 3584 
Q 2709 3584 3137 3096 
Q 3566 2609 3566 1747 
Q 3566 888 3137 398 
Q 2709 -91 1959 -91 
Q 1206 -91 779 398 
Q 353 888 353 1747 
Q 353 2609 779 3096 
Q 1206 3584 1959 3584 
z
" transform="scale(0.015625)"/>
                        <path id="DejaVuSans-6c" d="M 603 4863
L 1178 4863 
L 1178 0 
L 603 0 
L 603 4863 
z
" transform="scale(0.015625)"/>
                        <path id="DejaVuSans-67" d="M 2906 1791
Q 2906 2416 2648 2759 
Q 2391 3103 1925 3103 
Q 1463 3103 1205 2759 
Q 947 2416 947 1791 
Q 947 1169 1205 825 
Q 1463 481 1925 481 
Q 2391 481 2648 825 
Q 2906 1169 2906 1791 
z
M 3481 434 
Q 3481 -459 3084 -895 
Q 2688 -1331 1869 -1331 
Q 1566 -1331 1297 -1286 
Q 1028 -1241 775 -1147 
L 775 -588 
Q 1028 -725 1275 -790 
Q 1522 -856 1778 -856 
Q 2344 -856 2625 -561 
Q 2906 -266 2906 331 
L 2906 616 
Q 2728 306 2450 153 
Q 2172 0 1784 0 
Q 1141 0 747 490 
Q 353 981 353 1791 
Q 353 2603 747 3093 
Q 1141 3584 1784 3584 
Q 2172 3584 2450 3431 
Q 2728 3278 2906 2969 
L 2906 3500 
L 3481 3500 
L 3481 434 
z
" transform="scale(0.015625)"/>
                    </defs>
                    <use xlink:href="#DejaVuSans-44"/>
                    <use xlink:href="#DejaVuSans-65" x="77.001953"/>
                    <use xlink:href="#DejaVuSans-72" x="138.525391"/>
                    <use xlink:href="#DejaVuSans-6d" x="177.888672"/>
                    <use xlink:href="#DejaVuSans-61" x="275.300781"/>
                    <use xlink:href="#DejaVuSans-74" x="336.580078"/>
                    <use xlink:href="#DejaVuSans-6f" x="375.789062"/>
                    <use xlink:href="#DejaVuSans-6c" x="436.970703"/>
                    <use xlink:href="#DejaVuSans-6f" x="464.753906"/>
                    <use xlink:href="#DejaVuSans-67" x="525.935547"/>
                    <use xlink:href="#DejaVuSans-69" x="589.412109"/>
                    <use xlink:href="#DejaVuSans-63" x="617.195312"/>
                    <use xlink:href="#DejaVuSans-61" x="672.175781"/>
                    <use xlink:href="#DejaVuSans-6c" x="733.455078"/>
                </g>
            </g>
            <g id="text_3">
                <!-- Metabolic -->
                <g transform="translate(84.969532 429.289697)scale(0.1 -0.1)">
                    <defs>
                        <path id="DejaVuSans-4d" d="M 628 4666
L 1569 4666 
L 2759 1491 
L 3956 4666 
L 4897 4666 
L 4897 0 
L 4281 0 
L 4281 4097 
L 3078 897 
L 2444 897 
L 1241 4097 
L 1241 0 
L 628 0 
L 628 4666 
z
" transform="scale(0.015625)"/>
                        <path id="DejaVuSans-62" d="M 3116 1747
Q 3116 2381 2855 2742 
Q 2594 3103 2138 3103 
Q 1681 3103 1420 2742 
Q 1159 2381 1159 1747 
Q 1159 1113 1420 752 
Q 1681 391 2138 391 
Q 2594 391 2855 752 
Q 3116 1113 3116 1747 
z
M 1159 2969 
Q 1341 3281 1617 3432 
Q 1894 3584 2278 3584 
Q 2916 3584 3314 3078 
Q 3713 2572 3713 1747 
Q 3713 922 3314 415 
Q 2916 -91 2278 -91 
Q 1894 -91 1617 61 
Q 1341 213 1159 525 
L 1159 0 
L 581 0 
L 581 4863 
L 1159 4863 
L 1159 2969 
z
" transform="scale(0.015625)"/>
                    </defs>
                    <use xlink:href="#DejaVuSans-4d"/>
                    <use xlink:href="#DejaVuSans-65" x="86.279297"/>
                    <use xlink:href="#DejaVuSans-74" x="147.802734"/>
                    <use xlink:href="#DejaVuSans-61" x="187.011719"/>
                    <use xlink:href="#DejaVuSans-62" x="248.291016"/>
                    <use xlink:href="#DejaVuSans-6f" x="311.767578"/>
                    <use xlink:href="#DejaVuSans-6c" x="372.949219"/>
                    <use xlink:href="#DejaVuSans-69" x="400.732422"/>
                    <use xlink:href="#DejaVuSans-63" x="428.515625"/>
                </g>
            </g>
            <g id="text_4">
                <!-- Skeletal -->
                <g transform="translate(605.322873 426.82649)scale(0.1 -0.1)">
                    <defs>
                        <path id="DejaVuSans-53" d="M 3425 4513
L 3425 3897 
Q 3066 4069 2747 4153 
Q 2428 4238 2131 4238 
Q 1616 4238 1336 4038 
Q 1056 3838 1056 3469 
Q 1056 3159 1242 3001 
Q 1428 2844 1947 2747 
L 2328 2669 
Q 3034 2534 3370 2195 
Q 3706 1856 3706 1288 
Q 3706 609 3251 259 
Q 2797 -91 1919 -91 
Q 1588 -91 1214 -16 
Q 841 59 441 206 
L 441 856 
Q 825 641 1194 531 
Q 1563 422 1919 422 
Q 2459 422 2753 634 
Q 3047 847 3047 1241 
Q 3047 1584 2836 1778 
Q 2625 1972 2144 2069 
L 1759 2144 
Q 1053 2284 737 2584 
Q 422 2884 422 3419 
Q 422 4038 858 4394 
Q 1294 4750 2059 4750 
Q 2388 4750 2728 4690 
Q 3069 4631 3425 4513 
z
" transform="scale(0.015625)"/>
                        <path id="DejaVuSans-6b" d="M 581 4863
L 1159 4863 
L 1159 1991 
L 2875 3500 
L 3609 3500 
L 1753 1863 
L 3688 0 
L 2938 0 
L 1159 1709 
L 1159 0 
L 581 0 
L 581 4863 
z
" transform="scale(0.015625)"/>
                    </defs>
                    <use xlink:href="#DejaVuSans-53"/>
                    <use xlink:href="#DejaVuSans-6b" x="63.476562"/>
                    <use xlink:href="#DejaVuSans-65" x="117.761719"/>
                    <use xlink:href="#DejaVuSans-6c" x="179.285156"/>
                    <use xlink:href="#DejaVuSans-65" x="207.068359"/>
                    <use xlink:href="#DejaVuSans-74" x="268.591797"/>
                    <use xlink:href="#DejaVuSans-61" x="307.800781"/>
                    <use xlink:href="#DejaVuSans-6c" x="369.080078"/>
                </g>
            </g>
            <g id="text_5">
                <!-- Cluster1 -->
                <g transform="translate(343.887187 80.4)scale(0.12 -0.12)">
                    <defs>
                        <path id="DejaVuSans-43" d="M 4122 4306
L 4122 3641 
Q 3803 3938 3442 4084 
Q 3081 4231 2675 4231 
Q 1875 4231 1450 3742 
Q 1025 3253 1025 2328 
Q 1025 1406 1450 917 
Q 1875 428 2675 428 
Q 3081 428 3442 575 
Q 3803 722 4122 1019 
L 4122 359 
Q 3791 134 3420 21 
Q 3050 -91 2638 -91 
Q 1578 -91 968 557 
Q 359 1206 359 2328 
Q 359 3453 968 4101 
Q 1578 4750 2638 4750 
Q 3056 4750 3426 4639 
Q 3797 4528 4122 4306 
z
" transform="scale(0.015625)"/>
                        <path id="DejaVuSans-75" d="M 544 1381
L 544 3500 
L 1119 3500 
L 1119 1403 
Q 1119 906 1312 657 
Q 1506 409 1894 409 
Q 2359 409 2629 706 
Q 2900 1003 2900 1516 
L 2900 3500 
L 3475 3500 
L 3475 0 
L 2900 0 
L 2900 538 
Q 2691 219 2414 64 
Q 2138 -91 1772 -91 
Q 1169 -91 856 284 
Q 544 659 544 1381 
z
M 1991 3584 
L 1991 3584 
z
" transform="scale(0.015625)"/>
                        <path id="DejaVuSans-31" d="M 794 531
L 1825 531 
L 1825 4091 
L 703 3866 
L 703 4441 
L 1819 4666 
L 2450 4666 
L 2450 531 
L 3481 531 
L 3481 0 
L 794 0 
L 794 531 
z
" transform="scale(0.015625)"/>
                    </defs>
                    <use xlink:href="#DejaVuSans-43"/>
                    <use xlink:href="#DejaVuSans-6c" x="69.824219"/>
                    <use xlink:href="#DejaVuSans-75" x="97.607422"/>
                    <use xlink:href="#DejaVuSans-73" x="160.986328"/>
                    <use xlink:href="#DejaVuSans-74" x="213.085938"/>
                    <use xlink:href="#DejaVuSans-65" x="252.294922"/>
                    <use xlink:href="#DejaVuSans-72" x="313.818359"/>
                    <use xlink:href="#DejaVuSans-31" x="354.931641"/>
                </g>
            </g>
        </g>
    </g>
</svg>
