<?xml version="1.0" encoding="utf-8" standalone="no"?>
<!DOCTYPE svg PUBLIC "-//W3C//DTD SVG 1.1//EN"
        "http://www.w3.org/Graphics/SVG/1.1/DTD/svg11.dtd">
<svg xmlns:xlink="http://www.w3.org/1999/xlink" width="720pt" height="720pt" viewBox="0 0 720 720"
     xmlns="http://www.w3.org/2000/svg" version="1.1">
    <metadata>
        <rdf:RDF xmlns:dc="http://purl.org/dc/elements/1.1/" xmlns:cc="http://creativecommons.org/ns#"
                 xmlns:rdf="http://www.w3.org/1999/02/22-rdf-syntax-ns#">
            <cc:Work>
                <dc:type rdf:resource="http://purl.org/dc/dcmitype/StillImage"/>
                <dc:date>2022-05-29T16:22:34.923692</dc:date>
                <dc:format>image/svg+xml</dc:format>
                <dc:creator>
                    <cc:Agent>
                        <dc:title>Matplotlib v3.5.1, https://matplotlib.org/</dc:title>
                    </cc:Agent>
                </dc:creator>
            </cc:Work>
        </rdf:RDF>
    </metadata>
    <defs>
        <style type="text/css">*{stroke-linejoin: round; stroke-linecap: butt}</style>
    </defs>
    <g id="figure_1">
        <g id="patch_1">
            <path d="M 0 720
L 720 720 
L 720 0 
L 0 0 
z
" style="fill: #ffffff"/>
        </g>
        <g id="axes_1">
            <g id="patch_2">
                <path d="M 590.76 363.6
C 590.76 354.596192 590.211647 345.600735 589.117986 336.663596 
C 588.024325 327.726457 586.387386 318.864213 584.21626 310.126091 
L 519.651382 326.168264 
C 521.17117 332.284949 522.317028 338.48852 523.08259 344.744517 
C 523.848153 351.000515 524.232 357.297335 524.232 363.6 
L 590.76 363.6 
z
" style="fill: #1f77b4; stroke: #ffffff; stroke-linejoin: miter"/>
            </g>
            <g id="patch_3">
                <path d="M 584.21626 310.126091
C 575.050969 273.238574 556.554122 239.319509 530.508126 211.637429 
C 504.462129 183.955349 471.731369 163.428936 435.469869 152.03617 
L 415.528908 215.505319 
C 440.911958 223.480255 463.823491 237.848744 482.055688 257.2262 
C 500.287885 276.603657 513.235678 300.347002 519.651382 326.168264 
L 584.21626 310.126091 
z
" style="fill: #ff7f0e; stroke: #ffffff; stroke-linejoin: miter"/>
            </g>
            <g id="patch_4">
                <path d="M 435.469869 152.03617
C 397.680276 140.163303 357.390849 138.629461 318.807935 147.594782 
C 280.22502 156.560103 244.739758 175.701336 216.056924 203.020072 
C 187.374091 230.338809 166.527871 264.850049 155.694677 302.950708 
C 144.861483 341.051366 144.431914 381.367691 154.450821 419.690528 
C 164.469727 458.013365 184.575868 492.96095 212.670096 520.884643 
C 240.764325 548.808335 275.83368 568.701323 314.216807 578.486713 
C 352.599934 588.272103 392.912896 587.597074 430.94689 576.532103 
C 468.980884 565.467131 503.364561 544.411174 530.508154 515.562541 
L 482.055708 469.973778 
C 463.055193 490.167822 438.986619 504.906992 412.362823 512.652472 
C 385.739027 520.397952 357.519954 520.870472 330.651765 514.020699 
C 303.783576 507.170926 279.235027 493.245835 259.569067 473.69925 
C 239.903107 454.152665 225.828809 429.689355 218.815575 402.86337 
C 211.80234 376.037384 212.103038 347.815956 219.686274 321.145495 
C 227.26951 294.475034 241.861864 270.317166 261.939847 251.19405 
C 282.01783 232.070935 306.857514 218.672072 333.865554 212.396347 
C 360.873595 206.120623 389.076193 207.194312 415.528908 215.505319 
L 435.469869 152.03617 
z
" style="fill: #2ca02c; stroke: #ffffff; stroke-linejoin: miter"/>
            </g>
            <g id="patch_5">
                <path d="M 530.508154 515.562541
C 531.124958 514.906992 531.737764 514.247695 532.34654 513.584685 
C 532.955315 512.921674 533.560048 512.254964 534.160706 511.58459 
L 484.612494 467.189213 
C 484.192034 467.658475 483.768721 468.125172 483.342578 468.589279 
C 482.916435 469.053386 482.48747 469.514895 482.055708 469.973778 
L 530.508154 515.562541 
z
" style="fill: #d62728; stroke: #ffffff; stroke-linejoin: miter"/>
            </g>
            <g id="patch_6">
                <path d="M 534.160706 511.58459
C 535.362031 510.24383 536.546986 508.888492 537.715307 507.518876 
C 538.883627 506.14926 540.035227 504.765469 541.16985 503.367809 
L 489.518895 461.437466 
C 488.724659 462.415828 487.918539 463.384482 487.100715 464.343213 
C 486.28289 465.301944 485.453422 466.250681 484.612494 467.189213 
L 534.160706 511.58459 
z
" style="fill: #9467bd; stroke: #ffffff; stroke-linejoin: miter"/>
            </g>
            <g id="patch_7">
                <path d="M 541.16985 503.367809
C 543.439179 500.572387 545.64009 497.72211 547.770626 494.819514 
C 549.901161 491.916919 551.960689 488.962865 553.947378 485.959981 
L 498.463164 449.251987 
C 497.072483 451.354006 495.630813 453.421843 494.139438 455.45366 
C 492.648063 457.485477 491.107425 459.480671 489.518895 461.437466 
L 541.16985 503.367809 
z
" style="fill: #8c564b; stroke: #ffffff; stroke-linejoin: miter"/>
            </g>
            <g id="patch_8">
                <path d="M 553.947378 485.959981
C 565.888087 467.911573 575.12282 448.212093 581.35752 427.488819 
C 587.592221 406.765544 590.760004 385.240793 590.76 363.599961 
L 524.232 363.599973 
C 524.232003 378.748555 522.014555 393.815881 517.650264 408.322173 
C 513.285974 422.828465 506.821661 436.618101 498.463164 449.251987 
L 553.947378 485.959981 
z
" style="fill: #e377c2; stroke: #ffffff; stroke-linejoin: miter"/>
            </g>
            <g id="patch_9">
                <path d="M 524.232 363.6
C 524.232 362.969926 524.228164 362.339858 524.220492 361.709831 
C 524.21282 361.079804 524.201312 360.449829 524.185969 359.819942 
L 457.677697 361.439967 
C 457.686464 361.799902 457.69304 362.159888 457.697424 362.519903 
C 457.701808 362.879919 457.704 363.239958 457.704 363.6 
L 524.232 363.6 
z
" style="fill: #7f7f7f; stroke: #ffffff; stroke-linejoin: miter"/>
            </g>
            <g id="patch_10">
                <path d="M 524.185969 359.819942
C 524.047848 354.149557 523.599044 348.491002 522.841575 342.869741 
C 522.084106 337.248479 521.019111 331.672956 519.651382 326.168262 
L 455.086504 342.210436 
C 455.868063 345.355975 456.476632 348.541988 456.909471 351.754138 
C 457.342311 354.966287 457.598771 358.199747 457.677697 361.439967 
L 524.185969 359.819942 
z
" style="fill: #bcbd22; stroke: #ffffff; stroke-linejoin: miter"/>
            </g>
            <g id="patch_11">
                <path d="M 519.651382 326.168262
C 518.283653 320.663568 516.615245 315.237973 514.653666 309.915892 
C 512.692087 304.593811 510.440284 299.383239 507.90839 294.307626 
L 448.376223 324.004358 
C 449.823019 326.904708 451.109764 329.882178 452.230666 332.923367 
C 453.351568 335.964556 454.304944 339.064896 455.086504 342.210436 
L 519.651382 326.168262 
z
" style="fill: #17becf; stroke: #ffffff; stroke-linejoin: miter"/>
            </g>
            <g id="patch_12">
                <path d="M 507.90839 294.307626
C 507.627138 293.743808 507.342455 293.181708 507.054359 292.621357 
C 506.766262 292.061005 506.474757 291.502413 506.179859 290.945612 
L 447.388491 322.083207 
C 447.557004 322.401379 447.723579 322.720575 447.888205 323.040775 
C 448.052832 323.360976 448.215507 323.682176 448.376223 324.004358 
L 507.90839 294.307626 
z
" style="fill: #1f77b4; stroke: #ffffff; stroke-linejoin: miter"/>
            </g>
            <g id="patch_13">
                <path d="M 506.179859 290.945612
C 505.884961 290.38881 505.586675 289.833809 505.285019 289.280639 
C 504.983363 288.727469 504.678342 288.176141 504.369972 287.626686 
L 446.35427 320.186678 
C 446.530481 320.500652 446.704779 320.815697 446.877154 321.131794 
C 447.049529 321.447891 447.219978 321.765034 447.388491 322.083207 
L 506.179859 290.945612 
z
" style="fill: #ff7f0e; stroke: #ffffff; stroke-linejoin: miter"/>
            </g>
            <g id="patch_14">
                <path d="M 504.369972 287.626686
C 501.593961 282.680364 498.548933 277.889907 495.248591 273.276873 
C 491.948248 268.66384 488.397549 264.23516 484.612472 260.010763 
L 435.06427 304.40615 
C 437.227171 306.820091 439.256142 309.350766 441.142052 311.986785 
C 443.027962 314.622804 444.767978 317.360208 446.35427 320.186678 
L 504.369972 287.626686 
z
" style="fill: #2ca02c; stroke: #ffffff; stroke-linejoin: miter"/>
            </g>
            <g id="patch_15">
                <path d="M 484.612472 260.010763
C 484.192012 259.541501 483.768699 259.074804 483.342556 258.610697 
C 482.916413 258.14659 482.487448 257.685082 482.055686 257.226198 
L 433.603249 302.81497 
C 433.84997 303.077189 434.095093 303.340908 434.338603 303.606112 
C 434.582113 303.871316 434.824007 304.138001 435.06427 304.40615 
L 484.612472 260.010763 
z
" style="fill: #d62728; stroke: #ffffff; stroke-linejoin: miter"/>
            </g>
            <g id="patch_16">
                <path d="M 482.055686 257.226198
C 478.168863 253.095224 474.058545 249.180385 469.74323 245.499299 
C 465.427914 241.818214 460.914084 238.376411 456.222052 235.189379 
L 418.841172 290.222502 
C 421.522334 292.043663 424.101665 294.010408 426.56756 296.113885 
C 429.033454 298.217363 431.382207 300.454414 433.603249 302.81497 
L 482.055686 257.226198 
z
" style="fill: #9467bd; stroke: #ffffff; stroke-linejoin: miter"/>
            </g>
            <g id="patch_17">
                <path d="M 456.222052 235.189379
C 455.700843 234.835352 455.177485 234.484501 454.652004 234.136847 
C 454.126524 233.789193 453.598932 233.444741 453.069257 233.10351 
L 417.039576 289.030577 
C 417.342247 289.225566 417.643728 289.422396 417.944002 289.621055 
C 418.244277 289.819715 418.543339 290.020201 418.841172 290.222502 
L 456.222052 235.189379 
z
" style="fill: #8c564b; stroke: #ffffff; stroke-linejoin: miter"/>
            </g>
            <g id="patch_18">
                <path d="M 453.069257 233.10351
C 452.539583 232.76228 452.007836 232.424278 451.474046 232.089523 
C 450.940255 231.754767 450.404432 231.423265 449.866605 231.095034 
L 415.209489 287.882877 
C 415.516818 288.070437 415.823003 288.259867 416.128026 288.451156 
C 416.433049 288.642445 416.736905 288.835589 417.039576 289.030577 
L 453.069257 233.10351 
z
" style="fill: #e377c2; stroke: #ffffff; stroke-linejoin: miter"/>
            </g>
            <g id="patch_19">
                <path d="M 449.866605 231.095034
C 449.328778 230.766803 448.788958 230.44185 448.247175 230.120192 
C 447.705391 229.798534 447.161654 229.480178 446.615994 229.165141 
L 413.351997 286.780081 
C 413.663802 286.960102 413.974509 287.14202 414.2841 287.325824 
C 414.59369 287.509628 414.902159 287.695316 415.209489 287.882877 
L 449.866605 231.095034 
z
" style="fill: #7f7f7f; stroke: #ffffff; stroke-linejoin: miter"/>
            </g>
            <g id="patch_20">
                <path d="M 446.615994 229.165141
C 441.70384 226.329108 436.639936 223.764435 431.44707 221.482664 
C 426.254204 219.200892 420.940177 217.20545 415.528903 215.505317 
L 395.587945 278.974467 
C 398.680101 279.945972 401.716688 281.086224 404.68404 282.390094 
C 407.651392 283.693963 410.545052 285.15949 413.351997 286.780081 
L 446.615994 229.165141 
z
" style="fill: #bcbd22; stroke: #ffffff; stroke-linejoin: miter"/>
            </g>
            <g id="patch_21">
                <path d="M 415.528903 215.505317
C 413.725546 214.938732 411.911991 214.405134 410.089144 213.904789 
C 408.266297 213.404445 406.434463 212.937437 404.594559 212.504 
L 389.339748 277.259429 
C 390.391122 277.507107 391.437884 277.773968 392.479511 278.05988 
C 393.521137 278.345791 394.557455 278.650704 395.587945 278.974467 
L 415.528903 215.505317 
z
" style="fill: #17becf; stroke: #ffffff; stroke-linejoin: miter"/>
            </g>
            <g id="patch_22">
                <path d="M 404.594559 212.504
C 403.981273 212.359525 403.367113 212.218785 402.752113 212.081788 
C 402.137113 211.944791 401.521285 211.811539 400.904662 211.682041 
L 387.231235 276.789738 
C 387.583591 276.863737 387.935493 276.93988 388.286922 277.018164 
C 388.63835 277.096448 388.989299 277.176871 389.339748 277.259429 
L 404.594559 212.504 
z
" style="fill: #1f77b4; stroke: #ffffff; stroke-linejoin: miter"/>
            </g>
            <g id="patch_23">
                <path d="M 400.904662 211.682041
C 395.970722 210.645852 390.989231 209.850642 385.977903 209.29924 
C 380.966576 208.747837 375.931359 208.440896 370.890161 208.379508 
L 370.080092 274.902576 
C 372.960777 274.937655 375.838043 275.11305 378.701659 275.428137 
C 381.565275 275.743224 384.411841 276.19763 387.231235 276.789738 
L 400.904662 211.682041 
z
" style="fill: #ff7f0e; stroke: #ffffff; stroke-linejoin: miter"/>
            </g>
            <g id="patch_24">
                <path d="M 370.890161 208.379508
C 365.848963 208.31812 360.807765 208.502358 355.784496 208.931567 
C 350.761228 209.360775 345.761849 210.034445 340.80414 210.950181 
L 352.88808 276.371532 
C 355.721057 275.848254 358.577844 275.4633 361.448284 275.218038 
C 364.318723 274.972776 367.199407 274.867497 370.080092 274.902576 
L 370.890161 208.379508 
z
" style="fill: #2ca02c; stroke: #ffffff; stroke-linejoin: miter"/>
            </g>
            <g id="patch_25">
                <path d="M 340.80414 210.950181
C 339.564943 211.179072 338.328578 211.423045 337.095322 211.682044 
C 335.862065 211.941043 334.632009 212.21505 333.405425 212.504004 
L 348.660243 277.259431 
C 349.361148 277.094314 350.064037 276.937739 350.768755 276.789739 
C 351.473473 276.64174 352.179967 276.502327 352.88808 276.371532 
L 340.80414 210.950181 
z
" style="fill: #d62728; stroke: #ffffff; stroke-linejoin: miter"/>
            </g>
            <g id="patch_26">
                <path d="M 333.405425 212.504004
C 327.884485 213.804604 322.438976 215.406825 317.093405 217.303454 
C 311.747834 219.200084 306.51023 221.388275 301.404163 223.858178 
L 330.373808 283.747531 
C 333.29156 282.336157 336.284476 281.085763 339.339089 280.001974 
C 342.393701 278.918185 345.50542 278.002631 348.660243 277.259431 
L 333.405425 212.504004 
z
" style="fill: #9467bd; stroke: #ffffff; stroke-linejoin: miter"/>
            </g>
            <g id="patch_27">
                <path d="M 301.404163 223.858178
C 300.269752 224.406915 299.142064 224.969446 298.021351 225.545644 
C 296.900638 226.121842 295.786983 226.711666 294.680633 227.314984 
L 326.531791 285.722848 
C 327.16399 285.378095 327.800365 285.041053 328.440772 284.711797 
C 329.081179 284.38254 329.725572 284.061095 330.373808 283.747531 
L 301.404163 223.858178 
z
" style="fill: #8c564b; stroke: #ffffff; stroke-linejoin: miter"/>
            </g>
            <g id="patch_28">
                <path d="M 294.680633 227.314984
C 289.700876 230.030561 284.873697 233.017033 280.22082 236.260961 
C 275.567942 239.504889 271.096355 243.001399 266.826183 246.734758 
L 310.614962 296.819861 
C 313.05506 294.686514 315.610252 292.688508 318.26904 290.834835 
C 320.927827 288.981162 323.686215 287.274606 326.531791 285.722848 
L 294.680633 227.314984 
z
" style="fill: #e377c2; stroke: #ffffff; stroke-linejoin: miter"/>
            </g>
            <g id="patch_29">
                <path d="M 266.826183 246.734758
C 262.55601 250.468116 258.493666 254.432714 254.657433 258.610709 
C 250.821199 262.788705 247.216838 267.173823 243.860571 271.746328 
L 297.491755 311.112188 
C 299.409622 308.499327 301.469257 305.993546 303.66139 303.60612 
C 305.853524 301.218693 308.174863 298.953209 310.614962 296.819861 
L 266.826183 246.734758 
z
" style="fill: #7f7f7f; stroke: #ffffff; stroke-linejoin: miter"/>
            </g>
            <g id="patch_30">
                <path d="M 243.860571 271.746328
C 240.877378 275.810564 238.093951 280.017719 235.520189 284.352831 
C 232.946426 288.687943 230.585382 293.145867 228.445454 297.710749 
L 288.683116 325.949 
C 289.905933 323.340495 291.255101 320.79311 292.725822 318.315903 
C 294.196544 315.838696 295.787073 313.434608 297.491755 311.112188 
L 243.860571 271.746328 
z
" style="fill: #bcbd22; stroke: #ffffff; stroke-linejoin: miter"/>
            </g>
            <g id="patch_31">
                <path d="M 228.445454 297.710749
C 228.178015 298.281249 227.914051 298.853371 227.653579 299.427085 
C 227.393106 300.000798 227.136129 300.576092 226.882662 301.152935 
L 287.790092 327.915963 
C 287.934931 327.586338 288.081775 327.257599 288.230617 326.929763 
C 288.379458 326.601926 288.530294 326.274999 288.683116 325.949 
L 228.445454 297.710749 
z
" style="fill: #17becf; stroke: #ffffff; stroke-linejoin: miter"/>
            </g>
            <g id="patch_32">
                <path d="M 226.882662 301.152935
C 226.629194 301.729777 226.379241 302.308158 226.132816 302.888044 
C 225.886391 303.46793 225.643499 304.049311 225.404154 304.632155 
L 286.945231 329.904089 
C 287.082 329.571035 287.220795 329.238817 287.361609 328.907454 
C 287.502423 328.57609 287.645254 328.245587 287.790092 327.915963 
L 226.882662 301.152935 
z
" style="fill: #1f77b4; stroke: #ffffff; stroke-linejoin: miter"/>
            </g>
            <g id="patch_33">
                <path d="M 225.404154 304.632155
C 223.249511 309.879045 221.384063 315.240087 219.816204 320.691157 
C 218.248346 326.142226 216.980432 331.675134 216.018169 337.264981 
L 281.581811 348.551417 
C 282.131675 345.357219 282.856197 342.195558 283.752117 339.080661 
C 284.648036 335.965764 285.714006 332.902311 286.945231 329.904089 
L 225.404154 304.632155 
z
" style="fill: #ff7f0e; stroke: #ffffff; stroke-linejoin: miter"/>
            </g>
            <g id="patch_34">
                <path d="M 216.018169 337.264981
C 215.055906 342.854828 214.40074 348.493216 214.055618 354.154774 
C 213.710496 359.816331 213.675937 365.492551 213.952097 371.157891 
L 280.401198 367.918795 
C 280.243393 364.681458 280.263141 361.437903 280.460353 358.202728 
C 280.657566 354.967552 281.031946 351.745616 281.581811 348.551417 
L 216.018169 337.264981 
z
" style="fill: #2ca02c; stroke: #ffffff; stroke-linejoin: miter"/>
            </g>
            <g id="patch_35">
                <path d="M 213.952097 371.157891
C 214.228257 376.823231 214.814721 382.469179 215.708849 388.070328 
C 216.602978 393.671478 217.803427 399.219413 219.304796 404.689169 
L 283.459884 387.079525 
C 282.601959 383.95395 281.915987 380.783701 281.405057 377.583045 
C 280.894126 374.382388 280.559004 371.156132 280.401198 367.918795 
L 213.952097 371.157891 
z
" style="fill: #d62728; stroke: #ffffff; stroke-linejoin: miter"/>
            </g>
            <g id="patch_36">
                <path d="M 219.304796 404.689169
C 220.806165 410.158925 222.606198 415.542284 224.696794 420.81502 
C 226.78739 426.087757 229.165409 431.241949 231.820149 436.254403 
L 290.611514 405.116802 
C 289.094519 402.252542 287.735651 399.30729 286.541025 396.294297 
C 285.346399 393.281305 284.317809 390.2051 283.459884 387.079525 
L 219.304796 404.689169 
z
" style="fill: #9467bd; stroke: #ffffff; stroke-linejoin: miter"/>
            </g>
            <g id="patch_37">
                <path d="M 231.820149 436.254403
C 234.474889 441.266857 237.402362 446.130042 240.589394 450.822074 
C 243.776427 455.514106 247.218231 460.027936 250.899317 464.34325 
L 301.513895 421.167572 
C 299.410417 418.701678 297.443672 416.122346 295.622511 413.441185 
C 293.80135 410.760024 292.128508 407.981061 290.611514 405.116802 
L 231.820149 436.254403 
z
" style="fill: #8c564b; stroke: #ffffff; stroke-linejoin: miter"/>
            </g>
            <g id="patch_38">
                <path d="M 250.899317 464.34325
C 254.580404 468.658565 258.495243 472.768882 262.626218 476.655704 
C 266.757192 480.542526 271.098097 484.200015 275.629396 487.61171 
L 315.645369 434.463834 
C 313.056055 432.514294 310.575539 430.424301 308.214982 428.20326 
C 305.854424 425.982218 303.617373 423.633466 301.513895 421.167572 
L 250.899317 464.34325 
z
" style="fill: #e377c2; stroke: #ffffff; stroke-linejoin: miter"/>
            </g>
            <g id="patch_39">
                <path d="M 275.629396 487.61171
C 279.153392 490.264988 282.788883 492.766851 286.525968 495.110486 
C 290.263054 497.454121 294.098339 499.637397 298.02138 501.654371 
L 328.440789 442.488212 
C 326.199051 441.335656 324.007459 440.088069 321.871982 438.748849 
C 319.736504 437.409629 317.659081 435.979993 315.645369 434.463834 
L 275.629396 487.61171 
z
" style="fill: #7f7f7f; stroke: #ffffff; stroke-linejoin: miter"/>
            </g>
            <g id="patch_40">
                <path d="M 298.02138 501.654371
C 303.065788 504.247879 308.248555 506.562961 313.546357 508.589197 
C 318.844159 510.615434 324.249037 512.349781 329.736669 513.784436 
L 346.563811 449.419677 
C 343.428021 448.599875 340.339519 447.608819 337.312204 446.45097 
C 334.284889 445.29312 331.323308 443.970217 328.440789 442.488212 
L 298.02138 501.654371 
z
" style="fill: #bcbd22; stroke: #ffffff; stroke-linejoin: miter"/>
            </g>
            <g id="patch_41">
                <path d="M 329.736669 513.784436
C 335.224301 515.21909 340.786443 516.351895 346.398065 517.177753 
C 352.009686 518.003612 357.662357 518.521283 363.33064 518.728438 
L 365.760366 452.244822 
C 362.521347 452.126448 359.291249 451.830635 356.084608 451.358716 
C 352.877968 450.886797 349.699601 450.23948 346.563811 449.419677 
L 329.736669 513.784436 
z
" style="fill: #17becf; stroke: #ffffff; stroke-linejoin: miter"/>
            </g>
            <g id="patch_42">
                <path d="M 363.33064 518.728438
C 363.960293 518.751449 364.590081 518.770627 365.219968 518.78597 
C 365.849855 518.801313 366.47983 518.81282 367.109857 518.820492 
L 367.919918 452.297424 
C 367.559903 452.29304 367.199917 452.286464 366.839982 452.277697 
C 366.480046 452.26893 366.120168 452.257971 365.760366 452.244822 
L 363.33064 518.728438 
z
" style="fill: #1f77b4; stroke: #ffffff; stroke-linejoin: miter"/>
            </g>
            <g id="patch_43">
                <path d="M 367.109857 518.820492
C 372.781503 518.889557 378.452674 518.647712 384.09785 518.096048 
C 389.743025 517.544383 395.353724 516.683727 400.904698 515.517952 
L 387.231256 450.410258 
C 384.059271 451.076415 380.853157 451.568219 377.627343 451.883456 
C 374.401528 452.198693 371.160859 452.336889 367.919918 452.297424 
L 367.109857 518.820492 
z
" style="fill: #ff7f0e; stroke: #ffffff; stroke-linejoin: miter"/>
            </g>
            <g id="patch_44">
                <path d="M 400.904698 515.517952
C 406.455671 514.352177 411.93858 512.883035 417.328751 511.117137 
C 422.718922 509.351239 428.008257 507.291237 433.172954 504.946403 
L 405.67026 444.369373 
C 402.719004 445.709279 399.696527 446.886422 396.616429 447.895507 
C 393.536332 448.904591 390.403241 449.744101 387.231256 450.410258 
L 400.904698 515.517952 
z
" style="fill: #2ca02c; stroke: #ffffff; stroke-linejoin: miter"/>
            </g>
            <g id="patch_45">
                <path d="M 433.172954 504.946403
C 433.746668 504.685931 434.31879 504.421967 434.889289 504.154528 
C 435.459788 503.887089 436.028654 503.616179 436.595855 503.341813 
L 407.626203 443.452464 
C 407.302088 443.609245 406.977022 443.764051 406.651022 443.916873 
C 406.325023 444.069696 405.998096 444.220532 405.67026 444.369373 
L 433.172954 504.946403 
z
" style="fill: #d62728; stroke: #ffffff; stroke-linejoin: miter"/>
            </g>
            <g id="patch_46">
                <path d="M 436.595855 503.341813
C 441.701921 500.871909 446.668779 498.124001 451.474077 495.110457 
C 456.279375 492.096914 460.915895 488.82226 465.362771 485.301233 
L 424.064441 433.143562 
C 421.523369 435.155577 418.873929 437.026808 416.128044 438.748833 
C 413.382159 440.470858 410.543955 442.041091 407.626203 443.452464 
L 436.595855 503.341813 
z
" style="fill: #9467bd; stroke: #ffffff; stroke-linejoin: miter"/>
            </g>
            <g id="patch_47">
                <path d="M 465.362771 485.301233
C 465.856747 484.910104 466.348336 484.515972 466.837512 484.118858 
C 467.326688 483.721743 467.813442 483.321654 468.297747 482.918613 
L 425.741569 431.782064 
C 425.464824 432.012374 425.186679 432.240996 424.90715 432.467919 
C 424.627621 432.694841 424.346712 432.92006 424.064441 433.143562 
L 465.362771 485.301233 
z
" style="fill: #8c564b; stroke: #ffffff; stroke-linejoin: miter"/>
            </g>
            <g id="patch_48">
                <path d="M 468.297747 482.918613
C 468.782051 482.515571 469.263897 482.109585 469.743258 481.700676 
C 470.222619 481.291768 470.699486 480.879945 471.173832 480.465229 
L 427.385047 430.380131 
C 427.113992 430.617111 426.841497 430.852439 426.567576 431.086101 
C 426.293656 431.319763 426.018315 431.551755 425.741569 431.782064 
L 468.297747 482.918613 
z
" style="fill: #e377c2; stroke: #ffffff; stroke-linejoin: miter"/>
            </g>
            <g id="patch_49">
                <path d="M 471.173832 480.465229
C 471.648179 480.050514 472.119996 479.632915 472.589257 479.212455 
C 473.058519 478.791994 473.525216 478.368681 473.989323 477.942538 
L 428.993899 428.938593 
C 428.728695 429.182103 428.462011 429.423997 428.193861 429.66426 
C 427.925712 429.904523 427.656102 430.143151 427.385047 430.380131 
L 471.173832 480.465229 
z
" style="fill: #7f7f7f; stroke: #ffffff; stroke-linejoin: miter"/>
            </g>
            <g id="patch_50">
                <path d="M 473.989323 477.942538
C 474.45343 477.516395 474.914938 477.08743 475.373821 476.655667 
C 475.832705 476.223905 476.288956 475.789352 476.742548 475.352034 
L 430.56717 427.458305 
C 430.307975 427.708201 430.04726 427.956517 429.785041 428.203239 
C 429.522822 428.44996 429.259103 428.695083 428.993899 428.938593 
L 473.989323 477.942538 
z
" style="fill: #bcbd22; stroke: #ffffff; stroke-linejoin: miter"/>
            </g>
            <g id="patch_51">
                <path d="M 476.742548 475.352034
C 477.19614 474.914716 477.647066 474.47464 478.0953 474.031832 
C 478.543533 473.589023 478.989067 473.143489 479.431876 472.695255 
L 432.103929 425.940146 
C 431.850895 426.196279 431.596305 426.45087 431.340171 426.703904 
C 431.084038 426.956937 430.826366 427.208409 430.56717 427.458305 
L 476.742548 475.352034 
z
" style="fill: #17becf; stroke: #ffffff; stroke-linejoin: miter"/>
            </g>
            <g id="patch_52">
                <path d="M 479.431876 472.695255
C 479.874684 472.247021 480.31476 471.796095 480.752078 471.342503 
C 481.189396 470.88891 481.623948 470.43266 482.05571 469.973776 
L 433.603263 424.385015 
C 433.356542 424.647234 433.108226 424.907949 432.85833 425.167145 
C 432.608434 425.42634 432.356962 425.684012 432.103929 425.940146 
L 479.431876 472.695255 
z
" style="fill: #1f77b4; stroke: #ffffff; stroke-linejoin: miter"/>
            </g>
            <g id="patch_53">
                <path d="M 482.05571 469.973776
C 482.487473 469.514892 482.916437 469.053384 483.34258 468.589276 
C 483.768723 468.125169 484.192036 467.658472 484.612496 467.18921 
L 435.064284 422.793835 
C 434.824021 423.061984 434.582127 423.328668 434.338617 423.593872 
C 434.095107 423.859076 433.849984 424.122795 433.603263 424.385015 
L 482.05571 469.973776 
z
" style="fill: #ff7f0e; stroke: #ffffff; stroke-linejoin: miter"/>
            </g>
            <g id="patch_54">
                <path d="M 484.612496 467.18921
C 485.032956 466.719949 485.450556 466.248132 485.865271 465.773785 
C 486.279986 465.299439 486.691809 464.822571 487.100717 464.34321 
L 436.486124 421.167549 
C 436.252462 421.441469 436.017135 421.713965 435.780155 421.98502 
C 435.543175 422.256075 435.304547 422.525685 435.064284 422.793835 
L 484.612496 467.18921 
z
" style="fill: #2ca02c; stroke: #ffffff; stroke-linejoin: miter"/>
            </g>
            <g id="patch_55">
                <path d="M 487.100717 464.34321
C 487.509626 463.863849 487.915612 463.382003 488.318653 462.897698 
C 488.721694 462.413394 489.121783 461.92664 489.518897 461.437464 
L 437.867941 419.507122 
C 437.641019 419.786651 437.412397 420.064796 437.182087 420.341542 
C 436.951778 420.618287 436.719786 420.893628 436.486124 421.167549 
L 487.100717 464.34321 
z
" style="fill: #d62728; stroke: #ffffff; stroke-linejoin: miter"/>
            </g>
            <g id="patch_56">
                <path d="M 489.518897 461.437464
C 490.313133 460.459102 491.095426 459.471105 491.865602 458.473693 
C 492.635778 457.476281 493.39378 456.469528 494.13944 455.453657 
L 440.508252 416.087804 
C 440.08216 416.668302 439.649016 417.243589 439.208915 417.813539 
C 438.768815 418.383489 438.32179 418.948058 437.867941 419.507122 
L 489.518897 461.437464 
z
" style="fill: #9467bd; stroke: #ffffff; stroke-linejoin: miter"/>
            </g>
            <g id="patch_57">
                <path d="M 494.13944 455.453657
C 494.8851 454.437786 495.618362 453.412873 496.339063 452.379146 
C 497.059764 451.345419 497.767851 450.302954 498.463166 449.251984 
L 442.978952 412.543991 
C 442.581629 413.144545 442.177008 413.740239 441.765179 414.330941 
C 441.35335 414.921642 440.934343 415.507306 440.508252 416.087804 
L 494.13944 455.453657 
z
" style="fill: #8c564b; stroke: #ffffff; stroke-linejoin: miter"/>
            </g>
            <g id="patch_58">
                <path d="M 498.463166 449.251984
C 498.810821 448.726504 499.155273 448.198911 499.496503 447.669237 
C 499.837733 447.139562 500.175735 446.607815 500.51049 446.074025 
L 444.148852 410.728014 
C 443.957563 411.033037 443.764419 411.336893 443.56943 411.639564 
C 443.374442 411.942235 443.177612 412.243716 442.978952 412.543991 
L 498.463166 449.251984 
z
" style="fill: #e377c2; stroke: #ffffff; stroke-linejoin: miter"/>
            </g>
            <g id="patch_59">
                <path d="M 500.51049 446.074025
C 500.845246 445.540235 501.176748 445.004411 501.504979 444.466584 
C 501.833209 443.928757 502.158163 443.388937 502.47982 442.847154 
L 445.274183 408.884088 
C 445.090379 409.193678 444.904691 409.502147 444.717131 409.809477 
C 444.52957 410.116806 444.34014 410.422991 444.148852 410.728014 
L 500.51049 446.074025 
z
" style="fill: #7f7f7f; stroke: #ffffff; stroke-linejoin: miter"/>
            </g>
            <g id="patch_60">
                <path d="M 502.47982 442.847154
C 502.801478 442.30537 503.119834 441.761633 503.434871 441.215973 
C 503.749908 440.670313 504.06162 440.12274 504.369989 439.573284 
L 446.354279 407.013305 
C 446.178068 407.32728 445.999947 407.640179 445.819926 407.951985 
C 445.639905 408.26379 445.457987 408.574497 445.274183 408.884088 
L 502.47982 442.847154 
z
" style="fill: #bcbd22; stroke: #ffffff; stroke-linejoin: miter"/>
            </g>
            <g id="patch_61">
                <path d="M 504.369989 439.573284
C 505.29512 437.924876 506.190064 436.259708 507.054375 434.578613 
C 507.918685 432.897517 508.752217 431.200775 509.554554 429.489234 
L 449.316888 401.250991 
C 448.85841 402.229014 448.382106 403.198581 447.888214 404.159207 
C 447.394322 405.119833 446.882926 406.071358 446.354279 407.013305 
L 504.369989 439.573284 
z
" style="fill: #17becf; stroke: #ffffff; stroke-linejoin: miter"/>
            </g>
            <g id="patch_62">
                <path d="M 509.554554 429.489234
C 511.9621 424.353471 514.086351 419.08961 515.917749 413.721341 
C 517.749147 408.353071 519.284941 402.888457 520.518218 397.352089 
L 455.581839 382.886908 
C 454.877109 386.050547 453.999513 389.173183 452.953 392.240766 
C 451.906486 395.308349 450.692628 398.316269 449.316888 401.250991 
L 509.554554 429.489234 
z
" style="fill: #1f77b4; stroke: #ffffff; stroke-linejoin: miter"/>
            </g>
            <g id="patch_63">
                <path d="M 520.518218 397.352089
C 521.751495 391.815721 522.680404 386.215918 523.300763 380.577878 
C 523.921123 374.939838 524.232001 369.272032 524.232 363.599965 
L 457.704 363.59998 
C 457.704001 366.841161 457.526356 370.079907 457.171865 373.301645 
C 456.817373 376.523382 456.286569 379.723269 455.581839 382.886908 
L 520.518218 397.352089 
z
" style="fill: #ff7f0e; stroke: #ffffff; stroke-linejoin: miter"/>
            </g>
            <g id="matplotlib.axis_1"/>
            <g id="matplotlib.axis_2"/>
            <g id="text_1">
                <!-- Activities -->
                <g transform="translate(611.129785 336.729331)scale(0.1 -0.1)">
                    <defs>
                        <path id="DejaVuSans-41" d="M 2188 4044
L 1331 1722 
L 3047 1722 
L 2188 4044 
z
M 1831 4666 
L 2547 4666 
L 4325 0 
L 3669 0 
L 3244 1197 
L 1141 1197 
L 716 0 
L 50 0 
L 1831 4666 
z
" transform="scale(0.015625)"/>
                        <path id="DejaVuSans-63" d="M 3122 3366
L 3122 2828 
Q 2878 2963 2633 3030 
Q 2388 3097 2138 3097 
Q 1578 3097 1268 2742 
Q 959 2388 959 1747 
Q 959 1106 1268 751 
Q 1578 397 2138 397 
Q 2388 397 2633 464 
Q 2878 531 3122 666 
L 3122 134 
Q 2881 22 2623 -34 
Q 2366 -91 2075 -91 
Q 1284 -91 818 406 
Q 353 903 353 1747 
Q 353 2603 823 3093 
Q 1294 3584 2113 3584 
Q 2378 3584 2631 3529 
Q 2884 3475 3122 3366 
z
" transform="scale(0.015625)"/>
                        <path id="DejaVuSans-74" d="M 1172 4494
L 1172 3500 
L 2356 3500 
L 2356 3053 
L 1172 3053 
L 1172 1153 
Q 1172 725 1289 603 
Q 1406 481 1766 481 
L 2356 481 
L 2356 0 
L 1766 0 
Q 1100 0 847 248 
Q 594 497 594 1153 
L 594 3053 
L 172 3053 
L 172 3500 
L 594 3500 
L 594 4494 
L 1172 4494 
z
" transform="scale(0.015625)"/>
                        <path id="DejaVuSans-69" d="M 603 3500
L 1178 3500 
L 1178 0 
L 603 0 
L 603 3500 
z
M 603 4863 
L 1178 4863 
L 1178 4134 
L 603 4134 
L 603 4863 
z
" transform="scale(0.015625)"/>
                        <path id="DejaVuSans-76" d="M 191 3500
L 800 3500 
L 1894 563 
L 2988 3500 
L 3597 3500 
L 2284 0 
L 1503 0 
L 191 3500 
z
" transform="scale(0.015625)"/>
                        <path id="DejaVuSans-65" d="M 3597 1894
L 3597 1613 
L 953 1613 
Q 991 1019 1311 708 
Q 1631 397 2203 397 
Q 2534 397 2845 478 
Q 3156 559 3463 722 
L 3463 178 
Q 3153 47 2828 -22 
Q 2503 -91 2169 -91 
Q 1331 -91 842 396 
Q 353 884 353 1716 
Q 353 2575 817 3079 
Q 1281 3584 2069 3584 
Q 2775 3584 3186 3129 
Q 3597 2675 3597 1894 
z
M 3022 2063 
Q 3016 2534 2758 2815 
Q 2500 3097 2075 3097 
Q 1594 3097 1305 2825 
Q 1016 2553 972 2059 
L 3022 2063 
z
" transform="scale(0.015625)"/>
                        <path id="DejaVuSans-73" d="M 2834 3397
L 2834 2853 
Q 2591 2978 2328 3040 
Q 2066 3103 1784 3103 
Q 1356 3103 1142 2972 
Q 928 2841 928 2578 
Q 928 2378 1081 2264 
Q 1234 2150 1697 2047 
L 1894 2003 
Q 2506 1872 2764 1633 
Q 3022 1394 3022 966 
Q 3022 478 2636 193 
Q 2250 -91 1575 -91 
Q 1294 -91 989 -36 
Q 684 19 347 128 
L 347 722 
Q 666 556 975 473 
Q 1284 391 1588 391 
Q 1994 391 2212 530 
Q 2431 669 2431 922 
Q 2431 1156 2273 1281 
Q 2116 1406 1581 1522 
L 1381 1569 
Q 847 1681 609 1914 
Q 372 2147 372 2553 
Q 372 3047 722 3315 
Q 1072 3584 1716 3584 
Q 2034 3584 2315 3537 
Q 2597 3491 2834 3397 
z
" transform="scale(0.015625)"/>
                    </defs>
                    <use xlink:href="#DejaVuSans-41"/>
                    <use xlink:href="#DejaVuSans-63" x="66.658203"/>
                    <use xlink:href="#DejaVuSans-74" x="121.638672"/>
                    <use xlink:href="#DejaVuSans-69" x="160.847656"/>
                    <use xlink:href="#DejaVuSans-76" x="188.630859"/>
                    <use xlink:href="#DejaVuSans-69" x="247.810547"/>
                    <use xlink:href="#DejaVuSans-74" x="275.59375"/>
                    <use xlink:href="#DejaVuSans-69" x="314.802734"/>
                    <use xlink:href="#DejaVuSans-65" x="342.585938"/>
                    <use xlink:href="#DejaVuSans-73" x="404.109375"/>
                </g>
            </g>
            <g id="text_2">
                <!-- Dermatological -->
                <g transform="translate(546.658938 199.200547)scale(0.1 -0.1)">
                    <defs>
                        <path id="DejaVuSans-44" d="M 1259 4147
L 1259 519 
L 2022 519 
Q 2988 519 3436 956 
Q 3884 1394 3884 2338 
Q 3884 3275 3436 3711 
Q 2988 4147 2022 4147 
L 1259 4147 
z
M 628 4666 
L 1925 4666 
Q 3281 4666 3915 4102 
Q 4550 3538 4550 2338 
Q 4550 1131 3912 565 
Q 3275 0 1925 0 
L 628 0 
L 628 4666 
z
" transform="scale(0.015625)"/>
                        <path id="DejaVuSans-72" d="M 2631 2963
Q 2534 3019 2420 3045 
Q 2306 3072 2169 3072 
Q 1681 3072 1420 2755 
Q 1159 2438 1159 1844 
L 1159 0 
L 581 0 
L 581 3500 
L 1159 3500 
L 1159 2956 
Q 1341 3275 1631 3429 
Q 1922 3584 2338 3584 
Q 2397 3584 2469 3576 
Q 2541 3569 2628 3553 
L 2631 2963 
z
" transform="scale(0.015625)"/>
                        <path id="DejaVuSans-6d" d="M 3328 2828
Q 3544 3216 3844 3400 
Q 4144 3584 4550 3584 
Q 5097 3584 5394 3201 
Q 5691 2819 5691 2113 
L 5691 0 
L 5113 0 
L 5113 2094 
Q 5113 2597 4934 2840 
Q 4756 3084 4391 3084 
Q 3944 3084 3684 2787 
Q 3425 2491 3425 1978 
L 3425 0 
L 2847 0 
L 2847 2094 
Q 2847 2600 2669 2842 
Q 2491 3084 2119 3084 
Q 1678 3084 1418 2786 
Q 1159 2488 1159 1978 
L 1159 0 
L 581 0 
L 581 3500 
L 1159 3500 
L 1159 2956 
Q 1356 3278 1631 3431 
Q 1906 3584 2284 3584 
Q 2666 3584 2933 3390 
Q 3200 3197 3328 2828 
z
" transform="scale(0.015625)"/>
                        <path id="DejaVuSans-61" d="M 2194 1759
Q 1497 1759 1228 1600 
Q 959 1441 959 1056 
Q 959 750 1161 570 
Q 1363 391 1709 391 
Q 2188 391 2477 730 
Q 2766 1069 2766 1631 
L 2766 1759 
L 2194 1759 
z
M 3341 1997 
L 3341 0 
L 2766 0 
L 2766 531 
Q 2569 213 2275 61 
Q 1981 -91 1556 -91 
Q 1019 -91 701 211 
Q 384 513 384 1019 
Q 384 1609 779 1909 
Q 1175 2209 1959 2209 
L 2766 2209 
L 2766 2266 
Q 2766 2663 2505 2880 
Q 2244 3097 1772 3097 
Q 1472 3097 1187 3025 
Q 903 2953 641 2809 
L 641 3341 
Q 956 3463 1253 3523 
Q 1550 3584 1831 3584 
Q 2591 3584 2966 3190 
Q 3341 2797 3341 1997 
z
" transform="scale(0.015625)"/>
                        <path id="DejaVuSans-6f" d="M 1959 3097
Q 1497 3097 1228 2736 
Q 959 2375 959 1747 
Q 959 1119 1226 758 
Q 1494 397 1959 397 
Q 2419 397 2687 759 
Q 2956 1122 2956 1747 
Q 2956 2369 2687 2733 
Q 2419 3097 1959 3097 
z
M 1959 3584 
Q 2709 3584 3137 3096 
Q 3566 2609 3566 1747 
Q 3566 888 3137 398 
Q 2709 -91 1959 -91 
Q 1206 -91 779 398 
Q 353 888 353 1747 
Q 353 2609 779 3096 
Q 1206 3584 1959 3584 
z
" transform="scale(0.015625)"/>
                        <path id="DejaVuSans-6c" d="M 603 4863
L 1178 4863 
L 1178 0 
L 603 0 
L 603 4863 
z
" transform="scale(0.015625)"/>
                        <path id="DejaVuSans-67" d="M 2906 1791
Q 2906 2416 2648 2759 
Q 2391 3103 1925 3103 
Q 1463 3103 1205 2759 
Q 947 2416 947 1791 
Q 947 1169 1205 825 
Q 1463 481 1925 481 
Q 2391 481 2648 825 
Q 2906 1169 2906 1791 
z
M 3481 434 
Q 3481 -459 3084 -895 
Q 2688 -1331 1869 -1331 
Q 1566 -1331 1297 -1286 
Q 1028 -1241 775 -1147 
L 775 -588 
Q 1028 -725 1275 -790 
Q 1522 -856 1778 -856 
Q 2344 -856 2625 -561 
Q 2906 -266 2906 331 
L 2906 616 
Q 2728 306 2450 153 
Q 2172 0 1784 0 
Q 1141 0 747 490 
Q 353 981 353 1791 
Q 353 2603 747 3093 
Q 1141 3584 1784 3584 
Q 2172 3584 2450 3431 
Q 2728 3278 2906 2969 
L 2906 3500 
L 3481 3500 
L 3481 434 
z
" transform="scale(0.015625)"/>
                    </defs>
                    <use xlink:href="#DejaVuSans-44"/>
                    <use xlink:href="#DejaVuSans-65" x="77.001953"/>
                    <use xlink:href="#DejaVuSans-72" x="138.525391"/>
                    <use xlink:href="#DejaVuSans-6d" x="177.888672"/>
                    <use xlink:href="#DejaVuSans-61" x="275.300781"/>
                    <use xlink:href="#DejaVuSans-74" x="336.580078"/>
                    <use xlink:href="#DejaVuSans-6f" x="375.789062"/>
                    <use xlink:href="#DejaVuSans-6c" x="436.970703"/>
                    <use xlink:href="#DejaVuSans-6f" x="464.753906"/>
                    <use xlink:href="#DejaVuSans-67" x="525.935547"/>
                    <use xlink:href="#DejaVuSans-69" x="589.412109"/>
                    <use xlink:href="#DejaVuSans-63" x="617.195312"/>
                    <use xlink:href="#DejaVuSans-61" x="672.175781"/>
                    <use xlink:href="#DejaVuSans-6c" x="733.455078"/>
                </g>
            </g>
            <g id="text_3">
                <!-- Metabolic -->
                <g transform="translate(84.64434 428.058956)scale(0.1 -0.1)">
                    <defs>
                        <path id="DejaVuSans-4d" d="M 628 4666
L 1569 4666 
L 2759 1491 
L 3956 4666 
L 4897 4666 
L 4897 0 
L 4281 0 
L 4281 4097 
L 3078 897 
L 2444 897 
L 1241 4097 
L 1241 0 
L 628 0 
L 628 4666 
z
" transform="scale(0.015625)"/>
                        <path id="DejaVuSans-62" d="M 3116 1747
Q 3116 2381 2855 2742 
Q 2594 3103 2138 3103 
Q 1681 3103 1420 2742 
Q 1159 2381 1159 1747 
Q 1159 1113 1420 752 
Q 1681 391 2138 391 
Q 2594 391 2855 752 
Q 3116 1113 3116 1747 
z
M 1159 2969 
Q 1341 3281 1617 3432 
Q 1894 3584 2278 3584 
Q 2916 3584 3314 3078 
Q 3713 2572 3713 1747 
Q 3713 922 3314 415 
Q 2916 -91 2278 -91 
Q 1894 -91 1617 61 
Q 1341 213 1159 525 
L 1159 0 
L 581 0 
L 581 4863 
L 1159 4863 
L 1159 2969 
z
" transform="scale(0.015625)"/>
                    </defs>
                    <use xlink:href="#DejaVuSans-4d"/>
                    <use xlink:href="#DejaVuSans-65" x="86.279297"/>
                    <use xlink:href="#DejaVuSans-74" x="147.802734"/>
                    <use xlink:href="#DejaVuSans-61" x="187.011719"/>
                    <use xlink:href="#DejaVuSans-62" x="248.291016"/>
                    <use xlink:href="#DejaVuSans-6f" x="311.767578"/>
                    <use xlink:href="#DejaVuSans-6c" x="372.949219"/>
                    <use xlink:href="#DejaVuSans-69" x="400.732422"/>
                    <use xlink:href="#DejaVuSans-63" x="428.515625"/>
                </g>
            </g>
            <g id="text_4">
                <!-- Neurological -->
                <g transform="translate(548.681194 531.342528)scale(0.1 -0.1)">
                    <defs>
                        <path id="DejaVuSans-4e" d="M 628 4666
L 1478 4666 
L 3547 763 
L 3547 4666 
L 4159 4666 
L 4159 0 
L 3309 0 
L 1241 3903 
L 1241 0 
L 628 0 
L 628 4666 
z
" transform="scale(0.015625)"/>
                        <path id="DejaVuSans-75" d="M 544 1381
L 544 3500 
L 1119 3500 
L 1119 1403 
Q 1119 906 1312 657 
Q 1506 409 1894 409 
Q 2359 409 2629 706 
Q 2900 1003 2900 1516 
L 2900 3500 
L 3475 3500 
L 3475 0 
L 2900 0 
L 2900 538 
Q 2691 219 2414 64 
Q 2138 -91 1772 -91 
Q 1169 -91 856 284 
Q 544 659 544 1381 
z
M 1991 3584 
L 1991 3584 
z
" transform="scale(0.015625)"/>
                    </defs>
                    <use xlink:href="#DejaVuSans-4e"/>
                    <use xlink:href="#DejaVuSans-65" x="74.804688"/>
                    <use xlink:href="#DejaVuSans-75" x="136.328125"/>
                    <use xlink:href="#DejaVuSans-72" x="199.707031"/>
                    <use xlink:href="#DejaVuSans-6f" x="238.570312"/>
                    <use xlink:href="#DejaVuSans-6c" x="299.751953"/>
                    <use xlink:href="#DejaVuSans-6f" x="327.535156"/>
                    <use xlink:href="#DejaVuSans-67" x="388.716797"/>
                    <use xlink:href="#DejaVuSans-69" x="452.193359"/>
                    <use xlink:href="#DejaVuSans-63" x="479.976562"/>
                    <use xlink:href="#DejaVuSans-61" x="534.957031"/>
                    <use xlink:href="#DejaVuSans-6c" x="596.236328"/>
                </g>
            </g>
            <g id="text_5">
                <!-- Nutritional -->
                <g transform="translate(554.586838 524.670139)scale(0.1 -0.1)">
                    <defs>
                        <path id="DejaVuSans-6e" d="M 3513 2113
L 3513 0 
L 2938 0 
L 2938 2094 
Q 2938 2591 2744 2837 
Q 2550 3084 2163 3084 
Q 1697 3084 1428 2787 
Q 1159 2491 1159 1978 
L 1159 0 
L 581 0 
L 581 3500 
L 1159 3500 
L 1159 2956 
Q 1366 3272 1645 3428 
Q 1925 3584 2291 3584 
Q 2894 3584 3203 3211 
Q 3513 2838 3513 2113 
z
" transform="scale(0.015625)"/>
                    </defs>
                    <use xlink:href="#DejaVuSans-4e"/>
                    <use xlink:href="#DejaVuSans-75" x="74.804688"/>
                    <use xlink:href="#DejaVuSans-74" x="138.183594"/>
                    <use xlink:href="#DejaVuSans-72" x="177.392578"/>
                    <use xlink:href="#DejaVuSans-69" x="218.505859"/>
                    <use xlink:href="#DejaVuSans-74" x="246.289062"/>
                    <use xlink:href="#DejaVuSans-69" x="285.498047"/>
                    <use xlink:href="#DejaVuSans-6f" x="313.28125"/>
                    <use xlink:href="#DejaVuSans-6e" x="374.462891"/>
                    <use xlink:href="#DejaVuSans-61" x="437.841797"/>
                    <use xlink:href="#DejaVuSans-6c" x="499.121094"/>
                </g>
            </g>
            <g id="text_6">
                <!-- Respiratory -->
                <g transform="translate(565.647688 510.700841)scale(0.1 -0.1)">
                    <defs>
                        <path id="DejaVuSans-52" d="M 2841 2188
Q 3044 2119 3236 1894 
Q 3428 1669 3622 1275 
L 4263 0 
L 3584 0 
L 2988 1197 
Q 2756 1666 2539 1819 
Q 2322 1972 1947 1972 
L 1259 1972 
L 1259 0 
L 628 0 
L 628 4666 
L 2053 4666 
Q 2853 4666 3247 4331 
Q 3641 3997 3641 3322 
Q 3641 2881 3436 2590 
Q 3231 2300 2841 2188 
z
M 1259 4147 
L 1259 2491 
L 2053 2491 
Q 2509 2491 2742 2702 
Q 2975 2913 2975 3322 
Q 2975 3731 2742 3939 
Q 2509 4147 2053 4147 
L 1259 4147 
z
" transform="scale(0.015625)"/>
                        <path id="DejaVuSans-70" d="M 1159 525
L 1159 -1331 
L 581 -1331 
L 581 3500 
L 1159 3500 
L 1159 2969 
Q 1341 3281 1617 3432 
Q 1894 3584 2278 3584 
Q 2916 3584 3314 3078 
Q 3713 2572 3713 1747 
Q 3713 922 3314 415 
Q 2916 -91 2278 -91 
Q 1894 -91 1617 61 
Q 1341 213 1159 525 
z
M 3116 1747 
Q 3116 2381 2855 2742 
Q 2594 3103 2138 3103 
Q 1681 3103 1420 2742 
Q 1159 2381 1159 1747 
Q 1159 1113 1420 752 
Q 1681 391 2138 391 
Q 2594 391 2855 752 
Q 3116 1113 3116 1747 
z
" transform="scale(0.015625)"/>
                        <path id="DejaVuSans-79" d="M 2059 -325
Q 1816 -950 1584 -1140 
Q 1353 -1331 966 -1331 
L 506 -1331 
L 506 -850 
L 844 -850 
Q 1081 -850 1212 -737 
Q 1344 -625 1503 -206 
L 1606 56 
L 191 3500 
L 800 3500 
L 1894 763 
L 2988 3500 
L 3597 3500 
L 2059 -325 
z
" transform="scale(0.015625)"/>
                    </defs>
                    <use xlink:href="#DejaVuSans-52"/>
                    <use xlink:href="#DejaVuSans-65" x="64.982422"/>
                    <use xlink:href="#DejaVuSans-73" x="126.505859"/>
                    <use xlink:href="#DejaVuSans-70" x="178.605469"/>
                    <use xlink:href="#DejaVuSans-69" x="242.082031"/>
                    <use xlink:href="#DejaVuSans-72" x="269.865234"/>
                    <use xlink:href="#DejaVuSans-61" x="310.978516"/>
                    <use xlink:href="#DejaVuSans-74" x="372.257812"/>
                    <use xlink:href="#DejaVuSans-6f" x="411.466797"/>
                    <use xlink:href="#DejaVuSans-72" x="472.648438"/>
                    <use xlink:href="#DejaVuSans-79" x="513.761719"/>
                </g>
            </g>
            <g id="text_7">
                <!-- Skeletal -->
                <g transform="translate(602.593272 436.637076)scale(0.1 -0.1)">
                    <defs>
                        <path id="DejaVuSans-53" d="M 3425 4513
L 3425 3897 
Q 3066 4069 2747 4153 
Q 2428 4238 2131 4238 
Q 1616 4238 1336 4038 
Q 1056 3838 1056 3469 
Q 1056 3159 1242 3001 
Q 1428 2844 1947 2747 
L 2328 2669 
Q 3034 2534 3370 2195 
Q 3706 1856 3706 1288 
Q 3706 609 3251 259 
Q 2797 -91 1919 -91 
Q 1588 -91 1214 -16 
Q 841 59 441 206 
L 441 856 
Q 825 641 1194 531 
Q 1563 422 1919 422 
Q 2459 422 2753 634 
Q 3047 847 3047 1241 
Q 3047 1584 2836 1778 
Q 2625 1972 2144 2069 
L 1759 2144 
Q 1053 2284 737 2584 
Q 422 2884 422 3419 
Q 422 4038 858 4394 
Q 1294 4750 2059 4750 
Q 2388 4750 2728 4690 
Q 3069 4631 3425 4513 
z
" transform="scale(0.015625)"/>
                        <path id="DejaVuSans-6b" d="M 581 4863
L 1159 4863 
L 1159 1991 
L 2875 3500 
L 3609 3500 
L 1753 1863 
L 3688 0 
L 2938 0 
L 1159 1709 
L 1159 0 
L 581 0 
L 581 4863 
z
" transform="scale(0.015625)"/>
                    </defs>
                    <use xlink:href="#DejaVuSans-53"/>
                    <use xlink:href="#DejaVuSans-6b" x="63.476562"/>
                    <use xlink:href="#DejaVuSans-65" x="117.761719"/>
                    <use xlink:href="#DejaVuSans-6c" x="179.285156"/>
                    <use xlink:href="#DejaVuSans-65" x="207.068359"/>
                    <use xlink:href="#DejaVuSans-74" x="268.591797"/>
                    <use xlink:href="#DejaVuSans-61" x="307.800781"/>
                    <use xlink:href="#DejaVuSans-6c" x="369.080078"/>
                </g>
            </g>
            <g id="text_8">
                <!-- Cluster14 -->
                <g transform="translate(340.069687 80.4)scale(0.12 -0.12)">
                    <defs>
                        <path id="DejaVuSans-43" d="M 4122 4306
L 4122 3641 
Q 3803 3938 3442 4084 
Q 3081 4231 2675 4231 
Q 1875 4231 1450 3742 
Q 1025 3253 1025 2328 
Q 1025 1406 1450 917 
Q 1875 428 2675 428 
Q 3081 428 3442 575 
Q 3803 722 4122 1019 
L 4122 359 
Q 3791 134 3420 21 
Q 3050 -91 2638 -91 
Q 1578 -91 968 557 
Q 359 1206 359 2328 
Q 359 3453 968 4101 
Q 1578 4750 2638 4750 
Q 3056 4750 3426 4639 
Q 3797 4528 4122 4306 
z
" transform="scale(0.015625)"/>
                        <path id="DejaVuSans-31" d="M 794 531
L 1825 531 
L 1825 4091 
L 703 3866 
L 703 4441 
L 1819 4666 
L 2450 4666 
L 2450 531 
L 3481 531 
L 3481 0 
L 794 0 
L 794 531 
z
" transform="scale(0.015625)"/>
                        <path id="DejaVuSans-34" d="M 2419 4116
L 825 1625 
L 2419 1625 
L 2419 4116 
z
M 2253 4666 
L 3047 4666 
L 3047 1625 
L 3713 1625 
L 3713 1100 
L 3047 1100 
L 3047 0 
L 2419 0 
L 2419 1100 
L 313 1100 
L 313 1709 
L 2253 4666 
z
" transform="scale(0.015625)"/>
                    </defs>
                    <use xlink:href="#DejaVuSans-43"/>
                    <use xlink:href="#DejaVuSans-6c" x="69.824219"/>
                    <use xlink:href="#DejaVuSans-75" x="97.607422"/>
                    <use xlink:href="#DejaVuSans-73" x="160.986328"/>
                    <use xlink:href="#DejaVuSans-74" x="213.085938"/>
                    <use xlink:href="#DejaVuSans-65" x="252.294922"/>
                    <use xlink:href="#DejaVuSans-72" x="313.818359"/>
                    <use xlink:href="#DejaVuSans-31" x="354.931641"/>
                    <use xlink:href="#DejaVuSans-34" x="418.554688"/>
                </g>
            </g>
        </g>
    </g>
</svg>
