<?xml version="1.0" encoding="utf-8" standalone="no"?>
<!DOCTYPE svg PUBLIC "-//W3C//DTD SVG 1.1//EN"
        "http://www.w3.org/Graphics/SVG/1.1/DTD/svg11.dtd">
<svg xmlns:xlink="http://www.w3.org/1999/xlink" width="720pt" height="720pt" viewBox="0 0 720 720"
     xmlns="http://www.w3.org/2000/svg" version="1.1">
    <metadata>
        <rdf:RDF xmlns:dc="http://purl.org/dc/elements/1.1/" xmlns:cc="http://creativecommons.org/ns#"
                 xmlns:rdf="http://www.w3.org/1999/02/22-rdf-syntax-ns#">
            <cc:Work>
                <dc:type rdf:resource="http://purl.org/dc/dcmitype/StillImage"/>
                <dc:date>2022-05-29T16:22:32.748850</dc:date>
                <dc:format>image/svg+xml</dc:format>
                <dc:creator>
                    <cc:Agent>
                        <dc:title>Matplotlib v3.5.1, https://matplotlib.org/</dc:title>
                    </cc:Agent>
                </dc:creator>
            </cc:Work>
        </rdf:RDF>
    </metadata>
    <defs>
        <style type="text/css">*{stroke-linejoin: round; stroke-linecap: butt}</style>
    </defs>
    <g id="figure_1">
        <g id="patch_1">
            <path d="M 0 720
L 720 720 
L 720 0 
L 0 0 
z
" style="fill: #ffffff"/>
        </g>
        <g id="axes_1">
            <g id="patch_2">
                <path d="M 590.76 363.6
C 590.76 324.675886 580.511849 286.429268 561.049792 252.719997 
C 541.587734 219.010726 513.589266 191.012259 479.879994 171.550203 
C 446.170722 152.088147 407.924103 141.839998 368.99999 141.84 
C 330.075876 141.840002 291.829258 152.088154 258.119988 171.550213 
C 224.410718 191.012272 196.412252 219.010742 176.950198 252.720015 
C 157.488144 286.429288 147.239996 324.675907 147.24 363.600021 
C 147.240004 402.524134 157.488158 440.770752 176.950219 474.480021 
C 196.412279 508.18929 224.41075 536.187755 258.120024 555.649807 
L 291.384017 498.034865 
C 267.787525 484.411428 248.188595 464.812503 234.565153 441.216015 
C 220.941711 417.619526 213.768003 390.846894 213.768 363.600015 
C 213.767997 336.353135 220.941701 309.580501 234.565138 285.98401 
C 248.188576 262.38752 267.787503 242.788591 291.383992 229.165149 
C 314.980481 215.541708 341.753113 208.368001 368.999993 208.368 
C 396.246872 208.367999 423.019506 215.541703 446.615996 229.165142 
C 470.212486 242.788581 489.811414 262.387508 503.434854 285.983998 
C 517.058294 309.580488 524.232 336.35312 524.232 363.6 
L 590.76 363.6 
z
" style="fill: #1f77b4; stroke: #ffffff; stroke-linejoin: miter"/>
            </g>
            <g id="patch_3">
                <path d="M 258.120024 555.649807
C 291.829298 575.11186 330.075918 585.360005 369.000031 585.36 
C 407.924145 585.359995 446.170762 575.111838 479.88003 555.649776 
C 513.589298 536.187714 541.587762 508.189242 561.049813 474.479967 
C 580.511864 440.770692 590.760007 402.524072 590.76 363.599958 
L 524.232 363.599971 
C 524.232005 390.84685 517.058305 417.619485 503.434869 441.215977 
C 489.811433 464.812469 470.212509 484.4114 446.616021 498.034843 
C 423.019533 511.658287 396.246901 518.831996 369.000022 518.832 
C 341.753142 518.832004 314.980508 511.658302 291.384017 498.034865 
L 258.120024 555.649807 
z
" style="fill: #ff7f0e; stroke: #ffffff; stroke-linejoin: miter"/>
            </g>
            <g id="patch_4">
                <path d="M 524.232 363.6
C 524.232 336.35312 517.058294 309.580488 503.434854 285.983998 
C 489.811414 262.387508 470.212486 242.788581 446.615996 229.165142 
C 423.019506 215.541703 396.246872 208.367999 368.999993 208.368 
C 341.753113 208.368001 314.980481 215.541708 291.383992 229.165149 
L 324.647995 286.780085 
C 338.131703 278.995262 353.43035 274.896001 368.999996 274.896 
C 384.569641 274.895999 399.868289 278.995259 413.351998 286.780081 
C 426.835706 294.564904 438.035094 305.76429 445.819917 319.247999 
C 453.60474 332.731707 457.704 348.030355 457.704 363.6 
L 524.232 363.6 
z
" style="fill: #2ca02c; stroke: #ffffff; stroke-linejoin: miter"/>
            </g>
            <g id="patch_5">
                <path d="M 291.383992 229.165149
C 267.787503 242.788591 248.188576 262.38752 234.565138 285.98401 
C 220.941701 309.580501 213.767997 336.353135 213.768 363.600015 
C 213.768003 390.846894 220.941711 417.619526 234.565153 441.216015 
C 248.188595 464.812503 267.787525 484.411428 291.384017 498.034865 
L 324.64801 440.419923 
C 311.1643 432.635102 299.964912 421.435716 292.180087 407.952008 
C 284.395263 394.468301 280.296001 379.169654 280.296 363.600008 
C 280.295999 348.030363 284.395257 332.731715 292.180079 319.248006 
C 299.964901 305.764297 311.164287 294.564909 324.647995 286.780085 
L 291.383992 229.165149 
z
" style="fill: #d62728; stroke: #ffffff; stroke-linejoin: miter"/>
            </g>
            <g id="patch_6">
                <path d="M 291.384017 498.034865
C 314.980508 511.658302 341.753142 518.832004 369.000022 518.832 
C 396.246901 518.831996 423.019533 511.658287 446.616021 498.034843 
C 470.212509 484.4114 489.811433 464.812469 503.434869 441.215977 
C 517.058305 417.619485 524.232005 390.84685 524.232 363.599971 
L 457.704 363.599983 
C 457.704003 379.169629 453.604745 394.468277 445.819925 407.951987 
C 438.035105 421.435697 426.835719 432.635086 413.352012 440.41991 
C 399.868305 448.204735 384.569658 452.303998 369.000012 452.304 
C 353.430367 452.304002 338.131719 448.204744 324.64801 440.419923 
L 291.384017 498.034865 
z
" style="fill: #9467bd; stroke: #ffffff; stroke-linejoin: miter"/>
            </g>
            <g id="matplotlib.axis_1"/>
            <g id="matplotlib.axis_2"/>
            <g id="text_1">
                <!-- Metabolic -->
                <g transform="translate(198.680424 155.10461)scale(0.1 -0.1)">
                    <defs>
                        <path id="DejaVuSans-4d" d="M 628 4666
L 1569 4666 
L 2759 1491 
L 3956 4666 
L 4897 4666 
L 4897 0 
L 4281 0 
L 4281 4097 
L 3078 897 
L 2444 897 
L 1241 4097 
L 1241 0 
L 628 0 
L 628 4666 
z
" transform="scale(0.015625)"/>
                        <path id="DejaVuSans-65" d="M 3597 1894
L 3597 1613 
L 953 1613 
Q 991 1019 1311 708 
Q 1631 397 2203 397 
Q 2534 397 2845 478 
Q 3156 559 3463 722 
L 3463 178 
Q 3153 47 2828 -22 
Q 2503 -91 2169 -91 
Q 1331 -91 842 396 
Q 353 884 353 1716 
Q 353 2575 817 3079 
Q 1281 3584 2069 3584 
Q 2775 3584 3186 3129 
Q 3597 2675 3597 1894 
z
M 3022 2063 
Q 3016 2534 2758 2815 
Q 2500 3097 2075 3097 
Q 1594 3097 1305 2825 
Q 1016 2553 972 2059 
L 3022 2063 
z
" transform="scale(0.015625)"/>
                        <path id="DejaVuSans-74" d="M 1172 4494
L 1172 3500 
L 2356 3500 
L 2356 3053 
L 1172 3053 
L 1172 1153 
Q 1172 725 1289 603 
Q 1406 481 1766 481 
L 2356 481 
L 2356 0 
L 1766 0 
Q 1100 0 847 248 
Q 594 497 594 1153 
L 594 3053 
L 172 3053 
L 172 3500 
L 594 3500 
L 594 4494 
L 1172 4494 
z
" transform="scale(0.015625)"/>
                        <path id="DejaVuSans-61" d="M 2194 1759
Q 1497 1759 1228 1600 
Q 959 1441 959 1056 
Q 959 750 1161 570 
Q 1363 391 1709 391 
Q 2188 391 2477 730 
Q 2766 1069 2766 1631 
L 2766 1759 
L 2194 1759 
z
M 3341 1997 
L 3341 0 
L 2766 0 
L 2766 531 
Q 2569 213 2275 61 
Q 1981 -91 1556 -91 
Q 1019 -91 701 211 
Q 384 513 384 1019 
Q 384 1609 779 1909 
Q 1175 2209 1959 2209 
L 2766 2209 
L 2766 2266 
Q 2766 2663 2505 2880 
Q 2244 3097 1772 3097 
Q 1472 3097 1187 3025 
Q 903 2953 641 2809 
L 641 3341 
Q 956 3463 1253 3523 
Q 1550 3584 1831 3584 
Q 2591 3584 2966 3190 
Q 3341 2797 3341 1997 
z
" transform="scale(0.015625)"/>
                        <path id="DejaVuSans-62" d="M 3116 1747
Q 3116 2381 2855 2742 
Q 2594 3103 2138 3103 
Q 1681 3103 1420 2742 
Q 1159 2381 1159 1747 
Q 1159 1113 1420 752 
Q 1681 391 2138 391 
Q 2594 391 2855 752 
Q 3116 1113 3116 1747 
z
M 1159 2969 
Q 1341 3281 1617 3432 
Q 1894 3584 2278 3584 
Q 2916 3584 3314 3078 
Q 3713 2572 3713 1747 
Q 3713 922 3314 415 
Q 2916 -91 2278 -91 
Q 1894 -91 1617 61 
Q 1341 213 1159 525 
L 1159 0 
L 581 0 
L 581 4863 
L 1159 4863 
L 1159 2969 
z
" transform="scale(0.015625)"/>
                        <path id="DejaVuSans-6f" d="M 1959 3097
Q 1497 3097 1228 2736 
Q 959 2375 959 1747 
Q 959 1119 1226 758 
Q 1494 397 1959 397 
Q 2419 397 2687 759 
Q 2956 1122 2956 1747 
Q 2956 2369 2687 2733 
Q 2419 3097 1959 3097 
z
M 1959 3584 
Q 2709 3584 3137 3096 
Q 3566 2609 3566 1747 
Q 3566 888 3137 398 
Q 2709 -91 1959 -91 
Q 1206 -91 779 398 
Q 353 888 353 1747 
Q 353 2609 779 3096 
Q 1206 3584 1959 3584 
z
" transform="scale(0.015625)"/>
                        <path id="DejaVuSans-6c" d="M 603 4863
L 1178 4863 
L 1178 0 
L 603 0 
L 603 4863 
z
" transform="scale(0.015625)"/>
                        <path id="DejaVuSans-69" d="M 603 3500
L 1178 3500 
L 1178 0 
L 603 0 
L 603 3500 
z
M 603 4863 
L 1178 4863 
L 1178 4134 
L 603 4134 
L 603 4863 
z
" transform="scale(0.015625)"/>
                        <path id="DejaVuSans-63" d="M 3122 3366
L 3122 2828 
Q 2878 2963 2633 3030 
Q 2388 3097 2138 3097 
Q 1578 3097 1268 2742 
Q 959 2388 959 1747 
Q 959 1106 1268 751 
Q 1578 397 2138 397 
Q 2388 397 2633 464 
Q 2878 531 3122 666 
L 3122 134 
Q 2881 22 2623 -34 
Q 2366 -91 2075 -91 
Q 1284 -91 818 406 
Q 353 903 353 1747 
Q 353 2603 823 3093 
Q 1294 3584 2113 3584 
Q 2378 3584 2631 3529 
Q 2884 3475 3122 3366 
z
" transform="scale(0.015625)"/>
                    </defs>
                    <use xlink:href="#DejaVuSans-4d"/>
                    <use xlink:href="#DejaVuSans-65" x="86.279297"/>
                    <use xlink:href="#DejaVuSans-74" x="147.802734"/>
                    <use xlink:href="#DejaVuSans-61" x="187.011719"/>
                    <use xlink:href="#DejaVuSans-62" x="248.291016"/>
                    <use xlink:href="#DejaVuSans-6f" x="311.767578"/>
                    <use xlink:href="#DejaVuSans-6c" x="372.949219"/>
                    <use xlink:href="#DejaVuSans-69" x="400.732422"/>
                    <use xlink:href="#DejaVuSans-63" x="428.515625"/>
                </g>
            </g>
            <g id="text_2">
                <!-- Skeletal -->
                <g transform="translate(490.968033 577.614129)scale(0.1 -0.1)">
                    <defs>
                        <path id="DejaVuSans-53" d="M 3425 4513
L 3425 3897 
Q 3066 4069 2747 4153 
Q 2428 4238 2131 4238 
Q 1616 4238 1336 4038 
Q 1056 3838 1056 3469 
Q 1056 3159 1242 3001 
Q 1428 2844 1947 2747 
L 2328 2669 
Q 3034 2534 3370 2195 
Q 3706 1856 3706 1288 
Q 3706 609 3251 259 
Q 2797 -91 1919 -91 
Q 1588 -91 1214 -16 
Q 841 59 441 206 
L 441 856 
Q 825 641 1194 531 
Q 1563 422 1919 422 
Q 2459 422 2753 634 
Q 3047 847 3047 1241 
Q 3047 1584 2836 1778 
Q 2625 1972 2144 2069 
L 1759 2144 
Q 1053 2284 737 2584 
Q 422 2884 422 3419 
Q 422 4038 858 4394 
Q 1294 4750 2059 4750 
Q 2388 4750 2728 4690 
Q 3069 4631 3425 4513 
z
" transform="scale(0.015625)"/>
                        <path id="DejaVuSans-6b" d="M 581 4863
L 1159 4863 
L 1159 1991 
L 2875 3500 
L 3609 3500 
L 1753 1863 
L 3688 0 
L 2938 0 
L 1159 1709 
L 1159 0 
L 581 0 
L 581 4863 
z
" transform="scale(0.015625)"/>
                    </defs>
                    <use xlink:href="#DejaVuSans-53"/>
                    <use xlink:href="#DejaVuSans-6b" x="63.476562"/>
                    <use xlink:href="#DejaVuSans-65" x="117.761719"/>
                    <use xlink:href="#DejaVuSans-6c" x="179.285156"/>
                    <use xlink:href="#DejaVuSans-65" x="207.068359"/>
                    <use xlink:href="#DejaVuSans-74" x="268.591797"/>
                    <use xlink:href="#DejaVuSans-61" x="307.800781"/>
                    <use xlink:href="#DejaVuSans-6c" x="369.080078"/>
                </g>
            </g>
            <g id="text_3">
                <!-- Cluster11 -->
                <g transform="translate(340.069687 80.4)scale(0.12 -0.12)">
                    <defs>
                        <path id="DejaVuSans-43" d="M 4122 4306
L 4122 3641 
Q 3803 3938 3442 4084 
Q 3081 4231 2675 4231 
Q 1875 4231 1450 3742 
Q 1025 3253 1025 2328 
Q 1025 1406 1450 917 
Q 1875 428 2675 428 
Q 3081 428 3442 575 
Q 3803 722 4122 1019 
L 4122 359 
Q 3791 134 3420 21 
Q 3050 -91 2638 -91 
Q 1578 -91 968 557 
Q 359 1206 359 2328 
Q 359 3453 968 4101 
Q 1578 4750 2638 4750 
Q 3056 4750 3426 4639 
Q 3797 4528 4122 4306 
z
" transform="scale(0.015625)"/>
                        <path id="DejaVuSans-75" d="M 544 1381
L 544 3500 
L 1119 3500 
L 1119 1403 
Q 1119 906 1312 657 
Q 1506 409 1894 409 
Q 2359 409 2629 706 
Q 2900 1003 2900 1516 
L 2900 3500 
L 3475 3500 
L 3475 0 
L 2900 0 
L 2900 538 
Q 2691 219 2414 64 
Q 2138 -91 1772 -91 
Q 1169 -91 856 284 
Q 544 659 544 1381 
z
M 1991 3584 
L 1991 3584 
z
" transform="scale(0.015625)"/>
                        <path id="DejaVuSans-73" d="M 2834 3397
L 2834 2853 
Q 2591 2978 2328 3040 
Q 2066 3103 1784 3103 
Q 1356 3103 1142 2972 
Q 928 2841 928 2578 
Q 928 2378 1081 2264 
Q 1234 2150 1697 2047 
L 1894 2003 
Q 2506 1872 2764 1633 
Q 3022 1394 3022 966 
Q 3022 478 2636 193 
Q 2250 -91 1575 -91 
Q 1294 -91 989 -36 
Q 684 19 347 128 
L 347 722 
Q 666 556 975 473 
Q 1284 391 1588 391 
Q 1994 391 2212 530 
Q 2431 669 2431 922 
Q 2431 1156 2273 1281 
Q 2116 1406 1581 1522 
L 1381 1569 
Q 847 1681 609 1914 
Q 372 2147 372 2553 
Q 372 3047 722 3315 
Q 1072 3584 1716 3584 
Q 2034 3584 2315 3537 
Q 2597 3491 2834 3397 
z
" transform="scale(0.015625)"/>
                        <path id="DejaVuSans-72" d="M 2631 2963
Q 2534 3019 2420 3045 
Q 2306 3072 2169 3072 
Q 1681 3072 1420 2755 
Q 1159 2438 1159 1844 
L 1159 0 
L 581 0 
L 581 3500 
L 1159 3500 
L 1159 2956 
Q 1341 3275 1631 3429 
Q 1922 3584 2338 3584 
Q 2397 3584 2469 3576 
Q 2541 3569 2628 3553 
L 2631 2963 
z
" transform="scale(0.015625)"/>
                        <path id="DejaVuSans-31" d="M 794 531
L 1825 531 
L 1825 4091 
L 703 3866 
L 703 4441 
L 1819 4666 
L 2450 4666 
L 2450 531 
L 3481 531 
L 3481 0 
L 794 0 
L 794 531 
z
" transform="scale(0.015625)"/>
                    </defs>
                    <use xlink:href="#DejaVuSans-43"/>
                    <use xlink:href="#DejaVuSans-6c" x="69.824219"/>
                    <use xlink:href="#DejaVuSans-75" x="97.607422"/>
                    <use xlink:href="#DejaVuSans-73" x="160.986328"/>
                    <use xlink:href="#DejaVuSans-74" x="213.085938"/>
                    <use xlink:href="#DejaVuSans-65" x="252.294922"/>
                    <use xlink:href="#DejaVuSans-72" x="313.818359"/>
                    <use xlink:href="#DejaVuSans-31" x="354.931641"/>
                    <use xlink:href="#DejaVuSans-31" x="418.554688"/>
                </g>
            </g>
        </g>
    </g>
</svg>
