<?xml version="1.0" encoding="utf-8" standalone="no"?>
<!DOCTYPE svg PUBLIC "-//W3C//DTD SVG 1.1//EN"
        "http://www.w3.org/Graphics/SVG/1.1/DTD/svg11.dtd">
<svg xmlns:xlink="http://www.w3.org/1999/xlink" width="720pt" height="720pt" viewBox="0 0 720 720"
     xmlns="http://www.w3.org/2000/svg" version="1.1">
    <metadata>
        <rdf:RDF xmlns:dc="http://purl.org/dc/elements/1.1/" xmlns:cc="http://creativecommons.org/ns#"
                 xmlns:rdf="http://www.w3.org/1999/02/22-rdf-syntax-ns#">
            <cc:Work>
                <dc:type rdf:resource="http://purl.org/dc/dcmitype/StillImage"/>
                <dc:date>2022-06-10T17:50:36.806178</dc:date>
                <dc:format>image/svg+xml</dc:format>
                <dc:creator>
                    <cc:Agent>
                        <dc:title>Matplotlib v3.5.1, https://matplotlib.org/</dc:title>
                    </cc:Agent>
                </dc:creator>
            </cc:Work>
        </rdf:RDF>
    </metadata>
    <defs>
        <style type="text/css">*{stroke-linejoin: round; stroke-linecap: butt}</style>
    </defs>
    <g id="figure_1">
        <g id="patch_1">
            <path d="M 0 720
L 720 720 
L 720 0 
L 0 0 
z
" style="fill: #ffffff"/>
        </g>
        <g id="axes_1">
            <g id="patch_2">
                <path d="M 590.76 363.6
C 590.76 359.119403 590.624206 354.639834 590.352806 350.167464 
C 590.081405 345.695094 589.674522 341.231976 589.132718 336.784258 
L 523.092903 344.82898 
C 523.472166 347.942383 523.756984 351.066566 523.946964 354.197225 
C 524.136944 357.327884 524.232 360.463582 524.232 363.6 
L 590.76 363.6 
z
" style="fill: #1f77b4; stroke: #ffffff; stroke-linejoin: miter"/>
            </g>
            <g id="patch_3">
                <path d="M 589.132718 336.784258
C 588.952129 335.301786 588.756569 333.821176 588.546068 332.342654 
C 588.335567 330.864133 588.110136 329.387776 587.869809 327.913809 
L 522.208866 338.619666 
C 522.377095 339.651443 522.534897 340.684893 522.682248 341.719858 
C 522.829598 342.754823 522.96649 343.79125 523.092903 344.82898 
L 589.132718 336.784258 
z
" style="fill: #ff7f0e; stroke: #ffffff; stroke-linejoin: miter"/>
            </g>
            <g id="patch_4">
                <path d="M 587.869809 327.913809
C 587.749647 327.17683 587.625762 326.440463 587.498161 325.704736 
C 587.37056 324.969008 587.239244 324.23393 587.104218 323.499529 
L 521.672952 335.52967 
C 521.767471 336.043751 521.859392 336.558306 521.948713 337.073315 
C 522.038034 337.588324 522.124753 338.103781 522.208866 338.619666 
L 587.869809 327.913809 
z
" style="fill: #2ca02c; stroke: #ffffff; stroke-linejoin: miter"/>
            </g>
            <g id="patch_5">
                <path d="M 587.104218 323.499529
C 586.834163 322.030718 586.549278 320.564672 586.249606 319.101616 
C 585.949934 317.63856 585.635491 316.178569 585.306324 314.721866 
L 520.414426 329.385306 
C 520.644843 330.404998 520.864954 331.426992 521.074724 332.451131 
C 521.284495 333.475271 521.483914 334.501503 521.672952 335.52967 
L 587.104218 323.499529 
z
" style="fill: #d62728; stroke: #ffffff; stroke-linejoin: miter"/>
            </g>
            <g id="patch_6">
                <path d="M 585.306324 314.721866
C 585.141741 313.993519 584.973481 313.266008 584.801549 312.53936 
C 584.629618 311.812713 584.454017 311.086938 584.274754 310.362065 
L 519.692328 326.333445 
C 519.817812 326.840857 519.940732 327.348899 520.061084 327.857552 
C 520.181437 328.366205 520.299219 328.875463 520.414426 329.385306 
L 585.306324 314.721866 
z
" style="fill: #9467bd; stroke: #ffffff; stroke-linejoin: miter"/>
            </g>
            <g id="patch_7">
                <path d="M 584.274754 310.362065
C 583.55768 307.462478 582.782096 304.577675 581.948477 301.709422 
C 581.114858 298.841168 580.223375 295.99005 579.274572 293.157812 
L 516.192201 314.290468 
C 516.856362 316.273035 517.480401 318.268818 518.063934 320.276595 
C 518.647467 322.284373 519.190376 324.303735 519.692328 326.333445 
L 584.274754 310.362065 
z
" style="fill: #8c564b; stroke: #ffffff; stroke-linejoin: miter"/>
            </g>
            <g id="patch_8">
                <path d="M 579.274572 293.157812
C 576.664783 285.367419 573.624074 277.728076 570.166511 270.275125 
C 566.708949 262.822174 562.839874 255.567125 558.577185 248.543543 
L 501.70403 283.06048 
C 504.687912 287.976987 507.396264 293.055522 509.816558 298.272587 
C 512.236852 303.489653 514.365348 308.837193 516.192201 314.290468 
L 579.274572 293.157812 
z
" style="fill: #e377c2; stroke: #ffffff; stroke-linejoin: miter"/>
            </g>
            <g id="patch_9">
                <path d="M 558.577185 248.543543
C 541.264859 220.018224 517.735492 195.764779 489.747836 177.596081 
C 461.760179 159.427384 430.029384 147.807687 396.927234 143.605529 
C 363.825084 139.403371 330.197417 142.726127 298.557802 153.325431 
C 266.918187 163.924735 238.075091 181.529749 214.184451 204.82455 
L 260.629116 252.457185 
C 277.352564 236.150824 297.542731 223.827314 319.690462 216.407802 
C 341.838192 208.988289 365.377559 206.66236 388.549064 209.60387 
C 411.720569 212.545381 433.932126 220.679169 453.523485 233.397257 
C 473.114844 246.115345 489.585401 263.092757 501.70403 283.06048 
L 558.577185 248.543543 
z
" style="fill: #7f7f7f; stroke: #ffffff; stroke-linejoin: miter"/>
            </g>
            <g id="patch_10">
                <path d="M 214.184451 204.82455
C 187.040233 231.291785 167.131373 264.282941 156.366832 300.634663 
C 145.602291 336.986385 144.337481 375.498452 152.693677 412.478137 
C 161.049873 449.457821 178.75118 483.684167 204.100309 511.875385 
C 229.449439 540.066602 261.60944 561.291902 297.496653 573.5161 
L 318.947657 510.54127 
C 293.826608 501.984332 271.314607 487.126621 253.570217 467.392769 
C 235.825826 447.658917 223.434911 423.700475 217.585574 397.814696 
C 211.736237 371.928917 212.621604 344.97047 220.156783 319.524264 
C 227.691961 294.078058 241.628163 270.984249 260.629116 252.457185 
L 214.184451 204.82455 
z
" style="fill: #bcbd22; stroke: #ffffff; stroke-linejoin: miter"/>
            </g>
            <g id="patch_11">
                <path d="M 297.496653 573.5161
C 301.737947 574.960804 306.022053 576.276636 310.343069 577.461783 
C 314.664085 578.646929 319.020027 579.700846 323.404896 580.622082 
L 337.083428 515.515457 
C 334.014019 514.870592 330.96486 514.13285 327.940148 513.303248 
C 324.915437 512.473645 321.916563 511.552563 318.947657 510.54127 
L 297.496653 573.5161 
z
" style="fill: #17becf; stroke: #ffffff; stroke-linejoin: miter"/>
            </g>
            <g id="patch_12">
                <path d="M 323.404896 580.622082
C 328.520718 581.696887 333.672945 582.590465 338.85192 583.30114 
C 344.030895 584.011815 349.23338 584.539144 354.449624 584.882137 
L 358.814736 518.497496 
C 355.163366 518.257401 351.521627 517.888271 347.896344 517.390798 
C 344.271062 516.893325 340.664503 516.267821 337.083428 515.515457 
L 323.404896 580.622082 
z
" style="fill: #1f77b4; stroke: #ffffff; stroke-linejoin: miter"/>
            </g>
            <g id="patch_13">
                <path d="M 354.449624 584.882137
C 379.845119 586.552014 405.339583 583.837717 429.814228 576.858358 
C 454.288873 569.878999 477.380373 558.738187 498.075393 543.924819 
L 459.352775 489.827374 
C 444.866261 500.196731 428.702211 507.995299 411.56996 512.880851 
C 394.437708 517.766402 376.591584 519.66641 358.814736 518.497496 
L 354.449624 584.882137 
z
" style="fill: #ff7f0e; stroke: #ffffff; stroke-linejoin: miter"/>
            </g>
            <g id="patch_14">
                <path d="M 498.075393 543.924819
C 498.682583 543.490197 499.287574 543.05251 499.890343 542.611775 
C 500.493112 542.171041 501.093651 541.727265 501.691937 541.280465 
L 461.884356 487.976325 
C 461.465555 488.289086 461.045178 488.599729 460.62324 488.908243 
C 460.201302 489.216757 459.777808 489.523138 459.352775 489.827374 
L 498.075393 543.924819 
z
" style="fill: #2ca02c; stroke: #ffffff; stroke-linejoin: miter"/>
            </g>
            <g id="patch_15">
                <path d="M 501.691937 541.280465
C 507.676055 536.811519 513.43059 532.043116 518.933536 526.993489 
C 524.436482 521.943862 529.680817 516.619456 534.646485 511.040631 
L 484.952539 466.808442 
C 481.476572 470.713619 477.805538 474.440703 473.953475 477.975442 
C 470.101413 481.510181 466.073239 484.848064 461.884356 487.976325 
L 501.691937 541.280465 
z
" style="fill: #d62728; stroke: #ffffff; stroke-linejoin: miter"/>
            </g>
            <g id="patch_16">
                <path d="M 534.646485 511.040631
C 552.568188 490.90597 566.669523 467.671366 576.257401 442.478814 
C 585.845279 417.286263 590.759999 390.555382 590.76 363.60001 
L 524.232 363.600007 
C 524.231999 382.468767 520.791695 401.180384 514.080181 418.81517 
C 507.368666 436.449956 497.497732 452.714179 484.952539 466.808442 
L 534.646485 511.040631 
z
" style="fill: #9467bd; stroke: #ffffff; stroke-linejoin: miter"/>
            </g>
            <g id="patch_17">
                <path d="M 524.232 363.6
C 524.232 363.077303 524.22936 362.554608 524.22408 362.031938 
C 524.2188 361.509267 524.21088 360.986626 524.200321 360.464035 
L 457.685898 361.80802 
C 457.691932 362.106643 457.696457 362.405295 457.699474 362.703964 
C 457.702491 363.002633 457.704 363.301316 457.704 363.6 
L 524.232 363.6 
z
" style="fill: #8c564b; stroke: #ffffff; stroke-linejoin: miter"/>
            </g>
            <g id="patch_18">
                <path d="M 524.200321 360.464035
C 524.189761 359.941444 524.176562 359.41891 524.160725 358.896453 
C 524.144887 358.373995 524.12641 357.851621 524.105296 357.32935 
L 457.631598 360.016772 
C 457.643663 360.315212 457.654221 360.613712 457.663271 360.912259 
C 457.672321 361.210806 457.679864 361.509397 457.685898 361.80802 
L 524.200321 360.464035 
z
" style="fill: #e377c2; stroke: #ffffff; stroke-linejoin: miter"/>
            </g>
            <g id="patch_19">
                <path d="M 524.105296 357.32935
C 524.041951 355.762511 523.954868 354.196722 523.844077 352.632521 
C 523.733286 351.068321 523.5988 349.505889 523.440664 347.945764 
L 457.251808 354.654722 
C 457.342171 355.546222 457.419021 356.439041 457.48233 357.332869 
C 457.545639 358.226698 457.595401 359.121435 457.631598 360.016772 
L 524.105296 357.32935 
z
" style="fill: #7f7f7f; stroke: #ffffff; stroke-linejoin: miter"/>
            </g>
            <g id="patch_20">
                <path d="M 523.440664 347.945764
C 523.387953 347.425731 523.332616 346.905968 523.274655 346.386494 
C 523.216693 345.86702 523.156108 345.347842 523.092903 344.82898 
L 457.053087 352.873703 
C 457.089205 353.170196 457.123825 353.466869 457.156945 353.763711 
C 457.190066 354.060553 457.221687 354.357561 457.251808 354.654722 
L 523.440664 347.945764 
z
" style="fill: #bcbd22; stroke: #ffffff; stroke-linejoin: miter"/>
            </g>
            <g id="patch_21">
                <path d="M 523.092903 344.82898
C 523.029697 344.310118 522.963871 343.791579 522.895427 343.273382 
C 522.826983 342.755185 522.755922 342.237337 522.682248 341.719858 
L 456.818427 351.097062 
C 456.860527 351.392764 456.901133 351.688677 456.940244 351.98479 
C 456.979355 352.280902 457.01697 352.577211 457.053087 352.873703 
L 523.092903 344.82898 
z
" style="fill: #17becf; stroke: #ffffff; stroke-linejoin: miter"/>
            </g>
            <g id="patch_22">
                <path d="M 522.682248 341.719858
C 522.608573 341.202379 522.532285 340.685275 522.453386 340.168567 
C 522.374488 339.651858 522.29298 339.135552 522.208866 338.619666 
L 456.547924 349.325524 
C 456.595989 349.620315 456.642565 349.915348 456.687649 350.21061 
C 456.732734 350.505872 456.776327 350.801359 456.818427 351.097062 
L 522.682248 341.719858 
z
" style="fill: #1f77b4; stroke: #ffffff; stroke-linejoin: miter"/>
            </g>
            <g id="patch_23">
                <path d="M 522.208866 338.619666
C 522.124753 338.103781 522.038034 337.588324 521.948713 337.073315 
C 521.859392 336.558306 521.767471 336.043751 521.672952 335.52967 
L 456.241687 347.559812 
C 456.295698 347.853572 456.348224 348.147603 456.399265 348.441894 
C 456.450305 348.736185 456.499859 349.030732 456.547924 349.325524 
L 522.208866 338.619666 
z
" style="fill: #ff7f0e; stroke: #ffffff; stroke-linejoin: miter"/>
            </g>
            <g id="patch_24">
                <path d="M 521.672952 335.52967
C 521.483914 334.501503 521.284495 333.475271 521.074724 332.451131 
C 520.864954 331.426992 520.644843 330.404998 520.414426 329.385306 
L 455.522529 344.048746 
C 455.654196 344.631428 455.779974 345.215424 455.899843 345.800647 
C 456.019711 346.385869 456.133665 346.972287 456.241687 347.559812 
L 521.672952 335.52967 
z
" style="fill: #2ca02c; stroke: #ffffff; stroke-linejoin: miter"/>
            </g>
            <g id="patch_25">
                <path d="M 520.414426 329.385306
C 520.299219 328.875463 520.181437 328.366205 520.061084 327.857552 
C 519.940732 327.348899 519.817812 326.840857 519.692328 326.333445 
L 455.109902 342.304826 
C 455.181607 342.594775 455.251847 342.885085 455.32062 343.175744 
C 455.389392 343.466403 455.456696 343.757407 455.522529 344.048746 
L 520.414426 329.385306 
z
" style="fill: #d62728; stroke: #ffffff; stroke-linejoin: miter"/>
            </g>
            <g id="patch_26">
                <path d="M 519.692328 326.333445
C 519.190376 324.303735 518.647467 322.284373 518.063934 320.276595 
C 517.480401 318.268818 516.856362 316.273035 516.192201 314.290468 
L 453.109829 335.423125 
C 453.48935 336.55602 453.845943 337.696467 454.179391 338.843769 
C 454.512838 339.99107 454.823072 341.144991 455.109902 342.304826 
L 519.692328 326.333445 
z
" style="fill: #9467bd; stroke: #ffffff; stroke-linejoin: miter"/>
            </g>
            <g id="patch_27">
                <path d="M 516.192201 314.290468
C 515.860128 313.29921 515.518051 312.311332 515.166021 311.326985 
C 514.813991 310.342638 514.452027 309.361872 514.080183 308.384837 
L 451.902962 332.048478 
C 452.115444 332.606784 452.322281 333.167222 452.523441 333.729706 
C 452.724601 334.29219 452.920073 334.856692 453.109829 335.423125 
L 516.192201 314.290468 
z
" style="fill: #8c564b; stroke: #ffffff; stroke-linejoin: miter"/>
            </g>
            <g id="patch_28">
                <path d="M 514.080183 308.384837
C 513.894263 307.896323 513.705876 307.408751 513.51503 306.922139 
C 513.324184 306.435528 513.130882 305.949884 512.93513 305.465225 
L 451.248646 330.380129 
C 451.360504 330.657076 451.470962 330.934587 451.580017 331.212651 
C 451.689072 331.490715 451.796722 331.769327 451.902962 332.048478 
L 514.080183 308.384837 
z
" style="fill: #e377c2; stroke: #ffffff; stroke-linejoin: miter"/>
            </g>
            <g id="patch_29">
                <path d="M 512.93513 305.465225
C 512.739379 304.980566 512.541181 304.4969 512.340543 304.014243 
C 512.139906 303.531587 511.936832 303.049946 511.73133 302.569341 
L 450.56076 328.725338 
C 450.67819 328.999969 450.794232 329.275192 450.908882 329.550996 
C 451.023532 329.8268 451.136788 330.103181 451.248646 330.380129 
L 512.93513 305.465225 
z
" style="fill: #7f7f7f; stroke: #ffffff; stroke-linejoin: miter"/>
            </g>
            <g id="patch_30">
                <path d="M 511.73133 302.569341
C 511.114812 301.127501 510.476481 299.695086 509.816558 298.272588 
C 509.156635 296.850091 508.475196 295.437675 507.772474 294.035826 
L 448.298557 323.849043 
C 448.700112 324.6501 449.089506 325.457195 449.466605 326.27005 
C 449.843704 327.082906 450.208464 327.901429 450.56076 328.725338 
L 511.73133 302.569341 
z
" style="fill: #bcbd22; stroke: #ffffff; stroke-linejoin: miter"/>
            </g>
            <g id="patch_31">
                <path d="M 507.772474 294.035826
C 506.835498 292.166667 505.860853 290.316629 504.849136 288.486844 
C 503.837419 286.65706 502.788837 284.847903 501.704031 283.060481 
L 444.830875 317.577418 
C 445.450764 318.598802 446.049954 319.632606 446.628078 320.678197 
C 447.206202 321.723788 447.763141 322.780952 448.298557 323.849043 
L 507.772474 294.035826 
z
" style="fill: #17becf; stroke: #ffffff; stroke-linejoin: miter"/>
            </g>
            <g id="patch_32">
                <path d="M 501.704031 283.060481
C 501.432838 282.61364 501.15939 282.168172 500.883697 281.724092 
C 500.608005 281.280013 500.330071 280.83733 500.049906 280.396058 
L 443.885661 316.05489 
C 444.045755 316.307046 444.204574 316.560008 444.362113 316.813767 
C 444.519651 317.067527 444.675907 317.32208 444.830875 317.577418 
L 501.704031 283.060481 
z
" style="fill: #1f77b4; stroke: #ffffff; stroke-linejoin: miter"/>
            </g>
            <g id="patch_33">
                <path d="M 500.049906 280.396058
C 499.769742 279.954787 499.48735 279.514933 499.202743 279.076514 
C 498.918135 278.638095 498.631315 278.201117 498.342293 277.765595 
L 442.909882 314.551769 
C 443.075037 314.800638 443.238934 315.05034 443.401567 315.300865 
C 443.5642 315.55139 443.725567 315.802735 443.885661 316.05489 
L 500.049906 280.396058 
z
" style="fill: #ff7f0e; stroke: #ffffff; stroke-linejoin: miter"/>
            </g>
            <g id="patch_34">
                <path d="M 498.342293 277.765595
C 498.053271 277.330074 497.762052 276.896015 497.468645 276.463435 
C 497.175239 276.030855 496.879649 275.59976 496.581888 275.170166 
L 441.903936 313.068666 
C 442.074085 313.314148 442.242994 313.560488 442.410654 313.807677 
C 442.578315 314.054865 442.744726 314.302899 442.909882 314.551769 
L 498.342293 277.765595 
z
" style="fill: #2ca02c; stroke: #ffffff; stroke-linejoin: miter"/>
            </g>
            <g id="patch_35">
                <path d="M 496.581888 275.170166
C 496.284127 274.740572 495.984198 274.312484 495.682113 273.88592 
C 495.380027 273.459356 495.075789 273.03432 494.769411 272.610829 
L 440.868235 311.606188 
C 441.043308 311.848183 441.217159 312.091061 441.389779 312.334812 
C 441.562399 312.578563 441.733787 312.823184 441.903936 313.068666 
L 496.581888 275.170166 
z
" style="fill: #d62728; stroke: #ffffff; stroke-linejoin: miter"/>
            </g>
            <g id="patch_36">
                <path d="M 494.769411 272.610829
C 494.463032 272.187338 494.154516 271.765397 493.843875 271.345023 
C 493.533233 270.924648 493.220471 270.505846 492.905599 270.08863 
L 439.8032 310.164932 
C 439.983126 310.40334 440.161848 310.642656 440.339357 310.88287 
C 440.516866 311.123084 440.693161 311.364193 440.868235 311.606188 
L 494.769411 272.610829 
z
" style="fill: #9467bd; stroke: #ffffff; stroke-linejoin: miter"/>
            </g>
            <g id="patch_37">
                <path d="M 492.905599 270.08863
C 491.960968 268.836964 490.997426 267.599682 490.015303 266.377213 
C 489.03318 265.154743 488.032589 263.947225 487.013876 262.755076 
L 436.436501 305.974329 
C 437.018623 306.655557 437.590388 307.345568 438.151601 308.044122 
C 438.712815 308.742676 439.263411 309.449693 439.8032 310.164932 
L 492.905599 270.08863 
z
" style="fill: #8c564b; stroke: #ffffff; stroke-linejoin: miter"/>
            </g>
            <g id="patch_38">
                <path d="M 487.013876 262.755076
C 485.995164 261.562926 484.958445 260.38628 483.904077 259.225545 
C 482.84971 258.06481 481.777815 256.920117 480.688761 255.791862 
L 432.822149 301.99535 
C 433.444465 302.640067 434.056977 303.294177 434.659473 303.957454 
C 435.261968 304.620732 435.854379 305.2931 436.436501 305.974329 
L 487.013876 262.755076 
z
" style="fill: #e377c2; stroke: #ffffff; stroke-linejoin: miter"/>
            </g>
            <g id="patch_39">
                <path d="M 480.688761 255.791862
C 480.325749 255.415784 479.96084 255.041541 479.594048 254.669149 
C 479.227256 254.296756 478.858585 253.926219 478.48805 253.55755 
L 431.5646 300.7186 
C 431.776334 300.929268 431.987003 301.141004 432.196599 301.353799 
C 432.406194 301.566595 432.614714 301.780448 432.822149 301.99535 
L 480.688761 255.791862 
z
" style="fill: #7f7f7f; stroke: #ffffff; stroke-linejoin: miter"/>
            </g>
            <g id="patch_40">
                <path d="M 478.48805 253.55755
C 478.117515 253.188882 477.74512 252.822087 477.37088 252.457181 
C 476.996639 252.092274 476.620558 251.72926 476.242651 251.368152 
L 430.281515 299.467516 
C 430.497462 299.673863 430.712365 299.8813 430.926217 300.089818 
C 431.140069 300.298336 431.352866 300.507933 431.5646 300.7186 
L 478.48805 253.55755 
z
" style="fill: #bcbd22; stroke: #ffffff; stroke-linejoin: miter"/>
            </g>
            <g id="patch_41">
                <path d="M 476.242651 251.368152
C 475.864744 251.007045 475.485015 250.647848 475.103479 250.290576 
C 474.721944 249.933305 474.338606 249.577962 473.953481 249.224563 
L 428.973418 298.242607 
C 429.193489 298.44455 429.412539 298.647603 429.63056 298.851758 
C 429.84858 299.055913 430.065568 299.261168 430.281515 299.467516 
L 476.242651 251.368152 
z
" style="fill: #17becf; stroke: #ffffff; stroke-linejoin: miter"/>
            </g>
            <g id="patch_42">
                <path d="M 473.953481 249.224563
C 473.568356 248.871163 473.181448 248.519711 472.792773 248.17022 
C 472.404097 247.820728 472.013659 247.473203 471.621473 247.127655 
L 427.640842 297.044374 
C 427.864948 297.24183 428.088056 297.440416 428.310156 297.640126 
C 428.532256 297.839835 428.753346 298.040665 428.973418 298.242607 
L 473.953481 249.224563 
z
" style="fill: #1f77b4; stroke: #ffffff; stroke-linejoin: miter"/>
            </g>
            <g id="patch_43">
                <path d="M 471.621473 247.127655
C 471.229287 246.782108 470.835359 246.438544 470.439702 246.096976 
C 470.044046 245.755408 469.646667 245.415841 469.24758 245.078287 
L 426.284332 295.873307 
C 426.512381 296.066195 426.739455 296.260233 426.965544 296.455415 
C 427.191633 296.650597 427.416736 296.846919 427.640842 297.044374 
L 471.621473 247.127655 
z
" style="fill: #ff7f0e; stroke: #ffffff; stroke-linejoin: miter"/>
            </g>
            <g id="patch_44">
                <path d="M 469.24758 245.078287
C 468.848494 244.740733 468.447705 244.405197 468.045229 244.071692 
C 467.642753 243.738187 467.238595 243.406716 466.832771 243.077294 
L 424.90444 294.729882 
C 425.13634 294.918124 425.367287 295.107535 425.597274 295.29811 
C 425.82726 295.488684 426.056282 295.680419 426.284332 295.873307 
L 469.24758 245.078287 
z
" style="fill: #2ca02c; stroke: #ffffff; stroke-linejoin: miter"/>
            </g>
            <g id="patch_45">
                <path d="M 466.832771 243.077294
C 466.426947 242.747871 466.019461 242.4205 465.61033 242.095194 
C 465.201199 241.769887 464.790427 241.446649 464.378031 241.125492 
L 423.501732 293.614567 
C 423.737387 293.798085 423.972114 293.982793 424.205903 294.168682 
C 424.439692 294.354571 424.672541 294.54164 424.90444 294.729882 
L 466.832771 243.077294 
z
" style="fill: #d62728; stroke: #ffffff; stroke-linejoin: miter"/>
            </g>
            <g id="patch_46">
                <path d="M 464.378031 241.125492
C 463.14082 240.162004 461.889082 239.217319 460.623246 238.291762 
C 459.35741 237.366204 458.077622 236.45988 456.784323 235.573103 
L 419.16247 290.441773 
C 419.901498 290.948503 420.632806 291.466402 421.356141 291.995292 
C 422.079475 292.524182 422.794755 293.064003 423.501732 293.614567 
L 464.378031 241.125492 
z
" style="fill: #9467bd; stroke: #ffffff; stroke-linejoin: miter"/>
            </g>
            <g id="patch_47">
                <path d="M 456.784323 235.573103
C 456.353231 235.277515 455.920648 234.984107 455.486592 234.692889 
C 455.052535 234.401671 454.617011 234.112647 454.180035 233.825829 
L 417.674306 289.443331 
C 417.924006 289.607227 418.172877 289.772383 418.42091 289.938794 
C 418.668942 290.105204 418.916132 290.272866 419.16247 290.441773 
L 456.784323 235.573103 
z
" style="fill: #8c564b; stroke: #ffffff; stroke-linejoin: miter"/>
            </g>
            <g id="patch_48">
                <path d="M 454.180035 233.825829
C 451.557985 232.104791 448.884378 230.463615 446.162895 228.90456 
C 443.441412 227.345506 440.673304 225.86929 437.862383 224.477945 
L 408.349933 284.101683 
C 409.956174 284.896737 411.53795 285.740289 413.093083 286.631177 
C 414.648216 287.522065 416.175992 288.459881 417.674306 289.443331 
L 454.180035 233.825829 
z
" style="fill: #e377c2; stroke: #ffffff; stroke-linejoin: miter"/>
            </g>
            <g id="patch_49">
                <path d="M 437.862383 224.477945
C 436.457003 223.782313 435.041163 223.108016 433.61535 222.455286 
C 432.189538 221.802556 430.753916 221.171468 429.308981 220.56224 
L 403.462275 281.864137 
C 404.287952 282.212268 405.108307 282.572889 405.923057 282.945878 
C 406.737807 283.318866 407.546859 283.704179 408.349933 284.101683 
L 437.862383 224.477945 
z
" style="fill: #7f7f7f; stroke: #ffffff; stroke-linejoin: miter"/>
            </g>
            <g id="patch_50">
                <path d="M 429.308981 220.56224
C 427.382371 219.749925 425.439547 218.976616 423.481696 218.24279 
C 421.523845 217.508963 419.551368 216.814767 417.565472 216.160627 
L 396.751699 279.34893 
C 397.886496 279.722724 399.013626 280.119407 400.132398 280.538737 
C 401.25117 280.958067 402.361355 281.399957 403.462275 281.864137 
L 429.308981 220.56224 
z
" style="fill: #bcbd22; stroke: #ffffff; stroke-linejoin: miter"/>
            </g>
            <g id="patch_51">
                <path d="M 417.565472 216.160627
C 416.076073 215.670029 414.579325 215.202028 413.075744 214.756785 
C 411.572163 214.311542 410.061921 213.889107 408.54554 213.489627 
L 391.597451 277.822644 
C 392.463955 278.050918 393.32695 278.29231 394.186139 278.546734 
C 395.045328 278.801159 395.900613 279.068588 396.751699 279.34893 
L 417.565472 216.160627 
z
" style="fill: #17becf; stroke: #ffffff; stroke-linejoin: miter"/>
            </g>
            <g id="patch_52">
                <path d="M 408.54554 213.489627
C 406.018151 212.823804 403.47435 212.221917 400.91657 211.684542 
C 398.358789 211.147167 395.787845 210.674475 393.206196 210.266918 
L 382.832112 275.981096 
C 384.30734 276.213986 385.776451 276.484095 387.23804 276.791167 
C 388.699629 277.098238 390.153229 277.442174 391.597451 277.822644 
L 408.54554 213.489627 
z
" style="fill: #1f77b4; stroke: #ffffff; stroke-linejoin: miter"/>
            </g>
            <g id="patch_53">
                <path d="M 393.206196 210.266918
C 390.624547 209.859362 388.033017 209.517071 385.434085 209.240372 
C 382.835152 208.963674 380.229646 208.752656 377.620058 208.607521 
L 373.925747 275.032869 
C 375.41694 275.115804 376.905801 275.236385 378.390905 275.394498 
C 379.87601 275.552612 381.356884 275.748207 382.832112 275.981096 
L 393.206196 210.266918 
z
" style="fill: #ff7f0e; stroke: #ffffff; stroke-linejoin: miter"/>
            </g>
            <g id="patch_54">
                <path d="M 377.620058 208.607521
C 374.488479 208.433356 371.352341 208.354139 368.215963 208.36998 
C 365.079585 208.385821 361.944407 208.496713 358.814747 208.702503 
L 363.179856 275.087145 
C 364.968233 274.96955 366.759763 274.906184 368.551979 274.897131 
C 370.344195 274.888079 372.136274 274.933346 373.925747 275.032869 
L 377.620058 208.607521 
z
" style="fill: #2ca02c; stroke: #ffffff; stroke-linejoin: miter"/>
            </g>
            <g id="patch_55">
                <path d="M 358.814747 208.702503
C 355.685088 208.908294 352.562384 209.208887 349.450936 209.60387 
C 346.339488 209.998854 343.240726 210.488045 340.158916 211.070771 
L 352.519381 276.440441 
C 354.280415 276.107454 356.051136 275.827916 357.829106 275.602212 
C 359.607076 275.376507 361.391479 275.204739 363.179856 275.087145 
L 358.814747 208.702503 
z
" style="fill: #d62728; stroke: #ffffff; stroke-linejoin: miter"/>
            </g>
            <g id="patch_56">
                <path d="M 340.158916 211.070771
C 339.131716 211.265 338.106505 211.4696 337.083438 211.68454 
C 336.060372 211.899481 335.039502 212.12475 334.020987 212.360315 
L 349.011993 277.177323 
C 349.594001 277.042714 350.177355 276.913989 350.761965 276.791166 
C 351.346574 276.668343 351.932409 276.551428 352.519381 276.440441 
L 340.158916 211.070771 
z
" style="fill: #9467bd; stroke: #ffffff; stroke-linejoin: miter"/>
            </g>
            <g id="patch_57">
                <path d="M 334.020987 212.360315
C 333.002471 212.595879 331.986361 212.841726 330.972812 213.097818 
C 329.959264 213.35391 328.948327 213.620234 327.940159 213.896749 
L 345.537234 278.055285 
C 346.11333 277.897277 346.691008 277.745091 347.270179 277.598753 
C 347.849349 277.452415 348.429984 277.311931 349.011993 277.177323 
L 334.020987 212.360315 
z
" style="fill: #8c564b; stroke: #ffffff; stroke-linejoin: miter"/>
            </g>
            <g id="patch_58">
                <path d="M 327.940159 213.896749
C 326.93199 214.173265 325.926641 214.459957 324.924264 214.756783 
C 323.921887 215.053608 322.922535 215.360552 321.926359 215.677567 
L 342.100777 279.072896 
C 342.67002 278.891744 343.241079 278.716348 343.813865 278.546733 
C 344.386652 278.377118 344.961137 278.213294 345.537234 278.055285 
L 327.940159 213.896749 
z
" style="fill: #e377c2; stroke: #ffffff; stroke-linejoin: miter"/>
            </g>
            <g id="patch_59">
                <path d="M 321.926359 215.677567
C 321.428274 215.836074 320.930993 215.997095 320.434535 216.160624 
C 319.938077 216.324154 319.442448 216.49019 318.947667 216.658727 
L 340.398667 279.633558 
C 340.681399 279.537252 340.964616 279.442374 341.248306 279.348928 
C 341.531996 279.255483 341.816157 279.163471 342.100777 279.072896 
L 321.926359 215.677567 
z
" style="fill: #7f7f7f; stroke: #ffffff; stroke-linejoin: miter"/>
            </g>
            <g id="patch_60">
                <path d="M 318.947667 216.658727
C 316.96848 217.332893 315.003116 218.046979 313.052778 218.800545 
C 311.10244 219.554111 309.167526 220.347005 307.24922 221.178741 
L 333.71384 282.216423 
C 334.810015 281.741146 335.91568 281.288064 337.030159 280.857454 
C 338.144638 280.426845 339.267703 280.018796 340.398667 279.633558 
L 318.947667 216.658727 
z
" style="fill: #bcbd22; stroke: #ffffff; stroke-linejoin: miter"/>
            </g>
            <g id="patch_61">
                <path d="M 307.24922 221.178741
C 305.810512 221.802534 304.381339 222.448091 302.962193 223.11519 
C 301.543047 223.782289 300.13409 224.470854 298.735809 225.180647 
L 328.849034 284.503227 
C 329.648052 284.097631 330.45317 283.704165 331.26411 283.322966 
C 332.075051 282.941766 332.891721 282.572876 333.71384 282.216423 
L 307.24922 221.178741 
z
" style="fill: #17becf; stroke: #ffffff; stroke-linejoin: miter"/>
            </g>
            <g id="patch_62">
                <path d="M 298.735809 225.180647
C 297.337527 225.89044 295.950082 226.62138 294.573949 227.373216 
C 293.197816 228.125051 291.833155 228.897695 290.480435 229.690883 
L 324.131677 287.080504 
C 324.90466 286.627255 325.684466 286.185744 326.470828 285.756123 
C 327.257189 285.326503 328.050016 284.908823 328.849034 284.503227 
L 298.735809 225.180647 
z
" style="fill: #1f77b4; stroke: #ffffff; stroke-linejoin: miter"/>
            </g>
            <g id="patch_63">
                <path d="M 290.480435 229.690883
C 289.127715 230.48407 287.787091 231.297709 286.459026 232.131519 
C 285.130961 232.96533 283.815606 233.819216 282.513415 234.692884 
L 319.579094 289.938791 
C 320.323203 289.439552 321.074835 288.951617 321.833729 288.475154 
C 322.592624 287.998691 323.358694 287.533754 324.131677 287.080504 
L 290.480435 229.690883 
z
" style="fill: #ff7f0e; stroke: #ffffff; stroke-linejoin: miter"/>
            </g>
            <g id="patch_64">
                <path d="M 282.513415 234.692884
C 280.343023 236.149048 278.209753 237.659792 276.115645 239.223674 
C 274.021537 240.787556 271.96726 242.404075 269.954777 244.071687 
L 312.40273 295.298107 
C 313.55272 294.345186 314.726593 293.42146 315.923226 292.527814 
C 317.119859 291.634167 318.33887 290.770884 319.579094 289.938791 
L 282.513415 234.692884 
z
" style="fill: #2ca02c; stroke: #ffffff; stroke-linejoin: miter"/>
            </g>
            <g id="patch_65">
                <path d="M 269.954777 244.071687
C 268.344822 245.40575 266.761985 246.772205 265.207234 248.170214 
C 263.652482 249.568224 262.126135 250.997502 260.629126 252.457175 
L 307.073786 300.089814 
C 307.92922 299.255716 308.801419 298.438985 309.689848 297.640122 
C 310.578277 296.84126 311.482756 296.060429 312.40273 295.298107 
L 269.954777 244.071687 
z
" style="fill: #d62728; stroke: #ffffff; stroke-linejoin: miter"/>
            </g>
            <g id="patch_66">
                <path d="M 260.629126 252.457175
C 259.132117 253.916848 257.664752 255.406617 256.227929 256.925571 
C 254.791106 258.444525 253.385118 259.992353 252.010826 261.568108 
L 302.149044 305.296062 
C 302.934353 304.39563 303.737775 303.511157 304.558816 302.643183 
C 305.379858 301.77521 306.218353 300.923913 307.073786 300.089814 
L 260.629126 252.457175 
z
" style="fill: #9467bd; stroke: #ffffff; stroke-linejoin: miter"/>
            </g>
            <g id="patch_67">
                <path d="M 252.010826 261.568108
C 251.667264 261.962034 251.325694 262.357693 250.986129 262.755069 
C 250.646564 263.152446 250.309008 263.551535 249.973474 263.952321 
L 300.984842 306.658469 
C 301.176576 306.429449 301.369465 306.201398 301.563502 305.974325 
C 301.757539 305.747253 301.952722 305.521162 302.149044 305.296062 
L 252.010826 261.568108 
z
" style="fill: #8c564b; stroke: #ffffff; stroke-linejoin: miter"/>
            </g>
            <g id="patch_68">
                <path d="M 249.973474 263.952321
C 246.28166 268.362096 242.837762 272.97363 239.657711 277.765589 
C 236.47766 282.557549 233.566369 287.522533 230.937306 292.637572 
L 290.107032 323.050041 
C 291.609354 320.127161 293.272949 317.290028 295.090121 314.551765 
C 296.907292 311.813503 298.875234 309.17834 300.984842 306.658469 
L 249.973474 263.952321 
z
" style="fill: #e377c2; stroke: #ffffff; stroke-linejoin: miter"/>
            </g>
            <g id="patch_69">
                <path d="M 230.937306 292.637572
C 229.742521 294.962115 228.606633 297.316462 227.53073 299.698362 
C 226.454826 302.080261 225.43925 304.488953 224.484972 306.922133 
L 286.419984 331.212648 
C 286.965286 329.822259 287.545615 328.445863 288.160417 327.084778 
C 288.775219 325.723693 289.424298 324.378351 290.107032 323.050041 
L 230.937306 292.637572 
z
" style="fill: #7f7f7f; stroke: #ffffff; stroke-linejoin: miter"/>
            </g>
            <g id="patch_70">
                <path d="M 224.484972 306.922133
C 223.530694 309.355314 222.63802 311.812207 221.807801 314.290462 
C 220.977583 316.768718 220.210087 319.267546 219.506045 321.784556 
L 283.574883 339.70546 
C 283.977192 338.267169 284.415762 336.839267 284.890172 335.423121 
C 285.364583 334.006975 285.874683 332.603036 286.419984 331.212648 
L 224.484972 306.922133 
z
" style="fill: #bcbd22; stroke: #ffffff; stroke-linejoin: miter"/>
            </g>
            <g id="patch_71">
                <path d="M 219.506045 321.784556
C 218.379486 325.812106 217.416148 329.883537 216.618388 333.988884 
C 215.820629 338.094231 215.189099 342.23014 214.725346 346.386488 
L 280.843055 353.763707 
C 281.108057 351.388651 281.468931 349.025275 281.924793 346.679362 
C 282.380656 344.33345 282.931135 342.006917 283.574883 339.70546 
L 219.506045 321.784556 
z
" style="fill: #17becf; stroke: #ffffff; stroke-linejoin: miter"/>
            </g>
            <g id="patch_72">
                <path d="M 214.725346 346.386488
C 214.667385 346.905962 214.612048 347.425725 214.559337 347.945758 
C 214.506626 348.465791 214.456541 348.986086 214.409086 349.506625 
L 280.662335 355.546643 
C 280.689452 355.249192 280.718072 354.95188 280.748192 354.654719 
C 280.778313 354.357557 280.809934 354.060549 280.843055 353.763707 
L 214.725346 346.386488 
z
" style="fill: #1f77b4; stroke: #ffffff; stroke-linejoin: miter"/>
            </g>
            <g id="patch_73">
                <path d="M 214.409086 349.506625
C 214.266718 351.068268 214.148021 352.631979 214.053036 354.197219 
C 213.958052 355.762458 213.88679 357.329047 213.839276 358.896446 
L 280.336729 360.912255 
C 280.36388 360.016598 280.404601 359.121405 280.458878 358.226982 
C 280.513155 357.332559 280.580982 356.43901 280.662335 355.546643 
L 214.409086 349.506625 
z
" style="fill: #ff7f0e; stroke: #ffffff; stroke-linejoin: miter"/>
            </g>
            <g id="patch_74">
                <path d="M 213.839276 358.896446
C 213.791761 360.463846 213.768 362.031875 213.768 363.599994 
C 213.768 365.168113 213.791761 366.736142 213.839275 368.303541 
L 280.336729 366.287738 
C 280.309578 365.392081 280.296 364.496064 280.296 363.599996 
C 280.296 362.703928 280.309578 361.807912 280.336729 360.912255 
L 213.839276 358.896446 
z
" style="fill: #2ca02c; stroke: #ffffff; stroke-linejoin: miter"/>
            </g>
            <g id="patch_75">
                <path d="M 213.839275 368.303541
C 213.886789 369.87094 213.958051 371.437529 214.053036 373.002769 
C 214.14802 374.568008 214.266717 376.131719 214.409085 377.693362 
L 280.662334 371.65335 
C 280.580981 370.760982 280.513154 369.867433 280.458878 368.973011 
C 280.404601 368.078588 280.36388 367.183394 280.336729 366.287738 
L 213.839275 368.303541 
z
" style="fill: #d62728; stroke: #ffffff; stroke-linejoin: miter"/>
            </g>
            <g id="patch_76">
                <path d="M 214.409085 377.693362
C 214.551453 379.255005 214.717476 380.814401 214.907097 382.371013 
C 215.096717 383.927625 215.309914 385.481275 215.546613 387.031427 
L 281.31235 376.989387 
C 281.177094 376.103586 281.055267 375.215786 280.946912 374.326293 
C 280.838558 373.436801 280.743687 372.545717 280.662334 371.65335 
L 214.409085 377.693362 
z
" style="fill: #9467bd; stroke: #ffffff; stroke-linejoin: miter"/>
            </g>
            <g id="patch_77">
                <path d="M 215.546613 387.031427
C 215.70441 388.064851 215.872643 389.096654 216.051286 390.126679 
C 216.229928 391.156704 216.418971 392.184898 216.618386 393.211104 
L 281.924792 380.520631 
C 281.810841 379.934227 281.702816 379.346688 281.600735 378.758102 
C 281.498653 378.169516 281.40252 377.579915 281.31235 376.989387 
L 215.546613 387.031427 
z
" style="fill: #8c564b; stroke: #ffffff; stroke-linejoin: miter"/>
            </g>
            <g id="patch_78">
                <path d="M 216.618386 393.211104
C 216.718092 393.724203 216.82039 394.236796 216.925274 394.748862 
C 217.030159 395.260929 217.137629 395.772462 217.247681 396.283443 
L 282.284389 382.276253 
C 282.221502 381.984264 282.160091 381.691959 282.100157 381.39935 
C 282.040223 381.106741 281.981767 380.81383 281.924792 380.520631 
L 216.618386 393.211104 
z
" style="fill: #e377c2; stroke: #ffffff; stroke-linejoin: miter"/>
            </g>
            <g id="patch_79">
                <path d="M 217.247681 396.283443
C 217.467786 397.30541 217.698208 398.325129 217.938914 399.342442 
C 218.17962 400.359754 218.430596 401.37461 218.691804 402.386852 
L 283.109602 385.763916 
C 282.96034 385.185491 282.816925 384.605574 282.679379 384.024252 
C 282.541833 383.442931 282.410163 382.860235 282.284389 382.276253 
L 217.247681 396.283443 
z
" style="fill: #7f7f7f; stroke: #ffffff; stroke-linejoin: miter"/>
            </g>
            <g id="patch_80">
                <path d="M 218.691804 402.386852
C 218.953012 403.399095 219.224438 404.408673 219.506042 405.415432 
C 219.787646 406.422191 220.079412 407.42608 220.381297 408.426944 
L 284.075027 389.215397 
C 283.902521 388.643474 283.735798 388.069823 283.574881 387.494533 
C 283.413965 386.919242 283.258864 386.34234 283.109602 385.763916 
L 218.691804 402.386852 
z
" style="fill: #bcbd22; stroke: #ffffff; stroke-linejoin: miter"/>
            </g>
            <g id="patch_81">
                <path d="M 220.381297 408.426944
C 220.834129 409.928257 221.309684 411.422623 221.807797 412.909526 
C 222.305911 414.396428 222.826527 415.875698 223.369465 417.346825 
L 285.782552 394.312472 
C 285.472301 393.471828 285.174806 392.626531 284.89017 391.776872 
C 284.605533 390.927213 284.333788 390.07329 284.075027 389.215397 
L 220.381297 408.426944 
z
" style="fill: #17becf; stroke: #ffffff; stroke-linejoin: miter"/>
            </g>
            <g id="patch_82">
                <path d="M 223.369465 417.346825
C 223.912404 418.817953 224.477603 420.280768 225.064867 421.734769 
C 225.652132 423.18877 226.261394 424.633788 226.892446 426.069327 
L 287.795683 399.296758 
C 287.435083 398.47645 287.086932 397.650726 286.751353 396.819868 
C 286.415773 395.98901 286.092802 395.153116 285.782552 394.312472 
L 223.369465 417.346825 
z
" style="fill: #1f77b4; stroke: #ffffff; stroke-linejoin: miter"/>
            </g>
            <g id="patch_83">
                <path d="M 226.892446 426.069327
C 227.73386 427.983407 228.61386 429.880292 229.531907 431.758821 
C 230.449954 433.63735 231.405862 435.497139 232.399043 437.33705 
L 290.942311 405.735457 
C 290.374778 404.684079 289.828545 403.621343 289.303947 402.547898 
C 288.779349 401.474453 288.276491 400.390518 287.795683 399.296758 
L 226.892446 426.069327 
z
" style="fill: #ff7f0e; stroke: #ffffff; stroke-linejoin: miter"/>
            </g>
            <g id="patch_84">
                <path d="M 232.399043 437.33705
C 232.895622 438.256981 233.40148 439.171873 233.916541 440.081586 
C 234.431602 440.991298 234.95584 441.895784 235.489174 442.794906 
L 292.708099 408.854232 
C 292.403337 408.340448 292.103773 407.823599 291.809452 407.303763 
C 291.515131 406.783928 291.226069 406.261132 290.942311 405.735457 
L 232.399043 437.33705 
z
" style="fill: #2ca02c; stroke: #ffffff; stroke-linejoin: miter"/>
            </g>
            <g id="patch_85">
                <path d="M 235.489174 442.794906
C 236.022508 443.694027 236.564911 444.587738 237.116299 445.475902 
C 237.667688 446.364066 238.228035 447.246637 238.797254 448.12348 
L 294.598431 411.899132 
C 294.273163 411.398078 293.952965 410.893752 293.637885 410.38623 
C 293.322806 409.878708 293.012862 409.368016 292.708099 408.854232 
L 235.489174 442.794906 
z
" style="fill: #d62728; stroke: #ffffff; stroke-linejoin: miter"/>
            </g>
            <g id="patch_86">
                <path d="M 238.797254 448.12348
C 239.366473 449.000324 239.944535 449.871395 240.531351 450.73656 
C 241.118168 451.601725 241.713709 452.460941 242.317884 453.314075 
L 296.610219 414.865185 
C 296.264976 414.37768 295.924667 413.8867 295.589344 413.39232 
C 295.25402 412.89794 294.923699 412.400185 294.598431 411.899132 
L 238.797254 448.12348 
z
" style="fill: #9467bd; stroke: #ffffff; stroke-linejoin: miter"/>
            </g>
            <g id="patch_87">
                <path d="M 242.317884 453.314075
C 242.922058 454.167209 243.534835 455.014218 244.156122 455.854972 
C 244.777408 456.695726 245.407171 457.530183 246.045315 458.358215 
L 298.74018 417.747551 
C 298.375526 417.27439 298.015662 416.797558 297.660641 416.317127 
C 297.30562 415.836696 296.955462 415.352691 296.610219 414.865185 
L 242.317884 453.314075 
z
" style="fill: #8c564b; stroke: #ffffff; stroke-linejoin: miter"/>
            </g>
            <g id="patch_88">
                <path d="M 246.045315 458.358215
C 246.683459 459.186247 247.329952 460.007811 247.984693 460.822782 
C 248.639435 461.637753 249.302393 462.44609 249.973464 463.247668 
L 300.984837 420.541524 
C 300.601367 420.08348 300.222534 419.621573 299.848396 419.155876 
C 299.474258 418.690178 299.104834 418.220712 298.74018 417.747551 
L 246.045315 458.358215 
z
" style="fill: #e377c2; stroke: #ffffff; stroke-linejoin: miter"/>
            </g>
            <g id="patch_89">
                <path d="M 249.973464 463.247668
C 250.308998 463.648454 250.646554 464.047543 250.986119 464.44492 
C 251.325685 464.842296 251.667255 465.237955 252.010817 465.631881 
L 302.149038 421.903932 
C 301.952717 421.678831 301.757534 421.452741 301.563497 421.225668 
C 301.36946 420.998596 301.17657 420.770545 300.984837 420.541524 
L 249.973464 463.247668 
z
" style="fill: #7f7f7f; stroke: #ffffff; stroke-linejoin: miter"/>
            </g>
            <g id="patch_90">
                <path d="M 252.010817 465.631881
C 252.354379 466.025807 252.699928 466.417996 253.047452 466.808432 
C 253.394975 467.198867 253.744469 467.587545 254.095918 467.97445 
L 303.340525 423.242543 
C 303.139696 423.021454 302.939986 422.799353 302.741401 422.576247 
C 302.542816 422.353141 302.345359 422.129033 302.149038 421.903932 
L 252.010817 465.631881 
z
" style="fill: #bcbd22; stroke: #ffffff; stroke-linejoin: miter"/>
            </g>
            <g id="patch_91">
                <path d="M 254.095918 467.97445
C 254.798823 468.748266 255.509526 469.514961 256.227919 470.274418 
C 256.946312 471.033876 257.672359 471.786057 258.405948 472.530847 
L 305.803399 425.846198 
C 305.384205 425.420604 304.969321 424.990786 304.558811 424.55681 
C 304.1483 424.122835 303.742184 423.684723 303.340525 423.242543 
L 254.095918 467.97445 
z
" style="fill: #17becf; stroke: #ffffff; stroke-linejoin: miter"/>
            </g>
            <g id="patch_92">
                <path d="M 258.405948 472.530847
C 259.139537 473.275637 259.88063 474.012997 260.629116 474.742815 
C 261.377601 475.472633 262.13344 476.194871 262.896516 476.909419 
L 308.369438 428.34824 
C 307.933394 427.939926 307.501486 427.527219 307.07378 427.11018 
C 306.646075 426.693141 306.222592 426.271792 305.803399 425.846198 
L 258.405948 472.530847 
z
" style="fill: #1f77b4; stroke: #ffffff; stroke-linejoin: miter"/>
            </g>
            <g id="patch_93">
                <path d="M 262.896516 476.909419
C 263.278052 477.266691 263.661389 477.622034 264.046515 477.975433 
C 264.43164 478.328833 264.818547 478.680285 265.207223 479.029776 
L 309.689842 429.559872 
C 309.467741 429.360163 309.246651 429.159333 309.02658 428.95739 
C 308.806508 428.755448 308.587458 428.552395 308.369438 428.34824 
L 262.896516 476.909419 
z
" style="fill: #ff7f0e; stroke: #ffffff; stroke-linejoin: miter"/>
            </g>
            <g id="patch_94">
                <path d="M 265.207223 479.029776
C 265.595898 479.379267 265.986336 479.726793 266.378522 480.07234 
C 266.770708 480.417888 267.164637 480.761452 267.560293 481.10302 
L 311.034453 430.744583 
C 310.808364 430.549401 310.583262 430.353079 310.359155 430.155623 
C 310.135049 429.958168 309.911942 429.759581 309.689842 429.559872 
L 265.207223 479.029776 
z
" style="fill: #2ca02c; stroke: #ffffff; stroke-linejoin: miter"/>
            </g>
            <g id="patch_95">
                <path d="M 267.560293 481.10302
C 268.747282 482.127741 269.949731 483.134418 271.167224 484.122702 
C 272.384718 485.110987 273.617116 486.080767 274.863996 487.031708 
L 315.207998 434.132405 
C 314.495495 433.58901 313.791267 433.03485 313.095557 432.470116 
C 312.399846 431.905381 311.712733 431.330138 311.034453 430.744583 
L 267.560293 481.10302 
z
" style="fill: #d62728; stroke: #ffffff; stroke-linejoin: miter"/>
            </g>
            <g id="patch_96">
                <path d="M 274.863996 487.031708
C 275.69524 487.665662 276.532867 488.291203 277.376749 488.908235 
C 278.220631 489.525267 279.070724 490.133758 279.926898 490.733616 
L 318.101085 436.247781 
C 317.611842 435.905005 317.126075 435.557295 316.643857 435.204706 
C 316.161638 434.852116 315.682994 434.494664 315.207998 434.132405 
L 274.863996 487.031708 
z
" style="fill: #9467bd; stroke: #ffffff; stroke-linejoin: miter"/>
            </g>
            <g id="patch_97">
                <path d="M 279.926898 490.733616
C 280.354983 491.033543 280.784579 491.331306 281.215672 491.626894 
C 281.646764 491.922481 282.079347 492.21589 282.513403 492.507108 
L 319.579087 437.261204 
C 319.331055 437.094794 319.083865 436.927132 318.837527 436.758225 
C 318.591188 436.589318 318.345704 436.419168 318.101085 436.247781 
L 279.926898 490.733616 
z
" style="fill: #8c564b; stroke: #ffffff; stroke-linejoin: miter"/>
            </g>
            <g id="patch_98">
                <path d="M 282.513403 492.507108
C 284.683795 493.963271 286.890617 495.364388 289.131757 496.709119 
C 291.372898 498.05385 293.647643 499.341766 295.953816 500.571635 
L 327.259324 441.869506 
C 325.94151 441.166724 324.641656 440.430772 323.361004 439.662354 
C 322.080352 438.893936 320.819311 438.093298 319.579087 437.261204 
L 282.513403 492.507108 
z
" style="fill: #e377c2; stroke: #ffffff; stroke-linejoin: miter"/>
            </g>
            <g id="patch_99">
                <path d="M 295.953816 500.571635
C 296.876244 501.063561 297.803618 501.546156 298.735796 502.019346 
C 299.667974 502.492537 300.604908 502.956299 301.546454 503.410561 
L 330.455117 443.491749 
C 329.91709 443.232171 329.381699 442.967164 328.849026 442.696769 
C 328.316353 442.426375 327.786425 442.150606 327.259324 441.869506 
L 295.953816 500.571635 
z
" style="fill: #7f7f7f; stroke: #ffffff; stroke-linejoin: miter"/>
            </g>
            <g id="patch_100">
                <path d="M 301.546454 503.410561
C 303.429596 504.319109 305.330901 505.189517 307.249207 506.021253 
C 309.167513 506.852989 311.102427 507.645883 313.052765 508.39945 
L 337.030151 446.342543 
C 335.915672 445.911933 334.810007 445.458851 333.713833 444.983573 
C 332.617658 444.508296 331.531198 444.010919 330.455117 443.491749 
L 301.546454 503.410561 
z
" style="fill: #bcbd22; stroke: #ffffff; stroke-linejoin: miter"/>
            </g>
            <g id="patch_101">
                <path d="M 313.052765 508.39945
C 313.540334 508.587836 314.028851 508.773757 314.518298 508.957208 
C 315.007745 509.140659 315.498116 509.321637 315.989391 509.500134 
L 338.708223 446.971505 
C 338.427495 446.869507 338.147283 446.766091 337.867599 446.661262 
C 337.587915 446.556433 337.308762 446.450192 337.030151 446.342543 
L 313.052765 508.39945 
z
" style="fill: #17becf; stroke: #ffffff; stroke-linejoin: miter"/>
            </g>
            <g id="patch_102">
                <path d="M 315.989391 509.500134
C 316.480666 509.678632 316.97284 509.854646 317.465893 510.028172 
C 317.958946 510.201698 318.452873 510.372732 318.947653 510.541269 
L 340.398659 447.566439 
C 340.115927 447.470133 339.833683 447.372399 339.551939 447.273241 
C 339.270194 447.174084 338.988952 447.073504 338.708223 446.971505 
L 315.989391 509.500134 
z
" style="fill: #1f77b4; stroke: #ffffff; stroke-linejoin: miter"/>
            </g>
            <g id="patch_103">
                <path d="M 318.947653 510.541269
C 319.937222 510.878343 320.930169 511.205413 321.926345 511.522428 
C 322.922521 511.839443 323.921873 512.146387 324.92425 512.443213 
L 343.813857 448.653265 
C 343.241071 448.48365 342.670012 448.308253 342.100769 448.127102 
C 341.531525 447.945951 340.964127 447.759053 340.398659 447.566439 
L 318.947653 510.541269 
z
" style="fill: #ff7f0e; stroke: #ffffff; stroke-linejoin: miter"/>
            </g>
            <g id="patch_104">
                <path d="M 324.92425 512.443213
C 325.926627 512.740039 326.931976 513.026731 327.940145 513.303247 
C 328.948313 513.579762 329.959249 513.846086 330.972798 514.102179 
L 347.27017 449.601245 
C 346.691 449.454907 346.113322 449.302721 345.537226 449.144712 
C 344.961129 448.986704 344.386644 448.822879 343.813857 448.653265 
L 324.92425 512.443213 
z
" style="fill: #2ca02c; stroke: #ffffff; stroke-linejoin: miter"/>
            </g>
            <g id="patch_105">
                <path d="M 330.972798 514.102179
C 331.47957 514.230224 331.986984 514.355709 332.495023 514.478628 
C 333.003062 514.601548 333.511718 514.721901 334.020973 514.839682 
L 349.011984 450.022676 
C 348.720982 449.955372 348.430321 449.886599 348.140013 449.816359 
C 347.849705 449.746119 347.559754 449.674414 347.27017 449.601245 
L 330.972798 514.102179 
z
" style="fill: #d62728; stroke: #ffffff; stroke-linejoin: miter"/>
            </g>
            <g id="patch_106">
                <path d="M 334.020973 514.839682
C 334.530227 514.957464 335.040073 515.072672 335.550492 515.185303 
C 336.06091 515.297935 336.571894 515.407987 337.083424 515.515457 
L 350.761957 450.408832 
C 350.469654 450.347421 350.177663 450.284534 349.885995 450.220173 
C 349.594328 450.155813 349.302987 450.089979 349.011984 450.022676 
L 334.020973 514.839682 
z
" style="fill: #9467bd; stroke: #ffffff; stroke-linejoin: miter"/>
            </g>
            <g id="patch_107">
                <path d="M 337.083424 515.515457
C 337.594954 515.622926 338.107024 515.727812 338.619613 515.830108 
C 339.132203 515.932405 339.645305 516.032113 340.158902 516.129226 
L 352.519373 450.759558 
C 352.225889 450.704064 351.932687 450.647089 351.639779 450.588633 
C 351.346871 450.530178 351.054259 450.470244 350.761957 450.408832 
L 337.083424 515.515457 
z
" style="fill: #8c564b; stroke: #ffffff; stroke-linejoin: miter"/>
            </g>
            <g id="patch_108">
                <path d="M 340.158902 516.129226
C 341.186102 516.323455 342.215238 516.507303 343.246152 516.680741 
C 344.277066 516.854178 345.309706 517.017198 346.343913 517.169774 
L 356.053665 451.354157 
C 355.462689 451.26697 354.872609 451.173816 354.283515 451.074709 
C 353.694422 450.975602 353.106344 450.870546 352.519373 450.759558 
L 340.158902 516.129226 
z
" style="fill: #e377c2; stroke: #ffffff; stroke-linejoin: miter"/>
            </g>
            <g id="patch_109">
                <path d="M 346.343913 517.169774
C 347.378121 517.32235 348.413843 517.464476 349.450922 517.596128 
C 350.488 517.72778 351.526382 517.848953 352.565909 517.959627 
L 359.609091 451.805501 
C 359.015076 451.742259 358.421714 451.673017 357.829098 451.597787 
C 357.236482 451.522557 356.64464 451.441343 356.053665 451.354157 
L 346.343913 517.169774 
z
" style="fill: #7f7f7f; stroke: #ffffff; stroke-linejoin: miter"/>
            </g>
            <g id="patch_110">
                <path d="M 352.565909 517.959627
C 353.085669 518.014964 353.605705 518.067675 354.125998 518.117759 
C 354.64629 518.167843 355.166832 518.215298 355.687604 518.260124 
L 361.392917 451.977214 
C 361.095333 451.951599 360.79788 451.924482 360.50057 451.895862 
C 360.20326 451.867243 359.906097 451.837122 359.609091 451.805501 
L 352.565909 517.959627 
z
" style="fill: #bcbd22; stroke: #ffffff; stroke-linejoin: miter"/>
            </g>
            <g id="patch_111">
                <path d="M 355.687604 518.260124
C 356.208376 518.304949 356.729371 518.347144 357.250569 518.386707 
C 357.771767 518.42627 358.293162 518.4632 358.814733 518.497496 
L 363.179847 452.112855 
C 362.881807 452.093257 362.583867 452.072154 362.286039 452.049547 
C 361.988212 452.02694 361.690501 452.002828 361.392917 451.977214 
L 355.687604 518.260124 
z
" style="fill: #17becf; stroke: #ffffff; stroke-linejoin: miter"/>
            </g>
            <g id="patch_112">
                <path d="M 358.814733 518.497496
C 359.336304 518.531791 359.858045 518.563453 360.379936 518.592478 
C 360.901827 518.621504 361.423861 518.647893 361.946019 518.671645 
L 364.969154 452.212369 
C 364.670778 452.198796 364.372473 452.183716 364.074249 452.16713 
C 363.776026 452.150544 363.477888 452.132452 363.179847 452.112855 
L 358.814733 518.497496 
z
" style="fill: #1f77b4; stroke: #ffffff; stroke-linejoin: miter"/>
            </g>
            <g id="patch_113">
                <path d="M 361.946019 518.671645
C 362.468176 518.695397 362.99045 518.716512 363.512821 518.734989 
C 364.035192 518.753465 364.557653 518.769303 365.080184 518.782502 
L 366.760105 452.275715 
C 366.461516 452.268173 366.162967 452.259123 365.864469 452.248565 
C 365.565972 452.238007 365.267529 452.225941 364.969154 452.212369 
L 361.946019 518.671645 
z
" style="fill: #ff7f0e; stroke: #ffffff; stroke-linejoin: miter"/>
            </g>
            <g id="patch_114">
                <path d="M 365.080184 518.782502
C 366.125252 518.8089 367.17056 518.82474 368.215948 518.83002 
C 369.261337 518.8353 370.306752 518.83002 371.352033 518.81418 
L 370.344019 452.293817 
C 369.746715 452.302869 369.149335 452.305886 368.55197 452.302869 
C 367.954606 452.299851 367.357287 452.2908 366.760105 452.275715 
L 365.080184 518.782502 
z
" style="fill: #2ca02c; stroke: #ffffff; stroke-linejoin: miter"/>
            </g>
            <g id="patch_115">
                <path d="M 371.352033 518.81418
C 371.874671 518.806261 372.397265 518.795701 372.919796 518.782502 
C 373.442326 518.769304 373.964787 518.753466 374.487158 518.734989 
L 372.135519 452.248565 
C 371.837021 452.259123 371.538472 452.268173 371.239883 452.275716 
C 370.941294 452.283258 370.642669 452.289292 370.344019 452.293817 
L 371.352033 518.81418 
z
" style="fill: #d62728; stroke: #ffffff; stroke-linejoin: miter"/>
            </g>
            <g id="patch_116">
                <path d="M 374.487158 518.734989
C 375.009529 518.716513 375.531803 518.695398 376.05396 518.671646 
C 376.576118 518.647894 377.098152 518.621505 377.620043 518.592479 
L 373.925739 452.167131 
C 373.627516 452.183717 373.32921 452.198797 373.030835 452.212369 
C 372.732459 452.225942 372.434016 452.238007 372.135519 452.248565 
L 374.487158 518.734989 
z
" style="fill: #9467bd; stroke: #ffffff; stroke-linejoin: miter"/>
            </g>
            <g id="patch_117">
                <path d="M 377.620043 518.592479
C 378.141934 518.563454 378.663675 518.531793 379.185246 518.497497 
C 379.706817 518.463201 380.228212 518.426271 380.74941 518.386709 
L 375.713949 452.049548 
C 375.416121 452.072155 375.118181 452.093258 374.820141 452.112855 
C 374.5221 452.132453 374.223962 452.150545 373.925739 452.167131 
L 377.620043 518.592479 
z
" style="fill: #8c564b; stroke: #ffffff; stroke-linejoin: miter"/>
            </g>
            <g id="patch_118">
                <path d="M 380.74941 518.386709
C 384.919553 518.070165 389.075201 517.585228 393.206182 516.933084 
C 397.337162 516.28094 401.440102 515.462121 405.504957 514.478633 
L 389.859975 449.816362 
C 387.537201 450.378355 385.192664 450.846251 382.832104 451.218905 
C 380.471544 451.591559 378.096888 451.868666 375.713949 452.049548 
L 380.74941 518.386709 
z
" style="fill: #e377c2; stroke: #ffffff; stroke-linejoin: miter"/>
            </g>
            <g id="patch_119">
                <path d="M 405.504957 514.478633
C 407.029099 514.109868 408.547566 513.71803 410.059835 513.303252 
C 411.572104 512.888475 413.078001 512.450807 414.577008 511.990398 
L 395.044004 448.394513 
C 394.187429 448.657604 393.326917 448.9077 392.462763 449.144716 
C 391.598609 449.381731 390.730914 449.605639 389.859975 449.816362 
L 405.504957 514.478633 
z
" style="fill: #7f7f7f; stroke: #ffffff; stroke-linejoin: miter"/>
            </g>
            <g id="patch_120">
                <path d="M 414.577008 511.990398
C 417.075437 511.223024 419.554088 510.392674 422.01059 509.500141 
C 424.467091 508.607609 426.900659 507.653179 429.308967 506.637765 
L 403.462267 445.335866 
C 402.086091 445.916102 400.695481 446.461491 399.291765 446.971509 
C 397.88805 447.481528 396.471678 447.956014 395.044004 448.394513 
L 414.577008 511.990398 
z
" style="fill: #bcbd22; stroke: #ffffff; stroke-linejoin: miter"/>
            </g>
            <g id="patch_121">
                <path d="M 429.308967 506.637765
C 431.235577 505.825449 433.145578 504.974292 435.037801 504.084813 
C 436.930024 503.195334 438.804084 502.267716 440.658831 501.302526 
L 409.947904 442.287158 
C 408.888048 442.838695 407.817157 443.368762 406.735886 443.877036 
C 405.654616 444.38531 404.563187 444.871685 403.462267 445.335866 
L 429.308967 506.637765 
z
" style="fill: #17becf; stroke: #ffffff; stroke-linejoin: miter"/>
            </g>
            <g id="patch_122">
                <path d="M 440.658831 501.302526
C 441.122504 501.061236 441.584954 500.817606 442.046165 500.571645 
C 442.507376 500.325684 442.967342 500.077395 443.426046 499.826787 
L 411.529169 441.443878 
C 411.267053 441.587083 411.004215 441.728962 410.740666 441.869511 
C 410.477117 442.010061 410.212859 442.149278 409.947904 442.287158 
L 440.658831 501.302526 
z
" style="fill: #1f77b4; stroke: #ffffff; stroke-linejoin: miter"/>
            </g>
            <g id="patch_123">
                <path d="M 443.426046 499.826787
C 444.343458 499.325569 445.255783 498.815096 446.162882 498.295447 
C 447.069982 497.775798 447.971808 497.246998 448.868225 496.70913 
L 414.638986 439.66236 
C 414.126748 439.969713 413.611418 440.271884 413.093076 440.568827 
C 412.574733 440.865769 412.053404 441.157468 411.529169 441.443878 
L 443.426046 499.826787 
z
" style="fill: #ff7f0e; stroke: #ffffff; stroke-linejoin: miter"/>
            </g>
            <g id="patch_124">
                <path d="M 448.868225 496.70913
C 450.212863 495.902319 451.5452 495.075179 452.864775 494.227996 
C 454.18435 493.380813 455.491012 492.513683 456.784311 491.626906 
L 419.162463 436.758232 
C 418.423435 437.264962 417.676771 437.760465 416.922728 438.244569 
C 416.168686 438.728674 415.407351 439.201325 414.638986 439.66236 
L 448.868225 496.70913 
z
" style="fill: #2ca02c; stroke: #ffffff; stroke-linejoin: miter"/>
            </g>
            <g id="patch_125">
                <path d="M 456.784311 491.626906
C 457.215403 491.331318 457.645 491.033555 458.073085 490.733628 
C 458.501169 490.433701 458.927736 490.131614 459.352769 489.827378 
L 420.630154 435.72993 
C 420.387278 435.903779 420.143525 436.076401 419.898906 436.247788 
C 419.654286 436.419174 419.408802 436.589325 419.162463 436.758232 
L 456.784311 491.626906 
z
" style="fill: #d62728; stroke: #ffffff; stroke-linejoin: miter"/>
            </g>
            <g id="patch_126">
                <path d="M 459.352769 489.827378
C 459.777802 489.523142 460.201296 489.216761 460.623234 488.908247 
C 461.045172 488.599733 461.46555 488.28909 461.88435 487.97633 
L 422.076771 434.672188 
C 421.837457 434.850909 421.597241 435.028419 421.356134 435.204713 
C 421.115026 435.381006 420.87303 435.556081 420.630154 435.72993 
L 459.352769 489.827378 
z
" style="fill: #9467bd; stroke: #ffffff; stroke-linejoin: miter"/>
            </g>
            <g id="patch_127">
                <path d="M 461.88435 487.97633
C 462.30315 487.663569 462.720368 487.348696 463.135987 487.031721 
C 463.551607 486.714746 463.965623 486.395674 464.378019 486.074517 
L 423.501725 433.585438 
C 423.26607 433.768957 423.02949 433.951283 422.791993 434.132412 
C 422.554496 434.31354 422.316086 434.493468 422.076771 434.672188 
L 461.88435 487.97633 
z
" style="fill: #8c564b; stroke: #ffffff; stroke-linejoin: miter"/>
            </g>
            <g id="patch_128">
                <path d="M 464.378019 486.074517
C 465.202817 485.432199 466.021106 484.781565 466.83276 484.122716 
C 467.644413 483.463866 468.449391 482.796834 469.247569 482.121722 
L 426.284325 431.326699 
C 425.828223 431.712477 425.368236 432.093638 424.904434 432.470123 
C 424.440632 432.846609 423.973038 433.218399 423.501725 433.585438 
L 464.378019 486.074517 
z
" style="fill: #e377c2; stroke: #ffffff; stroke-linejoin: miter"/>
            </g>
            <g id="patch_129">
                <path d="M 469.247569 482.121722
C 472.04146 479.758605 474.75092 477.297436 477.370869 474.742829 
C 479.990819 472.188223 482.519621 469.541775 484.952535 466.808447 
L 435.258591 422.576255 
C 433.868355 424.138157 432.423325 425.650413 430.926211 427.110188 
C 429.429097 428.569963 427.880834 429.976346 426.284325 431.326699 
L 469.247569 482.121722 
z
" style="fill: #7f7f7f; stroke: #ffffff; stroke-linejoin: miter"/>
            </g>
            <g id="patch_130">
                <path d="M 484.952535 466.808447
C 485.300058 466.418012 485.645608 466.025823 485.98917 465.631897 
C 486.332732 465.237971 486.674302 464.842312 487.013867 464.444935 
L 436.436495 421.225677 
C 436.242458 421.45275 436.047275 421.678841 435.850954 421.903941 
C 435.654633 422.129042 435.457176 422.353149 435.258591 422.576255 
L 484.952535 466.808447 
z
" style="fill: #bcbd22; stroke: #ffffff; stroke-linejoin: miter"/>
            </g>
            <g id="patch_131">
                <path d="M 487.013867 464.444935
C 487.353432 464.047559 487.690988 463.64847 488.026522 463.247684 
C 488.362056 462.846897 488.695563 462.444419 489.027032 462.040264 
L 437.586875 419.851579 
C 437.397465 420.082525 437.206889 420.312513 437.015156 420.541533 
C 436.823422 420.770554 436.630533 420.998605 436.436495 421.225677 
L 487.013867 464.444935 
z
" style="fill: #17becf; stroke: #ffffff; stroke-linejoin: miter"/>
            </g>
            <g id="patch_132">
                <path d="M 489.027032 462.040264
C 490.684457 460.019384 492.290581 457.956968 493.843866 455.854989 
C 495.397151 453.753009 496.897102 451.612136 498.342285 449.434417 
L 442.909877 412.648238 
C 442.084058 413.892649 441.226943 415.116005 440.339352 416.317136 
C 439.451761 417.518268 438.533976 418.696791 437.586875 419.851579 
L 489.027032 462.040264 
z
" style="fill: #1f77b4; stroke: #ffffff; stroke-linejoin: miter"/>
            </g>
            <g id="patch_133">
                <path d="M 498.342285 449.434417
C 500.365644 446.385455 502.280562 443.265901 504.083449 440.081604 
C 505.886335 436.897307 507.576064 433.650256 509.149468 430.346538 
L 449.085411 401.740879 
C 448.186323 403.628718 447.220763 405.484175 446.190542 407.303774 
C 445.160321 409.123372 444.066082 410.905974 442.909877 412.648238 
L 498.342285 449.434417 
z
" style="fill: #ff7f0e; stroke: #ffffff; stroke-linejoin: miter"/>
            </g>
            <g id="patch_134">
                <path d="M 509.149468 430.346538
C 510.947702 426.57074 512.592614 422.723814 514.080178 418.815177 
C 515.567742 414.906539 516.896744 410.939383 518.06393 406.923419 
L 454.179389 388.356239 
C 453.512425 390.651076 452.752996 392.918023 451.902959 395.15153 
C 451.052922 397.385037 450.112972 399.58328 449.085411 401.740879 
L 509.149468 430.346538 
z
" style="fill: #2ca02c; stroke: #ffffff; stroke-linejoin: miter"/>
            </g>
            <g id="patch_135">
                <path d="M 518.06393 406.923419
C 518.939267 403.911625 519.723125 400.873993 520.414423 397.814708 
C 521.105722 394.755423 521.704143 391.675889 522.208864 388.580348 
L 456.547922 377.874485 
C 456.25951 379.643365 455.917555 381.403099 455.522528 383.151262 
C 455.1275 384.899425 454.679581 386.635214 454.179389 388.356239 
L 518.06393 406.923419 
z
" style="fill: #d62728; stroke: #ffffff; stroke-linejoin: miter"/>
            </g>
            <g id="patch_136">
                <path d="M 522.208864 388.580348
C 522.377093 387.548571 522.534895 386.515121 522.682246 385.480156 
C 522.829596 384.445191 522.966488 383.408764 523.092901 382.371034 
L 457.053086 374.326305 
C 456.98085 374.919294 456.902626 375.511538 456.818426 376.102946 
C 456.734226 376.694355 456.644053 377.284898 456.547922 377.874485 
L 522.208864 388.580348 
z
" style="fill: #9467bd; stroke: #ffffff; stroke-linejoin: miter"/>
            </g>
            <g id="patch_137">
                <path d="M 523.092901 382.371034
C 523.156107 381.852172 523.216692 381.332994 523.274653 380.81352 
C 523.332614 380.294047 523.387952 379.774283 523.440663 379.25425 
L 457.251807 372.545286 
C 457.221687 372.842448 457.190065 373.139455 457.156945 373.436297 
C 457.123824 373.73314 457.089204 374.029813 457.053086 374.326305 
L 523.092901 382.371034 
z
" style="fill: #8c564b; stroke: #ffffff; stroke-linejoin: miter"/>
            </g>
            <g id="patch_138">
                <path d="M 523.440663 379.25425
C 523.546085 378.214178 523.640999 377.173067 523.725389 376.131077 
C 523.809779 375.089087 523.883641 374.046272 523.946963 373.00279 
L 457.541122 368.973023 
C 457.504937 369.569298 457.462731 370.165193 457.414508 370.760616 
C 457.366285 371.356038 457.312049 371.950959 457.251807 372.545286 
L 523.440663 379.25425 
z
" style="fill: #e377c2; stroke: #ffffff; stroke-linejoin: miter"/>
            </g>
            <g id="patch_139">
                <path d="M 523.946963 373.00279
C 524.041948 371.43755 524.11321 369.870961 524.160724 368.303562 
C 524.208239 366.736163 524.232 365.168134 524.232 363.600015 
L 457.704 363.600008 
C 457.704 364.496076 457.690422 365.392093 457.663271 366.28775 
C 457.63612 367.183406 457.595399 368.0786 457.541122 368.973023 
L 523.946963 373.00279 
z
" style="fill: #7f7f7f; stroke: #ffffff; stroke-linejoin: miter"/>
            </g>
            <g id="matplotlib.axis_1"/>
            <g id="matplotlib.axis_2"/>
            <g id="text_1">
                <!-- Activities -->
                <g transform="translate(612.488086 354.342961)scale(0.2 -0.2)">
                    <defs>
                        <path id="DejaVuSans-41" d="M 2188 4044
L 1331 1722 
L 3047 1722 
L 2188 4044 
z
M 1831 4666 
L 2547 4666 
L 4325 0 
L 3669 0 
L 3244 1197 
L 1141 1197 
L 716 0 
L 50 0 
L 1831 4666 
z
" transform="scale(0.015625)"/>
                        <path id="DejaVuSans-63" d="M 3122 3366
L 3122 2828 
Q 2878 2963 2633 3030 
Q 2388 3097 2138 3097 
Q 1578 3097 1268 2742 
Q 959 2388 959 1747 
Q 959 1106 1268 751 
Q 1578 397 2138 397 
Q 2388 397 2633 464 
Q 2878 531 3122 666 
L 3122 134 
Q 2881 22 2623 -34 
Q 2366 -91 2075 -91 
Q 1284 -91 818 406 
Q 353 903 353 1747 
Q 353 2603 823 3093 
Q 1294 3584 2113 3584 
Q 2378 3584 2631 3529 
Q 2884 3475 3122 3366 
z
" transform="scale(0.015625)"/>
                        <path id="DejaVuSans-74" d="M 1172 4494
L 1172 3500 
L 2356 3500 
L 2356 3053 
L 1172 3053 
L 1172 1153 
Q 1172 725 1289 603 
Q 1406 481 1766 481 
L 2356 481 
L 2356 0 
L 1766 0 
Q 1100 0 847 248 
Q 594 497 594 1153 
L 594 3053 
L 172 3053 
L 172 3500 
L 594 3500 
L 594 4494 
L 1172 4494 
z
" transform="scale(0.015625)"/>
                        <path id="DejaVuSans-69" d="M 603 3500
L 1178 3500 
L 1178 0 
L 603 0 
L 603 3500 
z
M 603 4863 
L 1178 4863 
L 1178 4134 
L 603 4134 
L 603 4863 
z
" transform="scale(0.015625)"/>
                        <path id="DejaVuSans-76" d="M 191 3500
L 800 3500 
L 1894 563 
L 2988 3500 
L 3597 3500 
L 2284 0 
L 1503 0 
L 191 3500 
z
" transform="scale(0.015625)"/>
                        <path id="DejaVuSans-65" d="M 3597 1894
L 3597 1613 
L 953 1613 
Q 991 1019 1311 708 
Q 1631 397 2203 397 
Q 2534 397 2845 478 
Q 3156 559 3463 722 
L 3463 178 
Q 3153 47 2828 -22 
Q 2503 -91 2169 -91 
Q 1331 -91 842 396 
Q 353 884 353 1716 
Q 353 2575 817 3079 
Q 1281 3584 2069 3584 
Q 2775 3584 3186 3129 
Q 3597 2675 3597 1894 
z
M 3022 2063 
Q 3016 2534 2758 2815 
Q 2500 3097 2075 3097 
Q 1594 3097 1305 2825 
Q 1016 2553 972 2059 
L 3022 2063 
z
" transform="scale(0.015625)"/>
                        <path id="DejaVuSans-73" d="M 2834 3397
L 2834 2853 
Q 2591 2978 2328 3040 
Q 2066 3103 1784 3103 
Q 1356 3103 1142 2972 
Q 928 2841 928 2578 
Q 928 2378 1081 2264 
Q 1234 2150 1697 2047 
L 1894 2003 
Q 2506 1872 2764 1633 
Q 3022 1394 3022 966 
Q 3022 478 2636 193 
Q 2250 -91 1575 -91 
Q 1294 -91 989 -36 
Q 684 19 347 128 
L 347 722 
Q 666 556 975 473 
Q 1284 391 1588 391 
Q 1994 391 2212 530 
Q 2431 669 2431 922 
Q 2431 1156 2273 1281 
Q 2116 1406 1581 1522 
L 1381 1569 
Q 847 1681 609 1914 
Q 372 2147 372 2553 
Q 372 3047 722 3315 
Q 1072 3584 1716 3584 
Q 2034 3584 2315 3537 
Q 2597 3491 2834 3397 
z
" transform="scale(0.015625)"/>
                    </defs>
                    <use xlink:href="#DejaVuSans-41"/>
                    <use xlink:href="#DejaVuSans-63" x="66.658203"/>
                    <use xlink:href="#DejaVuSans-74" x="121.638672"/>
                    <use xlink:href="#DejaVuSans-69" x="160.847656"/>
                    <use xlink:href="#DejaVuSans-76" x="188.630859"/>
                    <use xlink:href="#DejaVuSans-69" x="247.810547"/>
                    <use xlink:href="#DejaVuSans-74" x="275.59375"/>
                    <use xlink:href="#DejaVuSans-69" x="314.802734"/>
                    <use xlink:href="#DejaVuSans-65" x="342.585938"/>
                    <use xlink:href="#DejaVuSans-73" x="404.109375"/>
                </g>
            </g>
            <g id="text_2">
                <!-- Cardiovascular -->
                <g transform="translate(610.500675 334.73567)scale(0.2 -0.2)">
                    <defs>
                        <path id="DejaVuSans-43" d="M 4122 4306
L 4122 3641 
Q 3803 3938 3442 4084 
Q 3081 4231 2675 4231 
Q 1875 4231 1450 3742 
Q 1025 3253 1025 2328 
Q 1025 1406 1450 917 
Q 1875 428 2675 428 
Q 3081 428 3442 575 
Q 3803 722 4122 1019 
L 4122 359 
Q 3791 134 3420 21 
Q 3050 -91 2638 -91 
Q 1578 -91 968 557 
Q 359 1206 359 2328 
Q 359 3453 968 4101 
Q 1578 4750 2638 4750 
Q 3056 4750 3426 4639 
Q 3797 4528 4122 4306 
z
" transform="scale(0.015625)"/>
                        <path id="DejaVuSans-61" d="M 2194 1759
Q 1497 1759 1228 1600 
Q 959 1441 959 1056 
Q 959 750 1161 570 
Q 1363 391 1709 391 
Q 2188 391 2477 730 
Q 2766 1069 2766 1631 
L 2766 1759 
L 2194 1759 
z
M 3341 1997 
L 3341 0 
L 2766 0 
L 2766 531 
Q 2569 213 2275 61 
Q 1981 -91 1556 -91 
Q 1019 -91 701 211 
Q 384 513 384 1019 
Q 384 1609 779 1909 
Q 1175 2209 1959 2209 
L 2766 2209 
L 2766 2266 
Q 2766 2663 2505 2880 
Q 2244 3097 1772 3097 
Q 1472 3097 1187 3025 
Q 903 2953 641 2809 
L 641 3341 
Q 956 3463 1253 3523 
Q 1550 3584 1831 3584 
Q 2591 3584 2966 3190 
Q 3341 2797 3341 1997 
z
" transform="scale(0.015625)"/>
                        <path id="DejaVuSans-72" d="M 2631 2963
Q 2534 3019 2420 3045 
Q 2306 3072 2169 3072 
Q 1681 3072 1420 2755 
Q 1159 2438 1159 1844 
L 1159 0 
L 581 0 
L 581 3500 
L 1159 3500 
L 1159 2956 
Q 1341 3275 1631 3429 
Q 1922 3584 2338 3584 
Q 2397 3584 2469 3576 
Q 2541 3569 2628 3553 
L 2631 2963 
z
" transform="scale(0.015625)"/>
                        <path id="DejaVuSans-64" d="M 2906 2969
L 2906 4863 
L 3481 4863 
L 3481 0 
L 2906 0 
L 2906 525 
Q 2725 213 2448 61 
Q 2172 -91 1784 -91 
Q 1150 -91 751 415 
Q 353 922 353 1747 
Q 353 2572 751 3078 
Q 1150 3584 1784 3584 
Q 2172 3584 2448 3432 
Q 2725 3281 2906 2969 
z
M 947 1747 
Q 947 1113 1208 752 
Q 1469 391 1925 391 
Q 2381 391 2643 752 
Q 2906 1113 2906 1747 
Q 2906 2381 2643 2742 
Q 2381 3103 1925 3103 
Q 1469 3103 1208 2742 
Q 947 2381 947 1747 
z
" transform="scale(0.015625)"/>
                        <path id="DejaVuSans-6f" d="M 1959 3097
Q 1497 3097 1228 2736 
Q 959 2375 959 1747 
Q 959 1119 1226 758 
Q 1494 397 1959 397 
Q 2419 397 2687 759 
Q 2956 1122 2956 1747 
Q 2956 2369 2687 2733 
Q 2419 3097 1959 3097 
z
M 1959 3584 
Q 2709 3584 3137 3096 
Q 3566 2609 3566 1747 
Q 3566 888 3137 398 
Q 2709 -91 1959 -91 
Q 1206 -91 779 398 
Q 353 888 353 1747 
Q 353 2609 779 3096 
Q 1206 3584 1959 3584 
z
" transform="scale(0.015625)"/>
                        <path id="DejaVuSans-75" d="M 544 1381
L 544 3500 
L 1119 3500 
L 1119 1403 
Q 1119 906 1312 657 
Q 1506 409 1894 409 
Q 2359 409 2629 706 
Q 2900 1003 2900 1516 
L 2900 3500 
L 3475 3500 
L 3475 0 
L 2900 0 
L 2900 538 
Q 2691 219 2414 64 
Q 2138 -91 1772 -91 
Q 1169 -91 856 284 
Q 544 659 544 1381 
z
M 1991 3584 
L 1991 3584 
z
" transform="scale(0.015625)"/>
                        <path id="DejaVuSans-6c" d="M 603 4863
L 1178 4863 
L 1178 0 
L 603 0 
L 603 4863 
z
" transform="scale(0.015625)"/>
                    </defs>
                    <use xlink:href="#DejaVuSans-43"/>
                    <use xlink:href="#DejaVuSans-61" x="69.824219"/>
                    <use xlink:href="#DejaVuSans-72" x="131.103516"/>
                    <use xlink:href="#DejaVuSans-64" x="170.466797"/>
                    <use xlink:href="#DejaVuSans-69" x="233.943359"/>
                    <use xlink:href="#DejaVuSans-6f" x="261.726562"/>
                    <use xlink:href="#DejaVuSans-76" x="322.908203"/>
                    <use xlink:href="#DejaVuSans-61" x="382.087891"/>
                    <use xlink:href="#DejaVuSans-73" x="443.367188"/>
                    <use xlink:href="#DejaVuSans-63" x="495.466797"/>
                    <use xlink:href="#DejaVuSans-75" x="550.447266"/>
                    <use xlink:href="#DejaVuSans-6c" x="613.826172"/>
                    <use xlink:href="#DejaVuSans-61" x="641.609375"/>
                    <use xlink:href="#DejaVuSans-72" x="702.888672"/>
                </g>
            </g>
            <g id="text_3">
                <!-- Cell -->
                <g transform="translate(609.347978 327.433959)scale(0.2 -0.2)">
                    <use xlink:href="#DejaVuSans-43"/>
                    <use xlink:href="#DejaVuSans-65" x="69.824219"/>
                    <use xlink:href="#DejaVuSans-6c" x="131.347656"/>
                    <use xlink:href="#DejaVuSans-6c" x="159.130859"/>
                </g>
            </g>
            <g id="text_4">
                <!-- Connective Tissue -->
                <g transform="translate(607.974567 320.170528)scale(0.2 -0.2)">
                    <defs>
                        <path id="DejaVuSans-6e" d="M 3513 2113
L 3513 0 
L 2938 0 
L 2938 2094 
Q 2938 2591 2744 2837 
Q 2550 3084 2163 3084 
Q 1697 3084 1428 2787 
Q 1159 2491 1159 1978 
L 1159 0 
L 581 0 
L 581 3500 
L 1159 3500 
L 1159 2956 
Q 1366 3272 1645 3428 
Q 1925 3584 2291 3584 
Q 2894 3584 3203 3211 
Q 3513 2838 3513 2113 
z
" transform="scale(0.015625)"/>
                        <path id="DejaVuSans-20" transform="scale(0.015625)"/>
                        <path id="DejaVuSans-54" d="M -19 4666
L 3928 4666 
L 3928 4134 
L 2272 4134 
L 2272 0 
L 1638 0 
L 1638 4134 
L -19 4134 
L -19 4666 
z
" transform="scale(0.015625)"/>
                    </defs>
                    <use xlink:href="#DejaVuSans-43"/>
                    <use xlink:href="#DejaVuSans-6f" x="69.824219"/>
                    <use xlink:href="#DejaVuSans-6e" x="131.005859"/>
                    <use xlink:href="#DejaVuSans-6e" x="194.384766"/>
                    <use xlink:href="#DejaVuSans-65" x="257.763672"/>
                    <use xlink:href="#DejaVuSans-63" x="319.287109"/>
                    <use xlink:href="#DejaVuSans-74" x="374.267578"/>
                    <use xlink:href="#DejaVuSans-69" x="413.476562"/>
                    <use xlink:href="#DejaVuSans-76" x="441.259766"/>
                    <use xlink:href="#DejaVuSans-65" x="500.439453"/>
                    <use xlink:href="#DejaVuSans-20" x="561.962891"/>
                    <use xlink:href="#DejaVuSans-54" x="593.75"/>
                    <use xlink:href="#DejaVuSans-69" x="651.708984"/>
                    <use xlink:href="#DejaVuSans-73" x="679.492188"/>
                    <use xlink:href="#DejaVuSans-73" x="731.591797"/>
                    <use xlink:href="#DejaVuSans-75" x="783.691406"/>
                    <use xlink:href="#DejaVuSans-65" x="847.070312"/>
                </g>
            </g>
            <g id="text_5">
                <!-- Dermatological -->
                <g transform="translate(606.381704 312.952046)scale(0.2 -0.2)">
                    <defs>
                        <path id="DejaVuSans-44" d="M 1259 4147
L 1259 519 
L 2022 519 
Q 2988 519 3436 956 
Q 3884 1394 3884 2338 
Q 3884 3275 3436 3711 
Q 2988 4147 2022 4147 
L 1259 4147 
z
M 628 4666 
L 1925 4666 
Q 3281 4666 3915 4102 
Q 4550 3538 4550 2338 
Q 4550 1131 3912 565 
Q 3275 0 1925 0 
L 628 0 
L 628 4666 
z
" transform="scale(0.015625)"/>
                        <path id="DejaVuSans-6d" d="M 3328 2828
Q 3544 3216 3844 3400 
Q 4144 3584 4550 3584 
Q 5097 3584 5394 3201 
Q 5691 2819 5691 2113 
L 5691 0 
L 5113 0 
L 5113 2094 
Q 5113 2597 4934 2840 
Q 4756 3084 4391 3084 
Q 3944 3084 3684 2787 
Q 3425 2491 3425 1978 
L 3425 0 
L 2847 0 
L 2847 2094 
Q 2847 2600 2669 2842 
Q 2491 3084 2119 3084 
Q 1678 3084 1418 2786 
Q 1159 2488 1159 1978 
L 1159 0 
L 581 0 
L 581 3500 
L 1159 3500 
L 1159 2956 
Q 1356 3278 1631 3431 
Q 1906 3584 2284 3584 
Q 2666 3584 2933 3390 
Q 3200 3197 3328 2828 
z
" transform="scale(0.015625)"/>
                        <path id="DejaVuSans-67" d="M 2906 1791
Q 2906 2416 2648 2759 
Q 2391 3103 1925 3103 
Q 1463 3103 1205 2759 
Q 947 2416 947 1791 
Q 947 1169 1205 825 
Q 1463 481 1925 481 
Q 2391 481 2648 825 
Q 2906 1169 2906 1791 
z
M 3481 434 
Q 3481 -459 3084 -895 
Q 2688 -1331 1869 -1331 
Q 1566 -1331 1297 -1286 
Q 1028 -1241 775 -1147 
L 775 -588 
Q 1028 -725 1275 -790 
Q 1522 -856 1778 -856 
Q 2344 -856 2625 -561 
Q 2906 -266 2906 331 
L 2906 616 
Q 2728 306 2450 153 
Q 2172 0 1784 0 
Q 1141 0 747 490 
Q 353 981 353 1791 
Q 353 2603 747 3093 
Q 1141 3584 1784 3584 
Q 2172 3584 2450 3431 
Q 2728 3278 2906 2969 
L 2906 3500 
L 3481 3500 
L 3481 434 
z
" transform="scale(0.015625)"/>
                    </defs>
                    <use xlink:href="#DejaVuSans-44"/>
                    <use xlink:href="#DejaVuSans-65" x="77.001953"/>
                    <use xlink:href="#DejaVuSans-72" x="138.525391"/>
                    <use xlink:href="#DejaVuSans-6d" x="177.888672"/>
                    <use xlink:href="#DejaVuSans-61" x="275.300781"/>
                    <use xlink:href="#DejaVuSans-74" x="336.580078"/>
                    <use xlink:href="#DejaVuSans-6f" x="375.789062"/>
                    <use xlink:href="#DejaVuSans-6c" x="436.970703"/>
                    <use xlink:href="#DejaVuSans-6f" x="464.753906"/>
                    <use xlink:href="#DejaVuSans-67" x="525.935547"/>
                    <use xlink:href="#DejaVuSans-69" x="589.412109"/>
                    <use xlink:href="#DejaVuSans-63" x="617.195312"/>
                    <use xlink:href="#DejaVuSans-61" x="672.175781"/>
                    <use xlink:href="#DejaVuSans-6c" x="733.455078"/>
                </g>
            </g>
            <g id="text_6">
                <!-- Endocrine -->
                <g transform="translate(603.243325 301.039114)scale(0.2 -0.2)">
                    <defs>
                        <path id="DejaVuSans-45" d="M 628 4666
L 3578 4666 
L 3578 4134 
L 1259 4134 
L 1259 2753 
L 3481 2753 
L 3481 2222 
L 1259 2222 
L 1259 531 
L 3634 531 
L 3634 0 
L 628 0 
L 628 4666 
z
" transform="scale(0.015625)"/>
                    </defs>
                    <use xlink:href="#DejaVuSans-45"/>
                    <use xlink:href="#DejaVuSans-6e" x="63.183594"/>
                    <use xlink:href="#DejaVuSans-64" x="126.5625"/>
                    <use xlink:href="#DejaVuSans-6f" x="190.039062"/>
                    <use xlink:href="#DejaVuSans-63" x="251.220703"/>
                    <use xlink:href="#DejaVuSans-72" x="306.201172"/>
                    <use xlink:href="#DejaVuSans-69" x="347.314453"/>
                    <use xlink:href="#DejaVuSans-6e" x="375.097656"/>
                    <use xlink:href="#DejaVuSans-65" x="438.476562"/>
                </g>
            </g>
            <g id="text_7">
                <!-- Environmental -->
                <g transform="translate(590.283162 266.461387)scale(0.2 -0.2)">
                    <use xlink:href="#DejaVuSans-45"/>
                    <use xlink:href="#DejaVuSans-6e" x="63.183594"/>
                    <use xlink:href="#DejaVuSans-76" x="126.5625"/>
                    <use xlink:href="#DejaVuSans-69" x="185.742188"/>
                    <use xlink:href="#DejaVuSans-72" x="213.525391"/>
                    <use xlink:href="#DejaVuSans-6f" x="252.388672"/>
                    <use xlink:href="#DejaVuSans-6e" x="313.570312"/>
                    <use xlink:href="#DejaVuSans-6d" x="376.949219"/>
                    <use xlink:href="#DejaVuSans-65" x="474.361328"/>
                    <use xlink:href="#DejaVuSans-6e" x="535.884766"/>
                    <use xlink:href="#DejaVuSans-74" x="599.263672"/>
                    <use xlink:href="#DejaVuSans-61" x="638.472656"/>
                    <use xlink:href="#DejaVuSans-6c" x="699.751953"/>
                </g>
            </g>
            <g id="text_8">
                <!-- Immunological -->
                <g transform="translate(399.719958 127.124832)scale(0.2 -0.2)">
                    <defs>
                        <path id="DejaVuSans-49" d="M 628 4666
L 1259 4666 
L 1259 0 
L 628 0 
L 628 4666 
z
" transform="scale(0.015625)"/>
                    </defs>
                    <use xlink:href="#DejaVuSans-49"/>
                    <use xlink:href="#DejaVuSans-6d" x="29.492188"/>
                    <use xlink:href="#DejaVuSans-6d" x="126.904297"/>
                    <use xlink:href="#DejaVuSans-75" x="224.316406"/>
                    <use xlink:href="#DejaVuSans-6e" x="287.695312"/>
                    <use xlink:href="#DejaVuSans-6f" x="351.074219"/>
                    <use xlink:href="#DejaVuSans-6c" x="412.255859"/>
                    <use xlink:href="#DejaVuSans-6f" x="440.039062"/>
                    <use xlink:href="#DejaVuSans-67" x="501.220703"/>
                    <use xlink:href="#DejaVuSans-69" x="564.697266"/>
                    <use xlink:href="#DejaVuSans-63" x="592.480469"/>
                    <use xlink:href="#DejaVuSans-61" x="647.460938"/>
                    <use xlink:href="#DejaVuSans-6c" x="708.740234"/>
                </g>
            </g>
            <g id="text_9">
                <!-- Metabolic -->
                <g transform="translate(34.35992 422.8847)scale(0.2 -0.2)">
                    <defs>
                        <path id="DejaVuSans-4d" d="M 628 4666
L 1569 4666 
L 2759 1491 
L 3956 4666 
L 4897 4666 
L 4897 0 
L 4281 0 
L 4281 4097 
L 3078 897 
L 2444 897 
L 1241 4097 
L 1241 0 
L 628 0 
L 628 4666 
z
" transform="scale(0.015625)"/>
                        <path id="DejaVuSans-62" d="M 3116 1747
Q 3116 2381 2855 2742 
Q 2594 3103 2138 3103 
Q 1681 3103 1420 2742 
Q 1159 2381 1159 1747 
Q 1159 1113 1420 752 
Q 1681 391 2138 391 
Q 2594 391 2855 752 
Q 3116 1113 3116 1747 
z
M 1159 2969 
Q 1341 3281 1617 3432 
Q 1894 3584 2278 3584 
Q 2916 3584 3314 3078 
Q 3713 2572 3713 1747 
Q 3713 922 3314 415 
Q 2916 -91 2278 -91 
Q 1894 -91 1617 61 
Q 1341 213 1159 525 
L 1159 0 
L 581 0 
L 581 4863 
L 1159 4863 
L 1159 2969 
z
" transform="scale(0.015625)"/>
                    </defs>
                    <use xlink:href="#DejaVuSans-4d"/>
                    <use xlink:href="#DejaVuSans-65" x="86.279297"/>
                    <use xlink:href="#DejaVuSans-74" x="147.802734"/>
                    <use xlink:href="#DejaVuSans-61" x="187.011719"/>
                    <use xlink:href="#DejaVuSans-62" x="248.291016"/>
                    <use xlink:href="#DejaVuSans-6f" x="311.767578"/>
                    <use xlink:href="#DejaVuSans-6c" x="372.949219"/>
                    <use xlink:href="#DejaVuSans-69" x="400.732422"/>
                    <use xlink:href="#DejaVuSans-63" x="428.515625"/>
                </g>
            </g>
            <g id="text_10">
                <!-- Neurological -->
                <g transform="translate(179.668001 604.366711)scale(0.2 -0.2)">
                    <defs>
                        <path id="DejaVuSans-4e" d="M 628 4666
L 1478 4666 
L 3547 763 
L 3547 4666 
L 4159 4666 
L 4159 0 
L 3309 0 
L 1241 3903 
L 1241 0 
L 628 0 
L 628 4666 
z
" transform="scale(0.015625)"/>
                    </defs>
                    <use xlink:href="#DejaVuSans-4e"/>
                    <use xlink:href="#DejaVuSans-65" x="74.804688"/>
                    <use xlink:href="#DejaVuSans-75" x="136.328125"/>
                    <use xlink:href="#DejaVuSans-72" x="199.707031"/>
                    <use xlink:href="#DejaVuSans-6f" x="238.570312"/>
                    <use xlink:href="#DejaVuSans-6c" x="299.751953"/>
                    <use xlink:href="#DejaVuSans-6f" x="327.535156"/>
                    <use xlink:href="#DejaVuSans-67" x="388.716797"/>
                    <use xlink:href="#DejaVuSans-69" x="452.193359"/>
                    <use xlink:href="#DejaVuSans-63" x="479.976562"/>
                    <use xlink:href="#DejaVuSans-61" x="534.957031"/>
                    <use xlink:href="#DejaVuSans-6c" x="596.236328"/>
                </g>
            </g>
            <g id="text_11">
                <!-- Nutritional -->
                <g transform="translate(230.458987 610.790004)scale(0.2 -0.2)">
                    <use xlink:href="#DejaVuSans-4e"/>
                    <use xlink:href="#DejaVuSans-75" x="74.804688"/>
                    <use xlink:href="#DejaVuSans-74" x="138.183594"/>
                    <use xlink:href="#DejaVuSans-72" x="177.392578"/>
                    <use xlink:href="#DejaVuSans-69" x="218.505859"/>
                    <use xlink:href="#DejaVuSans-74" x="246.289062"/>
                    <use xlink:href="#DejaVuSans-69" x="285.498047"/>
                    <use xlink:href="#DejaVuSans-6f" x="313.28125"/>
                    <use xlink:href="#DejaVuSans-6e" x="374.462891"/>
                    <use xlink:href="#DejaVuSans-61" x="437.841797"/>
                    <use xlink:href="#DejaVuSans-6c" x="499.121094"/>
                </g>
            </g>
            <g id="text_12">
                <!-- Psychiatric -->
                <g transform="translate(435.895651 603.702944)scale(0.2 -0.2)">
                    <defs>
                        <path id="DejaVuSans-50" d="M 1259 4147
L 1259 2394 
L 2053 2394 
Q 2494 2394 2734 2622 
Q 2975 2850 2975 3272 
Q 2975 3691 2734 3919 
Q 2494 4147 2053 4147 
L 1259 4147 
z
M 628 4666 
L 2053 4666 
Q 2838 4666 3239 4311 
Q 3641 3956 3641 3272 
Q 3641 2581 3239 2228 
Q 2838 1875 2053 1875 
L 1259 1875 
L 1259 0 
L 628 0 
L 628 4666 
z
" transform="scale(0.015625)"/>
                        <path id="DejaVuSans-79" d="M 2059 -325
Q 1816 -950 1584 -1140 
Q 1353 -1331 966 -1331 
L 506 -1331 
L 506 -850 
L 844 -850 
Q 1081 -850 1212 -737 
Q 1344 -625 1503 -206 
L 1606 56 
L 191 3500 
L 800 3500 
L 1894 763 
L 2988 3500 
L 3597 3500 
L 2059 -325 
z
" transform="scale(0.015625)"/>
                        <path id="DejaVuSans-68" d="M 3513 2113
L 3513 0 
L 2938 0 
L 2938 2094 
Q 2938 2591 2744 2837 
Q 2550 3084 2163 3084 
Q 1697 3084 1428 2787 
Q 1159 2491 1159 1978 
L 1159 0 
L 581 0 
L 581 4863 
L 1159 4863 
L 1159 2956 
Q 1366 3272 1645 3428 
Q 1925 3584 2291 3584 
Q 2894 3584 3203 3211 
Q 3513 2838 3513 2113 
z
" transform="scale(0.015625)"/>
                    </defs>
                    <use xlink:href="#DejaVuSans-50"/>
                    <use xlink:href="#DejaVuSans-73" x="58.552734"/>
                    <use xlink:href="#DejaVuSans-79" x="110.652344"/>
                    <use xlink:href="#DejaVuSans-63" x="169.832031"/>
                    <use xlink:href="#DejaVuSans-68" x="224.8125"/>
                    <use xlink:href="#DejaVuSans-69" x="288.191406"/>
                    <use xlink:href="#DejaVuSans-61" x="315.974609"/>
                    <use xlink:href="#DejaVuSans-74" x="377.253906"/>
                    <use xlink:href="#DejaVuSans-72" x="416.462891"/>
                    <use xlink:href="#DejaVuSans-69" x="457.576172"/>
                    <use xlink:href="#DejaVuSans-63" x="485.359375"/>
                </g>
            </g>
            <g id="text_13">
                <!-- Reproduction -->
                <g transform="translate(512.979377 566.031703)scale(0.2 -0.2)">
                    <defs>
                        <path id="DejaVuSans-52" d="M 2841 2188
Q 3044 2119 3236 1894 
Q 3428 1669 3622 1275 
L 4263 0 
L 3584 0 
L 2988 1197 
Q 2756 1666 2539 1819 
Q 2322 1972 1947 1972 
L 1259 1972 
L 1259 0 
L 628 0 
L 628 4666 
L 2053 4666 
Q 2853 4666 3247 4331 
Q 3641 3997 3641 3322 
Q 3641 2881 3436 2590 
Q 3231 2300 2841 2188 
z
M 1259 4147 
L 1259 2491 
L 2053 2491 
Q 2509 2491 2742 2702 
Q 2975 2913 2975 3322 
Q 2975 3731 2742 3939 
Q 2509 4147 2053 4147 
L 1259 4147 
z
" transform="scale(0.015625)"/>
                        <path id="DejaVuSans-70" d="M 1159 525
L 1159 -1331 
L 581 -1331 
L 581 3500 
L 1159 3500 
L 1159 2969 
Q 1341 3281 1617 3432 
Q 1894 3584 2278 3584 
Q 2916 3584 3314 3078 
Q 3713 2572 3713 1747 
Q 3713 922 3314 415 
Q 2916 -91 2278 -91 
Q 1894 -91 1617 61 
Q 1341 213 1159 525 
z
M 3116 1747 
Q 3116 2381 2855 2742 
Q 2594 3103 2138 3103 
Q 1681 3103 1420 2742 
Q 1159 2381 1159 1747 
Q 1159 1113 1420 752 
Q 1681 391 2138 391 
Q 2594 391 2855 752 
Q 3116 1113 3116 1747 
z
" transform="scale(0.015625)"/>
                    </defs>
                    <use xlink:href="#DejaVuSans-52"/>
                    <use xlink:href="#DejaVuSans-65" x="64.982422"/>
                    <use xlink:href="#DejaVuSans-70" x="126.505859"/>
                    <use xlink:href="#DejaVuSans-72" x="189.982422"/>
                    <use xlink:href="#DejaVuSans-6f" x="228.845703"/>
                    <use xlink:href="#DejaVuSans-64" x="290.027344"/>
                    <use xlink:href="#DejaVuSans-75" x="353.503906"/>
                    <use xlink:href="#DejaVuSans-63" x="416.882812"/>
                    <use xlink:href="#DejaVuSans-74" x="471.863281"/>
                    <use xlink:href="#DejaVuSans-69" x="511.072266"/>
                    <use xlink:href="#DejaVuSans-6f" x="538.855469"/>
                    <use xlink:href="#DejaVuSans-6e" x="600.037109"/>
                </g>
            </g>
            <g id="text_14">
                <!-- Respiratory -->
                <g transform="translate(533.92689 548.851588)scale(0.2 -0.2)">
                    <use xlink:href="#DejaVuSans-52"/>
                    <use xlink:href="#DejaVuSans-65" x="64.982422"/>
                    <use xlink:href="#DejaVuSans-73" x="126.505859"/>
                    <use xlink:href="#DejaVuSans-70" x="178.605469"/>
                    <use xlink:href="#DejaVuSans-69" x="242.082031"/>
                    <use xlink:href="#DejaVuSans-72" x="269.865234"/>
                    <use xlink:href="#DejaVuSans-61" x="310.978516"/>
                    <use xlink:href="#DejaVuSans-74" x="372.257812"/>
                    <use xlink:href="#DejaVuSans-6f" x="411.466797"/>
                    <use xlink:href="#DejaVuSans-72" x="472.648438"/>
                    <use xlink:href="#DejaVuSans-79" x="513.761719"/>
                </g>
            </g>
            <g id="text_15">
                <!-- Skeletal -->
                <g transform="translate(596.983141 455.885446)scale(0.2 -0.2)">
                    <defs>
                        <path id="DejaVuSans-53" d="M 3425 4513
L 3425 3897 
Q 3066 4069 2747 4153 
Q 2428 4238 2131 4238 
Q 1616 4238 1336 4038 
Q 1056 3838 1056 3469 
Q 1056 3159 1242 3001 
Q 1428 2844 1947 2747 
L 2328 2669 
Q 3034 2534 3370 2195 
Q 3706 1856 3706 1288 
Q 3706 609 3251 259 
Q 2797 -91 1919 -91 
Q 1588 -91 1214 -16 
Q 841 59 441 206 
L 441 856 
Q 825 641 1194 531 
Q 1563 422 1919 422 
Q 2459 422 2753 634 
Q 3047 847 3047 1241 
Q 3047 1584 2836 1778 
Q 2625 1972 2144 2069 
L 1759 2144 
Q 1053 2284 737 2584 
Q 422 2884 422 3419 
Q 422 4038 858 4394 
Q 1294 4750 2059 4750 
Q 2388 4750 2728 4690 
Q 3069 4631 3425 4513 
z
" transform="scale(0.015625)"/>
                        <path id="DejaVuSans-6b" d="M 581 4863
L 1159 4863 
L 1159 1991 
L 2875 3500 
L 3609 3500 
L 1753 1863 
L 3688 0 
L 2938 0 
L 1159 1709 
L 1159 0 
L 581 0 
L 581 4863 
z
" transform="scale(0.015625)"/>
                    </defs>
                    <use xlink:href="#DejaVuSans-53"/>
                    <use xlink:href="#DejaVuSans-6b" x="63.476562"/>
                    <use xlink:href="#DejaVuSans-65" x="117.761719"/>
                    <use xlink:href="#DejaVuSans-6c" x="179.285156"/>
                    <use xlink:href="#DejaVuSans-65" x="207.068359"/>
                    <use xlink:href="#DejaVuSans-74" x="268.591797"/>
                    <use xlink:href="#DejaVuSans-61" x="307.800781"/>
                    <use xlink:href="#DejaVuSans-6c" x="369.080078"/>
                </g>
            </g>
            <g id="text_16">
                <!-- Cluster6 -->
                <g transform="translate(318.774375 80.4)scale(0.24 -0.24)">
                    <defs>
                        <path id="DejaVuSans-36" d="M 2113 2584
Q 1688 2584 1439 2293 
Q 1191 2003 1191 1497 
Q 1191 994 1439 701 
Q 1688 409 2113 409 
Q 2538 409 2786 701 
Q 3034 994 3034 1497 
Q 3034 2003 2786 2293 
Q 2538 2584 2113 2584 
z
M 3366 4563 
L 3366 3988 
Q 3128 4100 2886 4159 
Q 2644 4219 2406 4219 
Q 1781 4219 1451 3797 
Q 1122 3375 1075 2522 
Q 1259 2794 1537 2939 
Q 1816 3084 2150 3084 
Q 2853 3084 3261 2657 
Q 3669 2231 3669 1497 
Q 3669 778 3244 343 
Q 2819 -91 2113 -91 
Q 1303 -91 875 529 
Q 447 1150 447 2328 
Q 447 3434 972 4092 
Q 1497 4750 2381 4750 
Q 2619 4750 2861 4703 
Q 3103 4656 3366 4563 
z
" transform="scale(0.015625)"/>
                    </defs>
                    <use xlink:href="#DejaVuSans-43"/>
                    <use xlink:href="#DejaVuSans-6c" x="69.824219"/>
                    <use xlink:href="#DejaVuSans-75" x="97.607422"/>
                    <use xlink:href="#DejaVuSans-73" x="160.986328"/>
                    <use xlink:href="#DejaVuSans-74" x="213.085938"/>
                    <use xlink:href="#DejaVuSans-65" x="252.294922"/>
                    <use xlink:href="#DejaVuSans-72" x="313.818359"/>
                    <use xlink:href="#DejaVuSans-36" x="354.931641"/>
                </g>
            </g>
        </g>
    </g>
</svg>
