<?xml version="1.0" encoding="utf-8" standalone="no"?>
<!DOCTYPE svg PUBLIC "-//W3C//DTD SVG 1.1//EN"
        "http://www.w3.org/Graphics/SVG/1.1/DTD/svg11.dtd">
<svg xmlns:xlink="http://www.w3.org/1999/xlink" width="720pt" height="720pt" viewBox="0 0 720 720"
     xmlns="http://www.w3.org/2000/svg" version="1.1">
    <metadata>
        <rdf:RDF xmlns:dc="http://purl.org/dc/elements/1.1/" xmlns:cc="http://creativecommons.org/ns#"
                 xmlns:rdf="http://www.w3.org/1999/02/22-rdf-syntax-ns#">
            <cc:Work>
                <dc:type rdf:resource="http://purl.org/dc/dcmitype/StillImage"/>
                <dc:date>2022-05-29T16:22:24.499212</dc:date>
                <dc:format>image/svg+xml</dc:format>
                <dc:creator>
                    <cc:Agent>
                        <dc:title>Matplotlib v3.5.1, https://matplotlib.org/</dc:title>
                    </cc:Agent>
                </dc:creator>
            </cc:Work>
        </rdf:RDF>
    </metadata>
    <defs>
        <style type="text/css">*{stroke-linejoin: round; stroke-linecap: butt}</style>
    </defs>
    <g id="figure_1">
        <g id="patch_1">
            <path d="M 0 720
L 720 720 
L 720 0 
L 0 0 
z
" style="fill: #ffffff"/>
        </g>
        <g id="axes_1">
            <g id="patch_2">
                <path d="M 590.76 363.6
C 590.76 353.744321 590.102976 343.899595 588.7933 334.131321 
C 587.483623 324.363048 585.524205 314.69294 582.928082 305.185335 
L 518.749658 322.709734 
C 520.566944 329.365058 521.938536 336.134134 522.85531 342.971925 
C 523.772083 349.809716 524.232 356.701025 524.232 363.6 
L 590.76 363.6 
z
" style="fill: #1f77b4; stroke: #ffffff; stroke-linejoin: miter"/>
            </g>
            <g id="patch_3">
                <path d="M 582.928082 305.185335
C 580.33196 295.677729 577.104902 286.353759 573.268381 277.27546 
C 569.43186 268.197161 564.994402 259.384711 559.985531 250.896741 
L 502.689872 284.707719 
C 506.196081 290.649297 509.302302 296.818013 511.987867 303.172822 
C 514.673432 309.527632 516.932372 316.054411 518.749658 322.709734 
L 582.928082 305.185335 
z
" style="fill: #ff7f0e; stroke: #ffffff; stroke-linejoin: miter"/>
            </g>
            <g id="patch_4">
                <path d="M 559.985531 250.896741
C 557.83952 247.260138 555.590079 243.685571 553.239959 240.177412 
C 550.889838 236.669253 548.439998 233.228933 545.893434 229.860661 
L 492.825404 269.982463 
C 494.607999 272.340253 496.322887 274.748477 497.967971 277.204188 
C 499.613055 279.6599 501.187664 282.162097 502.689872 284.707719 
L 559.985531 250.896741 
z
" style="fill: #2ca02c; stroke: #ffffff; stroke-linejoin: miter"/>
            </g>
            <g id="patch_5">
                <path d="M 545.893434 229.860661
C 540.799268 223.122745 535.324286 216.681385 529.49526 210.568079 
C 523.666235 204.454772 517.492681 198.6795 511.004786 193.270501 
L 468.40335 244.36935 
C 472.944877 248.15565 477.266364 252.198341 481.346682 256.477655 
C 485.427 260.756969 489.259487 265.265921 492.825404 269.982463 
L 545.893434 229.860661 
z
" style="fill: #d62728; stroke: #ffffff; stroke-linejoin: miter"/>
            </g>
            <g id="patch_6">
                <path d="M 511.004786 193.270501
C 504.516891 187.861501 497.725247 182.827606 490.663062 178.193428 
C 483.600877 173.55925 476.279682 169.332356 468.735274 165.533414 
L 438.814692 224.953389 
C 444.095777 227.612649 449.220614 230.571475 454.164143 233.8154 
C 459.107673 237.059324 463.861824 240.583051 468.40335 244.36935 
L 511.004786 193.270501 
z
" style="fill: #9467bd; stroke: #ffffff; stroke-linejoin: miter"/>
            </g>
            <g id="patch_7">
                <path d="M 468.735274 165.533414
C 466.221079 164.267405 463.683006 163.049383 461.122436 161.88001 
C 458.561866 160.710637 455.979262 159.590124 453.376029 158.519081 
L 428.06322 220.043357 
C 429.885483 220.793087 431.693306 221.577446 433.485705 222.396007 
C 435.278104 223.214568 437.054755 224.067184 438.814692 224.953389 
L 468.735274 165.533414 
z
" style="fill: #8c564b; stroke: #ffffff; stroke-linejoin: miter"/>
            </g>
            <g id="patch_8">
                <path d="M 453.376029 158.519081
C 449.471032 156.912456 445.520943 155.417693 441.530595 154.03662 
C 437.540246 152.655546 433.511266 151.388727 429.448581 150.23771 
L 411.314007 214.246397 
C 414.157886 215.052109 416.978172 215.938883 419.771416 216.905634 
C 422.56466 217.872385 425.329722 218.918719 428.06322 220.043357 
L 453.376029 158.519081 
z
" style="fill: #e377c2; stroke: #ffffff; stroke-linejoin: miter"/>
            </g>
            <g id="patch_9">
                <path d="M 429.448581 150.23771
C 424.031382 148.702941 418.557697 147.375039 413.039426 146.256892 
C 407.521156 145.138745 401.962302 144.231165 396.374952 143.536124 
L 388.162466 209.555287 
C 392.073611 210.041815 395.964809 210.677122 399.827598 211.459824 
C 403.690388 212.242527 407.521968 213.172058 411.314007 214.246397 
L 429.448581 150.23771 
z
" style="fill: #7f7f7f; stroke: #ffffff; stroke-linejoin: miter"/>
            </g>
            <g id="patch_10">
                <path d="M 396.374952 143.536124
C 352.766476 138.111426 308.514165 145.769589 269.264733 165.53341 
C 230.0153 185.297231 197.512353 216.288727 175.903353 254.553302 
L 233.832347 287.267311 
C 248.958647 260.482109 271.71071 238.788062 299.185313 224.953387 
C 326.659916 211.118712 357.636533 205.757998 388.162466 209.555287 
L 396.374952 143.536124 
z
" style="fill: #bcbd22; stroke: #ffffff; stroke-linejoin: miter"/>
            </g>
            <g id="patch_11">
                <path d="M 175.903353 254.553302
C 148.963682 302.257268 140.634635 358.292275 152.534743 411.769388 
C 164.43485 465.246501 195.7399 512.461847 240.366576 544.240361 
C 284.993253 576.018875 339.850672 590.159547 394.278732 583.91451 
C 448.706792 577.669473 498.935755 551.471263 535.204941 510.410815 
L 485.343459 466.36757 
C 459.955029 495.109884 424.794754 513.448631 386.695112 517.820157 
C 348.59547 522.191683 310.195277 512.293212 278.956603 490.048253 
C 247.71793 467.803293 225.804395 434.752551 217.47432 397.318572 
C 209.144245 359.884592 214.974578 320.660088 233.832347 287.267311 
L 175.903353 254.553302 
z
" style="fill: #17becf; stroke: #ffffff; stroke-linejoin: miter"/>
            </g>
            <g id="patch_12">
                <path d="M 535.204941 510.410815
C 538.000402 507.246065 540.704902 504.002117 543.315132 500.682939 
C 545.925363 497.363761 548.440259 493.970707 550.856744 490.507928 
L 496.299721 452.43555 
C 494.608181 454.859495 492.847754 457.234633 491.020593 459.558057 
C 489.193431 461.881482 487.300281 464.152245 485.343459 466.36757 
L 535.204941 510.410815 
z
" style="fill: #1f77b4; stroke: #ffffff; stroke-linejoin: miter"/>
            </g>
            <g id="patch_13">
                <path d="M 550.856744 490.507928
C 554.884707 484.735931 558.635588 478.775439 562.096649 472.646696 
C 565.557709 466.517953 568.725025 460.227906 571.58784 453.79792 
L 510.811488 426.738544 
C 508.807518 431.239534 506.590396 435.642567 504.167654 439.932687 
C 501.744912 444.222807 499.119295 448.395152 496.299721 452.43555 
L 550.856744 490.507928 
z
" style="fill: #ff7f0e; stroke: #ffffff; stroke-linejoin: miter"/>
            </g>
            <g id="patch_14">
                <path d="M 571.58784 453.79792
C 577.316708 440.930672 581.806685 427.54684 584.996882 413.827924 
C 588.18708 400.109008 590.06301 386.117306 590.599235 372.04256 
L 524.119464 369.509792 
C 523.744107 379.362114 522.430956 389.156306 520.197818 398.759547 
C 517.96468 408.362788 514.821696 417.73147 510.811488 426.738544 
L 571.58784 453.79792 
z
" style="fill: #2ca02c; stroke: #ffffff; stroke-linejoin: miter"/>
            </g>
            <g id="patch_15">
                <path d="M 590.599235 372.04256
C 590.652817 370.636136 590.693009 369.229234 590.719805 367.822045 
C 590.746601 366.414856 590.76 365.007444 590.76 363.6 
L 524.232 363.6 
C 524.232 364.585211 524.222621 365.570399 524.203864 366.555432 
C 524.185106 367.540464 524.156972 368.525295 524.119464 369.509792 
L 590.599235 372.04256 
z
" style="fill: #d62728; stroke: #ffffff; stroke-linejoin: miter"/>
            </g>
            <g id="patch_16">
                <path d="M 524.232 363.6
C 524.232 362.614789 524.222621 361.629601 524.203864 360.644568 
C 524.185106 359.659536 524.156972 358.674705 524.119464 357.690208 
L 457.639694 360.222976 
C 457.661127 360.785545 457.677204 361.348306 457.687922 361.911182 
C 457.69864 362.474057 457.704 363.037022 457.704 363.6 
L 524.232 363.6 
z
" style="fill: #9467bd; stroke: #ffffff; stroke-linejoin: miter"/>
            </g>
            <g id="patch_17">
                <path d="M 524.119464 357.690208
C 524.081957 356.705711 524.035077 355.721594 523.978833 354.73799 
C 523.922588 353.754386 523.856981 352.77134 523.78202 351.788985 
L 457.446869 356.850848 
C 457.489703 357.412194 457.527193 357.973935 457.559333 358.535994 
C 457.591473 359.098054 457.618261 359.660406 457.639694 360.222976 
L 524.119464 357.690208 
z
" style="fill: #8c564b; stroke: #ffffff; stroke-linejoin: miter"/>
            </g>
            <g id="patch_18">
                <path d="M 523.78202 351.788985
C 523.707059 350.80663 523.622748 349.825011 523.529098 348.844261 
C 523.435447 347.863511 523.332462 346.883675 523.220157 345.904886 
L 457.125804 353.488506 
C 457.189979 354.047814 457.248827 354.607721 457.302341 355.168149 
C 457.355856 355.728577 457.404034 356.289503 457.446869 356.850848 
L 523.78202 351.788985 
z
" style="fill: #e377c2; stroke: #ffffff; stroke-linejoin: miter"/>
            </g>
            <g id="patch_19">
                <path d="M 523.220157 345.904886
C 523.107851 344.926097 522.98623 343.948399 522.85531 342.971926 
C 522.72439 341.995452 522.584176 341.020248 522.434689 340.046444 
L 456.676965 350.140825 
C 456.762387 350.697284 456.842508 351.254544 456.91732 351.812529 
C 456.992131 352.370514 457.061629 352.929198 457.125804 353.488506 
L 523.220157 345.904886 
z
" style="fill: #7f7f7f; stroke: #ffffff; stroke-linejoin: miter"/>
            </g>
            <g id="patch_20">
                <path d="M 522.434689 340.046444
C 522.135708 338.098792 521.799669 336.157009 521.426756 334.222152 
C 521.053843 332.287294 520.644122 330.359713 520.197818 328.440455 
L 455.398753 343.508831 
C 455.653784 344.60555 455.88791 345.707025 456.101003 346.812658 
C 456.314097 347.918291 456.506119 349.027881 456.676965 350.140825 
L 522.434689 340.046444 
z
" style="fill: #bcbd22; stroke: #ffffff; stroke-linejoin: miter"/>
            </g>
            <g id="patch_21">
                <path d="M 520.197818 328.440455
C 519.974671 327.480848 519.742394 326.523387 519.501017 325.568202 
C 519.259641 324.613017 519.009176 323.660152 518.749658 322.709736 
L 454.571233 340.234135 
C 454.719529 340.77723 454.862652 341.321724 455.000581 341.867544 
C 455.138511 342.413364 455.271241 342.960484 455.398753 343.508831 
L 520.197818 328.440455 
z
" style="fill: #17becf; stroke: #ffffff; stroke-linejoin: miter"/>
            </g>
            <g id="patch_22">
                <path d="M 518.749658 322.709736
C 518.49014 321.75932 518.22158 320.811396 517.944014 319.866093 
C 517.666448 318.92079 517.379889 317.978151 517.084376 317.038304 
L 453.619643 336.993317 
C 453.788508 337.530372 453.952256 338.069023 454.110865 338.609196 
C 454.269474 339.149369 454.422937 339.69104 454.571233 340.234135 
L 518.749658 322.709736 
z
" style="fill: #1f77b4; stroke: #ffffff; stroke-linejoin: miter"/>
            </g>
            <g id="patch_23">
                <path d="M 517.084376 317.038304
C 516.788863 316.098457 516.484409 315.161445 516.171056 314.227394 
C 515.857703 313.293344 515.535464 312.362297 515.204385 311.434382 
L 452.545363 333.791076 
C 452.734551 334.321313 452.918687 334.853339 453.097746 335.387082 
C 453.276805 335.920825 453.450779 336.456261 453.619643 336.993317 
L 517.084376 317.038304 
z
" style="fill: #ff7f0e; stroke: #ffffff; stroke-linejoin: miter"/>
            </g>
            <g id="patch_24">
                <path d="M 515.204385 311.434382
C 514.873305 310.506467 514.5334 309.581724 514.184714 308.660281 
C 513.836028 307.738837 513.478578 306.820734 513.112412 305.906095 
L 451.34995 330.632055 
C 451.559187 331.154705 451.763444 331.679335 451.962694 332.205875 
C 452.161943 332.732414 452.356174 333.260838 452.545363 333.791076 
L 515.204385 311.434382 
z
" style="fill: #2ca02c; stroke: #ffffff; stroke-linejoin: miter"/>
            </g>
            <g id="patch_25">
                <path d="M 513.112412 305.906095
C 512.746246 304.991457 512.371381 304.080326 511.987868 303.172825 
C 511.604355 302.265324 511.212211 301.361494 510.811489 300.461459 
L 450.035137 327.520834 
C 450.26412 328.03514 450.488203 328.551614 450.707353 329.070186 
C 450.926503 329.588758 451.140712 330.109404 451.34995 330.632055 
L 513.112412 305.906095 
z
" style="fill: #d62728; stroke: #ffffff; stroke-linejoin: miter"/>
            </g>
            <g id="patch_26">
                <path d="M 510.811489 300.461459
C 510.410768 299.561424 510.001487 298.665225 509.583703 297.772982 
C 509.165919 296.88074 508.73965 295.992495 508.304954 295.108368 
L 448.602831 324.461925 
C 448.851228 324.96714 449.094811 325.474708 449.333545 325.984561 
C 449.572278 326.494414 449.806153 327.006528 450.035137 327.520834 
L 510.811489 300.461459 
z
" style="fill: #9467bd; stroke: #ffffff; stroke-linejoin: miter"/>
            </g>
            <g id="patch_27">
                <path d="M 508.304954 295.108368
C 507.870258 294.224241 507.427155 293.344273 506.975705 292.468583 
C 506.524256 291.592892 506.06448 290.72152 505.59644 289.854583 
L 447.055108 321.459762 
C 447.32256 321.955154 447.585289 322.453081 447.84326 322.953476 
C 448.101232 323.45387 448.354433 323.956709 448.602831 324.461925 
L 508.304954 295.108368 
z
" style="fill: #8c564b; stroke: #ffffff; stroke-linejoin: miter"/>
            </g>
            <g id="patch_28">
                <path d="M 505.59644 289.854583
C 505.1284 288.987647 504.652117 288.125185 504.167656 287.267317 
C 503.683196 286.409448 503.190579 285.556211 502.689874 284.707722 
L 445.394213 318.518698 
C 445.680331 319.003549 445.961826 319.491113 446.238661 319.981324 
C 446.515495 320.471534 446.787657 320.964369 447.055108 321.459762 
L 505.59644 289.854583 
z
" style="fill: #e377c2; stroke: #ffffff; stroke-linejoin: miter"/>
            </g>
            <g id="patch_29">
                <path d="M 502.689874 284.707722
C 502.189168 283.859232 501.680396 283.015529 501.163627 282.176726 
C 500.646858 281.337923 500.122115 280.504059 499.58947 279.675247 
L 443.622554 315.642998 
C 443.926923 316.116605 444.226776 316.593099 444.522073 317.072415 
C 444.817369 317.551731 445.108096 318.033847 445.394213 318.518698 
L 502.689874 284.707722 
z
" style="fill: #7f7f7f; stroke: #ffffff; stroke-linejoin: miter"/>
            </g>
            <g id="patch_30">
                <path d="M 499.58947 279.675247
C 499.056825 278.846435 498.516301 278.022712 497.967973 277.204191 
C 497.419645 276.38567 496.863537 275.572388 496.299724 274.764455 
L 441.742699 312.836831 
C 442.064878 313.298507 442.382654 313.76324 442.695985 314.230966 
C 443.009315 314.698693 443.318186 315.169391 443.622554 315.642998 
L 499.58947 279.675247 
z
" style="fill: #bcbd22; stroke: #ffffff; stroke-linejoin: miter"/>
            </g>
            <g id="patch_31">
                <path d="M 496.299724 274.764455
C 495.735912 273.956522 495.16442 273.153975 494.585328 272.356922 
C 494.006235 271.55987 493.419568 270.768349 492.825406 269.982466 
L 439.757375 310.104266 
C 440.096896 310.553342 440.432135 311.00564 440.763045 311.461098 
C 441.093954 311.916557 441.420521 312.375155 441.742699 312.836831 
L 496.299724 274.764455 
z
" style="fill: #17becf; stroke: #ffffff; stroke-linejoin: miter"/>
            </g>
            <g id="patch_32">
                <path d="M 492.825406 269.982466
C 491.637054 268.410665 490.418882 266.861633 489.171553 265.336213 
C 487.924223 263.810793 486.647961 262.309261 485.343462 260.832434 
L 435.481978 304.875677 
C 436.227407 305.719578 436.956699 306.577596 437.669459 307.449265 
C 438.382218 308.320933 439.078317 309.206094 439.757375 310.104266 
L 492.825406 269.982466 
z
" style="fill: #1f77b4; stroke: #ffffff; stroke-linejoin: miter"/>
            </g>
            <g id="patch_33">
                <path d="M 485.343462 260.832434
C 484.038963 259.355606 482.706462 257.903751 481.346685 256.477658 
C 479.986907 255.051564 478.6001 253.651491 477.187015 252.278198 
L 430.821152 299.987542 
C 431.628628 300.77228 432.42109 301.572322 433.198106 302.387233 
C 433.975121 303.202144 434.73655 304.031775 435.481978 304.875677 
L 485.343462 260.832434 
z
" style="fill: #ff7f0e; stroke: #ffffff; stroke-linejoin: miter"/>
            </g>
            <g id="patch_34">
                <path d="M 477.187015 252.278198
C 475.773931 250.904906 474.334827 249.558645 472.870485 248.240145 
C 471.406143 246.921646 469.916829 245.631148 468.403353 244.369353 
L 425.801916 295.468202 
C 426.66676 296.189227 427.517796 296.926655 428.354563 297.680083 
C 429.19133 298.433511 430.013675 299.202804 430.821152 299.987542 
L 477.187015 252.278198 
z
" style="fill: #2ca02c; stroke: #ffffff; stroke-linejoin: miter"/>
            </g>
            <g id="patch_35">
                <path d="M 468.403353 244.369353
C 467.646632 243.73847 466.883922 243.114805 466.115327 242.498443 
C 465.346731 241.882081 464.572286 241.27305 463.792095 240.671433 
L 423.166912 293.355105 
C 423.612735 293.698886 424.055275 294.046903 424.494472 294.39911 
C 424.93367 294.751317 425.369504 295.107697 425.801916 295.468202 
L 468.403353 244.369353 
z
" style="fill: #d62728; stroke: #ffffff; stroke-linejoin: miter"/>
            </g>
            <g id="patch_36">
                <path d="M 463.792095 240.671433
C 463.011905 240.069816 462.226004 239.47564 461.434501 238.888986 
C 460.642997 238.302332 459.845927 237.723227 459.043398 237.151749 
L 420.45337 291.343856 
C 420.911958 291.670415 421.367427 292.001333 421.819715 292.336564 
C 422.272002 292.671795 422.721088 293.011324 423.166912 293.355105 
L 463.792095 240.671433 
z
" style="fill: #9467bd; stroke: #ffffff; stroke-linejoin: miter"/>
            </g>
            <g id="patch_37">
                <path d="M 459.043398 237.151749
C 458.240869 236.58027 457.432918 236.016445 456.619654 235.460349 
C 455.80639 234.904254 454.98785 234.355913 454.164146 233.815402 
L 417.665227 289.437372 
C 418.135914 289.746236 418.603651 290.059573 419.068374 290.377342 
C 419.533096 290.695111 419.994782 291.017297 420.45337 291.343856 
L 459.043398 237.151749 
z
" style="fill: #8c564b; stroke: #ffffff; stroke-linejoin: miter"/>
            </g>
            <g id="patch_38">
                <path d="M 454.164146 233.815402
C 452.516701 232.734355 450.848822 231.684774 449.161415 230.66723 
C 447.474008 229.649686 445.76738 228.664364 444.042457 227.711798 
L 411.881404 285.949599 
C 412.867074 286.493922 413.84229 287.056963 414.806523 287.638417 
C 415.770755 288.219871 416.723829 288.819631 417.665227 289.437372 
L 454.164146 233.815402 
z
" style="fill: #e377c2; stroke: #ffffff; stroke-linejoin: miter"/>
            </g>
            <g id="patch_39">
                <path d="M 444.042457 227.711798
C 443.180016 227.235526 442.31306 226.767475 441.441707 226.30771 
C 440.570354 225.847944 439.694644 225.396484 438.814695 224.953391 
L 408.894112 284.373366 
C 409.396939 284.626562 409.897345 284.884539 410.395261 285.147263 
C 410.893177 285.409986 411.38858 285.677444 411.881404 285.949599 
L 444.042457 227.711798 
z
" style="fill: #7f7f7f; stroke: #ffffff; stroke-linejoin: miter"/>
            </g>
            <g id="patch_40">
                <path d="M 438.814695 224.953391
C 437.934747 224.510298 437.0506 224.075592 436.162375 223.649333 
C 435.27415 223.223074 434.381888 222.80528 433.485708 222.396008 
L 405.848976 282.912005 
C 406.361079 283.145874 406.870943 283.384614 407.3785 283.62819 
C 407.886057 283.871767 408.391284 284.12017 408.894112 284.373366 
L 438.814695 224.953391 
z
" style="fill: #bcbd22; stroke: #ffffff; stroke-linejoin: miter"/>
            </g>
            <g id="patch_41">
                <path d="M 433.485708 222.396008
C 432.589529 221.986737 431.689474 221.586007 430.785665 221.193871 
C 429.881856 220.801736 428.974334 220.418215 428.063224 220.043358 
L 402.750413 281.567633 
C 403.271048 281.781837 403.789632 282.000992 404.306094 282.225069 
C 404.822556 282.449147 405.336874 282.678135 405.848976 282.912005 
L 433.485708 222.396008 
z
" style="fill: #17becf; stroke: #ffffff; stroke-linejoin: miter"/>
            </g>
            <g id="patch_42">
                <path d="M 428.063224 220.043358
C 427.152113 219.668502 426.237454 219.302327 425.319371 218.944885 
C 424.401289 218.587443 423.479824 218.238749 422.555103 217.898851 
L 399.602916 280.342201 
C 400.131328 280.536428 400.657879 280.735682 401.182498 280.939934 
C 401.707116 281.144187 402.229779 281.353429 402.750413 281.567633 
L 428.063224 220.043358 
z
" style="fill: #1f77b4; stroke: #ffffff; stroke-linejoin: miter"/>
            </g>
            <g id="patch_43">
                <path d="M 422.555103 217.898851
C 421.630381 217.558953 420.702445 217.227866 419.77142 216.905635 
C 418.840395 216.583404 417.906323 216.270044 416.969332 215.965597 
L 396.411047 279.237484 
C 396.94647 279.411454 397.480226 279.590517 398.01224 279.774649 
C 398.544254 279.95878 399.074504 280.147973 399.602916 280.342201 
L 422.555103 217.898851 
z
" style="fill: #ff7f0e; stroke: #ffffff; stroke-linejoin: miter"/>
            </g>
            <g id="patch_44">
                <path d="M 416.969332 215.965597
C 416.032341 215.66115 415.092472 215.36563 414.149855 215.079077 
C 413.207237 214.792525 412.261913 214.514953 411.31401 214.246398 
L 393.179434 278.255085 
C 393.721093 278.408544 394.261278 278.567157 394.799917 278.730901 
C 395.338556 278.894646 395.875623 279.063514 396.411047 279.237484 
L 416.969332 215.965597 
z
" style="fill: #2ca02c; stroke: #ffffff; stroke-linejoin: miter"/>
            </g>
            <g id="patch_45">
                <path d="M 411.31401 214.246398
C 410.366108 213.977844 409.41567 213.71832 408.462827 213.467861 
C 407.509983 213.217402 406.554777 212.97602 405.597337 212.743748 
L 389.912764 277.396428 
C 390.459872 277.529155 391.005705 277.667087 391.550187 277.810206 
C 392.094669 277.953326 392.637776 278.101625 393.179434 278.255085 
L 411.31401 214.246398 
z
" style="fill: #d62728; stroke: #ffffff; stroke-linejoin: miter"/>
            </g>
            <g id="patch_46">
                <path d="M 405.597337 212.743748
C 404.639898 212.511476 403.680269 212.288324 402.718581 212.074322 
C 401.756893 211.86032 400.79319 211.655479 399.827602 211.459825 
L 386.615773 276.662757 
C 387.167537 276.774559 387.718225 276.891612 388.267761 277.013898 
C 388.817297 277.136185 389.365656 277.2637 389.912764 277.396428 
L 405.597337 212.743748 
z
" style="fill: #9467bd; stroke: #ffffff; stroke-linejoin: miter"/>
            </g>
            <g id="patch_47">
                <path d="M 399.827602 211.459825
C 397.896382 211.068509 395.957887 210.714 394.013169 210.396491 
C 392.068452 210.078982 390.117865 209.79853 388.16247 209.555287 
L 379.949983 275.57445 
C 381.067352 275.713445 382.181973 275.873704 383.29324 276.055138 
C 384.404507 276.236572 385.512218 276.439148 386.615773 276.662757 
L 399.827602 211.459825 
z
" style="fill: #8c564b; stroke: #ffffff; stroke-linejoin: miter"/>
            </g>
            <g id="patch_48">
                <path d="M 388.16247 209.555287
C 387.184795 209.433669 386.205983 209.321361 385.22617 209.218378 
C 384.246356 209.115395 383.265584 209.021743 382.283987 208.937433 
L 376.59085 275.221391 
C 377.151762 275.269567 377.712203 275.323083 378.272097 275.38193 
C 378.83199 275.440777 379.391311 275.504954 379.949983 275.57445 
L 388.16247 209.555287 
z
" style="fill: #e377c2; stroke: #ffffff; stroke-linejoin: miter"/>
            </g>
            <g id="patch_49">
                <path d="M 382.283987 208.937433
C 381.30239 208.853124 380.320013 208.778161 379.336989 208.712555 
C 378.353965 208.64695 377.370338 208.590704 376.386243 208.543826 
L 373.220711 274.996472 
C 373.783051 275.023259 374.345123 275.0554 374.906851 275.092889 
C 375.468579 275.130378 376.029937 275.173214 376.59085 275.221391 
L 382.283987 208.937433 
z
" style="fill: #7f7f7f; stroke: #ffffff; stroke-linejoin: miter"/>
            </g>
            <g id="patch_50">
                <path d="M 376.386243 208.543826
C 375.402148 208.496947 374.41763 208.459439 373.43282 208.431305 
C 372.448011 208.403171 371.462957 208.384413 370.477791 208.375034 
L 369.844452 274.90002 
C 370.407404 274.905379 370.970292 274.916098 371.53304 274.932174 
C 372.095788 274.948251 372.658371 274.969684 373.220711 274.996472 
L 376.386243 208.543826 
z
" style="fill: #bcbd22; stroke: #ffffff; stroke-linejoin: miter"/>
            </g>
            <g id="patch_51">
                <path d="M 370.477791 208.375034
C 369.492624 208.365655 368.507391 208.365655 367.522225 208.375034 
C 366.537059 208.384413 365.552004 208.403171 364.567195 208.431304 
L 366.466969 274.932174 
C 367.029717 274.916098 367.592605 274.905379 368.155557 274.90002 
C 368.718509 274.89466 369.2815 274.89466 369.844452 274.90002 
L 370.477791 208.375034 
z
" style="fill: #17becf; stroke: #ffffff; stroke-linejoin: miter"/>
            </g>
            <g id="patch_52">
                <path d="M 364.567195 208.431304
C 363.582386 208.459438 362.597867 208.496947 361.613772 208.543825 
C 360.629677 208.590703 359.646051 208.646949 358.663027 208.712554 
L 363.093158 275.092888 
C 363.654886 275.055399 364.216958 275.023259 364.779298 274.996471 
C 365.341638 274.969684 365.904221 274.94825 366.466969 274.932174 
L 364.567195 208.431304 
z
" style="fill: #1f77b4; stroke: #ffffff; stroke-linejoin: miter"/>
            </g>
            <g id="patch_53">
                <path d="M 358.663027 208.712554
C 357.680002 208.77816 356.697625 208.853123 355.716028 208.937432 
C 354.734432 209.021741 353.75366 209.115394 352.773846 209.218376 
L 359.727912 275.381929 
C 360.287805 275.323082 360.848247 275.269567 361.409159 275.22139 
C 361.970072 275.173213 362.53143 275.130377 363.093158 275.092888 
L 358.663027 208.712554 
z
" style="fill: #ff7f0e; stroke: #ffffff; stroke-linejoin: miter"/>
            </g>
            <g id="patch_54">
                <path d="M 352.773846 209.218376
C 351.794032 209.321359 350.815221 209.433667 349.837545 209.555285 
C 348.85987 209.676904 347.883374 209.807827 346.908191 209.948037 
L 356.376109 275.798878 
C 356.933357 275.718758 357.491354 275.643945 358.050026 275.574449 
C 358.608698 275.504952 359.168018 275.440776 359.727912 275.381929 
L 352.773846 209.218376 
z
" style="fill: #2ca02c; stroke: #ffffff; stroke-linejoin: miter"/>
            </g>
            <g id="patch_55">
                <path d="M 346.908191 209.948037
C 345.933009 210.088247 344.959183 210.237737 343.986846 210.396488 
C 343.014509 210.555239 342.043706 210.723244 341.074568 210.900478 
L 353.04261 276.34313 
C 353.596403 276.241853 354.151148 276.145851 354.706769 276.055136 
C 355.26239 275.964421 355.818862 275.878998 356.376109 275.798878 
L 346.908191 209.948037 
z
" style="fill: #d62728; stroke: #ffffff; stroke-linejoin: miter"/>
            </g>
            <g id="patch_56">
                <path d="M 341.074568 210.900478
C 340.10543 211.077712 339.138001 211.264169 338.172413 211.459822 
C 337.206825 211.655476 336.243122 211.860317 335.281434 212.074319 
L 349.732248 277.013896 
C 350.281784 276.89161 350.832472 276.774557 351.384236 276.662756 
C 351.936001 276.550954 352.488817 276.444407 353.04261 276.34313 
L 341.074568 210.900478 
z
" style="fill: #9467bd; stroke: #ffffff; stroke-linejoin: miter"/>
            </g>
            <g id="patch_57">
                <path d="M 335.281434 212.074319
C 334.319746 212.28832 333.360117 212.511472 332.402678 212.743745 
C 331.445238 212.976017 330.490032 213.217399 329.537188 213.467857 
L 346.449822 277.810204 
C 346.994304 277.667085 347.540136 277.529152 348.087244 277.396425 
C 348.634353 277.263698 349.182712 277.136183 349.732248 277.013896 
L 335.281434 212.074319 
z
" style="fill: #8c564b; stroke: #ffffff; stroke-linejoin: miter"/>
            </g>
            <g id="patch_58">
                <path d="M 329.537188 213.467857
C 328.584345 213.718316 327.633907 213.97784 326.686005 214.246394 
C 325.738102 214.514948 324.792778 214.79252 323.85016 215.079073 
L 343.200091 278.730899 
C 343.73873 278.567155 344.278915 278.408542 344.820574 278.255082 
C 345.362233 278.101623 345.90534 277.953323 346.449822 277.810204 
L 329.537188 213.467857 
z
" style="fill: #e377c2; stroke: #ffffff; stroke-linejoin: miter"/>
            </g>
            <g id="patch_59">
                <path d="M 323.85016 215.079073
C 322.907542 215.365625 321.967674 215.661145 321.030683 215.965592 
C 320.093692 216.270039 319.15962 216.583399 318.228595 216.90563 
L 339.987768 279.774646 
C 340.519783 279.590514 341.053538 279.411451 341.588962 279.237481 
C 342.124385 279.063512 342.661453 278.894643 343.200091 278.730899 
L 323.85016 215.079073 
z
" style="fill: #7f7f7f; stroke: #ffffff; stroke-linejoin: miter"/>
            </g>
            <g id="patch_60">
                <path d="M 318.228595 216.90563
C 317.29757 217.227861 316.369633 217.558948 315.444912 217.898846 
C 314.52019 218.238744 313.598726 218.587438 312.680643 218.94488 
L 336.81751 280.939931 
C 337.342129 280.735679 337.86868 280.536425 338.397092 280.342198 
C 338.925505 280.14797 339.455754 279.958778 339.987768 279.774646 
L 318.228595 216.90563 
z
" style="fill: #bcbd22; stroke: #ffffff; stroke-linejoin: miter"/>
            </g>
            <g id="patch_61">
                <path d="M 312.680643 218.94488
C 311.762561 219.302322 310.847902 219.668496 309.936791 220.043352 
C 309.02568 220.418209 308.118158 220.80173 307.214349 221.193865 
L 333.693914 282.225066 
C 334.210376 282.000989 334.72896 281.781833 335.249595 281.56763 
C 335.77023 281.353426 336.292892 281.144184 336.81751 280.939931 
L 312.680643 218.94488 
z
" style="fill: #17becf; stroke: #ffffff; stroke-linejoin: miter"/>
            </g>
            <g id="patch_62">
                <path d="M 307.214349 221.193865
C 306.31054 221.586 305.410485 221.986731 304.514306 222.396002 
C 303.618126 222.805273 302.725864 223.223067 301.837639 223.649326 
L 330.621508 283.628187 
C 331.129065 283.38461 331.638929 283.14587 332.151032 282.912001 
C 332.663134 282.678132 333.177452 282.449143 333.693914 282.225066 
L 307.214349 221.193865 
z
" style="fill: #1f77b4; stroke: #ffffff; stroke-linejoin: miter"/>
            </g>
            <g id="patch_63">
                <path d="M 301.837639 223.649326
C 300.949414 224.075586 300.065267 224.510291 299.185319 224.953384 
C 298.30537 225.396477 297.42966 225.847937 296.558307 226.307703 
L 327.604747 285.147259 
C 328.102663 284.884535 328.603069 284.626558 329.105896 284.373362 
C 329.608724 284.120166 330.113951 283.871763 330.621508 283.628187 
L 301.837639 223.649326 
z
" style="fill: #ff7f0e; stroke: #ffffff; stroke-linejoin: miter"/>
            </g>
            <g id="patch_64">
                <path d="M 296.558307 226.307703
C 295.686954 226.767468 294.819998 227.235519 293.957556 227.711791 
C 293.095115 228.188062 292.237227 228.672534 291.384009 229.165139 
L 324.648005 286.78008 
C 325.135558 286.498591 325.62578 286.22175 326.118604 285.949595 
C 326.611427 285.677439 327.106831 285.409982 327.604747 285.147259 
L 296.558307 226.307703 
z
" style="fill: #2ca02c; stroke: #ffffff; stroke-linejoin: miter"/>
            </g>
            <g id="patch_65">
                <path d="M 291.384009 229.165139
C 290.530791 229.657745 289.682283 230.158462 288.838598 230.667222 
C 287.994914 231.175982 287.156092 231.692763 286.322247 232.217494 
L 321.755569 288.524282 
C 322.232052 288.224436 322.711379 287.929133 323.193485 287.638413 
C 323.67559 287.347692 324.160452 287.061568 324.648005 286.78008 
L 291.384009 229.165139 
z
" style="fill: #d62728; stroke: #ffffff; stroke-linejoin: miter"/>
            </g>
            <g id="patch_66">
                <path d="M 286.322247 232.217494
C 285.488401 232.742225 284.65957 233.274882 283.835866 233.815393 
C 283.012163 234.355904 282.193623 234.904245 281.380359 235.46034 
L 318.931634 290.377337 
C 319.396356 290.059569 319.864093 289.746231 320.334781 289.437368 
C 320.805469 289.128504 321.279086 288.824128 321.755569 288.524282 
L 286.322247 232.217494 
z
" style="fill: #9467bd; stroke: #ffffff; stroke-linejoin: miter"/>
            </g>
            <g id="patch_67">
                <path d="M 281.380359 235.46034
C 280.567095 236.016436 279.759144 236.580261 278.956615 237.15174 
C 278.154085 237.723218 277.357015 238.302323 276.565512 238.888977 
L 316.180292 292.336558 
C 316.63258 292.001328 317.088049 291.67041 317.546637 291.343851 
C 318.005225 291.017292 318.466912 290.695106 318.931634 290.377337 
L 281.380359 235.46034 
z
" style="fill: #8c564b; stroke: #ffffff; stroke-linejoin: miter"/>
            </g>
            <g id="patch_68">
                <path d="M 276.565512 238.888977
C 275.774008 239.475631 274.988108 240.069807 274.207917 240.671424 
C 273.427726 241.273041 272.653281 241.882071 271.884685 242.498433 
L 313.505535 294.399105 
C 313.944732 294.046898 314.387272 293.69888 314.833095 293.355099 
C 315.278919 293.011318 315.728005 292.671789 316.180292 292.336558 
L 276.565512 238.888977 
z
" style="fill: #e377c2; stroke: #ffffff; stroke-linejoin: miter"/>
            </g>
            <g id="patch_69">
                <path d="M 271.884685 242.498433
C 271.11609 243.114795 270.35338 243.73846 269.596659 244.369343 
C 268.839938 245.000226 268.08924 245.638299 267.344667 246.283475 
L 310.911238 296.561986 
C 311.336708 296.193314 311.765679 295.828701 312.198091 295.468196 
C 312.630503 295.107691 313.066337 294.751311 313.505535 294.399105 
L 271.884685 242.498433 
z
" style="fill: #7f7f7f; stroke: #ffffff; stroke-linejoin: miter"/>
            </g>
            <g id="patch_70">
                <path d="M 267.344667 246.283475
C 266.600094 246.928651 265.861681 247.5809 265.129526 248.240135 
C 264.397372 248.89937 263.67151 249.565559 262.952039 250.238614 
L 308.401165 298.822065 
C 308.812291 298.437463 309.22707 298.056783 309.645444 297.680077 
C 310.063817 297.303372 310.485768 296.930657 310.911238 296.561986 
L 267.344667 246.283475 
z
" style="fill: #bcbd22; stroke: #ffffff; stroke-linejoin: miter"/>
            </g>
            <g id="patch_71">
                <path d="M 262.952039 250.238614
C 262.232569 250.911669 261.519522 251.591557 260.812996 252.278188 
C 260.10647 252.964818 259.406496 253.658159 258.713171 254.358116 
L 305.978955 301.176067 
C 306.375141 300.776091 306.775125 300.379896 307.178855 299.987536 
C 307.582584 299.595176 307.990039 299.206668 308.401165 298.822065 
L 262.952039 250.238614 
z
" style="fill: #17becf; stroke: #ffffff; stroke-linejoin: miter"/>
            </g>
            <g id="patch_72">
                <path d="M 258.713171 254.358116
C 258.019845 255.058074 257.333199 255.764616 256.653326 256.477646 
C 255.973452 257.190677 255.300383 257.910164 254.634208 258.636009 
L 303.648119 303.620577 
C 304.02879 303.205808 304.413401 302.794673 304.8019 302.387227 
C 305.1904 301.97978 305.582769 301.576042 305.978955 301.176067 
L 258.713171 254.358116 
z
" style="fill: #1f77b4; stroke: #ffffff; stroke-linejoin: miter"/>
            </g>
            <g id="patch_73">
                <path d="M 254.634208 258.636009
C 253.968033 259.361855 253.308783 260.094025 252.656548 260.832422 
C 252.004313 261.570819 251.359123 262.315409 250.721064 263.06609 
L 301.412037 306.152051 
C 301.776641 305.723091 302.145322 305.297611 302.518027 304.87567 
C 302.890733 304.453729 303.267447 304.035345 303.648119 303.620577 
L 254.634208 258.636009 
z
" style="fill: #ff7f0e; stroke: #ffffff; stroke-linejoin: miter"/>
            </g>
            <g id="patch_74">
                <path d="M 250.721064 263.06609
C 250.083005 263.816771 249.452108 264.573509 248.828457 265.336201 
C 248.204806 266.098894 247.588431 266.867507 246.979414 267.641935 
L 299.273951 308.76682 
C 299.62196 308.32429 299.974175 307.885082 300.330547 307.449258 
C 300.686919 307.013434 301.047432 306.581012 301.412037 306.152051 
L 250.721064 263.06609 
z
" style="fill: #2ca02c; stroke: #ffffff; stroke-linejoin: miter"/>
            </g>
            <g id="patch_75">
                <path d="M 246.979414 267.641935
C 246.370397 268.416363 245.768766 269.196571 245.174603 269.982454 
C 244.580441 270.768336 243.993774 271.559857 243.414681 272.35691 
L 297.236961 311.461091 
C 297.567871 311.005633 297.903109 310.553335 298.242631 310.104259 
C 298.582152 309.655183 298.925941 309.20935 299.273951 308.76682 
L 246.979414 267.641935 
z
" style="fill: #d62728; stroke: #ffffff; stroke-linejoin: miter"/>
            </g>
            <g id="patch_76">
                <path d="M 243.414681 272.35691
C 242.835589 273.153962 242.264097 273.956509 241.700285 274.764442 
C 241.136472 275.572375 240.580364 276.385658 240.032036 277.204179 
L 295.30402 314.230959 
C 295.617351 313.763233 295.935127 313.2985 296.257306 312.836824 
C 296.579484 312.375148 296.906051 311.91655 297.236961 311.461091 
L 243.414681 272.35691 
z
" style="fill: #9467bd; stroke: #ffffff; stroke-linejoin: miter"/>
            </g>
            <g id="patch_77">
                <path d="M 240.032036 277.204179
C 239.483707 278.022699 238.943184 278.846422 238.410538 279.675234 
C 237.877893 280.504046 237.35315 281.33791 236.836381 282.176713 
L 293.477932 317.072407 
C 293.773229 316.593092 294.073082 316.116598 294.377451 315.642991 
C 294.681819 315.169384 294.99069 314.698685 295.30402 314.230959 
L 240.032036 277.204179 
z
" style="fill: #8c564b; stroke: #ffffff; stroke-linejoin: miter"/>
            </g>
            <g id="patch_78">
                <path d="M 236.836381 282.176713
C 236.319612 283.015516 235.81084 283.859219 235.310134 284.707709 
C 234.809429 285.556198 234.316812 286.409435 233.832351 287.267303 
L 291.761344 319.981316 
C 292.038178 319.491106 292.319674 319.003542 292.605791 318.518691 
C 292.891909 318.03384 293.182635 317.551723 293.477932 317.072407 
L 236.836381 282.176713 
z
" style="fill: #e377c2; stroke: #ffffff; stroke-linejoin: miter"/>
            </g>
            <g id="patch_79">
                <path d="M 233.832351 287.267303
C 233.347891 288.125172 232.871608 288.987633 232.403568 289.854569 
C 231.935528 290.721506 231.475751 291.592879 231.024302 292.468569 
L 290.156744 322.953468 
C 290.414715 322.453074 290.677444 321.955146 290.944896 321.459754 
C 291.212347 320.964362 291.484509 320.471527 291.761344 319.981316 
L 233.832351 287.267303 
z
" style="fill: #7f7f7f; stroke: #ffffff; stroke-linejoin: miter"/>
            </g>
            <g id="patch_80">
                <path d="M 231.024302 292.468569
C 230.572852 293.344259 230.129749 294.224228 229.695053 295.108354 
C 229.260357 295.992481 228.834088 296.880726 228.416304 297.772968 
L 288.666459 325.984553 
C 288.905193 325.4747 289.148775 324.967132 289.397173 324.461917 
C 289.645571 323.956701 289.898772 323.453862 290.156744 322.953468 
L 231.024302 292.468569 
z
" style="fill: #bcbd22; stroke: #ffffff; stroke-linejoin: miter"/>
            </g>
            <g id="patch_81">
                <path d="M 228.416304 297.772968
C 227.998519 298.665211 227.589238 299.56141 227.188517 300.461445 
C 226.787796 301.36148 226.395652 302.265309 226.012138 303.17281 
L 287.29265 329.070177 
C 287.511801 328.551605 287.735883 328.035131 287.964867 327.520826 
C 288.193851 327.00652 288.427725 326.494406 288.666459 325.984553 
L 228.416304 297.772968 
z
" style="fill: #17becf; stroke: #ffffff; stroke-linejoin: miter"/>
            </g>
            <g id="patch_82">
                <path d="M 226.012138 303.17281
C 225.628625 304.080311 225.25376 304.991443 224.887594 305.906081 
C 224.521428 306.820719 224.163978 307.738823 223.815292 308.660266 
L 286.03731 332.205866 
C 286.236559 331.679327 286.440816 331.154697 286.650054 330.632046 
C 286.859291 330.109396 287.0735 329.588749 287.29265 329.070177 
L 226.012138 303.17281 
z
" style="fill: #1f77b4; stroke: #ffffff; stroke-linejoin: miter"/>
            </g>
            <g id="patch_83">
                <path d="M 223.815292 308.660266
C 223.466606 309.58171 223.1267 310.506452 222.79562 311.434368 
C 222.464541 312.362283 222.142302 313.293329 221.828949 314.227379 
L 284.902257 335.387074 
C 285.081316 334.853331 285.265452 334.321305 285.45464 333.791067 
C 285.643829 333.26083 285.83806 332.732406 286.03731 332.205866 
L 223.815292 308.660266 
z
" style="fill: #ff7f0e; stroke: #ffffff; stroke-linejoin: miter"/>
            </g>
            <g id="patch_84">
                <path d="M 221.828949 314.227379
C 221.515596 315.16143 221.211142 316.098442 220.915629 317.038289 
C 220.620116 317.978136 220.333557 318.920775 220.055991 319.866078 
L 283.889138 338.609188 
C 284.047747 338.069015 284.211495 337.530364 284.380359 336.993308 
C 284.549224 336.456253 284.723198 335.920817 284.902257 335.387074 
L 221.828949 314.227379 
z
" style="fill: #2ca02c; stroke: #ffffff; stroke-linejoin: miter"/>
            </g>
            <g id="patch_85">
                <path d="M 220.055991 319.866078
C 219.778425 320.811381 219.509864 321.759305 219.250346 322.709721 
C 218.990828 323.660137 218.740363 324.613002 218.498987 325.568187 
L 282.999421 341.867535 
C 283.13735 341.321716 283.280473 340.777221 283.428769 340.234126 
C 283.577065 339.691031 283.730528 339.149361 283.889138 338.609188 
L 220.055991 319.866078 
z
" style="fill: #d62728; stroke: #ffffff; stroke-linejoin: miter"/>
            </g>
            <g id="patch_86">
                <path d="M 218.498987 325.568187
C 218.25761 326.523372 218.025333 327.480833 217.802185 328.44044 
C 217.579038 329.400047 217.365032 330.361757 217.160195 331.325438 
L 282.234397 345.157393 
C 282.351447 344.606718 282.473736 344.05717 282.601249 343.508823 
C 282.728761 342.960476 282.861492 342.413355 282.999421 341.867535 
L 218.498987 325.568187 
z
" style="fill: #9467bd; stroke: #ffffff; stroke-linejoin: miter"/>
            </g>
            <g id="patch_87">
                <path d="M 217.160195 331.325438
C 216.955358 332.28912 216.7597 333.25473 216.573247 334.222137 
C 216.386795 335.189543 216.209556 336.158703 216.041556 337.129485 
L 281.595175 348.473991 
C 281.691175 347.919259 281.792454 347.365453 281.898998 346.812649 
C 282.005543 346.259846 282.117347 345.708069 282.234397 345.157393 
L 217.160195 331.325438 
z
" style="fill: #8c564b; stroke: #ffffff; stroke-linejoin: miter"/>
            </g>
            <g id="patch_88">
                <path d="M 216.041556 337.129485
C 215.705547 339.071091 215.406539 341.01892 215.144692 342.971911 
C 214.882846 344.924902 214.658209 346.882701 214.470904 348.844245 
L 280.697659 355.16814 
C 280.804691 354.047258 280.933055 352.928515 281.082681 351.81252 
C 281.232308 350.696525 281.40317 349.583481 281.595175 348.473991 
L 216.041556 337.129485 
z
" style="fill: #e377c2; stroke: #ffffff; stroke-linejoin: miter"/>
            </g>
            <g id="patch_89">
                <path d="M 214.470904 348.844245
C 214.377254 349.824995 214.292942 350.806614 214.217981 351.788969 
C 214.14302 352.771324 214.077413 353.75437 214.021168 354.737975 
L 280.440667 358.535985 
C 280.472807 357.973926 280.510297 357.412185 280.553132 356.85084 
C 280.595967 356.289494 280.644145 355.728569 280.697659 355.16814 
L 214.470904 348.844245 
z
" style="fill: #7f7f7f; stroke: #ffffff; stroke-linejoin: miter"/>
            </g>
            <g id="patch_90">
                <path d="M 214.021168 354.737975
C 213.852424 357.688965 213.768 360.644173 213.768 363.599985 
C 213.768 366.555796 213.852423 369.511004 214.021166 372.461995 
L 280.440666 368.663997 
C 280.344242 366.977717 280.296 365.289026 280.296 363.599991 
C 280.296 361.910956 280.344242 360.222266 280.440667 358.535985 
L 214.021168 354.737975 
z
" style="fill: #bcbd22; stroke: #ffffff; stroke-linejoin: miter"/>
            </g>
            <g id="patch_91">
                <path d="M 214.021166 372.461995
C 214.18991 375.412985 214.442905 378.358554 214.779841 381.295099 
C 215.116778 384.231643 215.537519 387.157965 216.041551 390.070485 
L 281.595172 378.725991 
C 281.307154 377.061694 281.06673 375.38951 280.874195 373.711485 
C 280.68166 372.03346 280.537091 370.350277 280.440666 368.663997 
L 214.021166 372.461995 
z
" style="fill: #17becf; stroke: #ffffff; stroke-linejoin: miter"/>
            </g>
            <g id="patch_92">
                <path d="M 216.041551 390.070485
C 216.545582 392.983005 217.132697 395.880535 217.802178 398.75953 
C 218.47166 401.638525 219.223234 404.497812 220.055982 407.333892 
L 283.889133 388.590795 
C 283.413277 386.970178 282.983806 385.3363 282.601245 383.69116 
C 282.218684 382.04602 281.88319 380.390289 281.595172 378.725991 
L 216.041551 390.070485 
z
" style="fill: #1f77b4; stroke: #ffffff; stroke-linejoin: miter"/>
            </g>
            <g id="patch_93">
                <path d="M 220.055982 407.333892
C 220.88873 410.169972 221.802312 412.981689 222.79561 415.765603 
C 223.788908 418.549517 224.861518 421.304493 226.012126 424.027161 
L 287.292644 398.129806 
C 286.635153 396.573996 286.022233 394.999724 285.454634 393.408916 
C 284.887035 391.818108 284.364989 390.211413 283.889133 388.590795 
L 220.055982 407.333892 
z
" style="fill: #ff7f0e; stroke: #ffffff; stroke-linejoin: miter"/>
            </g>
            <g id="patch_94">
                <path d="M 226.012126 424.027161
C 227.162735 426.749829 228.390873 429.439078 229.695039 432.091618 
C 230.999205 434.744159 232.378867 437.358909 233.832336 439.93267 
L 291.761335 407.218668 
C 290.930781 405.747948 290.142403 404.253805 289.397165 402.738067 
C 288.651928 401.22233 287.950134 399.685616 287.292644 398.129806 
L 226.012126 424.027161 
z
" style="fill: #2ca02c; stroke: #ffffff; stroke-linejoin: miter"/>
            </g>
            <g id="patch_95">
                <path d="M 233.832336 439.93267
C 235.285805 442.506431 236.81249 445.038153 238.410522 447.52474 
C 240.008554 450.011327 241.677281 452.451764 243.414663 454.843065 
L 297.23695 415.738894 
C 296.244161 414.372436 295.290602 412.977901 294.377441 411.556994 
C 293.46428 410.136088 292.591889 408.689389 291.761335 407.218668 
L 233.832336 439.93267 
z
" style="fill: #d62728; stroke: #ffffff; stroke-linejoin: miter"/>
            </g>
            <g id="patch_96">
                <path d="M 243.414663 454.843065
C 244.572874 456.437206 245.761333 458.00915 246.979394 459.558041 
C 248.197456 461.106932 249.444898 462.632491 250.721044 464.133887 
L 301.412025 421.047935 
C 300.682799 420.189995 299.969975 419.318247 299.27394 418.433166 
C 298.577905 417.548086 297.898785 416.649832 297.23695 415.738894 
L 243.414663 454.843065 
z
" style="fill: #9467bd; stroke: #ffffff; stroke-linejoin: miter"/>
            </g>
            <g id="patch_97">
                <path d="M 250.721044 464.133887
C 251.99719 465.635283 253.301807 467.112244 254.634187 468.563968 
C 255.966567 470.015692 257.326467 471.441915 258.713149 472.841862 
L 305.978942 426.023921 
C 305.186553 425.223951 304.409467 424.408967 303.648107 423.57941 
C 302.886747 422.749854 302.141251 421.905876 301.412025 421.047935 
L 250.721044 464.133887 
z
" style="fill: #8c564b; stroke: #ffffff; stroke-linejoin: miter"/>
            </g>
            <g id="patch_98">
                <path d="M 258.713149 472.841862
C 259.406474 473.541819 260.106447 474.23516 260.812973 474.921791 
C 261.519499 475.608421 262.232546 476.28831 262.952017 476.961365 
L 308.401152 428.377923 
C 307.990026 427.99332 307.582571 427.604812 307.178842 427.212452 
C 306.775113 426.820092 306.375128 426.423897 305.978942 426.023921 
L 258.713149 472.841862 
z
" style="fill: #e377c2; stroke: #ffffff; stroke-linejoin: miter"/>
            </g>
            <g id="patch_99">
                <path d="M 262.952017 476.961365
C 263.671487 477.63442 264.397349 478.30061 265.129503 478.959844 
C 265.861657 479.619079 266.600071 480.271329 267.344644 480.916505 
L 310.911225 430.638003 
C 310.485755 430.269331 310.063804 429.896617 309.64543 429.519911 
C 309.227057 429.143205 308.812278 428.762525 308.401152 428.377923 
L 262.952017 476.961365 
z
" style="fill: #7f7f7f; stroke: #ffffff; stroke-linejoin: miter"/>
            </g>
            <g id="patch_100">
                <path d="M 267.344644 480.916505
C 268.833823 482.206886 270.347436 483.468796 271.884661 484.701548 
C 273.421886 485.934299 274.982444 487.13767 276.565487 488.311004 
L 316.180278 434.863431 
C 315.275683 434.192954 314.383935 433.505314 313.505521 432.800884 
C 312.627106 432.096455 311.762184 431.375364 310.911225 430.638003 
L 267.344644 480.916505 
z
" style="fill: #bcbd22; stroke: #ffffff; stroke-linejoin: miter"/>
            </g>
            <g id="patch_101">
                <path d="M 276.565487 488.311004
C 278.148529 489.484339 279.753769 490.627426 281.380334 491.739642 
C 283.006898 492.851859 284.654492 493.933004 286.32222 494.98249 
L 321.755555 438.675708 
C 320.802567 438.076002 319.861085 437.458205 318.931619 436.822653 
C 318.002154 436.1871 317.084874 435.533908 316.180278 434.863431 
L 276.565487 488.311004 
z
" style="fill: #17becf; stroke: #ffffff; stroke-linejoin: miter"/>
            </g>
            <g id="patch_102">
                <path d="M 286.32222 494.98249
C 287.989949 496.031975 289.677508 497.049612 291.383982 498.034845 
C 293.090456 499.020079 294.815534 499.972731 296.55828 500.892283 
L 327.604731 442.052733 
C 326.608877 441.527275 325.623118 440.982902 324.64799 440.419912 
C 323.672862 439.856921 322.708542 439.275415 321.755555 438.675708 
L 286.32222 494.98249 
z
" style="fill: #1f77b4; stroke: #ffffff; stroke-linejoin: miter"/>
            </g>
            <g id="patch_103">
                <path d="M 296.55828 500.892283
C 298.301025 501.811836 300.061121 502.698122 301.837611 503.55066 
C 303.614101 504.403199 305.406662 505.221834 307.214321 506.006122 
L 333.693898 444.974927 
C 332.66095 444.526762 331.636629 444.058971 330.621492 443.571806 
C 329.606355 443.084641 328.600586 442.578192 327.604731 442.052733 
L 296.55828 500.892283 
z
" style="fill: #ff7f0e; stroke: #ffffff; stroke-linejoin: miter"/>
            </g>
            <g id="patch_104">
                <path d="M 307.214321 506.006122
C 309.02198 506.79041 310.844408 507.540209 312.680614 508.255109 
C 314.516821 508.97001 316.366473 509.649883 318.228566 510.29436 
L 339.987752 447.425349 
C 338.923699 447.057076 337.866755 446.668577 336.817494 446.260062 
C 335.768233 445.851548 334.726846 445.423092 333.693898 444.974927 
L 307.214321 506.006122 
z
" style="fill: #2ca02c; stroke: #ffffff; stroke-linejoin: miter"/>
            </g>
            <g id="patch_105">
                <path d="M 318.228566 510.29436
C 320.090658 510.938837 321.964852 511.5478 323.85013 512.120918 
C 325.735408 512.694036 327.631428 513.231206 329.537158 513.732135 
L 346.449805 449.389791 
C 345.360816 449.103546 344.277376 448.796592 343.200075 448.469096 
C 342.122773 448.1416 341.051804 447.793621 339.987752 447.425349 
L 318.228566 510.29436 
z
" style="fill: #d62728; stroke: #ffffff; stroke-linejoin: miter"/>
            </g>
            <g id="patch_106">
                <path d="M 329.537158 513.732135
C 332.395862 514.483557 335.275444 515.153175 338.172383 515.740172 
C 341.069322 516.327168 343.982436 516.831303 346.908161 517.251959 
L 356.376092 451.401119 
C 354.704249 451.160744 353.039612 450.872667 351.384219 450.537241 
C 349.728825 450.201815 348.08335 449.819175 346.449805 449.389791 
L 329.537158 513.732135 
z
" style="fill: #9467bd; stroke: #ffffff; stroke-linejoin: miter"/>
            </g>
            <g id="patch_107">
                <path d="M 346.908161 517.251959
C 349.833886 517.672615 352.771029 518.009621 355.715998 518.262565 
C 358.660966 518.515509 361.612558 518.684288 364.567164 518.768695 
L 366.466951 452.267825 
C 364.778605 452.219593 363.091981 452.123148 361.409142 451.978609 
C 359.726302 451.834069 358.047935 451.641494 356.376092 451.401119 
L 346.908161 517.251959 
z
" style="fill: #8c564b; stroke: #ffffff; stroke-linejoin: miter"/>
            </g>
            <g id="patch_108">
                <path d="M 364.567164 518.768695
C 366.536827 518.824964 368.507383 518.843724 370.47776 518.824966 
C 372.448137 518.806208 374.417978 518.749934 376.386213 518.656176 
L 373.220693 452.203529 
C 372.095987 452.257105 370.970364 452.289262 369.844434 452.299981 
C 368.718504 452.3107 367.592473 452.299979 366.466951 452.267825 
L 364.567164 518.768695 
z
" style="fill: #e377c2; stroke: #ffffff; stroke-linejoin: miter"/>
            </g>
            <g id="patch_109">
                <path d="M 376.386213 518.656176
C 378.354447 518.562418 380.320718 518.431192 382.283956 518.262569 
C 384.247194 518.093947 386.207044 517.887959 388.162439 517.644717 
L 379.949965 451.625552 
C 378.832597 451.764548 377.712683 451.882255 376.590832 451.978611 
C 375.468982 452.074967 374.345398 452.149953 373.220693 452.203529 
L 376.386213 518.656176 
z
" style="fill: #7f7f7f; stroke: #ffffff; stroke-linejoin: miter"/>
            </g>
            <g id="patch_110">
                <path d="M 388.162439 517.644717
C 389.140115 517.523098 390.11661 517.392175 391.091793 517.251965 
C 392.066976 517.111755 393.040802 516.962265 394.013139 516.803514 
L 383.293222 451.144865 
C 382.737601 451.23558 382.181129 451.321003 381.623882 451.401123 
C 381.066635 451.481243 380.508637 451.556056 379.949965 451.625552 
L 388.162439 517.644717 
z
" style="fill: #bcbd22; stroke: #ffffff; stroke-linejoin: miter"/>
            </g>
            <g id="patch_111">
                <path d="M 394.013139 516.803514
C 394.985476 516.644763 395.956279 516.476759 396.925417 516.299525 
C 397.894555 516.122291 398.861984 515.935834 399.827572 515.740181 
L 386.615755 450.537246 
C 386.063991 450.649048 385.511174 450.755595 384.957381 450.856871 
C 384.403588 450.958148 383.848843 451.05415 383.293222 451.144865 
L 394.013139 516.803514 
z
" style="fill: #17becf; stroke: #ffffff; stroke-linejoin: miter"/>
            </g>
            <g id="patch_112">
                <path d="M 399.827572 515.740181
C 400.79316 515.544528 401.756863 515.339686 402.718551 515.125685 
C 403.680239 514.911683 404.639868 514.688531 405.597307 514.456259 
L 389.912747 449.803577 
C 389.365639 449.936304 388.81728 450.063819 388.267744 450.186106 
C 387.718208 450.308392 387.16752 450.425444 386.615755 450.537246 
L 399.827572 515.740181 
z
" style="fill: #1f77b4; stroke: #ffffff; stroke-linejoin: miter"/>
            </g>
            <g id="patch_113">
                <path d="M 405.597307 514.456259
C 406.554747 514.223987 407.509953 513.982605 408.462797 513.732147 
C 409.41564 513.481688 410.366078 513.222164 411.313981 512.95361 
L 393.179417 448.94492 
C 392.637759 449.09838 392.094652 449.246679 391.55017 449.389798 
C 391.005688 449.532917 390.459855 449.67085 389.912747 449.803577 
L 405.597307 514.456259 
z
" style="fill: #ff7f0e; stroke: #ffffff; stroke-linejoin: miter"/>
            </g>
            <g id="patch_114">
                <path d="M 411.313981 512.95361
C 412.261883 512.685056 413.207207 512.407484 414.149825 512.120932 
C 415.092443 511.834379 416.032311 511.53886 416.969303 511.234413 
L 396.41103 447.962522 
C 395.875606 448.136491 395.338539 448.30536 394.7999 448.469104 
C 394.261261 448.632848 393.721076 448.791461 393.179417 448.94492 
L 411.313981 512.95361 
z
" style="fill: #2ca02c; stroke: #ffffff; stroke-linejoin: miter"/>
            </g>
            <g id="patch_115">
                <path d="M 416.969303 511.234413
C 417.906294 510.929966 418.840366 510.616606 419.771391 510.294375 
C 420.702416 509.972144 421.630352 509.641058 422.555074 509.30116 
L 399.602899 446.857805 
C 399.074487 447.052033 398.544238 447.241225 398.012223 447.425357 
C 397.480209 447.609489 396.946454 447.788552 396.41103 447.962522 
L 416.969303 511.234413 
z
" style="fill: #d62728; stroke: #ffffff; stroke-linejoin: miter"/>
            </g>
            <g id="patch_116">
                <path d="M 422.555074 509.30116
C 423.479795 508.961262 424.40126 508.612568 425.319342 508.255126 
C 426.237425 507.897684 427.152084 507.53151 428.063195 507.156654 
L 402.750397 445.632374 
C 402.229762 445.846577 401.7071 446.055819 401.182481 446.260072 
C 400.657863 446.464325 400.131311 446.663578 399.602899 446.857805 
L 422.555074 509.30116 
z
" style="fill: #9467bd; stroke: #ffffff; stroke-linejoin: miter"/>
            </g>
            <g id="patch_117">
                <path d="M 428.063195 507.156654
C 428.974306 506.781797 429.881828 506.398276 430.785637 506.006141 
C 431.689446 505.614006 432.589501 505.213276 433.48568 504.804004 
L 405.84896 444.288003 
C 405.336858 444.521872 404.82254 444.750861 404.306078 444.974938 
C 403.789616 445.199015 403.271032 445.41817 402.750397 445.632374 
L 428.063195 507.156654 
z
" style="fill: #8c564b; stroke: #ffffff; stroke-linejoin: miter"/>
            </g>
            <g id="patch_118">
                <path d="M 433.48568 504.804004
C 436.174381 503.576117 438.827462 502.271685 441.441679 500.892305 
C 444.055896 499.512925 446.630182 498.059159 449.161389 496.532786 
L 414.806508 439.561592 
C 413.360104 440.433805 411.889084 441.264528 410.395245 442.052746 
C 408.901407 442.840963 407.385361 443.586352 405.84896 444.288003 
L 433.48568 504.804004 
z
" style="fill: #e377c2; stroke: #ffffff; stroke-linejoin: miter"/>
            </g>
            <g id="patch_119">
                <path d="M 449.161389 496.532786
C 450.848796 495.515242 452.516675 494.465662 454.164121 493.384615 
C 455.811566 492.303569 457.438278 491.191252 459.043373 490.048269 
L 420.453356 435.856154 
C 419.536159 436.509287 418.606609 437.144896 417.665212 437.762637 
C 416.723815 438.380378 415.77074 438.980139 414.806508 439.561592 
L 449.161389 496.532786 
z
" style="fill: #7f7f7f; stroke: #ffffff; stroke-linejoin: miter"/>
            </g>
            <g id="patch_120">
                <path d="M 459.043373 490.048269
C 459.845902 489.476791 460.642973 488.897686 461.434476 488.311032 
C 462.225979 487.724378 463.01188 487.130202 463.792071 486.528586 
L 423.166898 433.844906 
C 422.721074 434.188687 422.271988 434.528216 421.819701 434.863447 
C 421.367413 435.198678 420.911944 435.529595 420.453356 435.856154 
L 459.043373 490.048269 
z
" style="fill: #bcbd22; stroke: #ffffff; stroke-linejoin: miter"/>
            </g>
            <g id="patch_121">
                <path d="M 463.792071 486.528586
C 464.572262 485.926969 465.346707 485.317938 466.115303 484.701576 
C 466.883898 484.085215 467.646608 483.46155 468.403329 482.830667 
L 425.801902 431.73181 
C 425.36949 432.092314 424.933656 432.448694 424.494459 432.800901 
C 424.055261 433.153108 423.612721 433.501125 423.166898 433.844906 
L 463.792071 486.528586 
z
" style="fill: #17becf; stroke: #ffffff; stroke-linejoin: miter"/>
            </g>
            <g id="patch_122">
                <path d="M 468.403329 482.830667
C 469.16005 482.199784 469.910748 481.561711 470.655321 480.916535 
C 471.399894 480.27136 472.138308 479.61911 472.870462 478.959875 
L 428.35455 429.519929 
C 427.936176 429.896634 427.514225 430.269348 427.088755 430.63802 
C 426.663285 431.006692 426.234315 431.371305 425.801902 431.73181 
L 468.403329 482.830667 
z
" style="fill: #1f77b4; stroke: #ffffff; stroke-linejoin: miter"/>
            </g>
            <g id="patch_123">
                <path d="M 472.870462 478.959875
C 473.602617 478.300641 474.328479 477.634451 475.04795 476.961397 
C 475.76742 476.288342 476.480467 475.608453 477.186993 474.921823 
L 430.821139 427.21247 
C 430.41741 427.604831 430.009954 427.993338 429.598828 428.377941 
C 429.187702 428.762543 428.772924 429.143223 428.35455 429.519929 
L 472.870462 478.959875 
z
" style="fill: #ff7f0e; stroke: #ffffff; stroke-linejoin: miter"/>
            </g>
            <g id="patch_124">
                <path d="M 477.186993 474.921823
C 477.893519 474.235193 478.593493 473.541852 479.286818 472.841895 
C 479.980144 472.141937 480.66679 471.435395 481.346663 470.722365 
L 433.198093 424.81278 
C 432.809594 425.220226 432.417225 425.623964 432.021039 426.02394 
C 431.624853 426.423915 431.224868 426.82011 430.821139 427.21247 
L 477.186993 474.921823 
z
" style="fill: #2ca02c; stroke: #ffffff; stroke-linejoin: miter"/>
            </g>
            <g id="patch_125">
                <path d="M 481.346663 470.722365
C 482.026537 470.009334 482.699607 469.289847 483.365782 468.564002 
C 484.031957 467.838157 484.691207 467.105986 485.343442 466.367589 
L 435.481967 422.324337 
C 435.109261 422.746278 434.732547 423.164661 434.351875 423.57943 
C 433.971204 423.994199 433.586593 424.405334 433.198093 424.81278 
L 481.346663 470.722365 
z
" style="fill: #d62728; stroke: #ffffff; stroke-linejoin: miter"/>
            </g>
            <g id="patch_126">
                <path d="M 485.343442 466.367589
C 486.647941 464.890762 487.924203 463.38923 489.171533 461.863811 
C 490.418863 460.338391 491.637035 458.789359 492.825387 457.217559 
L 439.757364 417.095748 
C 439.078306 417.99392 438.382207 418.87908 437.669447 419.750749 
C 436.956687 420.622417 436.227395 421.480435 435.481967 422.324337 
L 485.343442 466.367589 
z
" style="fill: #9467bd; stroke: #ffffff; stroke-linejoin: miter"/>
            </g>
            <g id="patch_127">
                <path d="M 492.825387 457.217559
C 493.41955 456.431676 494.006217 455.640155 494.58531 454.843103 
C 495.164402 454.046051 495.735894 453.243503 496.299706 452.43557 
L 441.742689 414.363183 
C 441.420511 414.824859 441.093944 415.283457 440.763034 415.738916 
C 440.432124 416.194374 440.096886 416.646672 439.757364 417.095748 
L 492.825387 457.217559 
z
" style="fill: #8c564b; stroke: #ffffff; stroke-linejoin: miter"/>
            </g>
            <g id="patch_128">
                <path d="M 496.299706 452.43557
C 496.863519 451.627637 497.419627 450.814355 497.967956 449.995834 
C 498.516284 449.177313 499.056808 448.353591 499.589453 447.524779 
L 443.622545 411.557017 
C 443.318176 412.030623 443.009305 412.501322 442.695975 412.969048 
C 442.382644 413.436774 442.064868 413.901507 441.742689 414.363183 
L 496.299706 452.43557 
z
" style="fill: #e377c2; stroke: #ffffff; stroke-linejoin: miter"/>
            </g>
            <g id="patch_129">
                <path d="M 499.589453 447.524779
C 500.654768 445.867117 501.688424 444.189322 502.689858 442.492305 
C 503.691292 440.795288 504.660323 439.079356 505.596425 437.345444 
L 447.0551 405.740254 
C 446.520185 406.731061 445.966453 407.711593 445.394204 408.681317 
C 444.821956 409.651041 444.231296 410.609781 443.622545 411.557017 
L 499.589453 447.524779 
z
" style="fill: #7f7f7f; stroke: #ffffff; stroke-linejoin: miter"/>
            </g>
            <g id="patch_130">
                <path d="M 505.596425 437.345444
C 506.532526 435.611532 507.435529 433.859953 508.30494 432.09166 
C 509.174352 430.323366 510.010016 428.538679 510.811477 426.738569 
L 450.03513 399.679182 
C 449.577152 400.707817 449.09963 401.727638 448.602823 402.738091 
C 448.106016 403.748545 447.590015 404.749447 447.0551 405.740254 
L 505.596425 437.345444 
z
" style="fill: #bcbd22; stroke: #ffffff; stroke-linejoin: miter"/>
            </g>
            <g id="patch_131">
                <path d="M 510.811477 426.738569
C 511.212198 425.838534 511.604342 424.934705 511.987856 424.027204 
C 512.371369 423.119703 512.746234 422.208571 513.1124 421.293933 
L 451.349943 396.567962 
C 451.140705 397.090612 450.926497 397.611259 450.707346 398.129831 
C 450.488196 398.648403 450.264113 399.164877 450.03513 399.679182 
L 510.811477 426.738569 
z
" style="fill: #17becf; stroke: #ffffff; stroke-linejoin: miter"/>
            </g>
            <g id="patch_132">
                <path d="M 513.1124 421.293933
C 513.478566 420.379295 513.836017 419.461192 514.184703 418.539748 
C 514.533389 417.618304 514.873295 416.693562 515.204374 415.765647 
L 452.545357 393.408941 
C 452.356168 393.939178 452.161936 394.467603 451.962687 394.994142 
C 451.763438 395.520681 451.559181 396.045312 451.349943 396.567962 
L 513.1124 421.293933 
z
" style="fill: #1f77b4; stroke: #ffffff; stroke-linejoin: miter"/>
            </g>
            <g id="patch_133">
                <path d="M 515.204374 415.765647
C 515.535454 414.837732 515.857693 413.906686 516.171046 412.972635 
C 516.484399 412.038585 516.788853 411.101572 517.084366 410.161725 
L 453.619638 390.2067 
C 453.450773 390.743756 453.276799 391.279191 453.09774 391.812934 
C 452.918681 392.346677 452.734545 392.878704 452.545357 393.408941 
L 515.204374 415.765647 
z
" style="fill: #ff7f0e; stroke: #ffffff; stroke-linejoin: miter"/>
            </g>
            <g id="patch_134">
                <path d="M 517.084366 410.161725
C 517.675406 408.281989 518.230601 406.391169 518.74965 404.490294 
C 519.268699 402.589419 519.751507 400.678833 520.197811 398.759575 
L 455.398749 383.691186 
C 455.143718 384.787904 454.867828 385.879668 454.571229 386.965882 
C 454.274629 388.052097 453.957375 389.132565 453.619638 390.2067 
L 517.084366 410.161725 
z
" style="fill: #2ca02c; stroke: #ffffff; stroke-linejoin: miter"/>
            </g>
            <g id="patch_135">
                <path d="M 520.197811 398.759575
C 520.644116 396.840318 521.053836 394.912736 521.42675 392.977879 
C 521.799663 391.043021 522.135703 389.101239 522.434684 387.153587 
L 456.676963 377.059192 
C 456.506116 378.172136 456.314093 379.281726 456.101 380.387359 
C 455.887906 381.492992 455.65378 382.594467 455.398749 383.691186 
L 520.197811 398.759575 
z
" style="fill: #d62728; stroke: #ffffff; stroke-linejoin: miter"/>
            </g>
            <g id="patch_136">
                <path d="M 522.434684 387.153587
C 522.883174 384.231999 523.248126 381.298197 523.529095 378.35577 
C 523.810063 375.413343 524.006933 372.463491 524.119463 369.509823 
L 457.639693 366.977042 
C 457.57539 368.664852 457.462893 370.350482 457.30234 372.031869 
C 457.141786 373.713255 456.933242 375.389714 456.676963 377.059192 
L 522.434684 387.153587 
z
" style="fill: #9467bd; stroke: #ffffff; stroke-linejoin: miter"/>
            </g>
            <g id="patch_137">
                <path d="M 524.119463 369.509823
C 524.156971 368.525326 524.185105 367.540495 524.203863 366.555463 
C 524.22262 365.57043 524.232 364.585242 524.232 363.600031 
L 457.704 363.600018 
C 457.704 364.162995 457.69864 364.72596 457.687922 365.288836 
C 457.677203 365.851711 457.661126 366.414472 457.639693 366.977042 
L 524.119463 369.509823 
z
" style="fill: #8c564b; stroke: #ffffff; stroke-linejoin: miter"/>
            </g>
            <g id="matplotlib.axis_1"/>
            <g id="matplotlib.axis_2"/>
            <g id="text_1">
                <!-- Activities -->
                <g transform="translate(610.77263 333.943829)scale(0.1 -0.1)">
                    <defs>
                        <path id="DejaVuSans-41" d="M 2188 4044
L 1331 1722 
L 3047 1722 
L 2188 4044 
z
M 1831 4666 
L 2547 4666 
L 4325 0 
L 3669 0 
L 3244 1197 
L 1141 1197 
L 716 0 
L 50 0 
L 1831 4666 
z
" transform="scale(0.015625)"/>
                        <path id="DejaVuSans-63" d="M 3122 3366
L 3122 2828 
Q 2878 2963 2633 3030 
Q 2388 3097 2138 3097 
Q 1578 3097 1268 2742 
Q 959 2388 959 1747 
Q 959 1106 1268 751 
Q 1578 397 2138 397 
Q 2388 397 2633 464 
Q 2878 531 3122 666 
L 3122 134 
Q 2881 22 2623 -34 
Q 2366 -91 2075 -91 
Q 1284 -91 818 406 
Q 353 903 353 1747 
Q 353 2603 823 3093 
Q 1294 3584 2113 3584 
Q 2378 3584 2631 3529 
Q 2884 3475 3122 3366 
z
" transform="scale(0.015625)"/>
                        <path id="DejaVuSans-74" d="M 1172 4494
L 1172 3500 
L 2356 3500 
L 2356 3053 
L 1172 3053 
L 1172 1153 
Q 1172 725 1289 603 
Q 1406 481 1766 481 
L 2356 481 
L 2356 0 
L 1766 0 
Q 1100 0 847 248 
Q 594 497 594 1153 
L 594 3053 
L 172 3053 
L 172 3500 
L 594 3500 
L 594 4494 
L 1172 4494 
z
" transform="scale(0.015625)"/>
                        <path id="DejaVuSans-69" d="M 603 3500
L 1178 3500 
L 1178 0 
L 603 0 
L 603 3500 
z
M 603 4863 
L 1178 4863 
L 1178 4134 
L 603 4134 
L 603 4863 
z
" transform="scale(0.015625)"/>
                        <path id="DejaVuSans-76" d="M 191 3500
L 800 3500 
L 1894 563 
L 2988 3500 
L 3597 3500 
L 2284 0 
L 1503 0 
L 191 3500 
z
" transform="scale(0.015625)"/>
                        <path id="DejaVuSans-65" d="M 3597 1894
L 3597 1613 
L 953 1613 
Q 991 1019 1311 708 
Q 1631 397 2203 397 
Q 2534 397 2845 478 
Q 3156 559 3463 722 
L 3463 178 
Q 3153 47 2828 -22 
Q 2503 -91 2169 -91 
Q 1331 -91 842 396 
Q 353 884 353 1716 
Q 353 2575 817 3079 
Q 1281 3584 2069 3584 
Q 2775 3584 3186 3129 
Q 3597 2675 3597 1894 
z
M 3022 2063 
Q 3016 2534 2758 2815 
Q 2500 3097 2075 3097 
Q 1594 3097 1305 2825 
Q 1016 2553 972 2059 
L 3022 2063 
z
" transform="scale(0.015625)"/>
                        <path id="DejaVuSans-73" d="M 2834 3397
L 2834 2853 
Q 2591 2978 2328 3040 
Q 2066 3103 1784 3103 
Q 1356 3103 1142 2972 
Q 928 2841 928 2578 
Q 928 2378 1081 2264 
Q 1234 2150 1697 2047 
L 1894 2003 
Q 2506 1872 2764 1633 
Q 3022 1394 3022 966 
Q 3022 478 2636 193 
Q 2250 -91 1575 -91 
Q 1294 -91 989 -36 
Q 684 19 347 128 
L 347 722 
Q 666 556 975 473 
Q 1284 391 1588 391 
Q 1994 391 2212 530 
Q 2431 669 2431 922 
Q 2431 1156 2273 1281 
Q 2116 1406 1581 1522 
L 1381 1569 
Q 847 1681 609 1914 
Q 372 2147 372 2553 
Q 372 3047 722 3315 
Q 1072 3584 1716 3584 
Q 2034 3584 2315 3537 
Q 2597 3491 2834 3397 
z
" transform="scale(0.015625)"/>
                    </defs>
                    <use xlink:href="#DejaVuSans-41"/>
                    <use xlink:href="#DejaVuSans-63" x="66.658203"/>
                    <use xlink:href="#DejaVuSans-74" x="121.638672"/>
                    <use xlink:href="#DejaVuSans-69" x="160.847656"/>
                    <use xlink:href="#DejaVuSans-76" x="188.630859"/>
                    <use xlink:href="#DejaVuSans-69" x="247.810547"/>
                    <use xlink:href="#DejaVuSans-74" x="275.59375"/>
                    <use xlink:href="#DejaVuSans-69" x="314.802734"/>
                    <use xlink:href="#DejaVuSans-65" x="342.585938"/>
                    <use xlink:href="#DejaVuSans-73" x="404.109375"/>
                </g>
            </g>
            <g id="text_2">
                <!-- Cardiovascular -->
                <g transform="translate(593.695219 271.402381)scale(0.1 -0.1)">
                    <defs>
                        <path id="DejaVuSans-43" d="M 4122 4306
L 4122 3641 
Q 3803 3938 3442 4084 
Q 3081 4231 2675 4231 
Q 1875 4231 1450 3742 
Q 1025 3253 1025 2328 
Q 1025 1406 1450 917 
Q 1875 428 2675 428 
Q 3081 428 3442 575 
Q 3803 722 4122 1019 
L 4122 359 
Q 3791 134 3420 21 
Q 3050 -91 2638 -91 
Q 1578 -91 968 557 
Q 359 1206 359 2328 
Q 359 3453 968 4101 
Q 1578 4750 2638 4750 
Q 3056 4750 3426 4639 
Q 3797 4528 4122 4306 
z
" transform="scale(0.015625)"/>
                        <path id="DejaVuSans-61" d="M 2194 1759
Q 1497 1759 1228 1600 
Q 959 1441 959 1056 
Q 959 750 1161 570 
Q 1363 391 1709 391 
Q 2188 391 2477 730 
Q 2766 1069 2766 1631 
L 2766 1759 
L 2194 1759 
z
M 3341 1997 
L 3341 0 
L 2766 0 
L 2766 531 
Q 2569 213 2275 61 
Q 1981 -91 1556 -91 
Q 1019 -91 701 211 
Q 384 513 384 1019 
Q 384 1609 779 1909 
Q 1175 2209 1959 2209 
L 2766 2209 
L 2766 2266 
Q 2766 2663 2505 2880 
Q 2244 3097 1772 3097 
Q 1472 3097 1187 3025 
Q 903 2953 641 2809 
L 641 3341 
Q 956 3463 1253 3523 
Q 1550 3584 1831 3584 
Q 2591 3584 2966 3190 
Q 3341 2797 3341 1997 
z
" transform="scale(0.015625)"/>
                        <path id="DejaVuSans-72" d="M 2631 2963
Q 2534 3019 2420 3045 
Q 2306 3072 2169 3072 
Q 1681 3072 1420 2755 
Q 1159 2438 1159 1844 
L 1159 0 
L 581 0 
L 581 3500 
L 1159 3500 
L 1159 2956 
Q 1341 3275 1631 3429 
Q 1922 3584 2338 3584 
Q 2397 3584 2469 3576 
Q 2541 3569 2628 3553 
L 2631 2963 
z
" transform="scale(0.015625)"/>
                        <path id="DejaVuSans-64" d="M 2906 2969
L 2906 4863 
L 3481 4863 
L 3481 0 
L 2906 0 
L 2906 525 
Q 2725 213 2448 61 
Q 2172 -91 1784 -91 
Q 1150 -91 751 415 
Q 353 922 353 1747 
Q 353 2572 751 3078 
Q 1150 3584 1784 3584 
Q 2172 3584 2448 3432 
Q 2725 3281 2906 2969 
z
M 947 1747 
Q 947 1113 1208 752 
Q 1469 391 1925 391 
Q 2381 391 2643 752 
Q 2906 1113 2906 1747 
Q 2906 2381 2643 2742 
Q 2381 3103 1925 3103 
Q 1469 3103 1208 2742 
Q 947 2381 947 1747 
z
" transform="scale(0.015625)"/>
                        <path id="DejaVuSans-6f" d="M 1959 3097
Q 1497 3097 1228 2736 
Q 959 2375 959 1747 
Q 959 1119 1226 758 
Q 1494 397 1959 397 
Q 2419 397 2687 759 
Q 2956 1122 2956 1747 
Q 2956 2369 2687 2733 
Q 2419 3097 1959 3097 
z
M 1959 3584 
Q 2709 3584 3137 3096 
Q 3566 2609 3566 1747 
Q 3566 888 3137 398 
Q 2709 -91 1959 -91 
Q 1206 -91 779 398 
Q 353 888 353 1747 
Q 353 2609 779 3096 
Q 1206 3584 1959 3584 
z
" transform="scale(0.015625)"/>
                        <path id="DejaVuSans-75" d="M 544 1381
L 544 3500 
L 1119 3500 
L 1119 1403 
Q 1119 906 1312 657 
Q 1506 409 1894 409 
Q 2359 409 2629 706 
Q 2900 1003 2900 1516 
L 2900 3500 
L 3475 3500 
L 3475 0 
L 2900 0 
L 2900 538 
Q 2691 219 2414 64 
Q 2138 -91 1772 -91 
Q 1169 -91 856 284 
Q 544 659 544 1381 
z
M 1991 3584 
L 1991 3584 
z
" transform="scale(0.015625)"/>
                        <path id="DejaVuSans-6c" d="M 603 4863
L 1178 4863 
L 1178 0 
L 603 0 
L 603 4863 
z
" transform="scale(0.015625)"/>
                    </defs>
                    <use xlink:href="#DejaVuSans-43"/>
                    <use xlink:href="#DejaVuSans-61" x="69.824219"/>
                    <use xlink:href="#DejaVuSans-72" x="131.103516"/>
                    <use xlink:href="#DejaVuSans-64" x="170.466797"/>
                    <use xlink:href="#DejaVuSans-69" x="233.943359"/>
                    <use xlink:href="#DejaVuSans-6f" x="261.726562"/>
                    <use xlink:href="#DejaVuSans-76" x="322.908203"/>
                    <use xlink:href="#DejaVuSans-61" x="382.087891"/>
                    <use xlink:href="#DejaVuSans-73" x="443.367188"/>
                    <use xlink:href="#DejaVuSans-63" x="495.466797"/>
                    <use xlink:href="#DejaVuSans-75" x="550.447266"/>
                    <use xlink:href="#DejaVuSans-6c" x="613.826172"/>
                    <use xlink:href="#DejaVuSans-61" x="641.609375"/>
                    <use xlink:href="#DejaVuSans-72" x="702.888672"/>
                </g>
            </g>
            <g id="text_3">
                <!-- Cell -->
                <g transform="translate(571.663954 230.594528)scale(0.1 -0.1)">
                    <use xlink:href="#DejaVuSans-43"/>
                    <use xlink:href="#DejaVuSans-65" x="69.824219"/>
                    <use xlink:href="#DejaVuSans-6c" x="131.347656"/>
                    <use xlink:href="#DejaVuSans-6c" x="159.130859"/>
                </g>
            </g>
            <g id="text_4">
                <!-- Dermatological -->
                <g transform="translate(545.544786 198.024261)scale(0.1 -0.1)">
                    <defs>
                        <path id="DejaVuSans-44" d="M 1259 4147
L 1259 519 
L 2022 519 
Q 2988 519 3436 956 
Q 3884 1394 3884 2338 
Q 3884 3275 3436 3711 
Q 2988 4147 2022 4147 
L 1259 4147 
z
M 628 4666 
L 1925 4666 
Q 3281 4666 3915 4102 
Q 4550 3538 4550 2338 
Q 4550 1131 3912 565 
Q 3275 0 1925 0 
L 628 0 
L 628 4666 
z
" transform="scale(0.015625)"/>
                        <path id="DejaVuSans-6d" d="M 3328 2828
Q 3544 3216 3844 3400 
Q 4144 3584 4550 3584 
Q 5097 3584 5394 3201 
Q 5691 2819 5691 2113 
L 5691 0 
L 5113 0 
L 5113 2094 
Q 5113 2597 4934 2840 
Q 4756 3084 4391 3084 
Q 3944 3084 3684 2787 
Q 3425 2491 3425 1978 
L 3425 0 
L 2847 0 
L 2847 2094 
Q 2847 2600 2669 2842 
Q 2491 3084 2119 3084 
Q 1678 3084 1418 2786 
Q 1159 2488 1159 1978 
L 1159 0 
L 581 0 
L 581 3500 
L 1159 3500 
L 1159 2956 
Q 1356 3278 1631 3431 
Q 1906 3584 2284 3584 
Q 2666 3584 2933 3390 
Q 3200 3197 3328 2828 
z
" transform="scale(0.015625)"/>
                        <path id="DejaVuSans-67" d="M 2906 1791
Q 2906 2416 2648 2759 
Q 2391 3103 1925 3103 
Q 1463 3103 1205 2759 
Q 947 2416 947 1791 
Q 947 1169 1205 825 
Q 1463 481 1925 481 
Q 2391 481 2648 825 
Q 2906 1169 2906 1791 
z
M 3481 434 
Q 3481 -459 3084 -895 
Q 2688 -1331 1869 -1331 
Q 1566 -1331 1297 -1286 
Q 1028 -1241 775 -1147 
L 775 -588 
Q 1028 -725 1275 -790 
Q 1522 -856 1778 -856 
Q 2344 -856 2625 -561 
Q 2906 -266 2906 331 
L 2906 616 
Q 2728 306 2450 153 
Q 2172 0 1784 0 
Q 1141 0 747 490 
Q 353 981 353 1791 
Q 353 2603 747 3093 
Q 1141 3584 1784 3584 
Q 2172 3584 2450 3431 
Q 2728 3278 2906 2969 
L 2906 3500 
L 3481 3500 
L 3481 434 
z
" transform="scale(0.015625)"/>
                    </defs>
                    <use xlink:href="#DejaVuSans-44"/>
                    <use xlink:href="#DejaVuSans-65" x="77.001953"/>
                    <use xlink:href="#DejaVuSans-72" x="138.525391"/>
                    <use xlink:href="#DejaVuSans-6d" x="177.888672"/>
                    <use xlink:href="#DejaVuSans-61" x="275.300781"/>
                    <use xlink:href="#DejaVuSans-74" x="336.580078"/>
                    <use xlink:href="#DejaVuSans-6f" x="375.789062"/>
                    <use xlink:href="#DejaVuSans-6c" x="436.970703"/>
                    <use xlink:href="#DejaVuSans-6f" x="464.753906"/>
                    <use xlink:href="#DejaVuSans-67" x="525.935547"/>
                    <use xlink:href="#DejaVuSans-69" x="589.412109"/>
                    <use xlink:href="#DejaVuSans-63" x="617.195312"/>
                    <use xlink:href="#DejaVuSans-61" x="672.175781"/>
                    <use xlink:href="#DejaVuSans-6c" x="733.455078"/>
                </g>
            </g>
            <g id="text_5">
                <!-- Endocrine -->
                <g transform="translate(502.829368 162.412146)scale(0.1 -0.1)">
                    <defs>
                        <path id="DejaVuSans-45" d="M 628 4666
L 3578 4666 
L 3578 4134 
L 1259 4134 
L 1259 2753 
L 3481 2753 
L 3481 2222 
L 1259 2222 
L 1259 531 
L 3634 531 
L 3634 0 
L 628 0 
L 628 4666 
z
" transform="scale(0.015625)"/>
                        <path id="DejaVuSans-6e" d="M 3513 2113
L 3513 0 
L 2938 0 
L 2938 2094 
Q 2938 2591 2744 2837 
Q 2550 3084 2163 3084 
Q 1697 3084 1428 2787 
Q 1159 2491 1159 1978 
L 1159 0 
L 581 0 
L 581 3500 
L 1159 3500 
L 1159 2956 
Q 1366 3272 1645 3428 
Q 1925 3584 2291 3584 
Q 2894 3584 3203 3211 
Q 3513 2838 3513 2113 
z
" transform="scale(0.015625)"/>
                    </defs>
                    <use xlink:href="#DejaVuSans-45"/>
                    <use xlink:href="#DejaVuSans-6e" x="63.183594"/>
                    <use xlink:href="#DejaVuSans-64" x="126.5625"/>
                    <use xlink:href="#DejaVuSans-6f" x="190.039062"/>
                    <use xlink:href="#DejaVuSans-63" x="251.220703"/>
                    <use xlink:href="#DejaVuSans-72" x="306.201172"/>
                    <use xlink:href="#DejaVuSans-69" x="347.314453"/>
                    <use xlink:href="#DejaVuSans-6e" x="375.097656"/>
                    <use xlink:href="#DejaVuSans-65" x="438.476562"/>
                </g>
            </g>
            <g id="text_6">
                <!-- Environment -->
                <g transform="translate(470.334679 144.467386)scale(0.1 -0.1)">
                    <use xlink:href="#DejaVuSans-45"/>
                    <use xlink:href="#DejaVuSans-6e" x="63.183594"/>
                    <use xlink:href="#DejaVuSans-76" x="126.5625"/>
                    <use xlink:href="#DejaVuSans-69" x="185.742188"/>
                    <use xlink:href="#DejaVuSans-72" x="213.525391"/>
                    <use xlink:href="#DejaVuSans-6f" x="252.388672"/>
                    <use xlink:href="#DejaVuSans-6e" x="313.570312"/>
                    <use xlink:href="#DejaVuSans-6d" x="376.949219"/>
                    <use xlink:href="#DejaVuSans-65" x="474.361328"/>
                    <use xlink:href="#DejaVuSans-6e" x="535.884766"/>
                    <use xlink:href="#DejaVuSans-74" x="599.263672"/>
                </g>
            </g>
            <g id="text_7">
                <!-- Environmental -->
                <g transform="translate(448.783654 135.839657)scale(0.1 -0.1)">
                    <use xlink:href="#DejaVuSans-45"/>
                    <use xlink:href="#DejaVuSans-6e" x="63.183594"/>
                    <use xlink:href="#DejaVuSans-76" x="126.5625"/>
                    <use xlink:href="#DejaVuSans-69" x="185.742188"/>
                    <use xlink:href="#DejaVuSans-72" x="213.525391"/>
                    <use xlink:href="#DejaVuSans-6f" x="252.388672"/>
                    <use xlink:href="#DejaVuSans-6e" x="313.570312"/>
                    <use xlink:href="#DejaVuSans-6d" x="376.949219"/>
                    <use xlink:href="#DejaVuSans-65" x="474.361328"/>
                    <use xlink:href="#DejaVuSans-6e" x="535.884766"/>
                    <use xlink:href="#DejaVuSans-74" x="599.263672"/>
                    <use xlink:href="#DejaVuSans-61" x="638.472656"/>
                    <use xlink:href="#DejaVuSans-6c" x="699.751953"/>
                </g>
            </g>
            <g id="text_8">
                <!-- Gastrointestinal -->
                <g transform="translate(417.443369 127.281956)scale(0.1 -0.1)">
                    <defs>
                        <path id="DejaVuSans-47" d="M 3809 666
L 3809 1919 
L 2778 1919 
L 2778 2438 
L 4434 2438 
L 4434 434 
Q 4069 175 3628 42 
Q 3188 -91 2688 -91 
Q 1594 -91 976 548 
Q 359 1188 359 2328 
Q 359 3472 976 4111 
Q 1594 4750 2688 4750 
Q 3144 4750 3555 4637 
Q 3966 4525 4313 4306 
L 4313 3634 
Q 3963 3931 3569 4081 
Q 3175 4231 2741 4231 
Q 1884 4231 1454 3753 
Q 1025 3275 1025 2328 
Q 1025 1384 1454 906 
Q 1884 428 2741 428 
Q 3075 428 3337 486 
Q 3600 544 3809 666 
z
" transform="scale(0.015625)"/>
                    </defs>
                    <use xlink:href="#DejaVuSans-47"/>
                    <use xlink:href="#DejaVuSans-61" x="77.490234"/>
                    <use xlink:href="#DejaVuSans-73" x="138.769531"/>
                    <use xlink:href="#DejaVuSans-74" x="190.869141"/>
                    <use xlink:href="#DejaVuSans-72" x="230.078125"/>
                    <use xlink:href="#DejaVuSans-6f" x="268.941406"/>
                    <use xlink:href="#DejaVuSans-69" x="330.123047"/>
                    <use xlink:href="#DejaVuSans-6e" x="357.90625"/>
                    <use xlink:href="#DejaVuSans-74" x="421.285156"/>
                    <use xlink:href="#DejaVuSans-65" x="460.494141"/>
                    <use xlink:href="#DejaVuSans-73" x="522.017578"/>
                    <use xlink:href="#DejaVuSans-74" x="574.117188"/>
                    <use xlink:href="#DejaVuSans-69" x="613.326172"/>
                    <use xlink:href="#DejaVuSans-6e" x="641.109375"/>
                    <use xlink:href="#DejaVuSans-61" x="704.488281"/>
                    <use xlink:href="#DejaVuSans-6c" x="765.767578"/>
                </g>
            </g>
            <g id="text_9">
                <!-- Immunological -->
                <g transform="translate(185.638081 148.486126)scale(0.1 -0.1)">
                    <defs>
                        <path id="DejaVuSans-49" d="M 628 4666
L 1259 4666 
L 1259 0 
L 628 0 
L 628 4666 
z
" transform="scale(0.015625)"/>
                    </defs>
                    <use xlink:href="#DejaVuSans-49"/>
                    <use xlink:href="#DejaVuSans-6d" x="29.492188"/>
                    <use xlink:href="#DejaVuSans-6d" x="126.904297"/>
                    <use xlink:href="#DejaVuSans-75" x="224.316406"/>
                    <use xlink:href="#DejaVuSans-6e" x="287.695312"/>
                    <use xlink:href="#DejaVuSans-6f" x="351.074219"/>
                    <use xlink:href="#DejaVuSans-6c" x="412.255859"/>
                    <use xlink:href="#DejaVuSans-6f" x="440.039062"/>
                    <use xlink:href="#DejaVuSans-67" x="501.220703"/>
                    <use xlink:href="#DejaVuSans-69" x="564.697266"/>
                    <use xlink:href="#DejaVuSans-63" x="592.480469"/>
                    <use xlink:href="#DejaVuSans-61" x="647.460938"/>
                    <use xlink:href="#DejaVuSans-6c" x="708.740234"/>
                </g>
            </g>
            <g id="text_10">
                <!-- Metabolic -->
                <g transform="translate(179.151672 565.063772)scale(0.1 -0.1)">
                    <defs>
                        <path id="DejaVuSans-4d" d="M 628 4666
L 1569 4666 
L 2759 1491 
L 3956 4666 
L 4897 4666 
L 4897 0 
L 4281 0 
L 4281 4097 
L 3078 897 
L 2444 897 
L 1241 4097 
L 1241 0 
L 628 0 
L 628 4666 
z
" transform="scale(0.015625)"/>
                        <path id="DejaVuSans-62" d="M 3116 1747
Q 3116 2381 2855 2742 
Q 2594 3103 2138 3103 
Q 1681 3103 1420 2742 
Q 1159 2381 1159 1747 
Q 1159 1113 1420 752 
Q 1681 391 2138 391 
Q 2594 391 2855 752 
Q 3116 1113 3116 1747 
z
M 1159 2969 
Q 1341 3281 1617 3432 
Q 1894 3584 2278 3584 
Q 2916 3584 3314 3078 
Q 3713 2572 3713 1747 
Q 3713 922 3314 415 
Q 2916 -91 2278 -91 
Q 1894 -91 1617 61 
Q 1341 213 1159 525 
L 1159 0 
L 581 0 
L 581 4863 
L 1159 4863 
L 1159 2969 
z
" transform="scale(0.015625)"/>
                    </defs>
                    <use xlink:href="#DejaVuSans-4d"/>
                    <use xlink:href="#DejaVuSans-65" x="86.279297"/>
                    <use xlink:href="#DejaVuSans-74" x="147.802734"/>
                    <use xlink:href="#DejaVuSans-61" x="187.011719"/>
                    <use xlink:href="#DejaVuSans-62" x="248.291016"/>
                    <use xlink:href="#DejaVuSans-6f" x="311.767578"/>
                    <use xlink:href="#DejaVuSans-6c" x="372.949219"/>
                    <use xlink:href="#DejaVuSans-69" x="400.732422"/>
                    <use xlink:href="#DejaVuSans-63" x="428.515625"/>
                </g>
            </g>
            <g id="text_11">
                <!-- Mortality -->
                <g transform="translate(560.746646 517.150608)scale(0.1 -0.1)">
                    <defs>
                        <path id="DejaVuSans-79" d="M 2059 -325
Q 1816 -950 1584 -1140 
Q 1353 -1331 966 -1331 
L 506 -1331 
L 506 -850 
L 844 -850 
Q 1081 -850 1212 -737 
Q 1344 -625 1503 -206 
L 1606 56 
L 191 3500 
L 800 3500 
L 1894 763 
L 2988 3500 
L 3597 3500 
L 2059 -325 
z
" transform="scale(0.015625)"/>
                    </defs>
                    <use xlink:href="#DejaVuSans-4d"/>
                    <use xlink:href="#DejaVuSans-6f" x="86.279297"/>
                    <use xlink:href="#DejaVuSans-72" x="147.460938"/>
                    <use xlink:href="#DejaVuSans-74" x="188.574219"/>
                    <use xlink:href="#DejaVuSans-61" x="227.783203"/>
                    <use xlink:href="#DejaVuSans-6c" x="289.0625"/>
                    <use xlink:href="#DejaVuSans-69" x="316.845703"/>
                    <use xlink:href="#DejaVuSans-74" x="344.628906"/>
                    <use xlink:href="#DejaVuSans-79" x="383.837891"/>
                </g>
            </g>
            <g id="text_12">
                <!-- Respiratory -->
                <g transform="translate(581.406314 486.31074)scale(0.1 -0.1)">
                    <defs>
                        <path id="DejaVuSans-52" d="M 2841 2188
Q 3044 2119 3236 1894 
Q 3428 1669 3622 1275 
L 4263 0 
L 3584 0 
L 2988 1197 
Q 2756 1666 2539 1819 
Q 2322 1972 1947 1972 
L 1259 1972 
L 1259 0 
L 628 0 
L 628 4666 
L 2053 4666 
Q 2853 4666 3247 4331 
Q 3641 3997 3641 3322 
Q 3641 2881 3436 2590 
Q 3231 2300 2841 2188 
z
M 1259 4147 
L 1259 2491 
L 2053 2491 
Q 2509 2491 2742 2702 
Q 2975 2913 2975 3322 
Q 2975 3731 2742 3939 
Q 2509 4147 2053 4147 
L 1259 4147 
z
" transform="scale(0.015625)"/>
                        <path id="DejaVuSans-70" d="M 1159 525
L 1159 -1331 
L 581 -1331 
L 581 3500 
L 1159 3500 
L 1159 2969 
Q 1341 3281 1617 3432 
Q 1894 3584 2278 3584 
Q 2916 3584 3314 3078 
Q 3713 2572 3713 1747 
Q 3713 922 3314 415 
Q 2916 -91 2278 -91 
Q 1894 -91 1617 61 
Q 1341 213 1159 525 
z
M 3116 1747 
Q 3116 2381 2855 2742 
Q 2594 3103 2138 3103 
Q 1681 3103 1420 2742 
Q 1159 2381 1159 1747 
Q 1159 1113 1420 752 
Q 1681 391 2138 391 
Q 2594 391 2855 752 
Q 3116 1113 3116 1747 
z
" transform="scale(0.015625)"/>
                    </defs>
                    <use xlink:href="#DejaVuSans-52"/>
                    <use xlink:href="#DejaVuSans-65" x="64.982422"/>
                    <use xlink:href="#DejaVuSans-73" x="126.505859"/>
                    <use xlink:href="#DejaVuSans-70" x="178.605469"/>
                    <use xlink:href="#DejaVuSans-69" x="242.082031"/>
                    <use xlink:href="#DejaVuSans-72" x="269.865234"/>
                    <use xlink:href="#DejaVuSans-61" x="310.978516"/>
                    <use xlink:href="#DejaVuSans-74" x="372.257812"/>
                    <use xlink:href="#DejaVuSans-6f" x="411.466797"/>
                    <use xlink:href="#DejaVuSans-72" x="472.648438"/>
                    <use xlink:href="#DejaVuSans-79" x="513.761719"/>
                </g>
            </g>
            <g id="text_13">
                <!-- Skeletal -->
                <g transform="translate(606.596571 421.610092)scale(0.1 -0.1)">
                    <defs>
                        <path id="DejaVuSans-53" d="M 3425 4513
L 3425 3897 
Q 3066 4069 2747 4153 
Q 2428 4238 2131 4238 
Q 1616 4238 1336 4038 
Q 1056 3838 1056 3469 
Q 1056 3159 1242 3001 
Q 1428 2844 1947 2747 
L 2328 2669 
Q 3034 2534 3370 2195 
Q 3706 1856 3706 1288 
Q 3706 609 3251 259 
Q 2797 -91 1919 -91 
Q 1588 -91 1214 -16 
Q 841 59 441 206 
L 441 856 
Q 825 641 1194 531 
Q 1563 422 1919 422 
Q 2459 422 2753 634 
Q 3047 847 3047 1241 
Q 3047 1584 2836 1778 
Q 2625 1972 2144 2069 
L 1759 2144 
Q 1053 2284 737 2584 
Q 422 2884 422 3419 
Q 422 4038 858 4394 
Q 1294 4750 2059 4750 
Q 2388 4750 2728 4690 
Q 3069 4631 3425 4513 
z
" transform="scale(0.015625)"/>
                        <path id="DejaVuSans-6b" d="M 581 4863
L 1159 4863 
L 1159 1991 
L 2875 3500 
L 3609 3500 
L 1753 1863 
L 3688 0 
L 2938 0 
L 1159 1709 
L 1159 0 
L 581 0 
L 581 4863 
z
" transform="scale(0.015625)"/>
                    </defs>
                    <use xlink:href="#DejaVuSans-53"/>
                    <use xlink:href="#DejaVuSans-6b" x="63.476562"/>
                    <use xlink:href="#DejaVuSans-65" x="117.761719"/>
                    <use xlink:href="#DejaVuSans-6c" x="179.285156"/>
                    <use xlink:href="#DejaVuSans-65" x="207.068359"/>
                    <use xlink:href="#DejaVuSans-74" x="268.591797"/>
                    <use xlink:href="#DejaVuSans-61" x="307.800781"/>
                    <use xlink:href="#DejaVuSans-6c" x="369.080078"/>
                </g>
            </g>
            <g id="text_14">
                <!-- Social Interactions -->
                <g transform="translate(612.891786 371.003625)scale(0.1 -0.1)">
                    <defs>
                        <path id="DejaVuSans-20" transform="scale(0.015625)"/>
                    </defs>
                    <use xlink:href="#DejaVuSans-53"/>
                    <use xlink:href="#DejaVuSans-6f" x="63.476562"/>
                    <use xlink:href="#DejaVuSans-63" x="124.658203"/>
                    <use xlink:href="#DejaVuSans-69" x="179.638672"/>
                    <use xlink:href="#DejaVuSans-61" x="207.421875"/>
                    <use xlink:href="#DejaVuSans-6c" x="268.701172"/>
                    <use xlink:href="#DejaVuSans-20" x="296.484375"/>
                    <use xlink:href="#DejaVuSans-49" x="328.271484"/>
                    <use xlink:href="#DejaVuSans-6e" x="357.763672"/>
                    <use xlink:href="#DejaVuSans-74" x="421.142578"/>
                    <use xlink:href="#DejaVuSans-65" x="460.351562"/>
                    <use xlink:href="#DejaVuSans-72" x="521.875"/>
                    <use xlink:href="#DejaVuSans-61" x="562.988281"/>
                    <use xlink:href="#DejaVuSans-63" x="624.267578"/>
                    <use xlink:href="#DejaVuSans-74" x="679.248047"/>
                    <use xlink:href="#DejaVuSans-69" x="718.457031"/>
                    <use xlink:href="#DejaVuSans-6f" x="746.240234"/>
                    <use xlink:href="#DejaVuSans-6e" x="807.421875"/>
                    <use xlink:href="#DejaVuSans-73" x="870.800781"/>
                </g>
            </g>
            <g id="text_15">
                <!-- Cluster3 -->
                <g transform="translate(343.887187 80.4)scale(0.12 -0.12)">
                    <defs>
                        <path id="DejaVuSans-33" d="M 2597 2516
Q 3050 2419 3304 2112 
Q 3559 1806 3559 1356 
Q 3559 666 3084 287 
Q 2609 -91 1734 -91 
Q 1441 -91 1130 -33 
Q 819 25 488 141 
L 488 750 
Q 750 597 1062 519 
Q 1375 441 1716 441 
Q 2309 441 2620 675 
Q 2931 909 2931 1356 
Q 2931 1769 2642 2001 
Q 2353 2234 1838 2234 
L 1294 2234 
L 1294 2753 
L 1863 2753 
Q 2328 2753 2575 2939 
Q 2822 3125 2822 3475 
Q 2822 3834 2567 4026 
Q 2313 4219 1838 4219 
Q 1578 4219 1281 4162 
Q 984 4106 628 3988 
L 628 4550 
Q 988 4650 1302 4700 
Q 1616 4750 1894 4750 
Q 2613 4750 3031 4423 
Q 3450 4097 3450 3541 
Q 3450 3153 3228 2886 
Q 3006 2619 2597 2516 
z
" transform="scale(0.015625)"/>
                    </defs>
                    <use xlink:href="#DejaVuSans-43"/>
                    <use xlink:href="#DejaVuSans-6c" x="69.824219"/>
                    <use xlink:href="#DejaVuSans-75" x="97.607422"/>
                    <use xlink:href="#DejaVuSans-73" x="160.986328"/>
                    <use xlink:href="#DejaVuSans-74" x="213.085938"/>
                    <use xlink:href="#DejaVuSans-65" x="252.294922"/>
                    <use xlink:href="#DejaVuSans-72" x="313.818359"/>
                    <use xlink:href="#DejaVuSans-33" x="354.931641"/>
                </g>
            </g>
        </g>
    </g>
</svg>
