<?xml version="1.0" encoding="utf-8" standalone="no"?>
<!DOCTYPE svg PUBLIC "-//W3C//DTD SVG 1.1//EN"
        "http://www.w3.org/Graphics/SVG/1.1/DTD/svg11.dtd">
<svg xmlns:xlink="http://www.w3.org/1999/xlink" width="720pt" height="720pt" viewBox="0 0 720 720"
     xmlns="http://www.w3.org/2000/svg" version="1.1">
    <metadata>
        <rdf:RDF xmlns:dc="http://purl.org/dc/elements/1.1/" xmlns:cc="http://creativecommons.org/ns#"
                 xmlns:rdf="http://www.w3.org/1999/02/22-rdf-syntax-ns#">
            <cc:Work>
                <dc:type rdf:resource="http://purl.org/dc/dcmitype/StillImage"/>
                <dc:date>2022-05-29T16:22:36.936989</dc:date>
                <dc:format>image/svg+xml</dc:format>
                <dc:creator>
                    <cc:Agent>
                        <dc:title>Matplotlib v3.5.1, https://matplotlib.org/</dc:title>
                    </cc:Agent>
                </dc:creator>
            </cc:Work>
        </rdf:RDF>
    </metadata>
    <defs>
        <style type="text/css">*{stroke-linejoin: round; stroke-linecap: butt}</style>
    </defs>
    <g id="figure_1">
        <g id="patch_1">
            <path d="M 0 720
L 720 720 
L 720 0 
L 0 0 
z
" style="fill: #ffffff"/>
        </g>
        <g id="axes_1">
            <g id="patch_2">
                <path d="M 590.76 363.6
C 590.76 358.673527 590.595835 353.748422 590.267779 348.832883 
C 589.939722 343.917345 589.447956 339.014104 588.7933 334.131321 
L 522.85531 342.971925 
C 523.313569 346.389873 523.657806 349.822142 523.887445 353.263018 
C 524.117085 356.703895 524.232 360.151469 524.232 363.6 
L 590.76 363.6 
z
" style="fill: #1f77b4; stroke: #ffffff; stroke-linejoin: miter"/>
            </g>
            <g id="patch_3">
                <path d="M 588.7933 334.131321
C 588.512754 332.038859 588.202341 329.950509 587.862157 327.866911 
C 587.521973 325.783312 587.152053 323.704678 586.752508 321.631644 
L 521.426756 334.222151 
C 521.706437 335.673275 521.965381 337.128319 522.20351 338.586837 
C 522.441639 340.045356 522.658928 341.507201 522.85531 342.971925 
L 588.7933 334.131321 
z
" style="fill: #ff7f0e; stroke: #ffffff; stroke-linejoin: miter"/>
            </g>
            <g id="patch_4">
                <path d="M 586.752508 321.631644
C 584.75397 311.262247 582.017296 301.048837 578.563381 291.069408 
C 575.109467 281.089978 570.947128 271.369995 566.108148 261.983685 
L 506.975704 292.468579 
C 510.362989 299.038997 513.276627 305.842984 515.694367 312.828585 
C 518.112107 319.814186 520.027779 326.963573 521.426756 334.222151 
L 586.752508 321.631644 
z
" style="fill: #2ca02c; stroke: #ffffff; stroke-linejoin: miter"/>
            </g>
            <g id="patch_5">
                <path d="M 566.108148 261.983685
C 553.496137 237.519797 536.439178 215.616339 515.810812 197.395057 
C 495.182445 179.173774 471.340935 164.951126 445.507281 155.455498 
L 422.555097 217.898849 
C 440.638655 224.545788 457.327712 234.501642 471.767568 247.25654 
C 486.207425 260.011437 498.147296 275.343858 506.975704 292.468579 
L 566.108148 261.983685 
z
" style="fill: #d62728; stroke: #ffffff; stroke-linejoin: miter"/>
            </g>
            <g id="patch_6">
                <path d="M 445.507281 155.455498
C 444.846769 155.212715 444.185106 154.973078 443.522313 154.736594 
C 442.85952 154.50011 442.195605 154.266782 441.530591 154.036618 
L 419.771414 216.905633 
C 420.236924 217.066747 420.701664 217.230077 421.165619 217.395616 
C 421.629574 217.561154 422.092739 217.728901 422.555097 217.898849 
L 445.507281 155.455498 
z
" style="fill: #9467bd; stroke: #ffffff; stroke-linejoin: miter"/>
            </g>
            <g id="patch_7">
                <path d="M 441.530591 154.036618
C 409.471761 142.94095 375.290242 139.348327 341.625056 143.536123 
C 307.959869 147.723919 275.700286 159.581512 247.336944 178.193424 
L 283.835861 233.815397 
C 303.6902 220.787058 326.271908 212.486743 349.837539 209.555286 
C 373.40317 206.623829 397.330233 209.138665 419.771414 216.905633 
L 441.530591 154.036618 
z
" style="fill: #8c564b; stroke: #ffffff; stroke-linejoin: miter"/>
            </g>
            <g id="patch_8">
                <path d="M 247.336944 178.193424
C 221.206343 195.34022 198.99344 217.819041 182.158803 244.151833 
C 165.324165 270.484626 154.245038 300.081304 149.649907 330.995795 
C 145.054776 361.910286 147.046613 393.449832 155.494448 423.540612 
C 163.942284 453.631393 178.656812 481.599107 198.670507 505.604794 
C 218.684203 529.61048 243.548581 549.116199 271.628735 562.83939 
C 299.708889 576.56258 330.375574 584.195721 361.612361 585.236911 
C 392.849149 586.278101 423.95606 580.704008 452.887719 568.881144 
C 481.819378 557.058281 507.92746 539.251585 529.49528 516.631901 
L 481.346696 470.722331 
C 466.249222 486.55611 447.973564 499.020797 427.721403 507.296801 
C 407.469242 515.572805 385.694404 519.474671 363.828653 518.745838 
C 341.962901 518.017005 320.496222 512.673806 300.840115 503.067573 
C 281.184007 493.461339 263.778942 479.807336 249.769355 463.003356 
C 235.759768 446.199375 225.459599 426.621975 219.546114 405.558429 
C 213.632629 384.494882 212.238343 362.4172 215.454935 340.777056 
C 218.671526 319.136913 226.426916 298.419238 238.211162 279.986283 
C 249.995408 261.553328 265.54444 245.818154 283.835861 233.815397 
L 247.336944 178.193424 
z
" style="fill: #e377c2; stroke: #ffffff; stroke-linejoin: miter"/>
            </g>
            <g id="patch_9">
                <path d="M 529.49528 516.631901
C 530.952165 515.103963 532.387157 513.555299 533.799816 511.986382 
C 535.212475 510.417465 536.602657 508.828455 537.969938 507.219837 
L 487.278957 464.133886 
C 486.32186 465.259918 485.348732 466.372225 484.359871 467.470467 
C 483.37101 468.568709 482.366516 469.652774 481.346696 470.722331 
L 529.49528 516.631901 
z
" style="fill: #7f7f7f; stroke: #ffffff; stroke-linejoin: miter"/>
            </g>
            <g id="patch_10">
                <path d="M 537.969938 507.219837
C 539.337219 505.61122 540.681459 503.98316 542.002246 502.336154 
C 543.323034 500.689149 544.620234 499.023366 545.893451 497.339316 
L 492.825416 457.217521 
C 491.934164 458.396356 491.026123 459.562404 490.101572 460.715308 
C 489.177021 461.868212 488.236053 463.007854 487.278957 464.133886 
L 537.969938 507.219837 
z
" style="fill: #bcbd22; stroke: #ffffff; stroke-linejoin: miter"/>
            </g>
            <g id="patch_11">
                <path d="M 545.893451 497.339316
C 547.591096 495.093886 549.245833 492.816335 550.856762 490.507902 
C 552.467691 488.19947 554.034521 485.860573 555.556398 483.492485 
L 499.589479 447.524739 
C 498.524164 449.182401 497.427384 450.819629 496.299733 452.435532 
C 495.172083 454.051435 494.013767 455.64572 492.825416 457.217521 
L 545.893451 497.339316 
z
" style="fill: #17becf; stroke: #ffffff; stroke-linejoin: miter"/>
            </g>
            <g id="patch_12">
                <path d="M 555.556398 483.492485
C 566.989497 465.702231 575.819286 446.367683 581.77717 426.076984 
C 587.735054 405.786284 590.760003 384.747282 590.76 363.599969 
L 524.232 363.599978 
C 524.232002 378.403098 522.114538 393.130399 517.944019 407.333889 
C 513.7735 421.537378 507.592648 435.071562 499.589479 447.524739 
L 555.556398 483.492485 
z
" style="fill: #1f77b4; stroke: #ffffff; stroke-linejoin: miter"/>
            </g>
            <g id="patch_13">
                <path d="M 524.232 363.6
C 524.232 360.151469 524.117085 356.703895 523.887445 353.263018 
C 523.657806 349.822142 523.313569 346.389873 522.85531 342.971925 
L 456.91732 351.812529 
C 457.179183 353.765641 457.375889 355.726938 457.507111 357.693153 
C 457.638334 359.659369 457.704 361.629411 457.704 363.6 
L 524.232 363.6 
z
" style="fill: #ff7f0e; stroke: #ffffff; stroke-linejoin: miter"/>
            </g>
            <g id="patch_14">
                <path d="M 522.85531 342.971925
C 522.78985 342.483691 522.722067 341.995771 522.651962 341.508183 
C 522.581857 341.020594 522.509432 340.533342 522.434689 340.046443 
L 456.676965 350.140824 
C 456.719676 350.419053 456.761061 350.697482 456.801121 350.976104 
C 456.841181 351.254727 456.879914 351.533538 456.91732 351.812529 
L 522.85531 342.971925 
z
" style="fill: #2ca02c; stroke: #ffffff; stroke-linejoin: miter"/>
            </g>
            <g id="patch_15">
                <path d="M 522.434689 340.046443
C 522.359946 339.559544 522.282885 339.073003 522.20351 338.586837 
C 522.124135 338.100672 522.042446 337.614887 521.958447 337.129499 
L 456.404827 348.473999 
C 456.452826 348.751364 456.499506 349.028955 456.544863 349.306764 
C 456.59022 349.584573 456.634255 349.862596 456.676965 350.140824 
L 522.434689 340.046443 
z
" style="fill: #d62728; stroke: #ffffff; stroke-linejoin: miter"/>
            </g>
            <g id="patch_16">
                <path d="M 521.958447 337.129499
C 521.874447 336.644111 521.788137 336.159126 521.699521 335.674559 
C 521.610904 335.189993 521.519981 334.705852 521.426756 334.222151 
L 456.101003 346.812658 
C 456.154275 347.089058 456.206231 347.36571 456.256869 347.642605 
C 456.307507 347.9195 456.356827 348.196635 456.404827 348.473999 
L 521.958447 337.129499 
z
" style="fill: #9467bd; stroke: #ffffff; stroke-linejoin: miter"/>
            </g>
            <g id="patch_17">
                <path d="M 521.426756 334.222151
C 521.33353 333.73845 521.238002 333.255196 521.140176 332.772405 
C 521.04235 332.289613 520.942226 331.807291 520.839808 331.325453 
L 455.765605 345.157401 
C 455.824129 345.432737 455.881343 345.708351 455.937244 345.984231 
C 455.993144 346.260112 456.047731 346.536257 456.101003 346.812658 
L 521.426756 334.222151 
z
" style="fill: #8c564b; stroke: #ffffff; stroke-linejoin: miter"/>
            </g>
            <g id="patch_18">
                <path d="M 520.839808 331.325453
C 520.737391 330.843614 520.63268 330.362267 520.525679 329.881425 
C 520.418679 329.400584 520.309391 328.920255 520.197818 328.440454 
L 455.398753 343.508831 
C 455.462509 343.783003 455.52496 344.057477 455.586103 344.332243 
C 455.647246 344.607009 455.70708 344.882065 455.765605 345.157401 
L 520.839808 331.325453 
z
" style="fill: #e377c2; stroke: #ffffff; stroke-linejoin: miter"/>
            </g>
            <g id="patch_19">
                <path d="M 520.197818 328.440454
C 520.086245 327.960653 519.972389 327.481386 519.856253 327.002669 
C 519.740118 326.523952 519.621704 326.045791 519.501017 325.568201 
L 455.000581 341.867544 
C 455.069545 342.140452 455.13721 342.413687 455.203573 342.68724 
C 455.269937 342.960792 455.334997 343.234659 455.398753 343.508831 
L 520.197818 328.440454 
z
" style="fill: #7f7f7f; stroke: #ffffff; stroke-linejoin: miter"/>
            </g>
            <g id="patch_20">
                <path d="M 519.501017 325.568201
C 519.380329 325.090611 519.257369 324.613599 519.132141 324.13718 
C 519.006912 323.660761 518.879416 323.18494 518.749658 322.709735 
L 454.571233 340.234134 
C 454.645381 340.50568 454.718235 340.777578 454.789795 341.049817 
C 454.861354 341.322057 454.931617 341.594635 455.000581 341.867544 
L 519.501017 325.568201 
z
" style="fill: #bcbd22; stroke: #ffffff; stroke-linejoin: miter"/>
            </g>
            <g id="patch_21">
                <path d="M 518.749658 322.709735
C 518.6199 322.23453 518.48788 321.759945 518.353604 321.285996 
C 518.219327 320.812048 518.082796 320.338741 517.944013 319.866092 
L 454.110865 338.609196 
C 454.190169 338.879281 454.268187 339.149742 454.344916 339.420569 
C 454.421646 339.691397 454.497085 339.962588 454.571233 340.234134 
L 518.749658 322.709735 
z
" style="fill: #17becf; stroke: #ffffff; stroke-linejoin: miter"/>
            </g>
            <g id="patch_22">
                <path d="M 517.944013 319.866092
C 517.805231 319.393443 517.6642 318.921458 517.520925 318.450152 
C 517.377649 317.978846 517.232131 317.508224 517.084375 317.038303 
L 453.619643 336.993316 
C 453.704075 337.261842 453.787228 337.530769 453.8691 337.800087 
C 453.950971 338.069405 454.031561 338.339111 454.110865 338.609196 
L 517.944013 319.866092 
z
" style="fill: #1f77b4; stroke: #ffffff; stroke-linejoin: miter"/>
            </g>
            <g id="patch_23">
                <path d="M 517.084375 317.038303
C 516.93662 316.568382 516.786628 316.099167 516.634405 315.630675 
C 516.482183 315.162182 516.327731 314.694416 516.171055 314.227393 
L 453.097746 335.387082 
C 453.187275 335.653952 453.275533 335.921247 453.362517 336.188957 
C 453.449502 336.456667 453.535211 336.72479 453.619643 336.993316 
L 517.084375 317.038303 
z
" style="fill: #ff7f0e; stroke: #ffffff; stroke-linejoin: miter"/>
            </g>
            <g id="patch_24">
                <path d="M 516.171055 314.227393
C 516.01438 313.760371 515.855482 313.294097 515.694367 312.828587 
C 515.533253 312.363077 515.369923 311.898336 515.204385 311.434381 
L 452.545363 333.791075 
C 452.639956 334.056192 452.733287 334.321758 452.825353 334.587764 
C 452.917418 334.853769 453.008217 335.120212 453.097746 335.387082 
L 516.171055 314.227393 
z
" style="fill: #2ca02c; stroke: #ffffff; stroke-linejoin: miter"/>
            </g>
            <g id="patch_25">
                <path d="M 515.204385 311.434381
C 515.038846 310.970426 514.871099 310.507262 514.701151 310.044904 
C 514.531203 309.582546 514.359055 309.120999 514.184713 308.66028 
L 451.962693 332.205874 
C 452.062317 332.469142 452.160688 332.732883 452.257801 332.997088 
C 452.354914 333.261292 452.450769 333.525958 452.545363 333.791075 
L 515.204385 311.434381 
z
" style="fill: #d62728; stroke: #ffffff; stroke-linejoin: miter"/>
            </g>
            <g id="patch_26">
                <path d="M 514.184713 308.66028
C 514.010371 308.199561 513.833837 307.739674 513.655117 307.280635 
C 513.476397 306.821596 513.295493 306.363411 513.112411 305.906095 
L 451.349949 330.632054 
C 451.454568 330.893378 451.557941 331.155198 451.660067 331.417506 
C 451.762193 331.679814 451.863069 331.942606 451.962693 332.205874 
L 514.184713 308.66028 
z
" style="fill: #9467bd; stroke: #ffffff; stroke-linejoin: miter"/>
            </g>
            <g id="patch_27">
                <path d="M 513.112411 305.906095
C 512.929329 305.448778 512.744072 304.992336 512.556645 304.536783 
C 512.369217 304.08123 512.179623 303.626572 511.987867 303.172824 
L 450.707353 329.070185 
C 450.816927 329.32947 450.925267 329.589274 451.032368 329.84959 
C 451.13947 330.109906 451.245331 330.37073 451.349949 330.632054 
L 513.112411 305.906095 
z
" style="fill: #8c564b; stroke: #ffffff; stroke-linejoin: miter"/>
            </g>
            <g id="patch_28">
                <path d="M 511.987867 303.172824
C 511.796112 302.719076 511.602198 302.266243 511.406131 301.814341 
C 511.210065 301.362439 511.011848 300.911473 510.811489 300.461458 
L 450.035137 327.520833 
C 450.149628 327.777985 450.262894 328.03568 450.374932 328.293909 
C 450.48697 328.552139 450.597778 328.810901 450.707353 329.070185 
L 511.987867 303.172824 
z
" style="fill: #e377c2; stroke: #ffffff; stroke-linejoin: miter"/>
            </g>
            <g id="patch_29">
                <path d="M 510.811489 300.461458
C 510.611129 300.011444 510.408629 299.562385 510.203994 299.114298 
C 509.99936 298.666211 509.792594 298.2191 509.583703 297.772981 
L 449.333544 325.984561 
C 449.452911 326.239486 449.571063 326.494978 449.687997 326.751027 
C 449.804931 327.007077 449.920645 327.263682 450.035137 327.520833 
L 510.811489 300.461458 
z
" style="fill: #7f7f7f; stroke: #ffffff; stroke-linejoin: miter"/>
            </g>
            <g id="patch_30">
                <path d="M 509.583703 297.772981
C 509.374812 297.326863 509.163798 296.881741 508.95067 296.437631 
C 508.737541 295.993521 508.5223 295.550428 508.304953 295.108367 
L 448.602831 324.461924 
C 448.727029 324.71453 448.850024 324.967726 448.971811 325.221503 
C 449.093599 325.47528 449.214178 325.729636 449.333544 325.984561 
L 509.583703 297.772981 
z
" style="fill: #bcbd22; stroke: #ffffff; stroke-linejoin: miter"/>
            </g>
            <g id="patch_31">
                <path d="M 508.304953 295.108367
C 508.087607 294.666306 507.868157 294.225283 507.646612 293.785311 
C 507.425067 293.345339 507.201429 292.906425 506.975705 292.468582 
L 447.84326 322.953475 
C 447.972245 323.203671 448.100038 323.45448 448.226635 323.705892 
C 448.353233 323.957304 448.478632 324.209318 448.602831 324.461924 
L 508.304953 295.108367 
z
" style="fill: #17becf; stroke: #ffffff; stroke-linejoin: miter"/>
            </g>
            <g id="patch_32">
                <path d="M 506.975705 292.468582
C 505.169702 288.965424 503.230937 285.532317 501.163626 282.176725 
C 499.096316 278.821134 496.901959 275.545492 494.585327 272.356921 
L 440.763044 311.461098 
C 442.086834 313.283138 443.340752 315.154934 444.522072 317.072414 
C 445.703393 318.989895 446.811258 320.951671 447.84326 322.953475 
L 506.975705 292.468582 
z
" style="fill: #1f77b4; stroke: #ffffff; stroke-linejoin: miter"/>
            </g>
            <g id="patch_33">
                <path d="M 494.585327 272.356921
C 494.006235 271.559869 493.419568 270.768348 492.825405 269.982465 
C 492.231243 269.196583 491.629612 268.416374 491.020595 267.641946 
L 438.726055 308.766826 
C 439.074064 309.209357 439.417853 309.65519 439.757374 310.104266 
C 440.096896 310.553342 440.432134 311.00564 440.763044 311.461098 
L 494.585327 272.356921 
z
" style="fill: #ff7f0e; stroke: #ffffff; stroke-linejoin: miter"/>
            </g>
            <g id="patch_34">
                <path d="M 491.020595 267.641946
C 490.716089 267.254734 490.409741 266.868974 490.101561 266.484679 
C 489.793382 266.100383 489.483376 265.717557 489.171552 265.336213 
L 437.669458 307.449264 
C 437.847643 307.667175 438.02479 307.885933 438.200892 308.105531 
C 438.376995 308.325128 438.552051 308.545562 438.726055 308.766826 
L 491.020595 267.641946 
z
" style="fill: #2ca02c; stroke: #ffffff; stroke-linejoin: miter"/>
            </g>
            <g id="patch_35">
                <path d="M 489.171552 265.336213
C 486.676667 262.285096 484.066486 259.330103 481.346684 256.477657 
C 478.626883 253.625211 475.799434 250.877382 472.870485 248.240145 
L 428.354563 297.680083 
C 430.028248 299.187076 431.643933 300.757264 433.198105 302.387233 
C 434.752277 304.017201 436.243809 305.705769 437.669458 307.449264 
L 489.171552 265.336213 
z
" style="fill: #d62728; stroke: #ffffff; stroke-linejoin: miter"/>
            </g>
            <g id="patch_36">
                <path d="M 472.870485 248.240145
C 472.50441 247.910529 472.136768 247.582658 471.767571 247.256542 
C 471.398375 246.930427 471.027628 246.60607 470.655344 246.283484 
L 427.088768 296.561991 
C 427.301502 296.746326 427.513357 296.931672 427.724326 297.118024 
C 427.935296 297.304376 428.145377 297.491731 428.354563 297.680083 
L 472.870485 248.240145 
z
" style="fill: #9467bd; stroke: #ffffff; stroke-linejoin: miter"/>
            </g>
            <g id="patch_37">
                <path d="M 470.655344 246.283484
C 467.676716 243.702488 464.600872 241.235868 461.4345 238.888986 
C 458.268128 236.542104 455.013525 234.316663 451.677766 232.217502 
L 416.244438 288.524287 
C 418.150585 289.723808 420.010359 290.995488 421.819714 292.336563 
C 423.62907 293.677639 425.386695 295.087136 427.088768 296.561991 
L 470.655344 246.283484 
z
" style="fill: #8c564b; stroke: #ffffff; stroke-linejoin: miter"/>
            </g>
            <g id="patch_38">
                <path d="M 451.677766 232.217502
C 451.260845 231.955138 450.842679 231.69476 450.42328 231.436377 
C 450.003881 231.177994 449.583254 230.921608 449.161414 230.667229 
L 414.806522 287.638417 
C 415.047574 287.783776 415.287932 287.930282 415.527588 288.077929 
C 415.767245 288.225577 416.006197 288.374364 416.244438 288.524287 
L 451.677766 232.217502 
z
" style="fill: #e377c2; stroke: #ffffff; stroke-linejoin: miter"/>
            </g>
            <g id="patch_39">
                <path d="M 449.161414 230.667229
C 448.739575 230.412851 448.316526 230.160481 447.892284 229.91013 
C 447.468042 229.659779 447.04261 229.411448 446.616004 229.165147 
L 413.352002 286.780084 
C 413.595777 286.920827 413.838881 287.062731 414.081305 287.205789 
C 414.323729 287.348846 414.565471 287.493058 414.806522 287.638417 
L 449.161414 230.667229 
z
" style="fill: #7f7f7f; stroke: #ffffff; stroke-linejoin: miter"/>
            </g>
            <g id="patch_40">
                <path d="M 446.616004 229.165147
C 446.189397 228.918845 445.761621 228.674576 445.332689 228.432347 
C 444.903757 228.190118 444.473675 227.949932 444.042457 227.711798 
L 411.881404 285.949599 
C 412.127814 286.085676 412.373576 286.222925 412.618679 286.361341 
C 412.863783 286.499758 413.108227 286.63934 413.352002 286.780084 
L 446.616004 229.165147 
z
" style="fill: #bcbd22; stroke: #ffffff; stroke-linejoin: miter"/>
            </g>
            <g id="patch_41">
                <path d="M 444.042457 227.711798
C 440.592299 225.806494 437.070831 224.033279 433.485708 222.396008 
C 429.900584 220.758737 426.254406 219.258597 422.555102 217.898851 
L 399.602915 280.3422 
C 401.716804 281.119198 403.800334 281.976421 405.848976 282.912005 
C 407.897618 283.847588 409.909885 284.860854 411.881404 285.949599 
L 444.042457 227.711798 
z
" style="fill: #17becf; stroke: #ffffff; stroke-linejoin: miter"/>
            </g>
            <g id="patch_42">
                <path d="M 422.555102 217.898851
C 422.092744 217.728903 421.629579 217.561156 421.165624 217.395617 
C 420.701669 217.230079 420.236929 217.066749 419.771419 216.905635 
L 398.012239 279.774648 
C 398.278245 279.866714 398.543811 279.960045 398.808928 280.054639 
C 399.074045 280.149232 399.338711 280.245087 399.602915 280.3422 
L 422.555102 217.898851 
z
" style="fill: #1f77b4; stroke: #ffffff; stroke-linejoin: miter"/>
            </g>
            <g id="patch_43">
                <path d="M 419.771419 216.905635
C 419.305909 216.74452 418.839635 216.585622 418.372612 216.428947 
C 417.90559 216.272271 417.437824 216.117819 416.969331 215.965596 
L 396.411046 279.237484 
C 396.678757 279.324468 396.946051 279.412726 397.212921 279.502255 
C 397.479791 279.591784 397.746234 279.682583 398.012239 279.774648 
L 419.771419 216.905635 
z
" style="fill: #ff7f0e; stroke: #ffffff; stroke-linejoin: miter"/>
            </g>
            <g id="patch_44">
                <path d="M 416.969331 215.965596
C 416.500838 215.813374 416.031623 215.663382 415.561702 215.515626 
C 415.091782 215.367871 414.62116 215.222353 414.149854 215.079077 
L 394.799917 278.730901 
C 395.069234 278.812773 395.338161 278.895926 395.606687 278.980358 
C 395.875213 279.06479 396.143336 279.150499 396.411046 279.237484 
L 416.969331 215.965596 
z
" style="fill: #2ca02c; stroke: #ffffff; stroke-linejoin: miter"/>
            </g>
            <g id="patch_45">
                <path d="M 414.149854 215.079077
C 413.678548 214.935802 413.206562 214.79477 412.733913 214.655988 
C 412.261265 214.517206 411.787958 214.380674 411.314009 214.246398 
L 393.179434 278.255085 
C 393.450262 278.331814 393.720723 278.409832 393.990808 278.489136 
C 394.260893 278.56844 394.530599 278.64903 394.799917 278.730901 
L 414.149854 215.079077 
z
" style="fill: #d62728; stroke: #ffffff; stroke-linejoin: miter"/>
            </g>
            <g id="patch_46">
                <path d="M 411.314009 214.246398
C 410.840061 214.112122 410.365476 213.980102 409.890271 213.850344 
C 409.415065 213.720585 408.939245 213.59309 408.462826 213.467861 
L 391.550186 277.810206 
C 391.822426 277.881765 392.094323 277.95462 392.365869 278.028768 
C 392.637415 278.102915 392.908606 278.178355 393.179434 278.255085 
L 411.314009 214.246398 
z
" style="fill: #9467bd; stroke: #ffffff; stroke-linejoin: miter"/>
            </g>
            <g id="patch_47">
                <path d="M 408.462826 213.467861
C 407.986407 213.342632 407.509394 213.219672 407.031805 213.098985 
C 406.554215 212.978297 406.076054 212.859883 405.597337 212.743748 
L 389.912764 277.396427 
C 390.186316 277.462791 390.459551 277.530455 390.73246 277.59942 
C 391.005368 277.668384 391.277947 277.738647 391.550186 277.810206 
L 408.462826 213.467861 
z
" style="fill: #8c564b; stroke: #ffffff; stroke-linejoin: miter"/>
            </g>
            <g id="patch_48">
                <path d="M 405.597337 212.743748
C 405.11862 212.627612 404.639353 212.513756 404.159552 212.402183 
C 403.679751 212.29061 403.199422 212.181322 402.71858 212.074322 
L 388.26776 277.013898 
C 388.542527 277.075041 388.817001 277.137492 389.091172 277.201248 
C 389.365344 277.265004 389.639211 277.330064 389.912764 277.396427 
L 405.597337 212.743748 
z
" style="fill: #e377c2; stroke: #ffffff; stroke-linejoin: miter"/>
            </g>
            <g id="patch_49">
                <path d="M 402.71858 212.074322
C 402.237739 211.967322 401.756391 211.862611 401.274553 211.760193 
C 400.792715 211.657775 400.310392 211.557651 399.827601 211.459825 
L 386.615772 276.662757 
C 386.891653 276.718658 387.167266 276.775871 387.442602 276.834396 
C 387.717938 276.89292 387.992994 276.952755 388.26776 277.013898 
L 402.71858 212.074322 
z
" style="fill: #7f7f7f; stroke: #ffffff; stroke-linejoin: miter"/>
            </g>
            <g id="patch_50">
                <path d="M 399.827601 211.459825
C 399.34481 211.361999 398.861556 211.266471 398.377855 211.173246 
C 397.894154 211.08002 397.410013 210.989097 396.925446 210.90048 
L 384.957398 276.343132 
C 385.234293 276.39377 385.510945 276.445726 385.787346 276.498997 
C 386.063746 276.552269 386.339891 276.606856 386.615772 276.662757 
L 399.827601 211.459825 
z
" style="fill: #bcbd22; stroke: #ffffff; stroke-linejoin: miter"/>
            </g>
            <g id="patch_51">
                <path d="M 396.925446 210.90048
C 396.44088 210.811864 395.955895 210.725554 395.470507 210.641554 
C 394.985119 210.557555 394.499334 210.475866 394.013168 210.396491 
L 383.293239 276.055138 
C 383.571048 276.100495 383.848639 276.147174 384.126004 276.195174 
C 384.403368 276.243174 384.680503 276.292494 384.957398 276.343132 
L 396.925446 210.90048 
z
" style="fill: #17becf; stroke: #ffffff; stroke-linejoin: miter"/>
            </g>
            <g id="patch_52">
                <path d="M 394.013168 210.396491
C 393.527003 210.317116 393.040462 210.240055 392.553563 210.165312 
C 392.066664 210.090569 391.579412 210.018143 391.091823 209.948039 
L 381.623899 275.798879 
C 381.902521 275.838939 382.180951 275.880325 382.459179 275.923035 
C 382.737407 275.965746 383.01543 276.00978 383.293239 276.055138 
L 394.013168 210.396491 
z
" style="fill: #1f77b4; stroke: #ffffff; stroke-linejoin: miter"/>
            </g>
            <g id="patch_53">
                <path d="M 391.091823 209.948039
C 390.604234 209.877934 390.116315 209.810151 389.628081 209.744691 
C 389.139847 209.679231 388.651304 209.616096 388.162469 209.555287 
L 379.949982 275.57445 
C 380.229317 275.609198 380.508484 275.645275 380.787475 275.682681 
C 381.066466 275.720086 381.345277 275.758819 381.623899 275.798879 
L 391.091823 209.948039 
z
" style="fill: #ff7f0e; stroke: #ffffff; stroke-linejoin: miter"/>
            </g>
            <g id="patch_54">
                <path d="M 388.162469 209.555287
C 387.673634 209.494478 387.184512 209.435996 386.695121 209.379844 
C 386.205729 209.323691 385.716073 209.269869 385.226169 209.218378 
L 378.272096 275.38193 
C 378.552042 275.411354 378.831845 275.442109 379.111498 275.474197 
C 379.39115 275.506284 379.670648 275.539702 379.949982 275.57445 
L 388.162469 209.555287 
z
" style="fill: #2ca02c; stroke: #ffffff; stroke-linejoin: miter"/>
            </g>
            <g id="patch_55">
                <path d="M 385.226169 209.218378
C 384.736265 209.166887 384.246118 209.117728 383.755746 209.070903 
C 383.265374 209.024078 382.774782 208.979588 382.283986 208.937433 
L 376.590849 275.22139 
C 376.871304 275.245479 377.151642 275.270902 377.431855 275.297659 
C 377.712068 275.324416 377.992151 275.352507 378.272096 275.38193 
L 385.226169 209.218378 
z
" style="fill: #d62728; stroke: #ffffff; stroke-linejoin: miter"/>
            </g>
            <g id="patch_56">
                <path d="M 382.283986 208.937433
C 381.79319 208.895279 381.302197 208.855461 380.811022 208.81798 
C 380.319848 208.7805 379.828497 208.745358 379.336988 208.712555 
L 374.90685 275.092889 
C 375.187713 275.111633 375.468484 275.131714 375.749156 275.153132 
C 376.029827 275.174549 376.310395 275.197302 376.590849 275.22139 
L 382.283986 208.937433 
z
" style="fill: #9467bd; stroke: #ffffff; stroke-linejoin: miter"/>
            </g>
            <g id="patch_57">
                <path d="M 379.336988 208.712555
C 378.845479 208.679753 378.353816 208.64929 377.862017 208.621168 
C 377.370218 208.593046 376.878287 208.567265 376.386243 208.543826 
L 373.22071 274.996472 
C 373.501878 275.009865 373.782981 275.024597 374.06401 275.040667 
C 374.345038 275.056737 374.625988 275.074144 374.90685 275.092889 
L 379.336988 208.712555 
z
" style="fill: #8c564b; stroke: #ffffff; stroke-linejoin: miter"/>
            </g>
            <g id="patch_58">
                <path d="M 376.386243 208.543826
C 375.894198 208.520387 375.402044 208.49929 374.909799 208.480536 
C 374.417553 208.461782 373.925221 208.445372 373.43282 208.431305 
L 371.53304 274.932174 
C 371.814412 274.940212 372.095745 274.94959 372.377028 274.960306 
C 372.658311 274.971023 372.939542 274.983078 373.22071 274.996472 
L 376.386243 208.543826 
z
" style="fill: #e377c2; stroke: #ffffff; stroke-linejoin: miter"/>
            </g>
            <g id="patch_59">
                <path d="M 373.43282 208.431305
C 372.940418 208.417238 372.447952 208.405515 371.955439 208.396137 
C 371.462925 208.386758 370.97037 208.379724 370.47779 208.375034 
L 369.844451 274.90002 
C 370.125926 274.902699 370.407386 274.906719 370.688822 274.912078 
C 370.970258 274.917437 371.251667 274.924136 371.53304 274.932174 
L 373.43282 208.431305 
z
" style="fill: #7f7f7f; stroke: #ffffff; stroke-linejoin: miter"/>
            </g>
            <g id="patch_60">
                <path d="M 370.47779 208.375034
C 369.985209 208.370345 369.492609 208.368 369.000007 208.368 
C 368.507404 208.368 368.014804 208.370345 367.522224 208.375034 
L 368.155557 274.90002 
C 368.437031 274.89734 368.718517 274.896 369.000004 274.896 
C 369.281491 274.896 369.562977 274.89734 369.844451 274.90002 
L 370.47779 208.375034 
z
" style="fill: #bcbd22; stroke: #ffffff; stroke-linejoin: miter"/>
            </g>
            <g id="patch_61">
                <path d="M 367.522224 208.375034
C 367.029644 208.379724 366.537088 208.386758 366.044575 208.396136 
C 365.552062 208.405515 365.059596 208.417238 364.567194 208.431305 
L 366.466968 274.932174 
C 366.74834 274.924136 367.02975 274.917437 367.311186 274.912078 
C 367.592622 274.906719 367.874082 274.902699 368.155557 274.90002 
L 367.522224 208.375034 
z
" style="fill: #17becf; stroke: #ffffff; stroke-linejoin: miter"/>
            </g>
            <g id="patch_62">
                <path d="M 364.567194 208.431305
C 364.074792 208.445371 363.58246 208.461782 363.090215 208.480536 
C 362.597969 208.499289 362.105816 208.520386 361.613771 208.543825 
L 364.779298 274.996471 
C 365.060466 274.983078 365.341697 274.971022 365.62298 274.960306 
C 365.904263 274.94959 366.185596 274.940212 366.466968 274.932174 
L 364.567194 208.431305 
z
" style="fill: #1f77b4; stroke: #ffffff; stroke-linejoin: miter"/>
            </g>
            <g id="patch_63">
                <path d="M 361.613771 208.543825
C 361.121726 208.567264 360.629796 208.593045 360.137997 208.621167 
C 359.646198 208.649289 359.154535 208.679752 358.663026 208.712554 
L 363.093158 275.092888 
C 363.37402 275.074144 363.65497 275.056737 363.935998 275.040667 
C 364.217026 275.024597 364.498129 275.009865 364.779298 274.996471 
L 361.613771 208.543825 
z
" style="fill: #ff7f0e; stroke: #ffffff; stroke-linejoin: miter"/>
            </g>
            <g id="patch_64">
                <path d="M 358.663026 208.712554
C 358.171516 208.745357 357.680166 208.780499 357.188991 208.817979 
C 356.697817 208.85546 356.206823 208.895278 355.716027 208.937432 
L 361.409159 275.22139 
C 361.689613 275.197302 361.970181 275.174548 362.250852 275.153131 
C 362.531523 275.131714 362.812295 275.111633 363.093158 275.092888 
L 358.663026 208.712554 
z
" style="fill: #2ca02c; stroke: #ffffff; stroke-linejoin: miter"/>
            </g>
            <g id="patch_65">
                <path d="M 355.716027 208.937432
C 355.225232 208.979587 354.73464 209.024077 354.244268 209.070902 
C 353.753895 209.117727 353.263749 209.166885 352.773845 209.218376 
L 359.727911 275.381929 
C 360.007857 275.352506 360.28794 275.324415 360.568153 275.297658 
C 360.848366 275.270901 361.128704 275.245478 361.409159 275.22139 
L 355.716027 208.937432 
z
" style="fill: #d62728; stroke: #ffffff; stroke-linejoin: miter"/>
            </g>
            <g id="patch_66">
                <path d="M 352.773845 209.218376
C 352.283941 209.269867 351.794285 209.32369 351.304893 209.379842 
C 350.815501 209.435995 350.326379 209.494476 349.837544 209.555285 
L 358.050025 275.574449 
C 358.32936 275.539701 358.608858 275.506283 358.88851 275.474196 
C 359.168163 275.442109 359.447966 275.411353 359.727911 275.381929 
L 352.773845 209.218376 
z
" style="fill: #9467bd; stroke: #ffffff; stroke-linejoin: miter"/>
            </g>
            <g id="patch_67">
                <path d="M 349.837544 209.555285
C 349.348709 209.616094 348.860167 209.679229 348.371933 209.744689 
C 347.883699 209.810149 347.395779 209.877932 346.90819 209.948037 
L 356.376109 275.798878 
C 356.654731 275.758818 356.933542 275.720085 357.212533 275.68268 
C 357.491524 275.645274 357.770691 275.609197 358.050025 275.574449 
L 349.837544 209.555285 
z
" style="fill: #8c564b; stroke: #ffffff; stroke-linejoin: miter"/>
            </g>
            <g id="patch_68">
                <path d="M 346.90819 209.948037
C 346.420602 210.018142 345.93335 210.090567 345.44645 210.16531 
C 344.959551 210.240053 344.473011 210.317114 343.986845 210.396489 
L 354.706769 276.055136 
C 354.984577 276.009779 355.262601 275.965745 355.540829 275.923034 
C 355.819057 275.880324 356.097487 275.838938 356.376109 275.798878 
L 346.90819 209.948037 
z
" style="fill: #e377c2; stroke: #ffffff; stroke-linejoin: miter"/>
            </g>
            <g id="patch_69">
                <path d="M 343.986845 210.396489
C 343.500679 210.475864 343.014894 210.557552 342.529507 210.641552 
C 342.044119 210.725552 341.559133 210.811861 341.074567 210.900478 
L 353.04261 276.34313 
C 353.319505 276.292492 353.596639 276.243172 353.874004 276.195173 
C 354.151368 276.147173 354.42896 276.100494 354.706769 276.055136 
L 343.986845 210.396489 
z
" style="fill: #7f7f7f; stroke: #ffffff; stroke-linejoin: miter"/>
            </g>
            <g id="patch_70">
                <path d="M 341.074567 210.900478
C 340.590001 210.989095 340.105859 211.080017 339.622158 211.173243 
C 339.138458 211.266469 338.655204 211.361996 338.172412 211.459822 
L 351.384236 276.662756 
C 351.660116 276.606855 351.936262 276.552268 352.212662 276.498996 
C 352.489062 276.445724 352.765715 276.393768 353.04261 276.34313 
L 341.074567 210.900478 
z
" style="fill: #bcbd22; stroke: #ffffff; stroke-linejoin: miter"/>
            </g>
            <g id="patch_71">
                <path d="M 338.172412 211.459822
C 337.206824 211.655476 336.243121 211.860317 335.281433 212.074319 
C 334.319745 212.28832 333.360116 212.511473 332.402677 212.743745 
L 348.087244 277.396426 
C 348.634352 277.263699 349.182711 277.136183 349.732247 277.013896 
C 350.281783 276.89161 350.832471 276.774558 351.384236 276.662756 
L 338.172412 211.459822 
z
" style="fill: #17becf; stroke: #ffffff; stroke-linejoin: miter"/>
            </g>
            <g id="patch_72">
                <path d="M 332.402677 212.743745
C 331.445237 212.976017 330.490031 213.217399 329.537187 213.467857 
C 328.584344 213.718316 327.633906 213.97784 326.686004 214.246394 
L 344.820574 278.255082 
C 345.362232 278.101623 345.905339 277.953323 346.449821 277.810204 
C 346.994303 277.667085 347.540136 277.529153 348.087244 277.396426 
L 332.402677 212.743745 
z
" style="fill: #1f77b4; stroke: #ffffff; stroke-linejoin: miter"/>
            </g>
            <g id="patch_73">
                <path d="M 326.686004 214.246394
C 326.212055 214.380671 325.738748 214.517202 325.2661 214.655984 
C 324.793451 214.794767 324.321465 214.935798 323.850159 215.079073 
L 343.200091 278.730899 
C 343.469409 278.649027 343.739115 278.568438 344.0092 278.489134 
C 344.279285 278.40983 344.549746 278.331812 344.820574 278.255082 
L 326.686004 214.246394 
z
" style="fill: #ff7f0e; stroke: #ffffff; stroke-linejoin: miter"/>
            </g>
            <g id="patch_74">
                <path d="M 323.850159 215.079073
C 323.378853 215.222349 322.908231 215.367867 322.438311 215.515622 
C 321.96839 215.663378 321.499175 215.81337 321.030682 215.965592 
L 341.588961 279.237481 
C 341.856671 279.150497 342.124794 279.064787 342.39332 278.980356 
C 342.661847 278.895924 342.930773 278.812771 343.200091 278.730899 
L 323.850159 215.079073 
z
" style="fill: #2ca02c; stroke: #ffffff; stroke-linejoin: miter"/>
            </g>
            <g id="patch_75">
                <path d="M 321.030682 215.965592
C 320.093691 216.270039 319.159619 216.583399 318.228594 216.90563 
C 317.297569 217.227861 316.369632 217.558948 315.444911 217.898846 
L 338.397092 280.342198 
C 338.925504 280.14797 339.455754 279.958778 339.987768 279.774646 
C 340.519782 279.590514 341.053538 279.411451 341.588961 279.237481 
L 321.030682 215.965592 
z
" style="fill: #d62728; stroke: #ffffff; stroke-linejoin: miter"/>
            </g>
            <g id="patch_76">
                <path d="M 315.444911 217.898846
C 314.52019 218.238744 313.598725 218.587438 312.680642 218.94488 
C 311.76256 219.302322 310.847901 219.668496 309.93679 220.043353 
L 335.249594 281.56763 
C 335.770229 281.353426 336.292891 281.144184 336.81751 280.939931 
C 337.342129 280.735679 337.86868 280.536425 338.397092 280.342198 
L 315.444911 217.898846 
z
" style="fill: #9467bd; stroke: #ffffff; stroke-linejoin: miter"/>
            </g>
            <g id="patch_77">
                <path d="M 309.93679 220.043353
C 309.481237 220.23078 309.026579 220.420374 308.572831 220.61213 
C 308.119083 220.803885 307.66625 220.997799 307.214348 221.193866 
L 333.693913 282.225066 
C 333.952143 282.113028 334.210905 282.00222 334.470189 281.892646 
C 334.729474 281.783071 334.989278 281.674731 335.249594 281.56763 
L 309.93679 220.043353 
z
" style="fill: #8c564b; stroke: #ffffff; stroke-linejoin: miter"/>
            </g>
            <g id="patch_78">
                <path d="M 307.214348 221.193866
C 306.310539 221.586001 305.410484 221.986731 304.514305 222.396002 
C 303.618125 222.805274 302.725863 223.223067 301.837638 223.649327 
L 330.621507 283.628187 
C 331.129064 283.38461 331.638929 283.145871 332.151031 282.912001 
C 332.663134 282.678132 333.177451 282.449143 333.693913 282.225066 
L 307.214348 221.193866 
z
" style="fill: #e377c2; stroke: #ffffff; stroke-linejoin: miter"/>
            </g>
            <g id="patch_79">
                <path d="M 301.837638 223.649327
C 301.393528 223.862455 300.950435 224.077696 300.508374 224.295043 
C 300.066313 224.51239 299.62529 224.731839 299.185318 224.953385 
L 329.105896 284.373363 
C 329.357308 284.246765 329.609322 284.121366 329.861928 283.997167 
C 330.114534 283.872969 330.36773 283.749974 330.621507 283.628187 
L 301.837638 223.649327 
z
" style="fill: #7f7f7f; stroke: #ffffff; stroke-linejoin: miter"/>
            </g>
            <g id="patch_80">
                <path d="M 299.185318 224.953385
C 298.745346 225.17493 298.306431 225.398568 297.868589 225.624291 
C 297.430746 225.850015 296.99398 226.077821 296.558306 226.307703 
L 327.604746 285.147259 
C 327.853703 285.015898 328.103283 284.885723 328.353479 284.756738 
C 328.603675 284.627753 328.854483 284.49996 329.105896 284.373363 
L 299.185318 224.953385 
z
" style="fill: #bcbd22; stroke: #ffffff; stroke-linejoin: miter"/>
            </g>
            <g id="patch_81">
                <path d="M 296.558306 226.307703
C 296.122632 226.537584 295.688055 226.769539 295.254589 227.003557 
C 294.821123 227.237576 294.388774 227.473656 293.957555 227.711791 
L 326.118603 285.949595 
C 326.365014 285.813518 326.61207 285.678615 326.859765 285.54489 
C 327.10746 285.411165 327.35579 285.27862 327.604746 285.147259 
L 296.558306 226.307703 
z
" style="fill: #17becf; stroke: #ffffff; stroke-linejoin: miter"/>
            </g>
            <g id="patch_82">
                <path d="M 293.957555 227.711791
C 293.526337 227.949926 293.096255 228.190111 292.667323 228.43234 
C 292.238391 228.674569 291.810615 228.918839 291.384008 229.16514 
L 324.648005 286.78008 
C 324.89178 286.639336 325.136223 286.499754 325.381327 286.361337 
C 325.626431 286.222921 325.872193 286.085672 326.118603 285.949595 
L 293.957555 227.711791 
z
" style="fill: #1f77b4; stroke: #ffffff; stroke-linejoin: miter"/>
            </g>
            <g id="patch_83">
                <path d="M 291.384008 229.16514
C 290.957402 229.411441 290.53197 229.659772 290.107728 229.910123 
C 289.683485 230.160474 289.260437 230.412844 288.838597 230.667222 
L 323.193484 287.638413 
C 323.434536 287.493054 323.676277 287.348843 323.918702 287.205785 
C 324.161126 287.062727 324.40423 286.920823 324.648005 286.78008 
L 291.384008 229.16514 
z
" style="fill: #ff7f0e; stroke: #ffffff; stroke-linejoin: miter"/>
            </g>
            <g id="patch_84">
                <path d="M 288.838597 230.667222
C 288.416758 230.921601 287.996131 231.177986 287.576732 231.436369 
C 287.157333 231.694753 286.739166 231.95513 286.322246 232.217494 
L 321.755569 288.524282 
C 321.993809 288.37436 322.232762 288.225573 322.472418 288.077925 
C 322.712075 287.930278 322.952433 287.783772 323.193484 287.638413 
L 288.838597 230.667222 
z
" style="fill: #2ca02c; stroke: #ffffff; stroke-linejoin: miter"/>
            </g>
            <g id="patch_85">
                <path d="M 286.322246 232.217494
C 285.905326 232.479858 285.489656 232.744205 285.075253 233.010526 
C 284.660849 233.276847 284.247715 233.54514 283.835866 233.815394 
L 320.33478 289.437368 
C 320.570123 289.282937 320.806199 289.129627 321.043002 288.977444 
C 321.279804 288.82526 321.517329 288.674205 321.755569 288.524282 
L 286.322246 232.217494 
z
" style="fill: #d62728; stroke: #ffffff; stroke-linejoin: miter"/>
            </g>
            <g id="patch_86">
                <path d="M 283.835866 233.815394
C 283.012162 234.355905 282.193622 234.904245 281.380358 235.460341 
C 280.567094 236.016437 279.759143 236.580262 278.956614 237.15174 
L 317.546636 291.343851 
C 318.005225 291.017292 318.466911 290.695107 318.931633 290.377338 
C 319.396356 290.059569 319.864092 289.746231 320.33478 289.437368 
L 283.835866 233.815394 
z
" style="fill: #9467bd; stroke: #ffffff; stroke-linejoin: miter"/>
            </g>
            <g id="patch_87">
                <path d="M 278.956614 237.15174
C 278.555352 237.437478 278.155452 237.725124 277.756928 238.014668 
C 277.358404 238.304213 276.96126 238.595653 276.565511 238.888978 
L 316.180292 292.336559 
C 316.406434 292.168944 316.633374 292.002407 316.861102 291.836953 
C 317.08883 291.671499 317.317344 291.50713 317.546636 291.343851 
L 278.956614 237.15174 
z
" style="fill: #8c564b; stroke: #ffffff; stroke-linejoin: miter"/>
            </g>
            <g id="patch_88">
                <path d="M 276.565511 238.888978
C 276.169761 239.182303 275.77541 239.477511 275.382471 239.77459 
C 274.989532 240.07167 274.598009 240.370618 274.207916 240.671424 
L 314.833095 293.3551 
C 315.056005 293.18321 315.279733 293.012383 315.504269 292.842623 
C 315.728806 292.672863 315.954149 292.504173 316.180292 292.336559 
L 276.565511 238.888978 
z
" style="fill: #e377c2; stroke: #ffffff; stroke-linejoin: miter"/>
            </g>
            <g id="patch_89">
                <path d="M 274.207916 240.671424
C 273.427726 241.273041 272.65328 241.882072 271.884685 242.498434 
C 271.116089 243.114795 270.353379 243.73846 269.596658 244.369343 
L 312.19809 295.468196 
C 312.630502 295.107692 313.066337 294.751312 313.505534 294.399105 
C 313.944731 294.046898 314.387272 293.698881 314.833095 293.3551 
L 274.207916 240.671424 
z
" style="fill: #7f7f7f; stroke: #ffffff; stroke-linejoin: miter"/>
            </g>
            <g id="patch_90">
                <path d="M 269.596658 244.369343
C 269.2183 244.684783 268.841445 245.002022 268.466107 245.32105 
C 268.090768 245.640077 267.716951 245.960889 267.344666 246.283475 
L 310.911238 296.561986 
C 311.123972 296.377651 311.337582 296.19433 311.552061 296.012028 
C 311.76654 295.829727 311.981886 295.648448 312.19809 295.468196 
L 269.596658 244.369343 
z
" style="fill: #bcbd22; stroke: #ffffff; stroke-linejoin: miter"/>
            </g>
            <g id="patch_91">
                <path d="M 267.344666 246.283475
C 266.227797 247.251248 265.124804 248.234921 264.036026 249.234193 
C 262.947247 250.233464 261.872794 251.248233 260.812995 252.278188 
L 307.178854 299.987536 
C 307.784454 299.39899 308.398427 298.819122 309.020586 298.24811 
C 309.642745 297.677098 310.273027 297.114999 310.911238 296.561986 
L 267.344666 246.283475 
z
" style="fill: #17becf; stroke: #ffffff; stroke-linejoin: miter"/>
            </g>
            <g id="patch_92">
                <path d="M 260.812995 252.278188
C 260.459734 252.621502 260.108109 252.966494 259.758132 253.313155 
C 259.408156 253.659816 259.059831 254.00814 258.71317 254.358117 
L 305.978954 301.176067 
C 306.177046 300.97608 306.376089 300.777038 306.576076 300.578946 
C 306.776062 300.380854 306.976991 300.183715 307.178854 299.987536 
L 260.812995 252.278188 
z
" style="fill: #1f77b4; stroke: #ffffff; stroke-linejoin: miter"/>
            </g>
            <g id="patch_93">
                <path d="M 258.71317 254.358117
C 258.366509 254.708094 258.021516 255.059719 257.678203 255.41298 
C 257.33489 255.766241 256.99326 256.121134 256.653325 256.477647 
L 304.8019 302.387227 
C 304.996149 302.183505 305.191366 301.980709 305.387545 301.778846 
C 305.583724 301.576982 305.780862 301.376054 305.978954 301.176067 
L 258.71317 254.358117 
z
" style="fill: #ff7f0e; stroke: #ffffff; stroke-linejoin: miter"/>
            </g>
            <g id="patch_94">
                <path d="M 256.653325 256.477647
C 254.273566 258.973466 251.977636 261.547893 249.769357 264.196642 
C 247.561078 266.845391 245.441676 269.566991 243.41468 272.356911 
L 297.23696 311.461092 
C 298.395243 309.866852 299.60633 308.311652 300.868204 306.798081 
C 302.130078 305.28451 303.442038 303.813409 304.8019 302.387227 
L 256.653325 256.477647 
z
" style="fill: #2ca02c; stroke: #ffffff; stroke-linejoin: miter"/>
            </g>
            <g id="patch_95">
                <path d="M 243.41468 272.356911
C 241.387684 275.146831 239.45422 278.003523 237.617505 280.922229 
C 235.780791 283.840935 234.041846 286.820036 232.403566 289.854572 
L 290.944895 321.459755 
C 291.881055 319.725735 292.874737 318.023392 293.924289 316.355559 
C 294.97384 314.687727 296.078677 313.055332 297.23696 311.461092 
L 243.41468 272.356911 
z
" style="fill: #d62728; stroke: #ffffff; stroke-linejoin: miter"/>
            </g>
            <g id="patch_96">
                <path d="M 232.403566 289.854572
C 231.23342 292.021999 230.115026 294.21697 229.049335 296.437621 
C 227.983644 298.658271 226.970958 300.903971 226.012137 303.172814 
L 287.29265 329.070179 
C 287.840547 327.773698 288.419225 326.49044 289.028191 325.221498 
C 289.637158 323.952555 290.27624 322.698285 290.944895 321.459755 
L 232.403566 289.854572 
z
" style="fill: #9467bd; stroke: #ffffff; stroke-linejoin: miter"/>
            </g>
            <g id="patch_97">
                <path d="M 226.012137 303.172814
C 224.47791 306.803229 223.082503 310.490758 221.828948 314.227383 
C 220.575393 317.964008 219.464601 321.747019 218.498986 325.568191 
L 282.99942 341.867537 
C 283.551201 339.684011 284.185939 337.52229 284.902256 335.387076 
C 285.618573 333.251862 286.415949 331.144702 287.29265 329.070179 
L 226.012137 303.172814 
z
" style="fill: #8c564b; stroke: #ffffff; stroke-linejoin: miter"/>
            </g>
            <g id="patch_98">
                <path d="M 218.498986 325.568191
C 218.016222 327.478603 217.569877 329.398035 217.160194 331.325442 
C 216.750511 333.252849 216.377564 335.187882 216.041555 337.129488 
L 281.595174 348.473993 
C 281.787179 347.364504 282.000292 346.258771 282.234397 345.157395 
C 282.468501 344.05602 282.723555 342.959202 282.99942 341.867537 
L 218.498986 325.568191 
z
" style="fill: #e377c2; stroke: #ffffff; stroke-linejoin: miter"/>
            </g>
            <g id="patch_99">
                <path d="M 216.041555 337.129488
C 215.369478 341.013053 214.845547 344.920806 214.470904 348.844249 
C 214.09626 352.767692 213.871174 356.703981 213.796137 360.644556 
L 280.312078 361.911175 
C 280.354957 359.659418 280.483577 357.41011 280.697659 355.168142 
C 280.911741 352.926175 281.21113 350.693173 281.595174 348.473993 
L 216.041555 337.129488 
z
" style="fill: #7f7f7f; stroke: #ffffff; stroke-linejoin: miter"/>
            </g>
            <g id="patch_100">
                <path d="M 213.796137 360.644556
C 213.721099 364.585132 213.796163 368.527136 214.021167 372.461998 
C 214.24617 376.39686 214.620949 380.321726 215.144689 384.228062 
L 281.082679 375.387464 
C 280.783399 373.155272 280.56924 370.912492 280.440667 368.663999 
C 280.312093 366.415506 280.269199 364.162933 280.312078 361.911175 
L 213.796137 360.644556 
z
" style="fill: #bcbd22; stroke: #ffffff; stroke-linejoin: miter"/>
            </g>
            <g id="patch_101">
                <path d="M 215.144689 384.228062
C 215.602948 387.64601 216.174976 391.047738 216.859821 394.427583 
C 217.544667 397.807429 218.341948 401.163514 219.250339 404.490253 
L 283.428765 386.965859 
C 282.909685 385.064865 282.454095 383.147102 282.062755 381.215762 
C 281.671415 379.284422 281.344542 377.340577 281.082679 375.387464 
L 215.144689 384.228062 
z
" style="fill: #17becf; stroke: #ffffff; stroke-linejoin: miter"/>
            </g>
            <g id="patch_102">
                <path d="M 219.250339 404.490253
C 219.509857 405.44067 219.778417 406.388594 220.055983 407.333896 
C 220.333549 408.279199 220.620108 409.221838 220.915621 410.161686 
L 284.380355 390.206677 
C 284.21149 389.669622 284.047742 389.130971 283.889133 388.590798 
C 283.730524 388.050625 283.577061 387.508954 283.428765 386.965859 
L 219.250339 404.490253 
z
" style="fill: #1f77b4; stroke: #ffffff; stroke-linejoin: miter"/>
            </g>
            <g id="patch_103">
                <path d="M 220.915621 410.161686
C 221.063377 410.631606 221.213368 411.100821 221.365591 411.569314 
C 221.517814 412.037807 221.672265 412.505573 221.828941 412.972596 
L 284.902252 391.812912 
C 284.812723 391.546042 284.724465 391.278747 284.637481 391.011037 
C 284.550496 390.743326 284.464787 390.475204 284.380355 390.206677 
L 220.915621 410.161686 
z
" style="fill: #ff7f0e; stroke: #ffffff; stroke-linejoin: miter"/>
            </g>
            <g id="patch_104">
                <path d="M 221.828941 412.972596
C 221.985617 413.439618 222.144514 413.905892 222.305629 414.371402 
C 222.466743 414.836912 222.630073 415.301653 222.795612 415.765608 
L 285.454635 393.408919 
C 285.360042 393.143801 285.26671 392.878236 285.174645 392.61223 
C 285.08258 392.346224 284.991781 392.079782 284.902252 391.812912 
L 221.828941 412.972596 
z
" style="fill: #2ca02c; stroke: #ffffff; stroke-linejoin: miter"/>
            </g>
            <g id="patch_105">
                <path d="M 222.795612 415.765608
C 222.96115 416.229563 223.128897 416.692727 223.298845 417.155085 
C 223.468793 417.617443 223.640941 418.07899 223.815283 418.539709 
L 286.037304 394.994119 
C 285.93768 394.730851 285.83931 394.46711 285.742197 394.202906 
C 285.645084 393.938701 285.549229 393.674036 285.454635 393.408919 
L 222.795612 415.765608 
z
" style="fill: #d62728; stroke: #ffffff; stroke-linejoin: miter"/>
            </g>
            <g id="patch_106">
                <path d="M 223.815283 418.539709
C 223.989624 419.000428 224.166158 419.460315 224.344878 419.919354 
C 224.523598 420.378393 224.704502 420.836578 224.887584 421.293894 
L 286.650048 396.56794 
C 286.54543 396.306616 286.442056 396.044796 286.339931 395.782488 
C 286.237805 395.52018 286.136928 395.257388 286.037304 394.994119 
L 223.815283 418.539709 
z
" style="fill: #9467bd; stroke: #ffffff; stroke-linejoin: miter"/>
            </g>
            <g id="patch_107">
                <path d="M 224.887584 421.293894
C 226.169274 424.4954 227.557291 427.653308 229.049325 430.762359 
C 230.54136 433.87141 232.136583 436.929879 233.832339 439.932674 
L 291.761336 407.218671 
C 290.792333 405.502788 289.880777 403.755092 289.028186 401.978491 
C 288.175595 400.20189 287.382442 398.397372 286.650048 396.56794 
L 224.887584 421.293894 
z
" style="fill: #8c564b; stroke: #ffffff; stroke-linejoin: miter"/>
            </g>
            <g id="patch_108">
                <path d="M 233.832339 439.932674
C 235.528095 442.93547 237.323442 445.880923 239.215392 448.764132 
C 241.107342 451.647341 243.094844 454.466704 245.174589 457.217527 
L 298.242622 417.09573 
C 297.054196 415.523831 295.918481 413.912766 294.837367 412.265218 
C 293.756253 410.61767 292.73034 408.934554 291.761336 407.218671 
L 233.832339 439.932674 
z
" style="fill: #e377c2; stroke: #ffffff; stroke-linejoin: miter"/>
            </g>
            <g id="patch_109">
                <path d="M 245.174589 457.217527
C 247.551507 460.361414 250.047297 463.413637 252.656532 466.367559 
C 255.265767 469.321482 257.986554 472.174962 260.812978 474.921795 
L 307.178845 427.212454 
C 305.563745 425.642835 304.00901 424.012275 302.518018 422.32432 
C 301.027027 420.636364 299.600861 418.892236 298.242622 417.09573 
L 245.174589 457.217527 
z
" style="fill: #7f7f7f; stroke: #ffffff; stroke-linejoin: miter"/>
            </g>
            <g id="patch_110">
                <path d="M 260.812978 474.921795
C 263.639402 477.668628 266.569413 480.306823 269.59664 482.830641 
C 272.623867 485.35446 275.746115 487.762074 278.956595 490.048246 
L 317.546625 435.856141 
C 315.712066 434.549756 313.927924 433.173977 312.19808 431.731795 
C 310.468236 430.289613 308.793944 428.782073 307.178845 427.212454 
L 260.812978 474.921795 
z
" style="fill: #bcbd22; stroke: #ffffff; stroke-linejoin: miter"/>
            </g>
            <g id="patch_111">
                <path d="M 278.956595 490.048246
C 282.167074 492.334419 285.463458 494.497493 288.838577 496.532765 
C 292.213697 498.568038 295.665105 500.474032 299.185297 502.246605 
L 329.105884 442.826631 
C 327.094346 441.813733 325.122112 440.724593 323.193473 439.56158 
C 321.264833 438.398567 319.381185 437.162525 317.546625 435.856141 
L 278.956595 490.048246 
z
" style="fill: #17becf; stroke: #ffffff; stroke-linejoin: miter"/>
            </g>
            <g id="patch_112">
                <path d="M 299.185297 502.246605
C 302.705489 504.019177 306.291912 505.657042 309.936768 507.156639 
C 313.581624 508.656235 317.28227 510.016475 321.030659 511.2344 
L 341.588948 447.962515 
C 339.447012 447.266557 337.332357 446.489277 335.249582 445.632365 
C 333.166807 444.775453 331.117422 443.83953 329.105884 442.826631 
L 299.185297 502.246605 
z
" style="fill: #1f77b4; stroke: #ffffff; stroke-linejoin: miter"/>
            </g>
            <g id="patch_113">
                <path d="M 321.030659 511.2344
C 323.841803 512.147797 326.678461 512.980715 329.537165 513.732137 
C 332.395868 514.483558 335.27545 515.153177 338.172389 515.740173 
L 351.384222 450.537242 
C 349.728829 450.201815 348.083353 449.819176 346.449808 449.389792 
C 344.816263 448.960409 343.195316 448.484455 341.588948 447.962515 
L 321.030659 511.2344 
z
" style="fill: #ff7f0e; stroke: #ffffff; stroke-linejoin: miter"/>
            </g>
            <g id="patch_114">
                <path d="M 338.172389 515.740173
C 342.518167 516.620742 346.899679 517.314706 351.30487 517.820155 
C 355.710061 518.325604 360.134886 518.642074 364.567171 518.768695 
L 366.466955 452.267826 
C 363.934221 452.195471 361.405749 452.014631 358.888497 451.725803 
C 356.371245 451.436975 353.867524 451.040424 351.384222 450.537242 
L 338.172389 515.740173 
z
" style="fill: #2ca02c; stroke: #ffffff; stroke-linejoin: miter"/>
            </g>
            <g id="patch_115">
                <path d="M 364.567171 518.768695
C 368.999457 518.895315 373.435133 518.83197 377.861995 518.578834 
C 382.288857 518.325697 386.702841 517.883001 391.091801 517.251964 
L 381.623887 451.401122 
C 379.115909 451.761715 376.593632 452.014684 374.063997 452.159334 
C 371.534361 452.303983 368.999689 452.34018 366.466955 452.267826 
L 364.567171 518.768695 
z
" style="fill: #d62728; stroke: #ffffff; stroke-linejoin: miter"/>
            </g>
            <g id="patch_116">
                <path d="M 391.091801 517.251964
C 391.57939 517.18186 392.066642 517.109435 392.553542 517.034691 
C 393.040441 516.959948 393.526981 516.882888 394.013147 516.803513 
L 383.293227 451.144864 
C 383.015418 451.190222 382.737395 451.234256 382.459167 451.276966 
C 382.180938 451.319677 381.902509 451.361063 381.623887 451.401122 
L 391.091801 517.251964 
z
" style="fill: #9467bd; stroke: #ffffff; stroke-linejoin: miter"/>
            </g>
            <g id="patch_117">
                <path d="M 394.013147 516.803513
C 397.902934 516.168437 401.767124 515.385451 405.597315 514.456257 
C 409.427507 513.527063 413.220921 512.452335 416.96931 511.23441 
L 396.411034 447.96252 
C 394.269098 448.658477 392.101432 449.272608 389.912752 449.803576 
C 387.724071 450.334543 385.515962 450.781964 383.293227 451.144864 
L 394.013147 516.803513 
z
" style="fill: #8c564b; stroke: #ffffff; stroke-linejoin: miter"/>
            </g>
            <g id="patch_118">
                <path d="M 416.96931 511.23441
C 420.7177 510.016485 424.418346 508.656246 428.063203 507.156651 
C 431.708059 505.657055 435.294482 504.019191 438.814675 502.246619 
L 408.8941 442.826639 
C 406.882561 443.839538 404.833177 444.77546 402.750401 445.632372 
C 400.667626 446.489283 398.552971 447.266563 396.411034 447.96252 
L 416.96931 511.23441 
z
" style="fill: #e377c2; stroke: #ffffff; stroke-linejoin: miter"/>
            </g>
            <g id="patch_119">
                <path d="M 438.814675 502.246619
C 439.254647 502.025074 439.693561 501.801436 440.131404 501.575712 
C 440.569247 501.349989 441.006013 501.122182 441.441687 500.892301 
L 410.395249 442.052743 
C 410.146293 442.184104 409.896712 442.314279 409.646517 442.443264 
C 409.396321 442.572249 409.145512 442.700042 408.8941 442.826639 
L 438.814675 502.246619 
z
" style="fill: #7f7f7f; stroke: #ffffff; stroke-linejoin: miter"/>
            </g>
            <g id="patch_120">
                <path d="M 441.441687 500.892301
C 441.877361 500.662419 442.311938 500.430465 442.745404 500.196447 
C 443.17887 499.962428 443.611219 499.726347 444.042437 499.488213 
L 411.881393 441.250407 
C 411.634982 441.386484 411.387925 441.521387 411.140231 441.655112 
C 410.892536 441.788837 410.644206 441.921382 410.395249 442.052743 
L 441.441687 500.892301 
z
" style="fill: #bcbd22; stroke: #ffffff; stroke-linejoin: miter"/>
            </g>
            <g id="patch_121">
                <path d="M 444.042437 499.488213
C 444.473656 499.250078 444.903738 499.009893 445.33267 498.767664 
C 445.761602 498.525435 446.189378 498.281166 446.615985 498.034864 
L 413.351991 440.419922 
C 413.108216 440.560666 412.863773 440.700248 412.618669 440.838665 
C 412.373565 440.977081 412.127803 441.11433 411.881393 441.250407 
L 444.042437 499.488213 
z
" style="fill: #17becf; stroke: #ffffff; stroke-linejoin: miter"/>
            </g>
            <g id="patch_122">
                <path d="M 446.615985 498.034864
C 450.029242 496.06422 453.366211 493.964298 456.619635 491.739664 
C 459.873059 489.51503 463.04058 487.167297 466.115309 484.701571 
L 424.494462 432.800898 
C 422.737474 434.209884 420.927462 435.551446 419.068363 436.822665 
C 417.209263 438.093884 415.302424 439.29384 413.351991 440.419922 
L 446.615985 498.034864 
z
" style="fill: #1f77b4; stroke: #ffffff; stroke-linejoin: miter"/>
            </g>
            <g id="patch_123">
                <path d="M 466.115309 484.701571
C 466.499604 484.393392 466.882431 484.083386 467.263775 483.771562 
C 467.645119 483.459739 468.024977 483.146102 468.403336 482.830662 
L 425.801906 431.731807 
C 425.585701 431.912058 425.36864 432.091279 425.150729 432.269464 
C 424.932818 432.447649 424.71406 432.624796 424.494462 432.800898 
L 466.115309 484.701571 
z
" style="fill: #ff7f0e; stroke: #ffffff; stroke-linejoin: miter"/>
            </g>
            <g id="patch_124">
                <path d="M 468.403336 482.830662
C 468.781694 482.515222 469.158549 482.197983 469.533887 481.878956 
C 469.909226 481.559928 470.283043 481.239116 470.655327 480.91653 
L 427.088759 430.638017 
C 426.876025 430.822352 426.662415 431.005673 426.447936 431.187975 
C 426.233456 431.370276 426.018111 431.551555 425.801906 431.731807 
L 468.403336 482.830662 
z
" style="fill: #2ca02c; stroke: #ffffff; stroke-linejoin: miter"/>
            </g>
            <g id="patch_125">
                <path d="M 470.655327 480.91653
C 471.027612 480.593944 471.398358 480.269588 471.767555 479.943472 
C 472.136751 479.617357 472.504393 479.289485 472.870468 478.95987 
L 428.354553 429.519926 
C 428.145368 429.708277 427.935286 429.895632 427.724317 430.081984 
C 427.513348 430.268336 427.301492 430.453682 427.088759 430.638017 
L 470.655327 480.91653 
z
" style="fill: #d62728; stroke: #ffffff; stroke-linejoin: miter"/>
            </g>
            <g id="patch_126">
                <path d="M 472.870468 478.95987
C 473.236544 478.630255 473.601048 478.298898 473.963968 477.965813 
C 474.326889 477.632727 474.688222 477.297916 475.047955 476.961391 
L 429.598832 428.377938 
C 429.39327 428.570238 429.186794 428.761559 428.979411 428.951893 
C 428.772027 429.142228 428.563739 429.331574 428.354553 429.519926 
L 472.870468 478.95987 
z
" style="fill: #9467bd; stroke: #ffffff; stroke-linejoin: miter"/>
            </g>
            <g id="patch_127">
                <path d="M 475.047955 476.961391
C 475.407689 476.624866 475.765818 476.28663 476.122332 475.946695 
C 476.478845 475.60676 476.833738 475.265131 477.186999 474.921817 
L 430.821142 427.212467 
C 430.619279 427.408646 430.416483 427.603863 430.212761 427.798112 
C 430.009039 427.99236 429.804394 428.185637 429.598832 428.377938 
L 475.047955 476.961391 
z
" style="fill: #8c564b; stroke: #ffffff; stroke-linejoin: miter"/>
            </g>
            <g id="patch_128">
                <path d="M 477.186999 474.921817
C 477.54026 474.578504 477.891885 474.233511 478.241862 473.886851 
C 478.591839 473.54019 478.940163 473.191865 479.286824 472.841889 
L 432.021042 426.023936 
C 431.82295 426.223923 431.623908 426.422966 431.423921 426.621058 
C 431.223934 426.819149 431.023006 427.016288 430.821142 427.212467 
L 477.186999 474.921817 
z
" style="fill: #e377c2; stroke: #ffffff; stroke-linejoin: miter"/>
            </g>
            <g id="patch_129">
                <path d="M 479.286824 472.841889
C 479.633485 472.491912 479.978478 472.140287 480.321791 471.787026 
C 480.665104 471.433765 481.006734 471.078872 481.346669 470.722359 
L 433.198097 424.812776 
C 433.003848 425.016498 432.808631 425.219294 432.612452 425.421158 
C 432.416273 425.623021 432.219134 425.82395 432.021042 426.023936 
L 479.286824 472.841889 
z
" style="fill: #7f7f7f; stroke: #ffffff; stroke-linejoin: miter"/>
            </g>
            <g id="patch_130">
                <path d="M 481.346669 470.722359
C 481.686604 470.365846 482.02484 470.007716 482.361365 469.647983 
C 482.697891 469.28825 483.032702 468.926917 483.365787 468.563996 
L 434.351879 423.579426 
C 434.161544 423.78681 433.970223 423.993286 433.777923 424.198847 
C 433.585623 424.404409 433.392345 424.609055 433.198097 424.812776 
L 481.346669 470.722359 
z
" style="fill: #bcbd22; stroke: #ffffff; stroke-linejoin: miter"/>
            </g>
            <g id="patch_131">
                <path d="M 483.365787 468.563996
C 484.031962 467.838151 484.691212 467.10598 485.343447 466.367583 
C 485.995682 465.629186 486.640873 464.884597 487.278931 464.133916 
L 436.587961 421.047952 
C 436.223356 421.476912 435.854675 421.902392 435.48197 422.324333 
C 435.109264 422.746274 434.73255 423.164658 434.351879 423.579426 
L 483.365787 468.563996 
z
" style="fill: #17becf; stroke: #ffffff; stroke-linejoin: miter"/>
            </g>
            <g id="patch_132">
                <path d="M 487.278931 464.133916
C 487.597959 463.758578 487.915198 463.381723 488.230638 463.003364 
C 488.546078 462.625006 488.859715 462.245148 489.171538 461.863804 
L 437.66945 419.750745 
C 437.491265 419.968656 437.312044 420.185718 437.131793 420.401923 
C 436.951542 420.618127 436.770262 420.833473 436.587961 421.047952 
L 487.278931 464.133916 
z
" style="fill: #1f77b4; stroke: #ffffff; stroke-linejoin: miter"/>
            </g>
            <g id="patch_133">
                <path d="M 489.171538 461.863804
C 489.795189 461.101112 490.411565 460.332499 491.020582 459.558071 
C 491.629599 458.783643 492.23123 458.003435 492.825392 457.217552 
L 439.757367 417.095744 
C 439.417846 417.54482 439.074057 417.990653 438.726047 418.433183 
C 438.378037 418.875714 438.025822 419.314921 437.66945 419.750745 
L 489.171538 461.863804 
z
" style="fill: #ff7f0e; stroke: #ffffff; stroke-linejoin: miter"/>
            </g>
            <g id="patch_134">
                <path d="M 492.825392 457.217552
C 493.419555 456.43167 494.006222 455.640148 494.585315 454.843096 
C 495.164407 454.046044 495.735898 453.243497 496.299711 452.435564 
L 441.742692 414.363179 
C 441.420513 414.824855 441.093947 415.283454 440.763037 415.738912 
C 440.432127 416.194371 440.096888 416.646668 439.757367 417.095744 
L 492.825392 457.217552 
z
" style="fill: #2ca02c; stroke: #ffffff; stroke-linejoin: miter"/>
            </g>
            <g id="patch_135">
                <path d="M 496.299711 452.435564
C 496.863524 451.627631 497.419632 450.814348 497.96796 449.995828 
C 498.516289 449.177307 499.056812 448.353584 499.589458 447.524772 
L 443.622547 411.557013 
C 443.318178 412.03062 443.009308 412.501318 442.695977 412.969044 
C 442.382647 413.436771 442.064871 413.901503 441.742692 414.363179 
L 496.299711 452.435564 
z
" style="fill: #d62728; stroke: #ffffff; stroke-linejoin: miter"/>
            </g>
            <g id="patch_136">
                <path d="M 499.589458 447.524772
C 500.122103 446.69596 500.646846 445.862096 501.163615 445.023293 
C 501.680384 444.18449 502.189156 443.340787 502.689862 442.492298 
L 445.394207 408.681313 
C 445.108089 409.166164 444.817362 409.64828 444.522066 410.127596 
C 444.226769 410.606912 443.926916 411.083406 443.622547 411.557013 
L 499.589458 447.524772 
z
" style="fill: #9467bd; stroke: #ffffff; stroke-linejoin: miter"/>
            </g>
            <g id="patch_137">
                <path d="M 502.689862 442.492298
C 502.940213 442.068055 503.188544 441.642624 503.434845 441.216017 
C 503.681147 440.789411 503.925416 440.361635 504.167645 439.932703 
L 446.238654 407.218687 
C 446.100238 407.463791 445.960655 407.708235 445.819912 407.95201 
C 445.679168 408.195785 445.537265 408.438889 445.394207 408.681313 
L 502.689862 442.492298 
z
" style="fill: #8c564b; stroke: #ffffff; stroke-linejoin: miter"/>
            </g>
            <g id="patch_138">
                <path d="M 504.167645 439.932703
C 504.409874 439.503771 504.65006 439.073689 504.888195 438.64247 
C 505.126329 438.211252 505.36241 437.778903 505.596429 437.345437 
L 447.055102 405.74025 
C 446.921377 405.987944 446.786474 406.235001 446.650397 406.481412 
C 446.51432 406.727822 446.377071 406.973584 446.238654 407.218687 
L 504.167645 439.932703 
z
" style="fill: #e377c2; stroke: #ffffff; stroke-linejoin: miter"/>
            </g>
            <g id="patch_139">
                <path d="M 505.596429 437.345437
C 505.830448 436.911971 506.062402 436.477394 506.292283 436.04172 
C 506.522165 435.606046 506.749971 435.16928 506.975695 434.731438 
L 447.843254 404.246536 
C 447.714269 404.496732 447.584094 404.746312 447.452733 404.995269 
C 447.321372 405.244225 447.188827 405.492555 447.055102 405.74025 
L 505.596429 437.345437 
z
" style="fill: #7f7f7f; stroke: #ffffff; stroke-linejoin: miter"/>
            </g>
            <g id="patch_140">
                <path d="M 506.975695 434.731438
C 509.007515 430.790258 510.869536 426.763832 512.556636 422.663237 
C 514.243736 418.562642 515.754366 414.391643 517.084369 410.161717 
L 453.619639 390.206695 
C 452.859638 392.623796 451.996421 395.007224 451.032364 397.350421 
C 450.068307 399.693618 449.004294 401.994433 447.843254 404.246536 
L 506.975695 434.731438 
z
" style="fill: #bcbd22; stroke: #ffffff; stroke-linejoin: miter"/>
            </g>
            <g id="patch_141">
                <path d="M 517.084369 410.161717
C 518.266556 406.401903 519.305123 402.59843 520.197813 398.759566 
C 521.090503 394.920703 521.836668 391.049234 522.434686 387.153578 
L 456.676963 377.059187 
C 456.335239 379.285277 455.908859 381.497545 455.39875 383.691181 
C 454.888642 385.884817 454.295175 388.05823 453.619639 390.206695 
L 517.084369 410.161717 
z
" style="fill: #17becf; stroke: #ffffff; stroke-linejoin: miter"/>
            </g>
            <g id="patch_142">
                <path d="M 522.434686 387.153578
C 523.032703 383.257921 523.48214 379.340902 523.782018 375.411037 
C 524.081897 371.481172 524.231999 367.541312 524.232 363.600022 
L 457.704 363.600012 
C 457.704 365.852178 457.618227 368.103527 457.446868 370.349164 
C 457.275509 372.594801 457.018688 374.833098 456.676963 377.059187 
L 522.434686 387.153578 
z
" style="fill: #1f77b4; stroke: #ffffff; stroke-linejoin: miter"/>
            </g>
            <g id="matplotlib.axis_1"/>
            <g id="matplotlib.axis_2"/>
            <g id="text_1">
                <!-- Activities -->
                <g transform="translate(612.394557 350.115547)scale(0.1 -0.1)">
                    <defs>
                        <path id="DejaVuSans-41" d="M 2188 4044
L 1331 1722 
L 3047 1722 
L 2188 4044 
z
M 1831 4666 
L 2547 4666 
L 4325 0 
L 3669 0 
L 3244 1197 
L 1141 1197 
L 716 0 
L 50 0 
L 1831 4666 
z
" transform="scale(0.015625)"/>
                        <path id="DejaVuSans-63" d="M 3122 3366
L 3122 2828 
Q 2878 2963 2633 3030 
Q 2388 3097 2138 3097 
Q 1578 3097 1268 2742 
Q 959 2388 959 1747 
Q 959 1106 1268 751 
Q 1578 397 2138 397 
Q 2388 397 2633 464 
Q 2878 531 3122 666 
L 3122 134 
Q 2881 22 2623 -34 
Q 2366 -91 2075 -91 
Q 1284 -91 818 406 
Q 353 903 353 1747 
Q 353 2603 823 3093 
Q 1294 3584 2113 3584 
Q 2378 3584 2631 3529 
Q 2884 3475 3122 3366 
z
" transform="scale(0.015625)"/>
                        <path id="DejaVuSans-74" d="M 1172 4494
L 1172 3500 
L 2356 3500 
L 2356 3053 
L 1172 3053 
L 1172 1153 
Q 1172 725 1289 603 
Q 1406 481 1766 481 
L 2356 481 
L 2356 0 
L 1766 0 
Q 1100 0 847 248 
Q 594 497 594 1153 
L 594 3053 
L 172 3053 
L 172 3500 
L 594 3500 
L 594 4494 
L 1172 4494 
z
" transform="scale(0.015625)"/>
                        <path id="DejaVuSans-69" d="M 603 3500
L 1178 3500 
L 1178 0 
L 603 0 
L 603 3500 
z
M 603 4863 
L 1178 4863 
L 1178 4134 
L 603 4134 
L 603 4863 
z
" transform="scale(0.015625)"/>
                        <path id="DejaVuSans-76" d="M 191 3500
L 800 3500 
L 1894 563 
L 2988 3500 
L 3597 3500 
L 2284 0 
L 1503 0 
L 191 3500 
z
" transform="scale(0.015625)"/>
                        <path id="DejaVuSans-65" d="M 3597 1894
L 3597 1613 
L 953 1613 
Q 991 1019 1311 708 
Q 1631 397 2203 397 
Q 2534 397 2845 478 
Q 3156 559 3463 722 
L 3463 178 
Q 3153 47 2828 -22 
Q 2503 -91 2169 -91 
Q 1331 -91 842 396 
Q 353 884 353 1716 
Q 353 2575 817 3079 
Q 1281 3584 2069 3584 
Q 2775 3584 3186 3129 
Q 3597 2675 3597 1894 
z
M 3022 2063 
Q 3016 2534 2758 2815 
Q 2500 3097 2075 3097 
Q 1594 3097 1305 2825 
Q 1016 2553 972 2059 
L 3022 2063 
z
" transform="scale(0.015625)"/>
                        <path id="DejaVuSans-73" d="M 2834 3397
L 2834 2853 
Q 2591 2978 2328 3040 
Q 2066 3103 1784 3103 
Q 1356 3103 1142 2972 
Q 928 2841 928 2578 
Q 928 2378 1081 2264 
Q 1234 2150 1697 2047 
L 1894 2003 
Q 2506 1872 2764 1633 
Q 3022 1394 3022 966 
Q 3022 478 2636 193 
Q 2250 -91 1575 -91 
Q 1294 -91 989 -36 
Q 684 19 347 128 
L 347 722 
Q 666 556 975 473 
Q 1284 391 1588 391 
Q 1994 391 2212 530 
Q 2431 669 2431 922 
Q 2431 1156 2273 1281 
Q 2116 1406 1581 1522 
L 1381 1569 
Q 847 1681 609 1914 
Q 372 2147 372 2553 
Q 372 3047 722 3315 
Q 1072 3584 1716 3584 
Q 2034 3584 2315 3537 
Q 2597 3491 2834 3397 
z
" transform="scale(0.015625)"/>
                    </defs>
                    <use xlink:href="#DejaVuSans-41"/>
                    <use xlink:href="#DejaVuSans-63" x="66.658203"/>
                    <use xlink:href="#DejaVuSans-74" x="121.638672"/>
                    <use xlink:href="#DejaVuSans-69" x="160.847656"/>
                    <use xlink:href="#DejaVuSans-76" x="188.630859"/>
                    <use xlink:href="#DejaVuSans-69" x="247.810547"/>
                    <use xlink:href="#DejaVuSans-74" x="275.59375"/>
                    <use xlink:href="#DejaVuSans-69" x="314.802734"/>
                    <use xlink:href="#DejaVuSans-65" x="342.585938"/>
                    <use xlink:href="#DejaVuSans-73" x="404.109375"/>
                </g>
            </g>
            <g id="text_2">
                <!-- Cardiovascular -->
                <g transform="translate(609.748373 327.052977)scale(0.1 -0.1)">
                    <defs>
                        <path id="DejaVuSans-43" d="M 4122 4306
L 4122 3641 
Q 3803 3938 3442 4084 
Q 3081 4231 2675 4231 
Q 1875 4231 1450 3742 
Q 1025 3253 1025 2328 
Q 1025 1406 1450 917 
Q 1875 428 2675 428 
Q 3081 428 3442 575 
Q 3803 722 4122 1019 
L 4122 359 
Q 3791 134 3420 21 
Q 3050 -91 2638 -91 
Q 1578 -91 968 557 
Q 359 1206 359 2328 
Q 359 3453 968 4101 
Q 1578 4750 2638 4750 
Q 3056 4750 3426 4639 
Q 3797 4528 4122 4306 
z
" transform="scale(0.015625)"/>
                        <path id="DejaVuSans-61" d="M 2194 1759
Q 1497 1759 1228 1600 
Q 959 1441 959 1056 
Q 959 750 1161 570 
Q 1363 391 1709 391 
Q 2188 391 2477 730 
Q 2766 1069 2766 1631 
L 2766 1759 
L 2194 1759 
z
M 3341 1997 
L 3341 0 
L 2766 0 
L 2766 531 
Q 2569 213 2275 61 
Q 1981 -91 1556 -91 
Q 1019 -91 701 211 
Q 384 513 384 1019 
Q 384 1609 779 1909 
Q 1175 2209 1959 2209 
L 2766 2209 
L 2766 2266 
Q 2766 2663 2505 2880 
Q 2244 3097 1772 3097 
Q 1472 3097 1187 3025 
Q 903 2953 641 2809 
L 641 3341 
Q 956 3463 1253 3523 
Q 1550 3584 1831 3584 
Q 2591 3584 2966 3190 
Q 3341 2797 3341 1997 
z
" transform="scale(0.015625)"/>
                        <path id="DejaVuSans-72" d="M 2631 2963
Q 2534 3019 2420 3045 
Q 2306 3072 2169 3072 
Q 1681 3072 1420 2755 
Q 1159 2438 1159 1844 
L 1159 0 
L 581 0 
L 581 3500 
L 1159 3500 
L 1159 2956 
Q 1341 3275 1631 3429 
Q 1922 3584 2338 3584 
Q 2397 3584 2469 3576 
Q 2541 3569 2628 3553 
L 2631 2963 
z
" transform="scale(0.015625)"/>
                        <path id="DejaVuSans-64" d="M 2906 2969
L 2906 4863 
L 3481 4863 
L 3481 0 
L 2906 0 
L 2906 525 
Q 2725 213 2448 61 
Q 2172 -91 1784 -91 
Q 1150 -91 751 415 
Q 353 922 353 1747 
Q 353 2572 751 3078 
Q 1150 3584 1784 3584 
Q 2172 3584 2448 3432 
Q 2725 3281 2906 2969 
z
M 947 1747 
Q 947 1113 1208 752 
Q 1469 391 1925 391 
Q 2381 391 2643 752 
Q 2906 1113 2906 1747 
Q 2906 2381 2643 2742 
Q 2381 3103 1925 3103 
Q 1469 3103 1208 2742 
Q 947 2381 947 1747 
z
" transform="scale(0.015625)"/>
                        <path id="DejaVuSans-6f" d="M 1959 3097
Q 1497 3097 1228 2736 
Q 959 2375 959 1747 
Q 959 1119 1226 758 
Q 1494 397 1959 397 
Q 2419 397 2687 759 
Q 2956 1122 2956 1747 
Q 2956 2369 2687 2733 
Q 2419 3097 1959 3097 
z
M 1959 3584 
Q 2709 3584 3137 3096 
Q 3566 2609 3566 1747 
Q 3566 888 3137 398 
Q 2709 -91 1959 -91 
Q 1206 -91 779 398 
Q 353 888 353 1747 
Q 353 2609 779 3096 
Q 1206 3584 1959 3584 
z
" transform="scale(0.015625)"/>
                        <path id="DejaVuSans-75" d="M 544 1381
L 544 3500 
L 1119 3500 
L 1119 1403 
Q 1119 906 1312 657 
Q 1506 409 1894 409 
Q 2359 409 2629 706 
Q 2900 1003 2900 1516 
L 2900 3500 
L 3475 3500 
L 3475 0 
L 2900 0 
L 2900 538 
Q 2691 219 2414 64 
Q 2138 -91 1772 -91 
Q 1169 -91 856 284 
Q 544 659 544 1381 
z
M 1991 3584 
L 1991 3584 
z
" transform="scale(0.015625)"/>
                        <path id="DejaVuSans-6c" d="M 603 4863
L 1178 4863 
L 1178 0 
L 603 0 
L 603 4863 
z
" transform="scale(0.015625)"/>
                    </defs>
                    <use xlink:href="#DejaVuSans-43"/>
                    <use xlink:href="#DejaVuSans-61" x="69.824219"/>
                    <use xlink:href="#DejaVuSans-72" x="131.103516"/>
                    <use xlink:href="#DejaVuSans-64" x="170.466797"/>
                    <use xlink:href="#DejaVuSans-69" x="233.943359"/>
                    <use xlink:href="#DejaVuSans-6f" x="261.726562"/>
                    <use xlink:href="#DejaVuSans-76" x="322.908203"/>
                    <use xlink:href="#DejaVuSans-61" x="382.087891"/>
                    <use xlink:href="#DejaVuSans-73" x="443.367188"/>
                    <use xlink:href="#DejaVuSans-63" x="495.466797"/>
                    <use xlink:href="#DejaVuSans-75" x="550.447266"/>
                    <use xlink:href="#DejaVuSans-6c" x="613.826172"/>
                    <use xlink:href="#DejaVuSans-61" x="641.609375"/>
                    <use xlink:href="#DejaVuSans-72" x="702.888672"/>
                </g>
            </g>
            <g id="text_3">
                <!-- Cell -->
                <g transform="translate(599.519719 286.575723)scale(0.1 -0.1)">
                    <use xlink:href="#DejaVuSans-43"/>
                    <use xlink:href="#DejaVuSans-65" x="69.824219"/>
                    <use xlink:href="#DejaVuSans-6c" x="131.347656"/>
                    <use xlink:href="#DejaVuSans-6c" x="159.130859"/>
                </g>
            </g>
            <g id="text_4">
                <!-- Dermatological -->
                <g transform="translate(530.491893 183.533937)scale(0.1 -0.1)">
                    <defs>
                        <path id="DejaVuSans-44" d="M 1259 4147
L 1259 519 
L 2022 519 
Q 2988 519 3436 956 
Q 3884 1394 3884 2338 
Q 3884 3275 3436 3711 
Q 2988 4147 2022 4147 
L 1259 4147 
z
M 628 4666 
L 1925 4666 
Q 3281 4666 3915 4102 
Q 4550 3538 4550 2338 
Q 4550 1131 3912 565 
Q 3275 0 1925 0 
L 628 0 
L 628 4666 
z
" transform="scale(0.015625)"/>
                        <path id="DejaVuSans-6d" d="M 3328 2828
Q 3544 3216 3844 3400 
Q 4144 3584 4550 3584 
Q 5097 3584 5394 3201 
Q 5691 2819 5691 2113 
L 5691 0 
L 5113 0 
L 5113 2094 
Q 5113 2597 4934 2840 
Q 4756 3084 4391 3084 
Q 3944 3084 3684 2787 
Q 3425 2491 3425 1978 
L 3425 0 
L 2847 0 
L 2847 2094 
Q 2847 2600 2669 2842 
Q 2491 3084 2119 3084 
Q 1678 3084 1418 2786 
Q 1159 2488 1159 1978 
L 1159 0 
L 581 0 
L 581 3500 
L 1159 3500 
L 1159 2956 
Q 1356 3278 1631 3431 
Q 1906 3584 2284 3584 
Q 2666 3584 2933 3390 
Q 3200 3197 3328 2828 
z
" transform="scale(0.015625)"/>
                        <path id="DejaVuSans-67" d="M 2906 1791
Q 2906 2416 2648 2759 
Q 2391 3103 1925 3103 
Q 1463 3103 1205 2759 
Q 947 2416 947 1791 
Q 947 1169 1205 825 
Q 1463 481 1925 481 
Q 2391 481 2648 825 
Q 2906 1169 2906 1791 
z
M 3481 434 
Q 3481 -459 3084 -895 
Q 2688 -1331 1869 -1331 
Q 1566 -1331 1297 -1286 
Q 1028 -1241 775 -1147 
L 775 -588 
Q 1028 -725 1275 -790 
Q 1522 -856 1778 -856 
Q 2344 -856 2625 -561 
Q 2906 -266 2906 331 
L 2906 616 
Q 2728 306 2450 153 
Q 2172 0 1784 0 
Q 1141 0 747 490 
Q 353 981 353 1791 
Q 353 2603 747 3093 
Q 1141 3584 1784 3584 
Q 2172 3584 2450 3431 
Q 2728 3278 2906 2969 
L 2906 3500 
L 3481 3500 
L 3481 434 
z
" transform="scale(0.015625)"/>
                    </defs>
                    <use xlink:href="#DejaVuSans-44"/>
                    <use xlink:href="#DejaVuSans-65" x="77.001953"/>
                    <use xlink:href="#DejaVuSans-72" x="138.525391"/>
                    <use xlink:href="#DejaVuSans-6d" x="177.888672"/>
                    <use xlink:href="#DejaVuSans-61" x="275.300781"/>
                    <use xlink:href="#DejaVuSans-74" x="336.580078"/>
                    <use xlink:href="#DejaVuSans-6f" x="375.789062"/>
                    <use xlink:href="#DejaVuSans-6c" x="436.970703"/>
                    <use xlink:href="#DejaVuSans-6f" x="464.753906"/>
                    <use xlink:href="#DejaVuSans-67" x="525.935547"/>
                    <use xlink:href="#DejaVuSans-69" x="589.412109"/>
                    <use xlink:href="#DejaVuSans-63" x="617.195312"/>
                    <use xlink:href="#DejaVuSans-61" x="672.175781"/>
                    <use xlink:href="#DejaVuSans-6c" x="733.455078"/>
                </g>
            </g>
            <g id="text_5">
                <!-- Hematological -->
                <g transform="translate(450.974544 136.609628)scale(0.1 -0.1)">
                    <defs>
                        <path id="DejaVuSans-48" d="M 628 4666
L 1259 4666 
L 1259 2753 
L 3553 2753 
L 3553 4666 
L 4184 4666 
L 4184 0 
L 3553 0 
L 3553 2222 
L 1259 2222 
L 1259 0 
L 628 0 
L 628 4666 
z
" transform="scale(0.015625)"/>
                    </defs>
                    <use xlink:href="#DejaVuSans-48"/>
                    <use xlink:href="#DejaVuSans-65" x="75.195312"/>
                    <use xlink:href="#DejaVuSans-6d" x="136.71875"/>
                    <use xlink:href="#DejaVuSans-61" x="234.130859"/>
                    <use xlink:href="#DejaVuSans-74" x="295.410156"/>
                    <use xlink:href="#DejaVuSans-6f" x="334.619141"/>
                    <use xlink:href="#DejaVuSans-6c" x="395.800781"/>
                    <use xlink:href="#DejaVuSans-6f" x="423.583984"/>
                    <use xlink:href="#DejaVuSans-67" x="484.765625"/>
                    <use xlink:href="#DejaVuSans-69" x="548.242188"/>
                    <use xlink:href="#DejaVuSans-63" x="576.025391"/>
                    <use xlink:href="#DejaVuSans-61" x="631.005859"/>
                    <use xlink:href="#DejaVuSans-6c" x="692.285156"/>
                </g>
            </g>
            <g id="text_6">
                <!-- Immunological -->
                <g transform="translate(265.234436 124.28911)scale(0.1 -0.1)">
                    <defs>
                        <path id="DejaVuSans-49" d="M 628 4666
L 1259 4666 
L 1259 0 
L 628 0 
L 628 4666 
z
" transform="scale(0.015625)"/>
                        <path id="DejaVuSans-6e" d="M 3513 2113
L 3513 0 
L 2938 0 
L 2938 2094 
Q 2938 2591 2744 2837 
Q 2550 3084 2163 3084 
Q 1697 3084 1428 2787 
Q 1159 2491 1159 1978 
L 1159 0 
L 581 0 
L 581 3500 
L 1159 3500 
L 1159 2956 
Q 1366 3272 1645 3428 
Q 1925 3584 2291 3584 
Q 2894 3584 3203 3211 
Q 3513 2838 3513 2113 
z
" transform="scale(0.015625)"/>
                    </defs>
                    <use xlink:href="#DejaVuSans-49"/>
                    <use xlink:href="#DejaVuSans-6d" x="29.492188"/>
                    <use xlink:href="#DejaVuSans-6d" x="126.904297"/>
                    <use xlink:href="#DejaVuSans-75" x="224.316406"/>
                    <use xlink:href="#DejaVuSans-6e" x="287.695312"/>
                    <use xlink:href="#DejaVuSans-6f" x="351.074219"/>
                    <use xlink:href="#DejaVuSans-6c" x="412.255859"/>
                    <use xlink:href="#DejaVuSans-6f" x="440.039062"/>
                    <use xlink:href="#DejaVuSans-67" x="501.220703"/>
                    <use xlink:href="#DejaVuSans-69" x="564.697266"/>
                    <use xlink:href="#DejaVuSans-63" x="592.480469"/>
                    <use xlink:href="#DejaVuSans-61" x="647.460938"/>
                    <use xlink:href="#DejaVuSans-6c" x="708.740234"/>
                </g>
            </g>
            <g id="text_7">
                <!-- Metabolic -->
                <g transform="translate(133.285995 522.564648)scale(0.1 -0.1)">
                    <defs>
                        <path id="DejaVuSans-4d" d="M 628 4666
L 1569 4666 
L 2759 1491 
L 3956 4666 
L 4897 4666 
L 4897 0 
L 4281 0 
L 4281 4097 
L 3078 897 
L 2444 897 
L 1241 4097 
L 1241 0 
L 628 0 
L 628 4666 
z
" transform="scale(0.015625)"/>
                        <path id="DejaVuSans-62" d="M 3116 1747
Q 3116 2381 2855 2742 
Q 2594 3103 2138 3103 
Q 1681 3103 1420 2742 
Q 1159 2381 1159 1747 
Q 1159 1113 1420 752 
Q 1681 391 2138 391 
Q 2594 391 2855 752 
Q 3116 1113 3116 1747 
z
M 1159 2969 
Q 1341 3281 1617 3432 
Q 1894 3584 2278 3584 
Q 2916 3584 3314 3078 
Q 3713 2572 3713 1747 
Q 3713 922 3314 415 
Q 2916 -91 2278 -91 
Q 1894 -91 1617 61 
Q 1341 213 1159 525 
L 1159 0 
L 581 0 
L 581 4863 
L 1159 4863 
L 1159 2969 
z
" transform="scale(0.015625)"/>
                    </defs>
                    <use xlink:href="#DejaVuSans-4d"/>
                    <use xlink:href="#DejaVuSans-65" x="86.279297"/>
                    <use xlink:href="#DejaVuSans-74" x="147.802734"/>
                    <use xlink:href="#DejaVuSans-61" x="187.011719"/>
                    <use xlink:href="#DejaVuSans-62" x="248.291016"/>
                    <use xlink:href="#DejaVuSans-6f" x="311.767578"/>
                    <use xlink:href="#DejaVuSans-6c" x="372.949219"/>
                    <use xlink:href="#DejaVuSans-69" x="400.732422"/>
                    <use xlink:href="#DejaVuSans-63" x="428.515625"/>
                </g>
            </g>
            <g id="text_8">
                <!-- Ophthalmological -->
                <g transform="translate(550.279797 529.584395)scale(0.1 -0.1)">
                    <defs>
                        <path id="DejaVuSans-4f" d="M 2522 4238
Q 1834 4238 1429 3725 
Q 1025 3213 1025 2328 
Q 1025 1447 1429 934 
Q 1834 422 2522 422 
Q 3209 422 3611 934 
Q 4013 1447 4013 2328 
Q 4013 3213 3611 3725 
Q 3209 4238 2522 4238 
z
M 2522 4750 
Q 3503 4750 4090 4092 
Q 4678 3434 4678 2328 
Q 4678 1225 4090 567 
Q 3503 -91 2522 -91 
Q 1538 -91 948 565 
Q 359 1222 359 2328 
Q 359 3434 948 4092 
Q 1538 4750 2522 4750 
z
" transform="scale(0.015625)"/>
                        <path id="DejaVuSans-70" d="M 1159 525
L 1159 -1331 
L 581 -1331 
L 581 3500 
L 1159 3500 
L 1159 2969 
Q 1341 3281 1617 3432 
Q 1894 3584 2278 3584 
Q 2916 3584 3314 3078 
Q 3713 2572 3713 1747 
Q 3713 922 3314 415 
Q 2916 -91 2278 -91 
Q 1894 -91 1617 61 
Q 1341 213 1159 525 
z
M 3116 1747 
Q 3116 2381 2855 2742 
Q 2594 3103 2138 3103 
Q 1681 3103 1420 2742 
Q 1159 2381 1159 1747 
Q 1159 1113 1420 752 
Q 1681 391 2138 391 
Q 2594 391 2855 752 
Q 3116 1113 3116 1747 
z
" transform="scale(0.015625)"/>
                        <path id="DejaVuSans-68" d="M 3513 2113
L 3513 0 
L 2938 0 
L 2938 2094 
Q 2938 2591 2744 2837 
Q 2550 3084 2163 3084 
Q 1697 3084 1428 2787 
Q 1159 2491 1159 1978 
L 1159 0 
L 581 0 
L 581 4863 
L 1159 4863 
L 1159 2956 
Q 1366 3272 1645 3428 
Q 1925 3584 2291 3584 
Q 2894 3584 3203 3211 
Q 3513 2838 3513 2113 
z
" transform="scale(0.015625)"/>
                    </defs>
                    <use xlink:href="#DejaVuSans-4f"/>
                    <use xlink:href="#DejaVuSans-70" x="78.710938"/>
                    <use xlink:href="#DejaVuSans-68" x="142.1875"/>
                    <use xlink:href="#DejaVuSans-74" x="205.566406"/>
                    <use xlink:href="#DejaVuSans-68" x="244.775391"/>
                    <use xlink:href="#DejaVuSans-61" x="308.154297"/>
                    <use xlink:href="#DejaVuSans-6c" x="369.433594"/>
                    <use xlink:href="#DejaVuSans-6d" x="397.216797"/>
                    <use xlink:href="#DejaVuSans-6f" x="494.628906"/>
                    <use xlink:href="#DejaVuSans-6c" x="555.810547"/>
                    <use xlink:href="#DejaVuSans-6f" x="583.59375"/>
                    <use xlink:href="#DejaVuSans-67" x="644.775391"/>
                    <use xlink:href="#DejaVuSans-69" x="708.251953"/>
                    <use xlink:href="#DejaVuSans-63" x="736.035156"/>
                    <use xlink:href="#DejaVuSans-61" x="791.015625"/>
                    <use xlink:href="#DejaVuSans-6c" x="852.294922"/>
                </g>
            </g>
            <g id="text_9">
                <!-- Psychiatric -->
                <g transform="translate(559.302471 518.969145)scale(0.1 -0.1)">
                    <defs>
                        <path id="DejaVuSans-50" d="M 1259 4147
L 1259 2394 
L 2053 2394 
Q 2494 2394 2734 2622 
Q 2975 2850 2975 3272 
Q 2975 3691 2734 3919 
Q 2494 4147 2053 4147 
L 1259 4147 
z
M 628 4666 
L 2053 4666 
Q 2838 4666 3239 4311 
Q 3641 3956 3641 3272 
Q 3641 2581 3239 2228 
Q 2838 1875 2053 1875 
L 1259 1875 
L 1259 0 
L 628 0 
L 628 4666 
z
" transform="scale(0.015625)"/>
                        <path id="DejaVuSans-79" d="M 2059 -325
Q 1816 -950 1584 -1140 
Q 1353 -1331 966 -1331 
L 506 -1331 
L 506 -850 
L 844 -850 
Q 1081 -850 1212 -737 
Q 1344 -625 1503 -206 
L 1606 56 
L 191 3500 
L 800 3500 
L 1894 763 
L 2988 3500 
L 3597 3500 
L 2059 -325 
z
" transform="scale(0.015625)"/>
                    </defs>
                    <use xlink:href="#DejaVuSans-50"/>
                    <use xlink:href="#DejaVuSans-73" x="58.552734"/>
                    <use xlink:href="#DejaVuSans-79" x="110.652344"/>
                    <use xlink:href="#DejaVuSans-63" x="169.832031"/>
                    <use xlink:href="#DejaVuSans-68" x="224.8125"/>
                    <use xlink:href="#DejaVuSans-69" x="288.191406"/>
                    <use xlink:href="#DejaVuSans-61" x="315.974609"/>
                    <use xlink:href="#DejaVuSans-74" x="377.253906"/>
                    <use xlink:href="#DejaVuSans-72" x="416.462891"/>
                    <use xlink:href="#DejaVuSans-69" x="457.576172"/>
                    <use xlink:href="#DejaVuSans-63" x="485.359375"/>
                </g>
            </g>
            <g id="text_10">
                <!-- Respiratory -->
                <g transform="translate(569.042438 505.958068)scale(0.1 -0.1)">
                    <defs>
                        <path id="DejaVuSans-52" d="M 2841 2188
Q 3044 2119 3236 1894 
Q 3428 1669 3622 1275 
L 4263 0 
L 3584 0 
L 2988 1197 
Q 2756 1666 2539 1819 
Q 2322 1972 1947 1972 
L 1259 1972 
L 1259 0 
L 628 0 
L 628 4666 
L 2053 4666 
Q 2853 4666 3247 4331 
Q 3641 3997 3641 3322 
Q 3641 2881 3436 2590 
Q 3231 2300 2841 2188 
z
M 1259 4147 
L 1259 2491 
L 2053 2491 
Q 2509 2491 2742 2702 
Q 2975 2913 2975 3322 
Q 2975 3731 2742 3939 
Q 2509 4147 2053 4147 
L 1259 4147 
z
" transform="scale(0.015625)"/>
                    </defs>
                    <use xlink:href="#DejaVuSans-52"/>
                    <use xlink:href="#DejaVuSans-65" x="64.982422"/>
                    <use xlink:href="#DejaVuSans-73" x="126.505859"/>
                    <use xlink:href="#DejaVuSans-70" x="178.605469"/>
                    <use xlink:href="#DejaVuSans-69" x="242.082031"/>
                    <use xlink:href="#DejaVuSans-72" x="269.865234"/>
                    <use xlink:href="#DejaVuSans-61" x="310.978516"/>
                    <use xlink:href="#DejaVuSans-74" x="372.257812"/>
                    <use xlink:href="#DejaVuSans-6f" x="411.466797"/>
                    <use xlink:href="#DejaVuSans-72" x="472.648438"/>
                    <use xlink:href="#DejaVuSans-79" x="513.761719"/>
                </g>
            </g>
            <g id="text_11">
                <!-- Skeletal -->
                <g transform="translate(603.054887 435.084057)scale(0.1 -0.1)">
                    <defs>
                        <path id="DejaVuSans-53" d="M 3425 4513
L 3425 3897 
Q 3066 4069 2747 4153 
Q 2428 4238 2131 4238 
Q 1616 4238 1336 4038 
Q 1056 3838 1056 3469 
Q 1056 3159 1242 3001 
Q 1428 2844 1947 2747 
L 2328 2669 
Q 3034 2534 3370 2195 
Q 3706 1856 3706 1288 
Q 3706 609 3251 259 
Q 2797 -91 1919 -91 
Q 1588 -91 1214 -16 
Q 841 59 441 206 
L 441 856 
Q 825 641 1194 531 
Q 1563 422 1919 422 
Q 2459 422 2753 634 
Q 3047 847 3047 1241 
Q 3047 1584 2836 1778 
Q 2625 1972 2144 2069 
L 1759 2144 
Q 1053 2284 737 2584 
Q 422 2884 422 3419 
Q 422 4038 858 4394 
Q 1294 4750 2059 4750 
Q 2388 4750 2728 4690 
Q 3069 4631 3425 4513 
z
" transform="scale(0.015625)"/>
                        <path id="DejaVuSans-6b" d="M 581 4863
L 1159 4863 
L 1159 1991 
L 2875 3500 
L 3609 3500 
L 1753 1863 
L 3688 0 
L 2938 0 
L 1159 1709 
L 1159 0 
L 581 0 
L 581 4863 
z
" transform="scale(0.015625)"/>
                    </defs>
                    <use xlink:href="#DejaVuSans-53"/>
                    <use xlink:href="#DejaVuSans-6b" x="63.476562"/>
                    <use xlink:href="#DejaVuSans-65" x="117.761719"/>
                    <use xlink:href="#DejaVuSans-6c" x="179.285156"/>
                    <use xlink:href="#DejaVuSans-65" x="207.068359"/>
                    <use xlink:href="#DejaVuSans-74" x="268.591797"/>
                    <use xlink:href="#DejaVuSans-61" x="307.800781"/>
                    <use xlink:href="#DejaVuSans-6c" x="369.080078"/>
                </g>
            </g>
            <g id="text_12">
                <!-- Cluster16 -->
                <g transform="translate(340.069687 80.4)scale(0.12 -0.12)">
                    <defs>
                        <path id="DejaVuSans-31" d="M 794 531
L 1825 531 
L 1825 4091 
L 703 3866 
L 703 4441 
L 1819 4666 
L 2450 4666 
L 2450 531 
L 3481 531 
L 3481 0 
L 794 0 
L 794 531 
z
" transform="scale(0.015625)"/>
                        <path id="DejaVuSans-36" d="M 2113 2584
Q 1688 2584 1439 2293 
Q 1191 2003 1191 1497 
Q 1191 994 1439 701 
Q 1688 409 2113 409 
Q 2538 409 2786 701 
Q 3034 994 3034 1497 
Q 3034 2003 2786 2293 
Q 2538 2584 2113 2584 
z
M 3366 4563 
L 3366 3988 
Q 3128 4100 2886 4159 
Q 2644 4219 2406 4219 
Q 1781 4219 1451 3797 
Q 1122 3375 1075 2522 
Q 1259 2794 1537 2939 
Q 1816 3084 2150 3084 
Q 2853 3084 3261 2657 
Q 3669 2231 3669 1497 
Q 3669 778 3244 343 
Q 2819 -91 2113 -91 
Q 1303 -91 875 529 
Q 447 1150 447 2328 
Q 447 3434 972 4092 
Q 1497 4750 2381 4750 
Q 2619 4750 2861 4703 
Q 3103 4656 3366 4563 
z
" transform="scale(0.015625)"/>
                    </defs>
                    <use xlink:href="#DejaVuSans-43"/>
                    <use xlink:href="#DejaVuSans-6c" x="69.824219"/>
                    <use xlink:href="#DejaVuSans-75" x="97.607422"/>
                    <use xlink:href="#DejaVuSans-73" x="160.986328"/>
                    <use xlink:href="#DejaVuSans-74" x="213.085938"/>
                    <use xlink:href="#DejaVuSans-65" x="252.294922"/>
                    <use xlink:href="#DejaVuSans-72" x="313.818359"/>
                    <use xlink:href="#DejaVuSans-31" x="354.931641"/>
                    <use xlink:href="#DejaVuSans-36" x="418.554688"/>
                </g>
            </g>
        </g>
    </g>
</svg>
