<?xml version="1.0" encoding="utf-8" standalone="no"?>
<!DOCTYPE svg PUBLIC "-//W3C//DTD SVG 1.1//EN"
        "http://www.w3.org/Graphics/SVG/1.1/DTD/svg11.dtd">
<svg xmlns:xlink="http://www.w3.org/1999/xlink" width="720pt" height="720pt" viewBox="0 0 720 720"
     xmlns="http://www.w3.org/2000/svg" version="1.1">
    <metadata>
        <rdf:RDF xmlns:dc="http://purl.org/dc/elements/1.1/" xmlns:cc="http://creativecommons.org/ns#"
                 xmlns:rdf="http://www.w3.org/1999/02/22-rdf-syntax-ns#">
            <cc:Work>
                <dc:type rdf:resource="http://purl.org/dc/dcmitype/StillImage"/>
                <dc:date>2022-05-29T16:22:31.402153</dc:date>
                <dc:format>image/svg+xml</dc:format>
                <dc:creator>
                    <cc:Agent>
                        <dc:title>Matplotlib v3.5.1, https://matplotlib.org/</dc:title>
                    </cc:Agent>
                </dc:creator>
            </cc:Work>
        </rdf:RDF>
    </metadata>
    <defs>
        <style type="text/css">*{stroke-linejoin: round; stroke-linecap: butt}</style>
    </defs>
    <g id="figure_1">
        <g id="patch_1">
            <path d="M 0 720
L 720 720 
L 720 0 
L 0 0 
z
" style="fill: #ffffff"/>
        </g>
        <g id="axes_1">
            <g id="patch_2">
                <path d="M 590.76 363.6
C 590.76 354.750636 590.230297 345.9092 589.173734 337.123136 
C 588.117171 328.337072 586.535641 319.622123 584.43763 311.025053 
L 519.806341 326.797537 
C 521.274949 332.815486 522.38202 338.91595 523.121614 345.066195 
C 523.861208 351.21644 524.232 357.405445 524.232 363.6 
L 590.76 363.6 
z
" style="fill: #1f77b4; stroke: #ffffff; stroke-linejoin: miter"/>
            </g>
            <g id="patch_3">
                <path d="M 584.43763 311.025053
C 583.38886 306.72748 582.211731 302.46225 580.907825 298.23509 
C 579.603918 294.00793 578.173818 289.820731 576.619444 285.679116 
L 514.333611 309.055381 
C 515.421673 311.954512 516.422743 314.885551 517.335477 317.844563 
C 518.248212 320.803575 519.072202 323.789236 519.806341 326.797537 
L 584.43763 311.025053 
z
" style="fill: #ff7f0e; stroke: #ffffff; stroke-linejoin: miter"/>
            </g>
            <g id="patch_4">
                <path d="M 576.619444 285.679116
C 575.8423 283.608424 575.034222 281.549475 574.19548 279.502958 
C 573.356739 277.456442 572.487428 275.422588 571.587839 273.402079 
L 510.811487 300.461455 
C 511.4412 301.875812 512.049717 303.299509 512.636836 304.732071 
C 513.223955 306.164632 513.78961 307.605897 514.333611 309.055381 
L 576.619444 285.679116 
z
" style="fill: #2ca02c; stroke: #ffffff; stroke-linejoin: miter"/>
            </g>
            <g id="patch_5">
                <path d="M 571.587839 273.402079
C 557.126325 240.920988 535.063097 212.389213 507.265093 190.221046 
C 479.467088 168.052879 446.741133 152.891741 411.856421 146.020532 
L 398.999495 211.294373 
C 423.418793 216.104219 446.326962 226.717015 465.785565 242.234732 
C 485.244168 257.752449 500.688428 277.724691 510.811487 300.461455 
L 571.587839 273.402079 
z
" style="fill: #d62728; stroke: #ffffff; stroke-linejoin: miter"/>
            </g>
            <g id="patch_6">
                <path d="M 411.856421 146.020532
C 372.562175 138.280782 331.895498 141.328331 294.193688 154.838142 
C 256.491878 168.347954 223.144704 191.822028 197.708804 222.756741 
C 172.272903 253.691454 155.685898 290.946486 149.716873 330.548408 
C 143.747847 370.15033 148.616833 410.639331 163.804528 447.697061 
C 178.992223 484.754792 203.938777 517.015226 235.983519 541.037632 
C 268.028261 565.060038 305.989954 579.958899 345.819799 584.145179 
C 385.649644 588.331459 425.879428 581.650842 462.21845 564.81585 
C 498.557472 547.980857 529.666198 521.612062 552.226732 488.521825 
L 497.258712 451.045277 
C 481.466339 474.208444 459.690231 492.6666 434.252915 504.451095 
C 408.8156 516.235589 380.654751 520.912021 352.773859 517.981625 
C 324.892968 515.051229 298.319783 504.622027 275.888463 487.806343 
C 253.457144 470.990659 235.994556 448.408355 225.363169 422.467943 
C 214.731783 396.527532 211.323493 368.185231 215.501811 340.463886 
C 219.680129 312.74254 231.291032 286.664018 249.096163 265.009719 
C 266.901293 243.35542 290.244315 226.923568 316.635582 217.4667 
C 343.026849 208.009831 371.493523 205.876547 398.999495 211.294373 
L 411.856421 146.020532 
z
" style="fill: #9467bd; stroke: #ffffff; stroke-linejoin: miter"/>
            </g>
            <g id="patch_7">
                <path d="M 552.226732 488.521825
C 564.708763 470.214041 574.376662 450.138433 580.907837 428.96487 
C 587.439012 407.791307 590.760004 385.757939 590.76 363.59996 
L 524.232 363.599972 
C 524.232003 379.110557 521.907308 394.533915 517.335486 409.355409 
C 512.763663 424.176903 505.996134 438.229829 497.258712 451.045277 
L 552.226732 488.521825 
z
" style="fill: #8c564b; stroke: #ffffff; stroke-linejoin: miter"/>
            </g>
            <g id="patch_8">
                <path d="M 524.232 363.6
C 524.232 357.405445 523.861208 351.21644 523.121614 345.066195 
C 522.38202 338.91595 521.274949 332.815486 519.806341 326.797537 
L 455.175052 342.570021 
C 456.014256 346.008849 456.646868 349.494829 457.069494 353.009254 
C 457.492119 356.52368 457.704 360.060254 457.704 363.6 
L 524.232 363.6 
z
" style="fill: #e377c2; stroke: #ffffff; stroke-linejoin: miter"/>
            </g>
            <g id="patch_9">
                <path d="M 519.806341 326.797537
C 519.072202 323.789236 518.248212 320.803575 517.335477 317.844563 
C 516.422743 314.885551 515.421673 311.954512 514.333611 309.055381 
L 452.047778 332.431646 
C 452.669527 334.088293 453.241567 335.763172 453.76313 337.454036 
C 454.284692 339.1449 454.755544 340.850992 455.175052 342.570021 
L 519.806341 326.797537 
z
" style="fill: #7f7f7f; stroke: #ffffff; stroke-linejoin: miter"/>
            </g>
            <g id="patch_10">
                <path d="M 514.333611 309.055381
C 513.78961 307.605897 513.223955 306.164632 512.636836 304.732071 
C 512.049717 303.299509 511.4412 301.875812 510.811487 300.461455 
L 450.035136 327.520832 
C 450.394971 328.329035 450.742696 329.142577 451.078192 329.961183 
C 451.413689 330.77979 451.73692 331.60337 452.047778 332.431646 
L 514.333611 309.055381 
z
" style="fill: #bcbd22; stroke: #ffffff; stroke-linejoin: miter"/>
            </g>
            <g id="patch_11">
                <path d="M 510.811487 300.461455
C 508.291935 294.802448 505.435904 289.299325 502.258721 283.981617 
C 499.081539 278.663908 495.588896 273.541143 491.799536 268.640811 
L 439.171164 309.337606 
C 441.336512 312.137796 443.332308 315.065091 445.147841 318.103781 
C 446.963374 321.142471 448.595391 324.287113 450.035136 327.520832 
L 510.811487 300.461455 
z
" style="fill: #17becf; stroke: #ffffff; stroke-linejoin: miter"/>
            </g>
            <g id="patch_12">
                <path d="M 491.799536 268.640811
C 488.010177 263.740478 483.930889 259.071357 479.583563 254.658505 
C 475.236237 250.245652 470.628663 246.096974 465.785565 242.234732 
L 424.306037 294.248418 
C 427.073522 296.455414 429.706421 298.826087 432.190607 301.347717 
C 434.674794 303.869347 437.005815 306.537416 439.171164 309.337606 
L 491.799536 268.640811 
z
" style="fill: #1f77b4; stroke: #ffffff; stroke-linejoin: miter"/>
            </g>
            <g id="patch_13">
                <path d="M 465.785565 242.234732
C 460.942467 238.37249 455.872522 234.803606 450.602938 231.547229 
C 445.333353 228.290852 439.873571 225.352818 434.252887 222.748892 
L 406.287364 283.113653 
C 409.499183 284.60161 412.619059 286.280487 415.63025 288.141274 
C 418.641441 290.00206 421.538552 292.041423 424.306037 294.248418 
L 465.785565 242.234732 
z
" style="fill: #ff7f0e; stroke: #ffffff; stroke-linejoin: miter"/>
            </g>
            <g id="patch_14">
                <path d="M 434.252887 222.748892
C 428.632204 220.144967 422.860691 217.879815 416.969319 215.965593 
C 411.077947 214.05137 405.077272 212.491507 398.999495 211.294373 
L 386.142568 276.568213 
C 389.615584 277.25229 393.044541 278.14364 396.411039 279.237481 
C 399.777538 280.331323 403.075545 281.625695 406.287364 283.113653 
L 434.252887 222.748892 
z
" style="fill: #2ca02c; stroke: #ffffff; stroke-linejoin: miter"/>
            </g>
            <g id="patch_15">
                <path d="M 398.999495 211.294373
C 392.921717 210.097238 386.777727 209.264979 380.600493 208.802059 
C 374.423259 208.33914 368.223851 208.246391 362.035533 208.524309 
L 365.020305 274.985319 
C 368.556486 274.826509 372.099005 274.879509 375.628853 275.144034 
C 379.158701 275.408559 382.669553 275.884136 386.142568 276.568213 
L 398.999495 211.294373 
z
" style="fill: #d62728; stroke: #ffffff; stroke-linejoin: miter"/>
            </g>
            <g id="patch_16">
                <path d="M 362.035533 208.524309
C 355.847216 208.802227 349.681078 209.450314 343.570208 210.465094 
C 337.459338 211.479873 331.414685 212.859526 325.468685 214.59665 
L 344.124963 278.455228 
C 347.522677 277.462586 350.976764 276.674213 354.46869 276.094339 
C 357.960616 275.514465 361.484123 275.14413 365.020305 274.985319 
L 362.035533 208.524309 
z
" style="fill: #9467bd; stroke: #ffffff; stroke-linejoin: miter"/>
            </g>
            <g id="patch_17">
                <path d="M 325.468685 214.59665
C 319.522685 216.333773 313.685993 218.425254 307.989928 220.859869 
C 302.293862 223.294485 296.748631 226.067873 291.383989 229.165151 
L 324.647994 286.780086 
C 327.713503 285.010213 330.882207 283.42542 334.137101 282.034211 
C 337.391996 280.643002 340.727249 279.44787 344.124963 278.455228 
L 325.468685 214.59665 
z
" style="fill: #8c564b; stroke: #ffffff; stroke-linejoin: miter"/>
            </g>
            <g id="patch_18">
                <path d="M 291.383989 229.165151
C 286.019347 232.262429 280.844908 235.678047 275.888437 239.393677 
C 270.931966 243.109307 266.202345 247.118291 261.724953 251.399117 
L 307.699973 299.48521 
C 310.258483 297.039024 312.961124 294.748175 315.793393 292.624958 
C 318.625662 290.501741 321.582484 288.549959 324.647994 286.780086 
L 291.383989 229.165151 
z
" style="fill: #e377c2; stroke: #ffffff; stroke-linejoin: miter"/>
            </g>
            <g id="patch_19">
                <path d="M 261.724953 251.399117
C 257.247561 255.679943 253.03042 260.22494 249.096161 265.00972 
C 245.161902 269.7945 241.517574 274.810488 238.182732 280.03077 
L 294.247275 315.846154 
C 296.152899 312.863136 298.235373 309.996857 300.483521 307.262697 
C 302.731669 304.528537 305.141463 301.931396 307.699973 299.48521 
L 261.724953 251.399117 
z
" style="fill: #7f7f7f; stroke: #ffffff; stroke-linejoin: miter"/>
            </g>
            <g id="patch_20">
                <path d="M 238.182732 280.03077
C 234.84789 285.251052 231.82851 290.666272 229.140794 296.247374 
C 226.453078 301.828475 224.101842 307.565457 222.099702 313.427534 
L 285.056973 334.93002 
C 286.201052 331.580261 287.544616 328.301986 289.080454 325.112785 
C 290.616291 321.923584 292.341651 318.829172 294.247275 315.846154 
L 238.182732 280.03077 
z
" style="fill: #bcbd22; stroke: #ffffff; stroke-linejoin: miter"/>
            </g>
            <g id="patch_21">
                <path d="M 222.099702 313.427534
C 220.097563 319.289611 218.448108 325.26628 217.160188 331.325469 
C 215.872268 337.384659 214.948192 343.515511 214.392917 349.685129 
L 280.653095 355.648645 
C 280.970395 352.123149 281.498439 348.619805 282.234393 345.157411 
C 282.970347 341.695017 283.912893 338.279778 285.056973 334.93002 
L 222.099702 313.427534 
z
" style="fill: #17becf; stroke: #ffffff; stroke-linejoin: miter"/>
            </g>
            <g id="patch_22">
                <path d="M 214.392917 349.685129
C 213.837642 355.854746 213.652164 362.052074 213.837477 368.243856 
C 214.022791 374.435639 214.578565 380.610782 215.501816 386.736148 
L 281.286752 376.820656 
C 280.75918 373.320447 280.441595 369.791794 280.335701 366.253632 
C 280.229808 362.715471 280.335795 359.174141 280.653095 355.648645 
L 214.392917 349.685129 
z
" style="fill: #1f77b4; stroke: #ffffff; stroke-linejoin: miter"/>
            </g>
            <g id="patch_23">
                <path d="M 215.501816 386.736148
C 216.425067 392.861515 217.714142 398.92613 219.362123 404.897451 
C 221.010103 410.868772 223.014037 416.736098 225.363171 422.467946 
L 286.921812 397.238827 
C 285.57945 393.963485 284.434345 390.610727 283.492641 387.198543 
C 282.550938 383.78636 281.814324 380.320866 281.286752 376.820656 
L 215.501816 386.736148 
z
" style="fill: #ff7f0e; stroke: #ffffff; stroke-linejoin: miter"/>
            </g>
            <g id="patch_24">
                <path d="M 225.363171 422.467946
C 227.712305 428.199794 230.402429 433.785893 233.419109 439.196268 
C 236.435789 444.606643 239.773618 449.831599 243.414687 454.843098 
L 297.236964 415.738913 
C 295.156353 412.875199 293.249022 409.88951 291.525205 406.797867 
C 289.801388 403.706225 288.264174 400.514168 286.921812 397.238827 
L 225.363171 422.467946 
z
" style="fill: #2ca02c; stroke: #ffffff; stroke-linejoin: miter"/>
            </g>
            <g id="patch_25">
                <path d="M 243.414687 454.843098
C 247.055756 459.854598 250.993539 464.643662 255.206908 469.184591 
C 259.420276 473.725521 263.901678 478.010179 268.627069 482.015575 
L 311.644039 431.266043 
C 308.943816 428.977245 306.383015 426.528869 303.975376 423.934052 
C 301.567737 421.339235 299.317575 418.602627 297.236964 415.738913 
L 243.414687 454.843098 
z
" style="fill: #d62728; stroke: #ffffff; stroke-linejoin: miter"/>
            </g>
            <g id="patch_26">
                <path d="M 268.627069 482.015575
C 273.352459 486.020972 278.31337 489.739928 283.48318 493.152489 
C 288.652991 496.56505 294.022437 499.6651 299.562708 502.436005 
L 329.321547 442.93486 
C 326.155679 441.351486 323.087423 439.580028 320.133246 437.629994 
C 317.179068 435.679959 314.344262 433.554841 311.644039 431.266043 
L 268.627069 482.015575 
z
" style="fill: #9467bd; stroke: #ffffff; stroke-linejoin: miter"/>
            </g>
            <g id="patch_27">
                <path d="M 299.562708 502.436005
C 305.102978 505.20691 310.804145 507.643705 316.635616 509.733313 
C 322.467086 511.822921 328.418412 513.561598 334.457656 514.940016 
L 349.261518 450.080009 
C 345.810521 449.292342 342.409764 448.298812 339.077495 447.10475 
C 335.745226 445.910688 332.487416 444.518234 329.321547 442.93486 
L 299.562708 502.436005 
z
" style="fill: #8c564b; stroke: #ffffff; stroke-linejoin: miter"/>
            </g>
            <g id="patch_28">
                <path d="M 334.457656 514.940016
C 340.496901 516.318433 346.613244 517.334119 352.773865 517.981626 
C 358.934485 518.629132 365.128345 518.907297 371.322207 518.814629 
L 370.326975 452.294074 
C 366.787626 452.347027 363.248277 452.188075 359.727923 451.818072 
C 356.207568 451.448068 352.712515 450.867676 349.261518 450.080009 
L 334.457656 514.940016 
z
" style="fill: #e377c2; stroke: #ffffff; stroke-linejoin: miter"/>
            </g>
            <g id="patch_29">
                <path d="M 371.322207 518.814629
C 377.516069 518.721961 383.698834 518.258626 389.837327 517.42711 
C 395.975819 516.595593 402.05904 515.397385 408.054345 513.838916 
L 391.316769 449.450809 
C 387.89088 450.341363 384.414754 451.026053 380.907044 451.501205 
C 377.399334 451.976358 373.866325 452.241121 370.326975 452.294074 
L 371.322207 518.814629 
z
" style="fill: #7f7f7f; stroke: #ffffff; stroke-linejoin: miter"/>
            </g>
            <g id="patch_30">
                <path d="M 408.054345 513.838916
C 414.04965 512.280447 419.946298 510.364509 425.712646 508.101383 
C 431.478994 505.838257 437.104711 503.231998 442.559607 500.296591 
L 411.034061 441.712338 
C 407.916977 443.389713 404.702282 444.879004 401.407226 446.172219 
C 398.11217 447.465434 394.742657 448.560255 391.316769 449.450809 
L 408.054345 513.838916 
z
" style="fill: #bcbd22; stroke: #ffffff; stroke-linejoin: miter"/>
            </g>
            <g id="patch_31">
                <path d="M 442.559607 500.296591
C 448.014504 497.361184 453.288807 494.10189 458.354214 490.536198 
C 463.419621 486.970505 468.267056 483.104803 472.870506 478.959836 
L 428.354575 429.519906 
C 425.724032 431.888459 422.954069 434.097431 420.059551 436.13497 
C 417.165033 438.172509 414.151145 440.034963 411.034061 441.712338 
L 442.559607 500.296591 
z
" style="fill: #17becf; stroke: #ffffff; stroke-linejoin: miter"/>
            </g>
            <g id="patch_32">
                <path d="M 472.870506 478.959836
C 477.473957 474.814869 481.825175 470.398063 485.900812 465.733119 
C 489.976448 461.068176 493.7692 456.163454 497.258716 451.045271 
L 442.290695 413.568727 
C 440.296686 416.493402 438.129399 419.296101 435.800464 421.961783 
C 433.471529 424.627465 430.985118 427.151354 428.354575 429.519906 
L 472.870506 478.959836 
z
" style="fill: #1f77b4; stroke: #ffffff; stroke-linejoin: miter"/>
            </g>
            <g id="patch_33">
                <path d="M 497.258716 451.045271
C 499.003084 448.486753 500.670505 445.876611 502.258741 443.218351 
C 503.846976 440.560092 505.355315 437.854903 506.781733 435.106418 
L 447.732419 404.46081 
C 446.917323 406.031373 446.055415 407.577195 445.147852 409.096201 
C 444.240289 410.615206 443.287477 412.106716 442.290695 413.568727 
L 497.258716 451.045271 
z
" style="fill: #ff7f0e; stroke: #ffffff; stroke-linejoin: miter"/>
            </g>
            <g id="patch_34">
                <path d="M 506.781733 435.106418
C 509.635207 429.608219 512.157014 423.944143 514.333624 418.144584 
C 516.510233 412.345025 518.337744 406.420375 519.80635 400.402426 
L 455.175057 384.629958 
C 454.335854 388.068786 453.291562 391.4543 452.047785 394.768334 
C 450.804008 398.082367 449.362975 401.318982 447.732419 404.46081 
L 506.781733 435.106418 
z
" style="fill: #2ca02c; stroke: #ffffff; stroke-linejoin: miter"/>
            </g>
            <g id="patch_35">
                <path d="M 519.80635 400.402426
C 521.274956 394.384478 522.382026 388.284013 523.121618 382.133768 
C 523.861211 375.983523 524.232001 369.794518 524.232 363.599963 
L 457.704 363.599979 
C 457.704001 367.139724 457.492121 370.676299 457.069496 374.190725 
C 456.646872 377.70515 456.014261 381.19113 455.175057 384.629958 
L 519.80635 400.402426 
z
" style="fill: #d62728; stroke: #ffffff; stroke-linejoin: miter"/>
            </g>
            <g id="matplotlib.axis_1"/>
            <g id="matplotlib.axis_2"/>
            <g id="text_1">
                <!-- Activities -->
                <g transform="translate(611.191108 337.234824)scale(0.1 -0.1)">
                    <defs>
                        <path id="DejaVuSans-41" d="M 2188 4044
L 1331 1722 
L 3047 1722 
L 2188 4044 
z
M 1831 4666 
L 2547 4666 
L 4325 0 
L 3669 0 
L 3244 1197 
L 1141 1197 
L 716 0 
L 50 0 
L 1831 4666 
z
" transform="scale(0.015625)"/>
                        <path id="DejaVuSans-63" d="M 3122 3366
L 3122 2828 
Q 2878 2963 2633 3030 
Q 2388 3097 2138 3097 
Q 1578 3097 1268 2742 
Q 959 2388 959 1747 
Q 959 1106 1268 751 
Q 1578 397 2138 397 
Q 2388 397 2633 464 
Q 2878 531 3122 666 
L 3122 134 
Q 2881 22 2623 -34 
Q 2366 -91 2075 -91 
Q 1284 -91 818 406 
Q 353 903 353 1747 
Q 353 2603 823 3093 
Q 1294 3584 2113 3584 
Q 2378 3584 2631 3529 
Q 2884 3475 3122 3366 
z
" transform="scale(0.015625)"/>
                        <path id="DejaVuSans-74" d="M 1172 4494
L 1172 3500 
L 2356 3500 
L 2356 3053 
L 1172 3053 
L 1172 1153 
Q 1172 725 1289 603 
Q 1406 481 1766 481 
L 2356 481 
L 2356 0 
L 1766 0 
Q 1100 0 847 248 
Q 594 497 594 1153 
L 594 3053 
L 172 3053 
L 172 3500 
L 594 3500 
L 594 4494 
L 1172 4494 
z
" transform="scale(0.015625)"/>
                        <path id="DejaVuSans-69" d="M 603 3500
L 1178 3500 
L 1178 0 
L 603 0 
L 603 3500 
z
M 603 4863 
L 1178 4863 
L 1178 4134 
L 603 4134 
L 603 4863 
z
" transform="scale(0.015625)"/>
                        <path id="DejaVuSans-76" d="M 191 3500
L 800 3500 
L 1894 563 
L 2988 3500 
L 3597 3500 
L 2284 0 
L 1503 0 
L 191 3500 
z
" transform="scale(0.015625)"/>
                        <path id="DejaVuSans-65" d="M 3597 1894
L 3597 1613 
L 953 1613 
Q 991 1019 1311 708 
Q 1631 397 2203 397 
Q 2534 397 2845 478 
Q 3156 559 3463 722 
L 3463 178 
Q 3153 47 2828 -22 
Q 2503 -91 2169 -91 
Q 1331 -91 842 396 
Q 353 884 353 1716 
Q 353 2575 817 3079 
Q 1281 3584 2069 3584 
Q 2775 3584 3186 3129 
Q 3597 2675 3597 1894 
z
M 3022 2063 
Q 3016 2534 2758 2815 
Q 2500 3097 2075 3097 
Q 1594 3097 1305 2825 
Q 1016 2553 972 2059 
L 3022 2063 
z
" transform="scale(0.015625)"/>
                        <path id="DejaVuSans-73" d="M 2834 3397
L 2834 2853 
Q 2591 2978 2328 3040 
Q 2066 3103 1784 3103 
Q 1356 3103 1142 2972 
Q 928 2841 928 2578 
Q 928 2378 1081 2264 
Q 1234 2150 1697 2047 
L 1894 2003 
Q 2506 1872 2764 1633 
Q 3022 1394 3022 966 
Q 3022 478 2636 193 
Q 2250 -91 1575 -91 
Q 1294 -91 989 -36 
Q 684 19 347 128 
L 347 722 
Q 666 556 975 473 
Q 1284 391 1588 391 
Q 1994 391 2212 530 
Q 2431 669 2431 922 
Q 2431 1156 2273 1281 
Q 2116 1406 1581 1522 
L 1381 1569 
Q 847 1681 609 1914 
Q 372 2147 372 2553 
Q 372 3047 722 3315 
Q 1072 3584 1716 3584 
Q 2034 3584 2315 3537 
Q 2597 3491 2834 3397 
z
" transform="scale(0.015625)"/>
                    </defs>
                    <use xlink:href="#DejaVuSans-41"/>
                    <use xlink:href="#DejaVuSans-63" x="66.658203"/>
                    <use xlink:href="#DejaVuSans-74" x="121.638672"/>
                    <use xlink:href="#DejaVuSans-69" x="160.847656"/>
                    <use xlink:href="#DejaVuSans-76" x="188.630859"/>
                    <use xlink:href="#DejaVuSans-69" x="247.810547"/>
                    <use xlink:href="#DejaVuSans-74" x="275.59375"/>
                    <use xlink:href="#DejaVuSans-69" x="314.802734"/>
                    <use xlink:href="#DejaVuSans-65" x="342.585938"/>
                    <use xlink:href="#DejaVuSans-73" x="404.109375"/>
                </g>
            </g>
            <g id="text_2">
                <!-- Cardiovascular -->
                <g transform="translate(602.098607 294.457974)scale(0.1 -0.1)">
                    <defs>
                        <path id="DejaVuSans-43" d="M 4122 4306
L 4122 3641 
Q 3803 3938 3442 4084 
Q 3081 4231 2675 4231 
Q 1875 4231 1450 3742 
Q 1025 3253 1025 2328 
Q 1025 1406 1450 917 
Q 1875 428 2675 428 
Q 3081 428 3442 575 
Q 3803 722 4122 1019 
L 4122 359 
Q 3791 134 3420 21 
Q 3050 -91 2638 -91 
Q 1578 -91 968 557 
Q 359 1206 359 2328 
Q 359 3453 968 4101 
Q 1578 4750 2638 4750 
Q 3056 4750 3426 4639 
Q 3797 4528 4122 4306 
z
" transform="scale(0.015625)"/>
                        <path id="DejaVuSans-61" d="M 2194 1759
Q 1497 1759 1228 1600 
Q 959 1441 959 1056 
Q 959 750 1161 570 
Q 1363 391 1709 391 
Q 2188 391 2477 730 
Q 2766 1069 2766 1631 
L 2766 1759 
L 2194 1759 
z
M 3341 1997 
L 3341 0 
L 2766 0 
L 2766 531 
Q 2569 213 2275 61 
Q 1981 -91 1556 -91 
Q 1019 -91 701 211 
Q 384 513 384 1019 
Q 384 1609 779 1909 
Q 1175 2209 1959 2209 
L 2766 2209 
L 2766 2266 
Q 2766 2663 2505 2880 
Q 2244 3097 1772 3097 
Q 1472 3097 1187 3025 
Q 903 2953 641 2809 
L 641 3341 
Q 956 3463 1253 3523 
Q 1550 3584 1831 3584 
Q 2591 3584 2966 3190 
Q 3341 2797 3341 1997 
z
" transform="scale(0.015625)"/>
                        <path id="DejaVuSans-72" d="M 2631 2963
Q 2534 3019 2420 3045 
Q 2306 3072 2169 3072 
Q 1681 3072 1420 2755 
Q 1159 2438 1159 1844 
L 1159 0 
L 581 0 
L 581 3500 
L 1159 3500 
L 1159 2956 
Q 1341 3275 1631 3429 
Q 1922 3584 2338 3584 
Q 2397 3584 2469 3576 
Q 2541 3569 2628 3553 
L 2631 2963 
z
" transform="scale(0.015625)"/>
                        <path id="DejaVuSans-64" d="M 2906 2969
L 2906 4863 
L 3481 4863 
L 3481 0 
L 2906 0 
L 2906 525 
Q 2725 213 2448 61 
Q 2172 -91 1784 -91 
Q 1150 -91 751 415 
Q 353 922 353 1747 
Q 353 2572 751 3078 
Q 1150 3584 1784 3584 
Q 2172 3584 2448 3432 
Q 2725 3281 2906 2969 
z
M 947 1747 
Q 947 1113 1208 752 
Q 1469 391 1925 391 
Q 2381 391 2643 752 
Q 2906 1113 2906 1747 
Q 2906 2381 2643 2742 
Q 2381 3103 1925 3103 
Q 1469 3103 1208 2742 
Q 947 2381 947 1747 
z
" transform="scale(0.015625)"/>
                        <path id="DejaVuSans-6f" d="M 1959 3097
Q 1497 3097 1228 2736 
Q 959 2375 959 1747 
Q 959 1119 1226 758 
Q 1494 397 1959 397 
Q 2419 397 2687 759 
Q 2956 1122 2956 1747 
Q 2956 2369 2687 2733 
Q 2419 3097 1959 3097 
z
M 1959 3584 
Q 2709 3584 3137 3096 
Q 3566 2609 3566 1747 
Q 3566 888 3137 398 
Q 2709 -91 1959 -91 
Q 1206 -91 779 398 
Q 353 888 353 1747 
Q 353 2609 779 3096 
Q 1206 3584 1959 3584 
z
" transform="scale(0.015625)"/>
                        <path id="DejaVuSans-75" d="M 544 1381
L 544 3500 
L 1119 3500 
L 1119 1403 
Q 1119 906 1312 657 
Q 1506 409 1894 409 
Q 2359 409 2629 706 
Q 2900 1003 2900 1516 
L 2900 3500 
L 3475 3500 
L 3475 0 
L 2900 0 
L 2900 538 
Q 2691 219 2414 64 
Q 2138 -91 1772 -91 
Q 1169 -91 856 284 
Q 544 659 544 1381 
z
M 1991 3584 
L 1991 3584 
z
" transform="scale(0.015625)"/>
                        <path id="DejaVuSans-6c" d="M 603 4863
L 1178 4863 
L 1178 0 
L 603 0 
L 603 4863 
z
" transform="scale(0.015625)"/>
                    </defs>
                    <use xlink:href="#DejaVuSans-43"/>
                    <use xlink:href="#DejaVuSans-61" x="69.824219"/>
                    <use xlink:href="#DejaVuSans-72" x="131.103516"/>
                    <use xlink:href="#DejaVuSans-64" x="170.466797"/>
                    <use xlink:href="#DejaVuSans-69" x="233.943359"/>
                    <use xlink:href="#DejaVuSans-6f" x="261.726562"/>
                    <use xlink:href="#DejaVuSans-76" x="322.908203"/>
                    <use xlink:href="#DejaVuSans-61" x="382.087891"/>
                    <use xlink:href="#DejaVuSans-73" x="443.367188"/>
                    <use xlink:href="#DejaVuSans-63" x="495.466797"/>
                    <use xlink:href="#DejaVuSans-75" x="550.447266"/>
                    <use xlink:href="#DejaVuSans-6c" x="613.826172"/>
                    <use xlink:href="#DejaVuSans-61" x="641.609375"/>
                    <use xlink:href="#DejaVuSans-72" x="702.888672"/>
                </g>
            </g>
            <g id="text_3">
                <!-- Cell -->
                <g transform="translate(594.715028 273.852629)scale(0.1 -0.1)">
                    <use xlink:href="#DejaVuSans-43"/>
                    <use xlink:href="#DejaVuSans-65" x="69.824219"/>
                    <use xlink:href="#DejaVuSans-6c" x="131.347656"/>
                    <use xlink:href="#DejaVuSans-6c" x="159.130859"/>
                </g>
            </g>
            <g id="text_4">
                <!-- Dermatological -->
                <g transform="translate(521.091602 175.642525)scale(0.1 -0.1)">
                    <defs>
                        <path id="DejaVuSans-44" d="M 1259 4147
L 1259 519 
L 2022 519 
Q 2988 519 3436 956 
Q 3884 1394 3884 2338 
Q 3884 3275 3436 3711 
Q 2988 4147 2022 4147 
L 1259 4147 
z
M 628 4666 
L 1925 4666 
Q 3281 4666 3915 4102 
Q 4550 3538 4550 2338 
Q 4550 1131 3912 565 
Q 3275 0 1925 0 
L 628 0 
L 628 4666 
z
" transform="scale(0.015625)"/>
                        <path id="DejaVuSans-6d" d="M 3328 2828
Q 3544 3216 3844 3400 
Q 4144 3584 4550 3584 
Q 5097 3584 5394 3201 
Q 5691 2819 5691 2113 
L 5691 0 
L 5113 0 
L 5113 2094 
Q 5113 2597 4934 2840 
Q 4756 3084 4391 3084 
Q 3944 3084 3684 2787 
Q 3425 2491 3425 1978 
L 3425 0 
L 2847 0 
L 2847 2094 
Q 2847 2600 2669 2842 
Q 2491 3084 2119 3084 
Q 1678 3084 1418 2786 
Q 1159 2488 1159 1978 
L 1159 0 
L 581 0 
L 581 3500 
L 1159 3500 
L 1159 2956 
Q 1356 3278 1631 3431 
Q 1906 3584 2284 3584 
Q 2666 3584 2933 3390 
Q 3200 3197 3328 2828 
z
" transform="scale(0.015625)"/>
                        <path id="DejaVuSans-67" d="M 2906 1791
Q 2906 2416 2648 2759 
Q 2391 3103 1925 3103 
Q 1463 3103 1205 2759 
Q 947 2416 947 1791 
Q 947 1169 1205 825 
Q 1463 481 1925 481 
Q 2391 481 2648 825 
Q 2906 1169 2906 1791 
z
M 3481 434 
Q 3481 -459 3084 -895 
Q 2688 -1331 1869 -1331 
Q 1566 -1331 1297 -1286 
Q 1028 -1241 775 -1147 
L 775 -588 
Q 1028 -725 1275 -790 
Q 1522 -856 1778 -856 
Q 2344 -856 2625 -561 
Q 2906 -266 2906 331 
L 2906 616 
Q 2728 306 2450 153 
Q 2172 0 1784 0 
Q 1141 0 747 490 
Q 353 981 353 1791 
Q 353 2603 747 3093 
Q 1141 3584 1784 3584 
Q 2172 3584 2450 3431 
Q 2728 3278 2906 2969 
L 2906 3500 
L 3481 3500 
L 3481 434 
z
" transform="scale(0.015625)"/>
                    </defs>
                    <use xlink:href="#DejaVuSans-44"/>
                    <use xlink:href="#DejaVuSans-65" x="77.001953"/>
                    <use xlink:href="#DejaVuSans-72" x="138.525391"/>
                    <use xlink:href="#DejaVuSans-6d" x="177.888672"/>
                    <use xlink:href="#DejaVuSans-61" x="275.300781"/>
                    <use xlink:href="#DejaVuSans-74" x="336.580078"/>
                    <use xlink:href="#DejaVuSans-6f" x="375.789062"/>
                    <use xlink:href="#DejaVuSans-6c" x="436.970703"/>
                    <use xlink:href="#DejaVuSans-6f" x="464.753906"/>
                    <use xlink:href="#DejaVuSans-67" x="525.935547"/>
                    <use xlink:href="#DejaVuSans-69" x="589.412109"/>
                    <use xlink:href="#DejaVuSans-63" x="617.195312"/>
                    <use xlink:href="#DejaVuSans-61" x="672.175781"/>
                    <use xlink:href="#DejaVuSans-6c" x="733.455078"/>
                </g>
            </g>
            <g id="text_5">
                <!-- Metabolic -->
                <g transform="translate(94.933418 458.866143)scale(0.1 -0.1)">
                    <defs>
                        <path id="DejaVuSans-4d" d="M 628 4666
L 1569 4666 
L 2759 1491 
L 3956 4666 
L 4897 4666 
L 4897 0 
L 4281 0 
L 4281 4097 
L 3078 897 
L 2444 897 
L 1241 4097 
L 1241 0 
L 628 0 
L 628 4666 
z
" transform="scale(0.015625)"/>
                        <path id="DejaVuSans-62" d="M 3116 1747
Q 3116 2381 2855 2742 
Q 2594 3103 2138 3103 
Q 1681 3103 1420 2742 
Q 1159 2381 1159 1747 
Q 1159 1113 1420 752 
Q 1681 391 2138 391 
Q 2594 391 2855 752 
Q 3116 1113 3116 1747 
z
M 1159 2969 
Q 1341 3281 1617 3432 
Q 1894 3584 2278 3584 
Q 2916 3584 3314 3078 
Q 3713 2572 3713 1747 
Q 3713 922 3314 415 
Q 2916 -91 2278 -91 
Q 1894 -91 1617 61 
Q 1341 213 1159 525 
L 1159 0 
L 581 0 
L 581 4863 
L 1159 4863 
L 1159 2969 
z
" transform="scale(0.015625)"/>
                    </defs>
                    <use xlink:href="#DejaVuSans-4d"/>
                    <use xlink:href="#DejaVuSans-65" x="86.279297"/>
                    <use xlink:href="#DejaVuSans-74" x="147.802734"/>
                    <use xlink:href="#DejaVuSans-61" x="187.011719"/>
                    <use xlink:href="#DejaVuSans-62" x="248.291016"/>
                    <use xlink:href="#DejaVuSans-6f" x="311.767578"/>
                    <use xlink:href="#DejaVuSans-6c" x="372.949219"/>
                    <use xlink:href="#DejaVuSans-69" x="400.732422"/>
                    <use xlink:href="#DejaVuSans-63" x="428.515625"/>
                </g>
            </g>
            <g id="text_6">
                <!-- Skeletal -->
                <g transform="translate(602.098621 438.260732)scale(0.1 -0.1)">
                    <defs>
                        <path id="DejaVuSans-53" d="M 3425 4513
L 3425 3897 
Q 3066 4069 2747 4153 
Q 2428 4238 2131 4238 
Q 1616 4238 1336 4038 
Q 1056 3838 1056 3469 
Q 1056 3159 1242 3001 
Q 1428 2844 1947 2747 
L 2328 2669 
Q 3034 2534 3370 2195 
Q 3706 1856 3706 1288 
Q 3706 609 3251 259 
Q 2797 -91 1919 -91 
Q 1588 -91 1214 -16 
Q 841 59 441 206 
L 441 856 
Q 825 641 1194 531 
Q 1563 422 1919 422 
Q 2459 422 2753 634 
Q 3047 847 3047 1241 
Q 3047 1584 2836 1778 
Q 2625 1972 2144 2069 
L 1759 2144 
Q 1053 2284 737 2584 
Q 422 2884 422 3419 
Q 422 4038 858 4394 
Q 1294 4750 2059 4750 
Q 2388 4750 2728 4690 
Q 3069 4631 3425 4513 
z
" transform="scale(0.015625)"/>
                        <path id="DejaVuSans-6b" d="M 581 4863
L 1159 4863 
L 1159 1991 
L 2875 3500 
L 3609 3500 
L 1753 1863 
L 3688 0 
L 2938 0 
L 1159 1709 
L 1159 0 
L 581 0 
L 581 4863 
z
" transform="scale(0.015625)"/>
                    </defs>
                    <use xlink:href="#DejaVuSans-53"/>
                    <use xlink:href="#DejaVuSans-6b" x="63.476562"/>
                    <use xlink:href="#DejaVuSans-65" x="117.761719"/>
                    <use xlink:href="#DejaVuSans-6c" x="179.285156"/>
                    <use xlink:href="#DejaVuSans-65" x="207.068359"/>
                    <use xlink:href="#DejaVuSans-74" x="268.591797"/>
                    <use xlink:href="#DejaVuSans-61" x="307.800781"/>
                    <use xlink:href="#DejaVuSans-6c" x="369.080078"/>
                </g>
            </g>
            <g id="text_7">
                <!-- Cluster9 -->
                <g transform="translate(343.887187 80.4)scale(0.12 -0.12)">
                    <defs>
                        <path id="DejaVuSans-39" d="M 703 97
L 703 672 
Q 941 559 1184 500 
Q 1428 441 1663 441 
Q 2288 441 2617 861 
Q 2947 1281 2994 2138 
Q 2813 1869 2534 1725 
Q 2256 1581 1919 1581 
Q 1219 1581 811 2004 
Q 403 2428 403 3163 
Q 403 3881 828 4315 
Q 1253 4750 1959 4750 
Q 2769 4750 3195 4129 
Q 3622 3509 3622 2328 
Q 3622 1225 3098 567 
Q 2575 -91 1691 -91 
Q 1453 -91 1209 -44 
Q 966 3 703 97 
z
M 1959 2075 
Q 2384 2075 2632 2365 
Q 2881 2656 2881 3163 
Q 2881 3666 2632 3958 
Q 2384 4250 1959 4250 
Q 1534 4250 1286 3958 
Q 1038 3666 1038 3163 
Q 1038 2656 1286 2365 
Q 1534 2075 1959 2075 
z
" transform="scale(0.015625)"/>
                    </defs>
                    <use xlink:href="#DejaVuSans-43"/>
                    <use xlink:href="#DejaVuSans-6c" x="69.824219"/>
                    <use xlink:href="#DejaVuSans-75" x="97.607422"/>
                    <use xlink:href="#DejaVuSans-73" x="160.986328"/>
                    <use xlink:href="#DejaVuSans-74" x="213.085938"/>
                    <use xlink:href="#DejaVuSans-65" x="252.294922"/>
                    <use xlink:href="#DejaVuSans-72" x="313.818359"/>
                    <use xlink:href="#DejaVuSans-39" x="354.931641"/>
                </g>
            </g>
        </g>
    </g>
</svg>
