<?xml version="1.0" encoding="utf-8" standalone="no"?>
<!DOCTYPE svg PUBLIC "-//W3C//DTD SVG 1.1//EN"
        "http://www.w3.org/Graphics/SVG/1.1/DTD/svg11.dtd">
<svg xmlns:xlink="http://www.w3.org/1999/xlink" width="720pt" height="720pt" viewBox="0 0 720 720"
     xmlns="http://www.w3.org/2000/svg" version="1.1">
 <metadata>
  <rdf:RDF xmlns:dc="http://purl.org/dc/elements/1.1/" xmlns:cc="http://creativecommons.org/ns#"
           xmlns:rdf="http://www.w3.org/1999/02/22-rdf-syntax-ns#">
   <cc:Work>
    <dc:type rdf:resource="http://purl.org/dc/dcmitype/StillImage"/>
    <dc:date>2022-05-24T21:10:59.195126</dc:date>
    <dc:format>image/svg+xml</dc:format>
    <dc:creator>
     <cc:Agent>
      <dc:title>Matplotlib v3.5.1, https://matplotlib.org/</dc:title>
     </cc:Agent>
    </dc:creator>
   </cc:Work>
  </rdf:RDF>
 </metadata>
 <defs>
  <style type="text/css">*{stroke-linejoin: round; stroke-linecap: butt}</style>
 </defs>
 <g id="figure_1">
  <g id="patch_1">
   <path d="M 0 720 
L 720 720 
L 720 0 
L 0 0 
z
" style="fill: #ffffff"/>
  </g>
  <g id="axes_1">
   <g id="patch_2">
    <path d="M 598.603029 342.857245 
C 598.603029 297.82384 584.885445 253.841189 559.285071 216.792188 
C 533.684698 179.743187 497.39619 151.356748 455.273315 135.429697 
C 413.150439 119.502646 367.158883 116.778227 323.450243 127.620845 
C 279.741602 138.463463 240.355566 162.367141 210.560209 196.134645 
L 376.843029 342.857245 
L 598.603029 342.857245 
z
" style="fill: #1f77b4"/>
   </g>
   <g id="patch_3">
    <path d="M 202.71718 216.877399 
C 169.752796 254.236407 150.32138 301.636261 147.576738 351.383754 
C 144.832096 401.131247 158.931209 450.381029 187.58573 491.139642 
L 369 363.6 
L 202.71718 216.877399 
z
" style="fill: #ff7f0e"/>
   </g>
   <g id="patch_4">
    <path d="M 187.58573 491.139642 
C 201.260317 510.590576 217.97458 527.71628 237.08729 541.859739 
C 256.200001 556.003199 277.463578 566.981204 300.062263 574.372593 
L 369 363.6 
L 187.58573 491.139642 
z
" style="fill: #2ca02c"/>
   </g>
   <g id="patch_5">
    <path d="M 300.062263 574.372593 
C 318.996626 580.565486 338.679432 584.178836 358.57882 585.115003 
C 378.478208 586.05117 398.41331 584.301647 417.845449 579.913707 
L 369 363.6 
L 300.062263 574.372593 
z
" style="fill: #d62728"/>
   </g>
   <g id="patch_6">
    <path d="M 417.845449 579.913707 
C 425.093846 578.276958 432.255395 576.276917 439.302988 573.921153 
C 446.350581 571.56539 453.275315 568.856881 460.050976 565.805879 
L 369 363.6 
L 417.845449 579.913707 
z
" style="fill: #9467bd"/>
   </g>
   <g id="patch_7">
    <path d="M 460.050976 565.805879 
C 466.607979 562.853336 473.017489 559.5836 479.256782 556.008263 
C 485.496075 552.432926 491.557769 548.556219 497.420373 544.391884 
L 369 363.6 
L 460.050976 565.805879 
z
" style="fill: #8c564b"/>
   </g>
   <g id="patch_8">
    <path d="M 497.420373 544.391884 
C 502.110124 541.060653 506.668481 537.548204 511.085099 533.86251 
C 515.501718 530.176815 519.773253 526.320664 523.890012 522.302809 
L 369 363.6 
L 497.420373 544.391884 
z
" style="fill: #e377c2"/>
   </g>
   <g id="patch_9">
    <path d="M 523.890012 522.302809 
C 528.006772 518.284954 531.965637 514.108437 535.757625 509.782735 
C 539.549613 505.457034 543.171852 500.985423 546.616121 496.378052 
L 369 363.6 
L 523.890012 522.302809 
z
" style="fill: #7f7f7f"/>
   </g>
   <g id="patch_10">
    <path d="M 546.616121 496.378052 
C 549.916846 491.9627 553.051781 487.425804 556.014393 482.77682 
C 558.977005 478.127836 561.765234 473.369998 564.373267 468.513221 
L 369 363.6 
L 546.616121 496.378052 
z
" style="fill: #bcbd22"/>
   </g>
   <g id="patch_11">
    <path d="M 564.373267 468.513221 
C 566.641059 464.290057 568.771323 459.994472 570.760702 455.633237 
C 572.750081 451.272002 574.59753 446.847411 576.300135 442.366436 
L 369 363.6 
L 564.373267 468.513221 
z
" style="fill: #17becf"/>
   </g>
   <g id="patch_12">
    <path d="M 576.300135 442.366436 
C 577.917597 438.109547 579.403553 433.803846 580.755888 429.455458 
C 582.108224 425.10707 583.326299 420.718058 584.408379 416.294667 
L 369 363.6 
L 576.300135 442.366436 
z
" style="fill: #1f77b4"/>
   </g>
   <g id="patch_13">
    <path d="M 584.408379 416.294667 
C 585.319583 412.569791 586.134018 408.821907 586.850861 405.054796 
C 587.567704 401.287684 588.186714 397.502613 588.707266 393.7034 
L 369 363.6 
L 584.408379 416.294667 
z
" style="fill: #ff7f0e"/>
   </g>
   <g id="patch_14">
    <path d="M 588.707266 393.7034 
C 589.065136 391.091518 589.376402 388.473463 589.640916 385.850482 
C 589.905429 383.227502 590.123149 380.600013 590.293971 377.969268 
L 369 363.6 
L 588.707266 393.7034 
z
" style="fill: #2ca02c"/>
   </g>
   <g id="patch_15">
    <path d="M 590.293971 377.969268 
C 590.449263 375.577694 590.565776 373.183759 590.643462 370.788407 
C 590.721149 368.393056 590.76 365.996602 590.76 363.599991 
L 369 363.6 
L 590.293971 377.969268 
z
" style="fill: #d62728"/>
   </g>
   <g id="matplotlib.axis_1"/>
   <g id="matplotlib.axis_2"/>
   <g id="text_1">
    <!-- Metabolic -->
    <g transform="translate(463.116343 117.446317)scale(0.1 -0.1)">
     <defs>
      <path id="DejaVuSans-4d" d="M 628 4666 
L 1569 4666 
L 2759 1491 
L 3956 4666 
L 4897 4666 
L 4897 0 
L 4281 0 
L 4281 4097 
L 3078 897 
L 2444 897 
L 1241 4097 
L 1241 0 
L 628 0 
L 628 4666 
z
" transform="scale(0.015625)"/>
      <path id="DejaVuSans-65" d="M 3597 1894 
L 3597 1613 
L 953 1613 
Q 991 1019 1311 708 
Q 1631 397 2203 397 
Q 2534 397 2845 478 
Q 3156 559 3463 722 
L 3463 178 
Q 3153 47 2828 -22 
Q 2503 -91 2169 -91 
Q 1331 -91 842 396 
Q 353 884 353 1716 
Q 353 2575 817 3079 
Q 1281 3584 2069 3584 
Q 2775 3584 3186 3129 
Q 3597 2675 3597 1894 
z
M 3022 2063 
Q 3016 2534 2758 2815 
Q 2500 3097 2075 3097 
Q 1594 3097 1305 2825 
Q 1016 2553 972 2059 
L 3022 2063 
z
" transform="scale(0.015625)"/>
      <path id="DejaVuSans-74" d="M 1172 4494 
L 1172 3500 
L 2356 3500 
L 2356 3053 
L 1172 3053 
L 1172 1153 
Q 1172 725 1289 603 
Q 1406 481 1766 481 
L 2356 481 
L 2356 0 
L 1766 0 
Q 1100 0 847 248 
Q 594 497 594 1153 
L 594 3053 
L 172 3053 
L 172 3500 
L 594 3500 
L 594 4494 
L 1172 4494 
z
" transform="scale(0.015625)"/>
      <path id="DejaVuSans-61" d="M 2194 1759 
Q 1497 1759 1228 1600 
Q 959 1441 959 1056 
Q 959 750 1161 570 
Q 1363 391 1709 391 
Q 2188 391 2477 730 
Q 2766 1069 2766 1631 
L 2766 1759 
L 2194 1759 
z
M 3341 1997 
L 3341 0 
L 2766 0 
L 2766 531 
Q 2569 213 2275 61 
Q 1981 -91 1556 -91 
Q 1019 -91 701 211 
Q 384 513 384 1019 
Q 384 1609 779 1909 
Q 1175 2209 1959 2209 
L 2766 2209 
L 2766 2266 
Q 2766 2663 2505 2880 
Q 2244 3097 1772 3097 
Q 1472 3097 1187 3025 
Q 903 2953 641 2809 
L 641 3341 
Q 956 3463 1253 3523 
Q 1550 3584 1831 3584 
Q 2591 3584 2966 3190 
Q 3341 2797 3341 1997 
z
" transform="scale(0.015625)"/>
      <path id="DejaVuSans-62" d="M 3116 1747 
Q 3116 2381 2855 2742 
Q 2594 3103 2138 3103 
Q 1681 3103 1420 2742 
Q 1159 2381 1159 1747 
Q 1159 1113 1420 752 
Q 1681 391 2138 391 
Q 2594 391 2855 752 
Q 3116 1113 3116 1747 
z
M 1159 2969 
Q 1341 3281 1617 3432 
Q 1894 3584 2278 3584 
Q 2916 3584 3314 3078 
Q 3713 2572 3713 1747 
Q 3713 922 3314 415 
Q 2916 -91 2278 -91 
Q 1894 -91 1617 61 
Q 1341 213 1159 525 
L 1159 0 
L 581 0 
L 581 4863 
L 1159 4863 
L 1159 2969 
z
" transform="scale(0.015625)"/>
      <path id="DejaVuSans-6f" d="M 1959 3097 
Q 1497 3097 1228 2736 
Q 959 2375 959 1747 
Q 959 1119 1226 758 
Q 1494 397 1959 397 
Q 2419 397 2687 759 
Q 2956 1122 2956 1747 
Q 2956 2369 2687 2733 
Q 2419 3097 1959 3097 
z
M 1959 3584 
Q 2709 3584 3137 3096 
Q 3566 2609 3566 1747 
Q 3566 888 3137 398 
Q 2709 -91 1959 -91 
Q 1206 -91 779 398 
Q 353 888 353 1747 
Q 353 2609 779 3096 
Q 1206 3584 1959 3584 
z
" transform="scale(0.015625)"/>
      <path id="DejaVuSans-6c" d="M 603 4863 
L 1178 4863 
L 1178 0 
L 603 0 
L 603 4863 
z
" transform="scale(0.015625)"/>
      <path id="DejaVuSans-69" d="M 603 3500 
L 1178 3500 
L 1178 0 
L 603 0 
L 603 3500 
z
M 603 4863 
L 1178 4863 
L 1178 4134 
L 603 4134 
L 603 4863 
z
" transform="scale(0.015625)"/>
      <path id="DejaVuSans-63" d="M 3122 3366 
L 3122 2828 
Q 2878 2963 2633 3030 
Q 2388 3097 2138 3097 
Q 1578 3097 1268 2742 
Q 959 2388 959 1747 
Q 959 1106 1268 751 
Q 1578 397 2138 397 
Q 2388 397 2633 464 
Q 2878 531 3122 666 
L 3122 134 
Q 2881 22 2623 -34 
Q 2366 -91 2075 -91 
Q 1284 -91 818 406 
Q 353 903 353 1747 
Q 353 2603 823 3093 
Q 1294 3584 2113 3584 
Q 2378 3584 2631 3529 
Q 2884 3475 3122 3366 
z
" transform="scale(0.015625)"/>
     </defs>
     <use xlink:href="#DejaVuSans-4d"/>
     <use xlink:href="#DejaVuSans-65" x="86.279297"/>
     <use xlink:href="#DejaVuSans-74" x="147.802734"/>
     <use xlink:href="#DejaVuSans-61" x="187.011719"/>
     <use xlink:href="#DejaVuSans-62" x="248.291016"/>
     <use xlink:href="#DejaVuSans-6f" x="311.767578"/>
     <use xlink:href="#DejaVuSans-6c" x="372.949219"/>
     <use xlink:href="#DejaVuSans-69" x="400.732422"/>
     <use xlink:href="#DejaVuSans-63" x="428.515625"/>
    </g>
   </g>
   <g id="text_2">
    <!-- Immunological -->
    <g transform="translate(51.781287 352.921504)scale(0.1 -0.1)">
     <defs>
      <path id="DejaVuSans-49" d="M 628 4666 
L 1259 4666 
L 1259 0 
L 628 0 
L 628 4666 
z
" transform="scale(0.015625)"/>
      <path id="DejaVuSans-6d" d="M 3328 2828 
Q 3544 3216 3844 3400 
Q 4144 3584 4550 3584 
Q 5097 3584 5394 3201 
Q 5691 2819 5691 2113 
L 5691 0 
L 5113 0 
L 5113 2094 
Q 5113 2597 4934 2840 
Q 4756 3084 4391 3084 
Q 3944 3084 3684 2787 
Q 3425 2491 3425 1978 
L 3425 0 
L 2847 0 
L 2847 2094 
Q 2847 2600 2669 2842 
Q 2491 3084 2119 3084 
Q 1678 3084 1418 2786 
Q 1159 2488 1159 1978 
L 1159 0 
L 581 0 
L 581 3500 
L 1159 3500 
L 1159 2956 
Q 1356 3278 1631 3431 
Q 1906 3584 2284 3584 
Q 2666 3584 2933 3390 
Q 3200 3197 3328 2828 
z
" transform="scale(0.015625)"/>
      <path id="DejaVuSans-75" d="M 544 1381 
L 544 3500 
L 1119 3500 
L 1119 1403 
Q 1119 906 1312 657 
Q 1506 409 1894 409 
Q 2359 409 2629 706 
Q 2900 1003 2900 1516 
L 2900 3500 
L 3475 3500 
L 3475 0 
L 2900 0 
L 2900 538 
Q 2691 219 2414 64 
Q 2138 -91 1772 -91 
Q 1169 -91 856 284 
Q 544 659 544 1381 
z
M 1991 3584 
L 1991 3584 
z
" transform="scale(0.015625)"/>
      <path id="DejaVuSans-6e" d="M 3513 2113 
L 3513 0 
L 2938 0 
L 2938 2094 
Q 2938 2591 2744 2837 
Q 2550 3084 2163 3084 
Q 1697 3084 1428 2787 
Q 1159 2491 1159 1978 
L 1159 0 
L 581 0 
L 581 3500 
L 1159 3500 
L 1159 2956 
Q 1366 3272 1645 3428 
Q 1925 3584 2291 3584 
Q 2894 3584 3203 3211 
Q 3513 2838 3513 2113 
z
" transform="scale(0.015625)"/>
      <path id="DejaVuSans-67" d="M 2906 1791 
Q 2906 2416 2648 2759 
Q 2391 3103 1925 3103 
Q 1463 3103 1205 2759 
Q 947 2416 947 1791 
Q 947 1169 1205 825 
Q 1463 481 1925 481 
Q 2391 481 2648 825 
Q 2906 1169 2906 1791 
z
M 3481 434 
Q 3481 -459 3084 -895 
Q 2688 -1331 1869 -1331 
Q 1566 -1331 1297 -1286 
Q 1028 -1241 775 -1147 
L 775 -588 
Q 1028 -725 1275 -790 
Q 1522 -856 1778 -856 
Q 2344 -856 2625 -561 
Q 2906 -266 2906 331 
L 2906 616 
Q 2728 306 2450 153 
Q 2172 0 1784 0 
Q 1141 0 747 490 
Q 353 981 353 1791 
Q 353 2603 747 3093 
Q 1141 3584 1784 3584 
Q 2172 3584 2450 3431 
Q 2728 3278 2906 2969 
L 2906 3500 
L 3481 3500 
L 3481 434 
z
" transform="scale(0.015625)"/>
     </defs>
     <use xlink:href="#DejaVuSans-49"/>
     <use xlink:href="#DejaVuSans-6d" x="29.492188"/>
     <use xlink:href="#DejaVuSans-6d" x="126.904297"/>
     <use xlink:href="#DejaVuSans-75" x="224.316406"/>
     <use xlink:href="#DejaVuSans-6e" x="287.695312"/>
     <use xlink:href="#DejaVuSans-6f" x="351.074219"/>
     <use xlink:href="#DejaVuSans-6c" x="412.255859"/>
     <use xlink:href="#DejaVuSans-6f" x="440.039062"/>
     <use xlink:href="#DejaVuSans-67" x="501.220703"/>
     <use xlink:href="#DejaVuSans-69" x="564.697266"/>
     <use xlink:href="#DejaVuSans-63" x="592.480469"/>
     <use xlink:href="#DejaVuSans-61" x="647.460938"/>
     <use xlink:href="#DejaVuSans-6c" x="708.740234"/>
    </g>
   </g>
   <g id="text_3">
    <!-- Psychiatric -->
    <g transform="translate(169.863207 562.445088)scale(0.1 -0.1)">
     <defs>
      <path id="DejaVuSans-50" d="M 1259 4147 
L 1259 2394 
L 2053 2394 
Q 2494 2394 2734 2622 
Q 2975 2850 2975 3272 
Q 2975 3691 2734 3919 
Q 2494 4147 2053 4147 
L 1259 4147 
z
M 628 4666 
L 2053 4666 
Q 2838 4666 3239 4311 
Q 3641 3956 3641 3272 
Q 3641 2581 3239 2228 
Q 2838 1875 2053 1875 
L 1259 1875 
L 1259 0 
L 628 0 
L 628 4666 
z
" transform="scale(0.015625)"/>
      <path id="DejaVuSans-73" d="M 2834 3397 
L 2834 2853 
Q 2591 2978 2328 3040 
Q 2066 3103 1784 3103 
Q 1356 3103 1142 2972 
Q 928 2841 928 2578 
Q 928 2378 1081 2264 
Q 1234 2150 1697 2047 
L 1894 2003 
Q 2506 1872 2764 1633 
Q 3022 1394 3022 966 
Q 3022 478 2636 193 
Q 2250 -91 1575 -91 
Q 1294 -91 989 -36 
Q 684 19 347 128 
L 347 722 
Q 666 556 975 473 
Q 1284 391 1588 391 
Q 1994 391 2212 530 
Q 2431 669 2431 922 
Q 2431 1156 2273 1281 
Q 2116 1406 1581 1522 
L 1381 1569 
Q 847 1681 609 1914 
Q 372 2147 372 2553 
Q 372 3047 722 3315 
Q 1072 3584 1716 3584 
Q 2034 3584 2315 3537 
Q 2597 3491 2834 3397 
z
" transform="scale(0.015625)"/>
      <path id="DejaVuSans-79" d="M 2059 -325 
Q 1816 -950 1584 -1140 
Q 1353 -1331 966 -1331 
L 506 -1331 
L 506 -850 
L 844 -850 
Q 1081 -850 1212 -737 
Q 1344 -625 1503 -206 
L 1606 56 
L 191 3500 
L 800 3500 
L 1894 763 
L 2988 3500 
L 3597 3500 
L 2059 -325 
z
" transform="scale(0.015625)"/>
      <path id="DejaVuSans-68" d="M 3513 2113 
L 3513 0 
L 2938 0 
L 2938 2094 
Q 2938 2591 2744 2837 
Q 2550 3084 2163 3084 
Q 1697 3084 1428 2787 
Q 1159 2491 1159 1978 
L 1159 0 
L 581 0 
L 581 4863 
L 1159 4863 
L 1159 2956 
Q 1366 3272 1645 3428 
Q 1925 3584 2291 3584 
Q 2894 3584 3203 3211 
Q 3513 2838 3513 2113 
z
" transform="scale(0.015625)"/>
      <path id="DejaVuSans-72" d="M 2631 2963 
Q 2534 3019 2420 3045 
Q 2306 3072 2169 3072 
Q 1681 3072 1420 2755 
Q 1159 2438 1159 1844 
L 1159 0 
L 581 0 
L 581 3500 
L 1159 3500 
L 1159 2956 
Q 1341 3275 1631 3429 
Q 1922 3584 2338 3584 
Q 2397 3584 2469 3576 
Q 2541 3569 2628 3553 
L 2631 2963 
z
" transform="scale(0.015625)"/>
     </defs>
     <use xlink:href="#DejaVuSans-50"/>
     <use xlink:href="#DejaVuSans-73" x="58.552734"/>
     <use xlink:href="#DejaVuSans-79" x="110.652344"/>
     <use xlink:href="#DejaVuSans-63" x="169.832031"/>
     <use xlink:href="#DejaVuSans-68" x="224.8125"/>
     <use xlink:href="#DejaVuSans-69" x="288.191406"/>
     <use xlink:href="#DejaVuSans-61" x="315.974609"/>
     <use xlink:href="#DejaVuSans-74" x="377.253906"/>
     <use xlink:href="#DejaVuSans-72" x="416.462891"/>
     <use xlink:href="#DejaVuSans-69" x="457.576172"/>
     <use xlink:href="#DejaVuSans-63" x="485.359375"/>
    </g>
   </g>
   <g id="text_4">
    <!-- Skeletal -->
    <g transform="translate(317.849202 610.025878)scale(0.1 -0.1)">
     <defs>
      <path id="DejaVuSans-53" d="M 3425 4513 
L 3425 3897 
Q 3066 4069 2747 4153 
Q 2428 4238 2131 4238 
Q 1616 4238 1336 4038 
Q 1056 3838 1056 3469 
Q 1056 3159 1242 3001 
Q 1428 2844 1947 2747 
L 2328 2669 
Q 3034 2534 3370 2195 
Q 3706 1856 3706 1288 
Q 3706 609 3251 259 
Q 2797 -91 1919 -91 
Q 1588 -91 1214 -16 
Q 841 59 441 206 
L 441 856 
Q 825 641 1194 531 
Q 1563 422 1919 422 
Q 2459 422 2753 634 
Q 3047 847 3047 1241 
Q 3047 1584 2836 1778 
Q 2625 1972 2144 2069 
L 1759 2144 
Q 1053 2284 737 2584 
Q 422 2884 422 3419 
Q 422 4038 858 4394 
Q 1294 4750 2059 4750 
Q 2388 4750 2728 4690 
Q 3069 4631 3425 4513 
z
" transform="scale(0.015625)"/>
      <path id="DejaVuSans-6b" d="M 581 4863 
L 1159 4863 
L 1159 1991 
L 2875 3500 
L 3609 3500 
L 1753 1863 
L 3688 0 
L 2938 0 
L 1159 1709 
L 1159 0 
L 581 0 
L 581 4863 
z
" transform="scale(0.015625)"/>
     </defs>
     <use xlink:href="#DejaVuSans-53"/>
     <use xlink:href="#DejaVuSans-6b" x="63.476562"/>
     <use xlink:href="#DejaVuSans-65" x="117.761719"/>
     <use xlink:href="#DejaVuSans-6c" x="179.285156"/>
     <use xlink:href="#DejaVuSans-65" x="207.068359"/>
     <use xlink:href="#DejaVuSans-74" x="268.591797"/>
     <use xlink:href="#DejaVuSans-61" x="307.800781"/>
     <use xlink:href="#DejaVuSans-6c" x="369.080078"/>
    </g>
   </g>
   <g id="text_5">
    <!-- Nutritional -->
    <g transform="translate(446.333287 597.712643)scale(0.1 -0.1)">
     <defs>
      <path id="DejaVuSans-4e" d="M 628 4666 
L 1478 4666 
L 3547 763 
L 3547 4666 
L 4159 4666 
L 4159 0 
L 3309 0 
L 1241 3903 
L 1241 0 
L 628 0 
L 628 4666 
z
" transform="scale(0.015625)"/>
     </defs>
     <use xlink:href="#DejaVuSans-4e"/>
     <use xlink:href="#DejaVuSans-75" x="74.804688"/>
     <use xlink:href="#DejaVuSans-74" x="138.183594"/>
     <use xlink:href="#DejaVuSans-72" x="177.392578"/>
     <use xlink:href="#DejaVuSans-69" x="218.505859"/>
     <use xlink:href="#DejaVuSans-74" x="246.289062"/>
     <use xlink:href="#DejaVuSans-69" x="285.498047"/>
     <use xlink:href="#DejaVuSans-6f" x="313.28125"/>
     <use xlink:href="#DejaVuSans-6e" x="374.462891"/>
     <use xlink:href="#DejaVuSans-61" x="437.841797"/>
     <use xlink:href="#DejaVuSans-6c" x="499.121094"/>
    </g>
   </g>
   <g id="text_6">
    <!-- Respiratory -->
    <g transform="translate(490.28246 578.008464)scale(0.1 -0.1)">
     <defs>
      <path id="DejaVuSans-52" d="M 2841 2188 
Q 3044 2119 3236 1894 
Q 3428 1669 3622 1275 
L 4263 0 
L 3584 0 
L 2988 1197 
Q 2756 1666 2539 1819 
Q 2322 1972 1947 1972 
L 1259 1972 
L 1259 0 
L 628 0 
L 628 4666 
L 2053 4666 
Q 2853 4666 3247 4331 
Q 3641 3997 3641 3322 
Q 3641 2881 3436 2590 
Q 3231 2300 2841 2188 
z
M 1259 4147 
L 1259 2491 
L 2053 2491 
Q 2509 2491 2742 2702 
Q 2975 2913 2975 3322 
Q 2975 3731 2742 3939 
Q 2509 4147 2053 4147 
L 1259 4147 
z
" transform="scale(0.015625)"/>
      <path id="DejaVuSans-70" d="M 1159 525 
L 1159 -1331 
L 581 -1331 
L 581 3500 
L 1159 3500 
L 1159 2969 
Q 1341 3281 1617 3432 
Q 1894 3584 2278 3584 
Q 2916 3584 3314 3078 
Q 3713 2572 3713 1747 
Q 3713 922 3314 415 
Q 2916 -91 2278 -91 
Q 1894 -91 1617 61 
Q 1341 213 1159 525 
z
M 3116 1747 
Q 3116 2381 2855 2742 
Q 2594 3103 2138 3103 
Q 1681 3103 1420 2742 
Q 1159 2381 1159 1747 
Q 1159 1113 1420 752 
Q 1681 391 2138 391 
Q 2594 391 2855 752 
Q 3116 1113 3116 1747 
z
" transform="scale(0.015625)"/>
     </defs>
     <use xlink:href="#DejaVuSans-52"/>
     <use xlink:href="#DejaVuSans-65" x="64.982422"/>
     <use xlink:href="#DejaVuSans-73" x="126.505859"/>
     <use xlink:href="#DejaVuSans-70" x="178.605469"/>
     <use xlink:href="#DejaVuSans-69" x="242.082031"/>
     <use xlink:href="#DejaVuSans-72" x="269.865234"/>
     <use xlink:href="#DejaVuSans-61" x="310.978516"/>
     <use xlink:href="#DejaVuSans-74" x="372.257812"/>
     <use xlink:href="#DejaVuSans-6f" x="411.466797"/>
     <use xlink:href="#DejaVuSans-72" x="472.648438"/>
     <use xlink:href="#DejaVuSans-79" x="513.761719"/>
    </g>
   </g>
   <g id="text_7">
    <!-- Activities -->
    <g transform="translate(525.293609 553.648136)scale(0.1 -0.1)">
     <defs>
      <path id="DejaVuSans-41" d="M 2188 4044 
L 1331 1722 
L 3047 1722 
L 2188 4044 
z
M 1831 4666 
L 2547 4666 
L 4325 0 
L 3669 0 
L 3244 1197 
L 1141 1197 
L 716 0 
L 50 0 
L 1831 4666 
z
" transform="scale(0.015625)"/>
      <path id="DejaVuSans-76" d="M 191 3500 
L 800 3500 
L 1894 563 
L 2988 3500 
L 3597 3500 
L 2284 0 
L 1503 0 
L 191 3500 
z
" transform="scale(0.015625)"/>
     </defs>
     <use xlink:href="#DejaVuSans-41"/>
     <use xlink:href="#DejaVuSans-63" x="66.658203"/>
     <use xlink:href="#DejaVuSans-74" x="121.638672"/>
     <use xlink:href="#DejaVuSans-69" x="160.847656"/>
     <use xlink:href="#DejaVuSans-76" x="188.630859"/>
     <use xlink:href="#DejaVuSans-69" x="247.810547"/>
     <use xlink:href="#DejaVuSans-74" x="275.59375"/>
     <use xlink:href="#DejaVuSans-69" x="314.802734"/>
     <use xlink:href="#DejaVuSans-65" x="342.585938"/>
     <use xlink:href="#DejaVuSans-73" x="404.109375"/>
    </g>
   </g>
   <g id="text_8">
    <!-- Environmental -->
    <g transform="translate(552.433387 527.160384)scale(0.1 -0.1)">
     <defs>
      <path id="DejaVuSans-45" d="M 628 4666 
L 3578 4666 
L 3578 4134 
L 1259 4134 
L 1259 2753 
L 3481 2753 
L 3481 2222 
L 1259 2222 
L 1259 531 
L 3634 531 
L 3634 0 
L 628 0 
L 628 4666 
z
" transform="scale(0.015625)"/>
     </defs>
     <use xlink:href="#DejaVuSans-45"/>
     <use xlink:href="#DejaVuSans-6e" x="63.183594"/>
     <use xlink:href="#DejaVuSans-76" x="126.5625"/>
     <use xlink:href="#DejaVuSans-69" x="185.742188"/>
     <use xlink:href="#DejaVuSans-72" x="213.525391"/>
     <use xlink:href="#DejaVuSans-6f" x="252.388672"/>
     <use xlink:href="#DejaVuSans-6e" x="313.570312"/>
     <use xlink:href="#DejaVuSans-6d" x="376.949219"/>
     <use xlink:href="#DejaVuSans-65" x="474.361328"/>
     <use xlink:href="#DejaVuSans-6e" x="535.884766"/>
     <use xlink:href="#DejaVuSans-74" x="599.263672"/>
     <use xlink:href="#DejaVuSans-61" x="638.472656"/>
     <use xlink:href="#DejaVuSans-6c" x="699.751953"/>
    </g>
   </g>
   <g id="text_9">
    <!-- Neurological -->
    <g transform="translate(574.715832 497.453877)scale(0.1 -0.1)">
     <use xlink:href="#DejaVuSans-4e"/>
     <use xlink:href="#DejaVuSans-65" x="74.804688"/>
     <use xlink:href="#DejaVuSans-75" x="136.328125"/>
     <use xlink:href="#DejaVuSans-72" x="199.707031"/>
     <use xlink:href="#DejaVuSans-6f" x="238.570312"/>
     <use xlink:href="#DejaVuSans-6c" x="299.751953"/>
     <use xlink:href="#DejaVuSans-6f" x="327.535156"/>
     <use xlink:href="#DejaVuSans-67" x="388.716797"/>
     <use xlink:href="#DejaVuSans-69" x="452.193359"/>
     <use xlink:href="#DejaVuSans-63" x="479.976562"/>
     <use xlink:href="#DejaVuSans-61" x="534.957031"/>
     <use xlink:href="#DejaVuSans-6c" x="596.236328"/>
    </g>
   </g>
   <g id="text_10">
    <!-- Endocrine -->
    <g transform="translate(590.936772 467.595936)scale(0.1 -0.1)">
     <defs>
      <path id="DejaVuSans-64" d="M 2906 2969 
L 2906 4863 
L 3481 4863 
L 3481 0 
L 2906 0 
L 2906 525 
Q 2725 213 2448 61 
Q 2172 -91 1784 -91 
Q 1150 -91 751 415 
Q 353 922 353 1747 
Q 353 2572 751 3078 
Q 1150 3584 1784 3584 
Q 2172 3584 2448 3432 
Q 2725 3281 2906 2969 
z
M 947 1747 
Q 947 1113 1208 752 
Q 1469 391 1925 391 
Q 2381 391 2643 752 
Q 2906 1113 2906 1747 
Q 2906 2381 2643 2742 
Q 2381 3103 1925 3103 
Q 1469 3103 1208 2742 
Q 947 2381 947 1747 
z
" transform="scale(0.015625)"/>
     </defs>
     <use xlink:href="#DejaVuSans-45"/>
     <use xlink:href="#DejaVuSans-6e" x="63.183594"/>
     <use xlink:href="#DejaVuSans-64" x="126.5625"/>
     <use xlink:href="#DejaVuSans-6f" x="190.039062"/>
     <use xlink:href="#DejaVuSans-63" x="251.220703"/>
     <use xlink:href="#DejaVuSans-72" x="306.201172"/>
     <use xlink:href="#DejaVuSans-69" x="347.314453"/>
     <use xlink:href="#DejaVuSans-6e" x="375.097656"/>
     <use xlink:href="#DejaVuSans-65" x="438.476562"/>
    </g>
   </g>
   <g id="text_11">
    <!-- Environment -->
    <g transform="translate(601.931477 438.800379)scale(0.1 -0.1)">
     <use xlink:href="#DejaVuSans-45"/>
     <use xlink:href="#DejaVuSans-6e" x="63.183594"/>
     <use xlink:href="#DejaVuSans-76" x="126.5625"/>
     <use xlink:href="#DejaVuSans-69" x="185.742188"/>
     <use xlink:href="#DejaVuSans-72" x="213.525391"/>
     <use xlink:href="#DejaVuSans-6f" x="252.388672"/>
     <use xlink:href="#DejaVuSans-6e" x="313.570312"/>
     <use xlink:href="#DejaVuSans-6d" x="376.949219"/>
     <use xlink:href="#DejaVuSans-65" x="474.361328"/>
     <use xlink:href="#DejaVuSans-6e" x="535.884766"/>
     <use xlink:href="#DejaVuSans-74" x="599.263672"/>
    </g>
   </g>
   <g id="text_12">
    <!-- Reproduction -->
    <g transform="translate(608.635947 411.95965)scale(0.1 -0.1)">
     <use xlink:href="#DejaVuSans-52"/>
     <use xlink:href="#DejaVuSans-65" x="64.982422"/>
     <use xlink:href="#DejaVuSans-70" x="126.505859"/>
     <use xlink:href="#DejaVuSans-72" x="189.982422"/>
     <use xlink:href="#DejaVuSans-6f" x="228.845703"/>
     <use xlink:href="#DejaVuSans-64" x="290.027344"/>
     <use xlink:href="#DejaVuSans-75" x="353.503906"/>
     <use xlink:href="#DejaVuSans-63" x="416.882812"/>
     <use xlink:href="#DejaVuSans-74" x="471.863281"/>
     <use xlink:href="#DejaVuSans-69" x="511.072266"/>
     <use xlink:href="#DejaVuSans-6f" x="538.855469"/>
     <use xlink:href="#DejaVuSans-6e" x="600.037109"/>
    </g>
   </g>
   <g id="text_13">
    <!-- Dermatological -->
    <g transform="translate(611.705007 390.834906)scale(0.1 -0.1)">
     <defs>
      <path id="DejaVuSans-44" d="M 1259 4147 
L 1259 519 
L 2022 519 
Q 2988 519 3436 956 
Q 3884 1394 3884 2338 
Q 3884 3275 3436 3711 
Q 2988 4147 2022 4147 
L 1259 4147 
z
M 628 4666 
L 1925 4666 
Q 3281 4666 3915 4102 
Q 4550 3538 4550 2338 
Q 4550 1131 3912 565 
Q 3275 0 1925 0 
L 628 0 
L 628 4666 
z
" transform="scale(0.015625)"/>
     </defs>
     <use xlink:href="#DejaVuSans-44"/>
     <use xlink:href="#DejaVuSans-65" x="77.001953"/>
     <use xlink:href="#DejaVuSans-72" x="138.525391"/>
     <use xlink:href="#DejaVuSans-6d" x="177.888672"/>
     <use xlink:href="#DejaVuSans-61" x="275.300781"/>
     <use xlink:href="#DejaVuSans-74" x="336.580078"/>
     <use xlink:href="#DejaVuSans-6f" x="375.789062"/>
     <use xlink:href="#DejaVuSans-6c" x="436.970703"/>
     <use xlink:href="#DejaVuSans-6f" x="464.753906"/>
     <use xlink:href="#DejaVuSans-67" x="525.935547"/>
     <use xlink:href="#DejaVuSans-69" x="589.412109"/>
     <use xlink:href="#DejaVuSans-63" x="617.195312"/>
     <use xlink:href="#DejaVuSans-61" x="672.175781"/>
     <use xlink:href="#DejaVuSans-6c" x="733.455078"/>
    </g>
   </g>
   <g id="text_14">
    <!-- Others -->
    <g transform="translate(612.807809 374.266623)scale(0.1 -0.1)">
     <defs>
      <path id="DejaVuSans-4f" d="M 2522 4238 
Q 1834 4238 1429 3725 
Q 1025 3213 1025 2328 
Q 1025 1447 1429 934 
Q 1834 422 2522 422 
Q 3209 422 3611 934 
Q 4013 1447 4013 2328 
Q 4013 3213 3611 3725 
Q 3209 4238 2522 4238 
z
M 2522 4750 
Q 3503 4750 4090 4092 
Q 4678 3434 4678 2328 
Q 4678 1225 4090 567 
Q 3503 -91 2522 -91 
Q 1538 -91 948 565 
Q 359 1222 359 2328 
Q 359 3434 948 4092 
Q 1538 4750 2522 4750 
z
" transform="scale(0.015625)"/>
     </defs>
     <use xlink:href="#DejaVuSans-4f"/>
     <use xlink:href="#DejaVuSans-74" x="78.710938"/>
     <use xlink:href="#DejaVuSans-68" x="117.919922"/>
     <use xlink:href="#DejaVuSans-65" x="181.298828"/>
     <use xlink:href="#DejaVuSans-72" x="242.822266"/>
     <use xlink:href="#DejaVuSans-73" x="283.935547"/>
    </g>
   </g>
   <g id="text_15">
    <!-- Cluster 1 -->
    <g transform="translate(341.980313 80.4)scale(0.12 -0.12)">
     <defs>
      <path id="DejaVuSans-43" d="M 4122 4306 
L 4122 3641 
Q 3803 3938 3442 4084 
Q 3081 4231 2675 4231 
Q 1875 4231 1450 3742 
Q 1025 3253 1025 2328 
Q 1025 1406 1450 917 
Q 1875 428 2675 428 
Q 3081 428 3442 575 
Q 3803 722 4122 1019 
L 4122 359 
Q 3791 134 3420 21 
Q 3050 -91 2638 -91 
Q 1578 -91 968 557 
Q 359 1206 359 2328 
Q 359 3453 968 4101 
Q 1578 4750 2638 4750 
Q 3056 4750 3426 4639 
Q 3797 4528 4122 4306 
z
" transform="scale(0.015625)"/>
      <path id="DejaVuSans-20" transform="scale(0.015625)"/>
      <path id="DejaVuSans-31" d="M 794 531 
L 1825 531 
L 1825 4091 
L 703 3866 
L 703 4441 
L 1819 4666 
L 2450 4666 
L 2450 531 
L 3481 531 
L 3481 0 
L 794 0 
L 794 531 
z
" transform="scale(0.015625)"/>
     </defs>
     <use xlink:href="#DejaVuSans-43"/>
     <use xlink:href="#DejaVuSans-6c" x="69.824219"/>
     <use xlink:href="#DejaVuSans-75" x="97.607422"/>
     <use xlink:href="#DejaVuSans-73" x="160.986328"/>
     <use xlink:href="#DejaVuSans-74" x="213.085938"/>
     <use xlink:href="#DejaVuSans-65" x="252.294922"/>
     <use xlink:href="#DejaVuSans-72" x="313.818359"/>
     <use xlink:href="#DejaVuSans-20" x="354.931641"/>
     <use xlink:href="#DejaVuSans-31" x="386.71875"/>
    </g>
   </g>
  </g>
 </g>
</svg>
