<?xml version="1.0" encoding="utf-8" standalone="no"?>
<!DOCTYPE svg PUBLIC "-//W3C//DTD SVG 1.1//EN"
        "http://www.w3.org/Graphics/SVG/1.1/DTD/svg11.dtd">
<svg xmlns:xlink="http://www.w3.org/1999/xlink" width="720pt" height="720pt" viewBox="0 0 720 720"
     xmlns="http://www.w3.org/2000/svg" version="1.1">
    <metadata>
        <rdf:RDF xmlns:dc="http://purl.org/dc/elements/1.1/" xmlns:cc="http://creativecommons.org/ns#"
                 xmlns:rdf="http://www.w3.org/1999/02/22-rdf-syntax-ns#">
            <cc:Work>
                <dc:type rdf:resource="http://purl.org/dc/dcmitype/StillImage"/>
                <dc:date>2022-05-29T16:22:33.320279</dc:date>
                <dc:format>image/svg+xml</dc:format>
                <dc:creator>
                    <cc:Agent>
                        <dc:title>Matplotlib v3.5.1, https://matplotlib.org/</dc:title>
                    </cc:Agent>
                </dc:creator>
            </cc:Work>
        </rdf:RDF>
    </metadata>
    <defs>
        <style type="text/css">*{stroke-linejoin: round; stroke-linecap: butt}</style>
    </defs>
    <g id="figure_1">
        <g id="patch_1">
            <path d="M 0 720
L 720 720 
L 720 0 
L 0 0 
z
" style="fill: #ffffff"/>
        </g>
        <g id="axes_1">
            <g id="patch_2">
                <path d="M 590.76 363.6
C 590.76 362.421179 590.750601 361.242377 590.731802 360.063705 
C 590.713004 358.885034 590.684808 357.706532 590.647217 356.52831 
L 524.153052 358.649817 
C 524.179366 359.474572 524.199103 360.299524 524.212262 361.124594 
C 524.22542 361.949664 524.232 362.774825 524.232 363.6 
L 590.76 363.6 
z
" style="fill: #1f77b4; stroke: #ffffff; stroke-linejoin: miter"/>
            </g>
            <g id="patch_3">
                <path d="M 590.647217 356.52831
C 589.728058 327.719212 583.200863 299.363743 571.431712 273.052224 
C 559.66256 246.740705 542.875667 222.974402 522.01253 203.086252 
C 501.149393 183.198103 476.60748 167.567 449.763226 157.069618 
C 422.918973 146.572235 394.283796 141.40856 365.463704 141.868198 
C 336.643612 142.327836 308.187663 148.40203 281.691812 159.750109 
C 255.195962 171.098188 231.164989 187.503957 210.946675 208.047295 
C 190.728361 228.590633 174.707888 252.880165 163.783768 279.553609 
C 152.859649 306.227052 147.24 334.776245 147.24 363.600003 
C 147.24 392.42376 152.85965 420.972953 163.78377 447.646396 
C 174.707891 474.319839 190.728364 498.609371 210.946679 519.152709 
C 231.164993 539.696046 255.195967 556.101814 281.691817 567.449893 
C 308.187668 578.797971 336.643617 584.872165 365.463709 585.331803 
C 394.283801 585.79144 422.918978 580.627764 449.763231 570.130381 
C 476.607484 559.632997 501.149397 544.001894 522.012534 524.113744 
C 542.875671 504.225594 559.662562 480.459291 571.431714 454.147771 
C 583.200865 427.836252 589.728059 399.480783 590.647217 370.671685 
L 524.153052 368.550179 
C 523.509641 388.716548 518.940605 408.565376 510.7022 426.98344 
C 502.463794 445.401504 490.71297 462.037916 476.108774 475.959621 
C 461.504578 489.881326 444.325239 500.823098 425.534262 508.171266 
C 406.743285 515.519435 386.698661 519.134008 366.524596 518.812262 
C 346.350532 518.490516 326.431367 514.23858 307.884272 506.294925 
C 289.337177 498.35127 272.515495 486.867232 258.362675 472.486896 
C 244.209855 458.10656 232.995523 441.103888 225.348639 422.432477 
C 217.701755 403.761067 213.768 383.776632 213.768 363.600002 
C 213.768 343.423372 217.701754 323.438936 225.348638 304.767526 
C 232.995522 286.096116 244.209852 269.093443 258.362672 254.713107 
C 272.515492 240.33277 289.337173 228.848732 307.884269 220.905076 
C 326.431364 212.961421 346.350528 208.709485 366.524593 208.387738 
C 386.698657 208.065992 406.743281 211.680564 425.534258 219.028732 
C 444.325236 226.3769 461.504575 237.318672 476.108771 251.240377 
C 490.712967 265.162081 502.463792 281.798493 510.702198 300.216557 
C 518.940604 318.63462 523.509641 338.483448 524.153052 358.649817 
L 590.647217 356.52831 
z
" style="fill: #ff7f0e; stroke: #ffffff; stroke-linejoin: miter"/>
            </g>
            <g id="patch_4">
                <path d="M 590.647217 370.671685
C 590.684808 369.493463 590.713005 368.314961 590.731803 367.136289 
C 590.750601 365.957618 590.76 364.778816 590.76 363.599995 
L 524.232 363.599996 
C 524.232 364.425171 524.22542 365.250333 524.212262 366.075403 
C 524.199103 366.900472 524.179366 367.725424 524.153052 368.550179 
L 590.647217 370.671685 
z
" style="fill: #2ca02c; stroke: #ffffff; stroke-linejoin: miter"/>
            </g>
            <g id="patch_5">
                <path d="M 524.232 363.6
C 524.232 362.774825 524.22542 361.949664 524.212262 361.124594 
C 524.199103 360.299524 524.179366 359.474572 524.153052 358.649817 
L 457.658887 360.771324 
C 457.673923 361.242613 457.685202 361.714014 457.692721 362.185482 
C 457.70024 362.656951 457.704 363.128472 457.704 363.6 
L 524.232 363.6 
z
" style="fill: #d62728; stroke: #ffffff; stroke-linejoin: miter"/>
            </g>
            <g id="patch_6">
                <path d="M 524.153052 358.649817
C 523.916126 351.223876 523.146375 343.824517 521.849736 336.508817 
C 520.553096 329.193118 518.732912 321.979938 516.403224 314.92492 
L 453.230414 335.785668 
C 454.561664 339.817107 455.601769 343.938924 456.342706 348.119324 
C 457.083643 352.299724 457.523501 356.527929 457.658887 360.771324 
L 524.153052 358.649817 
z
" style="fill: #9467bd; stroke: #ffffff; stroke-linejoin: miter"/>
            </g>
            <g id="patch_7">
                <path d="M 516.403224 314.92492
C 514.073535 307.869901 511.240348 300.991232 507.925518 294.341974 
C 504.610688 287.692716 500.82276 281.29001 496.590955 275.183248 
L 441.909117 313.076141 
C 444.327292 316.56572 446.491822 320.224409 448.38601 324.023985 
C 450.280199 327.823561 451.899163 331.754229 453.230414 335.785668 
L 516.403224 314.92492 
z
" style="fill: #8c564b; stroke: #ffffff; stroke-linejoin: miter"/>
            </g>
            <g id="patch_8">
                <path d="M 496.590955 275.183248
C 492.829688 269.755502 488.725905 264.573291 484.304626 259.668209 
C 479.883346 254.763127 475.153574 250.145163 470.144145 245.84247 
L 426.796654 296.309983 
C 429.659185 298.768664 432.361912 301.407501 434.888358 304.210405 
C 437.414803 307.013309 439.759822 309.974573 441.909117 313.076141 
L 496.590955 275.183248 
z
" style="fill: #e377c2; stroke: #ffffff; stroke-linejoin: miter"/>
            </g>
            <g id="patch_9">
                <path d="M 470.144145 245.84247
C 466.38763 242.615929 462.478873 239.570987 458.431287 236.718091 
C 454.3837 233.865195 450.201918 231.207612 445.900288 228.75446 
L 412.943022 286.545406 
C 415.401096 287.947207 417.790686 289.465826 420.103592 291.096052 
C 422.416499 292.726278 424.650074 294.466245 426.796654 296.309983 
L 470.144145 245.84247 
z
" style="fill: #7f7f7f; stroke: #ffffff; stroke-linejoin: miter"/>
            </g>
            <g id="patch_10">
                <path d="M 445.900288 228.75446
C 439.446306 225.073856 432.736401 221.861347 425.822334 219.141715 
C 418.908266 216.422082 411.80786 214.202337 404.575887 212.499603 
L 389.329078 277.256916 
C 393.461634 278.229907 397.519009 279.498333 401.469905 281.052408 
C 405.420801 282.606484 409.255032 284.442204 412.943022 286.545406 
L 445.900288 228.75446 
z
" style="fill: #bcbd22; stroke: #ffffff; stroke-linejoin: miter"/>
            </g>
            <g id="patch_11">
                <path d="M 404.575887 212.499603
C 397.343915 210.796868 389.999019 209.615534 382.59786 208.964713 
C 375.1967 208.313892 367.758356 208.195261 360.340207 208.609736 
L 364.051547 275.034135 
C 368.290489 274.797292 372.540972 274.865081 376.770206 275.236979 
C 380.99944 275.608877 385.196523 276.283925 389.329078 277.256916 
L 404.575887 212.499603 
z
" style="fill: #17becf; stroke: #ffffff; stroke-linejoin: miter"/>
            </g>
            <g id="patch_12">
                <path d="M 360.340207 208.609736
C 352.922057 209.024212 345.543226 209.970724 338.260633 211.441973 
C 330.97804 212.913222 323.81046 214.905414 316.813182 217.403181 
L 339.178961 280.058961 
C 343.177406 278.631665 347.273166 277.49327 351.434647 276.652556 
C 355.596129 275.811843 359.812604 275.270978 364.051547 275.034135 
L 360.340207 208.609736 
z
" style="fill: #1f77b4; stroke: #ffffff; stroke-linejoin: miter"/>
            </g>
            <g id="patch_13">
                <path d="M 316.813182 217.403181
C 310.59394 219.623219 304.522692 222.237848 298.636452 225.231127 
C 292.750212 228.224407 287.060967 231.590242 281.603404 235.308111 
L 319.059088 290.290349 
C 322.177696 288.165852 325.428692 286.242518 328.792258 284.532073 
C 332.155824 282.821627 335.625109 281.327554 339.178961 280.058961 
L 316.813182 217.403181 
z
" style="fill: #ff7f0e; stroke: #ffffff; stroke-linejoin: miter"/>
            </g>
            <g id="patch_14">
                <path d="M 281.603404 235.308111
C 276.145841 239.025979 270.931074 243.088312 265.990894 247.47034 
C 261.050715 251.852368 256.395184 256.545169 252.052686 261.520131 
L 302.172964 305.268646 
C 304.654391 302.425811 307.314694 299.74421 310.137654 297.240194 
C 312.960614 294.736178 315.940481 292.414845 319.059088 290.290349 
L 281.603404 235.308111 
z
" style="fill: #2ca02c; stroke: #ffffff; stroke-linejoin: miter"/>
            </g>
            <g id="patch_15">
                <path d="M 252.052686 261.520131
C 247.166936 267.117468 242.689333 273.058352 238.654418 279.296957 
C 234.619503 285.535562 231.037677 292.055804 227.93657 298.807387 
L 288.392326 326.57565 
C 290.164387 322.717603 292.211144 318.99175 294.51681 315.426833 
C 296.822476 311.861916 299.381106 308.467124 302.172964 305.268646 
L 252.052686 261.520131 
z
" style="fill: #d62728; stroke: #ffffff; stroke-linejoin: miter"/>
            </g>
            <g id="patch_16">
                <path d="M 227.93657 298.807387
C 224.835464 305.55897 222.223072 312.524488 220.119545 319.65021 
C 218.016019 326.775931 216.426781 334.043487 215.364092 341.396814 
L 281.208052 350.912465 
C 281.815304 346.710564 282.723439 342.557675 283.925454 338.485834 
C 285.12747 334.413993 286.620265 330.433697 288.392326 326.57565 
L 227.93657 298.807387 
z
" style="fill: #9467bd; stroke: #ffffff; stroke-linejoin: miter"/>
            </g>
            <g id="patch_17">
                <path d="M 215.364092 341.396814
C 214.301402 348.750141 213.768 356.170284 213.768 363.600004 
C 213.768 371.029723 214.301403 378.449866 215.364093 385.803193 
L 281.208053 376.287539 
C 280.600801 372.085638 280.296 367.845556 280.296 363.600002 
C 280.296 359.354448 280.600801 355.114366 281.208052 350.912465 
L 215.364092 341.396814 
z
" style="fill: #8c564b; stroke: #ffffff; stroke-linejoin: miter"/>
            </g>
            <g id="patch_18">
                <path d="M 215.364093 385.803193
C 216.426783 393.15652 218.016021 400.424076 220.119547 407.549797 
C 222.223074 414.675519 224.835467 421.641037 227.936573 428.392619 
L 288.392328 400.624354 
C 286.620267 396.766307 285.127471 392.786011 283.925456 388.71417 
C 282.72344 384.642329 281.815304 380.48944 281.208053 376.287539 
L 215.364093 385.803193 
z
" style="fill: #e377c2; stroke: #ffffff; stroke-linejoin: miter"/>
            </g>
            <g id="patch_19">
                <path d="M 227.936573 428.392619
C 231.03768 435.144202 234.619506 441.664444 238.654422 447.903049 
C 242.689337 454.141654 247.16694 460.082538 252.052691 465.679874 
L 302.172966 421.931357 
C 299.381109 418.732879 296.822478 415.338088 294.516812 411.773171 
C 292.211146 408.208254 290.164389 404.482401 288.392328 400.624354 
L 227.936573 428.392619 
z
" style="fill: #7f7f7f; stroke: #ffffff; stroke-linejoin: miter"/>
            </g>
            <g id="patch_20">
                <path d="M 252.052691 465.679874
C 256.938441 471.27721 262.219744 476.516569 267.85586 481.357533 
C 273.491975 486.198498 279.468373 490.628588 285.738952 494.613632 
L 321.422258 438.464932 
C 317.83907 436.187765 314.423986 433.656284 311.203348 430.890019 
C 307.982711 428.123754 304.964824 425.129835 302.172966 421.931357 
L 252.052691 465.679874 
z
" style="fill: #bcbd22; stroke: #ffffff; stroke-linejoin: miter"/>
            </g>
            <g id="patch_21">
                <path d="M 285.738952 494.613632
C 292.009531 498.598675 298.558126 502.128398 305.334221 505.175571 
C 312.110316 508.222745 319.096443 510.779515 326.23871 512.826157 
L 344.564977 448.87209 
C 340.483681 447.70258 336.491609 446.241569 332.619555 444.500326 
C 328.7475 442.759084 325.005446 440.7421 321.422258 438.464932 
L 285.738952 494.613632 
z
" style="fill: #17becf; stroke: #ffffff; stroke-linejoin: miter"/>
            </g>
            <g id="patch_22">
                <path d="M 326.23871 512.826157
C 333.380978 514.872799 340.660974 516.404038 348.022541 517.408062 
C 355.384108 518.412086 362.808268 518.886307 370.237751 518.827065 
L 369.707286 452.30118 
C 365.461867 452.335032 361.21949 452.064049 357.01288 451.490321 
C 352.806271 450.916593 348.646273 450.0416 344.564977 448.87209 
L 326.23871 512.826157 
z
" style="fill: #1f77b4; stroke: #ffffff; stroke-linejoin: miter"/>
            </g>
            <g id="patch_23">
                <path d="M 370.237751 518.827065
C 376.841142 518.774411 383.434449 518.300446 389.977475 517.40806 
C 396.520501 516.515674 402.999922 515.206684 409.376233 513.489071 
L 392.072133 449.250898 
C 388.428527 450.232391 384.726001 450.980385 380.987129 451.49032 
C 377.248257 452.000255 373.480653 452.271092 369.707286 452.30118 
L 370.237751 518.827065 
z
" style="fill: #ff7f0e; stroke: #ffffff; stroke-linejoin: miter"/>
            </g>
            <g id="patch_24">
                <path d="M 409.376233 513.489071
C 415.752545 511.771458 422.012762 509.648719 428.118719 507.133797 
C 434.224676 504.618875 440.163938 501.71689 445.900294 498.445536 
L 412.943025 440.654592 
C 409.665107 442.523937 406.271243 444.182214 402.782125 445.619313 
C 399.293007 447.056411 395.71574 448.269404 392.072133 449.250898 
L 409.376233 513.489071 
z
" style="fill: #2ca02c; stroke: #ffffff; stroke-linejoin: miter"/>
            </g>
            <g id="patch_25">
                <path d="M 445.900294 498.445536
C 447.333928 497.627957 448.754432 496.787568 450.161265 495.924688 
C 451.568097 495.061808 452.96108 494.176547 454.339681 493.269244 
L 417.765532 437.696711 
C 416.97776 438.21517 416.18177 438.721033 415.377865 439.214107 
C 414.573961 439.707181 413.762244 440.187404 412.943025 440.654592 
L 445.900294 498.445536 
z
" style="fill: #d62728; stroke: #ffffff; stroke-linejoin: miter"/>
            </g>
            <g id="patch_26">
                <path d="M 454.339681 493.269244
C 459.855837 489.638876 465.134721 485.660218 470.14415 481.357525 
C 475.153579 477.054832 479.883351 472.436868 484.304631 467.531785 
L 434.88836 422.989592 
C 432.361915 425.792496 429.659188 428.431333 426.796657 430.890014 
C 423.934126 433.348696 420.917621 435.622215 417.765532 437.696711 
L 454.339681 493.269244 
z
" style="fill: #9467bd; stroke: #ffffff; stroke-linejoin: miter"/>
            </g>
            <g id="patch_27">
                <path d="M 484.304631 467.531785
C 487.620098 463.853519 490.757661 460.018711 493.706553 456.040519 
C 496.655444 452.062327 499.412289 447.945307 501.967627 443.703583 
L 444.981501 409.373476 
C 443.521308 411.797318 441.945968 414.149901 440.260887 416.423154 
C 438.575806 418.696406 436.782913 420.887725 434.88836 422.989592 
L 484.304631 467.531785 
z
" style="fill: #8c564b; stroke: #ffffff; stroke-linejoin: miter"/>
            </g>
            <g id="patch_28">
                <path d="M 501.967627 443.703583
C 505.801547 437.339482 509.173628 430.708335 512.057856 423.861295 
C 514.942084 417.014254 517.331025 409.968972 519.20625 402.779796 
L 454.832143 385.988455 
C 453.760586 390.096556 452.395477 394.122431 450.747346 398.035026 
C 449.099216 401.94762 447.172313 405.736847 444.981501 409.373476 
L 501.967627 443.703583 
z
" style="fill: #e377c2; stroke: #ffffff; stroke-linejoin: miter"/>
            </g>
            <g id="patch_29">
                <path d="M 519.20625 402.779796
C 520.664511 397.18916 521.809513 391.521468 522.635909 385.803182 
C 523.462305 380.084896 523.968808 374.324929 524.153052 368.550176 
L 457.658887 366.428672 
C 457.553605 369.728531 457.264174 373.019941 456.791948 376.287533 
C 456.319722 379.555125 455.665435 382.793806 454.832143 385.988455 
L 519.20625 402.779796 
z
" style="fill: #7f7f7f; stroke: #ffffff; stroke-linejoin: miter"/>
            </g>
            <g id="patch_30">
                <path d="M 524.153052 368.550176
C 524.179366 367.725421 524.199103 366.900469 524.212262 366.075399 
C 524.22542 365.250329 524.232 364.425167 524.232 363.599993 
L 457.704 363.599996 
C 457.704 364.071524 457.70024 364.543045 457.692721 365.014514 
C 457.685202 365.485982 457.673923 365.957383 457.658887 366.428672 
L 524.153052 368.550176 
z
" style="fill: #bcbd22; stroke: #ffffff; stroke-linejoin: miter"/>
            </g>
            <g id="matplotlib.axis_1"/>
            <g id="matplotlib.axis_2"/>
            <g id="text_1">
                <!-- Cardiovascular -->
                <g transform="translate(612.904983 362.469451)scale(0.1 -0.1)">
                    <defs>
                        <path id="DejaVuSans-43" d="M 4122 4306
L 4122 3641 
Q 3803 3938 3442 4084 
Q 3081 4231 2675 4231 
Q 1875 4231 1450 3742 
Q 1025 3253 1025 2328 
Q 1025 1406 1450 917 
Q 1875 428 2675 428 
Q 3081 428 3442 575 
Q 3803 722 4122 1019 
L 4122 359 
Q 3791 134 3420 21 
Q 3050 -91 2638 -91 
Q 1578 -91 968 557 
Q 359 1206 359 2328 
Q 359 3453 968 4101 
Q 1578 4750 2638 4750 
Q 3056 4750 3426 4639 
Q 3797 4528 4122 4306 
z
" transform="scale(0.015625)"/>
                        <path id="DejaVuSans-61" d="M 2194 1759
Q 1497 1759 1228 1600 
Q 959 1441 959 1056 
Q 959 750 1161 570 
Q 1363 391 1709 391 
Q 2188 391 2477 730 
Q 2766 1069 2766 1631 
L 2766 1759 
L 2194 1759 
z
M 3341 1997 
L 3341 0 
L 2766 0 
L 2766 531 
Q 2569 213 2275 61 
Q 1981 -91 1556 -91 
Q 1019 -91 701 211 
Q 384 513 384 1019 
Q 384 1609 779 1909 
Q 1175 2209 1959 2209 
L 2766 2209 
L 2766 2266 
Q 2766 2663 2505 2880 
Q 2244 3097 1772 3097 
Q 1472 3097 1187 3025 
Q 903 2953 641 2809 
L 641 3341 
Q 956 3463 1253 3523 
Q 1550 3584 1831 3584 
Q 2591 3584 2966 3190 
Q 3341 2797 3341 1997 
z
" transform="scale(0.015625)"/>
                        <path id="DejaVuSans-72" d="M 2631 2963
Q 2534 3019 2420 3045 
Q 2306 3072 2169 3072 
Q 1681 3072 1420 2755 
Q 1159 2438 1159 1844 
L 1159 0 
L 581 0 
L 581 3500 
L 1159 3500 
L 1159 2956 
Q 1341 3275 1631 3429 
Q 1922 3584 2338 3584 
Q 2397 3584 2469 3576 
Q 2541 3569 2628 3553 
L 2631 2963 
z
" transform="scale(0.015625)"/>
                        <path id="DejaVuSans-64" d="M 2906 2969
L 2906 4863 
L 3481 4863 
L 3481 0 
L 2906 0 
L 2906 525 
Q 2725 213 2448 61 
Q 2172 -91 1784 -91 
Q 1150 -91 751 415 
Q 353 922 353 1747 
Q 353 2572 751 3078 
Q 1150 3584 1784 3584 
Q 2172 3584 2448 3432 
Q 2725 3281 2906 2969 
z
M 947 1747 
Q 947 1113 1208 752 
Q 1469 391 1925 391 
Q 2381 391 2643 752 
Q 2906 1113 2906 1747 
Q 2906 2381 2643 2742 
Q 2381 3103 1925 3103 
Q 1469 3103 1208 2742 
Q 947 2381 947 1747 
z
" transform="scale(0.015625)"/>
                        <path id="DejaVuSans-69" d="M 603 3500
L 1178 3500 
L 1178 0 
L 603 0 
L 603 3500 
z
M 603 4863 
L 1178 4863 
L 1178 4134 
L 603 4134 
L 603 4863 
z
" transform="scale(0.015625)"/>
                        <path id="DejaVuSans-6f" d="M 1959 3097
Q 1497 3097 1228 2736 
Q 959 2375 959 1747 
Q 959 1119 1226 758 
Q 1494 397 1959 397 
Q 2419 397 2687 759 
Q 2956 1122 2956 1747 
Q 2956 2369 2687 2733 
Q 2419 3097 1959 3097 
z
M 1959 3584 
Q 2709 3584 3137 3096 
Q 3566 2609 3566 1747 
Q 3566 888 3137 398 
Q 2709 -91 1959 -91 
Q 1206 -91 779 398 
Q 353 888 353 1747 
Q 353 2609 779 3096 
Q 1206 3584 1959 3584 
z
" transform="scale(0.015625)"/>
                        <path id="DejaVuSans-76" d="M 191 3500
L 800 3500 
L 1894 563 
L 2988 3500 
L 3597 3500 
L 2284 0 
L 1503 0 
L 191 3500 
z
" transform="scale(0.015625)"/>
                        <path id="DejaVuSans-73" d="M 2834 3397
L 2834 2853 
Q 2591 2978 2328 3040 
Q 2066 3103 1784 3103 
Q 1356 3103 1142 2972 
Q 928 2841 928 2578 
Q 928 2378 1081 2264 
Q 1234 2150 1697 2047 
L 1894 2003 
Q 2506 1872 2764 1633 
Q 3022 1394 3022 966 
Q 3022 478 2636 193 
Q 2250 -91 1575 -91 
Q 1294 -91 989 -36 
Q 684 19 347 128 
L 347 722 
Q 666 556 975 473 
Q 1284 391 1588 391 
Q 1994 391 2212 530 
Q 2431 669 2431 922 
Q 2431 1156 2273 1281 
Q 2116 1406 1581 1522 
L 1381 1569 
Q 847 1681 609 1914 
Q 372 2147 372 2553 
Q 372 3047 722 3315 
Q 1072 3584 1716 3584 
Q 2034 3584 2315 3537 
Q 2597 3491 2834 3397 
z
" transform="scale(0.015625)"/>
                        <path id="DejaVuSans-63" d="M 3122 3366
L 3122 2828 
Q 2878 2963 2633 3030 
Q 2388 3097 2138 3097 
Q 1578 3097 1268 2742 
Q 959 2388 959 1747 
Q 959 1106 1268 751 
Q 1578 397 2138 397 
Q 2388 397 2633 464 
Q 2878 531 3122 666 
L 3122 134 
Q 2881 22 2623 -34 
Q 2366 -91 2075 -91 
Q 1284 -91 818 406 
Q 353 903 353 1747 
Q 353 2603 823 3093 
Q 1294 3584 2113 3584 
Q 2378 3584 2631 3529 
Q 2884 3475 3122 3366 
z
" transform="scale(0.015625)"/>
                        <path id="DejaVuSans-75" d="M 544 1381
L 544 3500 
L 1119 3500 
L 1119 1403 
Q 1119 906 1312 657 
Q 1506 409 1894 409 
Q 2359 409 2629 706 
Q 2900 1003 2900 1516 
L 2900 3500 
L 3475 3500 
L 3475 0 
L 2900 0 
L 2900 538 
Q 2691 219 2414 64 
Q 2138 -91 1772 -91 
Q 1169 -91 856 284 
Q 544 659 544 1381 
z
M 1991 3584 
L 1991 3584 
z
" transform="scale(0.015625)"/>
                        <path id="DejaVuSans-6c" d="M 603 4863
L 1178 4863 
L 1178 0 
L 603 0 
L 603 4863 
z
" transform="scale(0.015625)"/>
                    </defs>
                    <use xlink:href="#DejaVuSans-43"/>
                    <use xlink:href="#DejaVuSans-61" x="69.824219"/>
                    <use xlink:href="#DejaVuSans-72" x="131.103516"/>
                    <use xlink:href="#DejaVuSans-64" x="170.466797"/>
                    <use xlink:href="#DejaVuSans-69" x="233.943359"/>
                    <use xlink:href="#DejaVuSans-6f" x="261.726562"/>
                    <use xlink:href="#DejaVuSans-76" x="322.908203"/>
                    <use xlink:href="#DejaVuSans-61" x="382.087891"/>
                    <use xlink:href="#DejaVuSans-73" x="443.367188"/>
                    <use xlink:href="#DejaVuSans-63" x="495.466797"/>
                    <use xlink:href="#DejaVuSans-75" x="550.447266"/>
                    <use xlink:href="#DejaVuSans-6c" x="613.826172"/>
                    <use xlink:href="#DejaVuSans-61" x="641.609375"/>
                    <use xlink:href="#DejaVuSans-72" x="702.888672"/>
                </g>
            </g>
            <g id="text_2">
                <!-- Immunological -->
                <g transform="translate(51.410875 366.359378)scale(0.1 -0.1)">
                    <defs>
                        <path id="DejaVuSans-49" d="M 628 4666
L 1259 4666 
L 1259 0 
L 628 0 
L 628 4666 
z
" transform="scale(0.015625)"/>
                        <path id="DejaVuSans-6d" d="M 3328 2828
Q 3544 3216 3844 3400 
Q 4144 3584 4550 3584 
Q 5097 3584 5394 3201 
Q 5691 2819 5691 2113 
L 5691 0 
L 5113 0 
L 5113 2094 
Q 5113 2597 4934 2840 
Q 4756 3084 4391 3084 
Q 3944 3084 3684 2787 
Q 3425 2491 3425 1978 
L 3425 0 
L 2847 0 
L 2847 2094 
Q 2847 2600 2669 2842 
Q 2491 3084 2119 3084 
Q 1678 3084 1418 2786 
Q 1159 2488 1159 1978 
L 1159 0 
L 581 0 
L 581 3500 
L 1159 3500 
L 1159 2956 
Q 1356 3278 1631 3431 
Q 1906 3584 2284 3584 
Q 2666 3584 2933 3390 
Q 3200 3197 3328 2828 
z
" transform="scale(0.015625)"/>
                        <path id="DejaVuSans-6e" d="M 3513 2113
L 3513 0 
L 2938 0 
L 2938 2094 
Q 2938 2591 2744 2837 
Q 2550 3084 2163 3084 
Q 1697 3084 1428 2787 
Q 1159 2491 1159 1978 
L 1159 0 
L 581 0 
L 581 3500 
L 1159 3500 
L 1159 2956 
Q 1366 3272 1645 3428 
Q 1925 3584 2291 3584 
Q 2894 3584 3203 3211 
Q 3513 2838 3513 2113 
z
" transform="scale(0.015625)"/>
                        <path id="DejaVuSans-67" d="M 2906 1791
Q 2906 2416 2648 2759 
Q 2391 3103 1925 3103 
Q 1463 3103 1205 2759 
Q 947 2416 947 1791 
Q 947 1169 1205 825 
Q 1463 481 1925 481 
Q 2391 481 2648 825 
Q 2906 1169 2906 1791 
z
M 3481 434 
Q 3481 -459 3084 -895 
Q 2688 -1331 1869 -1331 
Q 1566 -1331 1297 -1286 
Q 1028 -1241 775 -1147 
L 775 -588 
Q 1028 -725 1275 -790 
Q 1522 -856 1778 -856 
Q 2344 -856 2625 -561 
Q 2906 -266 2906 331 
L 2906 616 
Q 2728 306 2450 153 
Q 2172 0 1784 0 
Q 1141 0 747 490 
Q 353 981 353 1791 
Q 353 2603 747 3093 
Q 1141 3584 1784 3584 
Q 2172 3584 2450 3431 
Q 2728 3278 2906 2969 
L 2906 3500 
L 3481 3500 
L 3481 434 
z
" transform="scale(0.015625)"/>
                    </defs>
                    <use xlink:href="#DejaVuSans-49"/>
                    <use xlink:href="#DejaVuSans-6d" x="29.492188"/>
                    <use xlink:href="#DejaVuSans-6d" x="126.904297"/>
                    <use xlink:href="#DejaVuSans-75" x="224.316406"/>
                    <use xlink:href="#DejaVuSans-6e" x="287.695312"/>
                    <use xlink:href="#DejaVuSans-6f" x="351.074219"/>
                    <use xlink:href="#DejaVuSans-6c" x="412.255859"/>
                    <use xlink:href="#DejaVuSans-6f" x="440.039062"/>
                    <use xlink:href="#DejaVuSans-67" x="501.220703"/>
                    <use xlink:href="#DejaVuSans-69" x="564.697266"/>
                    <use xlink:href="#DejaVuSans-63" x="592.480469"/>
                    <use xlink:href="#DejaVuSans-61" x="647.460938"/>
                    <use xlink:href="#DejaVuSans-6c" x="708.740234"/>
                </g>
            </g>
            <g id="text_3">
                <!-- Psychiatric -->
                <g transform="translate(612.904983 370.249293)scale(0.1 -0.1)">
                    <defs>
                        <path id="DejaVuSans-50" d="M 1259 4147
L 1259 2394 
L 2053 2394 
Q 2494 2394 2734 2622 
Q 2975 2850 2975 3272 
Q 2975 3691 2734 3919 
Q 2494 4147 2053 4147 
L 1259 4147 
z
M 628 4666 
L 2053 4666 
Q 2838 4666 3239 4311 
Q 3641 3956 3641 3272 
Q 3641 2581 3239 2228 
Q 2838 1875 2053 1875 
L 1259 1875 
L 1259 0 
L 628 0 
L 628 4666 
z
" transform="scale(0.015625)"/>
                        <path id="DejaVuSans-79" d="M 2059 -325
Q 1816 -950 1584 -1140 
Q 1353 -1331 966 -1331 
L 506 -1331 
L 506 -850 
L 844 -850 
Q 1081 -850 1212 -737 
Q 1344 -625 1503 -206 
L 1606 56 
L 191 3500 
L 800 3500 
L 1894 763 
L 2988 3500 
L 3597 3500 
L 2059 -325 
z
" transform="scale(0.015625)"/>
                        <path id="DejaVuSans-68" d="M 3513 2113
L 3513 0 
L 2938 0 
L 2938 2094 
Q 2938 2591 2744 2837 
Q 2550 3084 2163 3084 
Q 1697 3084 1428 2787 
Q 1159 2491 1159 1978 
L 1159 0 
L 581 0 
L 581 4863 
L 1159 4863 
L 1159 2956 
Q 1366 3272 1645 3428 
Q 1925 3584 2291 3584 
Q 2894 3584 3203 3211 
Q 3513 2838 3513 2113 
z
" transform="scale(0.015625)"/>
                        <path id="DejaVuSans-74" d="M 1172 4494
L 1172 3500 
L 2356 3500 
L 2356 3053 
L 1172 3053 
L 1172 1153 
Q 1172 725 1289 603 
Q 1406 481 1766 481 
L 2356 481 
L 2356 0 
L 1766 0 
Q 1100 0 847 248 
Q 594 497 594 1153 
L 594 3053 
L 172 3053 
L 172 3500 
L 594 3500 
L 594 4494 
L 1172 4494 
z
" transform="scale(0.015625)"/>
                    </defs>
                    <use xlink:href="#DejaVuSans-50"/>
                    <use xlink:href="#DejaVuSans-73" x="58.552734"/>
                    <use xlink:href="#DejaVuSans-79" x="110.652344"/>
                    <use xlink:href="#DejaVuSans-63" x="169.832031"/>
                    <use xlink:href="#DejaVuSans-68" x="224.8125"/>
                    <use xlink:href="#DejaVuSans-69" x="288.191406"/>
                    <use xlink:href="#DejaVuSans-61" x="315.974609"/>
                    <use xlink:href="#DejaVuSans-74" x="377.253906"/>
                    <use xlink:href="#DejaVuSans-72" x="416.462891"/>
                    <use xlink:href="#DejaVuSans-69" x="457.576172"/>
                    <use xlink:href="#DejaVuSans-63" x="485.359375"/>
                </g>
            </g>
            <g id="text_4">
                <!-- Cluster12 -->
                <g transform="translate(340.069687 80.4)scale(0.12 -0.12)">
                    <defs>
                        <path id="DejaVuSans-65" d="M 3597 1894
L 3597 1613 
L 953 1613 
Q 991 1019 1311 708 
Q 1631 397 2203 397 
Q 2534 397 2845 478 
Q 3156 559 3463 722 
L 3463 178 
Q 3153 47 2828 -22 
Q 2503 -91 2169 -91 
Q 1331 -91 842 396 
Q 353 884 353 1716 
Q 353 2575 817 3079 
Q 1281 3584 2069 3584 
Q 2775 3584 3186 3129 
Q 3597 2675 3597 1894 
z
M 3022 2063 
Q 3016 2534 2758 2815 
Q 2500 3097 2075 3097 
Q 1594 3097 1305 2825 
Q 1016 2553 972 2059 
L 3022 2063 
z
" transform="scale(0.015625)"/>
                        <path id="DejaVuSans-31" d="M 794 531
L 1825 531 
L 1825 4091 
L 703 3866 
L 703 4441 
L 1819 4666 
L 2450 4666 
L 2450 531 
L 3481 531 
L 3481 0 
L 794 0 
L 794 531 
z
" transform="scale(0.015625)"/>
                        <path id="DejaVuSans-32" d="M 1228 531
L 3431 531 
L 3431 0 
L 469 0 
L 469 531 
Q 828 903 1448 1529 
Q 2069 2156 2228 2338 
Q 2531 2678 2651 2914 
Q 2772 3150 2772 3378 
Q 2772 3750 2511 3984 
Q 2250 4219 1831 4219 
Q 1534 4219 1204 4116 
Q 875 4013 500 3803 
L 500 4441 
Q 881 4594 1212 4672 
Q 1544 4750 1819 4750 
Q 2544 4750 2975 4387 
Q 3406 4025 3406 3419 
Q 3406 3131 3298 2873 
Q 3191 2616 2906 2266 
Q 2828 2175 2409 1742 
Q 1991 1309 1228 531 
z
" transform="scale(0.015625)"/>
                    </defs>
                    <use xlink:href="#DejaVuSans-43"/>
                    <use xlink:href="#DejaVuSans-6c" x="69.824219"/>
                    <use xlink:href="#DejaVuSans-75" x="97.607422"/>
                    <use xlink:href="#DejaVuSans-73" x="160.986328"/>
                    <use xlink:href="#DejaVuSans-74" x="213.085938"/>
                    <use xlink:href="#DejaVuSans-65" x="252.294922"/>
                    <use xlink:href="#DejaVuSans-72" x="313.818359"/>
                    <use xlink:href="#DejaVuSans-31" x="354.931641"/>
                    <use xlink:href="#DejaVuSans-32" x="418.554688"/>
                </g>
            </g>
        </g>
    </g>
</svg>
