<?xml version="1.0" encoding="utf-8" standalone="no"?>
<!DOCTYPE svg PUBLIC "-//W3C//DTD SVG 1.1//EN"
        "http://www.w3.org/Graphics/SVG/1.1/DTD/svg11.dtd">
<svg xmlns:xlink="http://www.w3.org/1999/xlink" width="2160pt" height="720pt" viewBox="0 0 2160 720"
     xmlns="http://www.w3.org/2000/svg" version="1.1">
    <metadata>
        <rdf:RDF xmlns:dc="http://purl.org/dc/elements/1.1/" xmlns:cc="http://creativecommons.org/ns#"
                 xmlns:rdf="http://www.w3.org/1999/02/22-rdf-syntax-ns#">
            <cc:Work>
                <dc:type rdf:resource="http://purl.org/dc/dcmitype/StillImage"/>
                <dc:date>2022-06-10T17:50:37.407261</dc:date>
                <dc:format>image/svg+xml</dc:format>
                <dc:creator>
                    <cc:Agent>
                        <dc:title>Matplotlib v3.5.1, https://matplotlib.org/</dc:title>
                    </cc:Agent>
                </dc:creator>
            </cc:Work>
        </rdf:RDF>
    </metadata>
    <defs>
        <style type="text/css">*{stroke-linejoin: round; stroke-linecap: butt}</style>
    </defs>
    <g id="figure_1">
        <g id="patch_1">
            <path d="M 0 720
L 2160 720 
L 2160 0 
L 0 0 
z
" style="fill: #ffffff"/>
        </g>
        <g id="axes_1">
            <g id="patch_2">
                <path d="M 270 640.8
L 1944 640.8 
L 1944 86.4 
L 270 86.4 
z
" style="fill: #ffffff"/>
            </g>
            <g id="PolyCollection_1">
                <defs>
                    <path id="mb86fb6a9bb" d="M 778.085787 -210.14881
L 766.314213 -210.14881 
L 765.48218 -211.436124 
L 764.563391 -212.723438 
L 763.553697 -214.010751 
L 762.449476 -215.298065 
L 761.247739 -216.585379 
L 759.94624 -217.872692 
L 758.543572 -219.160006 
L 757.039266 -220.447319 
L 755.433872 -221.734633 
L 753.729018 -223.021947 
L 751.927468 -224.30926 
L 750.033146 -225.596574 
L 748.051141 -226.883888 
L 745.987693 -228.171201 
L 743.850147 -229.458515 
L 741.646892 -230.745829 
L 739.387262 -232.033142 
L 737.08143 -233.320456 
L 734.740273 -234.60777 
L 732.375217 -235.895083 
L 729.998077 -237.182397 
L 727.620882 -238.469711 
L 725.255695 -239.757024 
L 722.914435 -241.044338 
L 720.608702 -242.331652 
L 718.349612 -243.618965 
L 716.147646 -244.906279 
L 714.012515 -246.193593 
L 711.953046 -247.480906 
L 709.977096 -248.76822 
L 708.091485 -250.055533 
L 706.301959 -251.342847 
L 704.61318 -252.630161 
L 703.028738 -253.917474 
L 701.551192 -255.204788 
L 700.182131 -256.492102 
L 698.922254 -257.779415 
L 697.771468 -259.066729 
L 696.728998 -260.354043 
L 695.793507 -261.641356 
L 694.963219 -262.92867 
L 694.236049 -264.215984 
L 693.609728 -265.503297 
L 693.081923 -266.790611 
L 692.650355 -268.077925 
L 692.312894 -269.365238 
L 692.067658 -270.652552 
L 691.913087 -271.939866 
L 691.848 -273.227179 
L 691.871644 -274.514493 
L 691.983713 -275.801807 
L 692.184361 -277.08912 
L 692.474185 -278.376434 
L 692.854193 -279.663748 
L 693.325761 -280.951061 
L 693.89056 -282.238375 
L 694.55048 -283.525688 
L 695.307526 -284.813002 
L 696.163715 -286.100316 
L 697.120957 -287.387629 
L 698.180926 -288.674943 
L 699.344937 -289.962257 
L 700.613815 -291.24957 
L 701.987768 -292.536884 
L 703.466276 -293.824198 
L 705.047984 -295.111511 
L 706.730612 -296.398825 
L 708.510886 -297.686139 
L 710.384491 -298.973452 
L 712.346045 -300.260766 
L 714.389102 -301.54808 
L 716.506182 -302.835393 
L 718.688825 -304.122707 
L 720.927678 -305.410021 
L 723.212597 -306.697334 
L 725.532779 -307.984648 
L 727.876908 -309.271962 
L 730.233319 -310.559275 
L 732.590171 -311.846589 
L 734.93562 -313.133902 
L 737.258008 -314.421216 
L 739.546028 -315.70853 
L 741.788897 -316.995843 
L 743.976503 -318.283157 
L 746.099547 -319.570471 
L 748.149655 -320.857784 
L 750.119474 -322.145098 
L 752.002739 -323.432412 
L 753.794323 -324.719725 
L 755.49025 -326.007039 
L 757.087701 -327.294353 
L 758.584979 -328.581666 
L 759.981467 -329.86898 
L 761.277566 -331.156294 
L 762.474608 -332.443607 
L 763.574773 -333.730921 
L 764.580981 -335.018235 
L 765.496792 -336.305548 
L 766.326293 -337.592862 
L 778.073707 -337.592862 
L 778.073707 -337.592862 
L 778.903208 -336.305548 
L 779.819019 -335.018235 
L 780.825227 -333.730921 
L 781.925392 -332.443607 
L 783.122434 -331.156294 
L 784.418533 -329.86898 
L 785.815021 -328.581666 
L 787.312299 -327.294353 
L 788.90975 -326.007039 
L 790.605677 -324.719725 
L 792.397261 -323.432412 
L 794.280526 -322.145098 
L 796.250345 -320.857784 
L 798.300453 -319.570471 
L 800.423497 -318.283157 
L 802.611103 -316.995843 
L 804.853972 -315.70853 
L 807.141992 -314.421216 
L 809.46438 -313.133902 
L 811.809829 -311.846589 
L 814.166681 -310.559275 
L 816.523092 -309.271962 
L 818.867221 -307.984648 
L 821.187403 -306.697334 
L 823.472322 -305.410021 
L 825.711175 -304.122707 
L 827.893818 -302.835393 
L 830.010898 -301.54808 
L 832.053955 -300.260766 
L 834.015509 -298.973452 
L 835.889114 -297.686139 
L 837.669388 -296.398825 
L 839.352016 -295.111511 
L 840.933724 -293.824198 
L 842.412232 -292.536884 
L 843.786185 -291.24957 
L 845.055063 -289.962257 
L 846.219074 -288.674943 
L 847.279043 -287.387629 
L 848.236285 -286.100316 
L 849.092474 -284.813002 
L 849.84952 -283.525688 
L 850.50944 -282.238375 
L 851.074239 -280.951061 
L 851.545807 -279.663748 
L 851.925815 -278.376434 
L 852.215639 -277.08912 
L 852.416287 -275.801807 
L 852.528356 -274.514493 
L 852.552 -273.227179 
L 852.486913 -271.939866 
L 852.332342 -270.652552 
L 852.087106 -269.365238 
L 851.749645 -268.077925 
L 851.318077 -266.790611 
L 850.790272 -265.503297 
L 850.163951 -264.215984 
L 849.436781 -262.92867 
L 848.606493 -261.641356 
L 847.671002 -260.354043 
L 846.628532 -259.066729 
L 845.477746 -257.779415 
L 844.217869 -256.492102 
L 842.848808 -255.204788 
L 841.371262 -253.917474 
L 839.78682 -252.630161 
L 838.098041 -251.342847 
L 836.308515 -250.055533 
L 834.422904 -248.76822 
L 832.446954 -247.480906 
L 830.387485 -246.193593 
L 828.252354 -244.906279 
L 826.050388 -243.618965 
L 823.791298 -242.331652 
L 821.485565 -241.044338 
L 819.144305 -239.757024 
L 816.779118 -238.469711 
L 814.401923 -237.182397 
L 812.024783 -235.895083 
L 809.659727 -234.60777 
L 807.31857 -233.320456 
L 805.012738 -232.033142 
L 802.753108 -230.745829 
L 800.549853 -229.458515 
L 798.412307 -228.171201 
L 796.348859 -226.883888 
L 794.366854 -225.596574 
L 792.472532 -224.30926 
L 790.670982 -223.021947 
L 788.966128 -221.734633 
L 787.360734 -220.447319 
L 785.856428 -219.160006 
L 784.45376 -217.872692 
L 783.152261 -216.585379 
L 781.950524 -215.298065 
L 780.846303 -214.010751 
L 779.836609 -212.723438 
L 778.91782 -211.436124 
L 778.085787 -210.14881 
z
" style="stroke: #595959; stroke-width: 1.5"/>
                </defs>
                <g clip-path="url(#p89da72ef8c)">
                    <use xlink:href="#mb86fb6a9bb" x="0" y="720"
                         style="fill: #e99675; stroke: #595959; stroke-width: 1.5"/>
                </g>
            </g>
            <g id="PolyCollection_2">
                <defs>
                    <path id="m3805b67f52" d="M 1112.094385 -331.106517
L 1101.905615 -331.106517 
L 1101.296138 -331.444722 
L 1100.63372 -331.782927 
L 1099.916537 -332.121133 
L 1099.143066 -332.459338 
L 1098.312143 -332.797543 
L 1097.423001 -333.135749 
L 1096.475321 -333.473954 
L 1095.469267 -333.812159 
L 1094.405522 -334.150365 
L 1093.285319 -334.48857 
L 1092.110461 -334.826775 
L 1090.883336 -335.164981 
L 1089.60692 -335.503186 
L 1088.284769 -335.841392 
L 1086.921009 -336.179597 
L 1085.520305 -336.517802 
L 1084.087821 -336.856008 
L 1082.629179 -337.194213 
L 1081.150395 -337.532418 
L 1079.657813 -337.870624 
L 1078.158031 -338.208829 
L 1076.657819 -338.547034 
L 1075.164031 -338.88524 
L 1073.683516 -339.223445 
L 1072.223028 -339.561651 
L 1070.789134 -339.899856 
L 1069.38813 -340.238061 
L 1068.02596 -340.576267 
L 1066.70814 -340.914472 
L 1065.439699 -341.252677 
L 1064.225125 -341.590883 
L 1063.068322 -341.929088 
L 1061.972592 -342.267293 
L 1060.940617 -342.605499 
L 1059.974466 -342.943704 
L 1059.075616 -343.28191 
L 1058.244978 -343.620115 
L 1057.482952 -343.95832 
L 1056.789476 -344.296526 
L 1056.164098 -344.634731 
L 1055.60605 -344.972936 
L 1055.114324 -345.311142 
L 1054.687761 -345.649347 
L 1054.325127 -345.987552 
L 1054.025194 -346.325758 
L 1053.786814 -346.663963 
L 1053.608983 -347.002169 
L 1053.490898 -347.340374 
L 1053.432 -347.678579 
L 1053.432 -348.016785 
L 1053.490898 -348.35499 
L 1053.608983 -348.693195 
L 1053.786814 -349.031401 
L 1054.025194 -349.369606 
L 1054.325127 -349.707811 
L 1054.687761 -350.046017 
L 1055.114324 -350.384222 
L 1055.60605 -350.722428 
L 1056.164098 -351.060633 
L 1056.789476 -351.398838 
L 1057.482952 -351.737044 
L 1058.244978 -352.075249 
L 1059.075616 -352.413454 
L 1059.974466 -352.75166 
L 1060.940617 -353.089865 
L 1061.972592 -353.42807 
L 1063.068322 -353.766276 
L 1064.225125 -354.104481 
L 1065.439699 -354.442686 
L 1066.70814 -354.780892 
L 1068.02596 -355.119097 
L 1069.38813 -355.457303 
L 1070.789134 -355.795508 
L 1072.223028 -356.133713 
L 1073.683516 -356.471919 
L 1075.164031 -356.810124 
L 1076.657819 -357.148329 
L 1078.158031 -357.486535 
L 1079.657813 -357.82474 
L 1081.150395 -358.162945 
L 1082.629179 -358.501151 
L 1084.087821 -358.839356 
L 1085.520305 -359.177562 
L 1086.921009 -359.515767 
L 1088.284769 -359.853972 
L 1089.60692 -360.192178 
L 1090.883336 -360.530383 
L 1092.110461 -360.868588 
L 1093.285319 -361.206794 
L 1094.405522 -361.544999 
L 1095.469267 -361.883204 
L 1096.475321 -362.22141 
L 1097.423001 -362.559615 
L 1098.312143 -362.897821 
L 1099.143066 -363.236026 
L 1099.916537 -363.574231 
L 1100.63372 -363.912437 
L 1101.296138 -364.250642 
L 1101.905615 -364.588847 
L 1112.094385 -364.588847 
L 1112.094385 -364.588847 
L 1112.703862 -364.250642 
L 1113.36628 -363.912437 
L 1114.083463 -363.574231 
L 1114.856934 -363.236026 
L 1115.687857 -362.897821 
L 1116.576999 -362.559615 
L 1117.524679 -362.22141 
L 1118.530733 -361.883204 
L 1119.594478 -361.544999 
L 1120.714681 -361.206794 
L 1121.889539 -360.868588 
L 1123.116664 -360.530383 
L 1124.39308 -360.192178 
L 1125.715231 -359.853972 
L 1127.078991 -359.515767 
L 1128.479695 -359.177562 
L 1129.912179 -358.839356 
L 1131.370821 -358.501151 
L 1132.849605 -358.162945 
L 1134.342187 -357.82474 
L 1135.841969 -357.486535 
L 1137.342181 -357.148329 
L 1138.835969 -356.810124 
L 1140.316484 -356.471919 
L 1141.776972 -356.133713 
L 1143.210866 -355.795508 
L 1144.61187 -355.457303 
L 1145.97404 -355.119097 
L 1147.29186 -354.780892 
L 1148.560301 -354.442686 
L 1149.774875 -354.104481 
L 1150.931678 -353.766276 
L 1152.027408 -353.42807 
L 1153.059383 -353.089865 
L 1154.025534 -352.75166 
L 1154.924384 -352.413454 
L 1155.755022 -352.075249 
L 1156.517048 -351.737044 
L 1157.210524 -351.398838 
L 1157.835902 -351.060633 
L 1158.39395 -350.722428 
L 1158.885676 -350.384222 
L 1159.312239 -350.046017 
L 1159.674873 -349.707811 
L 1159.974806 -349.369606 
L 1160.213186 -349.031401 
L 1160.391017 -348.693195 
L 1160.509102 -348.35499 
L 1160.568 -348.016785 
L 1160.568 -347.678579 
L 1160.509102 -347.340374 
L 1160.391017 -347.002169 
L 1160.213186 -346.663963 
L 1159.974806 -346.325758 
L 1159.674873 -345.987552 
L 1159.312239 -345.649347 
L 1158.885676 -345.311142 
L 1158.39395 -344.972936 
L 1157.835902 -344.634731 
L 1157.210524 -344.296526 
L 1156.517048 -343.95832 
L 1155.755022 -343.620115 
L 1154.924384 -343.28191 
L 1154.025534 -342.943704 
L 1153.059383 -342.605499 
L 1152.027408 -342.267293 
L 1150.931678 -341.929088 
L 1149.774875 -341.590883 
L 1148.560301 -341.252677 
L 1147.29186 -340.914472 
L 1145.97404 -340.576267 
L 1144.61187 -340.238061 
L 1143.210866 -339.899856 
L 1141.776972 -339.561651 
L 1140.316484 -339.223445 
L 1138.835969 -338.88524 
L 1137.342181 -338.547034 
L 1135.841969 -338.208829 
L 1134.342187 -337.870624 
L 1132.849605 -337.532418 
L 1131.370821 -337.194213 
L 1129.912179 -336.856008 
L 1128.479695 -336.517802 
L 1127.078991 -336.179597 
L 1125.715231 -335.841392 
L 1124.39308 -335.503186 
L 1123.116664 -335.164981 
L 1121.889539 -334.826775 
L 1120.714681 -334.48857 
L 1119.594478 -334.150365 
L 1118.530733 -333.812159 
L 1117.524679 -333.473954 
L 1116.576999 -333.135749 
L 1115.687857 -332.797543 
L 1114.856934 -332.459338 
L 1114.083463 -332.121133 
L 1113.36628 -331.782927 
L 1112.703862 -331.444722 
L 1112.094385 -331.106517 
z
" style="stroke: #595959; stroke-width: 1.5"/>
                </defs>
                <g clip-path="url(#p89da72ef8c)">
                    <use xlink:href="#m3805b67f52" x="0" y="720"
                         style="fill: #95a3c3; stroke: #595959; stroke-width: 1.5"/>
                </g>
            </g>
            <g id="PolyCollection_3">
                <defs>
                    <path id="m83525ec59b" d="M 1453.137155 -104.4
L 1430.462845 -104.4 
L 1428.634156 -109.490909 
L 1426.588447 -114.581818 
L 1424.314249 -119.672727 
L 1421.801968 -124.763636 
L 1419.044337 -129.854545 
L 1416.03686 -134.945455 
L 1412.77823 -140.036364 
L 1409.270715 -145.127273 
L 1405.520485 -150.218182 
L 1401.537864 -155.309091 
L 1397.337491 -160.4 
L 1392.938378 -165.490909 
L 1388.363846 -170.581818 
L 1383.641337 -175.672727 
L 1378.802092 -180.763636 
L 1373.880697 -185.854545 
L 1368.914506 -190.945455 
L 1363.942948 -196.036364 
L 1359.006733 -201.127273 
L 1354.146982 -206.218182 
L 1349.404308 -211.309091 
L 1344.817875 -216.4 
L 1340.424461 -221.490909 
L 1336.257573 -226.581818 
L 1332.346629 -231.672727 
L 1328.716252 -236.763636 
L 1325.385691 -241.854545 
L 1322.368407 -246.945455 
L 1319.671822 -252.036364 
L 1317.297259 -257.127273 
L 1315.240065 -262.218182 
L 1313.489919 -267.309091 
L 1312.03131 -272.4 
L 1310.844169 -277.490909 
L 1309.904635 -282.581818 
L 1309.185916 -287.672727 
L 1308.659221 -292.763636 
L 1308.294738 -297.854545 
L 1308.062595 -302.945455 
L 1307.933811 -308.036364 
L 1307.881167 -313.127273 
L 1307.88 -318.218182 
L 1307.908878 -323.309091 
L 1307.950154 -328.4 
L 1307.990371 -333.490909 
L 1308.020528 -338.581818 
L 1308.036197 -343.672727 
L 1308.037495 -348.763636 
L 1308.02893 -353.854545 
L 1308.019117 -358.945455 
L 1308.0204 -364.036364 
L 1308.048377 -369.127273 
L 1308.121359 -374.218182 
L 1308.259783 -379.309091 
L 1308.485581 -384.4 
L 1308.821544 -389.490909 
L 1309.290684 -394.581818 
L 1309.915602 -399.672727 
L 1310.717901 -404.763636 
L 1311.717617 -409.854545 
L 1312.932717 -414.945455 
L 1314.378635 -420.036364 
L 1316.067888 -425.127273 
L 1318.009745 -430.218182 
L 1320.209975 -435.309091 
L 1322.67067 -440.4 
L 1325.390142 -445.490909 
L 1328.362902 -450.581818 
L 1331.579709 -455.672727 
L 1335.027706 -460.763636 
L 1338.690617 -465.854545 
L 1342.549022 -470.945455 
L 1346.580688 -476.036364 
L 1350.760962 -481.127273 
L 1355.063205 -486.218182 
L 1359.459264 -491.309091 
L 1363.919972 -496.4 
L 1368.415659 -501.490909 
L 1372.916661 -506.581818 
L 1377.393829 -511.672727 
L 1381.818998 -516.763636 
L 1386.165438 -521.854545 
L 1390.408247 -526.945455 
L 1394.5247 -532.036364 
L 1398.494529 -537.127273 
L 1402.300147 -542.218182 
L 1405.926797 -547.309091 
L 1409.362636 -552.4 
L 1412.598748 -557.490909 
L 1415.6291 -562.581818 
L 1418.450436 -567.672727 
L 1421.062119 -572.763636 
L 1423.46593 -577.854545 
L 1425.665832 -582.945455 
L 1427.667714 -588.036364 
L 1429.479107 -593.127273 
L 1431.1089 -598.218182 
L 1432.567056 -603.309091 
L 1433.864333 -608.4 
L 1449.735667 -608.4 
L 1449.735667 -608.4 
L 1451.032944 -603.309091 
L 1452.4911 -598.218182 
L 1454.120893 -593.127273 
L 1455.932286 -588.036364 
L 1457.934168 -582.945455 
L 1460.13407 -577.854545 
L 1462.537881 -572.763636 
L 1465.149564 -567.672727 
L 1467.9709 -562.581818 
L 1471.001252 -557.490909 
L 1474.237364 -552.4 
L 1477.673203 -547.309091 
L 1481.299853 -542.218182 
L 1485.105471 -537.127273 
L 1489.0753 -532.036364 
L 1493.191753 -526.945455 
L 1497.434562 -521.854545 
L 1501.781002 -516.763636 
L 1506.206171 -511.672727 
L 1510.683339 -506.581818 
L 1515.184341 -501.490909 
L 1519.680028 -496.4 
L 1524.140736 -491.309091 
L 1528.536795 -486.218182 
L 1532.839038 -481.127273 
L 1537.019312 -476.036364 
L 1541.050978 -470.945455 
L 1544.909383 -465.854545 
L 1548.572294 -460.763636 
L 1552.020291 -455.672727 
L 1555.237098 -450.581818 
L 1558.209858 -445.490909 
L 1560.92933 -440.4 
L 1563.390025 -435.309091 
L 1565.590255 -430.218182 
L 1567.532112 -425.127273 
L 1569.221365 -420.036364 
L 1570.667283 -414.945455 
L 1571.882383 -409.854545 
L 1572.882099 -404.763636 
L 1573.684398 -399.672727 
L 1574.309316 -394.581818 
L 1574.778456 -389.490909 
L 1575.114419 -384.4 
L 1575.340217 -379.309091 
L 1575.478641 -374.218182 
L 1575.551623 -369.127273 
L 1575.5796 -364.036364 
L 1575.580883 -358.945455 
L 1575.57107 -353.854545 
L 1575.562505 -348.763636 
L 1575.563803 -343.672727 
L 1575.579472 -338.581818 
L 1575.609629 -333.490909 
L 1575.649846 -328.4 
L 1575.691122 -323.309091 
L 1575.72 -318.218182 
L 1575.718833 -313.127273 
L 1575.666189 -308.036364 
L 1575.537405 -302.945455 
L 1575.305262 -297.854545 
L 1574.940779 -292.763636 
L 1574.414084 -287.672727 
L 1573.695365 -282.581818 
L 1572.755831 -277.490909 
L 1571.56869 -272.4 
L 1570.110081 -267.309091 
L 1568.359935 -262.218182 
L 1566.302741 -257.127273 
L 1563.928178 -252.036364 
L 1561.231593 -246.945455 
L 1558.214309 -241.854545 
L 1554.883748 -236.763636 
L 1551.253371 -231.672727 
L 1547.342427 -226.581818 
L 1543.175539 -221.490909 
L 1538.782125 -216.4 
L 1534.195692 -211.309091 
L 1529.453018 -206.218182 
L 1524.593267 -201.127273 
L 1519.657052 -196.036364 
L 1514.685494 -190.945455 
L 1509.719303 -185.854545 
L 1504.797908 -180.763636 
L 1499.958663 -175.672727 
L 1495.236154 -170.581818 
L 1490.661622 -165.490909 
L 1486.262509 -160.4 
L 1482.062136 -155.309091 
L 1478.079515 -150.218182 
L 1474.329285 -145.127273 
L 1470.82177 -140.036364 
L 1467.56314 -134.945455 
L 1464.555663 -129.854545 
L 1461.798032 -124.763636 
L 1459.285751 -119.672727 
L 1457.011553 -114.581818 
L 1454.965844 -109.490909 
L 1453.137155 -104.4 
z
" style="stroke: #595959; stroke-width: 1.5"/>
                </defs>
                <g clip-path="url(#p89da72ef8c)">
                    <use xlink:href="#m83525ec59b" x="0" y="720"
                         style="fill: #db96c0; stroke: #595959; stroke-width: 1.5"/>
                </g>
            </g>
            <g id="PolyCollection_4">
                <defs>
                    <path id="m2b217a7dad" d="M 1781.694385 -200.510237
L 1771.505615 -200.510237 
L 1770.896138 -202.058989 
L 1770.23372 -203.60774 
L 1769.516537 -205.156492 
L 1768.743066 -206.705244 
L 1767.912143 -208.253995 
L 1767.023001 -209.802747 
L 1766.075321 -211.351499 
L 1765.069267 -212.90025 
L 1764.005522 -214.449002 
L 1762.885319 -215.997754 
L 1761.710461 -217.546505 
L 1760.483336 -219.095257 
L 1759.20692 -220.644009 
L 1757.884769 -222.19276 
L 1756.521009 -223.741512 
L 1755.120305 -225.290264 
L 1753.687821 -226.839015 
L 1752.229179 -228.387767 
L 1750.750395 -229.936519 
L 1749.257813 -231.48527 
L 1747.758031 -233.034022 
L 1746.257819 -234.582774 
L 1744.764031 -236.131525 
L 1743.283516 -237.680277 
L 1741.823028 -239.229029 
L 1740.389134 -240.77778 
L 1738.98813 -242.326532 
L 1737.62596 -243.875284 
L 1736.30814 -245.424035 
L 1735.039699 -246.972787 
L 1733.825125 -248.521539 
L 1732.668322 -250.07029 
L 1731.572592 -251.619042 
L 1730.540617 -253.167794 
L 1729.574466 -254.716545 
L 1728.675616 -256.265297 
L 1727.844978 -257.814049 
L 1727.082952 -259.3628 
L 1726.389476 -260.911552 
L 1725.764098 -262.460304 
L 1725.20605 -264.009055 
L 1724.714324 -265.557807 
L 1724.287761 -267.106559 
L 1723.925127 -268.65531 
L 1723.625194 -270.204062 
L 1723.386814 -271.752814 
L 1723.208983 -273.301565 
L 1723.090898 -274.850317 
L 1723.032 -276.399069 
L 1723.032 -277.94782 
L 1723.090898 -279.496572 
L 1723.208983 -281.045324 
L 1723.386814 -282.594075 
L 1723.625194 -284.142827 
L 1723.925127 -285.691579 
L 1724.287761 -287.24033 
L 1724.714324 -288.789082 
L 1725.20605 -290.337834 
L 1725.764098 -291.886585 
L 1726.389476 -293.435337 
L 1727.082952 -294.984089 
L 1727.844978 -296.53284 
L 1728.675616 -298.081592 
L 1729.574466 -299.630344 
L 1730.540617 -301.179095 
L 1731.572592 -302.727847 
L 1732.668322 -304.276599 
L 1733.825125 -305.82535 
L 1735.039699 -307.374102 
L 1736.30814 -308.922854 
L 1737.62596 -310.471605 
L 1738.98813 -312.020357 
L 1740.389134 -313.569109 
L 1741.823028 -315.11786 
L 1743.283516 -316.666612 
L 1744.764031 -318.215364 
L 1746.257819 -319.764115 
L 1747.758031 -321.312867 
L 1749.257813 -322.861619 
L 1750.750395 -324.41037 
L 1752.229179 -325.959122 
L 1753.687821 -327.507874 
L 1755.120305 -329.056625 
L 1756.521009 -330.605377 
L 1757.884769 -332.154129 
L 1759.20692 -333.70288 
L 1760.483336 -335.251632 
L 1761.710461 -336.800384 
L 1762.885319 -338.349135 
L 1764.005522 -339.897887 
L 1765.069267 -341.446639 
L 1766.075321 -342.99539 
L 1767.023001 -344.544142 
L 1767.912143 -346.092894 
L 1768.743066 -347.641645 
L 1769.516537 -349.190397 
L 1770.23372 -350.739149 
L 1770.896138 -352.2879 
L 1771.505615 -353.836652 
L 1781.694385 -353.836652 
L 1781.694385 -353.836652 
L 1782.303862 -352.2879 
L 1782.96628 -350.739149 
L 1783.683463 -349.190397 
L 1784.456934 -347.641645 
L 1785.287857 -346.092894 
L 1786.176999 -344.544142 
L 1787.124679 -342.99539 
L 1788.130733 -341.446639 
L 1789.194478 -339.897887 
L 1790.314681 -338.349135 
L 1791.489539 -336.800384 
L 1792.716664 -335.251632 
L 1793.99308 -333.70288 
L 1795.315231 -332.154129 
L 1796.678991 -330.605377 
L 1798.079695 -329.056625 
L 1799.512179 -327.507874 
L 1800.970821 -325.959122 
L 1802.449605 -324.41037 
L 1803.942187 -322.861619 
L 1805.441969 -321.312867 
L 1806.942181 -319.764115 
L 1808.435969 -318.215364 
L 1809.916484 -316.666612 
L 1811.376972 -315.11786 
L 1812.810866 -313.569109 
L 1814.21187 -312.020357 
L 1815.57404 -310.471605 
L 1816.89186 -308.922854 
L 1818.160301 -307.374102 
L 1819.374875 -305.82535 
L 1820.531678 -304.276599 
L 1821.627408 -302.727847 
L 1822.659383 -301.179095 
L 1823.625534 -299.630344 
L 1824.524384 -298.081592 
L 1825.355022 -296.53284 
L 1826.117048 -294.984089 
L 1826.810524 -293.435337 
L 1827.435902 -291.886585 
L 1827.99395 -290.337834 
L 1828.485676 -288.789082 
L 1828.912239 -287.24033 
L 1829.274873 -285.691579 
L 1829.574806 -284.142827 
L 1829.813186 -282.594075 
L 1829.991017 -281.045324 
L 1830.109102 -279.496572 
L 1830.168 -277.94782 
L 1830.168 -276.399069 
L 1830.109102 -274.850317 
L 1829.991017 -273.301565 
L 1829.813186 -271.752814 
L 1829.574806 -270.204062 
L 1829.274873 -268.65531 
L 1828.912239 -267.106559 
L 1828.485676 -265.557807 
L 1827.99395 -264.009055 
L 1827.435902 -262.460304 
L 1826.810524 -260.911552 
L 1826.117048 -259.3628 
L 1825.355022 -257.814049 
L 1824.524384 -256.265297 
L 1823.625534 -254.716545 
L 1822.659383 -253.167794 
L 1821.627408 -251.619042 
L 1820.531678 -250.07029 
L 1819.374875 -248.521539 
L 1818.160301 -246.972787 
L 1816.89186 -245.424035 
L 1815.57404 -243.875284 
L 1814.21187 -242.326532 
L 1812.810866 -240.77778 
L 1811.376972 -239.229029 
L 1809.916484 -237.680277 
L 1808.435969 -236.131525 
L 1806.942181 -234.582774 
L 1805.441969 -233.034022 
L 1803.942187 -231.48527 
L 1802.449605 -229.936519 
L 1800.970821 -228.387767 
L 1799.512179 -226.839015 
L 1798.079695 -225.290264 
L 1796.678991 -223.741512 
L 1795.315231 -222.19276 
L 1793.99308 -220.644009 
L 1792.716664 -219.095257 
L 1791.489539 -217.546505 
L 1790.314681 -215.997754 
L 1789.194478 -214.449002 
L 1788.130733 -212.90025 
L 1787.124679 -211.351499 
L 1786.176999 -209.802747 
L 1785.287857 -208.253995 
L 1784.456934 -206.705244 
L 1783.683463 -205.156492 
L 1782.96628 -203.60774 
L 1782.303862 -202.058989 
L 1781.694385 -200.510237 
z
" style="stroke: #595959; stroke-width: 1.5"/>
                </defs>
                <g clip-path="url(#p89da72ef8c)">
                    <use xlink:href="#m2b217a7dad" x="0" y="720"
                         style="fill: #a2c865; stroke: #595959; stroke-width: 1.5"/>
                </g>
            </g>
            <g id="matplotlib.axis_1">
                <g id="xtick_1">
                    <g id="line2d_1">
                        <defs>
                            <path id="m910a522575" d="M 0 0
L 0 3.5 
" style="stroke: #000000; stroke-width: 0.8"/>
                        </defs>
                        <g>
                            <use xlink:href="#m910a522575" x="437.4" y="640.8"
                                 style="stroke: #000000; stroke-width: 0.8"/>
                        </g>
                    </g>
                    <g id="text_1">
                        <!-- 1 -->
                        <g transform="translate(431.0375 662.996875)scale(0.2 -0.2)">
                            <defs>
                                <path id="DejaVuSans-31" d="M 794 531
L 1825 531 
L 1825 4091 
L 703 3866 
L 703 4441 
L 1819 4666 
L 2450 4666 
L 2450 531 
L 3481 531 
L 3481 0 
L 794 0 
L 794 531 
z
" transform="scale(0.015625)"/>
                            </defs>
                            <use xlink:href="#DejaVuSans-31"/>
                        </g>
                    </g>
                </g>
                <g id="xtick_2">
                    <g id="line2d_2">
                        <g>
                            <use xlink:href="#m910a522575" x="772.2" y="640.8"
                                 style="stroke: #000000; stroke-width: 0.8"/>
                        </g>
                    </g>
                    <g id="text_2">
                        <!-- 2 -->
                        <g transform="translate(765.8375 662.996875)scale(0.2 -0.2)">
                            <defs>
                                <path id="DejaVuSans-32" d="M 1228 531
L 3431 531 
L 3431 0 
L 469 0 
L 469 531 
Q 828 903 1448 1529 
Q 2069 2156 2228 2338 
Q 2531 2678 2651 2914 
Q 2772 3150 2772 3378 
Q 2772 3750 2511 3984 
Q 2250 4219 1831 4219 
Q 1534 4219 1204 4116 
Q 875 4013 500 3803 
L 500 4441 
Q 881 4594 1212 4672 
Q 1544 4750 1819 4750 
Q 2544 4750 2975 4387 
Q 3406 4025 3406 3419 
Q 3406 3131 3298 2873 
Q 3191 2616 2906 2266 
Q 2828 2175 2409 1742 
Q 1991 1309 1228 531 
z
" transform="scale(0.015625)"/>
                            </defs>
                            <use xlink:href="#DejaVuSans-32"/>
                        </g>
                    </g>
                </g>
                <g id="xtick_3">
                    <g id="line2d_3">
                        <g>
                            <use xlink:href="#m910a522575" x="1107" y="640.8"
                                 style="stroke: #000000; stroke-width: 0.8"/>
                        </g>
                    </g>
                    <g id="text_3">
                        <!-- 4 -->
                        <g transform="translate(1100.6375 662.996875)scale(0.2 -0.2)">
                            <defs>
                                <path id="DejaVuSans-34" d="M 2419 4116
L 825 1625 
L 2419 1625 
L 2419 4116 
z
M 2253 4666 
L 3047 4666 
L 3047 1625 
L 3713 1625 
L 3713 1100 
L 3047 1100 
L 3047 0 
L 2419 0 
L 2419 1100 
L 313 1100 
L 313 1709 
L 2253 4666 
z
" transform="scale(0.015625)"/>
                            </defs>
                            <use xlink:href="#DejaVuSans-34"/>
                        </g>
                    </g>
                </g>
                <g id="xtick_4">
                    <g id="line2d_4">
                        <g>
                            <use xlink:href="#m910a522575" x="1441.8" y="640.8"
                                 style="stroke: #000000; stroke-width: 0.8"/>
                        </g>
                    </g>
                    <g id="text_4">
                        <!-- 5 -->
                        <g transform="translate(1435.4375 662.996875)scale(0.2 -0.2)">
                            <defs>
                                <path id="DejaVuSans-35" d="M 691 4666
L 3169 4666 
L 3169 4134 
L 1269 4134 
L 1269 2991 
Q 1406 3038 1543 3061 
Q 1681 3084 1819 3084 
Q 2600 3084 3056 2656 
Q 3513 2228 3513 1497 
Q 3513 744 3044 326 
Q 2575 -91 1722 -91 
Q 1428 -91 1123 -41 
Q 819 9 494 109 
L 494 744 
Q 775 591 1075 516 
Q 1375 441 1709 441 
Q 2250 441 2565 725 
Q 2881 1009 2881 1497 
Q 2881 1984 2565 2268 
Q 2250 2553 1709 2553 
Q 1456 2553 1204 2497 
Q 953 2441 691 2322 
L 691 4666 
z
" transform="scale(0.015625)"/>
                            </defs>
                            <use xlink:href="#DejaVuSans-35"/>
                        </g>
                    </g>
                </g>
                <g id="xtick_5">
                    <g id="line2d_5">
                        <g>
                            <use xlink:href="#m910a522575" x="1776.6" y="640.8"
                                 style="stroke: #000000; stroke-width: 0.8"/>
                        </g>
                    </g>
                    <g id="text_5">
                        <!-- 6 -->
                        <g transform="translate(1770.2375 662.996875)scale(0.2 -0.2)">
                            <defs>
                                <path id="DejaVuSans-36" d="M 2113 2584
Q 1688 2584 1439 2293 
Q 1191 2003 1191 1497 
Q 1191 994 1439 701 
Q 1688 409 2113 409 
Q 2538 409 2786 701 
Q 3034 994 3034 1497 
Q 3034 2003 2786 2293 
Q 2538 2584 2113 2584 
z
M 3366 4563 
L 3366 3988 
Q 3128 4100 2886 4159 
Q 2644 4219 2406 4219 
Q 1781 4219 1451 3797 
Q 1122 3375 1075 2522 
Q 1259 2794 1537 2939 
Q 1816 3084 2150 3084 
Q 2853 3084 3261 2657 
Q 3669 2231 3669 1497 
Q 3669 778 3244 343 
Q 2819 -91 2113 -91 
Q 1303 -91 875 529 
Q 447 1150 447 2328 
Q 447 3434 972 4092 
Q 1497 4750 2381 4750 
Q 2619 4750 2861 4703 
Q 3103 4656 3366 4563 
z
" transform="scale(0.015625)"/>
                            </defs>
                            <use xlink:href="#DejaVuSans-36"/>
                        </g>
                    </g>
                </g>
                <g id="text_6">
                    <!-- cluster -->
                    <g transform="translate(1072.992188 686.353125)scale(0.2 -0.2)">
                        <defs>
                            <path id="DejaVuSans-63" d="M 3122 3366
L 3122 2828 
Q 2878 2963 2633 3030 
Q 2388 3097 2138 3097 
Q 1578 3097 1268 2742 
Q 959 2388 959 1747 
Q 959 1106 1268 751 
Q 1578 397 2138 397 
Q 2388 397 2633 464 
Q 2878 531 3122 666 
L 3122 134 
Q 2881 22 2623 -34 
Q 2366 -91 2075 -91 
Q 1284 -91 818 406 
Q 353 903 353 1747 
Q 353 2603 823 3093 
Q 1294 3584 2113 3584 
Q 2378 3584 2631 3529 
Q 2884 3475 3122 3366 
z
" transform="scale(0.015625)"/>
                            <path id="DejaVuSans-6c" d="M 603 4863
L 1178 4863 
L 1178 0 
L 603 0 
L 603 4863 
z
" transform="scale(0.015625)"/>
                            <path id="DejaVuSans-75" d="M 544 1381
L 544 3500 
L 1119 3500 
L 1119 1403 
Q 1119 906 1312 657 
Q 1506 409 1894 409 
Q 2359 409 2629 706 
Q 2900 1003 2900 1516 
L 2900 3500 
L 3475 3500 
L 3475 0 
L 2900 0 
L 2900 538 
Q 2691 219 2414 64 
Q 2138 -91 1772 -91 
Q 1169 -91 856 284 
Q 544 659 544 1381 
z
M 1991 3584 
L 1991 3584 
z
" transform="scale(0.015625)"/>
                            <path id="DejaVuSans-73" d="M 2834 3397
L 2834 2853 
Q 2591 2978 2328 3040 
Q 2066 3103 1784 3103 
Q 1356 3103 1142 2972 
Q 928 2841 928 2578 
Q 928 2378 1081 2264 
Q 1234 2150 1697 2047 
L 1894 2003 
Q 2506 1872 2764 1633 
Q 3022 1394 3022 966 
Q 3022 478 2636 193 
Q 2250 -91 1575 -91 
Q 1294 -91 989 -36 
Q 684 19 347 128 
L 347 722 
Q 666 556 975 473 
Q 1284 391 1588 391 
Q 1994 391 2212 530 
Q 2431 669 2431 922 
Q 2431 1156 2273 1281 
Q 2116 1406 1581 1522 
L 1381 1569 
Q 847 1681 609 1914 
Q 372 2147 372 2553 
Q 372 3047 722 3315 
Q 1072 3584 1716 3584 
Q 2034 3584 2315 3537 
Q 2597 3491 2834 3397 
z
" transform="scale(0.015625)"/>
                            <path id="DejaVuSans-74" d="M 1172 4494
L 1172 3500 
L 2356 3500 
L 2356 3053 
L 1172 3053 
L 1172 1153 
Q 1172 725 1289 603 
Q 1406 481 1766 481 
L 2356 481 
L 2356 0 
L 1766 0 
Q 1100 0 847 248 
Q 594 497 594 1153 
L 594 3053 
L 172 3053 
L 172 3500 
L 594 3500 
L 594 4494 
L 1172 4494 
z
" transform="scale(0.015625)"/>
                            <path id="DejaVuSans-65" d="M 3597 1894
L 3597 1613 
L 953 1613 
Q 991 1019 1311 708 
Q 1631 397 2203 397 
Q 2534 397 2845 478 
Q 3156 559 3463 722 
L 3463 178 
Q 3153 47 2828 -22 
Q 2503 -91 2169 -91 
Q 1331 -91 842 396 
Q 353 884 353 1716 
Q 353 2575 817 3079 
Q 1281 3584 2069 3584 
Q 2775 3584 3186 3129 
Q 3597 2675 3597 1894 
z
M 3022 2063 
Q 3016 2534 2758 2815 
Q 2500 3097 2075 3097 
Q 1594 3097 1305 2825 
Q 1016 2553 972 2059 
L 3022 2063 
z
" transform="scale(0.015625)"/>
                            <path id="DejaVuSans-72" d="M 2631 2963
Q 2534 3019 2420 3045 
Q 2306 3072 2169 3072 
Q 1681 3072 1420 2755 
Q 1159 2438 1159 1844 
L 1159 0 
L 581 0 
L 581 3500 
L 1159 3500 
L 1159 2956 
Q 1341 3275 1631 3429 
Q 1922 3584 2338 3584 
Q 2397 3584 2469 3576 
Q 2541 3569 2628 3553 
L 2631 2963 
z
" transform="scale(0.015625)"/>
                        </defs>
                        <use xlink:href="#DejaVuSans-63"/>
                        <use xlink:href="#DejaVuSans-6c" x="54.980469"/>
                        <use xlink:href="#DejaVuSans-75" x="82.763672"/>
                        <use xlink:href="#DejaVuSans-73" x="146.142578"/>
                        <use xlink:href="#DejaVuSans-74" x="198.242188"/>
                        <use xlink:href="#DejaVuSans-65" x="237.451172"/>
                        <use xlink:href="#DejaVuSans-72" x="298.974609"/>
                    </g>
                </g>
            </g>
            <g id="matplotlib.axis_2">
                <g id="ytick_1">
                    <g id="line2d_6">
                        <defs>
                            <path id="m2eb89576fb" d="M 0 0
L -3.5 0 
" style="stroke: #000000; stroke-width: 0.8"/>
                        </defs>
                        <g>
                            <use xlink:href="#m2eb89576fb" x="270" y="593.342718"
                                 style="stroke: #000000; stroke-width: 0.8"/>
                        </g>
                    </g>
                    <g id="text_7">
                        <!-- 0 -->
                        <g transform="translate(250.275 600.941156)scale(0.2 -0.2)">
                            <defs>
                                <path id="DejaVuSans-30" d="M 2034 4250
Q 1547 4250 1301 3770 
Q 1056 3291 1056 2328 
Q 1056 1369 1301 889 
Q 1547 409 2034 409 
Q 2525 409 2770 889 
Q 3016 1369 3016 2328 
Q 3016 3291 2770 3770 
Q 2525 4250 2034 4250 
z
M 2034 4750 
Q 2819 4750 3233 4129 
Q 3647 3509 3647 2328 
Q 3647 1150 3233 529 
Q 2819 -91 2034 -91 
Q 1250 -91 836 529 
Q 422 1150 422 2328 
Q 422 3509 836 4129 
Q 1250 4750 2034 4750 
z
" transform="scale(0.015625)"/>
                            </defs>
                            <use xlink:href="#DejaVuSans-30"/>
                        </g>
                    </g>
                </g>
                <g id="ytick_2">
                    <g id="line2d_7">
                        <g>
                            <use xlink:href="#m2eb89576fb" x="270" y="476.822258"
                                 style="stroke: #000000; stroke-width: 0.8"/>
                        </g>
                    </g>
                    <g id="text_8">
                        <!-- 5 -->
                        <g transform="translate(250.275 484.420696)scale(0.2 -0.2)">
                            <use xlink:href="#DejaVuSans-35"/>
                        </g>
                    </g>
                </g>
                <g id="ytick_3">
                    <g id="line2d_8">
                        <g>
                            <use xlink:href="#m2eb89576fb" x="270" y="360.301799"
                                 style="stroke: #000000; stroke-width: 0.8"/>
                        </g>
                    </g>
                    <g id="text_9">
                        <!-- 10 -->
                        <g transform="translate(237.55 367.900236)scale(0.2 -0.2)">
                            <use xlink:href="#DejaVuSans-31"/>
                            <use xlink:href="#DejaVuSans-30" x="63.623047"/>
                        </g>
                    </g>
                </g>
                <g id="ytick_4">
                    <g id="line2d_9">
                        <g>
                            <use xlink:href="#m2eb89576fb" x="270" y="243.781339"
                                 style="stroke: #000000; stroke-width: 0.8"/>
                        </g>
                    </g>
                    <g id="text_10">
                        <!-- 15 -->
                        <g transform="translate(237.55 251.379777)scale(0.2 -0.2)">
                            <use xlink:href="#DejaVuSans-31"/>
                            <use xlink:href="#DejaVuSans-35" x="63.623047"/>
                        </g>
                    </g>
                </g>
                <g id="ytick_5">
                    <g id="line2d_10">
                        <g>
                            <use xlink:href="#m2eb89576fb" x="270" y="127.26088"
                                 style="stroke: #000000; stroke-width: 0.8"/>
                        </g>
                    </g>
                    <g id="text_11">
                        <!-- 20 -->
                        <g transform="translate(237.55 134.859317)scale(0.2 -0.2)">
                            <use xlink:href="#DejaVuSans-32"/>
                            <use xlink:href="#DejaVuSans-30" x="63.623047"/>
                        </g>
                    </g>
                </g>
                <g id="text_12">
                    <!-- log -->
                    <g transform="translate(229.390625 378.845312)rotate(-90)scale(0.2 -0.2)">
                        <defs>
                            <path id="DejaVuSans-6f" d="M 1959 3097
Q 1497 3097 1228 2736 
Q 959 2375 959 1747 
Q 959 1119 1226 758 
Q 1494 397 1959 397 
Q 2419 397 2687 759 
Q 2956 1122 2956 1747 
Q 2956 2369 2687 2733 
Q 2419 3097 1959 3097 
z
M 1959 3584 
Q 2709 3584 3137 3096 
Q 3566 2609 3566 1747 
Q 3566 888 3137 398 
Q 2709 -91 1959 -91 
Q 1206 -91 779 398 
Q 353 888 353 1747 
Q 353 2609 779 3096 
Q 1206 3584 1959 3584 
z
" transform="scale(0.015625)"/>
                            <path id="DejaVuSans-67" d="M 2906 1791
Q 2906 2416 2648 2759 
Q 2391 3103 1925 3103 
Q 1463 3103 1205 2759 
Q 947 2416 947 1791 
Q 947 1169 1205 825 
Q 1463 481 1925 481 
Q 2391 481 2648 825 
Q 2906 1169 2906 1791 
z
M 3481 434 
Q 3481 -459 3084 -895 
Q 2688 -1331 1869 -1331 
Q 1566 -1331 1297 -1286 
Q 1028 -1241 775 -1147 
L 775 -588 
Q 1028 -725 1275 -790 
Q 1522 -856 1778 -856 
Q 2344 -856 2625 -561 
Q 2906 -266 2906 331 
L 2906 616 
Q 2728 306 2450 153 
Q 2172 0 1784 0 
Q 1141 0 747 490 
Q 353 981 353 1791 
Q 353 2603 747 3093 
Q 1141 3584 1784 3584 
Q 2172 3584 2450 3431 
Q 2728 3278 2906 2969 
L 2906 3500 
L 3481 3500 
L 3481 434 
z
" transform="scale(0.015625)"/>
                        </defs>
                        <use xlink:href="#DejaVuSans-6c"/>
                        <use xlink:href="#DejaVuSans-6f" x="27.783203"/>
                        <use xlink:href="#DejaVuSans-67" x="88.964844"/>
                    </g>
                </g>
            </g>
            <g id="line2d_11">
                <path d="M 410.616 462.378644
L 464.184 462.378644 
" clip-path="url(#p89da72ef8c)" style="fill: none; stroke: #595959; stroke-width: 1.5; stroke-linecap: square"/>
            </g>
            <g id="line2d_12">
                <path d="M 772.2 470.585938
L 772.2 421.67239 
" clip-path="url(#p89da72ef8c)" style="fill: none; stroke: #595959; stroke-width: 1.5; stroke-linecap: square"/>
            </g>
            <g id="line2d_13">
                <path d="M 772.2 458.442203
L 772.2 433.985429 
" clip-path="url(#p89da72ef8c)" style="fill: none; stroke: #595959; stroke-width: 4.5; stroke-linecap: square"/>
            </g>
            <g id="line2d_14">
                <path d="M 1107 376.987607
L 1107 367.31703 
" clip-path="url(#p89da72ef8c)" style="fill: none; stroke: #595959; stroke-width: 1.5; stroke-linecap: square"/>
            </g>
            <g id="line2d_15">
                <path d="M 1107 374.569962
L 1107 369.734674 
" clip-path="url(#p89da72ef8c)" style="fill: none; stroke: #595959; stroke-width: 4.5; stroke-linecap: square"/>
            </g>
            <g id="line2d_16">
                <path d="M 1441.8 475.438811
L 1441.8 251.761189 
" clip-path="url(#p89da72ef8c)" style="fill: none; stroke: #595959; stroke-width: 1.5; stroke-linecap: square"/>
            </g>
            <g id="line2d_17">
                <path d="M 1441.8 461.027195
L 1441.8 306.473916 
" clip-path="url(#p89da72ef8c)" style="fill: none; stroke: #595959; stroke-width: 4.5; stroke-linecap: square"/>
            </g>
            <g id="line2d_18">
                <path d="M 1776.6 464.968905
L 1776.6 420.684207 
" clip-path="url(#p89da72ef8c)" style="fill: none; stroke: #595959; stroke-width: 1.5; stroke-linecap: square"/>
            </g>
            <g id="line2d_19">
                <path d="M 1776.6 453.89773
L 1776.6 431.755381 
" clip-path="url(#p89da72ef8c)" style="fill: none; stroke: #595959; stroke-width: 4.5; stroke-linecap: square"/>
            </g>
            <g id="patch_3">
                <path d="M 270 640.8
L 270 86.4 
" style="fill: none; stroke: #000000; stroke-width: 0.8; stroke-linejoin: miter; stroke-linecap: square"/>
            </g>
            <g id="patch_4">
                <path d="M 1944 640.8
L 1944 86.4 
" style="fill: none; stroke: #000000; stroke-width: 0.8; stroke-linejoin: miter; stroke-linecap: square"/>
            </g>
            <g id="patch_5">
                <path d="M 270 640.8
L 1944 640.8 
" style="fill: none; stroke: #000000; stroke-width: 0.8; stroke-linejoin: miter; stroke-linecap: square"/>
            </g>
            <g id="patch_6">
                <path d="M 270 86.4
L 1944 86.4 
" style="fill: none; stroke: #000000; stroke-width: 0.8; stroke-linejoin: miter; stroke-linecap: square"/>
            </g>
            <g id="PathCollection_1">
                <defs>
                    <path id="ma6d543a2dc" d="M 0 1.5
C 0.397805 1.5 0.77937 1.341951 1.06066 1.06066 
C 1.341951 0.77937 1.5 0.397805 1.5 0 
C 1.5 -0.397805 1.341951 -0.77937 1.06066 -1.06066 
C 0.77937 -1.341951 0.397805 -1.5 0 -1.5 
C -0.397805 -1.5 -0.77937 -1.341951 -1.06066 -1.06066 
C -1.341951 -0.77937 -1.5 -0.397805 -1.5 0 
C -1.5 0.397805 -1.341951 0.77937 -1.06066 1.06066 
C -0.77937 1.341951 -0.397805 1.5 0 1.5 
z
" style="stroke: #595959"/>
                </defs>
                <g clip-path="url(#p89da72ef8c)">
                    <use xlink:href="#ma6d543a2dc" x="772.2" y="446.298468" style="fill: #ffffff; stroke: #595959"/>
                </g>
            </g>
            <g id="PathCollection_2">
                <g clip-path="url(#p89da72ef8c)">
                    <use xlink:href="#ma6d543a2dc" x="1107" y="372.152318" style="fill: #ffffff; stroke: #595959"/>
                </g>
            </g>
            <g id="PathCollection_3">
                <g clip-path="url(#p89da72ef8c)">
                    <use xlink:href="#ma6d543a2dc" x="1441.8" y="367.31703" style="fill: #ffffff; stroke: #595959"/>
                </g>
            </g>
            <g id="PathCollection_4">
                <g clip-path="url(#p89da72ef8c)">
                    <use xlink:href="#ma6d543a2dc" x="1776.6" y="442.826556" style="fill: #ffffff; stroke: #595959"/>
                </g>
            </g>
            <g id="PathCollection_5">
                <defs>
                    <path id="m7ee55d900a" d="M 0 2.5
C 0.663008 2.5 1.29895 2.236584 1.767767 1.767767 
C 2.236584 1.29895 2.5 0.663008 2.5 0 
C 2.5 -0.663008 2.236584 -1.29895 1.767767 -1.767767 
C 1.29895 -2.236584 0.663008 -2.5 0 -2.5 
C -0.663008 -2.5 -1.29895 -2.236584 -1.767767 -1.767767 
C -2.236584 -1.29895 -2.5 -0.663008 -2.5 0 
C -2.5 0.663008 -2.236584 1.29895 -1.767767 1.767767 
C -1.29895 2.236584 -0.663008 2.5 0 2.5 
z
"/>
                </defs>
                <g clip-path="url(#p89da72ef8c)">
                    <use xlink:href="#m7ee55d900a" x="437.4" y="462.378644" style="fill: #1f77b4"/>
                </g>
            </g>
            <g id="PathCollection_6">
                <defs>
                    <path id="C0_0_fc0f257986" d="M 0 2.5
C 0.663008 2.5 1.29895 2.236584 1.767767 1.767767 
C 2.236584 1.29895 2.5 0.663008 2.5 -0 
C 2.5 -0.663008 2.236584 -1.29895 1.767767 -1.767767 
C 1.29895 -2.236584 0.663008 -2.5 0 -2.5 
C -0.663008 -2.5 -1.29895 -2.236584 -1.767767 -1.767767 
C -2.236584 -1.29895 -2.5 -0.663008 -2.5 0 
C -2.5 0.663008 -2.236584 1.29895 -1.767767 1.767767 
C -1.29895 2.236584 -0.663008 2.5 0 2.5 
z
"/>
                </defs>
                <g clip-path="url(#p89da72ef8c)">
                    <use xlink:href="#C0_0_fc0f257986" x="772.2" y="470.585938" style="fill: #ff7f0e"/>
                </g>
                <g clip-path="url(#p89da72ef8c)">
                    <use xlink:href="#C0_0_fc0f257986" x="772.2" y="446.298468" style="fill: #ff7f0e"/>
                </g>
                <g clip-path="url(#p89da72ef8c)">
                    <use xlink:href="#C0_0_fc0f257986" x="772.2" y="421.67239" style="fill: #ff7f0e"/>
                </g>
            </g>
            <g id="PathCollection_7">
                <defs>
                    <path id="C1_0_818339720f" d="M 0 2.5
C 0.663008 2.5 1.29895 2.236584 1.767767 1.767767 
C 2.236584 1.29895 2.5 0.663008 2.5 -0 
C 2.5 -0.663008 2.236584 -1.29895 1.767767 -1.767767 
C 1.29895 -2.236584 0.663008 -2.5 0 -2.5 
C -0.663008 -2.5 -1.29895 -2.236584 -1.767767 -1.767767 
C -2.236584 -1.29895 -2.5 -0.663008 -2.5 0 
C -2.5 0.663008 -2.236584 1.29895 -1.767767 1.767767 
C -1.29895 2.236584 -0.663008 2.5 0 2.5 
z
"/>
                </defs>
                <g clip-path="url(#p89da72ef8c)">
                    <use xlink:href="#C1_0_818339720f" x="1107" y="376.987607" style="fill: #2ca02c"/>
                </g>
                <g clip-path="url(#p89da72ef8c)">
                    <use xlink:href="#C1_0_818339720f" x="1107" y="367.31703" style="fill: #2ca02c"/>
                </g>
            </g>
            <g id="PathCollection_8">
                <defs>
                    <path id="C2_0_f3a204b8b8" d="M 0 2.5
C 0.663008 2.5 1.29895 2.236584 1.767767 1.767767 
C 2.236584 1.29895 2.5 0.663008 2.5 -0 
C 2.5 -0.663008 2.236584 -1.29895 1.767767 -1.767767 
C 1.29895 -2.236584 0.663008 -2.5 0 -2.5 
C -0.663008 -2.5 -1.29895 -2.236584 -1.767767 -1.767767 
C -2.236584 -1.29895 -2.5 -0.663008 -2.5 0 
C -2.5 0.663008 -2.236584 1.29895 -1.767767 1.767767 
C -1.29895 2.236584 -0.663008 2.5 0 2.5 
z
"/>
                </defs>
                <g clip-path="url(#p89da72ef8c)">
                    <use xlink:href="#C2_0_f3a204b8b8" x="1441.8" y="475.438811" style="fill: #d62728"/>
                </g>
                <g clip-path="url(#p89da72ef8c)">
                    <use xlink:href="#C2_0_f3a204b8b8" x="1441.8" y="461.027195" style="fill: #d62728"/>
                </g>
                <g clip-path="url(#p89da72ef8c)">
                    <use xlink:href="#C2_0_f3a204b8b8" x="1441.8" y="367.31703" style="fill: #d62728"/>
                </g>
                <g clip-path="url(#p89da72ef8c)">
                    <use xlink:href="#C2_0_f3a204b8b8" x="1441.8" y="306.473916" style="fill: #d62728"/>
                </g>
                <g clip-path="url(#p89da72ef8c)">
                    <use xlink:href="#C2_0_f3a204b8b8" x="1441.8" y="251.761189" style="fill: #d62728"/>
                </g>
            </g>
            <g id="PathCollection_9">
                <defs>
                    <path id="C3_0_c691aff38b" d="M 0 2.5
C 0.663008 2.5 1.29895 2.236584 1.767767 1.767767 
C 2.236584 1.29895 2.5 0.663008 2.5 -0 
C 2.5 -0.663008 2.236584 -1.29895 1.767767 -1.767767 
C 1.29895 -2.236584 0.663008 -2.5 0 -2.5 
C -0.663008 -2.5 -1.29895 -2.236584 -1.767767 -1.767767 
C -2.236584 -1.29895 -2.5 -0.663008 -2.5 0 
C -2.5 0.663008 -2.236584 1.29895 -1.767767 1.767767 
C -1.29895 2.236584 -0.663008 2.5 0 2.5 
z
"/>
                </defs>
                <g clip-path="url(#p89da72ef8c)">
                    <use xlink:href="#C3_0_c691aff38b" x="1776.6" y="464.968905" style="fill: #9467bd"/>
                </g>
                <g clip-path="url(#p89da72ef8c)">
                    <use xlink:href="#C3_0_c691aff38b" x="1776.6" y="420.684207" style="fill: #9467bd"/>
                </g>
            </g>
            <g id="text_13">
                <!-- P values of Field Connective Tissue -->
                <g transform="translate(897.18 80.4)scale(0.24 -0.24)">
                    <defs>
                        <path id="DejaVuSans-50" d="M 1259 4147
L 1259 2394 
L 2053 2394 
Q 2494 2394 2734 2622 
Q 2975 2850 2975 3272 
Q 2975 3691 2734 3919 
Q 2494 4147 2053 4147 
L 1259 4147 
z
M 628 4666 
L 2053 4666 
Q 2838 4666 3239 4311 
Q 3641 3956 3641 3272 
Q 3641 2581 3239 2228 
Q 2838 1875 2053 1875 
L 1259 1875 
L 1259 0 
L 628 0 
L 628 4666 
z
" transform="scale(0.015625)"/>
                        <path id="DejaVuSans-20" transform="scale(0.015625)"/>
                        <path id="DejaVuSans-76" d="M 191 3500
L 800 3500 
L 1894 563 
L 2988 3500 
L 3597 3500 
L 2284 0 
L 1503 0 
L 191 3500 
z
" transform="scale(0.015625)"/>
                        <path id="DejaVuSans-61" d="M 2194 1759
Q 1497 1759 1228 1600 
Q 959 1441 959 1056 
Q 959 750 1161 570 
Q 1363 391 1709 391 
Q 2188 391 2477 730 
Q 2766 1069 2766 1631 
L 2766 1759 
L 2194 1759 
z
M 3341 1997 
L 3341 0 
L 2766 0 
L 2766 531 
Q 2569 213 2275 61 
Q 1981 -91 1556 -91 
Q 1019 -91 701 211 
Q 384 513 384 1019 
Q 384 1609 779 1909 
Q 1175 2209 1959 2209 
L 2766 2209 
L 2766 2266 
Q 2766 2663 2505 2880 
Q 2244 3097 1772 3097 
Q 1472 3097 1187 3025 
Q 903 2953 641 2809 
L 641 3341 
Q 956 3463 1253 3523 
Q 1550 3584 1831 3584 
Q 2591 3584 2966 3190 
Q 3341 2797 3341 1997 
z
" transform="scale(0.015625)"/>
                        <path id="DejaVuSans-66" d="M 2375 4863
L 2375 4384 
L 1825 4384 
Q 1516 4384 1395 4259 
Q 1275 4134 1275 3809 
L 1275 3500 
L 2222 3500 
L 2222 3053 
L 1275 3053 
L 1275 0 
L 697 0 
L 697 3053 
L 147 3053 
L 147 3500 
L 697 3500 
L 697 3744 
Q 697 4328 969 4595 
Q 1241 4863 1831 4863 
L 2375 4863 
z
" transform="scale(0.015625)"/>
                        <path id="DejaVuSans-46" d="M 628 4666
L 3309 4666 
L 3309 4134 
L 1259 4134 
L 1259 2759 
L 3109 2759 
L 3109 2228 
L 1259 2228 
L 1259 0 
L 628 0 
L 628 4666 
z
" transform="scale(0.015625)"/>
                        <path id="DejaVuSans-69" d="M 603 3500
L 1178 3500 
L 1178 0 
L 603 0 
L 603 3500 
z
M 603 4863 
L 1178 4863 
L 1178 4134 
L 603 4134 
L 603 4863 
z
" transform="scale(0.015625)"/>
                        <path id="DejaVuSans-64" d="M 2906 2969
L 2906 4863 
L 3481 4863 
L 3481 0 
L 2906 0 
L 2906 525 
Q 2725 213 2448 61 
Q 2172 -91 1784 -91 
Q 1150 -91 751 415 
Q 353 922 353 1747 
Q 353 2572 751 3078 
Q 1150 3584 1784 3584 
Q 2172 3584 2448 3432 
Q 2725 3281 2906 2969 
z
M 947 1747 
Q 947 1113 1208 752 
Q 1469 391 1925 391 
Q 2381 391 2643 752 
Q 2906 1113 2906 1747 
Q 2906 2381 2643 2742 
Q 2381 3103 1925 3103 
Q 1469 3103 1208 2742 
Q 947 2381 947 1747 
z
" transform="scale(0.015625)"/>
                        <path id="DejaVuSans-43" d="M 4122 4306
L 4122 3641 
Q 3803 3938 3442 4084 
Q 3081 4231 2675 4231 
Q 1875 4231 1450 3742 
Q 1025 3253 1025 2328 
Q 1025 1406 1450 917 
Q 1875 428 2675 428 
Q 3081 428 3442 575 
Q 3803 722 4122 1019 
L 4122 359 
Q 3791 134 3420 21 
Q 3050 -91 2638 -91 
Q 1578 -91 968 557 
Q 359 1206 359 2328 
Q 359 3453 968 4101 
Q 1578 4750 2638 4750 
Q 3056 4750 3426 4639 
Q 3797 4528 4122 4306 
z
" transform="scale(0.015625)"/>
                        <path id="DejaVuSans-6e" d="M 3513 2113
L 3513 0 
L 2938 0 
L 2938 2094 
Q 2938 2591 2744 2837 
Q 2550 3084 2163 3084 
Q 1697 3084 1428 2787 
Q 1159 2491 1159 1978 
L 1159 0 
L 581 0 
L 581 3500 
L 1159 3500 
L 1159 2956 
Q 1366 3272 1645 3428 
Q 1925 3584 2291 3584 
Q 2894 3584 3203 3211 
Q 3513 2838 3513 2113 
z
" transform="scale(0.015625)"/>
                        <path id="DejaVuSans-54" d="M -19 4666
L 3928 4666 
L 3928 4134 
L 2272 4134 
L 2272 0 
L 1638 0 
L 1638 4134 
L -19 4134 
L -19 4666 
z
" transform="scale(0.015625)"/>
                    </defs>
                    <use xlink:href="#DejaVuSans-50"/>
                    <use xlink:href="#DejaVuSans-20" x="60.302734"/>
                    <use xlink:href="#DejaVuSans-76" x="92.089844"/>
                    <use xlink:href="#DejaVuSans-61" x="151.269531"/>
                    <use xlink:href="#DejaVuSans-6c" x="212.548828"/>
                    <use xlink:href="#DejaVuSans-75" x="240.332031"/>
                    <use xlink:href="#DejaVuSans-65" x="303.710938"/>
                    <use xlink:href="#DejaVuSans-73" x="365.234375"/>
                    <use xlink:href="#DejaVuSans-20" x="417.333984"/>
                    <use xlink:href="#DejaVuSans-6f" x="449.121094"/>
                    <use xlink:href="#DejaVuSans-66" x="510.302734"/>
                    <use xlink:href="#DejaVuSans-20" x="545.507812"/>
                    <use xlink:href="#DejaVuSans-46" x="577.294922"/>
                    <use xlink:href="#DejaVuSans-69" x="627.564453"/>
                    <use xlink:href="#DejaVuSans-65" x="655.347656"/>
                    <use xlink:href="#DejaVuSans-6c" x="716.871094"/>
                    <use xlink:href="#DejaVuSans-64" x="744.654297"/>
                    <use xlink:href="#DejaVuSans-20" x="808.130859"/>
                    <use xlink:href="#DejaVuSans-43" x="839.917969"/>
                    <use xlink:href="#DejaVuSans-6f" x="909.742188"/>
                    <use xlink:href="#DejaVuSans-6e" x="970.923828"/>
                    <use xlink:href="#DejaVuSans-6e" x="1034.302734"/>
                    <use xlink:href="#DejaVuSans-65" x="1097.681641"/>
                    <use xlink:href="#DejaVuSans-63" x="1159.205078"/>
                    <use xlink:href="#DejaVuSans-74" x="1214.185547"/>
                    <use xlink:href="#DejaVuSans-69" x="1253.394531"/>
                    <use xlink:href="#DejaVuSans-76" x="1281.177734"/>
                    <use xlink:href="#DejaVuSans-65" x="1340.357422"/>
                    <use xlink:href="#DejaVuSans-20" x="1401.880859"/>
                    <use xlink:href="#DejaVuSans-54" x="1433.667969"/>
                    <use xlink:href="#DejaVuSans-69" x="1491.626953"/>
                    <use xlink:href="#DejaVuSans-73" x="1519.410156"/>
                    <use xlink:href="#DejaVuSans-73" x="1571.509766"/>
                    <use xlink:href="#DejaVuSans-75" x="1623.609375"/>
                    <use xlink:href="#DejaVuSans-65" x="1686.988281"/>
                </g>
            </g>
        </g>
    </g>
    <defs>
        <clipPath id="p89da72ef8c">
            <rect x="270" y="86.4" width="1674" height="554.4"/>
        </clipPath>
    </defs>
</svg>
