<?xml version="1.0" encoding="utf-8" standalone="no"?>
<!DOCTYPE svg PUBLIC "-//W3C//DTD SVG 1.1//EN"
        "http://www.w3.org/Graphics/SVG/1.1/DTD/svg11.dtd">
<svg xmlns:xlink="http://www.w3.org/1999/xlink" width="2160pt" height="720pt" viewBox="0 0 2160 720"
     xmlns="http://www.w3.org/2000/svg" version="1.1">
    <metadata>
        <rdf:RDF xmlns:dc="http://purl.org/dc/elements/1.1/" xmlns:cc="http://creativecommons.org/ns#"
                 xmlns:rdf="http://www.w3.org/1999/02/22-rdf-syntax-ns#">
            <cc:Work>
                <dc:type rdf:resource="http://purl.org/dc/dcmitype/StillImage"/>
                <dc:date>2022-06-10T17:50:37.303404</dc:date>
                <dc:format>image/svg+xml</dc:format>
                <dc:creator>
                    <cc:Agent>
                        <dc:title>Matplotlib v3.5.1, https://matplotlib.org/</dc:title>
                    </cc:Agent>
                </dc:creator>
            </cc:Work>
        </rdf:RDF>
    </metadata>
    <defs>
        <style type="text/css">*{stroke-linejoin: round; stroke-linecap: butt}</style>
    </defs>
    <g id="figure_1">
        <g id="patch_1">
            <path d="M 0 720
L 2160 720 
L 2160 0 
L 0 0 
z
" style="fill: #ffffff"/>
        </g>
        <g id="axes_1">
            <g id="patch_2">
                <path d="M 270 640.8
L 1944 640.8 
L 1944 86.4 
L 270 86.4 
z
" style="fill: #ffffff"/>
            </g>
            <g id="PolyCollection_1">
                <defs>
                    <path id="mba862f4d71" d="M 444.224794 -145.814488
L 430.575206 -145.814488 
L 429.341537 -148.405119 
L 427.936196 -150.995751 
L 426.34544 -153.586383 
L 424.556263 -156.177014 
L 422.556785 -158.767646 
L 420.336655 -161.358278 
L 417.887474 -163.948909 
L 415.203224 -166.539541 
L 412.280675 -169.130173 
L 409.119785 -171.720804 
L 405.724044 -174.311436 
L 402.100779 -176.902068 
L 398.261376 -179.492699 
L 394.221436 -182.083331 
L 390.000823 -184.673963 
L 385.623621 -187.264594 
L 381.117972 -189.855226 
L 376.51581 -192.445858 
L 371.852474 -195.036489 
L 367.166222 -197.627121 
L 362.497632 -200.217753 
L 357.888919 -202.808384 
L 353.383176 -205.399016 
L 349.023551 -207.989648 
L 344.852381 -210.580279 
L 340.910318 -213.170911 
L 337.235441 -215.761543 
L 333.862412 -218.352174 
L 330.821662 -220.942806 
L 328.138667 -223.533437 
L 325.833304 -226.124069 
L 323.919327 -228.714701 
L 322.403971 -231.305332 
L 321.287698 -233.895964 
L 320.564106 -236.486596 
L 320.22 -239.077227 
L 320.235625 -241.667859 
L 320.585075 -244.258491 
L 321.236863 -246.849122 
L 322.154637 -249.439754 
L 323.298044 -252.030386 
L 324.623711 -254.621017 
L 326.086315 -257.211649 
L 327.639737 -259.802281 
L 329.23824 -262.392912 
L 330.837667 -264.983544 
L 332.396605 -267.574176 
L 333.877485 -270.164807 
L 335.247596 -272.755439 
L 336.47996 -275.346071 
L 337.554058 -277.936702 
L 338.456372 -280.527334 
L 339.180727 -283.117966 
L 339.728419 -285.708597 
L 340.108125 -288.299229 
L 340.335587 -290.889861 
L 340.433093 -293.480492 
L 340.428757 -296.071124 
L 340.355624 -298.661756 
L 340.250629 -301.252387 
L 340.15345 -303.843019 
L 340.105272 -306.433651 
L 340.147528 -309.024282 
L 340.320632 -311.614914 
L 340.662767 -314.205546 
L 341.208749 -316.796177 
L 341.989011 -319.386809 
L 343.028738 -321.977441 
L 344.347177 -324.568072 
L 345.957133 -327.158704 
L 347.86468 -329.749336 
L 350.069072 -332.339967 
L 352.562862 -334.930599 
L 355.332224 -337.521231 
L 358.357436 -340.111862 
L 361.613542 -342.702494 
L 365.07112 -345.293126 
L 368.697163 -347.883757 
L 372.45602 -350.474389 
L 376.310366 -353.065021 
L 380.222172 -355.655652 
L 384.153642 -358.246284 
L 388.068089 -360.836916 
L 391.930722 -363.427547 
L 395.709326 -366.018179 
L 399.374832 -368.60881 
L 402.901743 -371.199442 
L 406.268439 -373.790074 
L 409.457345 -376.380705 
L 412.454974 -378.971337 
L 415.251857 -381.561969 
L 417.84237 -384.1526 
L 420.224478 -386.743232 
L 422.399403 -389.333864 
L 424.371251 -391.924495 
L 426.1466 -394.515127 
L 427.734072 -397.105759 
L 429.143911 -399.69639 
L 430.387561 -402.287022 
L 444.412439 -402.287022 
L 444.412439 -402.287022 
L 445.656089 -399.69639 
L 447.065928 -397.105759 
L 448.6534 -394.515127 
L 450.428749 -391.924495 
L 452.400597 -389.333864 
L 454.575522 -386.743232 
L 456.95763 -384.1526 
L 459.548143 -381.561969 
L 462.345026 -378.971337 
L 465.342655 -376.380705 
L 468.531561 -373.790074 
L 471.898257 -371.199442 
L 475.425168 -368.60881 
L 479.090674 -366.018179 
L 482.869278 -363.427547 
L 486.731911 -360.836916 
L 490.646358 -358.246284 
L 494.577828 -355.655652 
L 498.489634 -353.065021 
L 502.34398 -350.474389 
L 506.102837 -347.883757 
L 509.72888 -345.293126 
L 513.186458 -342.702494 
L 516.442564 -340.111862 
L 519.467776 -337.521231 
L 522.237138 -334.930599 
L 524.730928 -332.339967 
L 526.93532 -329.749336 
L 528.842867 -327.158704 
L 530.452823 -324.568072 
L 531.771262 -321.977441 
L 532.810989 -319.386809 
L 533.591251 -316.796177 
L 534.137233 -314.205546 
L 534.479368 -311.614914 
L 534.652472 -309.024282 
L 534.694728 -306.433651 
L 534.64655 -303.843019 
L 534.549371 -301.252387 
L 534.444376 -298.661756 
L 534.371243 -296.071124 
L 534.366907 -293.480492 
L 534.464413 -290.889861 
L 534.691875 -288.299229 
L 535.071581 -285.708597 
L 535.619273 -283.117966 
L 536.343628 -280.527334 
L 537.245942 -277.936702 
L 538.32004 -275.346071 
L 539.552404 -272.755439 
L 540.922515 -270.164807 
L 542.403395 -267.574176 
L 543.962333 -264.983544 
L 545.56176 -262.392912 
L 547.160263 -259.802281 
L 548.713685 -257.211649 
L 550.176289 -254.621017 
L 551.501956 -252.030386 
L 552.645363 -249.439754 
L 553.563137 -246.849122 
L 554.214925 -244.258491 
L 554.564375 -241.667859 
L 554.58 -239.077227 
L 554.235894 -236.486596 
L 553.512302 -233.895964 
L 552.396029 -231.305332 
L 550.880673 -228.714701 
L 548.966696 -226.124069 
L 546.661333 -223.533437 
L 543.978338 -220.942806 
L 540.937588 -218.352174 
L 537.564559 -215.761543 
L 533.889682 -213.170911 
L 529.947619 -210.580279 
L 525.776449 -207.989648 
L 521.416824 -205.399016 
L 516.911081 -202.808384 
L 512.302368 -200.217753 
L 507.633778 -197.627121 
L 502.947526 -195.036489 
L 498.28419 -192.445858 
L 493.682028 -189.855226 
L 489.176379 -187.264594 
L 484.799177 -184.673963 
L 480.578564 -182.083331 
L 476.538624 -179.492699 
L 472.699221 -176.902068 
L 469.075956 -174.311436 
L 465.680215 -171.720804 
L 462.519325 -169.130173 
L 459.596776 -166.539541 
L 456.912526 -163.948909 
L 454.463345 -161.358278 
L 452.243215 -158.767646 
L 450.243737 -156.177014 
L 448.45456 -153.586383 
L 446.863804 -150.995751 
L 445.458463 -148.405119 
L 444.224794 -145.814488 
z
" style="stroke: #595959; stroke-width: 1.5"/>
                </defs>
                <g clip-path="url(#pa2c7eddadd)">
                    <use xlink:href="#mba862f4d71" x="0" y="720"
                         style="fill: #72b6a1; stroke: #595959; stroke-width: 1.5"/>
                </g>
            </g>
            <g id="PolyCollection_2">
                <defs>
                    <path id="m04a40bfbe6" d="M 775.94544 -166.913415
L 768.45456 -166.913415 
L 767.84514 -168.562834 
L 767.159766 -170.212253 
L 766.393018 -171.861673 
L 765.539723 -173.511092 
L 764.595066 -175.160511 
L 763.554699 -176.80993 
L 762.41486 -178.45935 
L 761.172491 -180.108769 
L 759.825349 -181.758188 
L 758.372118 -183.407607 
L 756.812505 -185.057026 
L 755.147341 -186.706446 
L 753.378654 -188.355865 
L 751.509738 -190.005284 
L 749.545211 -191.654703 
L 747.491044 -193.304123 
L 745.354587 -194.953542 
L 743.144567 -196.602961 
L 740.871074 -198.25238 
L 738.545524 -199.901799 
L 736.180606 -201.551219 
L 733.790203 -203.200638 
L 731.389299 -204.850057 
L 728.993862 -206.499476 
L 726.620701 -208.148896 
L 724.287305 -209.798315 
L 722.011658 -211.447734 
L 719.812026 -213.097153 
L 717.706732 -214.746572 
L 715.713894 -216.395992 
L 713.851162 -218.045411 
L 712.13542 -219.69483 
L 710.582494 -221.344249 
L 709.206842 -222.993669 
L 708.021255 -224.643088 
L 707.036558 -226.292507 
L 706.261341 -227.941926 
L 705.701706 -229.591345 
L 705.36107 -231.240765 
L 705.24 -232.890184 
L 705.336114 -234.539603 
L 705.644052 -236.189022 
L 706.155508 -237.838442 
L 706.859349 -239.487861 
L 707.741807 -241.13728 
L 708.786745 -242.786699 
L 709.975995 -244.436118 
L 711.289765 -246.085538 
L 712.707088 -247.734957 
L 714.206324 -249.384376 
L 715.765671 -251.033795 
L 717.363697 -252.683215 
L 718.979854 -254.332634 
L 720.594965 -255.982053 
L 722.191667 -257.631472 
L 723.754793 -259.280891 
L 725.271678 -260.930311 
L 726.732385 -262.57973 
L 728.129833 -264.229149 
L 729.459832 -265.878568 
L 730.721028 -267.527988 
L 731.914746 -269.177407 
L 733.044759 -270.826826 
L 734.11698 -272.476245 
L 735.139093 -274.125664 
L 736.120143 -275.775084 
L 737.070093 -277.424503 
L 737.99938 -279.073922 
L 738.918467 -280.723341 
L 739.837427 -282.372761 
L 740.765558 -284.02218 
L 741.711051 -285.671599 
L 742.680721 -287.321018 
L 743.679795 -288.970437 
L 744.711786 -290.619857 
L 745.778418 -292.269276 
L 746.879642 -293.918695 
L 748.013701 -295.568114 
L 749.177262 -297.217534 
L 750.365588 -298.866953 
L 751.572758 -300.516372 
L 752.791912 -302.165791 
L 754.015507 -303.81521 
L 755.235585 -305.46463 
L 756.444036 -307.114049 
L 757.632845 -308.763468 
L 758.794315 -310.412887 
L 759.921268 -312.062307 
L 761.007211 -313.711726 
L 762.046464 -315.361145 
L 763.034252 -317.010564 
L 763.966768 -318.659983 
L 764.841191 -320.309403 
L 765.655679 -321.958822 
L 766.40933 -323.608241 
L 767.102127 -325.25766 
L 767.734856 -326.90708 
L 768.30901 -328.556499 
L 768.826696 -330.205918 
L 775.573304 -330.205918 
L 775.573304 -330.205918 
L 776.09099 -328.556499 
L 776.665144 -326.90708 
L 777.297873 -325.25766 
L 777.99067 -323.608241 
L 778.744321 -321.958822 
L 779.558809 -320.309403 
L 780.433232 -318.659983 
L 781.365748 -317.010564 
L 782.353536 -315.361145 
L 783.392789 -313.711726 
L 784.478732 -312.062307 
L 785.605685 -310.412887 
L 786.767155 -308.763468 
L 787.955964 -307.114049 
L 789.164415 -305.46463 
L 790.384493 -303.81521 
L 791.608088 -302.165791 
L 792.827242 -300.516372 
L 794.034412 -298.866953 
L 795.222738 -297.217534 
L 796.386299 -295.568114 
L 797.520358 -293.918695 
L 798.621582 -292.269276 
L 799.688214 -290.619857 
L 800.720205 -288.970437 
L 801.719279 -287.321018 
L 802.688949 -285.671599 
L 803.634442 -284.02218 
L 804.562573 -282.372761 
L 805.481533 -280.723341 
L 806.40062 -279.073922 
L 807.329907 -277.424503 
L 808.279857 -275.775084 
L 809.260907 -274.125664 
L 810.28302 -272.476245 
L 811.355241 -270.826826 
L 812.485254 -269.177407 
L 813.678972 -267.527988 
L 814.940168 -265.878568 
L 816.270167 -264.229149 
L 817.667615 -262.57973 
L 819.128322 -260.930311 
L 820.645207 -259.280891 
L 822.208333 -257.631472 
L 823.805035 -255.982053 
L 825.420146 -254.332634 
L 827.036303 -252.683215 
L 828.634329 -251.033795 
L 830.193676 -249.384376 
L 831.692912 -247.734957 
L 833.110235 -246.085538 
L 834.424005 -244.436118 
L 835.613255 -242.786699 
L 836.658193 -241.13728 
L 837.540651 -239.487861 
L 838.244492 -237.838442 
L 838.755948 -236.189022 
L 839.063886 -234.539603 
L 839.16 -232.890184 
L 839.03893 -231.240765 
L 838.698294 -229.591345 
L 838.138659 -227.941926 
L 837.363442 -226.292507 
L 836.378745 -224.643088 
L 835.193158 -222.993669 
L 833.817506 -221.344249 
L 832.26458 -219.69483 
L 830.548838 -218.045411 
L 828.686106 -216.395992 
L 826.693268 -214.746572 
L 824.587974 -213.097153 
L 822.388342 -211.447734 
L 820.112695 -209.798315 
L 817.779299 -208.148896 
L 815.406138 -206.499476 
L 813.010701 -204.850057 
L 810.609797 -203.200638 
L 808.219394 -201.551219 
L 805.854476 -199.901799 
L 803.528926 -198.25238 
L 801.255433 -196.602961 
L 799.045413 -194.953542 
L 796.908956 -193.304123 
L 794.854789 -191.654703 
L 792.890262 -190.005284 
L 791.021346 -188.355865 
L 789.252659 -186.706446 
L 787.587495 -185.057026 
L 786.027882 -183.407607 
L 784.574651 -181.758188 
L 783.227509 -180.108769 
L 781.98514 -178.45935 
L 780.845301 -176.80993 
L 779.804934 -175.160511 
L 778.860277 -173.511092 
L 778.006982 -171.861673 
L 777.240234 -170.212253 
L 776.55486 -168.562834 
L 775.94544 -166.913415 
z
" style="stroke: #595959; stroke-width: 1.5"/>
                </defs>
                <g clip-path="url(#pa2c7eddadd)">
                    <use xlink:href="#m04a40bfbe6" x="0" y="720"
                         style="fill: #e99675; stroke: #595959; stroke-width: 1.5"/>
                </g>
            </g>
            <g id="PolyCollection_3">
                <defs>
                    <path id="m6f5104da2e" d="M 1110.18399 -221.148945
L 1103.81601 -221.148945 
L 1103.435086 -221.381097 
L 1103.021075 -221.61325 
L 1102.572835 -221.845402 
L 1102.089416 -222.077555 
L 1101.570089 -222.309707 
L 1101.014376 -222.541859 
L 1100.422076 -222.774012 
L 1099.793292 -223.006164 
L 1099.128451 -223.238317 
L 1098.428324 -223.470469 
L 1097.694038 -223.702621 
L 1096.927085 -223.934774 
L 1096.129325 -224.166926 
L 1095.302981 -224.399079 
L 1094.450631 -224.631231 
L 1093.57519 -224.863384 
L 1092.679888 -225.095536 
L 1091.768237 -225.327688 
L 1090.843997 -225.559841 
L 1089.911133 -225.791993 
L 1088.973769 -226.024146 
L 1088.036137 -226.256298 
L 1087.10252 -226.48845 
L 1086.177198 -226.720603 
L 1085.264393 -226.952755 
L 1084.368209 -227.184908 
L 1083.492581 -227.41706 
L 1082.641225 -227.649213 
L 1081.817587 -227.881365 
L 1081.024812 -228.113517 
L 1080.265703 -228.34567 
L 1079.542701 -228.577822 
L 1078.85787 -228.809975 
L 1078.212886 -229.042127 
L 1077.609041 -229.274279 
L 1077.04726 -229.506432 
L 1076.528112 -229.738584 
L 1076.051845 -229.970737 
L 1075.618423 -230.202889 
L 1075.227562 -230.435042 
L 1074.878781 -230.667194 
L 1074.571453 -230.899346 
L 1074.304851 -231.131499 
L 1074.078204 -231.363651 
L 1073.890746 -231.595804 
L 1073.741758 -231.827956 
L 1073.630614 -232.060108 
L 1073.556811 -232.292261 
L 1073.52 -232.524413 
L 1073.52 -232.756566 
L 1073.556811 -232.988718 
L 1073.630614 -233.22087 
L 1073.741758 -233.453023 
L 1073.890746 -233.685175 
L 1074.078204 -233.917328 
L 1074.304851 -234.14948 
L 1074.571453 -234.381633 
L 1074.878781 -234.613785 
L 1075.227562 -234.845937 
L 1075.618423 -235.07809 
L 1076.051845 -235.310242 
L 1076.528112 -235.542395 
L 1077.04726 -235.774547 
L 1077.609041 -236.006699 
L 1078.212886 -236.238852 
L 1078.85787 -236.471004 
L 1079.542701 -236.703157 
L 1080.265703 -236.935309 
L 1081.024812 -237.167462 
L 1081.817587 -237.399614 
L 1082.641225 -237.631766 
L 1083.492581 -237.863919 
L 1084.368209 -238.096071 
L 1085.264393 -238.328224 
L 1086.177198 -238.560376 
L 1087.10252 -238.792528 
L 1088.036137 -239.024681 
L 1088.973769 -239.256833 
L 1089.911133 -239.488986 
L 1090.843997 -239.721138 
L 1091.768237 -239.953291 
L 1092.679888 -240.185443 
L 1093.57519 -240.417595 
L 1094.450631 -240.649748 
L 1095.302981 -240.8819 
L 1096.129325 -241.114053 
L 1096.927085 -241.346205 
L 1097.694038 -241.578357 
L 1098.428324 -241.81051 
L 1099.128451 -242.042662 
L 1099.793292 -242.274815 
L 1100.422076 -242.506967 
L 1101.014376 -242.739119 
L 1101.570089 -242.971272 
L 1102.089416 -243.203424 
L 1102.572835 -243.435577 
L 1103.021075 -243.667729 
L 1103.435086 -243.899882 
L 1103.81601 -244.132034 
L 1110.18399 -244.132034 
L 1110.18399 -244.132034 
L 1110.564914 -243.899882 
L 1110.978925 -243.667729 
L 1111.427165 -243.435577 
L 1111.910584 -243.203424 
L 1112.429911 -242.971272 
L 1112.985624 -242.739119 
L 1113.577924 -242.506967 
L 1114.206708 -242.274815 
L 1114.871549 -242.042662 
L 1115.571676 -241.81051 
L 1116.305962 -241.578357 
L 1117.072915 -241.346205 
L 1117.870675 -241.114053 
L 1118.697019 -240.8819 
L 1119.549369 -240.649748 
L 1120.42481 -240.417595 
L 1121.320112 -240.185443 
L 1122.231763 -239.953291 
L 1123.156003 -239.721138 
L 1124.088867 -239.488986 
L 1125.026231 -239.256833 
L 1125.963863 -239.024681 
L 1126.89748 -238.792528 
L 1127.822802 -238.560376 
L 1128.735607 -238.328224 
L 1129.631791 -238.096071 
L 1130.507419 -237.863919 
L 1131.358775 -237.631766 
L 1132.182413 -237.399614 
L 1132.975188 -237.167462 
L 1133.734297 -236.935309 
L 1134.457299 -236.703157 
L 1135.14213 -236.471004 
L 1135.787114 -236.238852 
L 1136.390959 -236.006699 
L 1136.95274 -235.774547 
L 1137.471888 -235.542395 
L 1137.948155 -235.310242 
L 1138.381577 -235.07809 
L 1138.772438 -234.845937 
L 1139.121219 -234.613785 
L 1139.428547 -234.381633 
L 1139.695149 -234.14948 
L 1139.921796 -233.917328 
L 1140.109254 -233.685175 
L 1140.258242 -233.453023 
L 1140.369386 -233.22087 
L 1140.443189 -232.988718 
L 1140.48 -232.756566 
L 1140.48 -232.524413 
L 1140.443189 -232.292261 
L 1140.369386 -232.060108 
L 1140.258242 -231.827956 
L 1140.109254 -231.595804 
L 1139.921796 -231.363651 
L 1139.695149 -231.131499 
L 1139.428547 -230.899346 
L 1139.121219 -230.667194 
L 1138.772438 -230.435042 
L 1138.381577 -230.202889 
L 1137.948155 -229.970737 
L 1137.471888 -229.738584 
L 1136.95274 -229.506432 
L 1136.390959 -229.274279 
L 1135.787114 -229.042127 
L 1135.14213 -228.809975 
L 1134.457299 -228.577822 
L 1133.734297 -228.34567 
L 1132.975188 -228.113517 
L 1132.182413 -227.881365 
L 1131.358775 -227.649213 
L 1130.507419 -227.41706 
L 1129.631791 -227.184908 
L 1128.735607 -226.952755 
L 1127.822802 -226.720603 
L 1126.89748 -226.48845 
L 1125.963863 -226.256298 
L 1125.026231 -226.024146 
L 1124.088867 -225.791993 
L 1123.156003 -225.559841 
L 1122.231763 -225.327688 
L 1121.320112 -225.095536 
L 1120.42481 -224.863384 
L 1119.549369 -224.631231 
L 1118.697019 -224.399079 
L 1117.870675 -224.166926 
L 1117.072915 -223.934774 
L 1116.305962 -223.702621 
L 1115.571676 -223.470469 
L 1114.871549 -223.238317 
L 1114.206708 -223.006164 
L 1113.577924 -222.774012 
L 1112.985624 -222.541859 
L 1112.429911 -222.309707 
L 1111.910584 -222.077555 
L 1111.427165 -221.845402 
L 1110.978925 -221.61325 
L 1110.564914 -221.381097 
L 1110.18399 -221.148945 
z
" style="stroke: #595959; stroke-width: 1.5"/>
                </defs>
                <g clip-path="url(#pa2c7eddadd)">
                    <use xlink:href="#m6f5104da2e" x="0" y="720"
                         style="fill: #95a3c3; stroke: #595959; stroke-width: 1.5"/>
                </g>
            </g>
            <g id="PolyCollection_4">
                <defs>
                    <path id="mf8c3a5a9d7" d="M 1449.167649 -104.4
L 1434.432351 -104.4 
L 1433.02757 -109.490909 
L 1431.416577 -114.581818 
L 1429.581943 -119.672727 
L 1427.507217 -124.763636 
L 1425.17746 -129.854545 
L 1422.579812 -134.945455 
L 1419.704073 -140.036364 
L 1416.543286 -145.127273 
L 1413.094297 -150.218182 
L 1409.358262 -155.309091 
L 1405.341088 -160.4 
L 1401.053783 -165.490909 
L 1396.512684 -170.581818 
L 1391.739557 -175.672727 
L 1386.761541 -180.763636 
L 1381.610947 -185.854545 
L 1376.32488 -190.945455 
L 1370.944717 -196.036364 
L 1365.515427 -201.127273 
L 1360.08477 -206.218182 
L 1354.702377 -211.309091 
L 1349.418754 -216.4 
L 1344.284238 -221.490909 
L 1339.347929 -226.581818 
L 1334.656649 -231.672727 
L 1330.253942 -236.763636 
L 1326.179161 -241.854545 
L 1322.466658 -246.945455 
L 1319.145107 -252.036364 
L 1316.236963 -257.127273 
L 1313.758084 -262.218182 
L 1311.717502 -267.309091 
L 1310.117352 -272.4 
L 1308.952951 -277.490909 
L 1308.213016 -282.581818 
L 1307.88 -287.672727 
L 1307.930557 -292.763636 
L 1308.336088 -297.854545 
L 1309.063386 -302.945455 
L 1310.075351 -308.036364 
L 1311.331759 -313.127273 
L 1312.7901 -318.218182 
L 1314.406444 -323.309091 
L 1316.13635 -328.4 
L 1317.935799 -333.490909 
L 1319.762134 -338.581818 
L 1321.575003 -343.672727 
L 1323.337281 -348.763636 
L 1325.015949 -353.854545 
L 1326.582921 -358.945455 
L 1328.015766 -364.036364 
L 1329.298331 -369.127273 
L 1330.42121 -374.218182 
L 1331.382054 -379.309091 
L 1332.185689 -384.4 
L 1332.844025 -389.490909 
L 1333.375758 -394.581818 
L 1333.805848 -399.672727 
L 1334.164789 -404.763636 
L 1334.487686 -409.854545 
L 1334.813164 -414.945455 
L 1335.182136 -420.036364 
L 1335.636488 -425.127273 
L 1336.217707 -430.218182 
L 1336.965516 -435.309091 
L 1337.916556 -440.4 
L 1339.103176 -445.490909 
L 1340.552365 -450.581818 
L 1342.284873 -455.672727 
L 1344.314543 -460.763636 
L 1346.647889 -465.854545 
L 1349.283919 -470.945455 
L 1352.214216 -476.036364 
L 1355.423255 -481.127273 
L 1358.888946 -486.218182 
L 1362.58338 -491.309091 
L 1366.473721 -496.4 
L 1370.523238 -501.490909 
L 1374.692407 -506.581818 
L 1378.940047 -511.672727 
L 1383.224453 -516.763636 
L 1387.504485 -521.854545 
L 1391.740565 -526.945455 
L 1395.895574 -532.036364 
L 1399.935602 -537.127273 
L 1403.830552 -542.218182 
L 1407.554589 -547.309091 
L 1411.086415 -552.4 
L 1414.409397 -557.490909 
L 1417.511543 -562.581818 
L 1420.385351 -567.672727 
L 1423.02754 -572.763636 
L 1425.438692 -577.854545 
L 1427.622829 -582.945455 
L 1429.586932 -588.036364 
L 1431.340449 -593.127273 
L 1432.894786 -598.218182 
L 1434.262814 -603.309091 
L 1435.458405 -608.4 
L 1448.141595 -608.4 
L 1448.141595 -608.4 
L 1449.337186 -603.309091 
L 1450.705214 -598.218182 
L 1452.259551 -593.127273 
L 1454.013068 -588.036364 
L 1455.977171 -582.945455 
L 1458.161308 -577.854545 
L 1460.57246 -572.763636 
L 1463.214649 -567.672727 
L 1466.088457 -562.581818 
L 1469.190603 -557.490909 
L 1472.513585 -552.4 
L 1476.045411 -547.309091 
L 1479.769448 -542.218182 
L 1483.664398 -537.127273 
L 1487.704426 -532.036364 
L 1491.859435 -526.945455 
L 1496.095515 -521.854545 
L 1500.375547 -516.763636 
L 1504.659953 -511.672727 
L 1508.907593 -506.581818 
L 1513.076762 -501.490909 
L 1517.126279 -496.4 
L 1521.01662 -491.309091 
L 1524.711054 -486.218182 
L 1528.176745 -481.127273 
L 1531.385784 -476.036364 
L 1534.316081 -470.945455 
L 1536.952111 -465.854545 
L 1539.285457 -460.763636 
L 1541.315127 -455.672727 
L 1543.047635 -450.581818 
L 1544.496824 -445.490909 
L 1545.683444 -440.4 
L 1546.634484 -435.309091 
L 1547.382293 -430.218182 
L 1547.963512 -425.127273 
L 1548.417864 -420.036364 
L 1548.786836 -414.945455 
L 1549.112314 -409.854545 
L 1549.435211 -404.763636 
L 1549.794152 -399.672727 
L 1550.224242 -394.581818 
L 1550.755975 -389.490909 
L 1551.414311 -384.4 
L 1552.217946 -379.309091 
L 1553.17879 -374.218182 
L 1554.301669 -369.127273 
L 1555.584234 -364.036364 
L 1557.017079 -358.945455 
L 1558.584051 -353.854545 
L 1560.262719 -348.763636 
L 1562.024997 -343.672727 
L 1563.837866 -338.581818 
L 1565.664201 -333.490909 
L 1567.46365 -328.4 
L 1569.193556 -323.309091 
L 1570.8099 -318.218182 
L 1572.268241 -313.127273 
L 1573.524649 -308.036364 
L 1574.536614 -302.945455 
L 1575.263912 -297.854545 
L 1575.669443 -292.763636 
L 1575.72 -287.672727 
L 1575.386984 -282.581818 
L 1574.647049 -277.490909 
L 1573.482648 -272.4 
L 1571.882498 -267.309091 
L 1569.841916 -262.218182 
L 1567.363037 -257.127273 
L 1564.454893 -252.036364 
L 1561.133342 -246.945455 
L 1557.420839 -241.854545 
L 1553.346058 -236.763636 
L 1548.943351 -231.672727 
L 1544.252071 -226.581818 
L 1539.315762 -221.490909 
L 1534.181246 -216.4 
L 1528.897623 -211.309091 
L 1523.51523 -206.218182 
L 1518.084573 -201.127273 
L 1512.655283 -196.036364 
L 1507.27512 -190.945455 
L 1501.989053 -185.854545 
L 1496.838459 -180.763636 
L 1491.860443 -175.672727 
L 1487.087316 -170.581818 
L 1482.546217 -165.490909 
L 1478.258912 -160.4 
L 1474.241738 -155.309091 
L 1470.505703 -150.218182 
L 1467.056714 -145.127273 
L 1463.895927 -140.036364 
L 1461.020188 -134.945455 
L 1458.42254 -129.854545 
L 1456.092783 -124.763636 
L 1454.018057 -119.672727 
L 1452.183423 -114.581818 
L 1450.57243 -109.490909 
L 1449.167649 -104.4 
z
" style="stroke: #595959; stroke-width: 1.5"/>
                </defs>
                <g clip-path="url(#pa2c7eddadd)">
                    <use xlink:href="#mf8c3a5a9d7" x="0" y="720"
                         style="fill: #db96c0; stroke: #595959; stroke-width: 1.5"/>
                </g>
            </g>
            <g id="PolyCollection_5">
                <defs>
                    <path id="m05f9dc32be" d="M 1780.487929 -207.024204
L 1772.712071 -207.024204 
L 1771.921678 -208.087305 
L 1771.007289 -209.150405 
L 1769.957108 -210.213506 
L 1768.759577 -211.276607 
L 1767.403622 -212.339707 
L 1765.878898 -213.402808 
L 1764.176042 -214.465909 
L 1762.286899 -215.529009 
L 1760.204748 -216.59211 
L 1757.924494 -217.655211 
L 1755.442827 -218.718312 
L 1752.758363 -219.781412 
L 1749.871741 -220.844513 
L 1746.785698 -221.907614 
L 1743.505124 -222.970714 
L 1740.037097 -224.033815 
L 1736.390909 -225.096916 
L 1732.578096 -226.160016 
L 1728.612473 -227.223117 
L 1724.510186 -228.286218 
L 1720.289768 -229.349318 
L 1715.972222 -230.412419 
L 1711.581097 -231.47552 
L 1707.142573 -232.53862 
L 1702.685519 -233.601721 
L 1698.24152 -234.664822 
L 1693.844847 -235.727922 
L 1689.532353 -236.791023 
L 1685.343266 -237.854124 
L 1681.318877 -238.917224 
L 1677.502094 -239.980325 
L 1673.936863 -241.043426 
L 1670.667451 -242.106526 
L 1667.737609 -243.169627 
L 1665.189618 -244.232728 
L 1663.063247 -245.295828 
L 1661.394656 -246.358929 
L 1660.215293 -247.42203 
L 1659.550799 -248.48513 
L 1659.42 -249.548231 
L 1659.834013 -250.611332 
L 1660.795514 -251.674432 
L 1662.298208 -252.737533 
L 1664.326544 -253.800634 
L 1666.855679 -254.863734 
L 1669.851734 -255.926835 
L 1673.272317 -256.989936 
L 1677.067335 -258.053036 
L 1681.180048 -259.116137 
L 1685.548359 -260.179238 
L 1690.106282 -261.242338 
L 1694.785554 -262.305439 
L 1699.517335 -263.36854 
L 1704.233923 -264.431641 
L 1708.870454 -265.494741 
L 1713.366504 -266.557842 
L 1717.667551 -267.620943 
L 1721.726241 -268.684043 
L 1725.503427 -269.747144 
L 1728.968941 -270.810245 
L 1732.102068 -271.873345 
L 1734.891734 -272.936446 
L 1737.336374 -273.999547 
L 1739.443525 -275.062647 
L 1741.229131 -276.125748 
L 1742.716613 -277.188849 
L 1743.935733 -278.251949 
L 1744.921289 -279.31505 
L 1745.711713 -280.378151 
L 1746.347601 -281.441251 
L 1746.870239 -282.504352 
L 1747.320192 -283.567453 
L 1747.73598 -284.630553 
L 1748.152906 -285.693654 
L 1748.602076 -286.756755 
L 1749.10962 -287.819855 
L 1749.696157 -288.882956 
L 1750.3765 -289.946057 
L 1751.1596 -291.009157 
L 1752.048722 -292.072258 
L 1753.041827 -293.135359 
L 1754.132128 -294.198459 
L 1755.308789 -295.26156 
L 1756.557723 -296.324661 
L 1757.862448 -297.387761 
L 1759.204953 -298.450862 
L 1760.566549 -299.513963 
L 1761.928648 -300.577063 
L 1763.27347 -301.640164 
L 1764.58462 -302.703265 
L 1765.847564 -303.766365 
L 1767.049952 -304.829466 
L 1768.18183 -305.892567 
L 1769.235714 -306.955668 
L 1770.206566 -308.018768 
L 1771.091668 -309.081869 
L 1771.890424 -310.14497 
L 1772.604106 -311.20807 
L 1773.235563 -312.271171 
L 1779.964437 -312.271171 
L 1779.964437 -312.271171 
L 1780.595894 -311.20807 
L 1781.309576 -310.14497 
L 1782.108332 -309.081869 
L 1782.993434 -308.018768 
L 1783.964286 -306.955668 
L 1785.01817 -305.892567 
L 1786.150048 -304.829466 
L 1787.352436 -303.766365 
L 1788.61538 -302.703265 
L 1789.92653 -301.640164 
L 1791.271352 -300.577063 
L 1792.633451 -299.513963 
L 1793.995047 -298.450862 
L 1795.337552 -297.387761 
L 1796.642277 -296.324661 
L 1797.891211 -295.26156 
L 1799.067872 -294.198459 
L 1800.158173 -293.135359 
L 1801.151278 -292.072258 
L 1802.0404 -291.009157 
L 1802.8235 -289.946057 
L 1803.503843 -288.882956 
L 1804.09038 -287.819855 
L 1804.597924 -286.756755 
L 1805.047094 -285.693654 
L 1805.46402 -284.630553 
L 1805.879808 -283.567453 
L 1806.329761 -282.504352 
L 1806.852399 -281.441251 
L 1807.488287 -280.378151 
L 1808.278711 -279.31505 
L 1809.264267 -278.251949 
L 1810.483387 -277.188849 
L 1811.970869 -276.125748 
L 1813.756475 -275.062647 
L 1815.863626 -273.999547 
L 1818.308266 -272.936446 
L 1821.097932 -271.873345 
L 1824.231059 -270.810245 
L 1827.696573 -269.747144 
L 1831.473759 -268.684043 
L 1835.532449 -267.620943 
L 1839.833496 -266.557842 
L 1844.329546 -265.494741 
L 1848.966077 -264.431641 
L 1853.682665 -263.36854 
L 1858.414446 -262.305439 
L 1863.093718 -261.242338 
L 1867.651641 -260.179238 
L 1872.019952 -259.116137 
L 1876.132665 -258.053036 
L 1879.927683 -256.989936 
L 1883.348266 -255.926835 
L 1886.344321 -254.863734 
L 1888.873456 -253.800634 
L 1890.901792 -252.737533 
L 1892.404486 -251.674432 
L 1893.365987 -250.611332 
L 1893.78 -249.548231 
L 1893.649201 -248.48513 
L 1892.984707 -247.42203 
L 1891.805344 -246.358929 
L 1890.136753 -245.295828 
L 1888.010382 -244.232728 
L 1885.462391 -243.169627 
L 1882.532549 -242.106526 
L 1879.263137 -241.043426 
L 1875.697906 -239.980325 
L 1871.881123 -238.917224 
L 1867.856734 -237.854124 
L 1863.667647 -236.791023 
L 1859.355153 -235.727922 
L 1854.95848 -234.664822 
L 1850.514481 -233.601721 
L 1846.057427 -232.53862 
L 1841.618903 -231.47552 
L 1837.227778 -230.412419 
L 1832.910232 -229.349318 
L 1828.689814 -228.286218 
L 1824.587527 -227.223117 
L 1820.621904 -226.160016 
L 1816.809091 -225.096916 
L 1813.162903 -224.033815 
L 1809.694876 -222.970714 
L 1806.414302 -221.907614 
L 1803.328259 -220.844513 
L 1800.441637 -219.781412 
L 1797.757173 -218.718312 
L 1795.275506 -217.655211 
L 1792.995252 -216.59211 
L 1790.913101 -215.529009 
L 1789.023958 -214.465909 
L 1787.321102 -213.402808 
L 1785.796378 -212.339707 
L 1784.440423 -211.276607 
L 1783.242892 -210.213506 
L 1782.192711 -209.150405 
L 1781.278322 -208.087305 
L 1780.487929 -207.024204 
z
" style="stroke: #595959; stroke-width: 1.5"/>
                </defs>
                <g clip-path="url(#pa2c7eddadd)">
                    <use xlink:href="#m05f9dc32be" x="0" y="720"
                         style="fill: #a2c865; stroke: #595959; stroke-width: 1.5"/>
                </g>
            </g>
            <g id="matplotlib.axis_1">
                <g id="xtick_1">
                    <g id="line2d_1">
                        <defs>
                            <path id="mfe914ca71c" d="M 0 0
L 0 3.5 
" style="stroke: #000000; stroke-width: 0.8"/>
                        </defs>
                        <g>
                            <use xlink:href="#mfe914ca71c" x="437.4" y="640.8"
                                 style="stroke: #000000; stroke-width: 0.8"/>
                        </g>
                    </g>
                    <g id="text_1">
                        <!-- 1 -->
                        <g transform="translate(431.0375 662.996875)scale(0.2 -0.2)">
                            <defs>
                                <path id="DejaVuSans-31" d="M 794 531
L 1825 531 
L 1825 4091 
L 703 3866 
L 703 4441 
L 1819 4666 
L 2450 4666 
L 2450 531 
L 3481 531 
L 3481 0 
L 794 0 
L 794 531 
z
" transform="scale(0.015625)"/>
                            </defs>
                            <use xlink:href="#DejaVuSans-31"/>
                        </g>
                    </g>
                </g>
                <g id="xtick_2">
                    <g id="line2d_2">
                        <g>
                            <use xlink:href="#mfe914ca71c" x="772.2" y="640.8"
                                 style="stroke: #000000; stroke-width: 0.8"/>
                        </g>
                    </g>
                    <g id="text_2">
                        <!-- 2 -->
                        <g transform="translate(765.8375 662.996875)scale(0.2 -0.2)">
                            <defs>
                                <path id="DejaVuSans-32" d="M 1228 531
L 3431 531 
L 3431 0 
L 469 0 
L 469 531 
Q 828 903 1448 1529 
Q 2069 2156 2228 2338 
Q 2531 2678 2651 2914 
Q 2772 3150 2772 3378 
Q 2772 3750 2511 3984 
Q 2250 4219 1831 4219 
Q 1534 4219 1204 4116 
Q 875 4013 500 3803 
L 500 4441 
Q 881 4594 1212 4672 
Q 1544 4750 1819 4750 
Q 2544 4750 2975 4387 
Q 3406 4025 3406 3419 
Q 3406 3131 3298 2873 
Q 3191 2616 2906 2266 
Q 2828 2175 2409 1742 
Q 1991 1309 1228 531 
z
" transform="scale(0.015625)"/>
                            </defs>
                            <use xlink:href="#DejaVuSans-32"/>
                        </g>
                    </g>
                </g>
                <g id="xtick_3">
                    <g id="line2d_3">
                        <g>
                            <use xlink:href="#mfe914ca71c" x="1107" y="640.8"
                                 style="stroke: #000000; stroke-width: 0.8"/>
                        </g>
                    </g>
                    <g id="text_3">
                        <!-- 3 -->
                        <g transform="translate(1100.6375 662.996875)scale(0.2 -0.2)">
                            <defs>
                                <path id="DejaVuSans-33" d="M 2597 2516
Q 3050 2419 3304 2112 
Q 3559 1806 3559 1356 
Q 3559 666 3084 287 
Q 2609 -91 1734 -91 
Q 1441 -91 1130 -33 
Q 819 25 488 141 
L 488 750 
Q 750 597 1062 519 
Q 1375 441 1716 441 
Q 2309 441 2620 675 
Q 2931 909 2931 1356 
Q 2931 1769 2642 2001 
Q 2353 2234 1838 2234 
L 1294 2234 
L 1294 2753 
L 1863 2753 
Q 2328 2753 2575 2939 
Q 2822 3125 2822 3475 
Q 2822 3834 2567 4026 
Q 2313 4219 1838 4219 
Q 1578 4219 1281 4162 
Q 984 4106 628 3988 
L 628 4550 
Q 988 4650 1302 4700 
Q 1616 4750 1894 4750 
Q 2613 4750 3031 4423 
Q 3450 4097 3450 3541 
Q 3450 3153 3228 2886 
Q 3006 2619 2597 2516 
z
" transform="scale(0.015625)"/>
                            </defs>
                            <use xlink:href="#DejaVuSans-33"/>
                        </g>
                    </g>
                </g>
                <g id="xtick_4">
                    <g id="line2d_4">
                        <g>
                            <use xlink:href="#mfe914ca71c" x="1441.8" y="640.8"
                                 style="stroke: #000000; stroke-width: 0.8"/>
                        </g>
                    </g>
                    <g id="text_4">
                        <!-- 4 -->
                        <g transform="translate(1435.4375 662.996875)scale(0.2 -0.2)">
                            <defs>
                                <path id="DejaVuSans-34" d="M 2419 4116
L 825 1625 
L 2419 1625 
L 2419 4116 
z
M 2253 4666 
L 3047 4666 
L 3047 1625 
L 3713 1625 
L 3713 1100 
L 3047 1100 
L 3047 0 
L 2419 0 
L 2419 1100 
L 313 1100 
L 313 1709 
L 2253 4666 
z
" transform="scale(0.015625)"/>
                            </defs>
                            <use xlink:href="#DejaVuSans-34"/>
                        </g>
                    </g>
                </g>
                <g id="xtick_5">
                    <g id="line2d_5">
                        <g>
                            <use xlink:href="#mfe914ca71c" x="1776.6" y="640.8"
                                 style="stroke: #000000; stroke-width: 0.8"/>
                        </g>
                    </g>
                    <g id="text_5">
                        <!-- 5 -->
                        <g transform="translate(1770.2375 662.996875)scale(0.2 -0.2)">
                            <defs>
                                <path id="DejaVuSans-35" d="M 691 4666
L 3169 4666 
L 3169 4134 
L 1269 4134 
L 1269 2991 
Q 1406 3038 1543 3061 
Q 1681 3084 1819 3084 
Q 2600 3084 3056 2656 
Q 3513 2228 3513 1497 
Q 3513 744 3044 326 
Q 2575 -91 1722 -91 
Q 1428 -91 1123 -41 
Q 819 9 494 109 
L 494 744 
Q 775 591 1075 516 
Q 1375 441 1709 441 
Q 2250 441 2565 725 
Q 2881 1009 2881 1497 
Q 2881 1984 2565 2268 
Q 2250 2553 1709 2553 
Q 1456 2553 1204 2497 
Q 953 2441 691 2322 
L 691 4666 
z
" transform="scale(0.015625)"/>
                            </defs>
                            <use xlink:href="#DejaVuSans-35"/>
                        </g>
                    </g>
                </g>
                <g id="text_6">
                    <!-- cluster -->
                    <g transform="translate(1072.992188 686.353125)scale(0.2 -0.2)">
                        <defs>
                            <path id="DejaVuSans-63" d="M 3122 3366
L 3122 2828 
Q 2878 2963 2633 3030 
Q 2388 3097 2138 3097 
Q 1578 3097 1268 2742 
Q 959 2388 959 1747 
Q 959 1106 1268 751 
Q 1578 397 2138 397 
Q 2388 397 2633 464 
Q 2878 531 3122 666 
L 3122 134 
Q 2881 22 2623 -34 
Q 2366 -91 2075 -91 
Q 1284 -91 818 406 
Q 353 903 353 1747 
Q 353 2603 823 3093 
Q 1294 3584 2113 3584 
Q 2378 3584 2631 3529 
Q 2884 3475 3122 3366 
z
" transform="scale(0.015625)"/>
                            <path id="DejaVuSans-6c" d="M 603 4863
L 1178 4863 
L 1178 0 
L 603 0 
L 603 4863 
z
" transform="scale(0.015625)"/>
                            <path id="DejaVuSans-75" d="M 544 1381
L 544 3500 
L 1119 3500 
L 1119 1403 
Q 1119 906 1312 657 
Q 1506 409 1894 409 
Q 2359 409 2629 706 
Q 2900 1003 2900 1516 
L 2900 3500 
L 3475 3500 
L 3475 0 
L 2900 0 
L 2900 538 
Q 2691 219 2414 64 
Q 2138 -91 1772 -91 
Q 1169 -91 856 284 
Q 544 659 544 1381 
z
M 1991 3584 
L 1991 3584 
z
" transform="scale(0.015625)"/>
                            <path id="DejaVuSans-73" d="M 2834 3397
L 2834 2853 
Q 2591 2978 2328 3040 
Q 2066 3103 1784 3103 
Q 1356 3103 1142 2972 
Q 928 2841 928 2578 
Q 928 2378 1081 2264 
Q 1234 2150 1697 2047 
L 1894 2003 
Q 2506 1872 2764 1633 
Q 3022 1394 3022 966 
Q 3022 478 2636 193 
Q 2250 -91 1575 -91 
Q 1294 -91 989 -36 
Q 684 19 347 128 
L 347 722 
Q 666 556 975 473 
Q 1284 391 1588 391 
Q 1994 391 2212 530 
Q 2431 669 2431 922 
Q 2431 1156 2273 1281 
Q 2116 1406 1581 1522 
L 1381 1569 
Q 847 1681 609 1914 
Q 372 2147 372 2553 
Q 372 3047 722 3315 
Q 1072 3584 1716 3584 
Q 2034 3584 2315 3537 
Q 2597 3491 2834 3397 
z
" transform="scale(0.015625)"/>
                            <path id="DejaVuSans-74" d="M 1172 4494
L 1172 3500 
L 2356 3500 
L 2356 3053 
L 1172 3053 
L 1172 1153 
Q 1172 725 1289 603 
Q 1406 481 1766 481 
L 2356 481 
L 2356 0 
L 1766 0 
Q 1100 0 847 248 
Q 594 497 594 1153 
L 594 3053 
L 172 3053 
L 172 3500 
L 594 3500 
L 594 4494 
L 1172 4494 
z
" transform="scale(0.015625)"/>
                            <path id="DejaVuSans-65" d="M 3597 1894
L 3597 1613 
L 953 1613 
Q 991 1019 1311 708 
Q 1631 397 2203 397 
Q 2534 397 2845 478 
Q 3156 559 3463 722 
L 3463 178 
Q 3153 47 2828 -22 
Q 2503 -91 2169 -91 
Q 1331 -91 842 396 
Q 353 884 353 1716 
Q 353 2575 817 3079 
Q 1281 3584 2069 3584 
Q 2775 3584 3186 3129 
Q 3597 2675 3597 1894 
z
M 3022 2063 
Q 3016 2534 2758 2815 
Q 2500 3097 2075 3097 
Q 1594 3097 1305 2825 
Q 1016 2553 972 2059 
L 3022 2063 
z
" transform="scale(0.015625)"/>
                            <path id="DejaVuSans-72" d="M 2631 2963
Q 2534 3019 2420 3045 
Q 2306 3072 2169 3072 
Q 1681 3072 1420 2755 
Q 1159 2438 1159 1844 
L 1159 0 
L 581 0 
L 581 3500 
L 1159 3500 
L 1159 2956 
Q 1341 3275 1631 3429 
Q 1922 3584 2338 3584 
Q 2397 3584 2469 3576 
Q 2541 3569 2628 3553 
L 2631 2963 
z
" transform="scale(0.015625)"/>
                        </defs>
                        <use xlink:href="#DejaVuSans-63"/>
                        <use xlink:href="#DejaVuSans-6c" x="54.980469"/>
                        <use xlink:href="#DejaVuSans-75" x="82.763672"/>
                        <use xlink:href="#DejaVuSans-73" x="146.142578"/>
                        <use xlink:href="#DejaVuSans-74" x="198.242188"/>
                        <use xlink:href="#DejaVuSans-65" x="237.451172"/>
                        <use xlink:href="#DejaVuSans-72" x="298.974609"/>
                    </g>
                </g>
            </g>
            <g id="matplotlib.axis_2">
                <g id="ytick_1">
                    <g id="line2d_6">
                        <defs>
                            <path id="md44c710d96" d="M 0 0
L -3.5 0 
" style="stroke: #000000; stroke-width: 0.8"/>
                        </defs>
                        <g>
                            <use xlink:href="#md44c710d96" x="270" y="625.97416"
                                 style="stroke: #000000; stroke-width: 0.8"/>
                        </g>
                    </g>
                    <g id="text_7">
                        <!-- 0 -->
                        <g transform="translate(250.275 633.572597)scale(0.2 -0.2)">
                            <defs>
                                <path id="DejaVuSans-30" d="M 2034 4250
Q 1547 4250 1301 3770 
Q 1056 3291 1056 2328 
Q 1056 1369 1301 889 
Q 1547 409 2034 409 
Q 2525 409 2770 889 
Q 3016 1369 3016 2328 
Q 3016 3291 2770 3770 
Q 2525 4250 2034 4250 
z
M 2034 4750 
Q 2819 4750 3233 4129 
Q 3647 3509 3647 2328 
Q 3647 1150 3233 529 
Q 2819 -91 2034 -91 
Q 1250 -91 836 529 
Q 422 1150 422 2328 
Q 422 3509 836 4129 
Q 1250 4750 2034 4750 
z
" transform="scale(0.015625)"/>
                            </defs>
                            <use xlink:href="#DejaVuSans-30"/>
                        </g>
                    </g>
                </g>
                <g id="ytick_2">
                    <g id="line2d_7">
                        <g>
                            <use xlink:href="#md44c710d96" x="270" y="508.600633"
                                 style="stroke: #000000; stroke-width: 0.8"/>
                        </g>
                    </g>
                    <g id="text_8">
                        <!-- 5 -->
                        <g transform="translate(250.275 516.199071)scale(0.2 -0.2)">
                            <use xlink:href="#DejaVuSans-35"/>
                        </g>
                    </g>
                </g>
                <g id="ytick_3">
                    <g id="line2d_8">
                        <g>
                            <use xlink:href="#md44c710d96" x="270" y="391.227107"
                                 style="stroke: #000000; stroke-width: 0.8"/>
                        </g>
                    </g>
                    <g id="text_9">
                        <!-- 10 -->
                        <g transform="translate(237.55 398.825545)scale(0.2 -0.2)">
                            <use xlink:href="#DejaVuSans-31"/>
                            <use xlink:href="#DejaVuSans-30" x="63.623047"/>
                        </g>
                    </g>
                </g>
                <g id="ytick_4">
                    <g id="line2d_9">
                        <g>
                            <use xlink:href="#md44c710d96" x="270" y="273.853581"
                                 style="stroke: #000000; stroke-width: 0.8"/>
                        </g>
                    </g>
                    <g id="text_10">
                        <!-- 15 -->
                        <g transform="translate(237.55 281.452018)scale(0.2 -0.2)">
                            <use xlink:href="#DejaVuSans-31"/>
                            <use xlink:href="#DejaVuSans-35" x="63.623047"/>
                        </g>
                    </g>
                </g>
                <g id="ytick_5">
                    <g id="line2d_10">
                        <g>
                            <use xlink:href="#md44c710d96" x="270" y="156.480055"
                                 style="stroke: #000000; stroke-width: 0.8"/>
                        </g>
                    </g>
                    <g id="text_11">
                        <!-- 20 -->
                        <g transform="translate(237.55 164.078492)scale(0.2 -0.2)">
                            <use xlink:href="#DejaVuSans-32"/>
                            <use xlink:href="#DejaVuSans-30" x="63.623047"/>
                        </g>
                    </g>
                </g>
                <g id="text_12">
                    <!-- log -->
                    <g transform="translate(229.390625 378.845312)rotate(-90)scale(0.2 -0.2)">
                        <defs>
                            <path id="DejaVuSans-6f" d="M 1959 3097
Q 1497 3097 1228 2736 
Q 959 2375 959 1747 
Q 959 1119 1226 758 
Q 1494 397 1959 397 
Q 2419 397 2687 759 
Q 2956 1122 2956 1747 
Q 2956 2369 2687 2733 
Q 2419 3097 1959 3097 
z
M 1959 3584 
Q 2709 3584 3137 3096 
Q 3566 2609 3566 1747 
Q 3566 888 3137 398 
Q 2709 -91 1959 -91 
Q 1206 -91 779 398 
Q 353 888 353 1747 
Q 353 2609 779 3096 
Q 1206 3584 1959 3584 
z
" transform="scale(0.015625)"/>
                            <path id="DejaVuSans-67" d="M 2906 1791
Q 2906 2416 2648 2759 
Q 2391 3103 1925 3103 
Q 1463 3103 1205 2759 
Q 947 2416 947 1791 
Q 947 1169 1205 825 
Q 1463 481 1925 481 
Q 2391 481 2648 825 
Q 2906 1169 2906 1791 
z
M 3481 434 
Q 3481 -459 3084 -895 
Q 2688 -1331 1869 -1331 
Q 1566 -1331 1297 -1286 
Q 1028 -1241 775 -1147 
L 775 -588 
Q 1028 -725 1275 -790 
Q 1522 -856 1778 -856 
Q 2344 -856 2625 -561 
Q 2906 -266 2906 331 
L 2906 616 
Q 2728 306 2450 153 
Q 2172 0 1784 0 
Q 1141 0 747 490 
Q 353 981 353 1791 
Q 353 2603 747 3093 
Q 1141 3584 1784 3584 
Q 2172 3584 2450 3431 
Q 2728 3278 2906 2969 
L 2906 3500 
L 3481 3500 
L 3481 434 
z
" transform="scale(0.015625)"/>
                        </defs>
                        <use xlink:href="#DejaVuSans-6c"/>
                        <use xlink:href="#DejaVuSans-6f" x="27.783203"/>
                        <use xlink:href="#DejaVuSans-67" x="88.964844"/>
                    </g>
                </g>
            </g>
            <g id="line2d_11">
                <path d="M 437.4 507.138157
L 437.4 384.760333 
" clip-path="url(#pa2c7eddadd)" style="fill: none; stroke: #595959; stroke-width: 1.5; stroke-linecap: square"/>
            </g>
            <g id="line2d_12">
                <path d="M 437.4 485.254761
L 437.4 405.2664 
" clip-path="url(#pa2c7eddadd)" style="fill: none; stroke: #595959; stroke-width: 4.5; stroke-linecap: square"/>
            </g>
            <g id="line2d_13">
                <path d="M 772.2 507.502015
L 772.2 481.857243 
" clip-path="url(#pa2c7eddadd)" style="fill: none; stroke: #595959; stroke-width: 1.5; stroke-linecap: square"/>
            </g>
            <g id="line2d_14">
                <path d="M 772.2 488.551814
L 772.2 470.237595 
" clip-path="url(#pa2c7eddadd)" style="fill: none; stroke: #595959; stroke-width: 4.5; stroke-linecap: square"/>
            </g>
            <g id="line2d_15">
                <path d="M 1107 490.678571
L 1107 484.04045 
" clip-path="url(#pa2c7eddadd)" style="fill: none; stroke: #595959; stroke-width: 1.5; stroke-linecap: square"/>
            </g>
            <g id="line2d_16">
                <path d="M 1107 489.019041
L 1107 485.699981 
" clip-path="url(#pa2c7eddadd)" style="fill: none; stroke: #595959; stroke-width: 4.5; stroke-linecap: square"/>
            </g>
            <g id="line2d_17">
                <path d="M 1441.8 489.232396
L 1441.8 237.967604 
" clip-path="url(#pa2c7eddadd)" style="fill: none; stroke: #595959; stroke-width: 1.5; stroke-linecap: square"/>
            </g>
            <g id="line2d_18">
                <path d="M 1441.8 452.006182
L 1441.8 288.288689 
" clip-path="url(#pa2c7eddadd)" style="fill: none; stroke: #595959; stroke-width: 4.5; stroke-linecap: square"/>
            </g>
            <g id="line2d_19">
                <path d="M 1776.6 488.772396
L 1776.6 460.196239 
" clip-path="url(#pa2c7eddadd)" style="fill: none; stroke: #595959; stroke-width: 1.5; stroke-linecap: square"/>
            </g>
            <g id="line2d_20">
                <path d="M 1776.6 475.923133
L 1776.6 463.216577 
" clip-path="url(#pa2c7eddadd)" style="fill: none; stroke: #595959; stroke-width: 4.5; stroke-linecap: square"/>
            </g>
            <g id="patch_3">
                <path d="M 270 640.8
L 270 86.4 
" style="fill: none; stroke: #000000; stroke-width: 0.8; stroke-linejoin: miter; stroke-linecap: square"/>
            </g>
            <g id="patch_4">
                <path d="M 1944 640.8
L 1944 86.4 
" style="fill: none; stroke: #000000; stroke-width: 0.8; stroke-linejoin: miter; stroke-linecap: square"/>
            </g>
            <g id="patch_5">
                <path d="M 270 640.8
L 1944 640.8 
" style="fill: none; stroke: #000000; stroke-width: 0.8; stroke-linejoin: miter; stroke-linecap: square"/>
            </g>
            <g id="patch_6">
                <path d="M 270 86.4
L 1944 86.4 
" style="fill: none; stroke: #000000; stroke-width: 0.8; stroke-linejoin: miter; stroke-linecap: square"/>
            </g>
            <g id="PathCollection_1">
                <defs>
                    <path id="m9b13b9c136" d="M 0 1.5
C 0.397805 1.5 0.77937 1.341951 1.06066 1.06066 
C 1.341951 0.77937 1.5 0.397805 1.5 0 
C 1.5 -0.397805 1.341951 -0.77937 1.06066 -1.06066 
C 0.77937 -1.341951 0.397805 -1.5 0 -1.5 
C -0.397805 -1.5 -0.77937 -1.341951 -1.06066 -1.06066 
C -1.341951 -0.77937 -1.5 -0.397805 -1.5 0 
C -1.5 0.397805 -1.341951 0.77937 -1.06066 1.06066 
C -0.77937 1.341951 -0.397805 1.5 0 1.5 
z
" style="stroke: #595959"/>
                </defs>
                <g clip-path="url(#pa2c7eddadd)">
                    <use xlink:href="#m9b13b9c136" x="437.4" y="465.081535" style="fill: #ffffff; stroke: #595959"/>
                </g>
            </g>
            <g id="PathCollection_2">
                <g clip-path="url(#pa2c7eddadd)">
                    <use xlink:href="#m9b13b9c136" x="772.2" y="482.046161" style="fill: #ffffff; stroke: #595959"/>
                </g>
            </g>
            <g id="PathCollection_3">
                <g clip-path="url(#pa2c7eddadd)">
                    <use xlink:href="#m9b13b9c136" x="1107" y="487.359511" style="fill: #ffffff; stroke: #595959"/>
                </g>
            </g>
            <g id="PathCollection_4">
                <g clip-path="url(#pa2c7eddadd)">
                    <use xlink:href="#m9b13b9c136" x="1441.8" y="389.126821" style="fill: #ffffff; stroke: #595959"/>
                </g>
            </g>
            <g id="PathCollection_5">
                <g clip-path="url(#pa2c7eddadd)">
                    <use xlink:href="#m9b13b9c136" x="1776.6" y="467.000796" style="fill: #ffffff; stroke: #595959"/>
                </g>
            </g>
            <g id="PathCollection_6">
                <defs>
                    <path id="C0_0_5132eacd8c" d="M 0 2.5
C 0.663008 2.5 1.29895 2.236584 1.767767 1.767767 
C 2.236584 1.29895 2.5 0.663008 2.5 -0 
C 2.5 -0.663008 2.236584 -1.29895 1.767767 -1.767767 
C 1.29895 -2.236584 0.663008 -2.5 0 -2.5 
C -0.663008 -2.5 -1.29895 -2.236584 -1.767767 -1.767767 
C -2.236584 -1.29895 -2.5 -0.663008 -2.5 0 
C -2.5 0.663008 -2.236584 1.29895 -1.767767 1.767767 
C -1.29895 2.236584 -0.663008 2.5 0 2.5 
z
"/>
                </defs>
                <g clip-path="url(#pa2c7eddadd)">
                    <use xlink:href="#C0_0_5132eacd8c" x="437.4" y="507.138157" style="fill: #1f77b4"/>
                </g>
                <g clip-path="url(#pa2c7eddadd)">
                    <use xlink:href="#C0_0_5132eacd8c" x="437.4" y="495.706233" style="fill: #1f77b4"/>
                </g>
                <g clip-path="url(#pa2c7eddadd)">
                    <use xlink:href="#C0_0_5132eacd8c" x="437.4" y="474.803288" style="fill: #1f77b4"/>
                </g>
                <g clip-path="url(#pa2c7eddadd)">
                    <use xlink:href="#C0_0_5132eacd8c" x="437.4" y="465.081535" style="fill: #1f77b4"/>
                </g>
                <g clip-path="url(#pa2c7eddadd)">
                    <use xlink:href="#C0_0_5132eacd8c" x="437.4" y="416.475255" style="fill: #1f77b4"/>
                </g>
                <g clip-path="url(#pa2c7eddadd)">
                    <use xlink:href="#C0_0_5132eacd8c" x="437.4" y="394.057545" style="fill: #1f77b4"/>
                </g>
                <g clip-path="url(#pa2c7eddadd)">
                    <use xlink:href="#C0_0_5132eacd8c" x="437.4" y="384.760333" style="fill: #1f77b4"/>
                </g>
            </g>
            <g id="PathCollection_7">
                <defs>
                    <path id="C1_0_15bbd56177" d="M 0 2.5
C 0.663008 2.5 1.29895 2.236584 1.767767 1.767767 
C 2.236584 1.29895 2.5 0.663008 2.5 -0 
C 2.5 -0.663008 2.236584 -1.29895 1.767767 -1.767767 
C 1.29895 -2.236584 0.663008 -2.5 0 -2.5 
C -0.663008 -2.5 -1.29895 -2.236584 -1.767767 -1.767767 
C -2.236584 -1.29895 -2.5 -0.663008 -2.5 0 
C -2.5 0.663008 -2.236584 1.29895 -1.767767 1.767767 
C -1.29895 2.236584 -0.663008 2.5 0 2.5 
z
"/>
                </defs>
                <g clip-path="url(#pa2c7eddadd)">
                    <use xlink:href="#C1_0_15bbd56177" x="772.2" y="507.502015" style="fill: #ff7f0e"/>
                </g>
                <g clip-path="url(#pa2c7eddadd)">
                    <use xlink:href="#C1_0_15bbd56177" x="772.2" y="482.23508" style="fill: #ff7f0e"/>
                </g>
                <g clip-path="url(#pa2c7eddadd)">
                    <use xlink:href="#C1_0_15bbd56177" x="766.965011" y="481.857243" style="fill: #ff7f0e"/>
                </g>
                <g clip-path="url(#pa2c7eddadd)">
                    <use xlink:href="#C1_0_15bbd56177" x="772.2" y="435.378652" style="fill: #ff7f0e"/>
                </g>
            </g>
            <g id="PathCollection_8">
                <defs>
                    <path id="C2_0_b3917535ce" d="M 0 2.5
C 0.663008 2.5 1.29895 2.236584 1.767767 1.767767 
C 2.236584 1.29895 2.5 0.663008 2.5 -0 
C 2.5 -0.663008 2.236584 -1.29895 1.767767 -1.767767 
C 1.29895 -2.236584 0.663008 -2.5 0 -2.5 
C -0.663008 -2.5 -1.29895 -2.236584 -1.767767 -1.767767 
C -2.236584 -1.29895 -2.5 -0.663008 -2.5 0 
C -2.5 0.663008 -2.236584 1.29895 -1.767767 1.767767 
C -1.29895 2.236584 -0.663008 2.5 0 2.5 
z
"/>
                </defs>
                <g clip-path="url(#pa2c7eddadd)">
                    <use xlink:href="#C2_0_b3917535ce" x="1107" y="490.678571" style="fill: #2ca02c"/>
                </g>
                <g clip-path="url(#pa2c7eddadd)">
                    <use xlink:href="#C2_0_b3917535ce" x="1107" y="484.04045" style="fill: #2ca02c"/>
                </g>
            </g>
            <g id="PathCollection_9">
                <defs>
                    <path id="C3_0_eb2b79535d" d="M 0 2.5
C 0.663008 2.5 1.29895 2.236584 1.767767 1.767767 
C 2.236584 1.29895 2.5 0.663008 2.5 -0 
C 2.5 -0.663008 2.236584 -1.29895 1.767767 -1.767767 
C 1.29895 -2.236584 0.663008 -2.5 0 -2.5 
C -0.663008 -2.5 -1.29895 -2.236584 -1.767767 -1.767767 
C -2.236584 -1.29895 -2.5 -0.663008 -2.5 0 
C -2.5 0.663008 -2.236584 1.29895 -1.767767 1.767767 
C -1.29895 2.236584 -0.663008 2.5 0 2.5 
z
"/>
                </defs>
                <g clip-path="url(#pa2c7eddadd)">
                    <use xlink:href="#C3_0_eb2b79535d" x="1441.8" y="489.232396" style="fill: #d62728"/>
                </g>
                <g clip-path="url(#pa2c7eddadd)">
                    <use xlink:href="#C3_0_eb2b79535d" x="1441.8" y="467.298046" style="fill: #d62728"/>
                </g>
                <g clip-path="url(#pa2c7eddadd)">
                    <use xlink:href="#C3_0_eb2b79535d" x="1441.8" y="446.908895" style="fill: #d62728"/>
                </g>
                <g clip-path="url(#pa2c7eddadd)">
                    <use xlink:href="#C3_0_eb2b79535d" x="1441.8" y="401.058274" style="fill: #d62728"/>
                </g>
                <g clip-path="url(#pa2c7eddadd)">
                    <use xlink:href="#C3_0_eb2b79535d" x="1441.8" y="377.195369" style="fill: #d62728"/>
                </g>
                <g clip-path="url(#pa2c7eddadd)">
                    <use xlink:href="#C3_0_eb2b79535d" x="1441.8" y="295.465451" style="fill: #d62728"/>
                </g>
                <g clip-path="url(#pa2c7eddadd)">
                    <use xlink:href="#C3_0_eb2b79535d" x="1441.8" y="266.758405" style="fill: #d62728"/>
                </g>
                <g clip-path="url(#pa2c7eddadd)">
                    <use xlink:href="#C3_0_eb2b79535d" x="1441.8" y="237.967604" style="fill: #d62728"/>
                </g>
            </g>
            <g id="PathCollection_10">
                <defs>
                    <path id="C4_0_d163ec1f8a" d="M 0 2.5
C 0.663008 2.5 1.29895 2.236584 1.767767 1.767767 
C 2.236584 1.29895 2.5 0.663008 2.5 -0 
C 2.5 -0.663008 2.236584 -1.29895 1.767767 -1.767767 
C 1.29895 -2.236584 0.663008 -2.5 0 -2.5 
C -0.663008 -2.5 -1.29895 -2.236584 -1.767767 -1.767767 
C -2.236584 -1.29895 -2.5 -0.663008 -2.5 0 
C -2.5 0.663008 -2.236584 1.29895 -1.767767 1.767767 
C -1.29895 2.236584 -0.663008 2.5 0 2.5 
z
"/>
                </defs>
                <g clip-path="url(#pa2c7eddadd)">
                    <use xlink:href="#C4_0_d163ec1f8a" x="1776.6" y="488.772396" style="fill: #9467bd"/>
                </g>
                <g clip-path="url(#pa2c7eddadd)">
                    <use xlink:href="#C4_0_d163ec1f8a" x="1776.6" y="477.525669" style="fill: #9467bd"/>
                </g>
                <g clip-path="url(#pa2c7eddadd)">
                    <use xlink:href="#C4_0_d163ec1f8a" x="1772.570473" y="474.320597" style="fill: #9467bd"/>
                </g>
                <g clip-path="url(#pa2c7eddadd)">
                    <use xlink:href="#C4_0_d163ec1f8a" x="1776.6" y="467.000796" style="fill: #9467bd"/>
                </g>
                <g clip-path="url(#pa2c7eddadd)">
                    <use xlink:href="#C4_0_d163ec1f8a" x="1771.411631" y="466.236914" style="fill: #9467bd"/>
                </g>
                <g clip-path="url(#pa2c7eddadd)">
                    <use xlink:href="#C4_0_d163ec1f8a" x="1776.6" y="460.196239" style="fill: #9467bd"/>
                </g>
                <g clip-path="url(#pa2c7eddadd)">
                    <use xlink:href="#C4_0_d163ec1f8a" x="1776.6" y="431.932229" style="fill: #9467bd"/>
                </g>
            </g>
            <g id="text_13">
                <!-- P values of Field Cognitive -->
                <g transform="translate(949.408125 80.4)scale(0.24 -0.24)">
                    <defs>
                        <path id="DejaVuSans-50" d="M 1259 4147
L 1259 2394 
L 2053 2394 
Q 2494 2394 2734 2622 
Q 2975 2850 2975 3272 
Q 2975 3691 2734 3919 
Q 2494 4147 2053 4147 
L 1259 4147 
z
M 628 4666 
L 2053 4666 
Q 2838 4666 3239 4311 
Q 3641 3956 3641 3272 
Q 3641 2581 3239 2228 
Q 2838 1875 2053 1875 
L 1259 1875 
L 1259 0 
L 628 0 
L 628 4666 
z
" transform="scale(0.015625)"/>
                        <path id="DejaVuSans-20" transform="scale(0.015625)"/>
                        <path id="DejaVuSans-76" d="M 191 3500
L 800 3500 
L 1894 563 
L 2988 3500 
L 3597 3500 
L 2284 0 
L 1503 0 
L 191 3500 
z
" transform="scale(0.015625)"/>
                        <path id="DejaVuSans-61" d="M 2194 1759
Q 1497 1759 1228 1600 
Q 959 1441 959 1056 
Q 959 750 1161 570 
Q 1363 391 1709 391 
Q 2188 391 2477 730 
Q 2766 1069 2766 1631 
L 2766 1759 
L 2194 1759 
z
M 3341 1997 
L 3341 0 
L 2766 0 
L 2766 531 
Q 2569 213 2275 61 
Q 1981 -91 1556 -91 
Q 1019 -91 701 211 
Q 384 513 384 1019 
Q 384 1609 779 1909 
Q 1175 2209 1959 2209 
L 2766 2209 
L 2766 2266 
Q 2766 2663 2505 2880 
Q 2244 3097 1772 3097 
Q 1472 3097 1187 3025 
Q 903 2953 641 2809 
L 641 3341 
Q 956 3463 1253 3523 
Q 1550 3584 1831 3584 
Q 2591 3584 2966 3190 
Q 3341 2797 3341 1997 
z
" transform="scale(0.015625)"/>
                        <path id="DejaVuSans-66" d="M 2375 4863
L 2375 4384 
L 1825 4384 
Q 1516 4384 1395 4259 
Q 1275 4134 1275 3809 
L 1275 3500 
L 2222 3500 
L 2222 3053 
L 1275 3053 
L 1275 0 
L 697 0 
L 697 3053 
L 147 3053 
L 147 3500 
L 697 3500 
L 697 3744 
Q 697 4328 969 4595 
Q 1241 4863 1831 4863 
L 2375 4863 
z
" transform="scale(0.015625)"/>
                        <path id="DejaVuSans-46" d="M 628 4666
L 3309 4666 
L 3309 4134 
L 1259 4134 
L 1259 2759 
L 3109 2759 
L 3109 2228 
L 1259 2228 
L 1259 0 
L 628 0 
L 628 4666 
z
" transform="scale(0.015625)"/>
                        <path id="DejaVuSans-69" d="M 603 3500
L 1178 3500 
L 1178 0 
L 603 0 
L 603 3500 
z
M 603 4863 
L 1178 4863 
L 1178 4134 
L 603 4134 
L 603 4863 
z
" transform="scale(0.015625)"/>
                        <path id="DejaVuSans-64" d="M 2906 2969
L 2906 4863 
L 3481 4863 
L 3481 0 
L 2906 0 
L 2906 525 
Q 2725 213 2448 61 
Q 2172 -91 1784 -91 
Q 1150 -91 751 415 
Q 353 922 353 1747 
Q 353 2572 751 3078 
Q 1150 3584 1784 3584 
Q 2172 3584 2448 3432 
Q 2725 3281 2906 2969 
z
M 947 1747 
Q 947 1113 1208 752 
Q 1469 391 1925 391 
Q 2381 391 2643 752 
Q 2906 1113 2906 1747 
Q 2906 2381 2643 2742 
Q 2381 3103 1925 3103 
Q 1469 3103 1208 2742 
Q 947 2381 947 1747 
z
" transform="scale(0.015625)"/>
                        <path id="DejaVuSans-43" d="M 4122 4306
L 4122 3641 
Q 3803 3938 3442 4084 
Q 3081 4231 2675 4231 
Q 1875 4231 1450 3742 
Q 1025 3253 1025 2328 
Q 1025 1406 1450 917 
Q 1875 428 2675 428 
Q 3081 428 3442 575 
Q 3803 722 4122 1019 
L 4122 359 
Q 3791 134 3420 21 
Q 3050 -91 2638 -91 
Q 1578 -91 968 557 
Q 359 1206 359 2328 
Q 359 3453 968 4101 
Q 1578 4750 2638 4750 
Q 3056 4750 3426 4639 
Q 3797 4528 4122 4306 
z
" transform="scale(0.015625)"/>
                        <path id="DejaVuSans-6e" d="M 3513 2113
L 3513 0 
L 2938 0 
L 2938 2094 
Q 2938 2591 2744 2837 
Q 2550 3084 2163 3084 
Q 1697 3084 1428 2787 
Q 1159 2491 1159 1978 
L 1159 0 
L 581 0 
L 581 3500 
L 1159 3500 
L 1159 2956 
Q 1366 3272 1645 3428 
Q 1925 3584 2291 3584 
Q 2894 3584 3203 3211 
Q 3513 2838 3513 2113 
z
" transform="scale(0.015625)"/>
                    </defs>
                    <use xlink:href="#DejaVuSans-50"/>
                    <use xlink:href="#DejaVuSans-20" x="60.302734"/>
                    <use xlink:href="#DejaVuSans-76" x="92.089844"/>
                    <use xlink:href="#DejaVuSans-61" x="151.269531"/>
                    <use xlink:href="#DejaVuSans-6c" x="212.548828"/>
                    <use xlink:href="#DejaVuSans-75" x="240.332031"/>
                    <use xlink:href="#DejaVuSans-65" x="303.710938"/>
                    <use xlink:href="#DejaVuSans-73" x="365.234375"/>
                    <use xlink:href="#DejaVuSans-20" x="417.333984"/>
                    <use xlink:href="#DejaVuSans-6f" x="449.121094"/>
                    <use xlink:href="#DejaVuSans-66" x="510.302734"/>
                    <use xlink:href="#DejaVuSans-20" x="545.507812"/>
                    <use xlink:href="#DejaVuSans-46" x="577.294922"/>
                    <use xlink:href="#DejaVuSans-69" x="627.564453"/>
                    <use xlink:href="#DejaVuSans-65" x="655.347656"/>
                    <use xlink:href="#DejaVuSans-6c" x="716.871094"/>
                    <use xlink:href="#DejaVuSans-64" x="744.654297"/>
                    <use xlink:href="#DejaVuSans-20" x="808.130859"/>
                    <use xlink:href="#DejaVuSans-43" x="839.917969"/>
                    <use xlink:href="#DejaVuSans-6f" x="909.742188"/>
                    <use xlink:href="#DejaVuSans-67" x="970.923828"/>
                    <use xlink:href="#DejaVuSans-6e" x="1034.400391"/>
                    <use xlink:href="#DejaVuSans-69" x="1097.779297"/>
                    <use xlink:href="#DejaVuSans-74" x="1125.5625"/>
                    <use xlink:href="#DejaVuSans-69" x="1164.771484"/>
                    <use xlink:href="#DejaVuSans-76" x="1192.554688"/>
                    <use xlink:href="#DejaVuSans-65" x="1251.734375"/>
                </g>
            </g>
        </g>
    </g>
    <defs>
        <clipPath id="pa2c7eddadd">
            <rect x="270" y="86.4" width="1674" height="554.4"/>
        </clipPath>
    </defs>
</svg>
