<?xml version="1.0" encoding="utf-8" standalone="no"?>
<!DOCTYPE svg PUBLIC "-//W3C//DTD SVG 1.1//EN"
        "http://www.w3.org/Graphics/SVG/1.1/DTD/svg11.dtd">
<svg xmlns:xlink="http://www.w3.org/1999/xlink" width="2160pt" height="720pt" viewBox="0 0 2160 720"
     xmlns="http://www.w3.org/2000/svg" version="1.1">
    <metadata>
        <rdf:RDF xmlns:dc="http://purl.org/dc/elements/1.1/" xmlns:cc="http://creativecommons.org/ns#"
                 xmlns:rdf="http://www.w3.org/1999/02/22-rdf-syntax-ns#">
            <cc:Work>
                <dc:type rdf:resource="http://purl.org/dc/dcmitype/StillImage"/>
                <dc:date>2022-06-10T17:50:39.204387</dc:date>
                <dc:format>image/svg+xml</dc:format>
                <dc:creator>
                    <cc:Agent>
                        <dc:title>Matplotlib v3.5.1, https://matplotlib.org/</dc:title>
                    </cc:Agent>
                </dc:creator>
            </cc:Work>
        </rdf:RDF>
    </metadata>
    <defs>
        <style type="text/css">*{stroke-linejoin: round; stroke-linecap: butt}</style>
    </defs>
    <g id="figure_1">
        <g id="patch_1">
            <path d="M 0 720
L 2160 720 
L 2160 0 
L 0 0 
z
" style="fill: #ffffff"/>
        </g>
        <g id="axes_1">
            <g id="patch_2">
                <path d="M 270 640.8
L 1944 640.8 
L 1944 86.4 
L 270 86.4 
z
" style="fill: #ffffff"/>
            </g>
            <g id="PolyCollection_1">
                <defs>
                    <path id="m1ea2f923be" d="M 414.260694 -162.367712
L 404.739306 -162.367712 
L 403.349114 -165.144445 
L 401.644873 -167.921177 
L 399.583819 -170.69791 
L 397.125133 -173.474643 
L 394.232339 -176.251376 
L 390.875984 -179.028108 
L 387.036458 -181.804841 
L 382.70678 -184.581574 
L 377.895132 -187.358306 
L 372.626935 -190.135039 
L 366.946215 -192.911772 
L 360.91608 -195.688504 
L 354.618135 -198.465237 
L 348.15076 -201.24197 
L 341.626233 -204.018703 
L 335.166788 -206.795435 
L 328.899802 -209.572168 
L 322.952362 -212.348901 
L 317.445559 -215.125633 
L 312.488891 -217.902366 
L 308.175155 -220.679099 
L 304.576203 -223.455831 
L 301.739869 -226.232564 
L 299.688293 -229.009297 
L 298.41775 -231.78603 
L 297.9 -234.562762 
L 298.085022 -237.339495 
L 298.904923 -240.116228 
L 300.278697 -242.89296 
L 302.117473 -245.669693 
L 304.329854 -248.446426 
L 306.826958 -251.223158 
L 309.526824 -253.999891 
L 312.357894 -256.776624 
L 315.261391 -259.553357 
L 318.192499 -262.330089 
L 321.12036 -265.106822 
L 324.026982 -267.883555 
L 326.90526 -270.660287 
L 329.756346 -273.43702 
L 332.58664 -276.213753 
L 335.404709 -278.990485 
L 338.218396 -281.767218 
L 341.032352 -284.543951 
L 343.846193 -287.320684 
L 346.653378 -290.097416 
L 349.440877 -292.874149 
L 352.189596 -295.650882 
L 354.875485 -298.427614 
L 357.471197 -301.204347 
L 359.948125 -303.98108 
L 362.278621 -306.757812 
L 364.438215 -309.534545 
L 366.407617 -312.311278 
L 368.174365 -315.088011 
L 369.733969 -317.864743 
L 371.090466 -320.641476 
L 372.25636 -323.418209 
L 373.251937 -326.194941 
L 374.10404 -328.971674 
L 374.844389 -331.748407 
L 375.5076 -334.525139 
L 376.129056 -337.301872 
L 376.742798 -340.078605 
L 377.379608 -342.855338 
L 378.065416 -345.63207 
L 378.820146 -348.408803 
L 379.657065 -351.185536 
L 380.582654 -353.962268 
L 381.596976 -356.739001 
L 382.694461 -359.515734 
L 383.865014 -362.292466 
L 385.095314 -365.069199 
L 386.370165 -367.845932 
L 387.673782 -370.622664 
L 388.990902 -373.399397 
L 390.307636 -376.17613 
L 391.612031 -378.952863 
L 392.894327 -381.729595 
L 394.14694 -384.506328 
L 395.364227 -387.283061 
L 396.542105 -390.059793 
L 397.677594 -392.836526 
L 398.768366 -395.613259 
L 399.812363 -398.389991 
L 400.807513 -401.166724 
L 401.751589 -403.943457 
L 402.64219 -406.72019 
L 403.476837 -409.496922 
L 404.253154 -412.273655 
L 404.969094 -415.050388 
L 405.623166 -417.82712 
L 406.214643 -420.603853 
L 406.743704 -423.380586 
L 407.211512 -426.157318 
L 407.62021 -428.934051 
L 407.97285 -431.710784 
L 408.273254 -434.487517 
L 408.525839 -437.264249 
L 410.474161 -437.264249 
L 410.474161 -437.264249 
L 410.726746 -434.487517 
L 411.02715 -431.710784 
L 411.37979 -428.934051 
L 411.788488 -426.157318 
L 412.256296 -423.380586 
L 412.785357 -420.603853 
L 413.376834 -417.82712 
L 414.030906 -415.050388 
L 414.746846 -412.273655 
L 415.523163 -409.496922 
L 416.35781 -406.72019 
L 417.248411 -403.943457 
L 418.192487 -401.166724 
L 419.187637 -398.389991 
L 420.231634 -395.613259 
L 421.322406 -392.836526 
L 422.457895 -390.059793 
L 423.635773 -387.283061 
L 424.85306 -384.506328 
L 426.105673 -381.729595 
L 427.387969 -378.952863 
L 428.692364 -376.17613 
L 430.009098 -373.399397 
L 431.326218 -370.622664 
L 432.629835 -367.845932 
L 433.904686 -365.069199 
L 435.134986 -362.292466 
L 436.305539 -359.515734 
L 437.403024 -356.739001 
L 438.417346 -353.962268 
L 439.342935 -351.185536 
L 440.179854 -348.408803 
L 440.934584 -345.63207 
L 441.620392 -342.855338 
L 442.257202 -340.078605 
L 442.870944 -337.301872 
L 443.4924 -334.525139 
L 444.155611 -331.748407 
L 444.89596 -328.971674 
L 445.748063 -326.194941 
L 446.74364 -323.418209 
L 447.909534 -320.641476 
L 449.266031 -317.864743 
L 450.825635 -315.088011 
L 452.592383 -312.311278 
L 454.561785 -309.534545 
L 456.721379 -306.757812 
L 459.051875 -303.98108 
L 461.528803 -301.204347 
L 464.124515 -298.427614 
L 466.810404 -295.650882 
L 469.559123 -292.874149 
L 472.346622 -290.097416 
L 475.153807 -287.320684 
L 477.967648 -284.543951 
L 480.781604 -281.767218 
L 483.595291 -278.990485 
L 486.41336 -276.213753 
L 489.243654 -273.43702 
L 492.09474 -270.660287 
L 494.973018 -267.883555 
L 497.87964 -265.106822 
L 500.807501 -262.330089 
L 503.738609 -259.553357 
L 506.642106 -256.776624 
L 509.473176 -253.999891 
L 512.173042 -251.223158 
L 514.670146 -248.446426 
L 516.882527 -245.669693 
L 518.721303 -242.89296 
L 520.095077 -240.116228 
L 520.914978 -237.339495 
L 521.1 -234.562762 
L 520.58225 -231.78603 
L 519.311707 -229.009297 
L 517.260131 -226.232564 
L 514.423797 -223.455831 
L 510.824845 -220.679099 
L 506.511109 -217.902366 
L 501.554441 -215.125633 
L 496.047638 -212.348901 
L 490.100198 -209.572168 
L 483.833212 -206.795435 
L 477.373767 -204.018703 
L 470.84924 -201.24197 
L 464.381865 -198.465237 
L 458.08392 -195.688504 
L 452.053785 -192.911772 
L 446.373065 -190.135039 
L 441.104868 -187.358306 
L 436.29322 -184.581574 
L 431.963542 -181.804841 
L 428.124016 -179.028108 
L 424.767661 -176.251376 
L 421.874867 -173.474643 
L 419.416181 -170.69791 
L 417.355127 -167.921177 
L 415.650886 -165.144445 
L 414.260694 -162.367712 
z
" style="stroke: #595959; stroke-width: 1.5"/>
                </defs>
                <g clip-path="url(#p7cbfb6f0b6)">
                    <use xlink:href="#m1ea2f923be" x="0" y="720"
                         style="fill: #72b6a1; stroke: #595959; stroke-width: 1.5"/>
                </g>
            </g>
            <g id="PolyCollection_2">
                <defs>
                    <path id="m36a2977502" d="M 694.847377 -104.4
L 682.152623 -104.4 
L 680.700654 -109.490909 
L 678.998398 -114.581818 
L 677.023207 -119.672727 
L 674.755134 -124.763636 
L 672.178165 -129.854545 
L 669.281501 -134.945455 
L 666.06083 -140.036364 
L 662.519517 -145.127273 
L 658.669622 -150.218182 
L 654.532688 -155.309091 
L 650.140195 -160.4 
L 645.533645 -165.490909 
L 640.764195 -170.581818 
L 635.891842 -175.672727 
L 630.984133 -180.763636 
L 626.114452 -185.854545 
L 621.359914 -190.945455 
L 616.798984 -196.036364 
L 612.5089 -201.127273 
L 608.563055 -206.218182 
L 605.028446 -211.309091 
L 601.963353 -216.4 
L 599.41535 -221.490909 
L 597.419769 -226.581818 
L 595.998688 -231.672727 
L 595.160489 -236.763636 
L 594.9 -241.854545 
L 595.199189 -246.945455 
L 596.028352 -252.036364 
L 597.347709 -257.127273 
L 599.109293 -262.218182 
L 601.259028 -267.309091 
L 603.73885 -272.4 
L 606.488783 -277.490909 
L 609.448851 -282.581818 
L 612.560751 -287.672727 
L 615.769232 -292.763636 
L 619.023153 -297.854545 
L 622.276205 -302.945455 
L 625.487318 -308.036364 
L 628.620787 -313.127273 
L 631.646167 -318.218182 
L 634.53797 -323.309091 
L 637.275257 -328.4 
L 639.84114 -333.490909 
L 642.222272 -338.581818 
L 644.408357 -343.672727 
L 646.391711 -348.763636 
L 648.166904 -353.854545 
L 649.7305 -358.945455 
L 651.080895 -364.036364 
L 652.218258 -369.127273 
L 653.14457 -374.218182 
L 653.863742 -379.309091 
L 654.381796 -384.4 
L 654.707083 -389.490909 
L 654.850515 -394.581818 
L 654.825773 -399.672727 
L 654.649473 -404.763636 
L 654.34124 -409.854545 
L 653.923681 -414.945455 
L 653.422222 -420.036364 
L 652.864794 -425.127273 
L 652.281365 -430.218182 
L 651.703324 -435.309091 
L 651.162717 -440.4 
L 650.69138 -445.490909 
L 650.31999 -450.581818 
L 650.077086 -455.672727 
L 649.988106 -460.763636 
L 650.074493 -465.854545 
L 650.352918 -470.945455 
L 650.834675 -476.036364 
L 651.525262 -481.127273 
L 652.424203 -486.218182 
L 653.5251 -491.309091 
L 654.815926 -496.4 
L 656.279539 -501.490909 
L 657.894391 -506.581818 
L 659.635396 -511.672727 
L 661.474901 -516.763636 
L 663.383725 -521.854545 
L 665.332199 -526.945455 
L 667.29117 -532.036364 
L 669.23291 -537.127273 
L 671.13191 -542.218182 
L 672.965519 -547.309091 
L 674.714418 -552.4 
L 676.362916 -557.490909 
L 677.899076 -562.581818 
L 679.314685 -567.672727 
L 680.605083 -572.763636 
L 681.768874 -577.854545 
L 682.807553 -582.945455 
L 683.725074 -588.036364 
L 684.52738 -593.127273 
L 685.221941 -598.218182 
L 685.817293 -603.309091 
L 686.322619 -608.4 
L 690.677381 -608.4 
L 690.677381 -608.4 
L 691.182707 -603.309091 
L 691.778059 -598.218182 
L 692.47262 -593.127273 
L 693.274926 -588.036364 
L 694.192447 -582.945455 
L 695.231126 -577.854545 
L 696.394917 -572.763636 
L 697.685315 -567.672727 
L 699.100924 -562.581818 
L 700.637084 -557.490909 
L 702.285582 -552.4 
L 704.034481 -547.309091 
L 705.86809 -542.218182 
L 707.76709 -537.127273 
L 709.70883 -532.036364 
L 711.667801 -526.945455 
L 713.616275 -521.854545 
L 715.525099 -516.763636 
L 717.364604 -511.672727 
L 719.105609 -506.581818 
L 720.720461 -501.490909 
L 722.184074 -496.4 
L 723.4749 -491.309091 
L 724.575797 -486.218182 
L 725.474738 -481.127273 
L 726.165325 -476.036364 
L 726.647082 -470.945455 
L 726.925507 -465.854545 
L 727.011894 -460.763636 
L 726.922914 -455.672727 
L 726.68001 -450.581818 
L 726.30862 -445.490909 
L 725.837283 -440.4 
L 725.296676 -435.309091 
L 724.718635 -430.218182 
L 724.135206 -425.127273 
L 723.577778 -420.036364 
L 723.076319 -414.945455 
L 722.65876 -409.854545 
L 722.350527 -404.763636 
L 722.174227 -399.672727 
L 722.149485 -394.581818 
L 722.292917 -389.490909 
L 722.618204 -384.4 
L 723.136258 -379.309091 
L 723.85543 -374.218182 
L 724.781742 -369.127273 
L 725.919105 -364.036364 
L 727.2695 -358.945455 
L 728.833096 -353.854545 
L 730.608289 -348.763636 
L 732.591643 -343.672727 
L 734.777728 -338.581818 
L 737.15886 -333.490909 
L 739.724743 -328.4 
L 742.46203 -323.309091 
L 745.353833 -318.218182 
L 748.379213 -313.127273 
L 751.512682 -308.036364 
L 754.723795 -302.945455 
L 757.976847 -297.854545 
L 761.230768 -292.763636 
L 764.439249 -287.672727 
L 767.551149 -282.581818 
L 770.511217 -277.490909 
L 773.26115 -272.4 
L 775.740972 -267.309091 
L 777.890707 -262.218182 
L 779.652291 -257.127273 
L 780.971648 -252.036364 
L 781.800811 -246.945455 
L 782.1 -241.854545 
L 781.839511 -236.763636 
L 781.001312 -231.672727 
L 779.580231 -226.581818 
L 777.58465 -221.490909 
L 775.036647 -216.4 
L 771.971554 -211.309091 
L 768.436945 -206.218182 
L 764.4911 -201.127273 
L 760.201016 -196.036364 
L 755.640086 -190.945455 
L 750.885548 -185.854545 
L 746.015867 -180.763636 
L 741.108158 -175.672727 
L 736.235805 -170.581818 
L 731.466355 -165.490909 
L 726.859805 -160.4 
L 722.467312 -155.309091 
L 718.330378 -150.218182 
L 714.480483 -145.127273 
L 710.93917 -140.036364 
L 707.718499 -134.945455 
L 704.821835 -129.854545 
L 702.244866 -124.763636 
L 699.976793 -119.672727 
L 698.001602 -114.581818 
L 696.299346 -109.490909 
L 694.847377 -104.4 
z
" style="stroke: #595959; stroke-width: 1.5"/>
                </defs>
                <g clip-path="url(#p7cbfb6f0b6)">
                    <use xlink:href="#m36a2977502" x="0" y="720"
                         style="fill: #e99675; stroke: #595959; stroke-width: 1.5"/>
                </g>
            </g>
            <g id="PolyCollection_3">
                <defs>
                    <path id="m2fa023e97b" d="M 969.165094 -182.111229
L 965.834906 -182.111229 
L 965.519155 -183.334373 
L 965.15809 -184.557516 
L 964.748282 -185.780659 
L 964.286645 -187.003803 
L 963.77057 -188.226946 
L 963.198062 -189.45009 
L 962.567877 -190.673233 
L 961.879654 -191.896376 
L 961.134034 -193.11952 
L 960.332757 -194.342663 
L 959.478736 -195.565807 
L 958.576099 -196.78895 
L 957.630196 -198.012093 
L 956.647559 -199.235237 
L 955.635822 -200.45838 
L 954.603598 -201.681524 
L 953.560312 -202.904667 
L 952.515995 -204.12781 
L 951.481042 -205.350954 
L 950.465953 -206.574097 
L 949.481054 -207.797241 
L 948.536213 -209.020384 
L 947.640571 -210.243527 
L 946.802289 -211.466671 
L 946.028329 -212.689814 
L 945.324279 -213.912958 
L 944.694227 -215.136101 
L 944.140695 -216.359244 
L 943.664634 -217.582388 
L 943.265474 -218.805531 
L 942.941242 -220.028675 
L 942.688717 -221.251818 
L 942.503641 -222.474961 
L 942.380952 -223.698105 
L 942.315039 -224.921248 
L 942.3 -226.144392 
L 942.329896 -227.367535 
L 942.398981 -228.590679 
L 942.501903 -229.813822 
L 942.633866 -231.036965 
L 942.790748 -232.260109 
L 942.969164 -233.483252 
L 943.166496 -234.706396 
L 943.380864 -235.929539 
L 943.611063 -237.152682 
L 943.856474 -238.375826 
L 944.116942 -239.598969 
L 944.392648 -240.822113 
L 944.683976 -242.045256 
L 944.991381 -243.268399 
L 945.315278 -244.491543 
L 945.655946 -245.714686 
L 946.013453 -246.93783 
L 946.38762 -248.160973 
L 946.777994 -249.384116 
L 947.183868 -250.60726 
L 947.604302 -251.830403 
L 948.038182 -253.053547 
L 948.484274 -254.27669 
L 948.9413 -255.499833 
L 949.408 -256.722977 
L 949.883202 -257.94612 
L 950.365874 -259.169264 
L 950.855162 -260.392407 
L 951.350416 -261.61555 
L 951.851193 -262.838694 
L 952.357242 -264.061837 
L 952.868476 -265.284981 
L 953.384927 -266.508124 
L 953.906686 -267.731267 
L 954.433839 -268.954411 
L 954.966405 -270.177554 
L 955.504264 -271.400698 
L 956.047101 -272.623841 
L 956.594354 -273.846984 
L 957.14518 -275.070128 
L 957.698431 -276.293271 
L 958.252648 -277.516415 
L 958.806079 -278.739558 
L 959.356701 -279.962701 
L 959.902265 -281.185845 
L 960.440356 -282.408988 
L 960.96845 -283.632132 
L 961.483994 -284.855275 
L 961.984474 -286.078418 
L 962.467486 -287.301562 
L 962.930808 -288.524705 
L 963.372457 -289.747849 
L 963.790741 -290.970992 
L 964.184296 -292.194135 
L 964.552111 -293.417279 
L 964.893543 -294.640422 
L 965.208314 -295.863566 
L 965.496503 -297.086709 
L 965.75852 -298.309852 
L 965.995076 -299.532996 
L 966.207146 -300.756139 
L 966.395926 -301.979283 
L 966.562788 -303.202426 
L 968.437212 -303.202426 
L 968.437212 -303.202426 
L 968.604074 -301.979283 
L 968.792854 -300.756139 
L 969.004924 -299.532996 
L 969.24148 -298.309852 
L 969.503497 -297.086709 
L 969.791686 -295.863566 
L 970.106457 -294.640422 
L 970.447889 -293.417279 
L 970.815704 -292.194135 
L 971.209259 -290.970992 
L 971.627543 -289.747849 
L 972.069192 -288.524705 
L 972.532514 -287.301562 
L 973.015526 -286.078418 
L 973.516006 -284.855275 
L 974.03155 -283.632132 
L 974.559644 -282.408988 
L 975.097735 -281.185845 
L 975.643299 -279.962701 
L 976.193921 -278.739558 
L 976.747352 -277.516415 
L 977.301569 -276.293271 
L 977.85482 -275.070128 
L 978.405646 -273.846984 
L 978.952899 -272.623841 
L 979.495736 -271.400698 
L 980.033595 -270.177554 
L 980.566161 -268.954411 
L 981.093314 -267.731267 
L 981.615073 -266.508124 
L 982.131524 -265.284981 
L 982.642758 -264.061837 
L 983.148807 -262.838694 
L 983.649584 -261.61555 
L 984.144838 -260.392407 
L 984.634126 -259.169264 
L 985.116798 -257.94612 
L 985.592 -256.722977 
L 986.0587 -255.499833 
L 986.515726 -254.27669 
L 986.961818 -253.053547 
L 987.395698 -251.830403 
L 987.816132 -250.60726 
L 988.222006 -249.384116 
L 988.61238 -248.160973 
L 988.986547 -246.93783 
L 989.344054 -245.714686 
L 989.684722 -244.491543 
L 990.008619 -243.268399 
L 990.316024 -242.045256 
L 990.607352 -240.822113 
L 990.883058 -239.598969 
L 991.143526 -238.375826 
L 991.388937 -237.152682 
L 991.619136 -235.929539 
L 991.833504 -234.706396 
L 992.030836 -233.483252 
L 992.209252 -232.260109 
L 992.366134 -231.036965 
L 992.498097 -229.813822 
L 992.601019 -228.590679 
L 992.670104 -227.367535 
L 992.7 -226.144392 
L 992.684961 -224.921248 
L 992.619048 -223.698105 
L 992.496359 -222.474961 
L 992.311283 -221.251818 
L 992.058758 -220.028675 
L 991.734526 -218.805531 
L 991.335366 -217.582388 
L 990.859305 -216.359244 
L 990.305773 -215.136101 
L 989.675721 -213.912958 
L 988.971671 -212.689814 
L 988.197711 -211.466671 
L 987.359429 -210.243527 
L 986.463787 -209.020384 
L 985.518946 -207.797241 
L 984.534047 -206.574097 
L 983.518958 -205.350954 
L 982.484005 -204.12781 
L 981.439688 -202.904667 
L 980.396402 -201.681524 
L 979.364178 -200.45838 
L 978.352441 -199.235237 
L 977.369804 -198.012093 
L 976.423901 -196.78895 
L 975.521264 -195.565807 
L 974.667243 -194.342663 
L 973.865966 -193.11952 
L 973.120346 -191.896376 
L 972.432123 -190.673233 
L 971.801938 -189.45009 
L 971.22943 -188.226946 
L 970.713355 -187.003803 
L 970.251718 -185.780659 
L 969.84191 -184.557516 
L 969.480845 -183.334373 
L 969.165094 -182.111229 
z
" style="stroke: #595959; stroke-width: 1.5"/>
                </defs>
                <g clip-path="url(#p7cbfb6f0b6)">
                    <use xlink:href="#m2fa023e97b" x="0" y="720"
                         style="fill: #95a3c3; stroke: #595959; stroke-width: 1.5"/>
                </g>
            </g>
            <g id="PolyCollection_4">
                <defs>
                    <path id="mfbc6ce032f" d="M 1247.419999 -195.991339
L 1245.580001 -195.991339 
L 1245.397662 -196.941721 
L 1245.186913 -197.892104 
L 1244.944895 -198.842486 
L 1244.668739 -199.792869 
L 1244.355618 -200.743252 
L 1244.002798 -201.693634 
L 1243.607704 -202.644017 
L 1243.167979 -203.594399 
L 1242.681558 -204.544782 
L 1242.146733 -205.495165 
L 1241.562229 -206.445547 
L 1240.927272 -207.39593 
L 1240.241667 -208.346312 
L 1239.505865 -209.296695 
L 1238.721032 -210.247077 
L 1237.889114 -211.19746 
L 1237.012889 -212.147843 
L 1236.096019 -213.098225 
L 1235.143086 -214.048608 
L 1234.159612 -214.99899 
L 1233.152062 -215.949373 
L 1232.127827 -216.899755 
L 1231.095178 -217.850138 
L 1230.063197 -218.800521 
L 1229.041671 -219.750903 
L 1228.040964 -220.701286 
L 1227.071842 -221.651668 
L 1226.145286 -222.602051 
L 1225.27226 -223.552433 
L 1224.463472 -224.502816 
L 1223.729107 -225.453199 
L 1223.078563 -226.403581 
L 1222.520184 -227.353964 
L 1222.06101 -228.304346 
L 1221.706555 -229.254729 
L 1221.460608 -230.205112 
L 1221.325099 -231.155494 
L 1221.3 -232.105877 
L 1221.383301 -233.056259 
L 1221.571039 -234.006642 
L 1221.857395 -234.957024 
L 1222.234853 -235.907407 
L 1222.694415 -236.85779 
L 1223.225861 -237.808172 
L 1223.81805 -238.758555 
L 1224.459239 -239.708937 
L 1225.137424 -240.65932 
L 1225.840672 -241.609702 
L 1226.557436 -242.560085 
L 1227.276851 -243.510468 
L 1227.988987 -244.46085 
L 1228.685057 -245.411233 
L 1229.357582 -246.361615 
L 1230.000491 -247.311998 
L 1230.609183 -248.26238 
L 1231.180522 -249.212763 
L 1231.712801 -250.163146 
L 1232.205655 -251.113528 
L 1232.659944 -252.063911 
L 1233.077612 -253.014293 
L 1233.461521 -253.964676 
L 1233.815285 -254.915059 
L 1234.143086 -255.865441 
L 1234.449503 -256.815824 
L 1234.739339 -257.766206 
L 1235.017464 -258.716589 
L 1235.288663 -259.666971 
L 1235.557508 -260.617354 
L 1235.828237 -261.567737 
L 1236.104651 -262.518119 
L 1236.390037 -263.468502 
L 1236.687094 -264.418884 
L 1236.997888 -265.369267 
L 1237.32382 -266.319649 
L 1237.665613 -267.270032 
L 1238.023317 -268.220415 
L 1238.396331 -269.170797 
L 1238.783443 -270.12118 
L 1239.182887 -271.071562 
L 1239.592409 -272.021945 
L 1240.009353 -272.972327 
L 1240.430753 -273.92271 
L 1240.853429 -274.873093 
L 1241.27409 -275.823475 
L 1241.689437 -276.773858 
L 1242.096254 -277.72424 
L 1242.491506 -278.674623 
L 1242.872412 -279.625006 
L 1243.236511 -280.575388 
L 1243.581716 -281.525771 
L 1243.90635 -282.476153 
L 1244.209159 -283.426536 
L 1244.489322 -284.376918 
L 1244.746436 -285.327301 
L 1244.980495 -286.277684 
L 1245.191852 -287.228066 
L 1245.381177 -288.178449 
L 1245.549411 -289.128831 
L 1245.697712 -290.079214 
L 1247.302288 -290.079214 
L 1247.302288 -290.079214 
L 1247.450589 -289.128831 
L 1247.618823 -288.178449 
L 1247.808148 -287.228066 
L 1248.019505 -286.277684 
L 1248.253564 -285.327301 
L 1248.510678 -284.376918 
L 1248.790841 -283.426536 
L 1249.09365 -282.476153 
L 1249.418284 -281.525771 
L 1249.763489 -280.575388 
L 1250.127588 -279.625006 
L 1250.508494 -278.674623 
L 1250.903746 -277.72424 
L 1251.310563 -276.773858 
L 1251.72591 -275.823475 
L 1252.146571 -274.873093 
L 1252.569247 -273.92271 
L 1252.990647 -272.972327 
L 1253.407591 -272.021945 
L 1253.817113 -271.071562 
L 1254.216557 -270.12118 
L 1254.603669 -269.170797 
L 1254.976683 -268.220415 
L 1255.334387 -267.270032 
L 1255.67618 -266.319649 
L 1256.002112 -265.369267 
L 1256.312906 -264.418884 
L 1256.609963 -263.468502 
L 1256.895349 -262.518119 
L 1257.171763 -261.567737 
L 1257.442492 -260.617354 
L 1257.711337 -259.666971 
L 1257.982536 -258.716589 
L 1258.260661 -257.766206 
L 1258.550497 -256.815824 
L 1258.856914 -255.865441 
L 1259.184715 -254.915059 
L 1259.538479 -253.964676 
L 1259.922388 -253.014293 
L 1260.340056 -252.063911 
L 1260.794345 -251.113528 
L 1261.287199 -250.163146 
L 1261.819478 -249.212763 
L 1262.390817 -248.26238 
L 1262.999509 -247.311998 
L 1263.642418 -246.361615 
L 1264.314943 -245.411233 
L 1265.011013 -244.46085 
L 1265.723149 -243.510468 
L 1266.442564 -242.560085 
L 1267.159328 -241.609702 
L 1267.862576 -240.65932 
L 1268.540761 -239.708937 
L 1269.18195 -238.758555 
L 1269.774139 -237.808172 
L 1270.305585 -236.85779 
L 1270.765147 -235.907407 
L 1271.142605 -234.957024 
L 1271.428961 -234.006642 
L 1271.616699 -233.056259 
L 1271.7 -232.105877 
L 1271.674901 -231.155494 
L 1271.539392 -230.205112 
L 1271.293445 -229.254729 
L 1270.93899 -228.304346 
L 1270.479816 -227.353964 
L 1269.921437 -226.403581 
L 1269.270893 -225.453199 
L 1268.536528 -224.502816 
L 1267.72774 -223.552433 
L 1266.854714 -222.602051 
L 1265.928158 -221.651668 
L 1264.959036 -220.701286 
L 1263.958329 -219.750903 
L 1262.936803 -218.800521 
L 1261.904822 -217.850138 
L 1260.872173 -216.899755 
L 1259.847938 -215.949373 
L 1258.840388 -214.99899 
L 1257.856914 -214.048608 
L 1256.903981 -213.098225 
L 1255.987111 -212.147843 
L 1255.110886 -211.19746 
L 1254.278968 -210.247077 
L 1253.494135 -209.296695 
L 1252.758333 -208.346312 
L 1252.072728 -207.39593 
L 1251.437771 -206.445547 
L 1250.853267 -205.495165 
L 1250.318442 -204.544782 
L 1249.832021 -203.594399 
L 1249.392296 -202.644017 
L 1248.997202 -201.693634 
L 1248.644382 -200.743252 
L 1248.331261 -199.792869 
L 1248.055105 -198.842486 
L 1247.813087 -197.892104 
L 1247.602338 -196.941721 
L 1247.419999 -195.991339 
z
" style="stroke: #595959; stroke-width: 1.5"/>
                </defs>
                <g clip-path="url(#p7cbfb6f0b6)">
                    <use xlink:href="#mfbc6ce032f" x="0" y="720"
                         style="fill: #db96c0; stroke: #595959; stroke-width: 1.5"/>
                </g>
            </g>
            <g id="PolyCollection_5">
                <defs>
                    <path id="m524dbe8701" d="M 1532.240736 -175.549625
L 1518.759264 -175.549625 
L 1516.886975 -177.593615 
L 1514.631945 -179.637606 
L 1511.956973 -181.681597 
L 1508.832531 -183.725588 
L 1505.240058 -185.769579 
L 1501.175231 -187.81357 
L 1496.650934 -189.85756 
L 1491.699627 -191.901551 
L 1486.374823 -193.945542 
L 1480.751396 -195.989533 
L 1474.924529 -198.033524 
L 1469.007198 -200.077515 
L 1463.126206 -202.121505 
L 1457.416938 -204.165496 
L 1452.017109 -206.209487 
L 1447.059926 -208.253478 
L 1442.667133 -210.297469 
L 1438.942494 -212.34146 
L 1435.966201 -214.38545 
L 1433.790685 -216.429441 
L 1432.438142 -218.473432 
L 1431.9 -220.517423 
L 1432.138309 -222.561414 
L 1433.088949 -224.605405 
L 1434.666334 -226.649396 
L 1436.769207 -228.693386 
L 1439.287033 -230.737377 
L 1442.106484 -232.781368 
L 1445.117527 -234.825359 
L 1448.218695 -236.86935 
L 1451.321253 -238.913341 
L 1454.352051 -240.957331 
L 1457.255019 -243.001322 
L 1459.991378 -245.045313 
L 1462.538711 -247.089304 
L 1464.889159 -249.133295 
L 1467.046996 -251.177286 
L 1469.025884 -253.221276 
L 1470.846071 -255.265267 
L 1472.531762 -257.309258 
L 1474.108824 -259.353249 
L 1475.602936 -261.39724 
L 1477.038231 -263.441231 
L 1478.436403 -265.485221 
L 1479.816249 -267.529212 
L 1481.193528 -269.573203 
L 1482.581068 -271.617194 
L 1483.989002 -273.661185 
L 1485.425054 -275.705176 
L 1486.894806 -277.749166 
L 1488.401886 -279.793157 
L 1489.948084 -281.837148 
L 1491.533369 -283.881139 
L 1493.155844 -285.92513 
L 1494.811657 -287.969121 
L 1496.494919 -290.013111 
L 1498.197653 -292.057102 
L 1499.909811 -294.101093 
L 1501.619386 -296.145084 
L 1503.312635 -298.189075 
L 1504.974421 -300.233066 
L 1506.588658 -302.277057 
L 1508.138869 -304.321047 
L 1509.608822 -306.365038 
L 1510.983211 -308.409029 
L 1512.248375 -310.45302 
L 1513.392982 -312.497011 
L 1514.408666 -314.541002 
L 1515.290559 -316.584992 
L 1516.037681 -318.628983 
L 1516.653151 -320.672974 
L 1517.144194 -322.716965 
L 1517.521922 -324.760956 
L 1517.800893 -326.804947 
L 1517.998456 -328.848937 
L 1518.13392 -330.892928 
L 1518.227596 -332.936919 
L 1518.299769 -334.98091 
L 1518.369669 -337.024901 
L 1518.454523 -339.068892 
L 1518.568739 -341.112882 
L 1518.723294 -343.156873 
L 1518.925363 -345.200864 
L 1519.178198 -347.244855 
L 1519.481272 -349.288846 
L 1519.830653 -351.332837 
L 1520.21957 -353.376827 
L 1520.639113 -355.420818 
L 1521.079011 -357.464809 
L 1521.528408 -359.5088 
L 1521.976601 -361.552791 
L 1522.413665 -363.596782 
L 1522.830953 -365.640773 
L 1523.221433 -367.684763 
L 1523.579875 -369.728754 
L 1523.902884 -371.772745 
L 1524.188813 -373.816736 
L 1524.437569 -375.860727 
L 1524.650361 -377.904718 
L 1526.349639 -377.904718 
L 1526.349639 -377.904718 
L 1526.562431 -375.860727 
L 1526.811187 -373.816736 
L 1527.097116 -371.772745 
L 1527.420125 -369.728754 
L 1527.778567 -367.684763 
L 1528.169047 -365.640773 
L 1528.586335 -363.596782 
L 1529.023399 -361.552791 
L 1529.471592 -359.5088 
L 1529.920989 -357.464809 
L 1530.360887 -355.420818 
L 1530.78043 -353.376827 
L 1531.169347 -351.332837 
L 1531.518728 -349.288846 
L 1531.821802 -347.244855 
L 1532.074637 -345.200864 
L 1532.276706 -343.156873 
L 1532.431261 -341.112882 
L 1532.545477 -339.068892 
L 1532.630331 -337.024901 
L 1532.700231 -334.98091 
L 1532.772404 -332.936919 
L 1532.86608 -330.892928 
L 1533.001544 -328.848937 
L 1533.199107 -326.804947 
L 1533.478078 -324.760956 
L 1533.855806 -322.716965 
L 1534.346849 -320.672974 
L 1534.962319 -318.628983 
L 1535.709441 -316.584992 
L 1536.591334 -314.541002 
L 1537.607018 -312.497011 
L 1538.751625 -310.45302 
L 1540.016789 -308.409029 
L 1541.391178 -306.365038 
L 1542.861131 -304.321047 
L 1544.411342 -302.277057 
L 1546.025579 -300.233066 
L 1547.687365 -298.189075 
L 1549.380614 -296.145084 
L 1551.090189 -294.101093 
L 1552.802347 -292.057102 
L 1554.505081 -290.013111 
L 1556.188343 -287.969121 
L 1557.844156 -285.92513 
L 1559.466631 -283.881139 
L 1561.051916 -281.837148 
L 1562.598114 -279.793157 
L 1564.105194 -277.749166 
L 1565.574946 -275.705176 
L 1567.010998 -273.661185 
L 1568.418932 -271.617194 
L 1569.806472 -269.573203 
L 1571.183751 -267.529212 
L 1572.563597 -265.485221 
L 1573.961769 -263.441231 
L 1575.397064 -261.39724 
L 1576.891176 -259.353249 
L 1578.468238 -257.309258 
L 1580.153929 -255.265267 
L 1581.974116 -253.221276 
L 1583.953004 -251.177286 
L 1586.110841 -249.133295 
L 1588.461289 -247.089304 
L 1591.008622 -245.045313 
L 1593.744981 -243.001322 
L 1596.647949 -240.957331 
L 1599.678747 -238.913341 
L 1602.781305 -236.86935 
L 1605.882473 -234.825359 
L 1608.893516 -232.781368 
L 1611.712967 -230.737377 
L 1614.230793 -228.693386 
L 1616.333666 -226.649396 
L 1617.911051 -224.605405 
L 1618.861691 -222.561414 
L 1619.1 -220.517423 
L 1618.561858 -218.473432 
L 1617.209315 -216.429441 
L 1615.033799 -214.38545 
L 1612.057506 -212.34146 
L 1608.332867 -210.297469 
L 1603.940074 -208.253478 
L 1598.982891 -206.209487 
L 1593.583062 -204.165496 
L 1587.873794 -202.121505 
L 1581.992802 -200.077515 
L 1576.075471 -198.033524 
L 1570.248604 -195.989533 
L 1564.625177 -193.945542 
L 1559.300373 -191.901551 
L 1554.349066 -189.85756 
L 1549.824769 -187.81357 
L 1545.759942 -185.769579 
L 1542.167469 -183.725588 
L 1539.043027 -181.681597 
L 1536.368055 -179.637606 
L 1534.113025 -177.593615 
L 1532.240736 -175.549625 
z
" style="stroke: #595959; stroke-width: 1.5"/>
                </defs>
                <g clip-path="url(#p7cbfb6f0b6)">
                    <use xlink:href="#m524dbe8701" x="0" y="720"
                         style="fill: #a2c865; stroke: #595959; stroke-width: 1.5"/>
                </g>
            </g>
            <g id="PolyCollection_6">
                <defs>
                    <path id="mcd4ef18f57" d="M 1805.395609 -193.168529
L 1803.604391 -193.168529 
L 1803.430158 -194.112722 
L 1803.229726 -195.056915 
L 1803.000691 -196.001108 
L 1802.740686 -196.945301 
L 1802.447429 -197.889495 
L 1802.118763 -198.833688 
L 1801.752705 -199.777881 
L 1801.347484 -200.722074 
L 1800.901589 -201.666268 
L 1800.413803 -202.610461 
L 1799.883238 -203.554654 
L 1799.309368 -204.498847 
L 1798.69206 -205.44304 
L 1798.031597 -206.387234 
L 1797.328708 -207.331427 
L 1796.584589 -208.27562 
L 1795.800937 -209.219813 
L 1794.979974 -210.164007 
L 1794.12448 -211.1082 
L 1793.237827 -212.052393 
L 1792.324011 -212.996586 
L 1791.387689 -213.940779 
L 1790.434201 -214.884973 
L 1789.469596 -215.829166 
L 1788.500633 -216.773359 
L 1787.534771 -217.717552 
L 1786.580131 -218.661746 
L 1785.645434 -219.605939 
L 1784.739904 -220.550132 
L 1783.873135 -221.494325 
L 1783.054927 -222.438518 
L 1782.295081 -223.382712 
L 1781.603179 -224.326905 
L 1780.988319 -225.271098 
L 1780.45886 -226.215291 
L 1780.022142 -227.159485 
L 1779.68423 -228.103678 
L 1779.449668 -229.047871 
L 1779.321279 -229.992064 
L 1779.3 -230.936257 
L 1779.384785 -231.880451 
L 1779.572565 -232.824644 
L 1779.858284 -233.768837 
L 1780.235008 -234.71303 
L 1780.694098 -235.657224 
L 1781.225456 -236.601417 
L 1781.817821 -237.54561 
L 1782.459112 -238.489803 
L 1783.136795 -239.433996 
L 1783.838269 -240.37819 
L 1784.551241 -241.322383 
L 1785.264093 -242.266576 
L 1785.966202 -243.210769 
L 1786.648217 -244.154963 
L 1787.302288 -245.099156 
L 1787.922213 -246.043349 
L 1788.503538 -246.987542 
L 1789.043569 -247.931735 
L 1789.541337 -248.875929 
L 1789.997488 -249.820122 
L 1790.414135 -250.764315 
L 1790.794662 -251.708508 
L 1791.143494 -252.652702 
L 1791.465851 -253.596895 
L 1791.767495 -254.541088 
L 1792.054475 -255.485281 
L 1792.332877 -256.429474 
L 1792.608606 -257.373668 
L 1792.887174 -258.317861 
L 1793.173535 -259.262054 
L 1793.471939 -260.206247 
L 1793.78583 -261.150441 
L 1794.117771 -262.094634 
L 1794.469406 -263.038827 
L 1794.841462 -263.98302 
L 1795.233767 -264.927213 
L 1795.645309 -265.871407 
L 1796.074312 -266.8156 
L 1796.518329 -267.759793 
L 1796.97436 -268.703986 
L 1797.438968 -269.64818 
L 1797.908413 -270.592373 
L 1798.378778 -271.536566 
L 1798.8461 -272.480759 
L 1799.306487 -273.424952 
L 1799.756231 -274.369146 
L 1800.191899 -275.313339 
L 1800.610419 -276.257532 
L 1801.009139 -277.201725 
L 1801.385873 -278.145919 
L 1801.738922 -279.090112 
L 1802.067089 -280.034305 
L 1802.369661 -280.978498 
L 1802.646395 -281.922691 
L 1802.897472 -282.866885 
L 1803.123459 -283.811078 
L 1803.32525 -284.755271 
L 1803.504014 -285.699464 
L 1803.661134 -286.643658 
L 1805.338866 -286.643658 
L 1805.338866 -286.643658 
L 1805.495986 -285.699464 
L 1805.67475 -284.755271 
L 1805.876541 -283.811078 
L 1806.102528 -282.866885 
L 1806.353605 -281.922691 
L 1806.630339 -280.978498 
L 1806.932911 -280.034305 
L 1807.261078 -279.090112 
L 1807.614127 -278.145919 
L 1807.990861 -277.201725 
L 1808.389581 -276.257532 
L 1808.808101 -275.313339 
L 1809.243769 -274.369146 
L 1809.693513 -273.424952 
L 1810.1539 -272.480759 
L 1810.621222 -271.536566 
L 1811.091587 -270.592373 
L 1811.561032 -269.64818 
L 1812.02564 -268.703986 
L 1812.481671 -267.759793 
L 1812.925688 -266.8156 
L 1813.354691 -265.871407 
L 1813.766233 -264.927213 
L 1814.158538 -263.98302 
L 1814.530594 -263.038827 
L 1814.882229 -262.094634 
L 1815.21417 -261.150441 
L 1815.528061 -260.206247 
L 1815.826465 -259.262054 
L 1816.112826 -258.317861 
L 1816.391394 -257.373668 
L 1816.667123 -256.429474 
L 1816.945525 -255.485281 
L 1817.232505 -254.541088 
L 1817.534149 -253.596895 
L 1817.856506 -252.652702 
L 1818.205338 -251.708508 
L 1818.585865 -250.764315 
L 1819.002512 -249.820122 
L 1819.458663 -248.875929 
L 1819.956431 -247.931735 
L 1820.496462 -246.987542 
L 1821.077787 -246.043349 
L 1821.697712 -245.099156 
L 1822.351783 -244.154963 
L 1823.033798 -243.210769 
L 1823.735907 -242.266576 
L 1824.448759 -241.322383 
L 1825.161731 -240.37819 
L 1825.863205 -239.433996 
L 1826.540888 -238.489803 
L 1827.182179 -237.54561 
L 1827.774544 -236.601417 
L 1828.305902 -235.657224 
L 1828.764992 -234.71303 
L 1829.141716 -233.768837 
L 1829.427435 -232.824644 
L 1829.615215 -231.880451 
L 1829.7 -230.936257 
L 1829.678721 -229.992064 
L 1829.550332 -229.047871 
L 1829.31577 -228.103678 
L 1828.977858 -227.159485 
L 1828.54114 -226.215291 
L 1828.011681 -225.271098 
L 1827.396821 -224.326905 
L 1826.704919 -223.382712 
L 1825.945073 -222.438518 
L 1825.126865 -221.494325 
L 1824.260096 -220.550132 
L 1823.354566 -219.605939 
L 1822.419869 -218.661746 
L 1821.465229 -217.717552 
L 1820.499367 -216.773359 
L 1819.530404 -215.829166 
L 1818.565799 -214.884973 
L 1817.612311 -213.940779 
L 1816.675989 -212.996586 
L 1815.762173 -212.052393 
L 1814.87552 -211.1082 
L 1814.020026 -210.164007 
L 1813.199063 -209.219813 
L 1812.415411 -208.27562 
L 1811.671292 -207.331427 
L 1810.968403 -206.387234 
L 1810.30794 -205.44304 
L 1809.690632 -204.498847 
L 1809.116762 -203.554654 
L 1808.586197 -202.610461 
L 1808.098411 -201.666268 
L 1807.652516 -200.722074 
L 1807.247295 -199.777881 
L 1806.881237 -198.833688 
L 1806.552571 -197.889495 
L 1806.259314 -196.945301 
L 1805.999309 -196.001108 
L 1805.770274 -195.056915 
L 1805.569842 -194.112722 
L 1805.395609 -193.168529 
z
" style="stroke: #595959; stroke-width: 1.5"/>
                </defs>
                <g clip-path="url(#p7cbfb6f0b6)">
                    <use xlink:href="#mcd4ef18f57" x="0" y="720"
                         style="fill: #e5c849; stroke: #595959; stroke-width: 1.5"/>
                </g>
            </g>
            <g id="matplotlib.axis_1">
                <g id="xtick_1">
                    <g id="line2d_1">
                        <defs>
                            <path id="me4922a33a9" d="M 0 0
L 0 3.5 
" style="stroke: #000000; stroke-width: 0.8"/>
                        </defs>
                        <g>
                            <use xlink:href="#me4922a33a9" x="409.5" y="640.8"
                                 style="stroke: #000000; stroke-width: 0.8"/>
                        </g>
                    </g>
                    <g id="text_1">
                        <!-- 1 -->
                        <g transform="translate(403.1375 662.996875)scale(0.2 -0.2)">
                            <defs>
                                <path id="DejaVuSans-31" d="M 794 531
L 1825 531 
L 1825 4091 
L 703 3866 
L 703 4441 
L 1819 4666 
L 2450 4666 
L 2450 531 
L 3481 531 
L 3481 0 
L 794 0 
L 794 531 
z
" transform="scale(0.015625)"/>
                            </defs>
                            <use xlink:href="#DejaVuSans-31"/>
                        </g>
                    </g>
                </g>
                <g id="xtick_2">
                    <g id="line2d_2">
                        <g>
                            <use xlink:href="#me4922a33a9" x="688.5" y="640.8"
                                 style="stroke: #000000; stroke-width: 0.8"/>
                        </g>
                    </g>
                    <g id="text_2">
                        <!-- 2 -->
                        <g transform="translate(682.1375 662.996875)scale(0.2 -0.2)">
                            <defs>
                                <path id="DejaVuSans-32" d="M 1228 531
L 3431 531 
L 3431 0 
L 469 0 
L 469 531 
Q 828 903 1448 1529 
Q 2069 2156 2228 2338 
Q 2531 2678 2651 2914 
Q 2772 3150 2772 3378 
Q 2772 3750 2511 3984 
Q 2250 4219 1831 4219 
Q 1534 4219 1204 4116 
Q 875 4013 500 3803 
L 500 4441 
Q 881 4594 1212 4672 
Q 1544 4750 1819 4750 
Q 2544 4750 2975 4387 
Q 3406 4025 3406 3419 
Q 3406 3131 3298 2873 
Q 3191 2616 2906 2266 
Q 2828 2175 2409 1742 
Q 1991 1309 1228 531 
z
" transform="scale(0.015625)"/>
                            </defs>
                            <use xlink:href="#DejaVuSans-32"/>
                        </g>
                    </g>
                </g>
                <g id="xtick_3">
                    <g id="line2d_3">
                        <g>
                            <use xlink:href="#me4922a33a9" x="967.5" y="640.8"
                                 style="stroke: #000000; stroke-width: 0.8"/>
                        </g>
                    </g>
                    <g id="text_3">
                        <!-- 3 -->
                        <g transform="translate(961.1375 662.996875)scale(0.2 -0.2)">
                            <defs>
                                <path id="DejaVuSans-33" d="M 2597 2516
Q 3050 2419 3304 2112 
Q 3559 1806 3559 1356 
Q 3559 666 3084 287 
Q 2609 -91 1734 -91 
Q 1441 -91 1130 -33 
Q 819 25 488 141 
L 488 750 
Q 750 597 1062 519 
Q 1375 441 1716 441 
Q 2309 441 2620 675 
Q 2931 909 2931 1356 
Q 2931 1769 2642 2001 
Q 2353 2234 1838 2234 
L 1294 2234 
L 1294 2753 
L 1863 2753 
Q 2328 2753 2575 2939 
Q 2822 3125 2822 3475 
Q 2822 3834 2567 4026 
Q 2313 4219 1838 4219 
Q 1578 4219 1281 4162 
Q 984 4106 628 3988 
L 628 4550 
Q 988 4650 1302 4700 
Q 1616 4750 1894 4750 
Q 2613 4750 3031 4423 
Q 3450 4097 3450 3541 
Q 3450 3153 3228 2886 
Q 3006 2619 2597 2516 
z
" transform="scale(0.015625)"/>
                            </defs>
                            <use xlink:href="#DejaVuSans-33"/>
                        </g>
                    </g>
                </g>
                <g id="xtick_4">
                    <g id="line2d_4">
                        <g>
                            <use xlink:href="#me4922a33a9" x="1246.5" y="640.8"
                                 style="stroke: #000000; stroke-width: 0.8"/>
                        </g>
                    </g>
                    <g id="text_4">
                        <!-- 4 -->
                        <g transform="translate(1240.1375 662.996875)scale(0.2 -0.2)">
                            <defs>
                                <path id="DejaVuSans-34" d="M 2419 4116
L 825 1625 
L 2419 1625 
L 2419 4116 
z
M 2253 4666 
L 3047 4666 
L 3047 1625 
L 3713 1625 
L 3713 1100 
L 3047 1100 
L 3047 0 
L 2419 0 
L 2419 1100 
L 313 1100 
L 313 1709 
L 2253 4666 
z
" transform="scale(0.015625)"/>
                            </defs>
                            <use xlink:href="#DejaVuSans-34"/>
                        </g>
                    </g>
                </g>
                <g id="xtick_5">
                    <g id="line2d_5">
                        <g>
                            <use xlink:href="#me4922a33a9" x="1525.5" y="640.8"
                                 style="stroke: #000000; stroke-width: 0.8"/>
                        </g>
                    </g>
                    <g id="text_5">
                        <!-- 5 -->
                        <g transform="translate(1519.1375 662.996875)scale(0.2 -0.2)">
                            <defs>
                                <path id="DejaVuSans-35" d="M 691 4666
L 3169 4666 
L 3169 4134 
L 1269 4134 
L 1269 2991 
Q 1406 3038 1543 3061 
Q 1681 3084 1819 3084 
Q 2600 3084 3056 2656 
Q 3513 2228 3513 1497 
Q 3513 744 3044 326 
Q 2575 -91 1722 -91 
Q 1428 -91 1123 -41 
Q 819 9 494 109 
L 494 744 
Q 775 591 1075 516 
Q 1375 441 1709 441 
Q 2250 441 2565 725 
Q 2881 1009 2881 1497 
Q 2881 1984 2565 2268 
Q 2250 2553 1709 2553 
Q 1456 2553 1204 2497 
Q 953 2441 691 2322 
L 691 4666 
z
" transform="scale(0.015625)"/>
                            </defs>
                            <use xlink:href="#DejaVuSans-35"/>
                        </g>
                    </g>
                </g>
                <g id="xtick_6">
                    <g id="line2d_6">
                        <g>
                            <use xlink:href="#me4922a33a9" x="1804.5" y="640.8"
                                 style="stroke: #000000; stroke-width: 0.8"/>
                        </g>
                    </g>
                    <g id="text_6">
                        <!-- 6 -->
                        <g transform="translate(1798.1375 662.996875)scale(0.2 -0.2)">
                            <defs>
                                <path id="DejaVuSans-36" d="M 2113 2584
Q 1688 2584 1439 2293 
Q 1191 2003 1191 1497 
Q 1191 994 1439 701 
Q 1688 409 2113 409 
Q 2538 409 2786 701 
Q 3034 994 3034 1497 
Q 3034 2003 2786 2293 
Q 2538 2584 2113 2584 
z
M 3366 4563 
L 3366 3988 
Q 3128 4100 2886 4159 
Q 2644 4219 2406 4219 
Q 1781 4219 1451 3797 
Q 1122 3375 1075 2522 
Q 1259 2794 1537 2939 
Q 1816 3084 2150 3084 
Q 2853 3084 3261 2657 
Q 3669 2231 3669 1497 
Q 3669 778 3244 343 
Q 2819 -91 2113 -91 
Q 1303 -91 875 529 
Q 447 1150 447 2328 
Q 447 3434 972 4092 
Q 1497 4750 2381 4750 
Q 2619 4750 2861 4703 
Q 3103 4656 3366 4563 
z
" transform="scale(0.015625)"/>
                            </defs>
                            <use xlink:href="#DejaVuSans-36"/>
                        </g>
                    </g>
                </g>
                <g id="text_7">
                    <!-- cluster -->
                    <g transform="translate(1072.992188 686.353125)scale(0.2 -0.2)">
                        <defs>
                            <path id="DejaVuSans-63" d="M 3122 3366
L 3122 2828 
Q 2878 2963 2633 3030 
Q 2388 3097 2138 3097 
Q 1578 3097 1268 2742 
Q 959 2388 959 1747 
Q 959 1106 1268 751 
Q 1578 397 2138 397 
Q 2388 397 2633 464 
Q 2878 531 3122 666 
L 3122 134 
Q 2881 22 2623 -34 
Q 2366 -91 2075 -91 
Q 1284 -91 818 406 
Q 353 903 353 1747 
Q 353 2603 823 3093 
Q 1294 3584 2113 3584 
Q 2378 3584 2631 3529 
Q 2884 3475 3122 3366 
z
" transform="scale(0.015625)"/>
                            <path id="DejaVuSans-6c" d="M 603 4863
L 1178 4863 
L 1178 0 
L 603 0 
L 603 4863 
z
" transform="scale(0.015625)"/>
                            <path id="DejaVuSans-75" d="M 544 1381
L 544 3500 
L 1119 3500 
L 1119 1403 
Q 1119 906 1312 657 
Q 1506 409 1894 409 
Q 2359 409 2629 706 
Q 2900 1003 2900 1516 
L 2900 3500 
L 3475 3500 
L 3475 0 
L 2900 0 
L 2900 538 
Q 2691 219 2414 64 
Q 2138 -91 1772 -91 
Q 1169 -91 856 284 
Q 544 659 544 1381 
z
M 1991 3584 
L 1991 3584 
z
" transform="scale(0.015625)"/>
                            <path id="DejaVuSans-73" d="M 2834 3397
L 2834 2853 
Q 2591 2978 2328 3040 
Q 2066 3103 1784 3103 
Q 1356 3103 1142 2972 
Q 928 2841 928 2578 
Q 928 2378 1081 2264 
Q 1234 2150 1697 2047 
L 1894 2003 
Q 2506 1872 2764 1633 
Q 3022 1394 3022 966 
Q 3022 478 2636 193 
Q 2250 -91 1575 -91 
Q 1294 -91 989 -36 
Q 684 19 347 128 
L 347 722 
Q 666 556 975 473 
Q 1284 391 1588 391 
Q 1994 391 2212 530 
Q 2431 669 2431 922 
Q 2431 1156 2273 1281 
Q 2116 1406 1581 1522 
L 1381 1569 
Q 847 1681 609 1914 
Q 372 2147 372 2553 
Q 372 3047 722 3315 
Q 1072 3584 1716 3584 
Q 2034 3584 2315 3537 
Q 2597 3491 2834 3397 
z
" transform="scale(0.015625)"/>
                            <path id="DejaVuSans-74" d="M 1172 4494
L 1172 3500 
L 2356 3500 
L 2356 3053 
L 1172 3053 
L 1172 1153 
Q 1172 725 1289 603 
Q 1406 481 1766 481 
L 2356 481 
L 2356 0 
L 1766 0 
Q 1100 0 847 248 
Q 594 497 594 1153 
L 594 3053 
L 172 3053 
L 172 3500 
L 594 3500 
L 594 4494 
L 1172 4494 
z
" transform="scale(0.015625)"/>
                            <path id="DejaVuSans-65" d="M 3597 1894
L 3597 1613 
L 953 1613 
Q 991 1019 1311 708 
Q 1631 397 2203 397 
Q 2534 397 2845 478 
Q 3156 559 3463 722 
L 3463 178 
Q 3153 47 2828 -22 
Q 2503 -91 2169 -91 
Q 1331 -91 842 396 
Q 353 884 353 1716 
Q 353 2575 817 3079 
Q 1281 3584 2069 3584 
Q 2775 3584 3186 3129 
Q 3597 2675 3597 1894 
z
M 3022 2063 
Q 3016 2534 2758 2815 
Q 2500 3097 2075 3097 
Q 1594 3097 1305 2825 
Q 1016 2553 972 2059 
L 3022 2063 
z
" transform="scale(0.015625)"/>
                            <path id="DejaVuSans-72" d="M 2631 2963
Q 2534 3019 2420 3045 
Q 2306 3072 2169 3072 
Q 1681 3072 1420 2755 
Q 1159 2438 1159 1844 
L 1159 0 
L 581 0 
L 581 3500 
L 1159 3500 
L 1159 2956 
Q 1341 3275 1631 3429 
Q 1922 3584 2338 3584 
Q 2397 3584 2469 3576 
Q 2541 3569 2628 3553 
L 2631 2963 
z
" transform="scale(0.015625)"/>
                        </defs>
                        <use xlink:href="#DejaVuSans-63"/>
                        <use xlink:href="#DejaVuSans-6c" x="54.980469"/>
                        <use xlink:href="#DejaVuSans-75" x="82.763672"/>
                        <use xlink:href="#DejaVuSans-73" x="146.142578"/>
                        <use xlink:href="#DejaVuSans-74" x="198.242188"/>
                        <use xlink:href="#DejaVuSans-65" x="237.451172"/>
                        <use xlink:href="#DejaVuSans-72" x="298.974609"/>
                    </g>
                </g>
            </g>
            <g id="matplotlib.axis_2">
                <g id="ytick_1">
                    <g id="line2d_7">
                        <defs>
                            <path id="m79780eccef" d="M 0 0
L -3.5 0 
" style="stroke: #000000; stroke-width: 0.8"/>
                        </defs>
                        <g>
                            <use xlink:href="#m79780eccef" x="270" y="627.656973"
                                 style="stroke: #000000; stroke-width: 0.8"/>
                        </g>
                    </g>
                    <g id="text_8">
                        <!-- 0 -->
                        <g transform="translate(250.275 635.25541)scale(0.2 -0.2)">
                            <defs>
                                <path id="DejaVuSans-30" d="M 2034 4250
Q 1547 4250 1301 3770 
Q 1056 3291 1056 2328 
Q 1056 1369 1301 889 
Q 1547 409 2034 409 
Q 2525 409 2770 889 
Q 3016 1369 3016 2328 
Q 3016 3291 2770 3770 
Q 2525 4250 2034 4250 
z
M 2034 4750 
Q 2819 4750 3233 4129 
Q 3647 3509 3647 2328 
Q 3647 1150 3233 529 
Q 2819 -91 2034 -91 
Q 1250 -91 836 529 
Q 422 1150 422 2328 
Q 422 3509 836 4129 
Q 1250 4750 2034 4750 
z
" transform="scale(0.015625)"/>
                            </defs>
                            <use xlink:href="#DejaVuSans-30"/>
                        </g>
                    </g>
                </g>
                <g id="ytick_2">
                    <g id="line2d_8">
                        <g>
                            <use xlink:href="#m79780eccef" x="270" y="509.046877"
                                 style="stroke: #000000; stroke-width: 0.8"/>
                        </g>
                    </g>
                    <g id="text_9">
                        <!-- 5 -->
                        <g transform="translate(250.275 516.645315)scale(0.2 -0.2)">
                            <use xlink:href="#DejaVuSans-35"/>
                        </g>
                    </g>
                </g>
                <g id="ytick_3">
                    <g id="line2d_9">
                        <g>
                            <use xlink:href="#m79780eccef" x="270" y="390.436781"
                                 style="stroke: #000000; stroke-width: 0.8"/>
                        </g>
                    </g>
                    <g id="text_10">
                        <!-- 10 -->
                        <g transform="translate(237.55 398.035219)scale(0.2 -0.2)">
                            <use xlink:href="#DejaVuSans-31"/>
                            <use xlink:href="#DejaVuSans-30" x="63.623047"/>
                        </g>
                    </g>
                </g>
                <g id="ytick_4">
                    <g id="line2d_10">
                        <g>
                            <use xlink:href="#m79780eccef" x="270" y="271.826686"
                                 style="stroke: #000000; stroke-width: 0.8"/>
                        </g>
                    </g>
                    <g id="text_11">
                        <!-- 15 -->
                        <g transform="translate(237.55 279.425123)scale(0.2 -0.2)">
                            <use xlink:href="#DejaVuSans-31"/>
                            <use xlink:href="#DejaVuSans-35" x="63.623047"/>
                        </g>
                    </g>
                </g>
                <g id="ytick_5">
                    <g id="line2d_11">
                        <g>
                            <use xlink:href="#m79780eccef" x="270" y="153.21659"
                                 style="stroke: #000000; stroke-width: 0.8"/>
                        </g>
                    </g>
                    <g id="text_12">
                        <!-- 20 -->
                        <g transform="translate(237.55 160.815027)scale(0.2 -0.2)">
                            <use xlink:href="#DejaVuSans-32"/>
                            <use xlink:href="#DejaVuSans-30" x="63.623047"/>
                        </g>
                    </g>
                </g>
                <g id="text_13">
                    <!-- log -->
                    <g transform="translate(229.390625 378.845312)rotate(-90)scale(0.2 -0.2)">
                        <defs>
                            <path id="DejaVuSans-6f" d="M 1959 3097
Q 1497 3097 1228 2736 
Q 959 2375 959 1747 
Q 959 1119 1226 758 
Q 1494 397 1959 397 
Q 2419 397 2687 759 
Q 2956 1122 2956 1747 
Q 2956 2369 2687 2733 
Q 2419 3097 1959 3097 
z
M 1959 3584 
Q 2709 3584 3137 3096 
Q 3566 2609 3566 1747 
Q 3566 888 3137 398 
Q 2709 -91 1959 -91 
Q 1206 -91 779 398 
Q 353 888 353 1747 
Q 353 2609 779 3096 
Q 1206 3584 1959 3584 
z
" transform="scale(0.015625)"/>
                            <path id="DejaVuSans-67" d="M 2906 1791
Q 2906 2416 2648 2759 
Q 2391 3103 1925 3103 
Q 1463 3103 1205 2759 
Q 947 2416 947 1791 
Q 947 1169 1205 825 
Q 1463 481 1925 481 
Q 2391 481 2648 825 
Q 2906 1169 2906 1791 
z
M 3481 434 
Q 3481 -459 3084 -895 
Q 2688 -1331 1869 -1331 
Q 1566 -1331 1297 -1286 
Q 1028 -1241 775 -1147 
L 775 -588 
Q 1028 -725 1275 -790 
Q 1522 -856 1778 -856 
Q 2344 -856 2625 -561 
Q 2906 -266 2906 331 
L 2906 616 
Q 2728 306 2450 153 
Q 2172 0 1784 0 
Q 1141 0 747 490 
Q 353 981 353 1791 
Q 353 2603 747 3093 
Q 1141 3584 1784 3584 
Q 2172 3584 2450 3431 
Q 2728 3278 2906 2969 
L 2906 3500 
L 3481 3500 
L 3481 434 
z
" transform="scale(0.015625)"/>
                        </defs>
                        <use xlink:href="#DejaVuSans-6c"/>
                        <use xlink:href="#DejaVuSans-6f" x="27.783203"/>
                        <use xlink:href="#DejaVuSans-67" x="88.964844"/>
                    </g>
                </g>
            </g>
            <g id="line2d_12">
                <path d="M 409.5 508.859746
L 409.5 360.082261 
" clip-path="url(#p7cbfb6f0b6)" style="fill: none; stroke: #595959; stroke-width: 1.5; stroke-linecap: square"/>
            </g>
            <g id="line2d_13">
                <path d="M 409.5 493.569743
L 409.5 429.81156 
" clip-path="url(#p7cbfb6f0b6)" style="fill: none; stroke: #595959; stroke-width: 4.5; stroke-linecap: square"/>
            </g>
            <g id="line2d_14">
                <path d="M 688.5 508.493463
L 688.5 218.706537 
" clip-path="url(#p7cbfb6f0b6)" style="fill: none; stroke: #595959; stroke-width: 1.5; stroke-linecap: square"/>
            </g>
            <g id="line2d_15">
                <path d="M 688.5 493.20011
L 688.5 340.408537 
" clip-path="url(#p7cbfb6f0b6)" style="fill: none; stroke: #595959; stroke-width: 4.5; stroke-linecap: square"/>
            </g>
            <g id="line2d_16">
                <path d="M 967.5 507.636989
L 967.5 447.049355 
" clip-path="url(#p7cbfb6f0b6)" style="fill: none; stroke: #595959; stroke-width: 1.5; stroke-linecap: square"/>
            </g>
            <g id="line2d_17">
                <path d="M 967.5 501.868531
L 967.5 471.15149 
" clip-path="url(#p7cbfb6f0b6)" style="fill: none; stroke: #595959; stroke-width: 4.5; stroke-linecap: square"/>
            </g>
            <g id="line2d_18">
                <path d="M 1246.5 501.489567
L 1246.5 452.43988 
" clip-path="url(#p7cbfb6f0b6)" style="fill: none; stroke: #595959; stroke-width: 1.5; stroke-linecap: square"/>
            </g>
            <g id="line2d_19">
                <path d="M 1246.5 489.742959
L 1246.5 473.415253 
" clip-path="url(#p7cbfb6f0b6)" style="fill: none; stroke: #595959; stroke-width: 4.5; stroke-linecap: square"/>
            </g>
            <g id="line2d_20">
                <path d="M 1525.5 508.87966
L 1525.5 417.965438 
" clip-path="url(#p7cbfb6f0b6)" style="fill: none; stroke: #595959; stroke-width: 1.5; stroke-linecap: square"/>
            </g>
            <g id="line2d_21">
                <path d="M 1525.5 505.025767
L 1525.5 460.217789 
" clip-path="url(#p7cbfb6f0b6)" style="fill: none; stroke: #595959; stroke-width: 4.5; stroke-linecap: square"/>
            </g>
            <g id="line2d_22">
                <path d="M 1804.5 504.492446
L 1804.5 455.695368 
" clip-path="url(#p7cbfb6f0b6)" style="fill: none; stroke: #595959; stroke-width: 1.5; stroke-linecap: square"/>
            </g>
            <g id="line2d_23">
                <path d="M 1804.5 491.920551
L 1804.5 476.320703 
" clip-path="url(#p7cbfb6f0b6)" style="fill: none; stroke: #595959; stroke-width: 4.5; stroke-linecap: square"/>
            </g>
            <g id="patch_3">
                <path d="M 270 640.8
L 270 86.4 
" style="fill: none; stroke: #000000; stroke-width: 0.8; stroke-linejoin: miter; stroke-linecap: square"/>
            </g>
            <g id="patch_4">
                <path d="M 1944 640.8
L 1944 86.4 
" style="fill: none; stroke: #000000; stroke-width: 0.8; stroke-linejoin: miter; stroke-linecap: square"/>
            </g>
            <g id="patch_5">
                <path d="M 270 640.8
L 1944 640.8 
" style="fill: none; stroke: #000000; stroke-width: 0.8; stroke-linejoin: miter; stroke-linecap: square"/>
            </g>
            <g id="patch_6">
                <path d="M 270 86.4
L 1944 86.4 
" style="fill: none; stroke: #000000; stroke-width: 0.8; stroke-linejoin: miter; stroke-linecap: square"/>
            </g>
            <g id="PathCollection_1">
                <defs>
                    <path id="m9b8c6b1c8f" d="M 0 1.5
C 0.397805 1.5 0.77937 1.341951 1.06066 1.06066 
C 1.341951 0.77937 1.5 0.397805 1.5 0 
C 1.5 -0.397805 1.341951 -0.77937 1.06066 -1.06066 
C 0.77937 -1.341951 0.397805 -1.5 0 -1.5 
C -0.397805 -1.5 -0.77937 -1.341951 -1.06066 -1.06066 
C -1.341951 -0.77937 -1.5 -0.397805 -1.5 0 
C -1.5 0.397805 -1.341951 0.77937 -1.06066 1.06066 
C -0.77937 1.341951 -0.397805 1.5 0 1.5 
z
" style="stroke: #595959"/>
                </defs>
                <g clip-path="url(#p7cbfb6f0b6)">
                    <use xlink:href="#m9b8c6b1c8f" x="409.5" y="472.099352" style="fill: #ffffff; stroke: #595959"/>
                </g>
            </g>
            <g id="PathCollection_2">
                <g clip-path="url(#p7cbfb6f0b6)">
                    <use xlink:href="#m9b8c6b1c8f" x="688.5" y="455.119769" style="fill: #ffffff; stroke: #595959"/>
                </g>
            </g>
            <g id="PathCollection_3">
                <g clip-path="url(#p7cbfb6f0b6)">
                    <use xlink:href="#m9b8c6b1c8f" x="967.5" y="481.381888" style="fill: #ffffff; stroke: #595959"/>
                </g>
            </g>
            <g id="PathCollection_4">
                <g clip-path="url(#p7cbfb6f0b6)">
                    <use xlink:href="#m9b8c6b1c8f" x="1246.5" y="487.932284" style="fill: #ffffff; stroke: #595959"/>
                </g>
            </g>
            <g id="PathCollection_5">
                <g clip-path="url(#p7cbfb6f0b6)">
                    <use xlink:href="#m9b8c6b1c8f" x="1525.5" y="492.855088" style="fill: #ffffff; stroke: #595959"/>
                </g>
            </g>
            <g id="PathCollection_6">
                <g clip-path="url(#p7cbfb6f0b6)">
                    <use xlink:href="#m9b8c6b1c8f" x="1804.5" y="485.738824" style="fill: #ffffff; stroke: #595959"/>
                </g>
            </g>
            <g id="PathCollection_7">
                <defs>
                    <path id="C0_0_186f9dea61" d="M 0 2.5
C 0.663008 2.5 1.29895 2.236584 1.767767 1.767767 
C 2.236584 1.29895 2.5 0.663008 2.5 -0 
C 2.5 -0.663008 2.236584 -1.29895 1.767767 -1.767767 
C 1.29895 -2.236584 0.663008 -2.5 0 -2.5 
C -0.663008 -2.5 -1.29895 -2.236584 -1.767767 -1.767767 
C -2.236584 -1.29895 -2.5 -0.663008 -2.5 0 
C -2.5 0.663008 -2.236584 1.29895 -1.767767 1.767767 
C -1.29895 2.236584 -0.663008 2.5 0 2.5 
z
"/>
                </defs>
                <g clip-path="url(#p7cbfb6f0b6)">
                    <use xlink:href="#C0_0_186f9dea61" x="409.5" y="508.859746" style="fill: #1f77b4"/>
                </g>
                <g clip-path="url(#p7cbfb6f0b6)">
                    <use xlink:href="#C0_0_186f9dea61" x="404.872756" y="506.497704" style="fill: #1f77b4"/>
                </g>
                <g clip-path="url(#p7cbfb6f0b6)">
                    <use xlink:href="#C0_0_186f9dea61" x="413.941444" y="506.193747" style="fill: #1f77b4"/>
                </g>
                <g clip-path="url(#p7cbfb6f0b6)">
                    <use xlink:href="#C0_0_186f9dea61" x="418.67195" y="504.025158" style="fill: #1f77b4"/>
                </g>
                <g clip-path="url(#p7cbfb6f0b6)">
                    <use xlink:href="#C0_0_186f9dea61" x="409.5" y="498.17813" style="fill: #1f77b4"/>
                </g>
                <g clip-path="url(#p7cbfb6f0b6)">
                    <use xlink:href="#C0_0_186f9dea61" x="405.182128" y="495.333956" style="fill: #1f77b4"/>
                </g>
                <g clip-path="url(#p7cbfb6f0b6)">
                    <use xlink:href="#C0_0_186f9dea61" x="412.912575" y="494.37852" style="fill: #1f77b4"/>
                </g>
                <g clip-path="url(#p7cbfb6f0b6)">
                    <use xlink:href="#C0_0_186f9dea61" x="418.132869" y="493.847377" style="fill: #1f77b4"/>
                </g>
                <g clip-path="url(#p7cbfb6f0b6)">
                    <use xlink:href="#C0_0_186f9dea61" x="400.38984" y="493.292109" style="fill: #1f77b4"/>
                </g>
                <g clip-path="url(#p7cbfb6f0b6)">
                    <use xlink:href="#C0_0_186f9dea61" x="409.5" y="489.753139" style="fill: #1f77b4"/>
                </g>
                <g clip-path="url(#p7cbfb6f0b6)">
                    <use xlink:href="#C0_0_186f9dea61" x="404.551487" y="488.08315" style="fill: #1f77b4"/>
                </g>
                <g clip-path="url(#p7cbfb6f0b6)">
                    <use xlink:href="#C0_0_186f9dea61" x="414.319871" y="487.771055" style="fill: #1f77b4"/>
                </g>
                <g clip-path="url(#p7cbfb6f0b6)">
                    <use xlink:href="#C0_0_186f9dea61" x="409.5" y="480.328269" style="fill: #1f77b4"/>
                </g>
                <g clip-path="url(#p7cbfb6f0b6)">
                    <use xlink:href="#C0_0_186f9dea61" x="405.456251" y="477.139486" style="fill: #1f77b4"/>
                </g>
                <g clip-path="url(#p7cbfb6f0b6)">
                    <use xlink:href="#C0_0_186f9dea61" x="409.5" y="472.758437" style="fill: #1f77b4"/>
                </g>
                <g clip-path="url(#p7cbfb6f0b6)">
                    <use xlink:href="#C0_0_186f9dea61" x="404.295811" y="472.099352" style="fill: #1f77b4"/>
                </g>
                <g clip-path="url(#p7cbfb6f0b6)">
                    <use xlink:href="#C0_0_186f9dea61" x="409.5" y="465.388095" style="fill: #1f77b4"/>
                </g>
                <g clip-path="url(#p7cbfb6f0b6)">
                    <use xlink:href="#C0_0_186f9dea61" x="409.5" y="458.995445" style="fill: #1f77b4"/>
                </g>
                <g clip-path="url(#p7cbfb6f0b6)">
                    <use xlink:href="#C0_0_186f9dea61" x="409.5" y="446.059819" style="fill: #1f77b4"/>
                </g>
                <g clip-path="url(#p7cbfb6f0b6)">
                    <use xlink:href="#C0_0_186f9dea61" x="404.275401" y="445.56857" style="fill: #1f77b4"/>
                </g>
                <g clip-path="url(#p7cbfb6f0b6)">
                    <use xlink:href="#C0_0_186f9dea61" x="414.25866" y="443.94784" style="fill: #1f77b4"/>
                </g>
                <g clip-path="url(#p7cbfb6f0b6)">
                    <use xlink:href="#C0_0_186f9dea61" x="400.580251" y="442.016768" style="fill: #1f77b4"/>
                </g>
                <g clip-path="url(#p7cbfb6f0b6)">
                    <use xlink:href="#C0_0_186f9dea61" x="409.5" y="433.455419" style="fill: #1f77b4"/>
                </g>
                <g clip-path="url(#p7cbfb6f0b6)">
                    <use xlink:href="#C0_0_186f9dea61" x="409.5" y="426.167702" style="fill: #1f77b4"/>
                </g>
                <g clip-path="url(#p7cbfb6f0b6)">
                    <use xlink:href="#C0_0_186f9dea61" x="405.108021" y="423.428382" style="fill: #1f77b4"/>
                </g>
                <g clip-path="url(#p7cbfb6f0b6)">
                    <use xlink:href="#C0_0_186f9dea61" x="409.5" y="409.554557" style="fill: #1f77b4"/>
                </g>
                <g clip-path="url(#p7cbfb6f0b6)">
                    <use xlink:href="#C0_0_186f9dea61" x="409.5" y="387.358334" style="fill: #1f77b4"/>
                </g>
                <g clip-path="url(#p7cbfb6f0b6)">
                    <use xlink:href="#C0_0_186f9dea61" x="409.5" y="374.865779" style="fill: #1f77b4"/>
                </g>
                <g clip-path="url(#p7cbfb6f0b6)">
                    <use xlink:href="#C0_0_186f9dea61" x="404.329483" y="373.999034" style="fill: #1f77b4"/>
                </g>
                <g clip-path="url(#p7cbfb6f0b6)">
                    <use xlink:href="#C0_0_186f9dea61" x="409.5" y="360.082261" style="fill: #1f77b4"/>
                </g>
                <g clip-path="url(#p7cbfb6f0b6)">
                    <use xlink:href="#C0_0_186f9dea61" x="409.5" y="331.508293" style="fill: #1f77b4"/>
                </g>
            </g>
            <g id="PathCollection_8">
                <defs>
                    <path id="C1_0_e6a44ec78e" d="M 0 2.5
C 0.663008 2.5 1.29895 2.236584 1.767767 1.767767 
C 2.236584 1.29895 2.5 0.663008 2.5 -0 
C 2.5 -0.663008 2.236584 -1.29895 1.767767 -1.767767 
C 1.29895 -2.236584 0.663008 -2.5 0 -2.5 
C -0.663008 -2.5 -1.29895 -2.236584 -1.767767 -1.767767 
C -2.236584 -1.29895 -2.5 -0.663008 -2.5 0 
C -2.5 0.663008 -2.236584 1.29895 -1.767767 1.767767 
C -1.29895 2.236584 -0.663008 2.5 0 2.5 
z
"/>
                </defs>
                <g clip-path="url(#p7cbfb6f0b6)">
                    <use xlink:href="#C1_0_e6a44ec78e" x="688.5" y="508.493463" style="fill: #ff7f0e"/>
                </g>
                <g clip-path="url(#p7cbfb6f0b6)">
                    <use xlink:href="#C1_0_e6a44ec78e" x="683.792979" y="506.279008" style="fill: #ff7f0e"/>
                </g>
                <g clip-path="url(#p7cbfb6f0b6)">
                    <use xlink:href="#C1_0_e6a44ec78e" x="692.966124" y="505.865126" style="fill: #ff7f0e"/>
                </g>
                <g clip-path="url(#p7cbfb6f0b6)">
                    <use xlink:href="#C1_0_e6a44ec78e" x="688.5" y="502.885882" style="fill: #ff7f0e"/>
                </g>
                <g clip-path="url(#p7cbfb6f0b6)">
                    <use xlink:href="#C1_0_e6a44ec78e" x="688.5" y="496.721821" style="fill: #ff7f0e"/>
                </g>
                <g clip-path="url(#p7cbfb6f0b6)">
                    <use xlink:href="#C1_0_e6a44ec78e" x="683.607612" y="494.908031" style="fill: #ff7f0e"/>
                </g>
                <g clip-path="url(#p7cbfb6f0b6)">
                    <use xlink:href="#C1_0_e6a44ec78e" x="692.46369" y="493.443131" style="fill: #ff7f0e"/>
                </g>
                <g clip-path="url(#p7cbfb6f0b6)">
                    <use xlink:href="#C1_0_e6a44ec78e" x="697.613515" y="492.471047" style="fill: #ff7f0e"/>
                </g>
                <g clip-path="url(#p7cbfb6f0b6)">
                    <use xlink:href="#C1_0_e6a44ec78e" x="688.5" y="489.813289" style="fill: #ff7f0e"/>
                </g>
                <g clip-path="url(#p7cbfb6f0b6)">
                    <use xlink:href="#C1_0_e6a44ec78e" x="693.443668" y="488.130336" style="fill: #ff7f0e"/>
                </g>
                <g clip-path="url(#p7cbfb6f0b6)">
                    <use xlink:href="#C1_0_e6a44ec78e" x="688.5" y="481.017505" style="fill: #ff7f0e"/>
                </g>
                <g clip-path="url(#p7cbfb6f0b6)">
                    <use xlink:href="#C1_0_e6a44ec78e" x="688.5" y="467.291375" style="fill: #ff7f0e"/>
                </g>
                <g clip-path="url(#p7cbfb6f0b6)">
                    <use xlink:href="#C1_0_e6a44ec78e" x="683.352357" y="466.308863" style="fill: #ff7f0e"/>
                </g>
                <g clip-path="url(#p7cbfb6f0b6)">
                    <use xlink:href="#C1_0_e6a44ec78e" x="688.5" y="443.930674" style="fill: #ff7f0e"/>
                </g>
                <g clip-path="url(#p7cbfb6f0b6)">
                    <use xlink:href="#C1_0_e6a44ec78e" x="688.5" y="428.847421" style="fill: #ff7f0e"/>
                </g>
                <g clip-path="url(#p7cbfb6f0b6)">
                    <use xlink:href="#C1_0_e6a44ec78e" x="688.5" y="408.996912" style="fill: #ff7f0e"/>
                </g>
                <g clip-path="url(#p7cbfb6f0b6)">
                    <use xlink:href="#C1_0_e6a44ec78e" x="683.836904" y="406.699711" style="fill: #ff7f0e"/>
                </g>
                <g clip-path="url(#p7cbfb6f0b6)">
                    <use xlink:href="#C1_0_e6a44ec78e" x="688.5" y="403.873822" style="fill: #ff7f0e"/>
                </g>
                <g clip-path="url(#p7cbfb6f0b6)">
                    <use xlink:href="#C1_0_e6a44ec78e" x="688.5" y="342.298132" style="fill: #ff7f0e"/>
                </g>
                <g clip-path="url(#p7cbfb6f0b6)">
                    <use xlink:href="#C1_0_e6a44ec78e" x="683.965225" y="339.778672" style="fill: #ff7f0e"/>
                </g>
                <g clip-path="url(#p7cbfb6f0b6)">
                    <use xlink:href="#C1_0_e6a44ec78e" x="688.5" y="276.234838" style="fill: #ff7f0e"/>
                </g>
                <g clip-path="url(#p7cbfb6f0b6)">
                    <use xlink:href="#C1_0_e6a44ec78e" x="688.5" y="260.943134" style="fill: #ff7f0e"/>
                </g>
                <g clip-path="url(#p7cbfb6f0b6)">
                    <use xlink:href="#C1_0_e6a44ec78e" x="688.5" y="252.445439" style="fill: #ff7f0e"/>
                </g>
                <g clip-path="url(#p7cbfb6f0b6)">
                    <use xlink:href="#C1_0_e6a44ec78e" x="688.5" y="241.051848" style="fill: #ff7f0e"/>
                </g>
                <g clip-path="url(#p7cbfb6f0b6)">
                    <use xlink:href="#C1_0_e6a44ec78e" x="688.5" y="226.828844" style="fill: #ff7f0e"/>
                </g>
                <g clip-path="url(#p7cbfb6f0b6)">
                    <use xlink:href="#C1_0_e6a44ec78e" x="688.5" y="218.706537" style="fill: #ff7f0e"/>
                </g>
            </g>
            <g id="PathCollection_9">
                <defs>
                    <path id="C2_0_4ac5baf363" d="M 0 2.5
C 0.663008 2.5 1.29895 2.236584 1.767767 1.767767 
C 2.236584 1.29895 2.5 0.663008 2.5 -0 
C 2.5 -0.663008 2.236584 -1.29895 1.767767 -1.767767 
C 1.29895 -2.236584 0.663008 -2.5 0 -2.5 
C -0.663008 -2.5 -1.29895 -2.236584 -1.767767 -1.767767 
C -2.236584 -1.29895 -2.5 -0.663008 -2.5 0 
C -2.5 0.663008 -2.236584 1.29895 -1.767767 1.767767 
C -1.29895 2.236584 -0.663008 2.5 0 2.5 
z
"/>
                </defs>
                <g clip-path="url(#p7cbfb6f0b6)">
                    <use xlink:href="#C2_0_4ac5baf363" x="967.5" y="507.636989" style="fill: #2ca02c"/>
                </g>
                <g clip-path="url(#p7cbfb6f0b6)">
                    <use xlink:href="#C2_0_4ac5baf363" x="967.5" y="501.924365" style="fill: #2ca02c"/>
                </g>
                <g clip-path="url(#p7cbfb6f0b6)">
                    <use xlink:href="#C2_0_4ac5baf363" x="962.251309" y="501.812697" style="fill: #2ca02c"/>
                </g>
                <g clip-path="url(#p7cbfb6f0b6)">
                    <use xlink:href="#C2_0_4ac5baf363" x="967.5" y="481.381888" style="fill: #2ca02c"/>
                </g>
                <g clip-path="url(#p7cbfb6f0b6)">
                    <use xlink:href="#C2_0_4ac5baf363" x="963.590379" y="478.044834" style="fill: #2ca02c"/>
                </g>
                <g clip-path="url(#p7cbfb6f0b6)">
                    <use xlink:href="#C2_0_4ac5baf363" x="967.5" y="464.258146" style="fill: #2ca02c"/>
                </g>
                <g clip-path="url(#p7cbfb6f0b6)">
                    <use xlink:href="#C2_0_4ac5baf363" x="967.5" y="447.049355" style="fill: #2ca02c"/>
                </g>
            </g>
            <g id="PathCollection_10">
                <defs>
                    <path id="C3_0_c5440a5dbe" d="M 0 2.5
C 0.663008 2.5 1.29895 2.236584 1.767767 1.767767 
C 2.236584 1.29895 2.5 0.663008 2.5 -0 
C 2.5 -0.663008 2.236584 -1.29895 1.767767 -1.767767 
C 1.29895 -2.236584 0.663008 -2.5 0 -2.5 
C -0.663008 -2.5 -1.29895 -2.236584 -1.767767 -1.767767 
C -2.236584 -1.29895 -2.5 -0.663008 -2.5 0 
C -2.5 0.663008 -2.236584 1.29895 -1.767767 1.767767 
C -1.29895 2.236584 -0.663008 2.5 0 2.5 
z
"/>
                </defs>
                <g clip-path="url(#p7cbfb6f0b6)">
                    <use xlink:href="#C3_0_c5440a5dbe" x="1246.5" y="501.489567" style="fill: #d62728"/>
                </g>
                <g clip-path="url(#p7cbfb6f0b6)">
                    <use xlink:href="#C3_0_c5440a5dbe" x="1246.5" y="490.440216" style="fill: #d62728"/>
                </g>
                <g clip-path="url(#p7cbfb6f0b6)">
                    <use xlink:href="#C3_0_c5440a5dbe" x="1241.458324" y="489.045702" style="fill: #d62728"/>
                </g>
                <g clip-path="url(#p7cbfb6f0b6)">
                    <use xlink:href="#C3_0_c5440a5dbe" x="1251.041815" y="487.932284" style="fill: #d62728"/>
                </g>
                <g clip-path="url(#p7cbfb6f0b6)">
                    <use xlink:href="#C3_0_c5440a5dbe" x="1246.5" y="480.639761" style="fill: #d62728"/>
                </g>
                <g clip-path="url(#p7cbfb6f0b6)">
                    <use xlink:href="#C3_0_c5440a5dbe" x="1246.5" y="466.190746" style="fill: #d62728"/>
                </g>
                <g clip-path="url(#p7cbfb6f0b6)">
                    <use xlink:href="#C3_0_c5440a5dbe" x="1246.5" y="452.43988" style="fill: #d62728"/>
                </g>
            </g>
            <g id="PathCollection_11">
                <defs>
                    <path id="C4_0_7d0109294a" d="M 0 2.5
C 0.663008 2.5 1.29895 2.236584 1.767767 1.767767 
C 2.236584 1.29895 2.5 0.663008 2.5 -0 
C 2.5 -0.663008 2.236584 -1.29895 1.767767 -1.767767 
C 1.29895 -2.236584 0.663008 -2.5 0 -2.5 
C -0.663008 -2.5 -1.29895 -2.236584 -1.767767 -1.767767 
C -2.236584 -1.29895 -2.5 -0.663008 -2.5 0 
C -2.5 0.663008 -2.236584 1.29895 -1.767767 1.767767 
C -1.29895 2.236584 -0.663008 2.5 0 2.5 
z
"/>
                </defs>
                <g clip-path="url(#p7cbfb6f0b6)">
                    <use xlink:href="#C4_0_7d0109294a" x="1525.5" y="508.87966" style="fill: #9467bd"/>
                </g>
                <g clip-path="url(#p7cbfb6f0b6)">
                    <use xlink:href="#C4_0_7d0109294a" x="1520.30418" y="508.163186" style="fill: #9467bd"/>
                </g>
                <g clip-path="url(#p7cbfb6f0b6)">
                    <use xlink:href="#C4_0_7d0109294a" x="1530.691284" y="508.133959" style="fill: #9467bd"/>
                </g>
                <g clip-path="url(#p7cbfb6f0b6)">
                    <use xlink:href="#C4_0_7d0109294a" x="1515.24646" y="506.822398" style="fill: #9467bd"/>
                </g>
                <g clip-path="url(#p7cbfb6f0b6)">
                    <use xlink:href="#C4_0_7d0109294a" x="1535.685043" y="506.590962" style="fill: #9467bd"/>
                </g>
                <g clip-path="url(#p7cbfb6f0b6)">
                    <use xlink:href="#C4_0_7d0109294a" x="1510.242296" y="505.31029" style="fill: #9467bd"/>
                </g>
                <g clip-path="url(#p7cbfb6f0b6)">
                    <use xlink:href="#C4_0_7d0109294a" x="1540.731464" y="505.2121" style="fill: #9467bd"/>
                </g>
                <g clip-path="url(#p7cbfb6f0b6)">
                    <use xlink:href="#C4_0_7d0109294a" x="1545.922806" y="504.466767" style="fill: #9467bd"/>
                </g>
                <g clip-path="url(#p7cbfb6f0b6)">
                    <use xlink:href="#C4_0_7d0109294a" x="1505.0923" y="504.339027" style="fill: #9467bd"/>
                </g>
                <g clip-path="url(#p7cbfb6f0b6)">
                    <use xlink:href="#C4_0_7d0109294a" x="1525.5" y="502.432012" style="fill: #9467bd"/>
                </g>
                <g clip-path="url(#p7cbfb6f0b6)">
                    <use xlink:href="#C4_0_7d0109294a" x="1523.511467" y="497.804554" style="fill: #9467bd"/>
                </g>
                <g clip-path="url(#p7cbfb6f0b6)">
                    <use xlink:href="#C4_0_7d0109294a" x="1526.976342" y="494.048121" style="fill: #9467bd"/>
                </g>
                <g clip-path="url(#p7cbfb6f0b6)">
                    <use xlink:href="#C4_0_7d0109294a" x="1521.875433" y="492.865008" style="fill: #9467bd"/>
                </g>
                <g clip-path="url(#p7cbfb6f0b6)">
                    <use xlink:href="#C4_0_7d0109294a" x="1532.072132" y="492.845167" style="fill: #9467bd"/>
                </g>
                <g clip-path="url(#p7cbfb6f0b6)">
                    <use xlink:href="#C4_0_7d0109294a" x="1525.5" y="482.606736" style="fill: #9467bd"/>
                </g>
                <g clip-path="url(#p7cbfb6f0b6)">
                    <use xlink:href="#C4_0_7d0109294a" x="1525.5" y="476.463332" style="fill: #9467bd"/>
                </g>
                <g clip-path="url(#p7cbfb6f0b6)">
                    <use xlink:href="#C4_0_7d0109294a" x="1521.166641" y="473.640603" style="fill: #9467bd"/>
                </g>
                <g clip-path="url(#p7cbfb6f0b6)">
                    <use xlink:href="#C4_0_7d0109294a" x="1525.5" y="465.64179" style="fill: #9467bd"/>
                </g>
                <g clip-path="url(#p7cbfb6f0b6)">
                    <use xlink:href="#C4_0_7d0109294a" x="1521.669457" y="462.222565" style="fill: #9467bd"/>
                </g>
                <g clip-path="url(#p7cbfb6f0b6)">
                    <use xlink:href="#C4_0_7d0109294a" x="1526.106237" y="459.549531" style="fill: #9467bd"/>
                </g>
                <g clip-path="url(#p7cbfb6f0b6)">
                    <use xlink:href="#C4_0_7d0109294a" x="1525.5" y="451.011406" style="fill: #9467bd"/>
                </g>
                <g clip-path="url(#p7cbfb6f0b6)">
                    <use xlink:href="#C4_0_7d0109294a" x="1525.5" y="445.346369" style="fill: #9467bd"/>
                </g>
                <g clip-path="url(#p7cbfb6f0b6)">
                    <use xlink:href="#C4_0_7d0109294a" x="1525.5" y="434.755037" style="fill: #9467bd"/>
                </g>
                <g clip-path="url(#p7cbfb6f0b6)">
                    <use xlink:href="#C4_0_7d0109294a" x="1520.506274" y="433.211944" style="fill: #9467bd"/>
                </g>
                <g clip-path="url(#p7cbfb6f0b6)">
                    <use xlink:href="#C4_0_7d0109294a" x="1525.5" y="417.965438" style="fill: #9467bd"/>
                </g>
                <g clip-path="url(#p7cbfb6f0b6)">
                    <use xlink:href="#C4_0_7d0109294a" x="1525.5" y="377.665998" style="fill: #9467bd"/>
                </g>
            </g>
            <g id="PathCollection_12">
                <defs>
                    <path id="C5_0_9046ae2a3c" d="M 0 2.5
C 0.663008 2.5 1.29895 2.236584 1.767767 1.767767 
C 2.236584 1.29895 2.5 0.663008 2.5 -0 
C 2.5 -0.663008 2.236584 -1.29895 1.767767 -1.767767 
C 1.29895 -2.236584 0.663008 -2.5 0 -2.5 
C -0.663008 -2.5 -1.29895 -2.236584 -1.767767 -1.767767 
C -2.236584 -1.29895 -2.5 -0.663008 -2.5 0 
C -2.5 0.663008 -2.236584 1.29895 -1.767767 1.767767 
C -1.29895 2.236584 -0.663008 2.5 0 2.5 
z
"/>
                </defs>
                <g clip-path="url(#p7cbfb6f0b6)">
                    <use xlink:href="#C5_0_9046ae2a3c" x="1804.5" y="504.492446" style="fill: #8c564b"/>
                </g>
                <g clip-path="url(#p7cbfb6f0b6)">
                    <use xlink:href="#C5_0_9046ae2a3c" x="1804.5" y="493.941545" style="fill: #8c564b"/>
                </g>
                <g clip-path="url(#p7cbfb6f0b6)">
                    <use xlink:href="#C5_0_9046ae2a3c" x="1801.409656" y="489.899557" style="fill: #8c564b"/>
                </g>
                <g clip-path="url(#p7cbfb6f0b6)">
                    <use xlink:href="#C5_0_9046ae2a3c" x="1804.5" y="485.738824" style="fill: #8c564b"/>
                </g>
                <g clip-path="url(#p7cbfb6f0b6)">
                    <use xlink:href="#C5_0_9046ae2a3c" x="1799.511087" y="485.237953" style="fill: #8c564b"/>
                </g>
                <g clip-path="url(#p7cbfb6f0b6)">
                    <use xlink:href="#C5_0_9046ae2a3c" x="1804.5" y="467.403454" style="fill: #8c564b"/>
                </g>
                <g clip-path="url(#p7cbfb6f0b6)">
                    <use xlink:href="#C5_0_9046ae2a3c" x="1804.5" y="455.695368" style="fill: #8c564b"/>
                </g>
            </g>
            <g id="text_14">
                <!-- P values of Field Nutritional -->
                <g transform="translate(942.984375 80.4)scale(0.24 -0.24)">
                    <defs>
                        <path id="DejaVuSans-50" d="M 1259 4147
L 1259 2394 
L 2053 2394 
Q 2494 2394 2734 2622 
Q 2975 2850 2975 3272 
Q 2975 3691 2734 3919 
Q 2494 4147 2053 4147 
L 1259 4147 
z
M 628 4666 
L 2053 4666 
Q 2838 4666 3239 4311 
Q 3641 3956 3641 3272 
Q 3641 2581 3239 2228 
Q 2838 1875 2053 1875 
L 1259 1875 
L 1259 0 
L 628 0 
L 628 4666 
z
" transform="scale(0.015625)"/>
                        <path id="DejaVuSans-20" transform="scale(0.015625)"/>
                        <path id="DejaVuSans-76" d="M 191 3500
L 800 3500 
L 1894 563 
L 2988 3500 
L 3597 3500 
L 2284 0 
L 1503 0 
L 191 3500 
z
" transform="scale(0.015625)"/>
                        <path id="DejaVuSans-61" d="M 2194 1759
Q 1497 1759 1228 1600 
Q 959 1441 959 1056 
Q 959 750 1161 570 
Q 1363 391 1709 391 
Q 2188 391 2477 730 
Q 2766 1069 2766 1631 
L 2766 1759 
L 2194 1759 
z
M 3341 1997 
L 3341 0 
L 2766 0 
L 2766 531 
Q 2569 213 2275 61 
Q 1981 -91 1556 -91 
Q 1019 -91 701 211 
Q 384 513 384 1019 
Q 384 1609 779 1909 
Q 1175 2209 1959 2209 
L 2766 2209 
L 2766 2266 
Q 2766 2663 2505 2880 
Q 2244 3097 1772 3097 
Q 1472 3097 1187 3025 
Q 903 2953 641 2809 
L 641 3341 
Q 956 3463 1253 3523 
Q 1550 3584 1831 3584 
Q 2591 3584 2966 3190 
Q 3341 2797 3341 1997 
z
" transform="scale(0.015625)"/>
                        <path id="DejaVuSans-66" d="M 2375 4863
L 2375 4384 
L 1825 4384 
Q 1516 4384 1395 4259 
Q 1275 4134 1275 3809 
L 1275 3500 
L 2222 3500 
L 2222 3053 
L 1275 3053 
L 1275 0 
L 697 0 
L 697 3053 
L 147 3053 
L 147 3500 
L 697 3500 
L 697 3744 
Q 697 4328 969 4595 
Q 1241 4863 1831 4863 
L 2375 4863 
z
" transform="scale(0.015625)"/>
                        <path id="DejaVuSans-46" d="M 628 4666
L 3309 4666 
L 3309 4134 
L 1259 4134 
L 1259 2759 
L 3109 2759 
L 3109 2228 
L 1259 2228 
L 1259 0 
L 628 0 
L 628 4666 
z
" transform="scale(0.015625)"/>
                        <path id="DejaVuSans-69" d="M 603 3500
L 1178 3500 
L 1178 0 
L 603 0 
L 603 3500 
z
M 603 4863 
L 1178 4863 
L 1178 4134 
L 603 4134 
L 603 4863 
z
" transform="scale(0.015625)"/>
                        <path id="DejaVuSans-64" d="M 2906 2969
L 2906 4863 
L 3481 4863 
L 3481 0 
L 2906 0 
L 2906 525 
Q 2725 213 2448 61 
Q 2172 -91 1784 -91 
Q 1150 -91 751 415 
Q 353 922 353 1747 
Q 353 2572 751 3078 
Q 1150 3584 1784 3584 
Q 2172 3584 2448 3432 
Q 2725 3281 2906 2969 
z
M 947 1747 
Q 947 1113 1208 752 
Q 1469 391 1925 391 
Q 2381 391 2643 752 
Q 2906 1113 2906 1747 
Q 2906 2381 2643 2742 
Q 2381 3103 1925 3103 
Q 1469 3103 1208 2742 
Q 947 2381 947 1747 
z
" transform="scale(0.015625)"/>
                        <path id="DejaVuSans-4e" d="M 628 4666
L 1478 4666 
L 3547 763 
L 3547 4666 
L 4159 4666 
L 4159 0 
L 3309 0 
L 1241 3903 
L 1241 0 
L 628 0 
L 628 4666 
z
" transform="scale(0.015625)"/>
                        <path id="DejaVuSans-6e" d="M 3513 2113
L 3513 0 
L 2938 0 
L 2938 2094 
Q 2938 2591 2744 2837 
Q 2550 3084 2163 3084 
Q 1697 3084 1428 2787 
Q 1159 2491 1159 1978 
L 1159 0 
L 581 0 
L 581 3500 
L 1159 3500 
L 1159 2956 
Q 1366 3272 1645 3428 
Q 1925 3584 2291 3584 
Q 2894 3584 3203 3211 
Q 3513 2838 3513 2113 
z
" transform="scale(0.015625)"/>
                    </defs>
                    <use xlink:href="#DejaVuSans-50"/>
                    <use xlink:href="#DejaVuSans-20" x="60.302734"/>
                    <use xlink:href="#DejaVuSans-76" x="92.089844"/>
                    <use xlink:href="#DejaVuSans-61" x="151.269531"/>
                    <use xlink:href="#DejaVuSans-6c" x="212.548828"/>
                    <use xlink:href="#DejaVuSans-75" x="240.332031"/>
                    <use xlink:href="#DejaVuSans-65" x="303.710938"/>
                    <use xlink:href="#DejaVuSans-73" x="365.234375"/>
                    <use xlink:href="#DejaVuSans-20" x="417.333984"/>
                    <use xlink:href="#DejaVuSans-6f" x="449.121094"/>
                    <use xlink:href="#DejaVuSans-66" x="510.302734"/>
                    <use xlink:href="#DejaVuSans-20" x="545.507812"/>
                    <use xlink:href="#DejaVuSans-46" x="577.294922"/>
                    <use xlink:href="#DejaVuSans-69" x="627.564453"/>
                    <use xlink:href="#DejaVuSans-65" x="655.347656"/>
                    <use xlink:href="#DejaVuSans-6c" x="716.871094"/>
                    <use xlink:href="#DejaVuSans-64" x="744.654297"/>
                    <use xlink:href="#DejaVuSans-20" x="808.130859"/>
                    <use xlink:href="#DejaVuSans-4e" x="839.917969"/>
                    <use xlink:href="#DejaVuSans-75" x="914.722656"/>
                    <use xlink:href="#DejaVuSans-74" x="978.101562"/>
                    <use xlink:href="#DejaVuSans-72" x="1017.310547"/>
                    <use xlink:href="#DejaVuSans-69" x="1058.423828"/>
                    <use xlink:href="#DejaVuSans-74" x="1086.207031"/>
                    <use xlink:href="#DejaVuSans-69" x="1125.416016"/>
                    <use xlink:href="#DejaVuSans-6f" x="1153.199219"/>
                    <use xlink:href="#DejaVuSans-6e" x="1214.380859"/>
                    <use xlink:href="#DejaVuSans-61" x="1277.759766"/>
                    <use xlink:href="#DejaVuSans-6c" x="1339.039062"/>
                </g>
            </g>
        </g>
    </g>
    <defs>
        <clipPath id="p7cbfb6f0b6">
            <rect x="270" y="86.4" width="1674" height="554.4"/>
        </clipPath>
    </defs>
</svg>
