<?xml version="1.0" encoding="utf-8" standalone="no"?>
<!DOCTYPE svg PUBLIC "-//W3C//DTD SVG 1.1//EN"
        "http://www.w3.org/Graphics/SVG/1.1/DTD/svg11.dtd">
<svg xmlns:xlink="http://www.w3.org/1999/xlink" width="2160pt" height="720pt" viewBox="0 0 2160 720"
     xmlns="http://www.w3.org/2000/svg" version="1.1">
    <metadata>
        <rdf:RDF xmlns:dc="http://purl.org/dc/elements/1.1/" xmlns:cc="http://creativecommons.org/ns#"
                 xmlns:rdf="http://www.w3.org/1999/02/22-rdf-syntax-ns#">
            <cc:Work>
                <dc:type rdf:resource="http://purl.org/dc/dcmitype/StillImage"/>
                <dc:date>2022-06-10T17:50:37.109245</dc:date>
                <dc:format>image/svg+xml</dc:format>
                <dc:creator>
                    <cc:Agent>
                        <dc:title>Matplotlib v3.5.1, https://matplotlib.org/</dc:title>
                    </cc:Agent>
                </dc:creator>
            </cc:Work>
        </rdf:RDF>
    </metadata>
    <defs>
        <style type="text/css">*{stroke-linejoin: round; stroke-linecap: butt}</style>
    </defs>
    <g id="figure_1">
        <g id="patch_1">
            <path d="M 0 720
L 2160 720 
L 2160 0 
L 0 0 
z
" style="fill: #ffffff"/>
        </g>
        <g id="axes_1">
            <g id="patch_2">
                <path d="M 270 640.8
L 1944 640.8 
L 1944 86.4 
L 270 86.4 
z
" style="fill: #ffffff"/>
            </g>
            <g id="PolyCollection_1">
                <defs>
                    <path id="m2c3ec1f2f2" d="M 413.261446 -130.773271
L 405.738554 -130.773271 
L 404.970707 -135.030834 
L 404.081547 -139.288397 
L 403.059745 -143.54596 
L 401.894498 -147.803523 
L 400.575898 -152.061086 
L 399.09532 -156.318649 
L 397.445841 -160.576212 
L 395.622653 -164.833775 
L 393.623465 -169.091338 
L 391.448879 -173.348901 
L 389.102709 -177.606464 
L 386.592237 -181.864027 
L 383.928381 -186.12159 
L 381.125759 -190.379153 
L 378.202641 -194.636716 
L 375.180776 -198.894279 
L 372.085089 -203.151842 
L 368.943261 -207.409405 
L 365.785186 -211.666968 
L 362.64233 -215.924531 
L 359.547006 -220.182094 
L 356.531591 -224.439657 
L 353.627725 -228.69722 
L 350.865502 -232.954783 
L 348.272709 -237.212346 
L 345.874128 -241.469909 
L 343.690939 -245.727472 
L 341.740253 -249.985035 
L 340.034782 -254.242598 
L 338.582671 -258.500161 
L 337.387491 -262.757724 
L 336.448393 -267.015287 
L 335.760409 -271.27285 
L 335.314882 -275.530413 
L 335.1 -279.787976 
L 335.101413 -284.045539 
L 335.302882 -288.303102 
L 335.686946 -292.560665 
L 336.235567 -296.818228 
L 336.930716 -301.075791 
L 337.754889 -305.333354 
L 338.691527 -309.590917 
L 339.725329 -313.84848 
L 340.842451 -318.106043 
L 342.030599 -322.363606 
L 343.279022 -326.621169 
L 344.578415 -330.878732 
L 345.920761 -335.136295 
L 347.299125 -339.393858 
L 348.707423 -343.651421 
L 350.140193 -347.908984 
L 351.592385 -352.166548 
L 353.059182 -356.424111 
L 354.535871 -360.681674 
L 356.017767 -364.939237 
L 357.500201 -369.1968 
L 358.978551 -373.454363 
L 360.448335 -377.711926 
L 361.90533 -381.969489 
L 363.345721 -386.227052 
L 364.766265 -390.484615 
L 366.164436 -394.742178 
L 367.538565 -398.999741 
L 368.887932 -403.257304 
L 370.212825 -407.514867 
L 371.514537 -411.77243 
L 372.795314 -416.029993 
L 374.05824 -420.287556 
L 375.307072 -424.545119 
L 376.546035 -428.802682 
L 377.779568 -433.060245 
L 379.012066 -437.317808 
L 380.247602 -441.575371 
L 381.489669 -445.832934 
L 382.740931 -450.090497 
L 384.003034 -454.34806 
L 385.276441 -458.605623 
L 386.56035 -462.863186 
L 387.852654 -467.120749 
L 389.149985 -471.378312 
L 390.447802 -475.635875 
L 391.740552 -479.893438 
L 393.021864 -484.151001 
L 394.284791 -488.408564 
L 395.522066 -492.666127 
L 396.726369 -496.92369 
L 397.890593 -501.181253 
L 399.008085 -505.438816 
L 400.072865 -509.696379 
L 401.079804 -513.953942 
L 402.024759 -518.211505 
L 402.904663 -522.469068 
L 403.717563 -526.726631 
L 404.462621 -530.984194 
L 405.140064 -535.241757 
L 405.751106 -539.49932 
L 406.297842 -543.756883 
L 406.783115 -548.014446 
L 407.210378 -552.272009 
L 411.789622 -552.272009 
L 411.789622 -552.272009 
L 412.216885 -548.014446 
L 412.702158 -543.756883 
L 413.248894 -539.49932 
L 413.859936 -535.241757 
L 414.537379 -530.984194 
L 415.282437 -526.726631 
L 416.095337 -522.469068 
L 416.975241 -518.211505 
L 417.920196 -513.953942 
L 418.927135 -509.696379 
L 419.991915 -505.438816 
L 421.109407 -501.181253 
L 422.273631 -496.92369 
L 423.477934 -492.666127 
L 424.715209 -488.408564 
L 425.978136 -484.151001 
L 427.259448 -479.893438 
L 428.552198 -475.635875 
L 429.850015 -471.378312 
L 431.147346 -467.120749 
L 432.43965 -462.863186 
L 433.723559 -458.605623 
L 434.996966 -454.34806 
L 436.259069 -450.090497 
L 437.510331 -445.832934 
L 438.752398 -441.575371 
L 439.987934 -437.317808 
L 441.220432 -433.060245 
L 442.453965 -428.802682 
L 443.692928 -424.545119 
L 444.94176 -420.287556 
L 446.204686 -416.029993 
L 447.485463 -411.77243 
L 448.787175 -407.514867 
L 450.112068 -403.257304 
L 451.461435 -398.999741 
L 452.835564 -394.742178 
L 454.233735 -390.484615 
L 455.654279 -386.227052 
L 457.09467 -381.969489 
L 458.551665 -377.711926 
L 460.021449 -373.454363 
L 461.499799 -369.1968 
L 462.982233 -364.939237 
L 464.464129 -360.681674 
L 465.940818 -356.424111 
L 467.407615 -352.166548 
L 468.859807 -347.908984 
L 470.292577 -343.651421 
L 471.700875 -339.393858 
L 473.079239 -335.136295 
L 474.421585 -330.878732 
L 475.720978 -326.621169 
L 476.969401 -322.363606 
L 478.157549 -318.106043 
L 479.274671 -313.84848 
L 480.308473 -309.590917 
L 481.245111 -305.333354 
L 482.069284 -301.075791 
L 482.764433 -296.818228 
L 483.313054 -292.560665 
L 483.697118 -288.303102 
L 483.898587 -284.045539 
L 483.9 -279.787976 
L 483.685118 -275.530413 
L 483.239591 -271.27285 
L 482.551607 -267.015287 
L 481.612509 -262.757724 
L 480.417329 -258.500161 
L 478.965218 -254.242598 
L 477.259747 -249.985035 
L 475.309061 -245.727472 
L 473.125872 -241.469909 
L 470.727291 -237.212346 
L 468.134498 -232.954783 
L 465.372275 -228.69722 
L 462.468409 -224.439657 
L 459.452994 -220.182094 
L 456.35767 -215.924531 
L 453.214814 -211.666968 
L 450.056739 -207.409405 
L 446.914911 -203.151842 
L 443.819224 -198.894279 
L 440.797359 -194.636716 
L 437.874241 -190.379153 
L 435.071619 -186.12159 
L 432.407763 -181.864027 
L 429.897291 -177.606464 
L 427.551121 -173.348901 
L 425.376535 -169.091338 
L 423.377347 -164.833775 
L 421.554159 -160.576212 
L 419.90468 -156.318649 
L 418.424102 -152.061086 
L 417.105502 -147.803523 
L 415.940255 -143.54596 
L 414.918453 -139.288397 
L 414.029293 -135.030834 
L 413.261446 -130.773271 
z
" style="stroke: #595959; stroke-width: 1.5"/>
                </defs>
                <g clip-path="url(#p007f67239c)">
                    <use xlink:href="#m2c3ec1f2f2" x="0" y="720"
                         style="fill: #72b6a1; stroke: #595959; stroke-width: 1.5"/>
                </g>
            </g>
            <g id="PolyCollection_2">
                <defs>
                    <path id="m4a14474ad6" d="M 693.133816 -104.4
L 683.866184 -104.4 
L 683.016203 -109.490909 
L 682.048424 -114.581818 
L 680.954247 -119.672727 
L 679.725899 -124.763636 
L 678.356739 -129.854545 
L 676.841578 -134.945455 
L 675.177003 -140.036364 
L 673.36168 -145.127273 
L 671.396648 -150.218182 
L 669.285572 -155.309091 
L 667.034947 -160.4 
L 664.654246 -165.490909 
L 662.155998 -170.581818 
L 659.555786 -175.672727 
L 656.872159 -180.763636 
L 654.126457 -185.854545 
L 651.342549 -190.945455 
L 648.546479 -196.036364 
L 645.766041 -201.127273 
L 643.030277 -206.218182 
L 640.36892 -211.309091 
L 637.811803 -216.4 
L 635.388228 -221.490909 
L 633.126344 -226.581818 
L 631.052524 -231.672727 
L 629.190784 -236.763636 
L 627.562236 -241.854545 
L 626.184616 -246.945455 
L 625.07188 -252.036364 
L 624.233896 -257.127273 
L 623.676224 -262.218182 
L 623.4 -267.309091 
L 623.401929 -272.4 
L 623.674373 -277.490909 
L 624.205544 -282.581818 
L 624.979793 -287.672727 
L 625.97798 -292.763636 
L 627.177924 -297.854545 
L 628.554918 -302.945455 
L 630.082291 -308.036364 
L 631.732008 -313.127273 
L 633.475297 -318.218182 
L 635.283274 -323.309091 
L 637.127561 -328.4 
L 638.980879 -333.490909 
L 640.817599 -338.581818 
L 642.614243 -343.672727 
L 644.349912 -348.763636 
L 646.006644 -353.854545 
L 647.569682 -358.945455 
L 649.027658 -364.036364 
L 650.37268 -369.127273 
L 651.600328 -374.218182 
L 652.709562 -379.309091 
L 653.702545 -384.4 
L 654.584394 -389.490909 
L 655.362861 -394.581818 
L 656.047968 -399.672727 
L 656.651593 -404.763636 
L 657.18704 -409.854545 
L 657.668591 -414.945455 
L 658.111055 -420.036364 
L 658.529338 -425.127273 
L 658.938031 -430.218182 
L 659.351032 -435.309091 
L 659.781213 -440.4 
L 660.24013 -445.490909 
L 660.73779 -450.581818 
L 661.282465 -455.672727 
L 661.880568 -460.763636 
L 662.536586 -465.854545 
L 663.253056 -470.945455 
L 664.030603 -476.036364 
L 664.86802 -481.127273 
L 665.762386 -486.218182 
L 666.709233 -491.309091 
L 667.702726 -496.4 
L 668.735888 -501.490909 
L 669.800822 -506.581818 
L 670.888959 -511.672727 
L 671.991304 -516.763636 
L 673.098676 -521.854545 
L 674.201945 -526.945455 
L 675.292247 -532.036364 
L 676.361182 -537.127273 
L 677.400989 -542.218182 
L 678.404681 -547.309091 
L 679.366167 -552.4 
L 680.280321 -557.490909 
L 681.143037 -562.581818 
L 681.951242 -567.672727 
L 682.702879 -572.763636 
L 683.396871 -577.854545 
L 684.033055 -582.945455 
L 684.612103 -588.036364 
L 685.135423 -593.127273 
L 685.605054 -598.218182 
L 686.023558 -603.309091 
L 686.393902 -608.4 
L 690.606098 -608.4 
L 690.606098 -608.4 
L 690.976442 -603.309091 
L 691.394946 -598.218182 
L 691.864577 -593.127273 
L 692.387897 -588.036364 
L 692.966945 -582.945455 
L 693.603129 -577.854545 
L 694.297121 -572.763636 
L 695.048758 -567.672727 
L 695.856963 -562.581818 
L 696.719679 -557.490909 
L 697.633833 -552.4 
L 698.595319 -547.309091 
L 699.599011 -542.218182 
L 700.638818 -537.127273 
L 701.707753 -532.036364 
L 702.798055 -526.945455 
L 703.901324 -521.854545 
L 705.008696 -516.763636 
L 706.111041 -511.672727 
L 707.199178 -506.581818 
L 708.264112 -501.490909 
L 709.297274 -496.4 
L 710.290767 -491.309091 
L 711.237614 -486.218182 
L 712.13198 -481.127273 
L 712.969397 -476.036364 
L 713.746944 -470.945455 
L 714.463414 -465.854545 
L 715.119432 -460.763636 
L 715.717535 -455.672727 
L 716.26221 -450.581818 
L 716.75987 -445.490909 
L 717.218787 -440.4 
L 717.648968 -435.309091 
L 718.061969 -430.218182 
L 718.470662 -425.127273 
L 718.888945 -420.036364 
L 719.331409 -414.945455 
L 719.81296 -409.854545 
L 720.348407 -404.763636 
L 720.952032 -399.672727 
L 721.637139 -394.581818 
L 722.415606 -389.490909 
L 723.297455 -384.4 
L 724.290438 -379.309091 
L 725.399672 -374.218182 
L 726.62732 -369.127273 
L 727.972342 -364.036364 
L 729.430318 -358.945455 
L 730.993356 -353.854545 
L 732.650088 -348.763636 
L 734.385757 -343.672727 
L 736.182401 -338.581818 
L 738.019121 -333.490909 
L 739.872439 -328.4 
L 741.716726 -323.309091 
L 743.524703 -318.218182 
L 745.267992 -313.127273 
L 746.917709 -308.036364 
L 748.445082 -302.945455 
L 749.822076 -297.854545 
L 751.02202 -292.763636 
L 752.020207 -287.672727 
L 752.794456 -282.581818 
L 753.325627 -277.490909 
L 753.598071 -272.4 
L 753.6 -267.309091 
L 753.323776 -262.218182 
L 752.766104 -257.127273 
L 751.92812 -252.036364 
L 750.815384 -246.945455 
L 749.437764 -241.854545 
L 747.809216 -236.763636 
L 745.947476 -231.672727 
L 743.873656 -226.581818 
L 741.611772 -221.490909 
L 739.188197 -216.4 
L 736.63108 -211.309091 
L 733.969723 -206.218182 
L 731.233959 -201.127273 
L 728.453521 -196.036364 
L 725.657451 -190.945455 
L 722.873543 -185.854545 
L 720.127841 -180.763636 
L 717.444214 -175.672727 
L 714.844002 -170.581818 
L 712.345754 -165.490909 
L 709.965053 -160.4 
L 707.714428 -155.309091 
L 705.603352 -150.218182 
L 703.63832 -145.127273 
L 701.822997 -140.036364 
L 700.158422 -134.945455 
L 698.643261 -129.854545 
L 697.274101 -124.763636 
L 696.045753 -119.672727 
L 694.951576 -114.581818 
L 693.983797 -109.490909 
L 693.133816 -104.4 
z
" style="stroke: #595959; stroke-width: 1.5"/>
                </defs>
                <g clip-path="url(#p007f67239c)">
                    <use xlink:href="#m4a14474ad6" x="0" y="720"
                         style="fill: #e99675; stroke: #595959; stroke-width: 1.5"/>
                </g>
            </g>
            <g id="PolyCollection_3">
                <defs>
                    <path id="m7973f2115f" d="M 973.47783 -199.291591
L 961.52217 -199.291591 
L 960.287448 -200.623774 
L 958.859627 -201.955957 
L 957.222355 -203.28814 
L 955.360724 -204.620323 
L 953.261906 -205.952506 
L 950.915826 -207.284689 
L 948.315817 -208.616872 
L 945.459256 -209.949054 
L 942.348127 -211.281237 
L 938.989492 -212.61342 
L 935.395832 -213.945603 
L 931.585233 -215.277786 
L 927.581397 -216.609969 
L 923.413451 -217.942152 
L 919.115564 -219.274335 
L 914.72636 -220.606518 
L 910.288144 -221.938701 
L 905.845971 -223.270884 
L 901.446578 -224.603067 
L 897.137227 -225.93525 
L 892.964513 -227.267433 
L 888.973161 -228.599616 
L 885.204899 -229.931799 
L 881.697417 -231.263982 
L 878.48349 -232.596165 
L 875.590267 -233.928348 
L 873.038784 -235.260531 
L 870.843679 -236.592714 
L 869.013151 -237.924897 
L 867.549109 -239.25708 
L 866.447534 -240.589263 
L 865.698983 -241.921446 
L 865.289232 -243.253629 
L 865.2 -244.585812 
L 865.409709 -245.917995 
L 865.894261 -247.250178 
L 866.627774 -248.58236 
L 867.583266 -249.914543 
L 868.733265 -251.246726 
L 870.050328 -252.578909 
L 871.507473 -253.911092 
L 873.078538 -255.243275 
L 874.738461 -256.575458 
L 876.463516 -257.907641 
L 878.231507 -259.239824 
L 880.021957 -260.572007 
L 881.816272 -261.90419 
L 883.597929 -263.236373 
L 885.352655 -264.568556 
L 887.068612 -265.900739 
L 888.73657 -267.232922 
L 890.35006 -268.565105 
L 891.90548 -269.897288 
L 893.402145 -271.229471 
L 894.842259 -272.561654 
L 896.230798 -273.893837 
L 897.575298 -275.22602 
L 898.885546 -276.558203 
L 900.173181 -277.890386 
L 901.451221 -279.222569 
L 902.733532 -280.554752 
L 904.034269 -281.886935 
L 905.367303 -283.219118 
L 906.745683 -284.551301 
L 908.181133 -285.883483 
L 909.683622 -287.215666 
L 911.261015 -288.547849 
L 912.91883 -289.880032 
L 914.660075 -291.212215 
L 916.485203 -292.544398 
L 918.392142 -293.876581 
L 920.376417 -295.208764 
L 922.43133 -296.540947 
L 924.548202 -297.87313 
L 926.716648 -299.205313 
L 928.924876 -300.537496 
L 931.160006 -301.869679 
L 933.40839 -303.201862 
L 935.655927 -304.534045 
L 937.88837 -305.866228 
L 940.091623 -307.198411 
L 942.252014 -308.530594 
L 944.356558 -309.862777 
L 946.393185 -311.19496 
L 948.350952 -312.527143 
L 950.220221 -313.859326 
L 951.992802 -315.191509 
L 953.662066 -316.523692 
L 955.223007 -317.855875 
L 956.672278 -319.188058 
L 958.008173 -320.520241 
L 959.230572 -321.852424 
L 960.340849 -323.184607 
L 961.341745 -324.516789 
L 962.237209 -325.848972 
L 963.032223 -327.181155 
L 963.732608 -328.513338 
L 964.344823 -329.845521 
L 964.875767 -331.177704 
L 970.124233 -331.177704 
L 970.124233 -331.177704 
L 970.655177 -329.845521 
L 971.267392 -328.513338 
L 971.967777 -327.181155 
L 972.762791 -325.848972 
L 973.658255 -324.516789 
L 974.659151 -323.184607 
L 975.769428 -321.852424 
L 976.991827 -320.520241 
L 978.327722 -319.188058 
L 979.776993 -317.855875 
L 981.337934 -316.523692 
L 983.007198 -315.191509 
L 984.779779 -313.859326 
L 986.649048 -312.527143 
L 988.606815 -311.19496 
L 990.643442 -309.862777 
L 992.747986 -308.530594 
L 994.908377 -307.198411 
L 997.11163 -305.866228 
L 999.344073 -304.534045 
L 1001.59161 -303.201862 
L 1003.839994 -301.869679 
L 1006.075124 -300.537496 
L 1008.283352 -299.205313 
L 1010.451798 -297.87313 
L 1012.56867 -296.540947 
L 1014.623583 -295.208764 
L 1016.607858 -293.876581 
L 1018.514797 -292.544398 
L 1020.339925 -291.212215 
L 1022.08117 -289.880032 
L 1023.738985 -288.547849 
L 1025.316378 -287.215666 
L 1026.818867 -285.883483 
L 1028.254317 -284.551301 
L 1029.632697 -283.219118 
L 1030.965731 -281.886935 
L 1032.266468 -280.554752 
L 1033.548779 -279.222569 
L 1034.826819 -277.890386 
L 1036.114454 -276.558203 
L 1037.424702 -275.22602 
L 1038.769202 -273.893837 
L 1040.157741 -272.561654 
L 1041.597855 -271.229471 
L 1043.09452 -269.897288 
L 1044.64994 -268.565105 
L 1046.26343 -267.232922 
L 1047.931388 -265.900739 
L 1049.647345 -264.568556 
L 1051.402071 -263.236373 
L 1053.183728 -261.90419 
L 1054.978043 -260.572007 
L 1056.768493 -259.239824 
L 1058.536484 -257.907641 
L 1060.261539 -256.575458 
L 1061.921462 -255.243275 
L 1063.492527 -253.911092 
L 1064.949672 -252.578909 
L 1066.266735 -251.246726 
L 1067.416734 -249.914543 
L 1068.372226 -248.58236 
L 1069.105739 -247.250178 
L 1069.590291 -245.917995 
L 1069.8 -244.585812 
L 1069.710768 -243.253629 
L 1069.301017 -241.921446 
L 1068.552466 -240.589263 
L 1067.450891 -239.25708 
L 1065.986849 -237.924897 
L 1064.156321 -236.592714 
L 1061.961216 -235.260531 
L 1059.409733 -233.928348 
L 1056.51651 -232.596165 
L 1053.302583 -231.263982 
L 1049.795101 -229.931799 
L 1046.026839 -228.599616 
L 1042.035487 -227.267433 
L 1037.862773 -225.93525 
L 1033.553422 -224.603067 
L 1029.154029 -223.270884 
L 1024.711856 -221.938701 
L 1020.27364 -220.606518 
L 1015.884436 -219.274335 
L 1011.586549 -217.942152 
L 1007.418603 -216.609969 
L 1003.414767 -215.277786 
L 999.604168 -213.945603 
L 996.010508 -212.61342 
L 992.651873 -211.281237 
L 989.540744 -209.949054 
L 986.684183 -208.616872 
L 984.084174 -207.284689 
L 981.738094 -205.952506 
L 979.639276 -204.620323 
L 977.777645 -203.28814 
L 976.140373 -201.955957 
L 974.712552 -200.623774 
L 973.47783 -199.291591 
z
" style="stroke: #595959; stroke-width: 1.5"/>
                </defs>
                <g clip-path="url(#p007f67239c)">
                    <use xlink:href="#m7973f2115f" x="0" y="720"
                         style="fill: #95a3c3; stroke: #595959; stroke-width: 1.5"/>
                </g>
            </g>
            <g id="PolyCollection_4">
                <defs>
                    <path id="mfdd08bc3c5" d="M 1533.410275 -149.277027
L 1517.589725 -149.277027 
L 1516.004033 -152.590944 
L 1514.176114 -155.90486 
L 1512.085816 -159.218776 
L 1509.71482 -162.532692 
L 1507.047485 -165.846608 
L 1504.071749 -169.160524 
L 1500.780048 -172.47444 
L 1497.170224 -175.788356 
L 1493.246382 -179.102272 
L 1489.019649 -182.416188 
L 1484.508795 -185.730104 
L 1479.740663 -189.04402 
L 1474.750372 -192.357936 
L 1469.581266 -195.671852 
L 1464.284558 -198.985769 
L 1458.918688 -202.299685 
L 1453.54836 -205.613601 
L 1448.243294 -208.927517 
L 1443.07671 -212.241433 
L 1438.12359 -215.555349 
L 1433.458764 -218.869265 
L 1429.154909 -222.183181 
L 1425.280515 -225.497097 
L 1421.897906 -228.811013 
L 1419.061402 -232.124929 
L 1416.815694 -235.438845 
L 1415.194499 -238.752761 
L 1414.219555 -242.066678 
L 1413.9 -245.380594 
L 1414.232152 -248.69451 
L 1415.199697 -252.008426 
L 1416.774281 -255.322342 
L 1418.916452 -258.636258 
L 1421.576926 -261.950174 
L 1424.698105 -265.26409 
L 1428.215778 -268.578006 
L 1432.060932 -271.891922 
L 1436.161599 -275.205838 
L 1440.44467 -278.519754 
L 1444.837603 -281.83367 
L 1449.269994 -285.147586 
L 1453.674942 -288.461503 
L 1457.990211 -291.775419 
L 1462.159155 -295.089335 
L 1466.131423 -298.403251 
L 1469.863439 -301.717167 
L 1473.318698 -305.031083 
L 1476.467882 -308.344999 
L 1479.288843 -311.658915 
L 1481.766476 -314.972831 
L 1483.892506 -318.286747 
L 1485.665216 -321.600663 
L 1487.089128 -324.914579 
L 1488.174655 -328.228495 
L 1488.937723 -331.542412 
L 1489.399358 -334.856328 
L 1489.585241 -338.170244 
L 1489.525217 -341.48416 
L 1489.252745 -344.798076 
L 1488.804299 -348.111992 
L 1488.218686 -351.425908 
L 1487.536314 -354.739824 
L 1486.798389 -358.05374 
L 1486.046065 -361.367656 
L 1485.319569 -364.681572 
L 1484.657312 -367.995488 
L 1484.09502 -371.309404 
L 1483.664917 -374.62332 
L 1483.394985 -377.937237 
L 1483.308339 -381.251153 
L 1483.422729 -384.565069 
L 1483.750213 -387.878985 
L 1484.296988 -391.192901 
L 1485.06341 -394.506817 
L 1486.044193 -397.820733 
L 1487.228773 -401.134649 
L 1488.601835 -404.448565 
L 1490.143961 -407.762481 
L 1491.832388 -411.076397 
L 1493.641832 -414.390313 
L 1495.545347 -417.704229 
L 1497.515192 -421.018146 
L 1499.523656 -424.332062 
L 1501.543829 -427.645978 
L 1503.550286 -430.959894 
L 1505.519668 -434.27381 
L 1507.431136 -437.587726 
L 1509.266712 -440.901642 
L 1511.011487 -444.215558 
L 1512.653703 -447.529474 
L 1514.184739 -450.84339 
L 1515.598978 -454.157306 
L 1516.89361 -457.471222 
L 1518.06836 -460.785138 
L 1519.125176 -464.099055 
L 1520.067881 -467.412971 
L 1520.901825 -470.726887 
L 1521.633529 -474.040803 
L 1522.270354 -477.354719 
L 1528.729646 -477.354719 
L 1528.729646 -477.354719 
L 1529.366471 -474.040803 
L 1530.098175 -470.726887 
L 1530.932119 -467.412971 
L 1531.874824 -464.099055 
L 1532.93164 -460.785138 
L 1534.10639 -457.471222 
L 1535.401022 -454.157306 
L 1536.815261 -450.84339 
L 1538.346297 -447.529474 
L 1539.988513 -444.215558 
L 1541.733288 -440.901642 
L 1543.568864 -437.587726 
L 1545.480332 -434.27381 
L 1547.449714 -430.959894 
L 1549.456171 -427.645978 
L 1551.476344 -424.332062 
L 1553.484808 -421.018146 
L 1555.454653 -417.704229 
L 1557.358168 -414.390313 
L 1559.167612 -411.076397 
L 1560.856039 -407.762481 
L 1562.398165 -404.448565 
L 1563.771227 -401.134649 
L 1564.955807 -397.820733 
L 1565.93659 -394.506817 
L 1566.703012 -391.192901 
L 1567.249787 -387.878985 
L 1567.577271 -384.565069 
L 1567.691661 -381.251153 
L 1567.605015 -377.937237 
L 1567.335083 -374.62332 
L 1566.90498 -371.309404 
L 1566.342688 -367.995488 
L 1565.680431 -364.681572 
L 1564.953935 -361.367656 
L 1564.201611 -358.05374 
L 1563.463686 -354.739824 
L 1562.781314 -351.425908 
L 1562.195701 -348.111992 
L 1561.747255 -344.798076 
L 1561.474783 -341.48416 
L 1561.414759 -338.170244 
L 1561.600642 -334.856328 
L 1562.062277 -331.542412 
L 1562.825345 -328.228495 
L 1563.910872 -324.914579 
L 1565.334784 -321.600663 
L 1567.107494 -318.286747 
L 1569.233524 -314.972831 
L 1571.711157 -311.658915 
L 1574.532118 -308.344999 
L 1577.681302 -305.031083 
L 1581.136561 -301.717167 
L 1584.868577 -298.403251 
L 1588.840845 -295.089335 
L 1593.009789 -291.775419 
L 1597.325058 -288.461503 
L 1601.730006 -285.147586 
L 1606.162397 -281.83367 
L 1610.55533 -278.519754 
L 1614.838401 -275.205838 
L 1618.939068 -271.891922 
L 1622.784222 -268.578006 
L 1626.301895 -265.26409 
L 1629.423074 -261.950174 
L 1632.083548 -258.636258 
L 1634.225719 -255.322342 
L 1635.800303 -252.008426 
L 1636.767848 -248.69451 
L 1637.1 -245.380594 
L 1636.780445 -242.066678 
L 1635.805501 -238.752761 
L 1634.184306 -235.438845 
L 1631.938598 -232.124929 
L 1629.102094 -228.811013 
L 1625.719485 -225.497097 
L 1621.845091 -222.183181 
L 1617.541236 -218.869265 
L 1612.87641 -215.555349 
L 1607.92329 -212.241433 
L 1602.756706 -208.927517 
L 1597.45164 -205.613601 
L 1592.081312 -202.299685 
L 1586.715442 -198.985769 
L 1581.418734 -195.671852 
L 1576.249628 -192.357936 
L 1571.259337 -189.04402 
L 1566.491205 -185.730104 
L 1561.980351 -182.416188 
L 1557.753618 -179.102272 
L 1553.829776 -175.788356 
L 1550.219952 -172.47444 
L 1546.928251 -169.160524 
L 1543.952515 -165.846608 
L 1541.28518 -162.532692 
L 1538.914184 -159.218776 
L 1536.823886 -155.90486 
L 1534.995967 -152.590944 
L 1533.410275 -149.277027 
z
" style="stroke: #595959; stroke-width: 1.5"/>
                </defs>
                <g clip-path="url(#p007f67239c)">
                    <use xlink:href="#mfdd08bc3c5" x="0" y="720"
                         style="fill: #a2c865; stroke: #595959; stroke-width: 1.5"/>
                </g>
            </g>
            <g id="PolyCollection_5">
                <defs>
                    <path id="mf63acd5a39" d="M 1806.268884 -208.116768
L 1802.731116 -208.116768 
L 1802.519492 -209.886984 
L 1802.289486 -211.6572 
L 1802.040464 -213.427417 
L 1801.771898 -215.197633 
L 1801.483383 -216.967849 
L 1801.174653 -218.738065 
L 1800.845598 -220.508281 
L 1800.496273 -222.278498 
L 1800.126917 -224.048714 
L 1799.737958 -225.81893 
L 1799.330021 -227.589146 
L 1798.903936 -229.359362 
L 1798.460736 -231.129579 
L 1798.001656 -232.899795 
L 1797.528128 -234.670011 
L 1797.041772 -236.440227 
L 1796.544382 -238.210443 
L 1796.037909 -239.98066 
L 1795.524443 -241.750876 
L 1795.006185 -243.521092 
L 1794.485427 -245.291308 
L 1793.964521 -247.061524 
L 1793.445844 -248.831741 
L 1792.931777 -250.601957 
L 1792.424663 -252.372173 
L 1791.926783 -254.142389 
L 1791.440323 -255.912605 
L 1790.967347 -257.682822 
L 1790.509771 -259.453038 
L 1790.06934 -261.223254 
L 1789.647613 -262.99347 
L 1789.245945 -264.763686 
L 1788.865483 -266.533903 
L 1788.507159 -268.304119 
L 1788.17169 -270.074335 
L 1787.859589 -271.844551 
L 1787.571173 -273.614767 
L 1787.306581 -275.384984 
L 1787.06579 -277.1552 
L 1786.848645 -278.925416 
L 1786.654878 -280.695632 
L 1786.48414 -282.465848 
L 1786.336028 -284.236065 
L 1786.210114 -286.006281 
L 1786.10597 -287.776497 
L 1786.023199 -289.546713 
L 1785.961452 -291.316929 
L 1785.920451 -293.087146 
L 1785.9 -294.857362 
L 1785.9 -296.627578 
L 1785.920451 -298.397794 
L 1785.961452 -300.16801 
L 1786.023199 -301.938227 
L 1786.10597 -303.708443 
L 1786.210114 -305.478659 
L 1786.336028 -307.248875 
L 1786.48414 -309.019091 
L 1786.654878 -310.789308 
L 1786.848645 -312.559524 
L 1787.06579 -314.32974 
L 1787.306581 -316.099956 
L 1787.571173 -317.870172 
L 1787.859589 -319.640389 
L 1788.17169 -321.410605 
L 1788.507159 -323.180821 
L 1788.865483 -324.951037 
L 1789.245945 -326.721253 
L 1789.647613 -328.49147 
L 1790.06934 -330.261686 
L 1790.509771 -332.031902 
L 1790.967347 -333.802118 
L 1791.440323 -335.572334 
L 1791.926783 -337.342551 
L 1792.424663 -339.112767 
L 1792.931777 -340.882983 
L 1793.445844 -342.653199 
L 1793.964521 -344.423415 
L 1794.485427 -346.193632 
L 1795.006185 -347.963848 
L 1795.524443 -349.734064 
L 1796.037909 -351.50428 
L 1796.544382 -353.274496 
L 1797.041772 -355.044713 
L 1797.528128 -356.814929 
L 1798.001656 -358.585145 
L 1798.460736 -360.355361 
L 1798.903936 -362.125577 
L 1799.330021 -363.895794 
L 1799.737958 -365.66601 
L 1800.126917 -367.436226 
L 1800.496273 -369.206442 
L 1800.845598 -370.976658 
L 1801.174653 -372.746875 
L 1801.483383 -374.517091 
L 1801.771898 -376.287307 
L 1802.040464 -378.057523 
L 1802.289486 -379.827739 
L 1802.519492 -381.597956 
L 1802.731116 -383.368172 
L 1806.268884 -383.368172 
L 1806.268884 -383.368172 
L 1806.480508 -381.597956 
L 1806.710514 -379.827739 
L 1806.959536 -378.057523 
L 1807.228102 -376.287307 
L 1807.516617 -374.517091 
L 1807.825347 -372.746875 
L 1808.154402 -370.976658 
L 1808.503727 -369.206442 
L 1808.873083 -367.436226 
L 1809.262042 -365.66601 
L 1809.669979 -363.895794 
L 1810.096064 -362.125577 
L 1810.539264 -360.355361 
L 1810.998344 -358.585145 
L 1811.471872 -356.814929 
L 1811.958228 -355.044713 
L 1812.455618 -353.274496 
L 1812.962091 -351.50428 
L 1813.475557 -349.734064 
L 1813.993815 -347.963848 
L 1814.514573 -346.193632 
L 1815.035479 -344.423415 
L 1815.554156 -342.653199 
L 1816.068223 -340.882983 
L 1816.575337 -339.112767 
L 1817.073217 -337.342551 
L 1817.559677 -335.572334 
L 1818.032653 -333.802118 
L 1818.490229 -332.031902 
L 1818.93066 -330.261686 
L 1819.352387 -328.49147 
L 1819.754055 -326.721253 
L 1820.134517 -324.951037 
L 1820.492841 -323.180821 
L 1820.82831 -321.410605 
L 1821.140411 -319.640389 
L 1821.428827 -317.870172 
L 1821.693419 -316.099956 
L 1821.93421 -314.32974 
L 1822.151355 -312.559524 
L 1822.345122 -310.789308 
L 1822.51586 -309.019091 
L 1822.663972 -307.248875 
L 1822.789886 -305.478659 
L 1822.89403 -303.708443 
L 1822.976801 -301.938227 
L 1823.038548 -300.16801 
L 1823.079549 -298.397794 
L 1823.1 -296.627578 
L 1823.1 -294.857362 
L 1823.079549 -293.087146 
L 1823.038548 -291.316929 
L 1822.976801 -289.546713 
L 1822.89403 -287.776497 
L 1822.789886 -286.006281 
L 1822.663972 -284.236065 
L 1822.51586 -282.465848 
L 1822.345122 -280.695632 
L 1822.151355 -278.925416 
L 1821.93421 -277.1552 
L 1821.693419 -275.384984 
L 1821.428827 -273.614767 
L 1821.140411 -271.844551 
L 1820.82831 -270.074335 
L 1820.492841 -268.304119 
L 1820.134517 -266.533903 
L 1819.754055 -264.763686 
L 1819.352387 -262.99347 
L 1818.93066 -261.223254 
L 1818.490229 -259.453038 
L 1818.032653 -257.682822 
L 1817.559677 -255.912605 
L 1817.073217 -254.142389 
L 1816.575337 -252.372173 
L 1816.068223 -250.601957 
L 1815.554156 -248.831741 
L 1815.035479 -247.061524 
L 1814.514573 -245.291308 
L 1813.993815 -243.521092 
L 1813.475557 -241.750876 
L 1812.962091 -239.98066 
L 1812.455618 -238.210443 
L 1811.958228 -236.440227 
L 1811.471872 -234.670011 
L 1810.998344 -232.899795 
L 1810.539264 -231.129579 
L 1810.096064 -229.359362 
L 1809.669979 -227.589146 
L 1809.262042 -225.81893 
L 1808.873083 -224.048714 
L 1808.503727 -222.278498 
L 1808.154402 -220.508281 
L 1807.825347 -218.738065 
L 1807.516617 -216.967849 
L 1807.228102 -215.197633 
L 1806.959536 -213.427417 
L 1806.710514 -211.6572 
L 1806.480508 -209.886984 
L 1806.268884 -208.116768 
z
" style="stroke: #595959; stroke-width: 1.5"/>
                </defs>
                <g clip-path="url(#p007f67239c)">
                    <use xlink:href="#mf63acd5a39" x="0" y="720"
                         style="fill: #e5c849; stroke: #595959; stroke-width: 1.5"/>
                </g>
            </g>
            <g id="matplotlib.axis_1">
                <g id="xtick_1">
                    <g id="line2d_1">
                        <defs>
                            <path id="mf4363fef04" d="M 0 0
L 0 3.5 
" style="stroke: #000000; stroke-width: 0.8"/>
                        </defs>
                        <g>
                            <use xlink:href="#mf4363fef04" x="409.5" y="640.8"
                                 style="stroke: #000000; stroke-width: 0.8"/>
                        </g>
                    </g>
                    <g id="text_1">
                        <!-- 1 -->
                        <g transform="translate(403.1375 662.996875)scale(0.2 -0.2)">
                            <defs>
                                <path id="DejaVuSans-31" d="M 794 531
L 1825 531 
L 1825 4091 
L 703 3866 
L 703 4441 
L 1819 4666 
L 2450 4666 
L 2450 531 
L 3481 531 
L 3481 0 
L 794 0 
L 794 531 
z
" transform="scale(0.015625)"/>
                            </defs>
                            <use xlink:href="#DejaVuSans-31"/>
                        </g>
                    </g>
                </g>
                <g id="xtick_2">
                    <g id="line2d_2">
                        <g>
                            <use xlink:href="#mf4363fef04" x="688.5" y="640.8"
                                 style="stroke: #000000; stroke-width: 0.8"/>
                        </g>
                    </g>
                    <g id="text_2">
                        <!-- 2 -->
                        <g transform="translate(682.1375 662.996875)scale(0.2 -0.2)">
                            <defs>
                                <path id="DejaVuSans-32" d="M 1228 531
L 3431 531 
L 3431 0 
L 469 0 
L 469 531 
Q 828 903 1448 1529 
Q 2069 2156 2228 2338 
Q 2531 2678 2651 2914 
Q 2772 3150 2772 3378 
Q 2772 3750 2511 3984 
Q 2250 4219 1831 4219 
Q 1534 4219 1204 4116 
Q 875 4013 500 3803 
L 500 4441 
Q 881 4594 1212 4672 
Q 1544 4750 1819 4750 
Q 2544 4750 2975 4387 
Q 3406 4025 3406 3419 
Q 3406 3131 3298 2873 
Q 3191 2616 2906 2266 
Q 2828 2175 2409 1742 
Q 1991 1309 1228 531 
z
" transform="scale(0.015625)"/>
                            </defs>
                            <use xlink:href="#DejaVuSans-32"/>
                        </g>
                    </g>
                </g>
                <g id="xtick_3">
                    <g id="line2d_3">
                        <g>
                            <use xlink:href="#mf4363fef04" x="967.5" y="640.8"
                                 style="stroke: #000000; stroke-width: 0.8"/>
                        </g>
                    </g>
                    <g id="text_3">
                        <!-- 3 -->
                        <g transform="translate(961.1375 662.996875)scale(0.2 -0.2)">
                            <defs>
                                <path id="DejaVuSans-33" d="M 2597 2516
Q 3050 2419 3304 2112 
Q 3559 1806 3559 1356 
Q 3559 666 3084 287 
Q 2609 -91 1734 -91 
Q 1441 -91 1130 -33 
Q 819 25 488 141 
L 488 750 
Q 750 597 1062 519 
Q 1375 441 1716 441 
Q 2309 441 2620 675 
Q 2931 909 2931 1356 
Q 2931 1769 2642 2001 
Q 2353 2234 1838 2234 
L 1294 2234 
L 1294 2753 
L 1863 2753 
Q 2328 2753 2575 2939 
Q 2822 3125 2822 3475 
Q 2822 3834 2567 4026 
Q 2313 4219 1838 4219 
Q 1578 4219 1281 4162 
Q 984 4106 628 3988 
L 628 4550 
Q 988 4650 1302 4700 
Q 1616 4750 1894 4750 
Q 2613 4750 3031 4423 
Q 3450 4097 3450 3541 
Q 3450 3153 3228 2886 
Q 3006 2619 2597 2516 
z
" transform="scale(0.015625)"/>
                            </defs>
                            <use xlink:href="#DejaVuSans-33"/>
                        </g>
                    </g>
                </g>
                <g id="xtick_4">
                    <g id="line2d_4">
                        <g>
                            <use xlink:href="#mf4363fef04" x="1246.5" y="640.8"
                                 style="stroke: #000000; stroke-width: 0.8"/>
                        </g>
                    </g>
                    <g id="text_4">
                        <!-- 4 -->
                        <g transform="translate(1240.1375 662.996875)scale(0.2 -0.2)">
                            <defs>
                                <path id="DejaVuSans-34" d="M 2419 4116
L 825 1625 
L 2419 1625 
L 2419 4116 
z
M 2253 4666 
L 3047 4666 
L 3047 1625 
L 3713 1625 
L 3713 1100 
L 3047 1100 
L 3047 0 
L 2419 0 
L 2419 1100 
L 313 1100 
L 313 1709 
L 2253 4666 
z
" transform="scale(0.015625)"/>
                            </defs>
                            <use xlink:href="#DejaVuSans-34"/>
                        </g>
                    </g>
                </g>
                <g id="xtick_5">
                    <g id="line2d_5">
                        <g>
                            <use xlink:href="#mf4363fef04" x="1525.5" y="640.8"
                                 style="stroke: #000000; stroke-width: 0.8"/>
                        </g>
                    </g>
                    <g id="text_5">
                        <!-- 5 -->
                        <g transform="translate(1519.1375 662.996875)scale(0.2 -0.2)">
                            <defs>
                                <path id="DejaVuSans-35" d="M 691 4666
L 3169 4666 
L 3169 4134 
L 1269 4134 
L 1269 2991 
Q 1406 3038 1543 3061 
Q 1681 3084 1819 3084 
Q 2600 3084 3056 2656 
Q 3513 2228 3513 1497 
Q 3513 744 3044 326 
Q 2575 -91 1722 -91 
Q 1428 -91 1123 -41 
Q 819 9 494 109 
L 494 744 
Q 775 591 1075 516 
Q 1375 441 1709 441 
Q 2250 441 2565 725 
Q 2881 1009 2881 1497 
Q 2881 1984 2565 2268 
Q 2250 2553 1709 2553 
Q 1456 2553 1204 2497 
Q 953 2441 691 2322 
L 691 4666 
z
" transform="scale(0.015625)"/>
                            </defs>
                            <use xlink:href="#DejaVuSans-35"/>
                        </g>
                    </g>
                </g>
                <g id="xtick_6">
                    <g id="line2d_6">
                        <g>
                            <use xlink:href="#mf4363fef04" x="1804.5" y="640.8"
                                 style="stroke: #000000; stroke-width: 0.8"/>
                        </g>
                    </g>
                    <g id="text_6">
                        <!-- 6 -->
                        <g transform="translate(1798.1375 662.996875)scale(0.2 -0.2)">
                            <defs>
                                <path id="DejaVuSans-36" d="M 2113 2584
Q 1688 2584 1439 2293 
Q 1191 2003 1191 1497 
Q 1191 994 1439 701 
Q 1688 409 2113 409 
Q 2538 409 2786 701 
Q 3034 994 3034 1497 
Q 3034 2003 2786 2293 
Q 2538 2584 2113 2584 
z
M 3366 4563 
L 3366 3988 
Q 3128 4100 2886 4159 
Q 2644 4219 2406 4219 
Q 1781 4219 1451 3797 
Q 1122 3375 1075 2522 
Q 1259 2794 1537 2939 
Q 1816 3084 2150 3084 
Q 2853 3084 3261 2657 
Q 3669 2231 3669 1497 
Q 3669 778 3244 343 
Q 2819 -91 2113 -91 
Q 1303 -91 875 529 
Q 447 1150 447 2328 
Q 447 3434 972 4092 
Q 1497 4750 2381 4750 
Q 2619 4750 2861 4703 
Q 3103 4656 3366 4563 
z
" transform="scale(0.015625)"/>
                            </defs>
                            <use xlink:href="#DejaVuSans-36"/>
                        </g>
                    </g>
                </g>
                <g id="text_7">
                    <!-- cluster -->
                    <g transform="translate(1072.992188 686.353125)scale(0.2 -0.2)">
                        <defs>
                            <path id="DejaVuSans-63" d="M 3122 3366
L 3122 2828 
Q 2878 2963 2633 3030 
Q 2388 3097 2138 3097 
Q 1578 3097 1268 2742 
Q 959 2388 959 1747 
Q 959 1106 1268 751 
Q 1578 397 2138 397 
Q 2388 397 2633 464 
Q 2878 531 3122 666 
L 3122 134 
Q 2881 22 2623 -34 
Q 2366 -91 2075 -91 
Q 1284 -91 818 406 
Q 353 903 353 1747 
Q 353 2603 823 3093 
Q 1294 3584 2113 3584 
Q 2378 3584 2631 3529 
Q 2884 3475 3122 3366 
z
" transform="scale(0.015625)"/>
                            <path id="DejaVuSans-6c" d="M 603 4863
L 1178 4863 
L 1178 0 
L 603 0 
L 603 4863 
z
" transform="scale(0.015625)"/>
                            <path id="DejaVuSans-75" d="M 544 1381
L 544 3500 
L 1119 3500 
L 1119 1403 
Q 1119 906 1312 657 
Q 1506 409 1894 409 
Q 2359 409 2629 706 
Q 2900 1003 2900 1516 
L 2900 3500 
L 3475 3500 
L 3475 0 
L 2900 0 
L 2900 538 
Q 2691 219 2414 64 
Q 2138 -91 1772 -91 
Q 1169 -91 856 284 
Q 544 659 544 1381 
z
M 1991 3584 
L 1991 3584 
z
" transform="scale(0.015625)"/>
                            <path id="DejaVuSans-73" d="M 2834 3397
L 2834 2853 
Q 2591 2978 2328 3040 
Q 2066 3103 1784 3103 
Q 1356 3103 1142 2972 
Q 928 2841 928 2578 
Q 928 2378 1081 2264 
Q 1234 2150 1697 2047 
L 1894 2003 
Q 2506 1872 2764 1633 
Q 3022 1394 3022 966 
Q 3022 478 2636 193 
Q 2250 -91 1575 -91 
Q 1294 -91 989 -36 
Q 684 19 347 128 
L 347 722 
Q 666 556 975 473 
Q 1284 391 1588 391 
Q 1994 391 2212 530 
Q 2431 669 2431 922 
Q 2431 1156 2273 1281 
Q 2116 1406 1581 1522 
L 1381 1569 
Q 847 1681 609 1914 
Q 372 2147 372 2553 
Q 372 3047 722 3315 
Q 1072 3584 1716 3584 
Q 2034 3584 2315 3537 
Q 2597 3491 2834 3397 
z
" transform="scale(0.015625)"/>
                            <path id="DejaVuSans-74" d="M 1172 4494
L 1172 3500 
L 2356 3500 
L 2356 3053 
L 1172 3053 
L 1172 1153 
Q 1172 725 1289 603 
Q 1406 481 1766 481 
L 2356 481 
L 2356 0 
L 1766 0 
Q 1100 0 847 248 
Q 594 497 594 1153 
L 594 3053 
L 172 3053 
L 172 3500 
L 594 3500 
L 594 4494 
L 1172 4494 
z
" transform="scale(0.015625)"/>
                            <path id="DejaVuSans-65" d="M 3597 1894
L 3597 1613 
L 953 1613 
Q 991 1019 1311 708 
Q 1631 397 2203 397 
Q 2534 397 2845 478 
Q 3156 559 3463 722 
L 3463 178 
Q 3153 47 2828 -22 
Q 2503 -91 2169 -91 
Q 1331 -91 842 396 
Q 353 884 353 1716 
Q 353 2575 817 3079 
Q 1281 3584 2069 3584 
Q 2775 3584 3186 3129 
Q 3597 2675 3597 1894 
z
M 3022 2063 
Q 3016 2534 2758 2815 
Q 2500 3097 2075 3097 
Q 1594 3097 1305 2825 
Q 1016 2553 972 2059 
L 3022 2063 
z
" transform="scale(0.015625)"/>
                            <path id="DejaVuSans-72" d="M 2631 2963
Q 2534 3019 2420 3045 
Q 2306 3072 2169 3072 
Q 1681 3072 1420 2755 
Q 1159 2438 1159 1844 
L 1159 0 
L 581 0 
L 581 3500 
L 1159 3500 
L 1159 2956 
Q 1341 3275 1631 3429 
Q 1922 3584 2338 3584 
Q 2397 3584 2469 3576 
Q 2541 3569 2628 3553 
L 2631 2963 
z
" transform="scale(0.015625)"/>
                        </defs>
                        <use xlink:href="#DejaVuSans-63"/>
                        <use xlink:href="#DejaVuSans-6c" x="54.980469"/>
                        <use xlink:href="#DejaVuSans-75" x="82.763672"/>
                        <use xlink:href="#DejaVuSans-73" x="146.142578"/>
                        <use xlink:href="#DejaVuSans-74" x="198.242188"/>
                        <use xlink:href="#DejaVuSans-65" x="237.451172"/>
                        <use xlink:href="#DejaVuSans-72" x="298.974609"/>
                    </g>
                </g>
            </g>
            <g id="matplotlib.axis_2">
                <g id="ytick_1">
                    <g id="line2d_7">
                        <defs>
                            <path id="m68dfa42e7e" d="M 0 0
L -3.5 0 
" style="stroke: #000000; stroke-width: 0.8"/>
                        </defs>
                        <g>
                            <use xlink:href="#m68dfa42e7e" x="270" y="638.016162"
                                 style="stroke: #000000; stroke-width: 0.8"/>
                        </g>
                    </g>
                    <g id="text_8">
                        <!-- 0.0 -->
                        <g transform="translate(231.19375 645.6146)scale(0.2 -0.2)">
                            <defs>
                                <path id="DejaVuSans-30" d="M 2034 4250
Q 1547 4250 1301 3770 
Q 1056 3291 1056 2328 
Q 1056 1369 1301 889 
Q 1547 409 2034 409 
Q 2525 409 2770 889 
Q 3016 1369 3016 2328 
Q 3016 3291 2770 3770 
Q 2525 4250 2034 4250 
z
M 2034 4750 
Q 2819 4750 3233 4129 
Q 3647 3509 3647 2328 
Q 3647 1150 3233 529 
Q 2819 -91 2034 -91 
Q 1250 -91 836 529 
Q 422 1150 422 2328 
Q 422 3509 836 4129 
Q 1250 4750 2034 4750 
z
" transform="scale(0.015625)"/>
                                <path id="DejaVuSans-2e" d="M 684 794
L 1344 794 
L 1344 0 
L 684 0 
L 684 794 
z
" transform="scale(0.015625)"/>
                            </defs>
                            <use xlink:href="#DejaVuSans-30"/>
                            <use xlink:href="#DejaVuSans-2e" x="63.623047"/>
                            <use xlink:href="#DejaVuSans-30" x="95.410156"/>
                        </g>
                    </g>
                </g>
                <g id="ytick_2">
                    <g id="line2d_8">
                        <g>
                            <use xlink:href="#m68dfa42e7e" x="270" y="565.369824"
                                 style="stroke: #000000; stroke-width: 0.8"/>
                        </g>
                    </g>
                    <g id="text_9">
                        <!-- 2.5 -->
                        <g transform="translate(231.19375 572.968262)scale(0.2 -0.2)">
                            <use xlink:href="#DejaVuSans-32"/>
                            <use xlink:href="#DejaVuSans-2e" x="63.623047"/>
                            <use xlink:href="#DejaVuSans-35" x="95.410156"/>
                        </g>
                    </g>
                </g>
                <g id="ytick_3">
                    <g id="line2d_9">
                        <g>
                            <use xlink:href="#m68dfa42e7e" x="270" y="492.723486"
                                 style="stroke: #000000; stroke-width: 0.8"/>
                        </g>
                    </g>
                    <g id="text_10">
                        <!-- 5.0 -->
                        <g transform="translate(231.19375 500.321923)scale(0.2 -0.2)">
                            <use xlink:href="#DejaVuSans-35"/>
                            <use xlink:href="#DejaVuSans-2e" x="63.623047"/>
                            <use xlink:href="#DejaVuSans-30" x="95.410156"/>
                        </g>
                    </g>
                </g>
                <g id="ytick_4">
                    <g id="line2d_10">
                        <g>
                            <use xlink:href="#m68dfa42e7e" x="270" y="420.077148"
                                 style="stroke: #000000; stroke-width: 0.8"/>
                        </g>
                    </g>
                    <g id="text_11">
                        <!-- 7.5 -->
                        <g transform="translate(231.19375 427.675585)scale(0.2 -0.2)">
                            <defs>
                                <path id="DejaVuSans-37" d="M 525 4666
L 3525 4666 
L 3525 4397 
L 1831 0 
L 1172 0 
L 2766 4134 
L 525 4134 
L 525 4666 
z
" transform="scale(0.015625)"/>
                            </defs>
                            <use xlink:href="#DejaVuSans-37"/>
                            <use xlink:href="#DejaVuSans-2e" x="63.623047"/>
                            <use xlink:href="#DejaVuSans-35" x="95.410156"/>
                        </g>
                    </g>
                </g>
                <g id="ytick_5">
                    <g id="line2d_11">
                        <g>
                            <use xlink:href="#m68dfa42e7e" x="270" y="347.430809"
                                 style="stroke: #000000; stroke-width: 0.8"/>
                        </g>
                    </g>
                    <g id="text_12">
                        <!-- 10.0 -->
                        <g transform="translate(218.46875 355.029247)scale(0.2 -0.2)">
                            <use xlink:href="#DejaVuSans-31"/>
                            <use xlink:href="#DejaVuSans-30" x="63.623047"/>
                            <use xlink:href="#DejaVuSans-2e" x="127.246094"/>
                            <use xlink:href="#DejaVuSans-30" x="159.033203"/>
                        </g>
                    </g>
                </g>
                <g id="ytick_6">
                    <g id="line2d_12">
                        <g>
                            <use xlink:href="#m68dfa42e7e" x="270" y="274.784471"
                                 style="stroke: #000000; stroke-width: 0.8"/>
                        </g>
                    </g>
                    <g id="text_13">
                        <!-- 12.5 -->
                        <g transform="translate(218.46875 282.382908)scale(0.2 -0.2)">
                            <use xlink:href="#DejaVuSans-31"/>
                            <use xlink:href="#DejaVuSans-32" x="63.623047"/>
                            <use xlink:href="#DejaVuSans-2e" x="127.246094"/>
                            <use xlink:href="#DejaVuSans-35" x="159.033203"/>
                        </g>
                    </g>
                </g>
                <g id="ytick_7">
                    <g id="line2d_13">
                        <g>
                            <use xlink:href="#m68dfa42e7e" x="270" y="202.138133"
                                 style="stroke: #000000; stroke-width: 0.8"/>
                        </g>
                    </g>
                    <g id="text_14">
                        <!-- 15.0 -->
                        <g transform="translate(218.46875 209.73657)scale(0.2 -0.2)">
                            <use xlink:href="#DejaVuSans-31"/>
                            <use xlink:href="#DejaVuSans-35" x="63.623047"/>
                            <use xlink:href="#DejaVuSans-2e" x="127.246094"/>
                            <use xlink:href="#DejaVuSans-30" x="159.033203"/>
                        </g>
                    </g>
                </g>
                <g id="ytick_8">
                    <g id="line2d_14">
                        <g>
                            <use xlink:href="#m68dfa42e7e" x="270" y="129.491794"
                                 style="stroke: #000000; stroke-width: 0.8"/>
                        </g>
                    </g>
                    <g id="text_15">
                        <!-- 17.5 -->
                        <g transform="translate(218.46875 137.090232)scale(0.2 -0.2)">
                            <use xlink:href="#DejaVuSans-31"/>
                            <use xlink:href="#DejaVuSans-37" x="63.623047"/>
                            <use xlink:href="#DejaVuSans-2e" x="127.246094"/>
                            <use xlink:href="#DejaVuSans-35" x="159.033203"/>
                        </g>
                    </g>
                </g>
                <g id="text_16">
                    <!-- log -->
                    <g transform="translate(210.309375 378.845312)rotate(-90)scale(0.2 -0.2)">
                        <defs>
                            <path id="DejaVuSans-6f" d="M 1959 3097
Q 1497 3097 1228 2736 
Q 959 2375 959 1747 
Q 959 1119 1226 758 
Q 1494 397 1959 397 
Q 2419 397 2687 759 
Q 2956 1122 2956 1747 
Q 2956 2369 2687 2733 
Q 2419 3097 1959 3097 
z
M 1959 3584 
Q 2709 3584 3137 3096 
Q 3566 2609 3566 1747 
Q 3566 888 3137 398 
Q 2709 -91 1959 -91 
Q 1206 -91 779 398 
Q 353 888 353 1747 
Q 353 2609 779 3096 
Q 1206 3584 1959 3584 
z
" transform="scale(0.015625)"/>
                            <path id="DejaVuSans-67" d="M 2906 1791
Q 2906 2416 2648 2759 
Q 2391 3103 1925 3103 
Q 1463 3103 1205 2759 
Q 947 2416 947 1791 
Q 947 1169 1205 825 
Q 1463 481 1925 481 
Q 2391 481 2648 825 
Q 2906 1169 2906 1791 
z
M 3481 434 
Q 3481 -459 3084 -895 
Q 2688 -1331 1869 -1331 
Q 1566 -1331 1297 -1286 
Q 1028 -1241 775 -1147 
L 775 -588 
Q 1028 -725 1275 -790 
Q 1522 -856 1778 -856 
Q 2344 -856 2625 -561 
Q 2906 -266 2906 331 
L 2906 616 
Q 2728 306 2450 153 
Q 2172 0 1784 0 
Q 1141 0 747 490 
Q 353 981 353 1791 
Q 353 2603 747 3093 
Q 1141 3584 1784 3584 
Q 2172 3584 2450 3431 
Q 2728 3278 2906 2969 
L 2906 3500 
L 3481 3500 
L 3481 434 
z
" transform="scale(0.015625)"/>
                        </defs>
                        <use xlink:href="#DejaVuSans-6c"/>
                        <use xlink:href="#DejaVuSans-6f" x="27.783203"/>
                        <use xlink:href="#DejaVuSans-67" x="88.964844"/>
                    </g>
                </g>
            </g>
            <g id="line2d_15">
                <path d="M 409.5 489.281672
L 409.5 267.673048 
" clip-path="url(#p007f67239c)" style="fill: none; stroke: #595959; stroke-width: 1.5; stroke-linecap: square"/>
            </g>
            <g id="line2d_16">
                <path d="M 409.5 455.753457
L 409.5 364.267921 
" clip-path="url(#p007f67239c)" style="fill: none; stroke: #595959; stroke-width: 4.5; stroke-linecap: square"/>
            </g>
            <g id="line2d_17">
                <path d="M 688.5 487.555951
L 688.5 239.644049 
" clip-path="url(#p007f67239c)" style="fill: none; stroke: #595959; stroke-width: 1.5; stroke-linecap: square"/>
            </g>
            <g id="line2d_18">
                <path d="M 688.5 472.436152
L 688.5 359.156503 
" clip-path="url(#p007f67239c)" style="fill: none; stroke: #595959; stroke-width: 4.5; stroke-linecap: square"/>
            </g>
            <g id="line2d_19">
                <path d="M 967.5 490.761272
L 967.5 418.769433 
" clip-path="url(#p007f67239c)" style="fill: none; stroke: #595959; stroke-width: 1.5; stroke-linecap: square"/>
            </g>
            <g id="line2d_20">
                <path d="M 967.5 480.913541
L 967.5 445.014946 
" clip-path="url(#p007f67239c)" style="fill: none; stroke: #595959; stroke-width: 4.5; stroke-linecap: square"/>
            </g>
            <g id="line2d_21">
                <path d="M 1237.2 432.686884
L 1255.8 432.686884 
" clip-path="url(#p007f67239c)" style="fill: none; stroke: #595959; stroke-width: 1.5; stroke-linecap: square"/>
            </g>
            <g id="line2d_22">
                <path d="M 1525.5 491.617182
L 1525.5 321.751072 
" clip-path="url(#p007f67239c)" style="fill: none; stroke: #595959; stroke-width: 1.5; stroke-linecap: square"/>
            </g>
            <g id="line2d_23">
                <path d="M 1525.5 483.112884
L 1525.5 399.508764 
" clip-path="url(#p007f67239c)" style="fill: none; stroke: #595959; stroke-width: 4.5; stroke-linecap: square"/>
            </g>
            <g id="line2d_24">
                <path d="M 1804.5 449.566136
L 1804.5 398.948925 
" clip-path="url(#p007f67239c)" style="fill: none; stroke: #595959; stroke-width: 1.5; stroke-linecap: square"/>
            </g>
            <g id="line2d_25">
                <path d="M 1804.5 436.911833
L 1804.5 411.603227 
" clip-path="url(#p007f67239c)" style="fill: none; stroke: #595959; stroke-width: 4.5; stroke-linecap: square"/>
            </g>
            <g id="patch_3">
                <path d="M 270 640.8
L 270 86.4 
" style="fill: none; stroke: #000000; stroke-width: 0.8; stroke-linejoin: miter; stroke-linecap: square"/>
            </g>
            <g id="patch_4">
                <path d="M 1944 640.8
L 1944 86.4 
" style="fill: none; stroke: #000000; stroke-width: 0.8; stroke-linejoin: miter; stroke-linecap: square"/>
            </g>
            <g id="patch_5">
                <path d="M 270 640.8
L 1944 640.8 
" style="fill: none; stroke: #000000; stroke-width: 0.8; stroke-linejoin: miter; stroke-linecap: square"/>
            </g>
            <g id="patch_6">
                <path d="M 270 86.4
L 1944 86.4 
" style="fill: none; stroke: #000000; stroke-width: 0.8; stroke-linejoin: miter; stroke-linecap: square"/>
            </g>
            <g id="PathCollection_1">
                <defs>
                    <path id="m3978eb48c7" d="M 0 1.5
C 0.397805 1.5 0.77937 1.341951 1.06066 1.06066 
C 1.341951 0.77937 1.5 0.397805 1.5 0 
C 1.5 -0.397805 1.341951 -0.77937 1.06066 -1.06066 
C 0.77937 -1.341951 0.397805 -1.5 0 -1.5 
C -0.397805 -1.5 -0.77937 -1.341951 -1.06066 -1.06066 
C -1.341951 -0.77937 -1.5 -0.397805 -1.5 0 
C -1.5 0.397805 -1.341951 0.77937 -1.06066 1.06066 
C -0.77937 1.341951 -0.397805 1.5 0 1.5 
z
" style="stroke: #595959"/>
                </defs>
                <g clip-path="url(#p007f67239c)">
                    <use xlink:href="#m3978eb48c7" x="409.5" y="415.370703" style="fill: #ffffff; stroke: #595959"/>
                </g>
            </g>
            <g id="PathCollection_2">
                <g clip-path="url(#p007f67239c)">
                    <use xlink:href="#m3978eb48c7" x="688.5" y="416.856476" style="fill: #ffffff; stroke: #595959"/>
                </g>
            </g>
            <g id="PathCollection_3">
                <g clip-path="url(#p007f67239c)">
                    <use xlink:href="#m3978eb48c7" x="967.5" y="464.18416" style="fill: #ffffff; stroke: #595959"/>
                </g>
            </g>
            <g id="PathCollection_4">
                <g clip-path="url(#p007f67239c)">
                    <use xlink:href="#m3978eb48c7" x="1525.5" y="468.776425" style="fill: #ffffff; stroke: #595959"/>
                </g>
            </g>
            <g id="PathCollection_5">
                <g clip-path="url(#p007f67239c)">
                    <use xlink:href="#m3978eb48c7" x="1804.5" y="424.25753" style="fill: #ffffff; stroke: #595959"/>
                </g>
            </g>
            <g id="PathCollection_6">
                <defs>
                    <path id="C0_0_8d301e6131" d="M 0 2.5
C 0.663008 2.5 1.29895 2.236584 1.767767 1.767767 
C 2.236584 1.29895 2.5 0.663008 2.5 -0 
C 2.5 -0.663008 2.236584 -1.29895 1.767767 -1.767767 
C 1.29895 -2.236584 0.663008 -2.5 0 -2.5 
C -0.663008 -2.5 -1.29895 -2.236584 -1.767767 -1.767767 
C -2.236584 -1.29895 -2.5 -0.663008 -2.5 0 
C -2.5 0.663008 -2.236584 1.29895 -1.767767 1.767767 
C -1.29895 2.236584 -0.663008 2.5 0 2.5 
z
"/>
                </defs>
                <g clip-path="url(#p007f67239c)">
                    <use xlink:href="#C0_0_8d301e6131" x="409.5" y="489.281672" style="fill: #1f77b4"/>
                </g>
                <g clip-path="url(#p007f67239c)">
                    <use xlink:href="#C0_0_8d301e6131" x="409.5" y="471.765122" style="fill: #1f77b4"/>
                </g>
                <g clip-path="url(#p007f67239c)">
                    <use xlink:href="#C0_0_8d301e6131" x="409.5" y="450.416236" style="fill: #1f77b4"/>
                </g>
                <g clip-path="url(#p007f67239c)">
                    <use xlink:href="#C0_0_8d301e6131" x="409.5" y="438.852682" style="fill: #1f77b4"/>
                </g>
                <g clip-path="url(#p007f67239c)">
                    <use xlink:href="#C0_0_8d301e6131" x="409.5" y="391.888724" style="fill: #1f77b4"/>
                </g>
                <g clip-path="url(#p007f67239c)">
                    <use xlink:href="#C0_0_8d301e6131" x="409.5" y="375.559928" style="fill: #1f77b4"/>
                </g>
                <g clip-path="url(#p007f67239c)">
                    <use xlink:href="#C0_0_8d301e6131" x="409.5" y="330.391901" style="fill: #1f77b4"/>
                </g>
                <g clip-path="url(#p007f67239c)">
                    <use xlink:href="#C0_0_8d301e6131" x="409.5" y="267.673048" style="fill: #1f77b4"/>
                </g>
            </g>
            <g id="PathCollection_7">
                <defs>
                    <path id="C1_0_35262c1c49" d="M 0 2.5
C 0.663008 2.5 1.29895 2.236584 1.767767 1.767767 
C 2.236584 1.29895 2.5 0.663008 2.5 -0 
C 2.5 -0.663008 2.236584 -1.29895 1.767767 -1.767767 
C 1.29895 -2.236584 0.663008 -2.5 0 -2.5 
C -0.663008 -2.5 -1.29895 -2.236584 -1.767767 -1.767767 
C -2.236584 -1.29895 -2.5 -0.663008 -2.5 0 
C -2.5 0.663008 -2.236584 1.29895 -1.767767 1.767767 
C -1.29895 2.236584 -0.663008 2.5 0 2.5 
z
"/>
                </defs>
                <g clip-path="url(#p007f67239c)">
                    <use xlink:href="#C1_0_35262c1c49" x="688.5" y="487.555951" style="fill: #ff7f0e"/>
                </g>
                <g clip-path="url(#p007f67239c)">
                    <use xlink:href="#C1_0_35262c1c49" x="688.5" y="481.502295" style="fill: #ff7f0e"/>
                </g>
                <g clip-path="url(#p007f67239c)">
                    <use xlink:href="#C1_0_35262c1c49" x="688.5" y="463.37001" style="fill: #ff7f0e"/>
                </g>
                <g clip-path="url(#p007f67239c)">
                    <use xlink:href="#C1_0_35262c1c49" x="688.5" y="416.856476" style="fill: #ff7f0e"/>
                </g>
                <g clip-path="url(#p007f67239c)">
                    <use xlink:href="#C1_0_35262c1c49" x="684.595012" y="413.514505" style="fill: #ff7f0e"/>
                </g>
                <g clip-path="url(#p007f67239c)">
                    <use xlink:href="#C1_0_35262c1c49" x="688.5" y="304.798501" style="fill: #ff7f0e"/>
                </g>
                <g clip-path="url(#p007f67239c)">
                    <use xlink:href="#C1_0_35262c1c49" x="688.5" y="239.644049" style="fill: #ff7f0e"/>
                </g>
            </g>
            <g id="PathCollection_8">
                <defs>
                    <path id="C2_0_07e6cc25ea" d="M 0 2.5
C 0.663008 2.5 1.29895 2.236584 1.767767 1.767767 
C 2.236584 1.29895 2.5 0.663008 2.5 -0 
C 2.5 -0.663008 2.236584 -1.29895 1.767767 -1.767767 
C 1.29895 -2.236584 0.663008 -2.5 0 -2.5 
C -0.663008 -2.5 -1.29895 -2.236584 -1.767767 -1.767767 
C -2.236584 -1.29895 -2.5 -0.663008 -2.5 0 
C -2.5 0.663008 -2.236584 1.29895 -1.767767 1.767767 
C -1.29895 2.236584 -0.663008 2.5 0 2.5 
z
"/>
                </defs>
                <g clip-path="url(#p007f67239c)">
                    <use xlink:href="#C2_0_07e6cc25ea" x="967.5" y="490.761272" style="fill: #2ca02c"/>
                </g>
                <g clip-path="url(#p007f67239c)">
                    <use xlink:href="#C2_0_07e6cc25ea" x="962.251193" y="490.654674" style="fill: #2ca02c"/>
                </g>
                <g clip-path="url(#p007f67239c)">
                    <use xlink:href="#C2_0_07e6cc25ea" x="967.5" y="482.732989" style="fill: #2ca02c"/>
                </g>
                <g clip-path="url(#p007f67239c)">
                    <use xlink:href="#C2_0_07e6cc25ea" x="963.899489" y="479.094094" style="fill: #2ca02c"/>
                </g>
                <g clip-path="url(#p007f67239c)">
                    <use xlink:href="#C2_0_07e6cc25ea" x="967.5" y="475.228504" style="fill: #2ca02c"/>
                </g>
                <g clip-path="url(#p007f67239c)">
                    <use xlink:href="#C2_0_07e6cc25ea" x="967.5" y="464.18416" style="fill: #2ca02c"/>
                </g>
                <g clip-path="url(#p007f67239c)">
                    <use xlink:href="#C2_0_07e6cc25ea" x="963.201512" y="461.313478" style="fill: #2ca02c"/>
                </g>
                <g clip-path="url(#p007f67239c)">
                    <use xlink:href="#C2_0_07e6cc25ea" x="967.5" y="453.154174" style="fill: #2ca02c"/>
                </g>
                <g clip-path="url(#p007f67239c)">
                    <use xlink:href="#C2_0_07e6cc25ea" x="967.5" y="436.875717" style="fill: #2ca02c"/>
                </g>
                <g clip-path="url(#p007f67239c)">
                    <use xlink:href="#C2_0_07e6cc25ea" x="962.601446" y="435.077087" style="fill: #2ca02c"/>
                </g>
                <g clip-path="url(#p007f67239c)">
                    <use xlink:href="#C2_0_07e6cc25ea" x="967.5" y="418.769433" style="fill: #2ca02c"/>
                </g>
            </g>
            <g id="PathCollection_9">
                <defs>
                    <path id="mbd9e375d03" d="M 0 2.5
C 0.663008 2.5 1.29895 2.236584 1.767767 1.767767 
C 2.236584 1.29895 2.5 0.663008 2.5 0 
C 2.5 -0.663008 2.236584 -1.29895 1.767767 -1.767767 
C 1.29895 -2.236584 0.663008 -2.5 0 -2.5 
C -0.663008 -2.5 -1.29895 -2.236584 -1.767767 -1.767767 
C -2.236584 -1.29895 -2.5 -0.663008 -2.5 0 
C -2.5 0.663008 -2.236584 1.29895 -1.767767 1.767767 
C -1.29895 2.236584 -0.663008 2.5 0 2.5 
z
"/>
                </defs>
                <g clip-path="url(#p007f67239c)">
                    <use xlink:href="#mbd9e375d03" x="1246.5" y="432.686884" style="fill: #d62728"/>
                </g>
            </g>
            <g id="PathCollection_10">
                <defs>
                    <path id="C3_0_005bb682d6" d="M 0 2.5
C 0.663008 2.5 1.29895 2.236584 1.767767 1.767767 
C 2.236584 1.29895 2.5 0.663008 2.5 -0 
C 2.5 -0.663008 2.236584 -1.29895 1.767767 -1.767767 
C 1.29895 -2.236584 0.663008 -2.5 0 -2.5 
C -0.663008 -2.5 -1.29895 -2.236584 -1.767767 -1.767767 
C -2.236584 -1.29895 -2.5 -0.663008 -2.5 0 
C -2.5 0.663008 -2.236584 1.29895 -1.767767 1.767767 
C -1.29895 2.236584 -0.663008 2.5 0 2.5 
z
"/>
                </defs>
                <g clip-path="url(#p007f67239c)">
                    <use xlink:href="#C3_0_005bb682d6" x="1525.5" y="491.617182" style="fill: #9467bd"/>
                </g>
                <g clip-path="url(#p007f67239c)">
                    <use xlink:href="#C3_0_005bb682d6" x="1521.623102" y="488.245677" style="fill: #9467bd"/>
                </g>
                <g clip-path="url(#p007f67239c)">
                    <use xlink:href="#C3_0_005bb682d6" x="1525.912959" y="485.363308" style="fill: #9467bd"/>
                </g>
                <g clip-path="url(#p007f67239c)">
                    <use xlink:href="#C3_0_005bb682d6" x="1521.713405" y="482.362743" style="fill: #9467bd"/>
                </g>
                <g clip-path="url(#p007f67239c)">
                    <use xlink:href="#C3_0_005bb682d6" x="1525.5" y="473.348582" style="fill: #9467bd"/>
                </g>
                <g clip-path="url(#p007f67239c)">
                    <use xlink:href="#C3_0_005bb682d6" x="1520.831292" y="471.061745" style="fill: #9467bd"/>
                </g>
                <g clip-path="url(#p007f67239c)">
                    <use xlink:href="#C3_0_005bb682d6" x="1525.5" y="466.491105" style="fill: #9467bd"/>
                </g>
                <g clip-path="url(#p007f67239c)">
                    <use xlink:href="#C3_0_005bb682d6" x="1522.912972" y="462.1403" style="fill: #9467bd"/>
                </g>
                <g clip-path="url(#p007f67239c)">
                    <use xlink:href="#C3_0_005bb682d6" x="1525.5" y="418.332587" style="fill: #9467bd"/>
                </g>
                <g clip-path="url(#p007f67239c)">
                    <use xlink:href="#C3_0_005bb682d6" x="1525.5" y="343.037295" style="fill: #9467bd"/>
                </g>
                <g clip-path="url(#p007f67239c)">
                    <use xlink:href="#C3_0_005bb682d6" x="1525.5" y="336.756439" style="fill: #9467bd"/>
                </g>
                <g clip-path="url(#p007f67239c)">
                    <use xlink:href="#C3_0_005bb682d6" x="1525.5" y="321.751072" style="fill: #9467bd"/>
                </g>
            </g>
            <g id="PathCollection_11">
                <defs>
                    <path id="C4_0_73f851315d" d="M 0 2.5
C 0.663008 2.5 1.29895 2.236584 1.767767 1.767767 
C 2.236584 1.29895 2.5 0.663008 2.5 -0 
C 2.5 -0.663008 2.236584 -1.29895 1.767767 -1.767767 
C 1.29895 -2.236584 0.663008 -2.5 0 -2.5 
C -0.663008 -2.5 -1.29895 -2.236584 -1.767767 -1.767767 
C -2.236584 -1.29895 -2.5 -0.663008 -2.5 0 
C -2.5 0.663008 -2.236584 1.29895 -1.767767 1.767767 
C -1.29895 2.236584 -0.663008 2.5 0 2.5 
z
"/>
                </defs>
                <g clip-path="url(#p007f67239c)">
                    <use xlink:href="#C4_0_73f851315d" x="1804.5" y="449.566136" style="fill: #8c564b"/>
                </g>
                <g clip-path="url(#p007f67239c)">
                    <use xlink:href="#C4_0_73f851315d" x="1804.5" y="398.948925" style="fill: #8c564b"/>
                </g>
            </g>
            <g id="text_17">
                <!-- P values of Field Cardiovascular -->
                <g transform="translate(916.929375 80.4)scale(0.24 -0.24)">
                    <defs>
                        <path id="DejaVuSans-50" d="M 1259 4147
L 1259 2394 
L 2053 2394 
Q 2494 2394 2734 2622 
Q 2975 2850 2975 3272 
Q 2975 3691 2734 3919 
Q 2494 4147 2053 4147 
L 1259 4147 
z
M 628 4666 
L 2053 4666 
Q 2838 4666 3239 4311 
Q 3641 3956 3641 3272 
Q 3641 2581 3239 2228 
Q 2838 1875 2053 1875 
L 1259 1875 
L 1259 0 
L 628 0 
L 628 4666 
z
" transform="scale(0.015625)"/>
                        <path id="DejaVuSans-20" transform="scale(0.015625)"/>
                        <path id="DejaVuSans-76" d="M 191 3500
L 800 3500 
L 1894 563 
L 2988 3500 
L 3597 3500 
L 2284 0 
L 1503 0 
L 191 3500 
z
" transform="scale(0.015625)"/>
                        <path id="DejaVuSans-61" d="M 2194 1759
Q 1497 1759 1228 1600 
Q 959 1441 959 1056 
Q 959 750 1161 570 
Q 1363 391 1709 391 
Q 2188 391 2477 730 
Q 2766 1069 2766 1631 
L 2766 1759 
L 2194 1759 
z
M 3341 1997 
L 3341 0 
L 2766 0 
L 2766 531 
Q 2569 213 2275 61 
Q 1981 -91 1556 -91 
Q 1019 -91 701 211 
Q 384 513 384 1019 
Q 384 1609 779 1909 
Q 1175 2209 1959 2209 
L 2766 2209 
L 2766 2266 
Q 2766 2663 2505 2880 
Q 2244 3097 1772 3097 
Q 1472 3097 1187 3025 
Q 903 2953 641 2809 
L 641 3341 
Q 956 3463 1253 3523 
Q 1550 3584 1831 3584 
Q 2591 3584 2966 3190 
Q 3341 2797 3341 1997 
z
" transform="scale(0.015625)"/>
                        <path id="DejaVuSans-66" d="M 2375 4863
L 2375 4384 
L 1825 4384 
Q 1516 4384 1395 4259 
Q 1275 4134 1275 3809 
L 1275 3500 
L 2222 3500 
L 2222 3053 
L 1275 3053 
L 1275 0 
L 697 0 
L 697 3053 
L 147 3053 
L 147 3500 
L 697 3500 
L 697 3744 
Q 697 4328 969 4595 
Q 1241 4863 1831 4863 
L 2375 4863 
z
" transform="scale(0.015625)"/>
                        <path id="DejaVuSans-46" d="M 628 4666
L 3309 4666 
L 3309 4134 
L 1259 4134 
L 1259 2759 
L 3109 2759 
L 3109 2228 
L 1259 2228 
L 1259 0 
L 628 0 
L 628 4666 
z
" transform="scale(0.015625)"/>
                        <path id="DejaVuSans-69" d="M 603 3500
L 1178 3500 
L 1178 0 
L 603 0 
L 603 3500 
z
M 603 4863 
L 1178 4863 
L 1178 4134 
L 603 4134 
L 603 4863 
z
" transform="scale(0.015625)"/>
                        <path id="DejaVuSans-64" d="M 2906 2969
L 2906 4863 
L 3481 4863 
L 3481 0 
L 2906 0 
L 2906 525 
Q 2725 213 2448 61 
Q 2172 -91 1784 -91 
Q 1150 -91 751 415 
Q 353 922 353 1747 
Q 353 2572 751 3078 
Q 1150 3584 1784 3584 
Q 2172 3584 2448 3432 
Q 2725 3281 2906 2969 
z
M 947 1747 
Q 947 1113 1208 752 
Q 1469 391 1925 391 
Q 2381 391 2643 752 
Q 2906 1113 2906 1747 
Q 2906 2381 2643 2742 
Q 2381 3103 1925 3103 
Q 1469 3103 1208 2742 
Q 947 2381 947 1747 
z
" transform="scale(0.015625)"/>
                        <path id="DejaVuSans-43" d="M 4122 4306
L 4122 3641 
Q 3803 3938 3442 4084 
Q 3081 4231 2675 4231 
Q 1875 4231 1450 3742 
Q 1025 3253 1025 2328 
Q 1025 1406 1450 917 
Q 1875 428 2675 428 
Q 3081 428 3442 575 
Q 3803 722 4122 1019 
L 4122 359 
Q 3791 134 3420 21 
Q 3050 -91 2638 -91 
Q 1578 -91 968 557 
Q 359 1206 359 2328 
Q 359 3453 968 4101 
Q 1578 4750 2638 4750 
Q 3056 4750 3426 4639 
Q 3797 4528 4122 4306 
z
" transform="scale(0.015625)"/>
                    </defs>
                    <use xlink:href="#DejaVuSans-50"/>
                    <use xlink:href="#DejaVuSans-20" x="60.302734"/>
                    <use xlink:href="#DejaVuSans-76" x="92.089844"/>
                    <use xlink:href="#DejaVuSans-61" x="151.269531"/>
                    <use xlink:href="#DejaVuSans-6c" x="212.548828"/>
                    <use xlink:href="#DejaVuSans-75" x="240.332031"/>
                    <use xlink:href="#DejaVuSans-65" x="303.710938"/>
                    <use xlink:href="#DejaVuSans-73" x="365.234375"/>
                    <use xlink:href="#DejaVuSans-20" x="417.333984"/>
                    <use xlink:href="#DejaVuSans-6f" x="449.121094"/>
                    <use xlink:href="#DejaVuSans-66" x="510.302734"/>
                    <use xlink:href="#DejaVuSans-20" x="545.507812"/>
                    <use xlink:href="#DejaVuSans-46" x="577.294922"/>
                    <use xlink:href="#DejaVuSans-69" x="627.564453"/>
                    <use xlink:href="#DejaVuSans-65" x="655.347656"/>
                    <use xlink:href="#DejaVuSans-6c" x="716.871094"/>
                    <use xlink:href="#DejaVuSans-64" x="744.654297"/>
                    <use xlink:href="#DejaVuSans-20" x="808.130859"/>
                    <use xlink:href="#DejaVuSans-43" x="839.917969"/>
                    <use xlink:href="#DejaVuSans-61" x="909.742188"/>
                    <use xlink:href="#DejaVuSans-72" x="971.021484"/>
                    <use xlink:href="#DejaVuSans-64" x="1010.384766"/>
                    <use xlink:href="#DejaVuSans-69" x="1073.861328"/>
                    <use xlink:href="#DejaVuSans-6f" x="1101.644531"/>
                    <use xlink:href="#DejaVuSans-76" x="1162.826172"/>
                    <use xlink:href="#DejaVuSans-61" x="1222.005859"/>
                    <use xlink:href="#DejaVuSans-73" x="1283.285156"/>
                    <use xlink:href="#DejaVuSans-63" x="1335.384766"/>
                    <use xlink:href="#DejaVuSans-75" x="1390.365234"/>
                    <use xlink:href="#DejaVuSans-6c" x="1453.744141"/>
                    <use xlink:href="#DejaVuSans-61" x="1481.527344"/>
                    <use xlink:href="#DejaVuSans-72" x="1542.806641"/>
                </g>
            </g>
        </g>
    </g>
    <defs>
        <clipPath id="p007f67239c">
            <rect x="270" y="86.4" width="1674" height="554.4"/>
        </clipPath>
    </defs>
</svg>
