<?xml version="1.0" encoding="utf-8" standalone="no"?>
<!DOCTYPE svg PUBLIC "-//W3C//DTD SVG 1.1//EN"
        "http://www.w3.org/Graphics/SVG/1.1/DTD/svg11.dtd">
<svg xmlns:xlink="http://www.w3.org/1999/xlink" width="2160pt" height="720pt" viewBox="0 0 2160 720"
     xmlns="http://www.w3.org/2000/svg" version="1.1">
    <metadata>
        <rdf:RDF xmlns:dc="http://purl.org/dc/elements/1.1/" xmlns:cc="http://creativecommons.org/ns#"
                 xmlns:rdf="http://www.w3.org/1999/02/22-rdf-syntax-ns#">
            <cc:Work>
                <dc:type rdf:resource="http://purl.org/dc/dcmitype/StillImage"/>
                <dc:date>2022-06-10T17:50:37.992495</dc:date>
                <dc:format>image/svg+xml</dc:format>
                <dc:creator>
                    <cc:Agent>
                        <dc:title>Matplotlib v3.5.1, https://matplotlib.org/</dc:title>
                    </cc:Agent>
                </dc:creator>
            </cc:Work>
        </rdf:RDF>
    </metadata>
    <defs>
        <style type="text/css">*{stroke-linejoin: round; stroke-linecap: butt}</style>
    </defs>
    <g id="figure_1">
        <g id="patch_1">
            <path d="M 0 720
L 2160 720 
L 2160 0 
L 0 0 
z
" style="fill: #ffffff"/>
        </g>
        <g id="axes_1">
            <g id="patch_2">
                <path d="M 270 640.8
L 1944 640.8 
L 1944 86.4 
L 270 86.4 
z
" style="fill: #ffffff"/>
            </g>
            <g id="PolyCollection_1">
                <defs>
                    <path id="m04dd1c822e" d="M 447.245475 -151.852852
L 427.554525 -151.852852 
L 426.166055 -156.327777 
L 424.632256 -160.802702 
L 422.946162 -165.277627 
L 421.101772 -169.752552 
L 419.094277 -174.227477 
L 416.920285 -178.702402 
L 414.578044 -183.177328 
L 412.067662 -187.652253 
L 409.391304 -192.127178 
L 406.553372 -196.602103 
L 403.56066 -201.077028 
L 400.422464 -205.551953 
L 397.150659 -210.026878 
L 393.759721 -214.501803 
L 390.266701 -218.976728 
L 386.691137 -223.451653 
L 383.054909 -227.926578 
L 379.382031 -232.401503 
L 375.698382 -236.876428 
L 372.031379 -241.351353 
L 368.409596 -245.826278 
L 364.862333 -250.301203 
L 361.419147 -254.776129 
L 358.10935 -259.251054 
L 354.961491 -263.725979 
L 352.002829 -268.200904 
L 349.258811 -272.675829 
L 346.752573 -277.150754 
L 344.504473 -281.625679 
L 342.531675 -286.100604 
L 340.847783 -290.575529 
L 339.462561 -295.050454 
L 338.381721 -299.525379 
L 337.606805 -304.000304 
L 337.135158 -308.475229 
L 336.96 -312.950154 
L 337.07059 -317.425079 
L 337.452484 -321.900005 
L 338.087878 -326.37493 
L 338.956027 -330.849855 
L 340.033741 -335.32478 
L 341.29592 -339.799705 
L 342.716137 -344.27463 
L 344.267245 -348.749555 
L 345.92199 -353.22448 
L 347.653608 -357.699405 
L 349.436407 -362.17433 
L 351.246297 -366.649255 
L 353.061272 -371.12418 
L 354.861818 -375.599105 
L 356.63125 -380.07403 
L 358.355958 -384.548955 
L 360.025561 -389.023881 
L 361.63298 -393.498806 
L 363.174404 -397.973731 
L 364.64918 -402.448656 
L 366.059615 -406.923581 
L 367.410706 -411.398506 
L 368.709808 -415.873431 
L 369.966247 -420.348356 
L 371.190897 -424.823281 
L 372.395735 -429.298206 
L 373.593381 -433.773131 
L 374.796642 -438.248056 
L 376.018076 -442.722981 
L 377.269582 -447.197906 
L 378.562029 -451.672831 
L 379.904934 -456.147757 
L 381.306195 -460.622682 
L 382.771884 -465.097607 
L 384.306106 -469.572532 
L 385.910917 -474.047457 
L 387.586311 -478.522382 
L 389.33026 -482.997307 
L 391.138817 -487.472232 
L 393.006262 -491.947157 
L 394.925288 -496.422082 
L 396.887232 -500.897007 
L 398.882316 -505.371932 
L 400.899916 -509.846857 
L 402.928831 -514.321782 
L 404.957558 -518.796707 
L 406.97455 -523.271632 
L 408.96847 -527.746558 
L 410.928414 -532.221483 
L 412.844113 -536.696408 
L 414.706108 -541.171333 
L 416.505885 -545.646258 
L 418.23599 -550.121183 
L 419.890099 -554.596108 
L 421.463063 -559.071033 
L 422.950921 -563.545958 
L 424.350885 -568.020883 
L 425.6613 -572.495808 
L 426.881581 -576.970733 
L 428.012141 -581.445658 
L 429.054291 -585.920583 
L 430.010144 -590.395508 
L 430.882503 -594.870434 
L 443.917497 -594.870434 
L 443.917497 -594.870434 
L 444.789856 -590.395508 
L 445.745709 -585.920583 
L 446.787859 -581.445658 
L 447.918419 -576.970733 
L 449.1387 -572.495808 
L 450.449115 -568.020883 
L 451.849079 -563.545958 
L 453.336937 -559.071033 
L 454.909901 -554.596108 
L 456.56401 -550.121183 
L 458.294115 -545.646258 
L 460.093892 -541.171333 
L 461.955887 -536.696408 
L 463.871586 -532.221483 
L 465.83153 -527.746558 
L 467.82545 -523.271632 
L 469.842442 -518.796707 
L 471.871169 -514.321782 
L 473.900084 -509.846857 
L 475.917684 -505.371932 
L 477.912768 -500.897007 
L 479.874712 -496.422082 
L 481.793738 -491.947157 
L 483.661183 -487.472232 
L 485.46974 -482.997307 
L 487.213689 -478.522382 
L 488.889083 -474.047457 
L 490.493894 -469.572532 
L 492.028116 -465.097607 
L 493.493805 -460.622682 
L 494.895066 -456.147757 
L 496.237971 -451.672831 
L 497.530418 -447.197906 
L 498.781924 -442.722981 
L 500.003358 -438.248056 
L 501.206619 -433.773131 
L 502.404265 -429.298206 
L 503.609103 -424.823281 
L 504.833753 -420.348356 
L 506.090192 -415.873431 
L 507.389294 -411.398506 
L 508.740385 -406.923581 
L 510.15082 -402.448656 
L 511.625596 -397.973731 
L 513.16702 -393.498806 
L 514.774439 -389.023881 
L 516.444042 -384.548955 
L 518.16875 -380.07403 
L 519.938182 -375.599105 
L 521.738728 -371.12418 
L 523.553703 -366.649255 
L 525.363593 -362.17433 
L 527.146392 -357.699405 
L 528.87801 -353.22448 
L 530.532755 -348.749555 
L 532.083863 -344.27463 
L 533.50408 -339.799705 
L 534.766259 -335.32478 
L 535.843973 -330.849855 
L 536.712122 -326.37493 
L 537.347516 -321.900005 
L 537.72941 -317.425079 
L 537.84 -312.950154 
L 537.664842 -308.475229 
L 537.193195 -304.000304 
L 536.418279 -299.525379 
L 535.337439 -295.050454 
L 533.952217 -290.575529 
L 532.268325 -286.100604 
L 530.295527 -281.625679 
L 528.047427 -277.150754 
L 525.541189 -272.675829 
L 522.797171 -268.200904 
L 519.838509 -263.725979 
L 516.69065 -259.251054 
L 513.380853 -254.776129 
L 509.937667 -250.301203 
L 506.390404 -245.826278 
L 502.768621 -241.351353 
L 499.101618 -236.876428 
L 495.417969 -232.401503 
L 491.745091 -227.926578 
L 488.108863 -223.451653 
L 484.533299 -218.976728 
L 481.040279 -214.501803 
L 477.649341 -210.026878 
L 474.377536 -205.551953 
L 471.23934 -201.077028 
L 468.246628 -196.602103 
L 465.408696 -192.127178 
L 462.732338 -187.652253 
L 460.221956 -183.177328 
L 457.879715 -178.702402 
L 455.705723 -174.227477 
L 453.698228 -169.752552 
L 451.853838 -165.277627 
L 450.167744 -160.802702 
L 448.633945 -156.327777 
L 447.245475 -151.852852 
z
" style="stroke: #595959; stroke-width: 1.5"/>
                </defs>
                <g clip-path="url(#pbcefae7d1c)">
                    <use xlink:href="#m04dd1c822e" x="0" y="720"
                         style="fill: #72b6a1; stroke: #595959; stroke-width: 1.5"/>
                </g>
            </g>
            <g id="PolyCollection_2">
                <defs>
                    <path id="mc6c54da7ad" d="M 778.567981 -175.734565
L 765.832019 -175.734565 
L 765.070172 -176.7149 
L 764.24215 -177.695235 
L 763.345671 -178.675571 
L 762.378832 -179.655906 
L 761.340178 -180.636242 
L 760.228752 -181.616577 
L 759.044152 -182.596913 
L 757.786583 -183.577248 
L 756.456902 -184.557583 
L 755.056648 -185.537919 
L 753.588076 -186.518254 
L 752.05417 -187.49859 
L 750.458649 -188.478925 
L 748.805961 -189.459261 
L 747.101262 -190.439596 
L 745.350381 -191.419931 
L 743.559776 -192.400267 
L 741.736474 -193.380602 
L 739.887994 -194.360938 
L 738.022266 -195.341273 
L 736.147539 -196.321609 
L 734.272274 -197.301944 
L 732.405039 -198.282279 
L 730.554396 -199.262615 
L 728.728785 -200.24295 
L 726.936418 -201.223286 
L 725.185163 -202.203621 
L 723.482449 -203.183956 
L 721.835175 -204.164292 
L 720.249624 -205.144627 
L 718.731406 -206.124963 
L 717.285403 -207.105298 
L 715.91574 -208.085634 
L 714.625771 -209.065969 
L 713.418083 -210.046304 
L 712.29452 -211.02664 
L 711.256223 -212.006975 
L 710.30369 -212.987311 
L 709.436845 -213.967646 
L 708.655123 -214.947982 
L 707.957562 -215.928317 
L 707.342905 -216.908652 
L 706.809702 -217.888988 
L 706.356409 -218.869323 
L 705.981492 -219.849659 
L 705.683517 -220.829994 
L 705.461229 -221.810329 
L 705.313623 -222.790665 
L 705.24 -223.771 
L 705.24 -224.751336 
L 705.313623 -225.731671 
L 705.461229 -226.712007 
L 705.683517 -227.692342 
L 705.981492 -228.672677 
L 706.356409 -229.653013 
L 706.809702 -230.633348 
L 707.342905 -231.613684 
L 707.957562 -232.594019 
L 708.655123 -233.574355 
L 709.436845 -234.55469 
L 710.30369 -235.535025 
L 711.256223 -236.515361 
L 712.29452 -237.495696 
L 713.418083 -238.476032 
L 714.625771 -239.456367 
L 715.91574 -240.436702 
L 717.285403 -241.417038 
L 718.731406 -242.397373 
L 720.249624 -243.377709 
L 721.835175 -244.358044 
L 723.482449 -245.33838 
L 725.185163 -246.318715 
L 726.936418 -247.29905 
L 728.728785 -248.279386 
L 730.554396 -249.259721 
L 732.405039 -250.240057 
L 734.272274 -251.220392 
L 736.147539 -252.200728 
L 738.022266 -253.181063 
L 739.887994 -254.161398 
L 741.736474 -255.141734 
L 743.559776 -256.122069 
L 745.350381 -257.102405 
L 747.101262 -258.08274 
L 748.805961 -259.063076 
L 750.458649 -260.043411 
L 752.05417 -261.023746 
L 753.588076 -262.004082 
L 755.056648 -262.984417 
L 756.456902 -263.964753 
L 757.786583 -264.945088 
L 759.044152 -265.925423 
L 760.228752 -266.905759 
L 761.340178 -267.886094 
L 762.378832 -268.86643 
L 763.345671 -269.846765 
L 764.24215 -270.827101 
L 765.070172 -271.807436 
L 765.832019 -272.787771 
L 778.567981 -272.787771 
L 778.567981 -272.787771 
L 779.329828 -271.807436 
L 780.15785 -270.827101 
L 781.054329 -269.846765 
L 782.021168 -268.86643 
L 783.059822 -267.886094 
L 784.171248 -266.905759 
L 785.355848 -265.925423 
L 786.613417 -264.945088 
L 787.943098 -263.964753 
L 789.343352 -262.984417 
L 790.811924 -262.004082 
L 792.34583 -261.023746 
L 793.941351 -260.043411 
L 795.594039 -259.063076 
L 797.298738 -258.08274 
L 799.049619 -257.102405 
L 800.840224 -256.122069 
L 802.663526 -255.141734 
L 804.512006 -254.161398 
L 806.377734 -253.181063 
L 808.252461 -252.200728 
L 810.127726 -251.220392 
L 811.994961 -250.240057 
L 813.845604 -249.259721 
L 815.671215 -248.279386 
L 817.463582 -247.29905 
L 819.214837 -246.318715 
L 820.917551 -245.33838 
L 822.564825 -244.358044 
L 824.150376 -243.377709 
L 825.668594 -242.397373 
L 827.114597 -241.417038 
L 828.48426 -240.436702 
L 829.774229 -239.456367 
L 830.981917 -238.476032 
L 832.10548 -237.495696 
L 833.143777 -236.515361 
L 834.09631 -235.535025 
L 834.963155 -234.55469 
L 835.744877 -233.574355 
L 836.442438 -232.594019 
L 837.057095 -231.613684 
L 837.590298 -230.633348 
L 838.043591 -229.653013 
L 838.418508 -228.672677 
L 838.716483 -227.692342 
L 838.938771 -226.712007 
L 839.086377 -225.731671 
L 839.16 -224.751336 
L 839.16 -223.771 
L 839.086377 -222.790665 
L 838.938771 -221.810329 
L 838.716483 -220.829994 
L 838.418508 -219.849659 
L 838.043591 -218.869323 
L 837.590298 -217.888988 
L 837.057095 -216.908652 
L 836.442438 -215.928317 
L 835.744877 -214.947982 
L 834.963155 -213.967646 
L 834.09631 -212.987311 
L 833.143777 -212.006975 
L 832.10548 -211.02664 
L 830.981917 -210.046304 
L 829.774229 -209.065969 
L 828.48426 -208.085634 
L 827.114597 -207.105298 
L 825.668594 -206.124963 
L 824.150376 -205.144627 
L 822.564825 -204.164292 
L 820.917551 -203.183956 
L 819.214837 -202.203621 
L 817.463582 -201.223286 
L 815.671215 -200.24295 
L 813.845604 -199.262615 
L 811.994961 -198.282279 
L 810.127726 -197.301944 
L 808.252461 -196.321609 
L 806.377734 -195.341273 
L 804.512006 -194.360938 
L 802.663526 -193.380602 
L 800.840224 -192.400267 
L 799.049619 -191.419931 
L 797.298738 -190.439596 
L 795.594039 -189.459261 
L 793.941351 -188.478925 
L 792.34583 -187.49859 
L 790.811924 -186.518254 
L 789.343352 -185.537919 
L 787.943098 -184.557583 
L 786.613417 -183.577248 
L 785.355848 -182.596913 
L 784.171248 -181.616577 
L 783.059822 -180.636242 
L 782.021168 -179.655906 
L 781.054329 -178.675571 
L 780.15785 -177.695235 
L 779.329828 -176.7149 
L 778.567981 -175.734565 
z
" style="stroke: #595959; stroke-width: 1.5"/>
                </defs>
                <g clip-path="url(#pbcefae7d1c)">
                    <use xlink:href="#mc6c54da7ad" x="0" y="720"
                         style="fill: #e99675; stroke: #595959; stroke-width: 1.5"/>
                </g>
            </g>
            <g id="PolyCollection_3">
                <defs>
                    <path id="mf672447541" d="M 1113.367981 -224.935063
L 1100.632019 -224.935063 
L 1099.870172 -225.389321 
L 1099.04215 -225.84358 
L 1098.145671 -226.297839 
L 1097.178832 -226.752098 
L 1096.140178 -227.206357 
L 1095.028752 -227.660615 
L 1093.844152 -228.114874 
L 1092.586583 -228.569133 
L 1091.256902 -229.023392 
L 1089.856648 -229.477651 
L 1088.388076 -229.931909 
L 1086.85417 -230.386168 
L 1085.258649 -230.840427 
L 1083.605961 -231.294686 
L 1081.901262 -231.748945 
L 1080.150381 -232.203203 
L 1078.359776 -232.657462 
L 1076.536474 -233.111721 
L 1074.687994 -233.56598 
L 1072.822266 -234.020238 
L 1070.947539 -234.474497 
L 1069.072274 -234.928756 
L 1067.205039 -235.383015 
L 1065.354396 -235.837274 
L 1063.528785 -236.291532 
L 1061.736418 -236.745791 
L 1059.985163 -237.20005 
L 1058.282449 -237.654309 
L 1056.635175 -238.108568 
L 1055.049624 -238.562826 
L 1053.531406 -239.017085 
L 1052.085403 -239.471344 
L 1050.71574 -239.925603 
L 1049.425771 -240.379862 
L 1048.218083 -240.83412 
L 1047.09452 -241.288379 
L 1046.056223 -241.742638 
L 1045.10369 -242.196897 
L 1044.236845 -242.651156 
L 1043.455123 -243.105414 
L 1042.757562 -243.559673 
L 1042.142905 -244.013932 
L 1041.609702 -244.468191 
L 1041.156409 -244.92245 
L 1040.781492 -245.376708 
L 1040.483517 -245.830967 
L 1040.261229 -246.285226 
L 1040.113623 -246.739485 
L 1040.04 -247.193744 
L 1040.04 -247.648002 
L 1040.113623 -248.102261 
L 1040.261229 -248.55652 
L 1040.483517 -249.010779 
L 1040.781492 -249.465038 
L 1041.156409 -249.919296 
L 1041.609702 -250.373555 
L 1042.142905 -250.827814 
L 1042.757562 -251.282073 
L 1043.455123 -251.736332 
L 1044.236845 -252.19059 
L 1045.10369 -252.644849 
L 1046.056223 -253.099108 
L 1047.09452 -253.553367 
L 1048.218083 -254.007626 
L 1049.425771 -254.461884 
L 1050.71574 -254.916143 
L 1052.085403 -255.370402 
L 1053.531406 -255.824661 
L 1055.049624 -256.27892 
L 1056.635175 -256.733178 
L 1058.282449 -257.187437 
L 1059.985163 -257.641696 
L 1061.736418 -258.095955 
L 1063.528785 -258.550213 
L 1065.354396 -259.004472 
L 1067.205039 -259.458731 
L 1069.072274 -259.91299 
L 1070.947539 -260.367249 
L 1072.822266 -260.821507 
L 1074.687994 -261.275766 
L 1076.536474 -261.730025 
L 1078.359776 -262.184284 
L 1080.150381 -262.638543 
L 1081.901262 -263.092801 
L 1083.605961 -263.54706 
L 1085.258649 -264.001319 
L 1086.85417 -264.455578 
L 1088.388076 -264.909837 
L 1089.856648 -265.364095 
L 1091.256902 -265.818354 
L 1092.586583 -266.272613 
L 1093.844152 -266.726872 
L 1095.028752 -267.181131 
L 1096.140178 -267.635389 
L 1097.178832 -268.089648 
L 1098.145671 -268.543907 
L 1099.04215 -268.998166 
L 1099.870172 -269.452425 
L 1100.632019 -269.906683 
L 1113.367981 -269.906683 
L 1113.367981 -269.906683 
L 1114.129828 -269.452425 
L 1114.95785 -268.998166 
L 1115.854329 -268.543907 
L 1116.821168 -268.089648 
L 1117.859822 -267.635389 
L 1118.971248 -267.181131 
L 1120.155848 -266.726872 
L 1121.413417 -266.272613 
L 1122.743098 -265.818354 
L 1124.143352 -265.364095 
L 1125.611924 -264.909837 
L 1127.14583 -264.455578 
L 1128.741351 -264.001319 
L 1130.394039 -263.54706 
L 1132.098738 -263.092801 
L 1133.849619 -262.638543 
L 1135.640224 -262.184284 
L 1137.463526 -261.730025 
L 1139.312006 -261.275766 
L 1141.177734 -260.821507 
L 1143.052461 -260.367249 
L 1144.927726 -259.91299 
L 1146.794961 -259.458731 
L 1148.645604 -259.004472 
L 1150.471215 -258.550213 
L 1152.263582 -258.095955 
L 1154.014837 -257.641696 
L 1155.717551 -257.187437 
L 1157.364825 -256.733178 
L 1158.950376 -256.27892 
L 1160.468594 -255.824661 
L 1161.914597 -255.370402 
L 1163.28426 -254.916143 
L 1164.574229 -254.461884 
L 1165.781917 -254.007626 
L 1166.90548 -253.553367 
L 1167.943777 -253.099108 
L 1168.89631 -252.644849 
L 1169.763155 -252.19059 
L 1170.544877 -251.736332 
L 1171.242438 -251.282073 
L 1171.857095 -250.827814 
L 1172.390298 -250.373555 
L 1172.843591 -249.919296 
L 1173.218508 -249.465038 
L 1173.516483 -249.010779 
L 1173.738771 -248.55652 
L 1173.886377 -248.102261 
L 1173.96 -247.648002 
L 1173.96 -247.193744 
L 1173.886377 -246.739485 
L 1173.738771 -246.285226 
L 1173.516483 -245.830967 
L 1173.218508 -245.376708 
L 1172.843591 -244.92245 
L 1172.390298 -244.468191 
L 1171.857095 -244.013932 
L 1171.242438 -243.559673 
L 1170.544877 -243.105414 
L 1169.763155 -242.651156 
L 1168.89631 -242.196897 
L 1167.943777 -241.742638 
L 1166.90548 -241.288379 
L 1165.781917 -240.83412 
L 1164.574229 -240.379862 
L 1163.28426 -239.925603 
L 1161.914597 -239.471344 
L 1160.468594 -239.017085 
L 1158.950376 -238.562826 
L 1157.364825 -238.108568 
L 1155.717551 -237.654309 
L 1154.014837 -237.20005 
L 1152.263582 -236.745791 
L 1150.471215 -236.291532 
L 1148.645604 -235.837274 
L 1146.794961 -235.383015 
L 1144.927726 -234.928756 
L 1143.052461 -234.474497 
L 1141.177734 -234.020238 
L 1139.312006 -233.56598 
L 1137.463526 -233.111721 
L 1135.640224 -232.657462 
L 1133.849619 -232.203203 
L 1132.098738 -231.748945 
L 1130.394039 -231.294686 
L 1128.741351 -230.840427 
L 1127.14583 -230.386168 
L 1125.611924 -229.931909 
L 1124.143352 -229.477651 
L 1122.743098 -229.023392 
L 1121.413417 -228.569133 
L 1120.155848 -228.114874 
L 1118.971248 -227.660615 
L 1117.859822 -227.206357 
L 1116.821168 -226.752098 
L 1115.854329 -226.297839 
L 1114.95785 -225.84358 
L 1114.129828 -225.389321 
L 1113.367981 -224.935063 
z
" style="stroke: #595959; stroke-width: 1.5"/>
                </defs>
                <g clip-path="url(#pbcefae7d1c)">
                    <use xlink:href="#mf672447541" x="0" y="720"
                         style="fill: #95a3c3; stroke: #595959; stroke-width: 1.5"/>
                </g>
            </g>
            <g id="PolyCollection_4">
                <defs>
                    <path id="m2429afe2d1" d="M 1452.913107 -104.4
L 1430.686893 -104.4 
L 1428.993547 -109.490909 
L 1427.106685 -114.581818 
L 1425.015405 -119.672727 
L 1422.710043 -124.763636 
L 1420.182522 -129.854545 
L 1417.426695 -134.945455 
L 1414.438702 -140.036364 
L 1411.217304 -145.127273 
L 1407.764202 -150.218182 
L 1404.084319 -155.309091 
L 1400.186034 -160.4 
L 1396.081362 -165.490909 
L 1391.786064 -170.581818 
L 1387.319669 -175.672727 
L 1382.705415 -180.763636 
L 1377.970091 -185.854545 
L 1373.143776 -190.945455 
L 1368.259481 -196.036364 
L 1363.352681 -201.127273 
L 1358.460766 -206.218182 
L 1353.622392 -211.309091 
L 1348.876767 -216.4 
L 1344.262878 -221.490909 
L 1339.818673 -226.581818 
L 1335.580238 -231.672727 
L 1331.580966 -236.763636 
L 1327.850771 -241.854545 
L 1324.415346 -246.945455 
L 1321.295513 -252.036364 
L 1318.506673 -257.127273 
L 1316.058379 -262.218182 
L 1313.954064 -267.309091 
L 1312.190914 -272.4 
L 1310.759921 -277.490909 
L 1309.646097 -282.581818 
L 1308.828872 -287.672727 
L 1308.282645 -292.763636 
L 1307.977491 -297.854545 
L 1307.88 -302.945455 
L 1307.954233 -308.036364 
L 1308.162754 -313.127273 
L 1308.467719 -318.218182 
L 1308.831987 -323.309091 
L 1309.220215 -328.4 
L 1309.599911 -333.490909 
L 1309.9424 -338.581818 
L 1310.223683 -343.672727 
L 1310.425159 -348.763636 
L 1310.534183 -353.854545 
L 1310.544442 -358.945455 
L 1310.456146 -364.036364 
L 1310.276015 -369.127273 
L 1310.017074 -374.218182 
L 1309.698251 -379.309091 
L 1309.343804 -384.4 
L 1308.982588 -389.490909 
L 1308.647183 -394.581818 
L 1308.372918 -399.672727 
L 1308.196823 -404.763636 
L 1308.156528 -409.854545 
L 1308.289164 -414.945455 
L 1308.63028 -420.036364 
L 1309.212822 -425.127273 
L 1310.066198 -430.218182 
L 1311.215452 -435.309091 
L 1312.68058 -440.4 
L 1314.475993 -445.490909 
L 1316.610143 -450.581818 
L 1319.085323 -455.672727 
L 1321.897637 -460.763636 
L 1325.03713 -465.854545 
L 1328.488082 -470.945455 
L 1332.229437 -476.036364 
L 1336.235359 -481.127273 
L 1340.475886 -486.218182 
L 1344.917668 -491.309091 
L 1349.524751 -496.4 
L 1354.259397 -501.490909 
L 1359.082904 -506.581818 
L 1363.956409 -511.672727 
L 1368.841649 -516.763636 
L 1373.701667 -521.854545 
L 1378.501441 -526.945455 
L 1383.208426 -532.036364 
L 1387.79301 -537.127273 
L 1392.228858 -542.218182 
L 1396.493164 -547.309091 
L 1400.566803 -552.4 
L 1404.434384 -557.490909 
L 1408.084219 -562.581818 
L 1411.508213 -567.672727 
L 1414.701681 -572.763636 
L 1417.663117 -577.854545 
L 1420.393907 -582.945455 
L 1422.898019 -588.036364 
L 1425.181663 -593.127273 
L 1427.252948 -598.218182 
L 1429.121535 -603.309091 
L 1430.798299 -608.4 
L 1452.801701 -608.4 
L 1452.801701 -608.4 
L 1454.478465 -603.309091 
L 1456.347052 -598.218182 
L 1458.418337 -593.127273 
L 1460.701981 -588.036364 
L 1463.206093 -582.945455 
L 1465.936883 -577.854545 
L 1468.898319 -572.763636 
L 1472.091787 -567.672727 
L 1475.515781 -562.581818 
L 1479.165616 -557.490909 
L 1483.033197 -552.4 
L 1487.106836 -547.309091 
L 1491.371142 -542.218182 
L 1495.80699 -537.127273 
L 1500.391574 -532.036364 
L 1505.098559 -526.945455 
L 1509.898333 -521.854545 
L 1514.758351 -516.763636 
L 1519.643591 -511.672727 
L 1524.517096 -506.581818 
L 1529.340603 -501.490909 
L 1534.075249 -496.4 
L 1538.682332 -491.309091 
L 1543.124114 -486.218182 
L 1547.364641 -481.127273 
L 1551.370563 -476.036364 
L 1555.111918 -470.945455 
L 1558.56287 -465.854545 
L 1561.702363 -460.763636 
L 1564.514677 -455.672727 
L 1566.989857 -450.581818 
L 1569.124007 -445.490909 
L 1570.91942 -440.4 
L 1572.384548 -435.309091 
L 1573.533802 -430.218182 
L 1574.387178 -425.127273 
L 1574.96972 -420.036364 
L 1575.310836 -414.945455 
L 1575.443472 -409.854545 
L 1575.403177 -404.763636 
L 1575.227082 -399.672727 
L 1574.952817 -394.581818 
L 1574.617412 -389.490909 
L 1574.256196 -384.4 
L 1573.901749 -379.309091 
L 1573.582926 -374.218182 
L 1573.323985 -369.127273 
L 1573.143854 -364.036364 
L 1573.055558 -358.945455 
L 1573.065817 -353.854545 
L 1573.174841 -348.763636 
L 1573.376317 -343.672727 
L 1573.6576 -338.581818 
L 1574.000089 -333.490909 
L 1574.379785 -328.4 
L 1574.768013 -323.309091 
L 1575.132281 -318.218182 
L 1575.437246 -313.127273 
L 1575.645767 -308.036364 
L 1575.72 -302.945455 
L 1575.622509 -297.854545 
L 1575.317355 -292.763636 
L 1574.771128 -287.672727 
L 1573.953903 -282.581818 
L 1572.840079 -277.490909 
L 1571.409086 -272.4 
L 1569.645936 -267.309091 
L 1567.541621 -262.218182 
L 1565.093327 -257.127273 
L 1562.304487 -252.036364 
L 1559.184654 -246.945455 
L 1555.749229 -241.854545 
L 1552.019034 -236.763636 
L 1548.019762 -231.672727 
L 1543.781327 -226.581818 
L 1539.337122 -221.490909 
L 1534.723233 -216.4 
L 1529.977608 -211.309091 
L 1525.139234 -206.218182 
L 1520.247319 -201.127273 
L 1515.340519 -196.036364 
L 1510.456224 -190.945455 
L 1505.629909 -185.854545 
L 1500.894585 -180.763636 
L 1496.280331 -175.672727 
L 1491.813936 -170.581818 
L 1487.518638 -165.490909 
L 1483.413966 -160.4 
L 1479.515681 -155.309091 
L 1475.835798 -150.218182 
L 1472.382696 -145.127273 
L 1469.161298 -140.036364 
L 1466.173305 -134.945455 
L 1463.417478 -129.854545 
L 1460.889957 -124.763636 
L 1458.584595 -119.672727 
L 1456.493315 -114.581818 
L 1454.606453 -109.490909 
L 1452.913107 -104.4 
z
" style="stroke: #595959; stroke-width: 1.5"/>
                </defs>
                <g clip-path="url(#pbcefae7d1c)">
                    <use xlink:href="#m2429afe2d1" x="0" y="720"
                         style="fill: #db96c0; stroke: #595959; stroke-width: 1.5"/>
                </g>
            </g>
            <g id="matplotlib.axis_1">
                <g id="xtick_1">
                    <g id="line2d_1">
                        <defs>
                            <path id="m9991479509" d="M 0 0
L 0 3.5 
" style="stroke: #000000; stroke-width: 0.8"/>
                        </defs>
                        <g>
                            <use xlink:href="#m9991479509" x="437.4" y="640.8"
                                 style="stroke: #000000; stroke-width: 0.8"/>
                        </g>
                    </g>
                    <g id="text_1">
                        <!-- 1 -->
                        <g transform="translate(431.0375 662.996875)scale(0.2 -0.2)">
                            <defs>
                                <path id="DejaVuSans-31" d="M 794 531
L 1825 531 
L 1825 4091 
L 703 3866 
L 703 4441 
L 1819 4666 
L 2450 4666 
L 2450 531 
L 3481 531 
L 3481 0 
L 794 0 
L 794 531 
z
" transform="scale(0.015625)"/>
                            </defs>
                            <use xlink:href="#DejaVuSans-31"/>
                        </g>
                    </g>
                </g>
                <g id="xtick_2">
                    <g id="line2d_2">
                        <g>
                            <use xlink:href="#m9991479509" x="772.2" y="640.8"
                                 style="stroke: #000000; stroke-width: 0.8"/>
                        </g>
                    </g>
                    <g id="text_2">
                        <!-- 2 -->
                        <g transform="translate(765.8375 662.996875)scale(0.2 -0.2)">
                            <defs>
                                <path id="DejaVuSans-32" d="M 1228 531
L 3431 531 
L 3431 0 
L 469 0 
L 469 531 
Q 828 903 1448 1529 
Q 2069 2156 2228 2338 
Q 2531 2678 2651 2914 
Q 2772 3150 2772 3378 
Q 2772 3750 2511 3984 
Q 2250 4219 1831 4219 
Q 1534 4219 1204 4116 
Q 875 4013 500 3803 
L 500 4441 
Q 881 4594 1212 4672 
Q 1544 4750 1819 4750 
Q 2544 4750 2975 4387 
Q 3406 4025 3406 3419 
Q 3406 3131 3298 2873 
Q 3191 2616 2906 2266 
Q 2828 2175 2409 1742 
Q 1991 1309 1228 531 
z
" transform="scale(0.015625)"/>
                            </defs>
                            <use xlink:href="#DejaVuSans-32"/>
                        </g>
                    </g>
                </g>
                <g id="xtick_3">
                    <g id="line2d_3">
                        <g>
                            <use xlink:href="#m9991479509" x="1107" y="640.8"
                                 style="stroke: #000000; stroke-width: 0.8"/>
                        </g>
                    </g>
                    <g id="text_3">
                        <!-- 3 -->
                        <g transform="translate(1100.6375 662.996875)scale(0.2 -0.2)">
                            <defs>
                                <path id="DejaVuSans-33" d="M 2597 2516
Q 3050 2419 3304 2112 
Q 3559 1806 3559 1356 
Q 3559 666 3084 287 
Q 2609 -91 1734 -91 
Q 1441 -91 1130 -33 
Q 819 25 488 141 
L 488 750 
Q 750 597 1062 519 
Q 1375 441 1716 441 
Q 2309 441 2620 675 
Q 2931 909 2931 1356 
Q 2931 1769 2642 2001 
Q 2353 2234 1838 2234 
L 1294 2234 
L 1294 2753 
L 1863 2753 
Q 2328 2753 2575 2939 
Q 2822 3125 2822 3475 
Q 2822 3834 2567 4026 
Q 2313 4219 1838 4219 
Q 1578 4219 1281 4162 
Q 984 4106 628 3988 
L 628 4550 
Q 988 4650 1302 4700 
Q 1616 4750 1894 4750 
Q 2613 4750 3031 4423 
Q 3450 4097 3450 3541 
Q 3450 3153 3228 2886 
Q 3006 2619 2597 2516 
z
" transform="scale(0.015625)"/>
                            </defs>
                            <use xlink:href="#DejaVuSans-33"/>
                        </g>
                    </g>
                </g>
                <g id="xtick_4">
                    <g id="line2d_4">
                        <g>
                            <use xlink:href="#m9991479509" x="1441.8" y="640.8"
                                 style="stroke: #000000; stroke-width: 0.8"/>
                        </g>
                    </g>
                    <g id="text_4">
                        <!-- 4 -->
                        <g transform="translate(1435.4375 662.996875)scale(0.2 -0.2)">
                            <defs>
                                <path id="DejaVuSans-34" d="M 2419 4116
L 825 1625 
L 2419 1625 
L 2419 4116 
z
M 2253 4666 
L 3047 4666 
L 3047 1625 
L 3713 1625 
L 3713 1100 
L 3047 1100 
L 3047 0 
L 2419 0 
L 2419 1100 
L 313 1100 
L 313 1709 
L 2253 4666 
z
" transform="scale(0.015625)"/>
                            </defs>
                            <use xlink:href="#DejaVuSans-34"/>
                        </g>
                    </g>
                </g>
                <g id="xtick_5">
                    <g id="line2d_5">
                        <g>
                            <use xlink:href="#m9991479509" x="1776.6" y="640.8"
                                 style="stroke: #000000; stroke-width: 0.8"/>
                        </g>
                    </g>
                    <g id="text_5">
                        <!-- 5 -->
                        <g transform="translate(1770.2375 662.996875)scale(0.2 -0.2)">
                            <defs>
                                <path id="DejaVuSans-35" d="M 691 4666
L 3169 4666 
L 3169 4134 
L 1269 4134 
L 1269 2991 
Q 1406 3038 1543 3061 
Q 1681 3084 1819 3084 
Q 2600 3084 3056 2656 
Q 3513 2228 3513 1497 
Q 3513 744 3044 326 
Q 2575 -91 1722 -91 
Q 1428 -91 1123 -41 
Q 819 9 494 109 
L 494 744 
Q 775 591 1075 516 
Q 1375 441 1709 441 
Q 2250 441 2565 725 
Q 2881 1009 2881 1497 
Q 2881 1984 2565 2268 
Q 2250 2553 1709 2553 
Q 1456 2553 1204 2497 
Q 953 2441 691 2322 
L 691 4666 
z
" transform="scale(0.015625)"/>
                            </defs>
                            <use xlink:href="#DejaVuSans-35"/>
                        </g>
                    </g>
                </g>
                <g id="text_6">
                    <!-- cluster -->
                    <g transform="translate(1072.992188 686.353125)scale(0.2 -0.2)">
                        <defs>
                            <path id="DejaVuSans-63" d="M 3122 3366
L 3122 2828 
Q 2878 2963 2633 3030 
Q 2388 3097 2138 3097 
Q 1578 3097 1268 2742 
Q 959 2388 959 1747 
Q 959 1106 1268 751 
Q 1578 397 2138 397 
Q 2388 397 2633 464 
Q 2878 531 3122 666 
L 3122 134 
Q 2881 22 2623 -34 
Q 2366 -91 2075 -91 
Q 1284 -91 818 406 
Q 353 903 353 1747 
Q 353 2603 823 3093 
Q 1294 3584 2113 3584 
Q 2378 3584 2631 3529 
Q 2884 3475 3122 3366 
z
" transform="scale(0.015625)"/>
                            <path id="DejaVuSans-6c" d="M 603 4863
L 1178 4863 
L 1178 0 
L 603 0 
L 603 4863 
z
" transform="scale(0.015625)"/>
                            <path id="DejaVuSans-75" d="M 544 1381
L 544 3500 
L 1119 3500 
L 1119 1403 
Q 1119 906 1312 657 
Q 1506 409 1894 409 
Q 2359 409 2629 706 
Q 2900 1003 2900 1516 
L 2900 3500 
L 3475 3500 
L 3475 0 
L 2900 0 
L 2900 538 
Q 2691 219 2414 64 
Q 2138 -91 1772 -91 
Q 1169 -91 856 284 
Q 544 659 544 1381 
z
M 1991 3584 
L 1991 3584 
z
" transform="scale(0.015625)"/>
                            <path id="DejaVuSans-73" d="M 2834 3397
L 2834 2853 
Q 2591 2978 2328 3040 
Q 2066 3103 1784 3103 
Q 1356 3103 1142 2972 
Q 928 2841 928 2578 
Q 928 2378 1081 2264 
Q 1234 2150 1697 2047 
L 1894 2003 
Q 2506 1872 2764 1633 
Q 3022 1394 3022 966 
Q 3022 478 2636 193 
Q 2250 -91 1575 -91 
Q 1294 -91 989 -36 
Q 684 19 347 128 
L 347 722 
Q 666 556 975 473 
Q 1284 391 1588 391 
Q 1994 391 2212 530 
Q 2431 669 2431 922 
Q 2431 1156 2273 1281 
Q 2116 1406 1581 1522 
L 1381 1569 
Q 847 1681 609 1914 
Q 372 2147 372 2553 
Q 372 3047 722 3315 
Q 1072 3584 1716 3584 
Q 2034 3584 2315 3537 
Q 2597 3491 2834 3397 
z
" transform="scale(0.015625)"/>
                            <path id="DejaVuSans-74" d="M 1172 4494
L 1172 3500 
L 2356 3500 
L 2356 3053 
L 1172 3053 
L 1172 1153 
Q 1172 725 1289 603 
Q 1406 481 1766 481 
L 2356 481 
L 2356 0 
L 1766 0 
Q 1100 0 847 248 
Q 594 497 594 1153 
L 594 3053 
L 172 3053 
L 172 3500 
L 594 3500 
L 594 4494 
L 1172 4494 
z
" transform="scale(0.015625)"/>
                            <path id="DejaVuSans-65" d="M 3597 1894
L 3597 1613 
L 953 1613 
Q 991 1019 1311 708 
Q 1631 397 2203 397 
Q 2534 397 2845 478 
Q 3156 559 3463 722 
L 3463 178 
Q 3153 47 2828 -22 
Q 2503 -91 2169 -91 
Q 1331 -91 842 396 
Q 353 884 353 1716 
Q 353 2575 817 3079 
Q 1281 3584 2069 3584 
Q 2775 3584 3186 3129 
Q 3597 2675 3597 1894 
z
M 3022 2063 
Q 3016 2534 2758 2815 
Q 2500 3097 2075 3097 
Q 1594 3097 1305 2825 
Q 1016 2553 972 2059 
L 3022 2063 
z
" transform="scale(0.015625)"/>
                            <path id="DejaVuSans-72" d="M 2631 2963
Q 2534 3019 2420 3045 
Q 2306 3072 2169 3072 
Q 1681 3072 1420 2755 
Q 1159 2438 1159 1844 
L 1159 0 
L 581 0 
L 581 3500 
L 1159 3500 
L 1159 2956 
Q 1341 3275 1631 3429 
Q 1922 3584 2338 3584 
Q 2397 3584 2469 3576 
Q 2541 3569 2628 3553 
L 2631 2963 
z
" transform="scale(0.015625)"/>
                        </defs>
                        <use xlink:href="#DejaVuSans-63"/>
                        <use xlink:href="#DejaVuSans-6c" x="54.980469"/>
                        <use xlink:href="#DejaVuSans-75" x="82.763672"/>
                        <use xlink:href="#DejaVuSans-73" x="146.142578"/>
                        <use xlink:href="#DejaVuSans-74" x="198.242188"/>
                        <use xlink:href="#DejaVuSans-65" x="237.451172"/>
                        <use xlink:href="#DejaVuSans-72" x="298.974609"/>
                    </g>
                </g>
            </g>
            <g id="matplotlib.axis_2">
                <g id="ytick_1">
                    <g id="line2d_6">
                        <defs>
                            <path id="m855c3a631a" d="M 0 0
L -3.5 0 
" style="stroke: #000000; stroke-width: 0.8"/>
                        </defs>
                        <g>
                            <use xlink:href="#m855c3a631a" x="270" y="572.146968"
                                 style="stroke: #000000; stroke-width: 0.8"/>
                        </g>
                    </g>
                    <g id="text_7">
                        <!-- 4 -->
                        <g transform="translate(250.275 579.745406)scale(0.2 -0.2)">
                            <use xlink:href="#DejaVuSans-34"/>
                        </g>
                    </g>
                </g>
                <g id="ytick_2">
                    <g id="line2d_7">
                        <g>
                            <use xlink:href="#m855c3a631a" x="270" y="452.272119"
                                 style="stroke: #000000; stroke-width: 0.8"/>
                        </g>
                    </g>
                    <g id="text_8">
                        <!-- 6 -->
                        <g transform="translate(250.275 459.870557)scale(0.2 -0.2)">
                            <defs>
                                <path id="DejaVuSans-36" d="M 2113 2584
Q 1688 2584 1439 2293 
Q 1191 2003 1191 1497 
Q 1191 994 1439 701 
Q 1688 409 2113 409 
Q 2538 409 2786 701 
Q 3034 994 3034 1497 
Q 3034 2003 2786 2293 
Q 2538 2584 2113 2584 
z
M 3366 4563 
L 3366 3988 
Q 3128 4100 2886 4159 
Q 2644 4219 2406 4219 
Q 1781 4219 1451 3797 
Q 1122 3375 1075 2522 
Q 1259 2794 1537 2939 
Q 1816 3084 2150 3084 
Q 2853 3084 3261 2657 
Q 3669 2231 3669 1497 
Q 3669 778 3244 343 
Q 2819 -91 2113 -91 
Q 1303 -91 875 529 
Q 447 1150 447 2328 
Q 447 3434 972 4092 
Q 1497 4750 2381 4750 
Q 2619 4750 2861 4703 
Q 3103 4656 3366 4563 
z
" transform="scale(0.015625)"/>
                            </defs>
                            <use xlink:href="#DejaVuSans-36"/>
                        </g>
                    </g>
                </g>
                <g id="ytick_3">
                    <g id="line2d_8">
                        <g>
                            <use xlink:href="#m855c3a631a" x="270" y="332.39727"
                                 style="stroke: #000000; stroke-width: 0.8"/>
                        </g>
                    </g>
                    <g id="text_9">
                        <!-- 8 -->
                        <g transform="translate(250.275 339.995708)scale(0.2 -0.2)">
                            <defs>
                                <path id="DejaVuSans-38" d="M 2034 2216
Q 1584 2216 1326 1975 
Q 1069 1734 1069 1313 
Q 1069 891 1326 650 
Q 1584 409 2034 409 
Q 2484 409 2743 651 
Q 3003 894 3003 1313 
Q 3003 1734 2745 1975 
Q 2488 2216 2034 2216 
z
M 1403 2484 
Q 997 2584 770 2862 
Q 544 3141 544 3541 
Q 544 4100 942 4425 
Q 1341 4750 2034 4750 
Q 2731 4750 3128 4425 
Q 3525 4100 3525 3541 
Q 3525 3141 3298 2862 
Q 3072 2584 2669 2484 
Q 3125 2378 3379 2068 
Q 3634 1759 3634 1313 
Q 3634 634 3220 271 
Q 2806 -91 2034 -91 
Q 1263 -91 848 271 
Q 434 634 434 1313 
Q 434 1759 690 2068 
Q 947 2378 1403 2484 
z
M 1172 3481 
Q 1172 3119 1398 2916 
Q 1625 2713 2034 2713 
Q 2441 2713 2670 2916 
Q 2900 3119 2900 3481 
Q 2900 3844 2670 4047 
Q 2441 4250 2034 4250 
Q 1625 4250 1398 4047 
Q 1172 3844 1172 3481 
z
" transform="scale(0.015625)"/>
                            </defs>
                            <use xlink:href="#DejaVuSans-38"/>
                        </g>
                    </g>
                </g>
                <g id="ytick_4">
                    <g id="line2d_9">
                        <g>
                            <use xlink:href="#m855c3a631a" x="270" y="212.522421"
                                 style="stroke: #000000; stroke-width: 0.8"/>
                        </g>
                    </g>
                    <g id="text_10">
                        <!-- 10 -->
                        <g transform="translate(237.55 220.120859)scale(0.2 -0.2)">
                            <defs>
                                <path id="DejaVuSans-30" d="M 2034 4250
Q 1547 4250 1301 3770 
Q 1056 3291 1056 2328 
Q 1056 1369 1301 889 
Q 1547 409 2034 409 
Q 2525 409 2770 889 
Q 3016 1369 3016 2328 
Q 3016 3291 2770 3770 
Q 2525 4250 2034 4250 
z
M 2034 4750 
Q 2819 4750 3233 4129 
Q 3647 3509 3647 2328 
Q 3647 1150 3233 529 
Q 2819 -91 2034 -91 
Q 1250 -91 836 529 
Q 422 1150 422 2328 
Q 422 3509 836 4129 
Q 1250 4750 2034 4750 
z
" transform="scale(0.015625)"/>
                            </defs>
                            <use xlink:href="#DejaVuSans-31"/>
                            <use xlink:href="#DejaVuSans-30" x="63.623047"/>
                        </g>
                    </g>
                </g>
                <g id="ytick_5">
                    <g id="line2d_10">
                        <g>
                            <use xlink:href="#m855c3a631a" x="270" y="92.647572"
                                 style="stroke: #000000; stroke-width: 0.8"/>
                        </g>
                    </g>
                    <g id="text_11">
                        <!-- 12 -->
                        <g transform="translate(237.55 100.24601)scale(0.2 -0.2)">
                            <use xlink:href="#DejaVuSans-31"/>
                            <use xlink:href="#DejaVuSans-32" x="63.623047"/>
                        </g>
                    </g>
                </g>
                <g id="text_12">
                    <!-- log -->
                    <g transform="translate(229.390625 378.845312)rotate(-90)scale(0.2 -0.2)">
                        <defs>
                            <path id="DejaVuSans-6f" d="M 1959 3097
Q 1497 3097 1228 2736 
Q 959 2375 959 1747 
Q 959 1119 1226 758 
Q 1494 397 1959 397 
Q 2419 397 2687 759 
Q 2956 1122 2956 1747 
Q 2956 2369 2687 2733 
Q 2419 3097 1959 3097 
z
M 1959 3584 
Q 2709 3584 3137 3096 
Q 3566 2609 3566 1747 
Q 3566 888 3137 398 
Q 2709 -91 1959 -91 
Q 1206 -91 779 398 
Q 353 888 353 1747 
Q 353 2609 779 3096 
Q 1206 3584 1959 3584 
z
" transform="scale(0.015625)"/>
                            <path id="DejaVuSans-67" d="M 2906 1791
Q 2906 2416 2648 2759 
Q 2391 3103 1925 3103 
Q 1463 3103 1205 2759 
Q 947 2416 947 1791 
Q 947 1169 1205 825 
Q 1463 481 1925 481 
Q 2391 481 2648 825 
Q 2906 1169 2906 1791 
z
M 3481 434 
Q 3481 -459 3084 -895 
Q 2688 -1331 1869 -1331 
Q 1566 -1331 1297 -1286 
Q 1028 -1241 775 -1147 
L 775 -588 
Q 1028 -725 1275 -790 
Q 1522 -856 1778 -856 
Q 2344 -856 2625 -561 
Q 2906 -266 2906 331 
L 2906 616 
Q 2728 306 2450 153 
Q 2172 0 1784 0 
Q 1141 0 747 490 
Q 353 981 353 1791 
Q 353 2603 747 3093 
Q 1141 3584 1784 3584 
Q 2172 3584 2450 3431 
Q 2728 3278 2906 2969 
L 2906 3500 
L 3481 3500 
L 3481 434 
z
" transform="scale(0.015625)"/>
                        </defs>
                        <use xlink:href="#DejaVuSans-6c"/>
                        <use xlink:href="#DejaVuSans-6f" x="27.783203"/>
                        <use xlink:href="#DejaVuSans-67" x="88.964844"/>
                    </g>
                </g>
            </g>
            <g id="line2d_11">
                <path d="M 437.4 427.398644
L 437.4 265.87807 
" clip-path="url(#pbcefae7d1c)" style="fill: none; stroke: #595959; stroke-width: 1.5; stroke-linecap: square"/>
            </g>
            <g id="line2d_12">
                <path d="M 437.4 416.556773
L 437.4 335.796486 
" clip-path="url(#pbcefae7d1c)" style="fill: none; stroke: #595959; stroke-width: 4.5; stroke-linecap: square"/>
            </g>
            <g id="line2d_13">
                <path d="M 772.2 509.75459
L 772.2 481.723074 
" clip-path="url(#pbcefae7d1c)" style="fill: none; stroke: #595959; stroke-width: 1.5; stroke-linecap: square"/>
            </g>
            <g id="line2d_14">
                <path d="M 772.2 502.746711
L 772.2 488.730953 
" clip-path="url(#pbcefae7d1c)" style="fill: none; stroke: #595959; stroke-width: 4.5; stroke-linecap: square"/>
            </g>
            <g id="line2d_15">
                <path d="M 1107 479.07362
L 1107 466.084634 
" clip-path="url(#pbcefae7d1c)" style="fill: none; stroke: #595959; stroke-width: 1.5; stroke-linecap: square"/>
            </g>
            <g id="line2d_16">
                <path d="M 1107 475.826373
L 1107 469.331881 
" clip-path="url(#pbcefae7d1c)" style="fill: none; stroke: #595959; stroke-width: 4.5; stroke-linecap: square"/>
            </g>
            <g id="line2d_17">
                <path d="M 1441.8 465.464831
L 1441.8 261.735169 
" clip-path="url(#pbcefae7d1c)" style="fill: none; stroke: #595959; stroke-width: 1.5; stroke-linecap: square"/>
            </g>
            <g id="line2d_18">
                <path d="M 1441.8 438.924865
L 1441.8 289.169801 
" clip-path="url(#pbcefae7d1c)" style="fill: none; stroke: #595959; stroke-width: 4.5; stroke-linecap: square"/>
            </g>
            <g id="line2d_19">
                <path d="M 1743.12 402.006677
L 1810.08 402.006677 
" clip-path="url(#pbcefae7d1c)" style="fill: none; stroke: #595959; stroke-width: 1.5; stroke-linecap: square"/>
            </g>
            <g id="patch_3">
                <path d="M 270 640.8
L 270 86.4 
" style="fill: none; stroke: #000000; stroke-width: 0.8; stroke-linejoin: miter; stroke-linecap: square"/>
            </g>
            <g id="patch_4">
                <path d="M 1944 640.8
L 1944 86.4 
" style="fill: none; stroke: #000000; stroke-width: 0.8; stroke-linejoin: miter; stroke-linecap: square"/>
            </g>
            <g id="patch_5">
                <path d="M 270 640.8
L 1944 640.8 
" style="fill: none; stroke: #000000; stroke-width: 0.8; stroke-linejoin: miter; stroke-linecap: square"/>
            </g>
            <g id="patch_6">
                <path d="M 270 86.4
L 1944 86.4 
" style="fill: none; stroke: #000000; stroke-width: 0.8; stroke-linejoin: miter; stroke-linecap: square"/>
            </g>
            <g id="PathCollection_1">
                <defs>
                    <path id="m61a0e1e2a1" d="M 0 1.5
C 0.397805 1.5 0.77937 1.341951 1.06066 1.06066 
C 1.341951 0.77937 1.5 0.397805 1.5 0 
C 1.5 -0.397805 1.341951 -0.77937 1.06066 -1.06066 
C 0.77937 -1.341951 0.397805 -1.5 0 -1.5 
C -0.397805 -1.5 -0.77937 -1.341951 -1.06066 -1.06066 
C -1.341951 -0.77937 -1.5 -0.397805 -1.5 0 
C -1.5 0.397805 -1.341951 0.77937 -1.06066 1.06066 
C -0.77937 1.341951 -0.397805 1.5 0 1.5 
z
" style="stroke: #595959"/>
                </defs>
                <g clip-path="url(#pbcefae7d1c)">
                    <use xlink:href="#m61a0e1e2a1" x="437.4" y="405.714902" style="fill: #ffffff; stroke: #595959"/>
                </g>
            </g>
            <g id="PathCollection_2">
                <g clip-path="url(#pbcefae7d1c)">
                    <use xlink:href="#m61a0e1e2a1" x="772.2" y="495.738832" style="fill: #ffffff; stroke: #595959"/>
                </g>
            </g>
            <g id="PathCollection_3">
                <g clip-path="url(#pbcefae7d1c)">
                    <use xlink:href="#m61a0e1e2a1" x="1107" y="472.579127" style="fill: #ffffff; stroke: #595959"/>
                </g>
            </g>
            <g id="PathCollection_4">
                <g clip-path="url(#pbcefae7d1c)">
                    <use xlink:href="#m61a0e1e2a1" x="1441.8" y="364.196444" style="fill: #ffffff; stroke: #595959"/>
                </g>
            </g>
            <g id="PathCollection_5">
                <defs>
                    <path id="C0_0_0ec6011cc2" d="M 0 2.5
C 0.663008 2.5 1.29895 2.236584 1.767767 1.767767 
C 2.236584 1.29895 2.5 0.663008 2.5 -0 
C 2.5 -0.663008 2.236584 -1.29895 1.767767 -1.767767 
C 1.29895 -2.236584 0.663008 -2.5 0 -2.5 
C -0.663008 -2.5 -1.29895 -2.236584 -1.767767 -1.767767 
C -2.236584 -1.29895 -2.5 -0.663008 -2.5 0 
C -2.5 0.663008 -2.236584 1.29895 -1.767767 1.767767 
C -1.29895 2.236584 -0.663008 2.5 0 2.5 
z
"/>
                </defs>
                <g clip-path="url(#pbcefae7d1c)">
                    <use xlink:href="#C0_0_0ec6011cc2" x="437.4" y="427.398644" style="fill: #1f77b4"/>
                </g>
                <g clip-path="url(#pbcefae7d1c)">
                    <use xlink:href="#C0_0_0ec6011cc2" x="437.4" y="405.714902" style="fill: #1f77b4"/>
                </g>
                <g clip-path="url(#pbcefae7d1c)">
                    <use xlink:href="#C0_0_0ec6011cc2" x="437.4" y="265.87807" style="fill: #1f77b4"/>
                </g>
            </g>
            <g id="PathCollection_6">
                <defs>
                    <path id="C1_0_a82eeddd01" d="M 0 2.5
C 0.663008 2.5 1.29895 2.236584 1.767767 1.767767 
C 2.236584 1.29895 2.5 0.663008 2.5 -0 
C 2.5 -0.663008 2.236584 -1.29895 1.767767 -1.767767 
C 1.29895 -2.236584 0.663008 -2.5 0 -2.5 
C -0.663008 -2.5 -1.29895 -2.236584 -1.767767 -1.767767 
C -2.236584 -1.29895 -2.5 -0.663008 -2.5 0 
C -2.5 0.663008 -2.236584 1.29895 -1.767767 1.767767 
C -1.29895 2.236584 -0.663008 2.5 0 2.5 
z
"/>
                </defs>
                <g clip-path="url(#pbcefae7d1c)">
                    <use xlink:href="#C1_0_a82eeddd01" x="772.2" y="509.75459" style="fill: #ff7f0e"/>
                </g>
                <g clip-path="url(#pbcefae7d1c)">
                    <use xlink:href="#C1_0_a82eeddd01" x="772.2" y="481.723074" style="fill: #ff7f0e"/>
                </g>
            </g>
            <g id="PathCollection_7">
                <defs>
                    <path id="C2_0_490ab4021e" d="M 0 2.5
C 0.663008 2.5 1.29895 2.236584 1.767767 1.767767 
C 2.236584 1.29895 2.5 0.663008 2.5 -0 
C 2.5 -0.663008 2.236584 -1.29895 1.767767 -1.767767 
C 1.29895 -2.236584 0.663008 -2.5 0 -2.5 
C -0.663008 -2.5 -1.29895 -2.236584 -1.767767 -1.767767 
C -2.236584 -1.29895 -2.5 -0.663008 -2.5 0 
C -2.5 0.663008 -2.236584 1.29895 -1.767767 1.767767 
C -1.29895 2.236584 -0.663008 2.5 0 2.5 
z
"/>
                </defs>
                <g clip-path="url(#pbcefae7d1c)">
                    <use xlink:href="#C2_0_490ab4021e" x="1107" y="479.07362" style="fill: #2ca02c"/>
                </g>
                <g clip-path="url(#pbcefae7d1c)">
                    <use xlink:href="#C2_0_490ab4021e" x="1107" y="466.084634" style="fill: #2ca02c"/>
                </g>
            </g>
            <g id="PathCollection_8">
                <defs>
                    <path id="C3_0_cb0be2216d" d="M 0 2.5
C 0.663008 2.5 1.29895 2.236584 1.767767 1.767767 
C 2.236584 1.29895 2.5 0.663008 2.5 -0 
C 2.5 -0.663008 2.236584 -1.29895 1.767767 -1.767767 
C 1.29895 -2.236584 0.663008 -2.5 0 -2.5 
C -0.663008 -2.5 -1.29895 -2.236584 -1.767767 -1.767767 
C -2.236584 -1.29895 -2.5 -0.663008 -2.5 0 
C -2.5 0.663008 -2.236584 1.29895 -1.767767 1.767767 
C -1.29895 2.236584 -0.663008 2.5 0 2.5 
z
"/>
                </defs>
                <g clip-path="url(#pbcefae7d1c)">
                    <use xlink:href="#C3_0_cb0be2216d" x="1441.8" y="465.464831" style="fill: #d62728"/>
                </g>
                <g clip-path="url(#pbcefae7d1c)">
                    <use xlink:href="#C3_0_cb0be2216d" x="1441.8" y="430.07821" style="fill: #d62728"/>
                </g>
                <g clip-path="url(#pbcefae7d1c)">
                    <use xlink:href="#C3_0_cb0be2216d" x="1441.8" y="298.314679" style="fill: #d62728"/>
                </g>
                <g clip-path="url(#pbcefae7d1c)">
                    <use xlink:href="#C3_0_cb0be2216d" x="1441.8" y="261.735169" style="fill: #d62728"/>
                </g>
            </g>
            <g id="PathCollection_9">
                <defs>
                    <path id="m0f52975814" d="M 0 2.5
C 0.663008 2.5 1.29895 2.236584 1.767767 1.767767 
C 2.236584 1.29895 2.5 0.663008 2.5 0 
C 2.5 -0.663008 2.236584 -1.29895 1.767767 -1.767767 
C 1.29895 -2.236584 0.663008 -2.5 0 -2.5 
C -0.663008 -2.5 -1.29895 -2.236584 -1.767767 -1.767767 
C -2.236584 -1.29895 -2.5 -0.663008 -2.5 0 
C -2.5 0.663008 -2.236584 1.29895 -1.767767 1.767767 
C -1.29895 2.236584 -0.663008 2.5 0 2.5 
z
"/>
                </defs>
                <g clip-path="url(#pbcefae7d1c)">
                    <use xlink:href="#m0f52975814" x="1776.6" y="402.006677" style="fill: #9467bd"/>
                </g>
            </g>
            <g id="text_13">
                <!-- P values of Field Gastrointestinal -->
                <g transform="translate(910.989375 80.4)scale(0.24 -0.24)">
                    <defs>
                        <path id="DejaVuSans-50" d="M 1259 4147
L 1259 2394 
L 2053 2394 
Q 2494 2394 2734 2622 
Q 2975 2850 2975 3272 
Q 2975 3691 2734 3919 
Q 2494 4147 2053 4147 
L 1259 4147 
z
M 628 4666 
L 2053 4666 
Q 2838 4666 3239 4311 
Q 3641 3956 3641 3272 
Q 3641 2581 3239 2228 
Q 2838 1875 2053 1875 
L 1259 1875 
L 1259 0 
L 628 0 
L 628 4666 
z
" transform="scale(0.015625)"/>
                        <path id="DejaVuSans-20" transform="scale(0.015625)"/>
                        <path id="DejaVuSans-76" d="M 191 3500
L 800 3500 
L 1894 563 
L 2988 3500 
L 3597 3500 
L 2284 0 
L 1503 0 
L 191 3500 
z
" transform="scale(0.015625)"/>
                        <path id="DejaVuSans-61" d="M 2194 1759
Q 1497 1759 1228 1600 
Q 959 1441 959 1056 
Q 959 750 1161 570 
Q 1363 391 1709 391 
Q 2188 391 2477 730 
Q 2766 1069 2766 1631 
L 2766 1759 
L 2194 1759 
z
M 3341 1997 
L 3341 0 
L 2766 0 
L 2766 531 
Q 2569 213 2275 61 
Q 1981 -91 1556 -91 
Q 1019 -91 701 211 
Q 384 513 384 1019 
Q 384 1609 779 1909 
Q 1175 2209 1959 2209 
L 2766 2209 
L 2766 2266 
Q 2766 2663 2505 2880 
Q 2244 3097 1772 3097 
Q 1472 3097 1187 3025 
Q 903 2953 641 2809 
L 641 3341 
Q 956 3463 1253 3523 
Q 1550 3584 1831 3584 
Q 2591 3584 2966 3190 
Q 3341 2797 3341 1997 
z
" transform="scale(0.015625)"/>
                        <path id="DejaVuSans-66" d="M 2375 4863
L 2375 4384 
L 1825 4384 
Q 1516 4384 1395 4259 
Q 1275 4134 1275 3809 
L 1275 3500 
L 2222 3500 
L 2222 3053 
L 1275 3053 
L 1275 0 
L 697 0 
L 697 3053 
L 147 3053 
L 147 3500 
L 697 3500 
L 697 3744 
Q 697 4328 969 4595 
Q 1241 4863 1831 4863 
L 2375 4863 
z
" transform="scale(0.015625)"/>
                        <path id="DejaVuSans-46" d="M 628 4666
L 3309 4666 
L 3309 4134 
L 1259 4134 
L 1259 2759 
L 3109 2759 
L 3109 2228 
L 1259 2228 
L 1259 0 
L 628 0 
L 628 4666 
z
" transform="scale(0.015625)"/>
                        <path id="DejaVuSans-69" d="M 603 3500
L 1178 3500 
L 1178 0 
L 603 0 
L 603 3500 
z
M 603 4863 
L 1178 4863 
L 1178 4134 
L 603 4134 
L 603 4863 
z
" transform="scale(0.015625)"/>
                        <path id="DejaVuSans-64" d="M 2906 2969
L 2906 4863 
L 3481 4863 
L 3481 0 
L 2906 0 
L 2906 525 
Q 2725 213 2448 61 
Q 2172 -91 1784 -91 
Q 1150 -91 751 415 
Q 353 922 353 1747 
Q 353 2572 751 3078 
Q 1150 3584 1784 3584 
Q 2172 3584 2448 3432 
Q 2725 3281 2906 2969 
z
M 947 1747 
Q 947 1113 1208 752 
Q 1469 391 1925 391 
Q 2381 391 2643 752 
Q 2906 1113 2906 1747 
Q 2906 2381 2643 2742 
Q 2381 3103 1925 3103 
Q 1469 3103 1208 2742 
Q 947 2381 947 1747 
z
" transform="scale(0.015625)"/>
                        <path id="DejaVuSans-47" d="M 3809 666
L 3809 1919 
L 2778 1919 
L 2778 2438 
L 4434 2438 
L 4434 434 
Q 4069 175 3628 42 
Q 3188 -91 2688 -91 
Q 1594 -91 976 548 
Q 359 1188 359 2328 
Q 359 3472 976 4111 
Q 1594 4750 2688 4750 
Q 3144 4750 3555 4637 
Q 3966 4525 4313 4306 
L 4313 3634 
Q 3963 3931 3569 4081 
Q 3175 4231 2741 4231 
Q 1884 4231 1454 3753 
Q 1025 3275 1025 2328 
Q 1025 1384 1454 906 
Q 1884 428 2741 428 
Q 3075 428 3337 486 
Q 3600 544 3809 666 
z
" transform="scale(0.015625)"/>
                        <path id="DejaVuSans-6e" d="M 3513 2113
L 3513 0 
L 2938 0 
L 2938 2094 
Q 2938 2591 2744 2837 
Q 2550 3084 2163 3084 
Q 1697 3084 1428 2787 
Q 1159 2491 1159 1978 
L 1159 0 
L 581 0 
L 581 3500 
L 1159 3500 
L 1159 2956 
Q 1366 3272 1645 3428 
Q 1925 3584 2291 3584 
Q 2894 3584 3203 3211 
Q 3513 2838 3513 2113 
z
" transform="scale(0.015625)"/>
                    </defs>
                    <use xlink:href="#DejaVuSans-50"/>
                    <use xlink:href="#DejaVuSans-20" x="60.302734"/>
                    <use xlink:href="#DejaVuSans-76" x="92.089844"/>
                    <use xlink:href="#DejaVuSans-61" x="151.269531"/>
                    <use xlink:href="#DejaVuSans-6c" x="212.548828"/>
                    <use xlink:href="#DejaVuSans-75" x="240.332031"/>
                    <use xlink:href="#DejaVuSans-65" x="303.710938"/>
                    <use xlink:href="#DejaVuSans-73" x="365.234375"/>
                    <use xlink:href="#DejaVuSans-20" x="417.333984"/>
                    <use xlink:href="#DejaVuSans-6f" x="449.121094"/>
                    <use xlink:href="#DejaVuSans-66" x="510.302734"/>
                    <use xlink:href="#DejaVuSans-20" x="545.507812"/>
                    <use xlink:href="#DejaVuSans-46" x="577.294922"/>
                    <use xlink:href="#DejaVuSans-69" x="627.564453"/>
                    <use xlink:href="#DejaVuSans-65" x="655.347656"/>
                    <use xlink:href="#DejaVuSans-6c" x="716.871094"/>
                    <use xlink:href="#DejaVuSans-64" x="744.654297"/>
                    <use xlink:href="#DejaVuSans-20" x="808.130859"/>
                    <use xlink:href="#DejaVuSans-47" x="839.917969"/>
                    <use xlink:href="#DejaVuSans-61" x="917.408203"/>
                    <use xlink:href="#DejaVuSans-73" x="978.6875"/>
                    <use xlink:href="#DejaVuSans-74" x="1030.787109"/>
                    <use xlink:href="#DejaVuSans-72" x="1069.996094"/>
                    <use xlink:href="#DejaVuSans-6f" x="1108.859375"/>
                    <use xlink:href="#DejaVuSans-69" x="1170.041016"/>
                    <use xlink:href="#DejaVuSans-6e" x="1197.824219"/>
                    <use xlink:href="#DejaVuSans-74" x="1261.203125"/>
                    <use xlink:href="#DejaVuSans-65" x="1300.412109"/>
                    <use xlink:href="#DejaVuSans-73" x="1361.935547"/>
                    <use xlink:href="#DejaVuSans-74" x="1414.035156"/>
                    <use xlink:href="#DejaVuSans-69" x="1453.244141"/>
                    <use xlink:href="#DejaVuSans-6e" x="1481.027344"/>
                    <use xlink:href="#DejaVuSans-61" x="1544.40625"/>
                    <use xlink:href="#DejaVuSans-6c" x="1605.685547"/>
                </g>
            </g>
        </g>
    </g>
    <defs>
        <clipPath id="pbcefae7d1c">
            <rect x="270" y="86.4" width="1674" height="554.4"/>
        </clipPath>
    </defs>
</svg>
