<?xml version="1.0" encoding="utf-8" standalone="no"?>
<!DOCTYPE svg PUBLIC "-//W3C//DTD SVG 1.1//EN"
        "http://www.w3.org/Graphics/SVG/1.1/DTD/svg11.dtd">
<svg xmlns:xlink="http://www.w3.org/1999/xlink" width="2160pt" height="720pt" viewBox="0 0 2160 720"
     xmlns="http://www.w3.org/2000/svg" version="1.1">
    <metadata>
        <rdf:RDF xmlns:dc="http://purl.org/dc/elements/1.1/" xmlns:cc="http://creativecommons.org/ns#"
                 xmlns:rdf="http://www.w3.org/1999/02/22-rdf-syntax-ns#">
            <cc:Work>
                <dc:type rdf:resource="http://purl.org/dc/dcmitype/StillImage"/>
                <dc:date>2022-06-10T17:50:37.761248</dc:date>
                <dc:format>image/svg+xml</dc:format>
                <dc:creator>
                    <cc:Agent>
                        <dc:title>Matplotlib v3.5.1, https://matplotlib.org/</dc:title>
                    </cc:Agent>
                </dc:creator>
            </cc:Work>
        </rdf:RDF>
    </metadata>
    <defs>
        <style type="text/css">*{stroke-linejoin: round; stroke-linecap: butt}</style>
    </defs>
    <g id="figure_1">
        <g id="patch_1">
            <path d="M 0 720
L 2160 720 
L 2160 0 
L 0 0 
z
" style="fill: #ffffff"/>
        </g>
        <g id="axes_1">
            <g id="patch_2">
                <path d="M 270 640.8
L 1944 640.8 
L 1944 86.4 
L 270 86.4 
z
" style="fill: #ffffff"/>
            </g>
            <g id="PolyCollection_1">
                <defs>
                    <path id="mce65042f25" d="M 445.148579 -147.605501
L 429.651421 -147.605501 
L 427.766192 -151.770106 
L 425.52858 -155.934712 
L 422.900747 -160.099317 
L 419.847588 -164.263922 
L 416.338628 -168.428528 
L 412.350079 -172.593133 
L 407.866993 -176.757738 
L 402.885378 -180.922344 
L 397.414175 -185.086949 
L 391.476953 -189.251554 
L 385.11318 -193.41616 
L 378.378955 -197.580765 
L 371.34707 -201.74537 
L 364.106329 -205.909976 
L 356.76008 -210.074581 
L 349.423947 -214.239186 
L 342.22282 -218.403791 
L 335.287208 -222.568397 
L 328.749087 -226.733002 
L 322.737442 -230.897607 
L 317.373719 -235.062213 
L 312.767417 -239.226818 
L 309.012049 -243.391423 
L 306.181694 -247.556029 
L 304.328318 -251.720634 
L 303.48 -255.885239 
L 303.640146 -260.049845 
L 304.787724 -264.21445 
L 306.878466 -268.379055 
L 309.846961 -272.543661 
L 313.609492 -276.708266 
L 318.067446 -280.872871 
L 323.111097 -285.037476 
L 328.623572 -289.202082 
L 334.484788 -293.366687 
L 340.575203 -297.531292 
L 346.779219 -301.695898 
L 352.988141 -305.860503 
L 359.102595 -310.025108 
L 365.03439 -314.189714 
L 370.707807 -318.354319 
L 376.060338 -322.518924 
L 381.042928 -326.68353 
L 385.619767 -330.848135 
L 389.767718 -335.01274 
L 393.475432 -339.177346 
L 396.74224 -343.341951 
L 399.576867 -347.506556 
L 401.996046 -351.671161 
L 404.023073 -355.835767 
L 405.686359 -360.000372 
L 407.01801 -364.164977 
L 408.052495 -368.329583 
L 408.825404 -372.494188 
L 409.372359 -376.658793 
L 409.728079 -380.823399 
L 409.925627 -384.988004 
L 409.995851 -389.152609 
L 409.967023 -393.317215 
L 409.86467 -397.48182 
L 409.711573 -401.646425 
L 409.52793 -405.811031 
L 409.331622 -409.975636 
L 409.138567 -414.140241 
L 408.963106 -418.304846 
L 408.818371 -422.469452 
L 408.716616 -426.634057 
L 408.669446 -430.798662 
L 408.687946 -434.963268 
L 408.782679 -439.127873 
L 408.963563 -443.292478 
L 409.239621 -447.457084 
L 409.618661 -451.621689 
L 410.106878 -455.786294 
L 410.708454 -459.9509 
L 411.425179 -464.115505 
L 412.256138 -468.28011 
L 413.197503 -472.444716 
L 414.242455 -476.609321 
L 415.381257 -480.773926 
L 416.601475 -484.938531 
L 417.888344 -489.103137 
L 419.225261 -493.267742 
L 420.594373 -497.432347 
L 421.977214 -501.596953 
L 423.35538 -505.761558 
L 424.711162 -509.926163 
L 426.028143 -514.090769 
L 427.291688 -518.255374 
L 428.489342 -522.419979 
L 429.611088 -526.584585 
L 430.649486 -530.74919 
L 431.599684 -534.913795 
L 432.459314 -539.078401 
L 433.228298 -543.243006 
L 433.908577 -547.407611 
L 434.503785 -551.572216 
L 435.018905 -555.736822 
L 435.459914 -559.901427 
L 439.340086 -559.901427 
L 439.340086 -559.901427 
L 439.781095 -555.736822 
L 440.296215 -551.572216 
L 440.891423 -547.407611 
L 441.571702 -543.243006 
L 442.340686 -539.078401 
L 443.200316 -534.913795 
L 444.150514 -530.74919 
L 445.188912 -526.584585 
L 446.310658 -522.419979 
L 447.508312 -518.255374 
L 448.771857 -514.090769 
L 450.088838 -509.926163 
L 451.44462 -505.761558 
L 452.822786 -501.596953 
L 454.205627 -497.432347 
L 455.574739 -493.267742 
L 456.911656 -489.103137 
L 458.198525 -484.938531 
L 459.418743 -480.773926 
L 460.557545 -476.609321 
L 461.602497 -472.444716 
L 462.543862 -468.28011 
L 463.374821 -464.115505 
L 464.091546 -459.9509 
L 464.693122 -455.786294 
L 465.181339 -451.621689 
L 465.560379 -447.457084 
L 465.836437 -443.292478 
L 466.017321 -439.127873 
L 466.112054 -434.963268 
L 466.130554 -430.798662 
L 466.083384 -426.634057 
L 465.981629 -422.469452 
L 465.836894 -418.304846 
L 465.661433 -414.140241 
L 465.468378 -409.975636 
L 465.27207 -405.811031 
L 465.088427 -401.646425 
L 464.93533 -397.48182 
L 464.832977 -393.317215 
L 464.804149 -389.152609 
L 464.874373 -384.988004 
L 465.071921 -380.823399 
L 465.427641 -376.658793 
L 465.974596 -372.494188 
L 466.747505 -368.329583 
L 467.78199 -364.164977 
L 469.113641 -360.000372 
L 470.776927 -355.835767 
L 472.803954 -351.671161 
L 475.223133 -347.506556 
L 478.05776 -343.341951 
L 481.324568 -339.177346 
L 485.032282 -335.01274 
L 489.180233 -330.848135 
L 493.757072 -326.68353 
L 498.739662 -322.518924 
L 504.092193 -318.354319 
L 509.76561 -314.189714 
L 515.697405 -310.025108 
L 521.811859 -305.860503 
L 528.020781 -301.695898 
L 534.224797 -297.531292 
L 540.315212 -293.366687 
L 546.176428 -289.202082 
L 551.688903 -285.037476 
L 556.732554 -280.872871 
L 561.190508 -276.708266 
L 564.953039 -272.543661 
L 567.921534 -268.379055 
L 570.012276 -264.21445 
L 571.159854 -260.049845 
L 571.32 -255.885239 
L 570.471682 -251.720634 
L 568.618306 -247.556029 
L 565.787951 -243.391423 
L 562.032583 -239.226818 
L 557.426281 -235.062213 
L 552.062558 -230.897607 
L 546.050913 -226.733002 
L 539.512792 -222.568397 
L 532.57718 -218.403791 
L 525.376053 -214.239186 
L 518.03992 -210.074581 
L 510.693671 -205.909976 
L 503.45293 -201.74537 
L 496.421045 -197.580765 
L 489.68682 -193.41616 
L 483.323047 -189.251554 
L 477.385825 -185.086949 
L 471.914622 -180.922344 
L 466.933007 -176.757738 
L 462.449921 -172.593133 
L 458.461372 -168.428528 
L 454.952412 -164.263922 
L 451.899253 -160.099317 
L 449.27142 -155.934712 
L 447.033808 -151.770106 
L 445.148579 -147.605501 
z
" style="stroke: #595959; stroke-width: 1.5"/>
                </defs>
                <g clip-path="url(#p39d5c14235)">
                    <use xlink:href="#mce65042f25" x="0" y="720"
                         style="fill: #72b6a1; stroke: #595959; stroke-width: 1.5"/>
                </g>
            </g>
            <g id="PolyCollection_2">
                <defs>
                    <path id="ma20475df36" d="M 774.289336 -193.320184
L 770.110664 -193.320184 
L 769.751195 -194.905192 
L 769.344818 -196.490199 
L 768.888245 -198.075207 
L 768.378452 -199.660215 
L 767.812776 -201.245223 
L 767.189011 -202.830231 
L 766.505511 -204.415239 
L 765.761283 -206.000247 
L 764.956076 -207.585255 
L 764.090458 -209.170263 
L 763.165878 -210.755271 
L 762.184715 -212.340278 
L 761.150296 -213.925286 
L 760.066903 -215.510294 
L 758.939743 -217.095302 
L 757.774898 -218.68031 
L 756.579248 -220.265318 
L 755.360368 -221.850326 
L 754.126402 -223.435334 
L 752.885915 -225.020342 
L 751.647733 -226.60535 
L 750.420769 -228.190357 
L 749.21385 -229.775365 
L 748.03553 -231.360373 
L 746.89393 -232.945381 
L 745.796577 -234.530389 
L 744.750261 -236.115397 
L 743.760927 -237.700405 
L 742.833581 -239.285413 
L 741.972232 -240.870421 
L 741.179866 -242.455429 
L 740.458447 -244.040436 
L 739.808955 -245.625444 
L 739.231444 -247.210452 
L 738.725126 -248.79546 
L 738.288482 -250.380468 
L 737.919373 -251.965476 
L 737.615175 -253.550484 
L 737.372905 -255.135492 
L 737.189351 -256.7205 
L 737.061195 -258.305508 
L 736.985116 -259.890515 
L 736.957895 -261.475523 
L 736.976481 -263.060531 
L 737.038059 -264.645539 
L 737.140087 -266.230547 
L 737.280317 -267.815555 
L 737.45681 -269.400563 
L 737.667919 -270.985571 
L 737.912282 -272.570579 
L 738.188793 -274.155586 
L 738.496572 -275.740594 
L 738.834938 -277.325602 
L 739.203373 -278.91061 
L 739.6015 -280.495618 
L 740.029048 -282.080626 
L 740.485839 -283.665634 
L 740.971763 -285.250642 
L 741.48676 -286.83565 
L 742.030811 -288.420658 
L 742.603912 -290.005665 
L 743.206063 -291.590673 
L 743.837243 -293.175681 
L 744.497386 -294.760689 
L 745.186349 -296.345697 
L 745.903875 -297.930705 
L 746.649556 -299.515713 
L 747.422788 -301.100721 
L 748.222729 -302.685729 
L 749.048252 -304.270737 
L 749.897907 -305.855744 
L 750.769889 -307.440752 
L 751.662012 -309.02576 
L 752.571692 -310.610768 
L 753.495952 -312.195776 
L 754.431434 -313.780784 
L 755.374424 -315.365792 
L 756.320901 -316.9508 
L 757.266591 -318.535808 
L 758.20704 -320.120816 
L 759.137688 -321.705823 
L 760.053963 -323.290831 
L 760.951363 -324.875839 
L 761.825554 -326.460847 
L 762.672453 -328.045855 
L 763.488307 -329.630863 
L 764.269767 -331.215871 
L 765.013948 -332.800879 
L 765.718469 -334.385887 
L 766.38149 -335.970895 
L 767.001723 -337.555902 
L 767.57843 -339.14091 
L 768.111416 -340.725918 
L 768.600991 -342.310926 
L 769.047939 -343.895934 
L 769.453466 -345.480942 
L 769.819146 -347.06595 
L 770.146861 -348.650958 
L 770.43874 -350.235966 
L 773.96126 -350.235966 
L 773.96126 -350.235966 
L 774.253139 -348.650958 
L 774.580854 -347.06595 
L 774.946534 -345.480942 
L 775.352061 -343.895934 
L 775.799009 -342.310926 
L 776.288584 -340.725918 
L 776.82157 -339.14091 
L 777.398277 -337.555902 
L 778.01851 -335.970895 
L 778.681531 -334.385887 
L 779.386052 -332.800879 
L 780.130233 -331.215871 
L 780.911693 -329.630863 
L 781.727547 -328.045855 
L 782.574446 -326.460847 
L 783.448637 -324.875839 
L 784.346037 -323.290831 
L 785.262312 -321.705823 
L 786.19296 -320.120816 
L 787.133409 -318.535808 
L 788.079099 -316.9508 
L 789.025576 -315.365792 
L 789.968566 -313.780784 
L 790.904048 -312.195776 
L 791.828308 -310.610768 
L 792.737988 -309.02576 
L 793.630111 -307.440752 
L 794.502093 -305.855744 
L 795.351748 -304.270737 
L 796.177271 -302.685729 
L 796.977212 -301.100721 
L 797.750444 -299.515713 
L 798.496125 -297.930705 
L 799.213651 -296.345697 
L 799.902614 -294.760689 
L 800.562757 -293.175681 
L 801.193937 -291.590673 
L 801.796088 -290.005665 
L 802.369189 -288.420658 
L 802.91324 -286.83565 
L 803.428237 -285.250642 
L 803.914161 -283.665634 
L 804.370952 -282.080626 
L 804.7985 -280.495618 
L 805.196627 -278.91061 
L 805.565062 -277.325602 
L 805.903428 -275.740594 
L 806.211207 -274.155586 
L 806.487718 -272.570579 
L 806.732081 -270.985571 
L 806.94319 -269.400563 
L 807.119683 -267.815555 
L 807.259913 -266.230547 
L 807.361941 -264.645539 
L 807.423519 -263.060531 
L 807.442105 -261.475523 
L 807.414884 -259.890515 
L 807.338805 -258.305508 
L 807.210649 -256.7205 
L 807.027095 -255.135492 
L 806.784825 -253.550484 
L 806.480627 -251.965476 
L 806.111518 -250.380468 
L 805.674874 -248.79546 
L 805.168556 -247.210452 
L 804.591045 -245.625444 
L 803.941553 -244.040436 
L 803.220134 -242.455429 
L 802.427768 -240.870421 
L 801.566419 -239.285413 
L 800.639073 -237.700405 
L 799.649739 -236.115397 
L 798.603423 -234.530389 
L 797.50607 -232.945381 
L 796.36447 -231.360373 
L 795.18615 -229.775365 
L 793.979231 -228.190357 
L 792.752267 -226.60535 
L 791.514085 -225.020342 
L 790.273598 -223.435334 
L 789.039632 -221.850326 
L 787.820752 -220.265318 
L 786.625102 -218.68031 
L 785.460257 -217.095302 
L 784.333097 -215.510294 
L 783.249704 -213.925286 
L 782.215285 -212.340278 
L 781.234122 -210.755271 
L 780.309542 -209.170263 
L 779.443924 -207.585255 
L 778.638717 -206.000247 
L 777.894489 -204.415239 
L 777.210989 -202.830231 
L 776.587224 -201.245223 
L 776.021548 -199.660215 
L 775.511755 -198.075207 
L 775.055182 -196.490199 
L 774.648805 -194.905192 
L 774.289336 -193.320184 
z
" style="stroke: #595959; stroke-width: 1.5"/>
                </defs>
                <g clip-path="url(#p39d5c14235)">
                    <use xlink:href="#ma20475df36" x="0" y="720"
                         style="fill: #e99675; stroke: #595959; stroke-width: 1.5"/>
                </g>
            </g>
            <g id="PolyCollection_3">
                <defs>
                    <path id="mee415f5b7f" d="M 1108.621563 -160.585747
L 1105.378437 -160.585747 
L 1105.120443 -163.622055 
L 1104.831768 -166.658362 
L 1104.510563 -169.69467 
L 1104.155144 -172.730977 
L 1103.764045 -175.767285 
L 1103.336053 -178.803592 
L 1102.870262 -181.8399 
L 1102.366101 -184.876207 
L 1101.823372 -187.912515 
L 1101.242277 -190.948822 
L 1100.623439 -193.98513 
L 1099.967906 -197.021437 
L 1099.27716 -200.057745 
L 1098.553109 -203.094052 
L 1097.798065 -206.13036 
L 1097.014724 -209.166667 
L 1096.206132 -212.202975 
L 1095.375645 -215.239282 
L 1094.526888 -218.27559 
L 1093.663702 -221.311897 
L 1092.790104 -224.348205 
L 1091.910231 -227.384512 
L 1091.028299 -230.42082 
L 1090.14856 -233.457127 
L 1089.275265 -236.493435 
L 1088.412631 -239.529742 
L 1087.564815 -242.56605 
L 1086.735893 -245.602357 
L 1085.929848 -248.638665 
L 1085.150549 -251.674972 
L 1084.40175 -254.71128 
L 1083.687078 -257.747587 
L 1083.010019 -260.783895 
L 1082.373909 -263.820202 
L 1081.781919 -266.85651 
L 1081.237025 -269.892817 
L 1080.741991 -272.929125 
L 1080.299327 -275.965432 
L 1079.911253 -279.00174 
L 1079.579661 -282.038047 
L 1079.306061 -285.074355 
L 1079.091548 -288.110662 
L 1078.936752 -291.14697 
L 1078.841805 -294.183277 
L 1078.806316 -297.219585 
L 1078.829352 -300.255892 
L 1078.90944 -303.2922 
L 1079.044577 -306.328507 
L 1079.232262 -309.364815 
L 1079.469544 -312.401122 
L 1079.753081 -315.43743 
L 1080.079225 -318.473737 
L 1080.444104 -321.510045 
L 1080.843725 -324.546352 
L 1081.274077 -327.58266 
L 1081.731231 -330.618967 
L 1082.211443 -333.655275 
L 1082.711245 -336.691582 
L 1083.227522 -339.72789 
L 1083.757572 -342.764197 
L 1084.299155 -345.800505 
L 1084.850509 -348.836812 
L 1085.410351 -351.87312 
L 1085.977858 -354.909427 
L 1086.55262 -357.945735 
L 1087.13458 -360.982042 
L 1087.723961 -364.01835 
L 1088.321173 -367.054657 
L 1088.926723 -370.090965 
L 1089.541119 -373.127272 
L 1090.16477 -376.16358 
L 1090.797906 -379.199887 
L 1091.440498 -382.236195 
L 1092.092199 -385.272502 
L 1092.752295 -388.30881 
L 1093.419682 -391.345117 
L 1094.09286 -394.381425 
L 1094.769941 -397.417732 
L 1095.448685 -400.45404 
L 1096.126538 -403.490347 
L 1096.8007 -406.526655 
L 1097.468188 -409.562962 
L 1098.125917 -412.59927 
L 1098.770778 -415.635577 
L 1099.399717 -418.671885 
L 1100.009816 -421.708192 
L 1100.598356 -424.7445 
L 1101.162888 -427.780807 
L 1101.701276 -430.817115 
L 1102.211739 -433.853422 
L 1102.692881 -436.88973 
L 1103.143701 -439.926037 
L 1103.563597 -442.962345 
L 1103.952356 -445.998652 
L 1104.310134 -449.03496 
L 1104.63743 -452.071267 
L 1104.93505 -455.107575 
L 1105.204066 -458.143882 
L 1105.445777 -461.18019 
L 1108.554223 -461.18019 
L 1108.554223 -461.18019 
L 1108.795934 -458.143882 
L 1109.06495 -455.107575 
L 1109.36257 -452.071267 
L 1109.689866 -449.03496 
L 1110.047644 -445.998652 
L 1110.436403 -442.962345 
L 1110.856299 -439.926037 
L 1111.307119 -436.88973 
L 1111.788261 -433.853422 
L 1112.298724 -430.817115 
L 1112.837112 -427.780807 
L 1113.401644 -424.7445 
L 1113.990184 -421.708192 
L 1114.600283 -418.671885 
L 1115.229222 -415.635577 
L 1115.874083 -412.59927 
L 1116.531812 -409.562962 
L 1117.1993 -406.526655 
L 1117.873462 -403.490347 
L 1118.551315 -400.45404 
L 1119.230059 -397.417732 
L 1119.90714 -394.381425 
L 1120.580318 -391.345117 
L 1121.247705 -388.30881 
L 1121.907801 -385.272502 
L 1122.559502 -382.236195 
L 1123.202094 -379.199887 
L 1123.83523 -376.16358 
L 1124.458881 -373.127272 
L 1125.073277 -370.090965 
L 1125.678827 -367.054657 
L 1126.276039 -364.01835 
L 1126.86542 -360.982042 
L 1127.44738 -357.945735 
L 1128.022142 -354.909427 
L 1128.589649 -351.87312 
L 1129.149491 -348.836812 
L 1129.700845 -345.800505 
L 1130.242428 -342.764197 
L 1130.772478 -339.72789 
L 1131.288755 -336.691582 
L 1131.788557 -333.655275 
L 1132.268769 -330.618967 
L 1132.725923 -327.58266 
L 1133.156275 -324.546352 
L 1133.555896 -321.510045 
L 1133.920775 -318.473737 
L 1134.246919 -315.43743 
L 1134.530456 -312.401122 
L 1134.767738 -309.364815 
L 1134.955423 -306.328507 
L 1135.09056 -303.2922 
L 1135.170648 -300.255892 
L 1135.193684 -297.219585 
L 1135.158195 -294.183277 
L 1135.063248 -291.14697 
L 1134.908452 -288.110662 
L 1134.693939 -285.074355 
L 1134.420339 -282.038047 
L 1134.088747 -279.00174 
L 1133.700673 -275.965432 
L 1133.258009 -272.929125 
L 1132.762975 -269.892817 
L 1132.218081 -266.85651 
L 1131.626091 -263.820202 
L 1130.989981 -260.783895 
L 1130.312922 -257.747587 
L 1129.59825 -254.71128 
L 1128.849451 -251.674972 
L 1128.070152 -248.638665 
L 1127.264107 -245.602357 
L 1126.435185 -242.56605 
L 1125.587369 -239.529742 
L 1124.724735 -236.493435 
L 1123.85144 -233.457127 
L 1122.971701 -230.42082 
L 1122.089769 -227.384512 
L 1121.209896 -224.348205 
L 1120.336298 -221.311897 
L 1119.473112 -218.27559 
L 1118.624355 -215.239282 
L 1117.793868 -212.202975 
L 1116.985276 -209.166667 
L 1116.201935 -206.13036 
L 1115.446891 -203.094052 
L 1114.72284 -200.057745 
L 1114.032094 -197.021437 
L 1113.376561 -193.98513 
L 1112.757723 -190.948822 
L 1112.176628 -187.912515 
L 1111.633899 -184.876207 
L 1111.129738 -181.8399 
L 1110.663947 -178.803592 
L 1110.235955 -175.767285 
L 1109.844856 -172.730977 
L 1109.489437 -169.69467 
L 1109.168232 -166.658362 
L 1108.879557 -163.622055 
L 1108.621563 -160.585747 
z
" style="stroke: #595959; stroke-width: 1.5"/>
                </defs>
                <g clip-path="url(#p39d5c14235)">
                    <use xlink:href="#mee415f5b7f" x="0" y="720"
                         style="fill: #95a3c3; stroke: #595959; stroke-width: 1.5"/>
                </g>
            </g>
            <g id="PolyCollection_4">
                <defs>
                    <path id="m2c86bf8614" d="M 1445.642567 -104.4
L 1437.957433 -104.4 
L 1437.220295 -109.490909 
L 1436.376605 -114.581818 
L 1435.418239 -119.672727 
L 1434.337839 -124.763636 
L 1433.129106 -129.854545 
L 1431.787097 -134.945455 
L 1430.30851 -140.036364 
L 1428.691965 -145.127273 
L 1426.938243 -150.218182 
L 1425.050491 -155.309091 
L 1423.034364 -160.4 
L 1420.898114 -165.490909 
L 1418.652591 -170.581818 
L 1416.311179 -175.672727 
L 1413.889639 -180.763636 
L 1411.405881 -185.854545 
L 1408.879655 -190.945455 
L 1406.332174 -196.036364 
L 1403.785689 -201.127273 
L 1401.263018 -206.218182 
L 1398.787054 -211.309091 
L 1396.380267 -216.4 
L 1394.064223 -221.490909 
L 1391.859128 -226.581818 
L 1389.783429 -231.672727 
L 1387.853468 -236.763636 
L 1386.083217 -241.854545 
L 1384.484087 -246.945455 
L 1383.064826 -252.036364 
L 1381.831491 -257.127273 
L 1380.787513 -262.218182 
L 1379.933815 -267.309091 
L 1379.269004 -272.4 
L 1378.789596 -277.490909 
L 1378.490283 -282.581818 
L 1378.364211 -287.672727 
L 1378.403255 -292.763636 
L 1378.598294 -297.854545 
L 1378.939445 -302.945455 
L 1379.416284 -308.036364 
L 1380.01801 -313.127273 
L 1380.733582 -318.218182 
L 1381.551813 -323.309091 
L 1382.461424 -328.4 
L 1383.451082 -333.490909 
L 1384.509407 -338.581818 
L 1385.624988 -343.672727 
L 1386.786389 -348.763636 
L 1387.982187 -353.854545 
L 1389.201025 -358.945455 
L 1390.431709 -364.036364 
L 1391.663335 -369.127273 
L 1392.885463 -374.218182 
L 1394.088325 -379.309091 
L 1395.263059 -384.4 
L 1396.401958 -389.490909 
L 1397.498733 -394.581818 
L 1398.548745 -399.672727 
L 1399.549218 -404.763636 
L 1400.499394 -409.854545 
L 1401.400629 -414.945455 
L 1402.256402 -420.036364 
L 1403.072246 -425.127273 
L 1403.855583 -430.218182 
L 1404.615465 -435.309091 
L 1405.36224 -440.4 
L 1406.107145 -445.490909 
L 1406.861844 -450.581818 
L 1407.637942 -455.672727 
L 1408.446479 -460.763636 
L 1409.297453 -465.854545 
L 1410.199381 -470.945455 
L 1411.158913 -476.036364 
L 1412.18054 -481.127273 
L 1413.26639 -486.218182 
L 1414.416132 -491.309091 
L 1415.626975 -496.4 
L 1416.893789 -501.490909 
L 1418.209307 -506.581818 
L 1419.564411 -511.672727 
L 1420.948493 -516.763636 
L 1422.34985 -521.854545 
L 1423.756113 -526.945455 
L 1425.154679 -532.036364 
L 1426.533128 -537.127273 
L 1427.879606 -542.218182 
L 1429.183162 -547.309091 
L 1430.434033 -552.4 
L 1431.623851 -557.490909 
L 1432.745799 -562.581818 
L 1433.794677 -567.672727 
L 1434.766927 -572.763636 
L 1435.660577 -577.854545 
L 1436.475153 -582.945455 
L 1437.211539 -588.036364 
L 1437.87181 -593.127273 
L 1438.459048 -598.218182 
L 1438.977145 -603.309091 
L 1439.430607 -608.4 
L 1444.169393 -608.4 
L 1444.169393 -608.4 
L 1444.622855 -603.309091 
L 1445.140952 -598.218182 
L 1445.72819 -593.127273 
L 1446.388461 -588.036364 
L 1447.124847 -582.945455 
L 1447.939423 -577.854545 
L 1448.833073 -572.763636 
L 1449.805323 -567.672727 
L 1450.854201 -562.581818 
L 1451.976149 -557.490909 
L 1453.165967 -552.4 
L 1454.416838 -547.309091 
L 1455.720394 -542.218182 
L 1457.066872 -537.127273 
L 1458.445321 -532.036364 
L 1459.843887 -526.945455 
L 1461.25015 -521.854545 
L 1462.651507 -516.763636 
L 1464.035589 -511.672727 
L 1465.390693 -506.581818 
L 1466.706211 -501.490909 
L 1467.973025 -496.4 
L 1469.183868 -491.309091 
L 1470.33361 -486.218182 
L 1471.41946 -481.127273 
L 1472.441087 -476.036364 
L 1473.400619 -470.945455 
L 1474.302547 -465.854545 
L 1475.153521 -460.763636 
L 1475.962058 -455.672727 
L 1476.738156 -450.581818 
L 1477.492855 -445.490909 
L 1478.23776 -440.4 
L 1478.984535 -435.309091 
L 1479.744417 -430.218182 
L 1480.527754 -425.127273 
L 1481.343598 -420.036364 
L 1482.199371 -414.945455 
L 1483.100606 -409.854545 
L 1484.050782 -404.763636 
L 1485.051255 -399.672727 
L 1486.101267 -394.581818 
L 1487.198042 -389.490909 
L 1488.336941 -384.4 
L 1489.511675 -379.309091 
L 1490.714537 -374.218182 
L 1491.936665 -369.127273 
L 1493.168291 -364.036364 
L 1494.398975 -358.945455 
L 1495.617813 -353.854545 
L 1496.813611 -348.763636 
L 1497.975012 -343.672727 
L 1499.090593 -338.581818 
L 1500.148918 -333.490909 
L 1501.138576 -328.4 
L 1502.048187 -323.309091 
L 1502.866418 -318.218182 
L 1503.58199 -313.127273 
L 1504.183716 -308.036364 
L 1504.660555 -302.945455 
L 1505.001706 -297.854545 
L 1505.196745 -292.763636 
L 1505.235789 -287.672727 
L 1505.109717 -282.581818 
L 1504.810404 -277.490909 
L 1504.330996 -272.4 
L 1503.666185 -267.309091 
L 1502.812487 -262.218182 
L 1501.768509 -257.127273 
L 1500.535174 -252.036364 
L 1499.115913 -246.945455 
L 1497.516783 -241.854545 
L 1495.746532 -236.763636 
L 1493.816571 -231.672727 
L 1491.740872 -226.581818 
L 1489.535777 -221.490909 
L 1487.219733 -216.4 
L 1484.812946 -211.309091 
L 1482.336982 -206.218182 
L 1479.814311 -201.127273 
L 1477.267826 -196.036364 
L 1474.720345 -190.945455 
L 1472.194119 -185.854545 
L 1469.710361 -180.763636 
L 1467.288821 -175.672727 
L 1464.947409 -170.581818 
L 1462.701886 -165.490909 
L 1460.565636 -160.4 
L 1458.549509 -155.309091 
L 1456.661757 -150.218182 
L 1454.908035 -145.127273 
L 1453.29149 -140.036364 
L 1451.812903 -134.945455 
L 1450.470894 -129.854545 
L 1449.262161 -124.763636 
L 1448.181761 -119.672727 
L 1447.223395 -114.581818 
L 1446.379705 -109.490909 
L 1445.642567 -104.4 
z
" style="stroke: #595959; stroke-width: 1.5"/>
                </defs>
                <g clip-path="url(#p39d5c14235)">
                    <use xlink:href="#m2c86bf8614" x="0" y="720"
                         style="fill: #db96c0; stroke: #595959; stroke-width: 1.5"/>
                </g>
            </g>
            <g id="PolyCollection_5">
                <defs>
                    <path id="m723d4e6bf8" d="M 1778.547653 -140.832642
L 1774.652347 -140.832642 
L 1774.303278 -144.079995 
L 1773.905719 -147.327348 
L 1773.455677 -150.574701 
L 1772.949315 -153.822054 
L 1772.383059 -157.069407 
L 1771.7537 -160.31676 
L 1771.058505 -163.564113 
L 1770.295339 -166.811466 
L 1769.46277 -170.058819 
L 1768.560187 -173.306172 
L 1767.587896 -176.553525 
L 1766.547219 -179.800878 
L 1765.440566 -183.048231 
L 1764.271494 -186.295584 
L 1763.044749 -189.542937 
L 1761.766278 -192.79029 
L 1760.443215 -196.037643 
L 1759.08385 -199.284996 
L 1757.697556 -202.532349 
L 1756.294702 -205.779702 
L 1754.886531 -209.027055 
L 1753.485016 -212.274408 
L 1752.102694 -215.521761 
L 1750.752484 -218.769114 
L 1749.447482 -222.016467 
L 1748.200752 -225.26382 
L 1747.025108 -228.511173 
L 1745.932887 -231.758526 
L 1744.935734 -235.005879 
L 1744.044386 -238.253232 
L 1743.268472 -241.500585 
L 1742.616323 -244.747938 
L 1742.094805 -247.995291 
L 1741.709177 -251.242644 
L 1741.462969 -254.489997 
L 1741.357895 -257.73735 
L 1741.393797 -260.984703 
L 1741.568622 -264.232056 
L 1741.878435 -267.479409 
L 1742.317465 -270.726762 
L 1742.878198 -273.974115 
L 1743.551493 -277.221468 
L 1744.326741 -280.468821 
L 1745.192056 -283.716174 
L 1746.134492 -286.963527 
L 1747.140289 -290.21088 
L 1748.195137 -293.458233 
L 1749.284457 -296.705586 
L 1750.393692 -299.952939 
L 1751.508597 -303.200292 
L 1752.615522 -306.447645 
L 1753.701689 -309.694998 
L 1754.755441 -312.942351 
L 1755.766467 -316.189704 
L 1756.725993 -319.437057 
L 1757.626931 -322.68441 
L 1758.463986 -325.931763 
L 1759.233713 -329.179116 
L 1759.934525 -332.426469 
L 1760.566651 -335.673822 
L 1761.132043 -338.921175 
L 1761.634243 -342.168528 
L 1762.078202 -345.415881 
L 1762.470071 -348.663234 
L 1762.816956 -351.910587 
L 1763.12666 -355.15794 
L 1763.407412 -358.405293 
L 1763.667594 -361.652646 
L 1763.915476 -364.899999 
L 1764.158963 -368.147352 
L 1764.405373 -371.394705 
L 1764.66124 -374.642058 
L 1764.932149 -377.889411 
L 1765.222624 -381.136764 
L 1765.536042 -384.384117 
L 1765.8746 -387.63147 
L 1766.239321 -390.878823 
L 1766.630097 -394.126176 
L 1767.045765 -397.373529 
L 1767.484224 -400.620882 
L 1767.942557 -403.868235 
L 1768.417189 -407.115588 
L 1768.904044 -410.362941 
L 1769.398712 -413.610294 
L 1769.896607 -416.857647 
L 1770.393127 -420.105 
L 1770.88379 -423.352353 
L 1771.364361 -426.599706 
L 1771.830959 -429.847059 
L 1772.280136 -433.094412 
L 1772.708939 -436.341765 
L 1773.114949 -439.589118 
L 1773.496299 -442.836471 
L 1773.851669 -446.083824 
L 1774.180269 -449.331177 
L 1774.481804 -452.57853 
L 1774.756432 -455.825883 
L 1775.004707 -459.073236 
L 1775.227522 -462.320589 
L 1777.972478 -462.320589 
L 1777.972478 -462.320589 
L 1778.195293 -459.073236 
L 1778.443568 -455.825883 
L 1778.718196 -452.57853 
L 1779.019731 -449.331177 
L 1779.348331 -446.083824 
L 1779.703701 -442.836471 
L 1780.085051 -439.589118 
L 1780.491061 -436.341765 
L 1780.919864 -433.094412 
L 1781.369041 -429.847059 
L 1781.835639 -426.599706 
L 1782.31621 -423.352353 
L 1782.806873 -420.105 
L 1783.303393 -416.857647 
L 1783.801288 -413.610294 
L 1784.295956 -410.362941 
L 1784.782811 -407.115588 
L 1785.257443 -403.868235 
L 1785.715776 -400.620882 
L 1786.154235 -397.373529 
L 1786.569903 -394.126176 
L 1786.960679 -390.878823 
L 1787.3254 -387.63147 
L 1787.663958 -384.384117 
L 1787.977376 -381.136764 
L 1788.267851 -377.889411 
L 1788.53876 -374.642058 
L 1788.794627 -371.394705 
L 1789.041037 -368.147352 
L 1789.284524 -364.899999 
L 1789.532406 -361.652646 
L 1789.792588 -358.405293 
L 1790.07334 -355.15794 
L 1790.383044 -351.910587 
L 1790.729929 -348.663234 
L 1791.121798 -345.415881 
L 1791.565757 -342.168528 
L 1792.067957 -338.921175 
L 1792.633349 -335.673822 
L 1793.265475 -332.426469 
L 1793.966287 -329.179116 
L 1794.736014 -325.931763 
L 1795.573069 -322.68441 
L 1796.474007 -319.437057 
L 1797.433533 -316.189704 
L 1798.444559 -312.942351 
L 1799.498311 -309.694998 
L 1800.584478 -306.447645 
L 1801.691403 -303.200292 
L 1802.806308 -299.952939 
L 1803.915543 -296.705586 
L 1805.004863 -293.458233 
L 1806.059711 -290.21088 
L 1807.065508 -286.963527 
L 1808.007944 -283.716174 
L 1808.873259 -280.468821 
L 1809.648507 -277.221468 
L 1810.321802 -273.974115 
L 1810.882535 -270.726762 
L 1811.321565 -267.479409 
L 1811.631378 -264.232056 
L 1811.806203 -260.984703 
L 1811.842105 -257.73735 
L 1811.737031 -254.489997 
L 1811.490823 -251.242644 
L 1811.105195 -247.995291 
L 1810.583677 -244.747938 
L 1809.931528 -241.500585 
L 1809.155614 -238.253232 
L 1808.264266 -235.005879 
L 1807.267113 -231.758526 
L 1806.174892 -228.511173 
L 1804.999248 -225.26382 
L 1803.752518 -222.016467 
L 1802.447516 -218.769114 
L 1801.097306 -215.521761 
L 1799.714984 -212.274408 
L 1798.313469 -209.027055 
L 1796.905298 -205.779702 
L 1795.502444 -202.532349 
L 1794.11615 -199.284996 
L 1792.756785 -196.037643 
L 1791.433722 -192.79029 
L 1790.155251 -189.542937 
L 1788.928506 -186.295584 
L 1787.759434 -183.048231 
L 1786.652781 -179.800878 
L 1785.612104 -176.553525 
L 1784.639813 -173.306172 
L 1783.73723 -170.058819 
L 1782.904661 -166.811466 
L 1782.141495 -163.564113 
L 1781.4463 -160.31676 
L 1780.816941 -157.069407 
L 1780.250685 -153.822054 
L 1779.744323 -150.574701 
L 1779.294281 -147.327348 
L 1778.896722 -144.079995 
L 1778.547653 -140.832642 
z
" style="stroke: #595959; stroke-width: 1.5"/>
                </defs>
                <g clip-path="url(#p39d5c14235)">
                    <use xlink:href="#m723d4e6bf8" x="0" y="720"
                         style="fill: #a2c865; stroke: #595959; stroke-width: 1.5"/>
                </g>
            </g>
            <g id="matplotlib.axis_1">
                <g id="xtick_1">
                    <g id="line2d_1">
                        <defs>
                            <path id="m2b622a8c3e" d="M 0 0
L 0 3.5 
" style="stroke: #000000; stroke-width: 0.8"/>
                        </defs>
                        <g>
                            <use xlink:href="#m2b622a8c3e" x="437.4" y="640.8"
                                 style="stroke: #000000; stroke-width: 0.8"/>
                        </g>
                    </g>
                    <g id="text_1">
                        <!-- 1 -->
                        <g transform="translate(431.0375 662.996875)scale(0.2 -0.2)">
                            <defs>
                                <path id="DejaVuSans-31" d="M 794 531
L 1825 531 
L 1825 4091 
L 703 3866 
L 703 4441 
L 1819 4666 
L 2450 4666 
L 2450 531 
L 3481 531 
L 3481 0 
L 794 0 
L 794 531 
z
" transform="scale(0.015625)"/>
                            </defs>
                            <use xlink:href="#DejaVuSans-31"/>
                        </g>
                    </g>
                </g>
                <g id="xtick_2">
                    <g id="line2d_2">
                        <g>
                            <use xlink:href="#m2b622a8c3e" x="772.2" y="640.8"
                                 style="stroke: #000000; stroke-width: 0.8"/>
                        </g>
                    </g>
                    <g id="text_2">
                        <!-- 2 -->
                        <g transform="translate(765.8375 662.996875)scale(0.2 -0.2)">
                            <defs>
                                <path id="DejaVuSans-32" d="M 1228 531
L 3431 531 
L 3431 0 
L 469 0 
L 469 531 
Q 828 903 1448 1529 
Q 2069 2156 2228 2338 
Q 2531 2678 2651 2914 
Q 2772 3150 2772 3378 
Q 2772 3750 2511 3984 
Q 2250 4219 1831 4219 
Q 1534 4219 1204 4116 
Q 875 4013 500 3803 
L 500 4441 
Q 881 4594 1212 4672 
Q 1544 4750 1819 4750 
Q 2544 4750 2975 4387 
Q 3406 4025 3406 3419 
Q 3406 3131 3298 2873 
Q 3191 2616 2906 2266 
Q 2828 2175 2409 1742 
Q 1991 1309 1228 531 
z
" transform="scale(0.015625)"/>
                            </defs>
                            <use xlink:href="#DejaVuSans-32"/>
                        </g>
                    </g>
                </g>
                <g id="xtick_3">
                    <g id="line2d_3">
                        <g>
                            <use xlink:href="#m2b622a8c3e" x="1107" y="640.8"
                                 style="stroke: #000000; stroke-width: 0.8"/>
                        </g>
                    </g>
                    <g id="text_3">
                        <!-- 3 -->
                        <g transform="translate(1100.6375 662.996875)scale(0.2 -0.2)">
                            <defs>
                                <path id="DejaVuSans-33" d="M 2597 2516
Q 3050 2419 3304 2112 
Q 3559 1806 3559 1356 
Q 3559 666 3084 287 
Q 2609 -91 1734 -91 
Q 1441 -91 1130 -33 
Q 819 25 488 141 
L 488 750 
Q 750 597 1062 519 
Q 1375 441 1716 441 
Q 2309 441 2620 675 
Q 2931 909 2931 1356 
Q 2931 1769 2642 2001 
Q 2353 2234 1838 2234 
L 1294 2234 
L 1294 2753 
L 1863 2753 
Q 2328 2753 2575 2939 
Q 2822 3125 2822 3475 
Q 2822 3834 2567 4026 
Q 2313 4219 1838 4219 
Q 1578 4219 1281 4162 
Q 984 4106 628 3988 
L 628 4550 
Q 988 4650 1302 4700 
Q 1616 4750 1894 4750 
Q 2613 4750 3031 4423 
Q 3450 4097 3450 3541 
Q 3450 3153 3228 2886 
Q 3006 2619 2597 2516 
z
" transform="scale(0.015625)"/>
                            </defs>
                            <use xlink:href="#DejaVuSans-33"/>
                        </g>
                    </g>
                </g>
                <g id="xtick_4">
                    <g id="line2d_4">
                        <g>
                            <use xlink:href="#m2b622a8c3e" x="1441.8" y="640.8"
                                 style="stroke: #000000; stroke-width: 0.8"/>
                        </g>
                    </g>
                    <g id="text_4">
                        <!-- 4 -->
                        <g transform="translate(1435.4375 662.996875)scale(0.2 -0.2)">
                            <defs>
                                <path id="DejaVuSans-34" d="M 2419 4116
L 825 1625 
L 2419 1625 
L 2419 4116 
z
M 2253 4666 
L 3047 4666 
L 3047 1625 
L 3713 1625 
L 3713 1100 
L 3047 1100 
L 3047 0 
L 2419 0 
L 2419 1100 
L 313 1100 
L 313 1709 
L 2253 4666 
z
" transform="scale(0.015625)"/>
                            </defs>
                            <use xlink:href="#DejaVuSans-34"/>
                        </g>
                    </g>
                </g>
                <g id="xtick_5">
                    <g id="line2d_5">
                        <g>
                            <use xlink:href="#m2b622a8c3e" x="1776.6" y="640.8"
                                 style="stroke: #000000; stroke-width: 0.8"/>
                        </g>
                    </g>
                    <g id="text_5">
                        <!-- 5 -->
                        <g transform="translate(1770.2375 662.996875)scale(0.2 -0.2)">
                            <defs>
                                <path id="DejaVuSans-35" d="M 691 4666
L 3169 4666 
L 3169 4134 
L 1269 4134 
L 1269 2991 
Q 1406 3038 1543 3061 
Q 1681 3084 1819 3084 
Q 2600 3084 3056 2656 
Q 3513 2228 3513 1497 
Q 3513 744 3044 326 
Q 2575 -91 1722 -91 
Q 1428 -91 1123 -41 
Q 819 9 494 109 
L 494 744 
Q 775 591 1075 516 
Q 1375 441 1709 441 
Q 2250 441 2565 725 
Q 2881 1009 2881 1497 
Q 2881 1984 2565 2268 
Q 2250 2553 1709 2553 
Q 1456 2553 1204 2497 
Q 953 2441 691 2322 
L 691 4666 
z
" transform="scale(0.015625)"/>
                            </defs>
                            <use xlink:href="#DejaVuSans-35"/>
                        </g>
                    </g>
                </g>
                <g id="text_6">
                    <!-- cluster -->
                    <g transform="translate(1072.992188 686.353125)scale(0.2 -0.2)">
                        <defs>
                            <path id="DejaVuSans-63" d="M 3122 3366
L 3122 2828 
Q 2878 2963 2633 3030 
Q 2388 3097 2138 3097 
Q 1578 3097 1268 2742 
Q 959 2388 959 1747 
Q 959 1106 1268 751 
Q 1578 397 2138 397 
Q 2388 397 2633 464 
Q 2878 531 3122 666 
L 3122 134 
Q 2881 22 2623 -34 
Q 2366 -91 2075 -91 
Q 1284 -91 818 406 
Q 353 903 353 1747 
Q 353 2603 823 3093 
Q 1294 3584 2113 3584 
Q 2378 3584 2631 3529 
Q 2884 3475 3122 3366 
z
" transform="scale(0.015625)"/>
                            <path id="DejaVuSans-6c" d="M 603 4863
L 1178 4863 
L 1178 0 
L 603 0 
L 603 4863 
z
" transform="scale(0.015625)"/>
                            <path id="DejaVuSans-75" d="M 544 1381
L 544 3500 
L 1119 3500 
L 1119 1403 
Q 1119 906 1312 657 
Q 1506 409 1894 409 
Q 2359 409 2629 706 
Q 2900 1003 2900 1516 
L 2900 3500 
L 3475 3500 
L 3475 0 
L 2900 0 
L 2900 538 
Q 2691 219 2414 64 
Q 2138 -91 1772 -91 
Q 1169 -91 856 284 
Q 544 659 544 1381 
z
M 1991 3584 
L 1991 3584 
z
" transform="scale(0.015625)"/>
                            <path id="DejaVuSans-73" d="M 2834 3397
L 2834 2853 
Q 2591 2978 2328 3040 
Q 2066 3103 1784 3103 
Q 1356 3103 1142 2972 
Q 928 2841 928 2578 
Q 928 2378 1081 2264 
Q 1234 2150 1697 2047 
L 1894 2003 
Q 2506 1872 2764 1633 
Q 3022 1394 3022 966 
Q 3022 478 2636 193 
Q 2250 -91 1575 -91 
Q 1294 -91 989 -36 
Q 684 19 347 128 
L 347 722 
Q 666 556 975 473 
Q 1284 391 1588 391 
Q 1994 391 2212 530 
Q 2431 669 2431 922 
Q 2431 1156 2273 1281 
Q 2116 1406 1581 1522 
L 1381 1569 
Q 847 1681 609 1914 
Q 372 2147 372 2553 
Q 372 3047 722 3315 
Q 1072 3584 1716 3584 
Q 2034 3584 2315 3537 
Q 2597 3491 2834 3397 
z
" transform="scale(0.015625)"/>
                            <path id="DejaVuSans-74" d="M 1172 4494
L 1172 3500 
L 2356 3500 
L 2356 3053 
L 1172 3053 
L 1172 1153 
Q 1172 725 1289 603 
Q 1406 481 1766 481 
L 2356 481 
L 2356 0 
L 1766 0 
Q 1100 0 847 248 
Q 594 497 594 1153 
L 594 3053 
L 172 3053 
L 172 3500 
L 594 3500 
L 594 4494 
L 1172 4494 
z
" transform="scale(0.015625)"/>
                            <path id="DejaVuSans-65" d="M 3597 1894
L 3597 1613 
L 953 1613 
Q 991 1019 1311 708 
Q 1631 397 2203 397 
Q 2534 397 2845 478 
Q 3156 559 3463 722 
L 3463 178 
Q 3153 47 2828 -22 
Q 2503 -91 2169 -91 
Q 1331 -91 842 396 
Q 353 884 353 1716 
Q 353 2575 817 3079 
Q 1281 3584 2069 3584 
Q 2775 3584 3186 3129 
Q 3597 2675 3597 1894 
z
M 3022 2063 
Q 3016 2534 2758 2815 
Q 2500 3097 2075 3097 
Q 1594 3097 1305 2825 
Q 1016 2553 972 2059 
L 3022 2063 
z
" transform="scale(0.015625)"/>
                            <path id="DejaVuSans-72" d="M 2631 2963
Q 2534 3019 2420 3045 
Q 2306 3072 2169 3072 
Q 1681 3072 1420 2755 
Q 1159 2438 1159 1844 
L 1159 0 
L 581 0 
L 581 3500 
L 1159 3500 
L 1159 2956 
Q 1341 3275 1631 3429 
Q 1922 3584 2338 3584 
Q 2397 3584 2469 3576 
Q 2541 3569 2628 3553 
L 2631 2963 
z
" transform="scale(0.015625)"/>
                        </defs>
                        <use xlink:href="#DejaVuSans-63"/>
                        <use xlink:href="#DejaVuSans-6c" x="54.980469"/>
                        <use xlink:href="#DejaVuSans-75" x="82.763672"/>
                        <use xlink:href="#DejaVuSans-73" x="146.142578"/>
                        <use xlink:href="#DejaVuSans-74" x="198.242188"/>
                        <use xlink:href="#DejaVuSans-65" x="237.451172"/>
                        <use xlink:href="#DejaVuSans-72" x="298.974609"/>
                    </g>
                </g>
            </g>
            <g id="matplotlib.axis_2">
                <g id="ytick_1">
                    <g id="line2d_6">
                        <defs>
                            <path id="m8eca6d968b" d="M 0 0
L -3.5 0 
" style="stroke: #000000; stroke-width: 0.8"/>
                        </defs>
                        <g>
                            <use xlink:href="#m8eca6d968b" x="270" y="612.666637"
                                 style="stroke: #000000; stroke-width: 0.8"/>
                        </g>
                    </g>
                    <g id="text_7">
                        <!-- 0 -->
                        <g transform="translate(250.275 620.265075)scale(0.2 -0.2)">
                            <defs>
                                <path id="DejaVuSans-30" d="M 2034 4250
Q 1547 4250 1301 3770 
Q 1056 3291 1056 2328 
Q 1056 1369 1301 889 
Q 1547 409 2034 409 
Q 2525 409 2770 889 
Q 3016 1369 3016 2328 
Q 3016 3291 2770 3770 
Q 2525 4250 2034 4250 
z
M 2034 4750 
Q 2819 4750 3233 4129 
Q 3647 3509 3647 2328 
Q 3647 1150 3233 529 
Q 2819 -91 2034 -91 
Q 1250 -91 836 529 
Q 422 1150 422 2328 
Q 422 3509 836 4129 
Q 1250 4750 2034 4750 
z
" transform="scale(0.015625)"/>
                            </defs>
                            <use xlink:href="#DejaVuSans-30"/>
                        </g>
                    </g>
                </g>
                <g id="ytick_2">
                    <g id="line2d_7">
                        <g>
                            <use xlink:href="#m8eca6d968b" x="270" y="496.954909"
                                 style="stroke: #000000; stroke-width: 0.8"/>
                        </g>
                    </g>
                    <g id="text_8">
                        <!-- 5 -->
                        <g transform="translate(250.275 504.553347)scale(0.2 -0.2)">
                            <use xlink:href="#DejaVuSans-35"/>
                        </g>
                    </g>
                </g>
                <g id="ytick_3">
                    <g id="line2d_8">
                        <g>
                            <use xlink:href="#m8eca6d968b" x="270" y="381.243182"
                                 style="stroke: #000000; stroke-width: 0.8"/>
                        </g>
                    </g>
                    <g id="text_9">
                        <!-- 10 -->
                        <g transform="translate(237.55 388.841619)scale(0.2 -0.2)">
                            <use xlink:href="#DejaVuSans-31"/>
                            <use xlink:href="#DejaVuSans-30" x="63.623047"/>
                        </g>
                    </g>
                </g>
                <g id="ytick_4">
                    <g id="line2d_9">
                        <g>
                            <use xlink:href="#m8eca6d968b" x="270" y="265.531454"
                                 style="stroke: #000000; stroke-width: 0.8"/>
                        </g>
                    </g>
                    <g id="text_10">
                        <!-- 15 -->
                        <g transform="translate(237.55 273.129892)scale(0.2 -0.2)">
                            <use xlink:href="#DejaVuSans-31"/>
                            <use xlink:href="#DejaVuSans-35" x="63.623047"/>
                        </g>
                    </g>
                </g>
                <g id="ytick_5">
                    <g id="line2d_10">
                        <g>
                            <use xlink:href="#m8eca6d968b" x="270" y="149.819726"
                                 style="stroke: #000000; stroke-width: 0.8"/>
                        </g>
                    </g>
                    <g id="text_11">
                        <!-- 20 -->
                        <g transform="translate(237.55 157.418164)scale(0.2 -0.2)">
                            <use xlink:href="#DejaVuSans-32"/>
                            <use xlink:href="#DejaVuSans-30" x="63.623047"/>
                        </g>
                    </g>
                </g>
                <g id="text_12">
                    <!-- log -->
                    <g transform="translate(229.390625 378.845312)rotate(-90)scale(0.2 -0.2)">
                        <defs>
                            <path id="DejaVuSans-6f" d="M 1959 3097
Q 1497 3097 1228 2736 
Q 959 2375 959 1747 
Q 959 1119 1226 758 
Q 1494 397 1959 397 
Q 2419 397 2687 759 
Q 2956 1122 2956 1747 
Q 2956 2369 2687 2733 
Q 2419 3097 1959 3097 
z
M 1959 3584 
Q 2709 3584 3137 3096 
Q 3566 2609 3566 1747 
Q 3566 888 3137 398 
Q 2709 -91 1959 -91 
Q 1206 -91 779 398 
Q 353 888 353 1747 
Q 353 2609 779 3096 
Q 1206 3584 1959 3584 
z
" transform="scale(0.015625)"/>
                            <path id="DejaVuSans-67" d="M 2906 1791
Q 2906 2416 2648 2759 
Q 2391 3103 1925 3103 
Q 1463 3103 1205 2759 
Q 947 2416 947 1791 
Q 947 1169 1205 825 
Q 1463 481 1925 481 
Q 2391 481 2648 825 
Q 2906 1169 2906 1791 
z
M 3481 434 
Q 3481 -459 3084 -895 
Q 2688 -1331 1869 -1331 
Q 1566 -1331 1297 -1286 
Q 1028 -1241 775 -1147 
L 775 -588 
Q 1028 -725 1275 -790 
Q 1522 -856 1778 -856 
Q 2344 -856 2625 -561 
Q 2906 -266 2906 331 
L 2906 616 
Q 2728 306 2450 153 
Q 2172 0 1784 0 
Q 1141 0 747 490 
Q 353 981 353 1791 
Q 353 2603 747 3093 
Q 1141 3584 1784 3584 
Q 2172 3584 2450 3431 
Q 2728 3278 2906 2969 
L 2906 3500 
L 3481 3500 
L 3481 434 
z
" transform="scale(0.015625)"/>
                        </defs>
                        <use xlink:href="#DejaVuSans-6c"/>
                        <use xlink:href="#DejaVuSans-6f" x="27.783203"/>
                        <use xlink:href="#DejaVuSans-67" x="88.964844"/>
                    </g>
                </g>
            </g>
            <g id="line2d_11">
                <path d="M 437.4 487.382361
L 437.4 339.930481 
" clip-path="url(#p39d5c14235)" style="fill: none; stroke: #595959; stroke-width: 1.5; stroke-linecap: square"/>
            </g>
            <g id="line2d_12">
                <path d="M 437.4 470.875081
L 437.4 412.656621 
" clip-path="url(#p39d5c14235)" style="fill: none; stroke: #595959; stroke-width: 4.5; stroke-linecap: square"/>
            </g>
            <g id="line2d_13">
                <path d="M 772.2 484.736323
L 772.2 411.707528 
" clip-path="url(#p39d5c14235)" style="fill: none; stroke: #595959; stroke-width: 1.5; stroke-linecap: square"/>
            </g>
            <g id="line2d_14">
                <path d="M 772.2 471.782406
L 772.2 435.682668 
" clip-path="url(#p39d5c14235)" style="fill: none; stroke: #595959; stroke-width: 4.5; stroke-linecap: square"/>
            </g>
            <g id="line2d_15">
                <path d="M 1107 475.535528
L 1107 342.698535 
" clip-path="url(#p39d5c14235)" style="fill: none; stroke: #595959; stroke-width: 1.5; stroke-linecap: square"/>
            </g>
            <g id="line2d_16">
                <path d="M 1107 440.451056
L 1107 388.449097 
" clip-path="url(#p39d5c14235)" style="fill: none; stroke: #595959; stroke-width: 4.5; stroke-linecap: square"/>
            </g>
            <g id="line2d_17">
                <path d="M 1441.8 494.075587
L 1441.8 233.124413 
" clip-path="url(#p39d5c14235)" style="fill: none; stroke: #595959; stroke-width: 1.5; stroke-linecap: square"/>
            </g>
            <g id="line2d_18">
                <path d="M 1441.8 455.33279
L 1441.8 344.677252 
" clip-path="url(#p39d5c14235)" style="fill: none; stroke: #595959; stroke-width: 4.5; stroke-linecap: square"/>
            </g>
            <g id="line2d_19">
                <path d="M 1776.6 494.288804
L 1776.6 432.125264 
" clip-path="url(#p39d5c14235)" style="fill: none; stroke: #595959; stroke-width: 1.5; stroke-linecap: square"/>
            </g>
            <g id="line2d_20">
                <path d="M 1776.6 473.132775
L 1776.6 432.125264 
" clip-path="url(#p39d5c14235)" style="fill: none; stroke: #595959; stroke-width: 4.5; stroke-linecap: square"/>
            </g>
            <g id="patch_3">
                <path d="M 270 640.8
L 270 86.4 
" style="fill: none; stroke: #000000; stroke-width: 0.8; stroke-linejoin: miter; stroke-linecap: square"/>
            </g>
            <g id="patch_4">
                <path d="M 1944 640.8
L 1944 86.4 
" style="fill: none; stroke: #000000; stroke-width: 0.8; stroke-linejoin: miter; stroke-linecap: square"/>
            </g>
            <g id="patch_5">
                <path d="M 270 640.8
L 1944 640.8 
" style="fill: none; stroke: #000000; stroke-width: 0.8; stroke-linejoin: miter; stroke-linecap: square"/>
            </g>
            <g id="patch_6">
                <path d="M 270 86.4
L 1944 86.4 
" style="fill: none; stroke: #000000; stroke-width: 0.8; stroke-linejoin: miter; stroke-linecap: square"/>
            </g>
            <g id="PathCollection_1">
                <defs>
                    <path id="mbb773c266d" d="M 0 1.5
C 0.397805 1.5 0.77937 1.341951 1.06066 1.06066 
C 1.341951 0.77937 1.5 0.397805 1.5 0 
C 1.5 -0.397805 1.341951 -0.77937 1.06066 -1.06066 
C 0.77937 -1.341951 0.397805 -1.5 0 -1.5 
C -0.397805 -1.5 -0.77937 -1.341951 -1.06066 -1.06066 
C -1.341951 -0.77937 -1.5 -0.397805 -1.5 0 
C -1.5 0.397805 -1.341951 0.77937 -1.06066 1.06066 
C -0.77937 1.341951 -0.397805 1.5 0 1.5 
z
" style="stroke: #595959"/>
                </defs>
                <g clip-path="url(#p39d5c14235)">
                    <use xlink:href="#mbb773c266d" x="437.4" y="457.933842" style="fill: #ffffff; stroke: #595959"/>
                </g>
            </g>
            <g id="PathCollection_2">
                <g clip-path="url(#p39d5c14235)">
                    <use xlink:href="#mbb773c266d" x="772.2" y="451.728149" style="fill: #ffffff; stroke: #595959"/>
                </g>
            </g>
            <g id="PathCollection_3">
                <g clip-path="url(#p39d5c14235)">
                    <use xlink:href="#mbb773c266d" x="1107" y="416.227758" style="fill: #ffffff; stroke: #595959"/>
                </g>
            </g>
            <g id="PathCollection_4">
                <g clip-path="url(#p39d5c14235)">
                    <use xlink:href="#mbb773c266d" x="1441.8" y="407.289458" style="fill: #ffffff; stroke: #595959"/>
                </g>
            </g>
            <g id="PathCollection_5">
                <g clip-path="url(#p39d5c14235)">
                    <use xlink:href="#mbb773c266d" x="1776.6" y="451.045063" style="fill: #ffffff; stroke: #595959"/>
                </g>
            </g>
            <g id="PathCollection_6">
                <defs>
                    <path id="C0_0_9f454e4c08" d="M 0 2.5
C 0.663008 2.5 1.29895 2.236584 1.767767 1.767767 
C 2.236584 1.29895 2.5 0.663008 2.5 -0 
C 2.5 -0.663008 2.236584 -1.29895 1.767767 -1.767767 
C 1.29895 -2.236584 0.663008 -2.5 0 -2.5 
C -0.663008 -2.5 -1.29895 -2.236584 -1.767767 -1.767767 
C -2.236584 -1.29895 -2.5 -0.663008 -2.5 0 
C -2.5 0.663008 -2.236584 1.29895 -1.767767 1.767767 
C -1.29895 2.236584 -0.663008 2.5 0 2.5 
z
"/>
                </defs>
                <g clip-path="url(#p39d5c14235)">
                    <use xlink:href="#C0_0_9f454e4c08" x="437.4" y="487.382361" style="fill: #1f77b4"/>
                </g>
                <g clip-path="url(#p39d5c14235)">
                    <use xlink:href="#C0_0_9f454e4c08" x="432.238815" y="486.466552" style="fill: #1f77b4"/>
                </g>
                <g clip-path="url(#p39d5c14235)">
                    <use xlink:href="#C0_0_9f454e4c08" x="437.4" y="481.051763" style="fill: #1f77b4"/>
                </g>
                <g clip-path="url(#p39d5c14235)">
                    <use xlink:href="#C0_0_9f454e4c08" x="433.454882" y="477.752819" style="fill: #1f77b4"/>
                </g>
                <g clip-path="url(#p39d5c14235)">
                    <use xlink:href="#C0_0_9f454e4c08" x="437.4" y="471.831488" style="fill: #1f77b4"/>
                </g>
                <g clip-path="url(#p39d5c14235)">
                    <use xlink:href="#C0_0_9f454e4c08" x="432.54937" y="469.918675" style="fill: #1f77b4"/>
                </g>
                <g clip-path="url(#p39d5c14235)">
                    <use xlink:href="#C0_0_9f454e4c08" x="438.750009" y="466.999623" style="fill: #1f77b4"/>
                </g>
                <g clip-path="url(#p39d5c14235)">
                    <use xlink:href="#C0_0_9f454e4c08" x="443.977971" y="466.541963" style="fill: #1f77b4"/>
                </g>
                <g clip-path="url(#p39d5c14235)">
                    <use xlink:href="#C0_0_9f454e4c08" x="434.040484" y="464.790002" style="fill: #1f77b4"/>
                </g>
                <g clip-path="url(#p39d5c14235)">
                    <use xlink:href="#C0_0_9f454e4c08" x="437.4" y="457.933842" style="fill: #1f77b4"/>
                </g>
                <g clip-path="url(#p39d5c14235)">
                    <use xlink:href="#C0_0_9f454e4c08" x="432.175792" y="457.438836" style="fill: #1f77b4"/>
                </g>
                <g clip-path="url(#p39d5c14235)">
                    <use xlink:href="#C0_0_9f454e4c08" x="437.4" y="443.37516" style="fill: #1f77b4"/>
                </g>
                <g clip-path="url(#p39d5c14235)">
                    <use xlink:href="#C0_0_9f454e4c08" x="437.4" y="438.366529" style="fill: #1f77b4"/>
                </g>
                <g clip-path="url(#p39d5c14235)">
                    <use xlink:href="#C0_0_9f454e4c08" x="437.4" y="421.97675" style="fill: #1f77b4"/>
                </g>
                <g clip-path="url(#p39d5c14235)">
                    <use xlink:href="#C0_0_9f454e4c08" x="437.4" y="403.336492" style="fill: #1f77b4"/>
                </g>
                <g clip-path="url(#p39d5c14235)">
                    <use xlink:href="#C0_0_9f454e4c08" x="437.4" y="339.930481" style="fill: #1f77b4"/>
                </g>
                <g clip-path="url(#p39d5c14235)">
                    <use xlink:href="#C0_0_9f454e4c08" x="437.4" y="308.006301" style="fill: #1f77b4"/>
                </g>
                <g clip-path="url(#p39d5c14235)">
                    <use xlink:href="#C0_0_9f454e4c08" x="437.4" y="262.70686" style="fill: #1f77b4"/>
                </g>
                <g clip-path="url(#p39d5c14235)">
                    <use xlink:href="#C0_0_9f454e4c08" x="437.4" y="245.110711" style="fill: #1f77b4"/>
                </g>
            </g>
            <g id="PathCollection_7">
                <defs>
                    <path id="C1_0_3769af19f5" d="M 0 2.5
C 0.663008 2.5 1.29895 2.236584 1.767767 1.767767 
C 2.236584 1.29895 2.5 0.663008 2.5 -0 
C 2.5 -0.663008 2.236584 -1.29895 1.767767 -1.767767 
C 1.29895 -2.236584 0.663008 -2.5 0 -2.5 
C -0.663008 -2.5 -1.29895 -2.236584 -1.767767 -1.767767 
C -2.236584 -1.29895 -2.5 -0.663008 -2.5 0 
C -2.5 0.663008 -2.236584 1.29895 -1.767767 1.767767 
C -1.29895 2.236584 -0.663008 2.5 0 2.5 
z
"/>
                </defs>
                <g clip-path="url(#p39d5c14235)">
                    <use xlink:href="#C1_0_3769af19f5" x="772.2" y="484.736323" style="fill: #ff7f0e"/>
                </g>
                <g clip-path="url(#p39d5c14235)">
                    <use xlink:href="#C1_0_3769af19f5" x="772.2" y="471.782406" style="fill: #ff7f0e"/>
                </g>
                <g clip-path="url(#p39d5c14235)">
                    <use xlink:href="#C1_0_3769af19f5" x="772.2" y="451.728149" style="fill: #ff7f0e"/>
                </g>
                <g clip-path="url(#p39d5c14235)">
                    <use xlink:href="#C1_0_3769af19f5" x="772.2" y="435.682668" style="fill: #ff7f0e"/>
                </g>
                <g clip-path="url(#p39d5c14235)">
                    <use xlink:href="#C1_0_3769af19f5" x="772.2" y="411.707528" style="fill: #ff7f0e"/>
                </g>
            </g>
            <g id="PathCollection_8">
                <defs>
                    <path id="C2_0_89d004636a" d="M 0 2.5
C 0.663008 2.5 1.29895 2.236584 1.767767 1.767767 
C 2.236584 1.29895 2.5 0.663008 2.5 -0 
C 2.5 -0.663008 2.236584 -1.29895 1.767767 -1.767767 
C 1.29895 -2.236584 0.663008 -2.5 0 -2.5 
C -0.663008 -2.5 -1.29895 -2.236584 -1.767767 -1.767767 
C -2.236584 -1.29895 -2.5 -0.663008 -2.5 0 
C -2.5 0.663008 -2.236584 1.29895 -1.767767 1.767767 
C -1.29895 2.236584 -0.663008 2.5 0 2.5 
z
"/>
                </defs>
                <g clip-path="url(#p39d5c14235)">
                    <use xlink:href="#C2_0_89d004636a" x="1107" y="475.535528" style="fill: #2ca02c"/>
                </g>
                <g clip-path="url(#p39d5c14235)">
                    <use xlink:href="#C2_0_89d004636a" x="1107" y="428.756232" style="fill: #2ca02c"/>
                </g>
                <g clip-path="url(#p39d5c14235)">
                    <use xlink:href="#C2_0_89d004636a" x="1107" y="403.699284" style="fill: #2ca02c"/>
                </g>
                <g clip-path="url(#p39d5c14235)">
                    <use xlink:href="#C2_0_89d004636a" x="1107" y="342.698535" style="fill: #2ca02c"/>
                </g>
            </g>
            <g id="PathCollection_9">
                <defs>
                    <path id="C3_0_f21c24193c" d="M 0 2.5
C 0.663008 2.5 1.29895 2.236584 1.767767 1.767767 
C 2.236584 1.29895 2.5 0.663008 2.5 -0 
C 2.5 -0.663008 2.236584 -1.29895 1.767767 -1.767767 
C 1.29895 -2.236584 0.663008 -2.5 0 -2.5 
C -0.663008 -2.5 -1.29895 -2.236584 -1.767767 -1.767767 
C -2.236584 -1.29895 -2.5 -0.663008 -2.5 0 
C -2.5 0.663008 -2.236584 1.29895 -1.767767 1.767767 
C -1.29895 2.236584 -0.663008 2.5 0 2.5 
z
"/>
                </defs>
                <g clip-path="url(#p39d5c14235)">
                    <use xlink:href="#C3_0_f21c24193c" x="1441.8" y="494.075587" style="fill: #d62728"/>
                </g>
                <g clip-path="url(#p39d5c14235)">
                    <use xlink:href="#C3_0_f21c24193c" x="1437.681558" y="490.974723" style="fill: #d62728"/>
                </g>
                <g clip-path="url(#p39d5c14235)">
                    <use xlink:href="#C3_0_f21c24193c" x="1441.8" y="455.33279" style="fill: #d62728"/>
                </g>
                <g clip-path="url(#p39d5c14235)">
                    <use xlink:href="#C3_0_f21c24193c" x="1441.8" y="428.853597" style="fill: #d62728"/>
                </g>
                <g clip-path="url(#p39d5c14235)">
                    <use xlink:href="#C3_0_f21c24193c" x="1441.8" y="407.289458" style="fill: #d62728"/>
                </g>
                <g clip-path="url(#p39d5c14235)">
                    <use xlink:href="#C3_0_f21c24193c" x="1441.8" y="361.410534" style="fill: #d62728"/>
                </g>
                <g clip-path="url(#p39d5c14235)">
                    <use xlink:href="#C3_0_f21c24193c" x="1441.8" y="344.677252" style="fill: #d62728"/>
                </g>
                <g clip-path="url(#p39d5c14235)">
                    <use xlink:href="#C3_0_f21c24193c" x="1441.8" y="260.895697" style="fill: #d62728"/>
                </g>
                <g clip-path="url(#p39d5c14235)">
                    <use xlink:href="#C3_0_f21c24193c" x="1441.8" y="233.124413" style="fill: #d62728"/>
                </g>
            </g>
            <g id="PathCollection_10">
                <defs>
                    <path id="C4_0_7bac4e9957" d="M 0 2.5
C 0.663008 2.5 1.29895 2.236584 1.767767 1.767767 
C 2.236584 1.29895 2.5 0.663008 2.5 -0 
C 2.5 -0.663008 2.236584 -1.29895 1.767767 -1.767767 
C 1.29895 -2.236584 0.663008 -2.5 0 -2.5 
C -0.663008 -2.5 -1.29895 -2.236584 -1.767767 -1.767767 
C -2.236584 -1.29895 -2.5 -0.663008 -2.5 0 
C -2.5 0.663008 -2.236584 1.29895 -1.767767 1.767767 
C -1.29895 2.236584 -0.663008 2.5 0 2.5 
z
"/>
                </defs>
                <g clip-path="url(#p39d5c14235)">
                    <use xlink:href="#C4_0_7bac4e9957" x="1776.6" y="494.288804" style="fill: #9467bd"/>
                </g>
                <g clip-path="url(#p39d5c14235)">
                    <use xlink:href="#C4_0_7bac4e9957" x="1776.6" y="473.132775" style="fill: #9467bd"/>
                </g>
                <g clip-path="url(#p39d5c14235)">
                    <use xlink:href="#C4_0_7bac4e9957" x="1776.6" y="451.045063" style="fill: #9467bd"/>
                </g>
                <g clip-path="url(#p39d5c14235)">
                    <use xlink:href="#C4_0_7bac4e9957" x="1776.6" y="432.125264" style="fill: #9467bd"/>
                </g>
                <g clip-path="url(#p39d5c14235)">
                    <use xlink:href="#C4_0_7bac4e9957" x="1776.6" y="342.557965" style="fill: #9467bd"/>
                </g>
            </g>
            <g id="text_13">
                <!-- P values of Field Environment -->
                <g transform="translate(929.595 80.4)scale(0.24 -0.24)">
                    <defs>
                        <path id="DejaVuSans-50" d="M 1259 4147
L 1259 2394 
L 2053 2394 
Q 2494 2394 2734 2622 
Q 2975 2850 2975 3272 
Q 2975 3691 2734 3919 
Q 2494 4147 2053 4147 
L 1259 4147 
z
M 628 4666 
L 2053 4666 
Q 2838 4666 3239 4311 
Q 3641 3956 3641 3272 
Q 3641 2581 3239 2228 
Q 2838 1875 2053 1875 
L 1259 1875 
L 1259 0 
L 628 0 
L 628 4666 
z
" transform="scale(0.015625)"/>
                        <path id="DejaVuSans-20" transform="scale(0.015625)"/>
                        <path id="DejaVuSans-76" d="M 191 3500
L 800 3500 
L 1894 563 
L 2988 3500 
L 3597 3500 
L 2284 0 
L 1503 0 
L 191 3500 
z
" transform="scale(0.015625)"/>
                        <path id="DejaVuSans-61" d="M 2194 1759
Q 1497 1759 1228 1600 
Q 959 1441 959 1056 
Q 959 750 1161 570 
Q 1363 391 1709 391 
Q 2188 391 2477 730 
Q 2766 1069 2766 1631 
L 2766 1759 
L 2194 1759 
z
M 3341 1997 
L 3341 0 
L 2766 0 
L 2766 531 
Q 2569 213 2275 61 
Q 1981 -91 1556 -91 
Q 1019 -91 701 211 
Q 384 513 384 1019 
Q 384 1609 779 1909 
Q 1175 2209 1959 2209 
L 2766 2209 
L 2766 2266 
Q 2766 2663 2505 2880 
Q 2244 3097 1772 3097 
Q 1472 3097 1187 3025 
Q 903 2953 641 2809 
L 641 3341 
Q 956 3463 1253 3523 
Q 1550 3584 1831 3584 
Q 2591 3584 2966 3190 
Q 3341 2797 3341 1997 
z
" transform="scale(0.015625)"/>
                        <path id="DejaVuSans-66" d="M 2375 4863
L 2375 4384 
L 1825 4384 
Q 1516 4384 1395 4259 
Q 1275 4134 1275 3809 
L 1275 3500 
L 2222 3500 
L 2222 3053 
L 1275 3053 
L 1275 0 
L 697 0 
L 697 3053 
L 147 3053 
L 147 3500 
L 697 3500 
L 697 3744 
Q 697 4328 969 4595 
Q 1241 4863 1831 4863 
L 2375 4863 
z
" transform="scale(0.015625)"/>
                        <path id="DejaVuSans-46" d="M 628 4666
L 3309 4666 
L 3309 4134 
L 1259 4134 
L 1259 2759 
L 3109 2759 
L 3109 2228 
L 1259 2228 
L 1259 0 
L 628 0 
L 628 4666 
z
" transform="scale(0.015625)"/>
                        <path id="DejaVuSans-69" d="M 603 3500
L 1178 3500 
L 1178 0 
L 603 0 
L 603 3500 
z
M 603 4863 
L 1178 4863 
L 1178 4134 
L 603 4134 
L 603 4863 
z
" transform="scale(0.015625)"/>
                        <path id="DejaVuSans-64" d="M 2906 2969
L 2906 4863 
L 3481 4863 
L 3481 0 
L 2906 0 
L 2906 525 
Q 2725 213 2448 61 
Q 2172 -91 1784 -91 
Q 1150 -91 751 415 
Q 353 922 353 1747 
Q 353 2572 751 3078 
Q 1150 3584 1784 3584 
Q 2172 3584 2448 3432 
Q 2725 3281 2906 2969 
z
M 947 1747 
Q 947 1113 1208 752 
Q 1469 391 1925 391 
Q 2381 391 2643 752 
Q 2906 1113 2906 1747 
Q 2906 2381 2643 2742 
Q 2381 3103 1925 3103 
Q 1469 3103 1208 2742 
Q 947 2381 947 1747 
z
" transform="scale(0.015625)"/>
                        <path id="DejaVuSans-45" d="M 628 4666
L 3578 4666 
L 3578 4134 
L 1259 4134 
L 1259 2753 
L 3481 2753 
L 3481 2222 
L 1259 2222 
L 1259 531 
L 3634 531 
L 3634 0 
L 628 0 
L 628 4666 
z
" transform="scale(0.015625)"/>
                        <path id="DejaVuSans-6e" d="M 3513 2113
L 3513 0 
L 2938 0 
L 2938 2094 
Q 2938 2591 2744 2837 
Q 2550 3084 2163 3084 
Q 1697 3084 1428 2787 
Q 1159 2491 1159 1978 
L 1159 0 
L 581 0 
L 581 3500 
L 1159 3500 
L 1159 2956 
Q 1366 3272 1645 3428 
Q 1925 3584 2291 3584 
Q 2894 3584 3203 3211 
Q 3513 2838 3513 2113 
z
" transform="scale(0.015625)"/>
                        <path id="DejaVuSans-6d" d="M 3328 2828
Q 3544 3216 3844 3400 
Q 4144 3584 4550 3584 
Q 5097 3584 5394 3201 
Q 5691 2819 5691 2113 
L 5691 0 
L 5113 0 
L 5113 2094 
Q 5113 2597 4934 2840 
Q 4756 3084 4391 3084 
Q 3944 3084 3684 2787 
Q 3425 2491 3425 1978 
L 3425 0 
L 2847 0 
L 2847 2094 
Q 2847 2600 2669 2842 
Q 2491 3084 2119 3084 
Q 1678 3084 1418 2786 
Q 1159 2488 1159 1978 
L 1159 0 
L 581 0 
L 581 3500 
L 1159 3500 
L 1159 2956 
Q 1356 3278 1631 3431 
Q 1906 3584 2284 3584 
Q 2666 3584 2933 3390 
Q 3200 3197 3328 2828 
z
" transform="scale(0.015625)"/>
                    </defs>
                    <use xlink:href="#DejaVuSans-50"/>
                    <use xlink:href="#DejaVuSans-20" x="60.302734"/>
                    <use xlink:href="#DejaVuSans-76" x="92.089844"/>
                    <use xlink:href="#DejaVuSans-61" x="151.269531"/>
                    <use xlink:href="#DejaVuSans-6c" x="212.548828"/>
                    <use xlink:href="#DejaVuSans-75" x="240.332031"/>
                    <use xlink:href="#DejaVuSans-65" x="303.710938"/>
                    <use xlink:href="#DejaVuSans-73" x="365.234375"/>
                    <use xlink:href="#DejaVuSans-20" x="417.333984"/>
                    <use xlink:href="#DejaVuSans-6f" x="449.121094"/>
                    <use xlink:href="#DejaVuSans-66" x="510.302734"/>
                    <use xlink:href="#DejaVuSans-20" x="545.507812"/>
                    <use xlink:href="#DejaVuSans-46" x="577.294922"/>
                    <use xlink:href="#DejaVuSans-69" x="627.564453"/>
                    <use xlink:href="#DejaVuSans-65" x="655.347656"/>
                    <use xlink:href="#DejaVuSans-6c" x="716.871094"/>
                    <use xlink:href="#DejaVuSans-64" x="744.654297"/>
                    <use xlink:href="#DejaVuSans-20" x="808.130859"/>
                    <use xlink:href="#DejaVuSans-45" x="839.917969"/>
                    <use xlink:href="#DejaVuSans-6e" x="903.101562"/>
                    <use xlink:href="#DejaVuSans-76" x="966.480469"/>
                    <use xlink:href="#DejaVuSans-69" x="1025.660156"/>
                    <use xlink:href="#DejaVuSans-72" x="1053.443359"/>
                    <use xlink:href="#DejaVuSans-6f" x="1092.306641"/>
                    <use xlink:href="#DejaVuSans-6e" x="1153.488281"/>
                    <use xlink:href="#DejaVuSans-6d" x="1216.867188"/>
                    <use xlink:href="#DejaVuSans-65" x="1314.279297"/>
                    <use xlink:href="#DejaVuSans-6e" x="1375.802734"/>
                    <use xlink:href="#DejaVuSans-74" x="1439.181641"/>
                </g>
            </g>
        </g>
    </g>
    <defs>
        <clipPath id="p39d5c14235">
            <rect x="270" y="86.4" width="1674" height="554.4"/>
        </clipPath>
    </defs>
</svg>
