<?xml version="1.0" encoding="utf-8" standalone="no"?>
<!DOCTYPE svg PUBLIC "-//W3C//DTD SVG 1.1//EN"
        "http://www.w3.org/Graphics/SVG/1.1/DTD/svg11.dtd">
<svg xmlns:xlink="http://www.w3.org/1999/xlink" width="2160pt" height="720pt" viewBox="0 0 2160 720"
     xmlns="http://www.w3.org/2000/svg" version="1.1">
    <metadata>
        <rdf:RDF xmlns:dc="http://purl.org/dc/elements/1.1/" xmlns:cc="http://creativecommons.org/ns#"
                 xmlns:rdf="http://www.w3.org/1999/02/22-rdf-syntax-ns#">
            <cc:Work>
                <dc:type rdf:resource="http://purl.org/dc/dcmitype/StillImage"/>
                <dc:date>2022-06-10T17:50:39.946661</dc:date>
                <dc:format>image/svg+xml</dc:format>
                <dc:creator>
                    <cc:Agent>
                        <dc:title>Matplotlib v3.5.1, https://matplotlib.org/</dc:title>
                    </cc:Agent>
                </dc:creator>
            </cc:Work>
        </rdf:RDF>
    </metadata>
    <defs>
        <style type="text/css">*{stroke-linejoin: round; stroke-linecap: butt}</style>
    </defs>
    <g id="figure_1">
        <g id="patch_1">
            <path d="M 0 720
L 2160 720 
L 2160 0 
L 0 0 
z
" style="fill: #ffffff"/>
        </g>
        <g id="axes_1">
            <g id="patch_2">
                <path d="M 270 640.8
L 1944 640.8 
L 1944 86.4 
L 270 86.4 
z
" style="fill: #ffffff"/>
            </g>
            <g id="PolyCollection_1">
                <defs>
                    <path id="m71a67c14d9" d="M 491.672495 -104.4
L 466.827505 -104.4 
L 465.058568 -109.490909 
L 463.102276 -114.581818 
L 460.949066 -119.672727 
L 458.590415 -124.763636 
L 456.01907 -129.854545 
L 453.229293 -134.945455 
L 450.217091 -140.036364 
L 446.980431 -145.127273 
L 443.519443 -150.218182 
L 439.836589 -155.309091 
L 435.936805 -160.4 
L 431.827598 -165.490909 
L 427.51911 -170.581818 
L 423.024123 -175.672727 
L 418.358021 -180.763636 
L 413.538698 -185.854545 
L 408.586415 -190.945455 
L 403.523604 -196.036364 
L 398.374624 -201.127273 
L 393.165473 -206.218182 
L 387.923463 -211.309091 
L 382.676864 -216.4 
L 377.454518 -221.490909 
L 372.285442 -226.581818 
L 367.198427 -231.672727 
L 362.221632 -236.763636 
L 357.382196 -241.854545 
L 352.705867 -246.945455 
L 348.216663 -252.036364 
L 343.936561 -257.127273 
L 339.885242 -262.218182 
L 336.079868 -267.309091 
L 332.534922 -272.4 
L 329.2621 -277.490909 
L 326.270253 -282.581818 
L 323.565391 -287.672727 
L 321.150741 -292.763636 
L 319.026855 -297.854545 
L 317.19177 -302.945455 
L 315.64121 -308.036364 
L 314.368832 -313.127273 
L 313.366503 -318.218182 
L 312.624605 -323.309091 
L 312.132364 -328.4 
L 311.878186 -333.490909 
L 311.85 -338.581818 
L 312.035605 -343.672727 
L 312.422995 -348.763636 
L 313.000669 -353.854545 
L 313.757918 -358.945455 
L 314.685069 -364.036364 
L 315.77369 -369.127273 
L 317.016753 -374.218182 
L 318.408731 -379.309091 
L 319.945651 -384.4 
L 321.62508 -389.490909 
L 323.446051 -394.581818 
L 325.408939 -399.672727 
L 327.515274 -404.763636 
L 329.767502 -409.854545 
L 332.168715 -414.945455 
L 334.722334 -420.036364 
L 337.431774 -425.127273 
L 340.300096 -430.218182 
L 343.329658 -435.309091 
L 346.521773 -440.4 
L 349.876395 -445.490909 
L 353.39184 -450.581818 
L 357.064549 -455.672727 
L 360.888905 -460.763636 
L 364.857115 -465.854545 
L 368.959155 -470.945455 
L 373.182782 -476.036364 
L 377.51362 -481.127273 
L 381.935306 -486.218182 
L 386.429701 -491.309091 
L 390.977155 -496.4 
L 395.556816 -501.490909 
L 400.146977 -506.581818 
L 404.725448 -511.672727 
L 409.269936 -516.763636 
L 413.758433 -521.854545 
L 418.16959 -526.945455 
L 422.483066 -532.036364 
L 426.679856 -537.127273 
L 430.742568 -542.218182 
L 434.655667 -547.309091 
L 438.40566 -552.4 
L 441.981231 -557.490909 
L 445.373325 -562.581818 
L 448.575175 -567.672727 
L 451.582285 -572.763636 
L 454.392357 -577.854545 
L 457.00519 -582.945455 
L 459.422529 -588.036364 
L 461.647899 -593.127273 
L 463.686404 -598.218182 
L 465.544525 -603.309091 
L 467.229897 -608.4 
L 491.270103 -608.4 
L 491.270103 -608.4 
L 492.955475 -603.309091 
L 494.813596 -598.218182 
L 496.852101 -593.127273 
L 499.077471 -588.036364 
L 501.49481 -582.945455 
L 504.107643 -577.854545 
L 506.917715 -572.763636 
L 509.924825 -567.672727 
L 513.126675 -562.581818 
L 516.518769 -557.490909 
L 520.09434 -552.4 
L 523.844333 -547.309091 
L 527.757432 -542.218182 
L 531.820144 -537.127273 
L 536.016934 -532.036364 
L 540.33041 -526.945455 
L 544.741567 -521.854545 
L 549.230064 -516.763636 
L 553.774552 -511.672727 
L 558.353023 -506.581818 
L 562.943184 -501.490909 
L 567.522845 -496.4 
L 572.070299 -491.309091 
L 576.564694 -486.218182 
L 580.98638 -481.127273 
L 585.317218 -476.036364 
L 589.540845 -470.945455 
L 593.642885 -465.854545 
L 597.611095 -460.763636 
L 601.435451 -455.672727 
L 605.10816 -450.581818 
L 608.623605 -445.490909 
L 611.978227 -440.4 
L 615.170342 -435.309091 
L 618.199904 -430.218182 
L 621.068226 -425.127273 
L 623.777666 -420.036364 
L 626.331285 -414.945455 
L 628.732498 -409.854545 
L 630.984726 -404.763636 
L 633.091061 -399.672727 
L 635.053949 -394.581818 
L 636.87492 -389.490909 
L 638.554349 -384.4 
L 640.091269 -379.309091 
L 641.483247 -374.218182 
L 642.72631 -369.127273 
L 643.814931 -364.036364 
L 644.742082 -358.945455 
L 645.499331 -353.854545 
L 646.077005 -348.763636 
L 646.464395 -343.672727 
L 646.65 -338.581818 
L 646.621814 -333.490909 
L 646.367636 -328.4 
L 645.875395 -323.309091 
L 645.133497 -318.218182 
L 644.131168 -313.127273 
L 642.85879 -308.036364 
L 641.30823 -302.945455 
L 639.473145 -297.854545 
L 637.349259 -292.763636 
L 634.934609 -287.672727 
L 632.229747 -282.581818 
L 629.2379 -277.490909 
L 625.965078 -272.4 
L 622.420132 -267.309091 
L 618.614758 -262.218182 
L 614.563439 -257.127273 
L 610.283337 -252.036364 
L 605.794133 -246.945455 
L 601.117804 -241.854545 
L 596.278368 -236.763636 
L 591.301573 -231.672727 
L 586.214558 -226.581818 
L 581.045482 -221.490909 
L 575.823136 -216.4 
L 570.576537 -211.309091 
L 565.334527 -206.218182 
L 560.125376 -201.127273 
L 554.976396 -196.036364 
L 549.913585 -190.945455 
L 544.961302 -185.854545 
L 540.141979 -180.763636 
L 535.475877 -175.672727 
L 530.98089 -170.581818 
L 526.672402 -165.490909 
L 522.563195 -160.4 
L 518.663411 -155.309091 
L 514.980557 -150.218182 
L 511.519569 -145.127273 
L 508.282909 -140.036364 
L 505.270707 -134.945455 
L 502.48093 -129.854545 
L 499.909585 -124.763636 
L 497.550934 -119.672727 
L 495.397724 -114.581818 
L 493.441432 -109.490909 
L 491.672495 -104.4 
z
" style="stroke: #595959; stroke-width: 1.5"/>
                </defs>
                <g clip-path="url(#p49e422eb8f)">
                    <use xlink:href="#m71a67c14d9" x="0" y="720"
                         style="fill: #72b6a1; stroke: #595959; stroke-width: 1.5"/>
                </g>
            </g>
            <g id="PolyCollection_2">
                <defs>
                    <path id="m74f703da2f" d="M 908.363301 -258.525766
L 887.136699 -258.525766 
L 885.866954 -258.903982 
L 884.486917 -259.282198 
L 882.992785 -259.660415 
L 881.381387 -260.038631 
L 879.650297 -260.416847 
L 877.797919 -260.795063 
L 875.823586 -261.173279 
L 873.727639 -261.551496 
L 871.511503 -261.929712 
L 869.177747 -262.307928 
L 866.730127 -262.686144 
L 864.173617 -263.06436 
L 861.514416 -263.442576 
L 858.759935 -263.820793 
L 855.918769 -264.199009 
L 853.000634 -264.577225 
L 850.016294 -264.955441 
L 846.977457 -265.333657 
L 843.896656 -265.711873 
L 840.78711 -266.09009 
L 837.662565 -266.468306 
L 834.537123 -266.846522 
L 831.425065 -267.224738 
L 828.340659 -267.602954 
L 825.297975 -267.981171 
L 822.310696 -268.359387 
L 819.391938 -268.737603 
L 816.554082 -269.115819 
L 813.808625 -269.494035 
L 811.16604 -269.872251 
L 808.635676 -270.250468 
L 806.225671 -270.628684 
L 803.9429 -271.0069 
L 801.792952 -271.385116 
L 799.780138 -271.763332 
L 797.907533 -272.141548 
L 796.177038 -272.519765 
L 794.589484 -272.897981 
L 793.144742 -273.276197 
L 791.841872 -273.654413 
L 790.67927 -274.032629 
L 789.654842 -274.410846 
L 788.766169 -274.789062 
L 788.010681 -275.167278 
L 787.38582 -275.545494 
L 786.889195 -275.92371 
L 786.518714 -276.301926 
L 786.272705 -276.680143 
L 786.15 -277.058359 
L 786.15 -277.436575 
L 786.272705 -277.814791 
L 786.518714 -278.193007 
L 786.889195 -278.571223 
L 787.38582 -278.94944 
L 788.010681 -279.327656 
L 788.766169 -279.705872 
L 789.654842 -280.084088 
L 790.67927 -280.462304 
L 791.841872 -280.840521 
L 793.144742 -281.218737 
L 794.589484 -281.596953 
L 796.177038 -281.975169 
L 797.907533 -282.353385 
L 799.780138 -282.731601 
L 801.792952 -283.109818 
L 803.9429 -283.488034 
L 806.225671 -283.86625 
L 808.635676 -284.244466 
L 811.16604 -284.622682 
L 813.808625 -285.000898 
L 816.554082 -285.379115 
L 819.391938 -285.757331 
L 822.310696 -286.135547 
L 825.297975 -286.513763 
L 828.340659 -286.891979 
L 831.425065 -287.270196 
L 834.537123 -287.648412 
L 837.662565 -288.026628 
L 840.78711 -288.404844 
L 843.896656 -288.78306 
L 846.977457 -289.161276 
L 850.016294 -289.539493 
L 853.000634 -289.917709 
L 855.918769 -290.295925 
L 858.759935 -290.674141 
L 861.514416 -291.052357 
L 864.173617 -291.430573 
L 866.730127 -291.80879 
L 869.177747 -292.187006 
L 871.511503 -292.565222 
L 873.727639 -292.943438 
L 875.823586 -293.321654 
L 877.797919 -293.699871 
L 879.650297 -294.078087 
L 881.381387 -294.456303 
L 882.992785 -294.834519 
L 884.486917 -295.212735 
L 885.866954 -295.590951 
L 887.136699 -295.969168 
L 908.363301 -295.969168 
L 908.363301 -295.969168 
L 909.633046 -295.590951 
L 911.013083 -295.212735 
L 912.507215 -294.834519 
L 914.118613 -294.456303 
L 915.849703 -294.078087 
L 917.702081 -293.699871 
L 919.676414 -293.321654 
L 921.772361 -292.943438 
L 923.988497 -292.565222 
L 926.322253 -292.187006 
L 928.769873 -291.80879 
L 931.326383 -291.430573 
L 933.985584 -291.052357 
L 936.740065 -290.674141 
L 939.581231 -290.295925 
L 942.499366 -289.917709 
L 945.483706 -289.539493 
L 948.522543 -289.161276 
L 951.603344 -288.78306 
L 954.71289 -288.404844 
L 957.837435 -288.026628 
L 960.962877 -287.648412 
L 964.074935 -287.270196 
L 967.159341 -286.891979 
L 970.202025 -286.513763 
L 973.189304 -286.135547 
L 976.108062 -285.757331 
L 978.945918 -285.379115 
L 981.691375 -285.000898 
L 984.33396 -284.622682 
L 986.864324 -284.244466 
L 989.274329 -283.86625 
L 991.5571 -283.488034 
L 993.707048 -283.109818 
L 995.719862 -282.731601 
L 997.592467 -282.353385 
L 999.322962 -281.975169 
L 1000.910516 -281.596953 
L 1002.355258 -281.218737 
L 1003.658128 -280.840521 
L 1004.82073 -280.462304 
L 1005.845158 -280.084088 
L 1006.733831 -279.705872 
L 1007.489319 -279.327656 
L 1008.11418 -278.94944 
L 1008.610805 -278.571223 
L 1008.981286 -278.193007 
L 1009.227295 -277.814791 
L 1009.35 -277.436575 
L 1009.35 -277.058359 
L 1009.227295 -276.680143 
L 1008.981286 -276.301926 
L 1008.610805 -275.92371 
L 1008.11418 -275.545494 
L 1007.489319 -275.167278 
L 1006.733831 -274.789062 
L 1005.845158 -274.410846 
L 1004.82073 -274.032629 
L 1003.658128 -273.654413 
L 1002.355258 -273.276197 
L 1000.910516 -272.897981 
L 999.322962 -272.519765 
L 997.592467 -272.141548 
L 995.719862 -271.763332 
L 993.707048 -271.385116 
L 991.5571 -271.0069 
L 989.274329 -270.628684 
L 986.864324 -270.250468 
L 984.33396 -269.872251 
L 981.691375 -269.494035 
L 978.945918 -269.115819 
L 976.108062 -268.737603 
L 973.189304 -268.359387 
L 970.202025 -267.981171 
L 967.159341 -267.602954 
L 964.074935 -267.224738 
L 960.962877 -266.846522 
L 957.837435 -266.468306 
L 954.71289 -266.09009 
L 951.603344 -265.711873 
L 948.522543 -265.333657 
L 945.483706 -264.955441 
L 942.499366 -264.577225 
L 939.581231 -264.199009 
L 936.740065 -263.820793 
L 933.985584 -263.442576 
L 931.326383 -263.06436 
L 928.769873 -262.686144 
L 926.322253 -262.307928 
L 923.988497 -261.929712 
L 921.772361 -261.551496 
L 919.676414 -261.173279 
L 917.702081 -260.795063 
L 915.849703 -260.416847 
L 914.118613 -260.038631 
L 912.507215 -259.660415 
L 911.013083 -259.282198 
L 909.633046 -258.903982 
L 908.363301 -258.525766 
z
" style="stroke: #595959; stroke-width: 1.5"/>
                </defs>
                <g clip-path="url(#p49e422eb8f)">
                    <use xlink:href="#m74f703da2f" x="0" y="720"
                         style="fill: #e99675; stroke: #595959; stroke-width: 1.5"/>
                </g>
            </g>
            <g id="PolyCollection_3">
                <defs>
                    <path id="md8338ab1d3" d="M 1745.363301 -244.27672
L 1724.136699 -244.27672 
L 1722.866954 -244.859758 
L 1721.486917 -245.442795 
L 1719.992785 -246.025832 
L 1718.381387 -246.608869 
L 1716.650297 -247.191906 
L 1714.797919 -247.774943 
L 1712.823586 -248.357981 
L 1710.727639 -248.941018 
L 1708.511503 -249.524055 
L 1706.177747 -250.107092 
L 1703.730127 -250.690129 
L 1701.173617 -251.273167 
L 1698.514416 -251.856204 
L 1695.759935 -252.439241 
L 1692.918769 -253.022278 
L 1690.000634 -253.605315 
L 1687.016294 -254.188352 
L 1683.977457 -254.77139 
L 1680.896656 -255.354427 
L 1677.78711 -255.937464 
L 1674.662565 -256.520501 
L 1671.537123 -257.103538 
L 1668.425065 -257.686576 
L 1665.340659 -258.269613 
L 1662.297975 -258.85265 
L 1659.310696 -259.435687 
L 1656.391938 -260.018724 
L 1653.554082 -260.601761 
L 1650.808625 -261.184799 
L 1648.16604 -261.767836 
L 1645.635676 -262.350873 
L 1643.225671 -262.93391 
L 1640.9429 -263.516947 
L 1638.792952 -264.099984 
L 1636.780138 -264.683022 
L 1634.907533 -265.266059 
L 1633.177038 -265.849096 
L 1631.589484 -266.432133 
L 1630.144742 -267.01517 
L 1628.841872 -267.598208 
L 1627.67927 -268.181245 
L 1626.654842 -268.764282 
L 1625.766169 -269.347319 
L 1625.010681 -269.930356 
L 1624.38582 -270.513393 
L 1623.889195 -271.096431 
L 1623.518714 -271.679468 
L 1623.272705 -272.262505 
L 1623.15 -272.845542 
L 1623.15 -273.428579 
L 1623.272705 -274.011617 
L 1623.518714 -274.594654 
L 1623.889195 -275.177691 
L 1624.38582 -275.760728 
L 1625.010681 -276.343765 
L 1625.766169 -276.926802 
L 1626.654842 -277.50984 
L 1627.67927 -278.092877 
L 1628.841872 -278.675914 
L 1630.144742 -279.258951 
L 1631.589484 -279.841988 
L 1633.177038 -280.425026 
L 1634.907533 -281.008063 
L 1636.780138 -281.5911 
L 1638.792952 -282.174137 
L 1640.9429 -282.757174 
L 1643.225671 -283.340211 
L 1645.635676 -283.923249 
L 1648.16604 -284.506286 
L 1650.808625 -285.089323 
L 1653.554082 -285.67236 
L 1656.391938 -286.255397 
L 1659.310696 -286.838435 
L 1662.297975 -287.421472 
L 1665.340659 -288.004509 
L 1668.425065 -288.587546 
L 1671.537123 -289.170583 
L 1674.662565 -289.75362 
L 1677.78711 -290.336658 
L 1680.896656 -290.919695 
L 1683.977457 -291.502732 
L 1687.016294 -292.085769 
L 1690.000634 -292.668806 
L 1692.918769 -293.251844 
L 1695.759935 -293.834881 
L 1698.514416 -294.417918 
L 1701.173617 -295.000955 
L 1703.730127 -295.583992 
L 1706.177747 -296.167029 
L 1708.511503 -296.750067 
L 1710.727639 -297.333104 
L 1712.823586 -297.916141 
L 1714.797919 -298.499178 
L 1716.650297 -299.082215 
L 1718.381387 -299.665253 
L 1719.992785 -300.24829 
L 1721.486917 -300.831327 
L 1722.866954 -301.414364 
L 1724.136699 -301.997401 
L 1745.363301 -301.997401 
L 1745.363301 -301.997401 
L 1746.633046 -301.414364 
L 1748.013083 -300.831327 
L 1749.507215 -300.24829 
L 1751.118613 -299.665253 
L 1752.849703 -299.082215 
L 1754.702081 -298.499178 
L 1756.676414 -297.916141 
L 1758.772361 -297.333104 
L 1760.988497 -296.750067 
L 1763.322253 -296.167029 
L 1765.769873 -295.583992 
L 1768.326383 -295.000955 
L 1770.985584 -294.417918 
L 1773.740065 -293.834881 
L 1776.581231 -293.251844 
L 1779.499366 -292.668806 
L 1782.483706 -292.085769 
L 1785.522543 -291.502732 
L 1788.603344 -290.919695 
L 1791.71289 -290.336658 
L 1794.837435 -289.75362 
L 1797.962877 -289.170583 
L 1801.074935 -288.587546 
L 1804.159341 -288.004509 
L 1807.202025 -287.421472 
L 1810.189304 -286.838435 
L 1813.108062 -286.255397 
L 1815.945918 -285.67236 
L 1818.691375 -285.089323 
L 1821.33396 -284.506286 
L 1823.864324 -283.923249 
L 1826.274329 -283.340211 
L 1828.5571 -282.757174 
L 1830.707048 -282.174137 
L 1832.719862 -281.5911 
L 1834.592467 -281.008063 
L 1836.322962 -280.425026 
L 1837.910516 -279.841988 
L 1839.355258 -279.258951 
L 1840.658128 -278.675914 
L 1841.82073 -278.092877 
L 1842.845158 -277.50984 
L 1843.733831 -276.926802 
L 1844.489319 -276.343765 
L 1845.11418 -275.760728 
L 1845.610805 -275.177691 
L 1845.981286 -274.594654 
L 1846.227295 -274.011617 
L 1846.35 -273.428579 
L 1846.35 -272.845542 
L 1846.227295 -272.262505 
L 1845.981286 -271.679468 
L 1845.610805 -271.096431 
L 1845.11418 -270.513393 
L 1844.489319 -269.930356 
L 1843.733831 -269.347319 
L 1842.845158 -268.764282 
L 1841.82073 -268.181245 
L 1840.658128 -267.598208 
L 1839.355258 -267.01517 
L 1837.910516 -266.432133 
L 1836.322962 -265.849096 
L 1834.592467 -265.266059 
L 1832.719862 -264.683022 
L 1830.707048 -264.099984 
L 1828.5571 -263.516947 
L 1826.274329 -262.93391 
L 1823.864324 -262.350873 
L 1821.33396 -261.767836 
L 1818.691375 -261.184799 
L 1815.945918 -260.601761 
L 1813.108062 -260.018724 
L 1810.189304 -259.435687 
L 1807.202025 -258.85265 
L 1804.159341 -258.269613 
L 1801.074935 -257.686576 
L 1797.962877 -257.103538 
L 1794.837435 -256.520501 
L 1791.71289 -255.937464 
L 1788.603344 -255.354427 
L 1785.522543 -254.77139 
L 1782.483706 -254.188352 
L 1779.499366 -253.605315 
L 1776.581231 -253.022278 
L 1773.740065 -252.439241 
L 1770.985584 -251.856204 
L 1768.326383 -251.273167 
L 1765.769873 -250.690129 
L 1763.322253 -250.107092 
L 1760.988497 -249.524055 
L 1758.772361 -248.941018 
L 1756.676414 -248.357981 
L 1754.702081 -247.774943 
L 1752.849703 -247.191906 
L 1751.118613 -246.608869 
L 1749.507215 -246.025832 
L 1748.013083 -245.442795 
L 1746.633046 -244.859758 
L 1745.363301 -244.27672 
z
" style="stroke: #595959; stroke-width: 1.5"/>
                </defs>
                <g clip-path="url(#p49e422eb8f)">
                    <use xlink:href="#md8338ab1d3" x="0" y="720"
                         style="fill: #db96c0; stroke: #595959; stroke-width: 1.5"/>
                </g>
            </g>
            <g id="matplotlib.axis_1">
                <g id="xtick_1">
                    <g id="line2d_1">
                        <defs>
                            <path id="m318dff32a3" d="M 0 0
L 0 3.5 
" style="stroke: #000000; stroke-width: 0.8"/>
                        </defs>
                        <g>
                            <use xlink:href="#m318dff32a3" x="479.25" y="640.8"
                                 style="stroke: #000000; stroke-width: 0.8"/>
                        </g>
                    </g>
                    <g id="text_1">
                        <!-- 1 -->
                        <g transform="translate(472.8875 662.996875)scale(0.2 -0.2)">
                            <defs>
                                <path id="DejaVuSans-31" d="M 794 531
L 1825 531 
L 1825 4091 
L 703 3866 
L 703 4441 
L 1819 4666 
L 2450 4666 
L 2450 531 
L 3481 531 
L 3481 0 
L 794 0 
L 794 531 
z
" transform="scale(0.015625)"/>
                            </defs>
                            <use xlink:href="#DejaVuSans-31"/>
                        </g>
                    </g>
                </g>
                <g id="xtick_2">
                    <g id="line2d_2">
                        <g>
                            <use xlink:href="#m318dff32a3" x="897.75" y="640.8"
                                 style="stroke: #000000; stroke-width: 0.8"/>
                        </g>
                    </g>
                    <g id="text_2">
                        <!-- 2 -->
                        <g transform="translate(891.3875 662.996875)scale(0.2 -0.2)">
                            <defs>
                                <path id="DejaVuSans-32" d="M 1228 531
L 3431 531 
L 3431 0 
L 469 0 
L 469 531 
Q 828 903 1448 1529 
Q 2069 2156 2228 2338 
Q 2531 2678 2651 2914 
Q 2772 3150 2772 3378 
Q 2772 3750 2511 3984 
Q 2250 4219 1831 4219 
Q 1534 4219 1204 4116 
Q 875 4013 500 3803 
L 500 4441 
Q 881 4594 1212 4672 
Q 1544 4750 1819 4750 
Q 2544 4750 2975 4387 
Q 3406 4025 3406 3419 
Q 3406 3131 3298 2873 
Q 3191 2616 2906 2266 
Q 2828 2175 2409 1742 
Q 1991 1309 1228 531 
z
" transform="scale(0.015625)"/>
                            </defs>
                            <use xlink:href="#DejaVuSans-32"/>
                        </g>
                    </g>
                </g>
                <g id="xtick_3">
                    <g id="line2d_3">
                        <g>
                            <use xlink:href="#m318dff32a3" x="1316.25" y="640.8"
                                 style="stroke: #000000; stroke-width: 0.8"/>
                        </g>
                    </g>
                    <g id="text_3">
                        <!-- 3 -->
                        <g transform="translate(1309.8875 662.996875)scale(0.2 -0.2)">
                            <defs>
                                <path id="DejaVuSans-33" d="M 2597 2516
Q 3050 2419 3304 2112 
Q 3559 1806 3559 1356 
Q 3559 666 3084 287 
Q 2609 -91 1734 -91 
Q 1441 -91 1130 -33 
Q 819 25 488 141 
L 488 750 
Q 750 597 1062 519 
Q 1375 441 1716 441 
Q 2309 441 2620 675 
Q 2931 909 2931 1356 
Q 2931 1769 2642 2001 
Q 2353 2234 1838 2234 
L 1294 2234 
L 1294 2753 
L 1863 2753 
Q 2328 2753 2575 2939 
Q 2822 3125 2822 3475 
Q 2822 3834 2567 4026 
Q 2313 4219 1838 4219 
Q 1578 4219 1281 4162 
Q 984 4106 628 3988 
L 628 4550 
Q 988 4650 1302 4700 
Q 1616 4750 1894 4750 
Q 2613 4750 3031 4423 
Q 3450 4097 3450 3541 
Q 3450 3153 3228 2886 
Q 3006 2619 2597 2516 
z
" transform="scale(0.015625)"/>
                            </defs>
                            <use xlink:href="#DejaVuSans-33"/>
                        </g>
                    </g>
                </g>
                <g id="xtick_4">
                    <g id="line2d_4">
                        <g>
                            <use xlink:href="#m318dff32a3" x="1734.75" y="640.8"
                                 style="stroke: #000000; stroke-width: 0.8"/>
                        </g>
                    </g>
                    <g id="text_4">
                        <!-- 5 -->
                        <g transform="translate(1728.3875 662.996875)scale(0.2 -0.2)">
                            <defs>
                                <path id="DejaVuSans-35" d="M 691 4666
L 3169 4666 
L 3169 4134 
L 1269 4134 
L 1269 2991 
Q 1406 3038 1543 3061 
Q 1681 3084 1819 3084 
Q 2600 3084 3056 2656 
Q 3513 2228 3513 1497 
Q 3513 744 3044 326 
Q 2575 -91 1722 -91 
Q 1428 -91 1123 -41 
Q 819 9 494 109 
L 494 744 
Q 775 591 1075 516 
Q 1375 441 1709 441 
Q 2250 441 2565 725 
Q 2881 1009 2881 1497 
Q 2881 1984 2565 2268 
Q 2250 2553 1709 2553 
Q 1456 2553 1204 2497 
Q 953 2441 691 2322 
L 691 4666 
z
" transform="scale(0.015625)"/>
                            </defs>
                            <use xlink:href="#DejaVuSans-35"/>
                        </g>
                    </g>
                </g>
                <g id="text_5">
                    <!-- cluster -->
                    <g transform="translate(1072.992188 686.353125)scale(0.2 -0.2)">
                        <defs>
                            <path id="DejaVuSans-63" d="M 3122 3366
L 3122 2828 
Q 2878 2963 2633 3030 
Q 2388 3097 2138 3097 
Q 1578 3097 1268 2742 
Q 959 2388 959 1747 
Q 959 1106 1268 751 
Q 1578 397 2138 397 
Q 2388 397 2633 464 
Q 2878 531 3122 666 
L 3122 134 
Q 2881 22 2623 -34 
Q 2366 -91 2075 -91 
Q 1284 -91 818 406 
Q 353 903 353 1747 
Q 353 2603 823 3093 
Q 1294 3584 2113 3584 
Q 2378 3584 2631 3529 
Q 2884 3475 3122 3366 
z
" transform="scale(0.015625)"/>
                            <path id="DejaVuSans-6c" d="M 603 4863
L 1178 4863 
L 1178 0 
L 603 0 
L 603 4863 
z
" transform="scale(0.015625)"/>
                            <path id="DejaVuSans-75" d="M 544 1381
L 544 3500 
L 1119 3500 
L 1119 1403 
Q 1119 906 1312 657 
Q 1506 409 1894 409 
Q 2359 409 2629 706 
Q 2900 1003 2900 1516 
L 2900 3500 
L 3475 3500 
L 3475 0 
L 2900 0 
L 2900 538 
Q 2691 219 2414 64 
Q 2138 -91 1772 -91 
Q 1169 -91 856 284 
Q 544 659 544 1381 
z
M 1991 3584 
L 1991 3584 
z
" transform="scale(0.015625)"/>
                            <path id="DejaVuSans-73" d="M 2834 3397
L 2834 2853 
Q 2591 2978 2328 3040 
Q 2066 3103 1784 3103 
Q 1356 3103 1142 2972 
Q 928 2841 928 2578 
Q 928 2378 1081 2264 
Q 1234 2150 1697 2047 
L 1894 2003 
Q 2506 1872 2764 1633 
Q 3022 1394 3022 966 
Q 3022 478 2636 193 
Q 2250 -91 1575 -91 
Q 1294 -91 989 -36 
Q 684 19 347 128 
L 347 722 
Q 666 556 975 473 
Q 1284 391 1588 391 
Q 1994 391 2212 530 
Q 2431 669 2431 922 
Q 2431 1156 2273 1281 
Q 2116 1406 1581 1522 
L 1381 1569 
Q 847 1681 609 1914 
Q 372 2147 372 2553 
Q 372 3047 722 3315 
Q 1072 3584 1716 3584 
Q 2034 3584 2315 3537 
Q 2597 3491 2834 3397 
z
" transform="scale(0.015625)"/>
                            <path id="DejaVuSans-74" d="M 1172 4494
L 1172 3500 
L 2356 3500 
L 2356 3053 
L 1172 3053 
L 1172 1153 
Q 1172 725 1289 603 
Q 1406 481 1766 481 
L 2356 481 
L 2356 0 
L 1766 0 
Q 1100 0 847 248 
Q 594 497 594 1153 
L 594 3053 
L 172 3053 
L 172 3500 
L 594 3500 
L 594 4494 
L 1172 4494 
z
" transform="scale(0.015625)"/>
                            <path id="DejaVuSans-65" d="M 3597 1894
L 3597 1613 
L 953 1613 
Q 991 1019 1311 708 
Q 1631 397 2203 397 
Q 2534 397 2845 478 
Q 3156 559 3463 722 
L 3463 178 
Q 3153 47 2828 -22 
Q 2503 -91 2169 -91 
Q 1331 -91 842 396 
Q 353 884 353 1716 
Q 353 2575 817 3079 
Q 1281 3584 2069 3584 
Q 2775 3584 3186 3129 
Q 3597 2675 3597 1894 
z
M 3022 2063 
Q 3016 2534 2758 2815 
Q 2500 3097 2075 3097 
Q 1594 3097 1305 2825 
Q 1016 2553 972 2059 
L 3022 2063 
z
" transform="scale(0.015625)"/>
                            <path id="DejaVuSans-72" d="M 2631 2963
Q 2534 3019 2420 3045 
Q 2306 3072 2169 3072 
Q 1681 3072 1420 2755 
Q 1159 2438 1159 1844 
L 1159 0 
L 581 0 
L 581 3500 
L 1159 3500 
L 1159 2956 
Q 1341 3275 1631 3429 
Q 1922 3584 2338 3584 
Q 2397 3584 2469 3576 
Q 2541 3569 2628 3553 
L 2631 2963 
z
" transform="scale(0.015625)"/>
                        </defs>
                        <use xlink:href="#DejaVuSans-63"/>
                        <use xlink:href="#DejaVuSans-6c" x="54.980469"/>
                        <use xlink:href="#DejaVuSans-75" x="82.763672"/>
                        <use xlink:href="#DejaVuSans-73" x="146.142578"/>
                        <use xlink:href="#DejaVuSans-74" x="198.242188"/>
                        <use xlink:href="#DejaVuSans-65" x="237.451172"/>
                        <use xlink:href="#DejaVuSans-72" x="298.974609"/>
                    </g>
                </g>
            </g>
            <g id="matplotlib.axis_2">
                <g id="ytick_1">
                    <g id="line2d_5">
                        <defs>
                            <path id="m38b37bded1" d="M 0 0
L -3.5 0 
" style="stroke: #000000; stroke-width: 0.8"/>
                        </defs>
                        <g>
                            <use xlink:href="#m38b37bded1" x="270" y="591.914229"
                                 style="stroke: #000000; stroke-width: 0.8"/>
                        </g>
                    </g>
                    <g id="text_6">
                        <!-- 4 -->
                        <g transform="translate(250.275 599.512667)scale(0.2 -0.2)">
                            <defs>
                                <path id="DejaVuSans-34" d="M 2419 4116
L 825 1625 
L 2419 1625 
L 2419 4116 
z
M 2253 4666 
L 3047 4666 
L 3047 1625 
L 3713 1625 
L 3713 1100 
L 3047 1100 
L 3047 0 
L 2419 0 
L 2419 1100 
L 313 1100 
L 313 1709 
L 2253 4666 
z
" transform="scale(0.015625)"/>
                            </defs>
                            <use xlink:href="#DejaVuSans-34"/>
                        </g>
                    </g>
                </g>
                <g id="ytick_2">
                    <g id="line2d_6">
                        <g>
                            <use xlink:href="#m38b37bded1" x="270" y="480.686235"
                                 style="stroke: #000000; stroke-width: 0.8"/>
                        </g>
                    </g>
                    <g id="text_7">
                        <!-- 5 -->
                        <g transform="translate(250.275 488.284673)scale(0.2 -0.2)">
                            <use xlink:href="#DejaVuSans-35"/>
                        </g>
                    </g>
                </g>
                <g id="ytick_3">
                    <g id="line2d_7">
                        <g>
                            <use xlink:href="#m38b37bded1" x="270" y="369.458241"
                                 style="stroke: #000000; stroke-width: 0.8"/>
                        </g>
                    </g>
                    <g id="text_8">
                        <!-- 6 -->
                        <g transform="translate(250.275 377.056678)scale(0.2 -0.2)">
                            <defs>
                                <path id="DejaVuSans-36" d="M 2113 2584
Q 1688 2584 1439 2293 
Q 1191 2003 1191 1497 
Q 1191 994 1439 701 
Q 1688 409 2113 409 
Q 2538 409 2786 701 
Q 3034 994 3034 1497 
Q 3034 2003 2786 2293 
Q 2538 2584 2113 2584 
z
M 3366 4563 
L 3366 3988 
Q 3128 4100 2886 4159 
Q 2644 4219 2406 4219 
Q 1781 4219 1451 3797 
Q 1122 3375 1075 2522 
Q 1259 2794 1537 2939 
Q 1816 3084 2150 3084 
Q 2853 3084 3261 2657 
Q 3669 2231 3669 1497 
Q 3669 778 3244 343 
Q 2819 -91 2113 -91 
Q 1303 -91 875 529 
Q 447 1150 447 2328 
Q 447 3434 972 4092 
Q 1497 4750 2381 4750 
Q 2619 4750 2861 4703 
Q 3103 4656 3366 4563 
z
" transform="scale(0.015625)"/>
                            </defs>
                            <use xlink:href="#DejaVuSans-36"/>
                        </g>
                    </g>
                </g>
                <g id="ytick_4">
                    <g id="line2d_8">
                        <g>
                            <use xlink:href="#m38b37bded1" x="270" y="258.230247"
                                 style="stroke: #000000; stroke-width: 0.8"/>
                        </g>
                    </g>
                    <g id="text_9">
                        <!-- 7 -->
                        <g transform="translate(250.275 265.828684)scale(0.2 -0.2)">
                            <defs>
                                <path id="DejaVuSans-37" d="M 525 4666
L 3525 4666 
L 3525 4397 
L 1831 0 
L 1172 0 
L 2766 4134 
L 525 4134 
L 525 4666 
z
" transform="scale(0.015625)"/>
                            </defs>
                            <use xlink:href="#DejaVuSans-37"/>
                        </g>
                    </g>
                </g>
                <g id="ytick_5">
                    <g id="line2d_9">
                        <g>
                            <use xlink:href="#m38b37bded1" x="270" y="147.002252"
                                 style="stroke: #000000; stroke-width: 0.8"/>
                        </g>
                    </g>
                    <g id="text_10">
                        <!-- 8 -->
                        <g transform="translate(250.275 154.60069)scale(0.2 -0.2)">
                            <defs>
                                <path id="DejaVuSans-38" d="M 2034 2216
Q 1584 2216 1326 1975 
Q 1069 1734 1069 1313 
Q 1069 891 1326 650 
Q 1584 409 2034 409 
Q 2484 409 2743 651 
Q 3003 894 3003 1313 
Q 3003 1734 2745 1975 
Q 2488 2216 2034 2216 
z
M 1403 2484 
Q 997 2584 770 2862 
Q 544 3141 544 3541 
Q 544 4100 942 4425 
Q 1341 4750 2034 4750 
Q 2731 4750 3128 4425 
Q 3525 4100 3525 3541 
Q 3525 3141 3298 2862 
Q 3072 2584 2669 2484 
Q 3125 2378 3379 2068 
Q 3634 1759 3634 1313 
Q 3634 634 3220 271 
Q 2806 -91 2034 -91 
Q 1263 -91 848 271 
Q 434 634 434 1313 
Q 434 1759 690 2068 
Q 947 2378 1403 2484 
z
M 1172 3481 
Q 1172 3119 1398 2916 
Q 1625 2713 2034 2713 
Q 2441 2713 2670 2916 
Q 2900 3119 2900 3481 
Q 2900 3844 2670 4047 
Q 2441 4250 2034 4250 
Q 1625 4250 1398 4047 
Q 1172 3844 1172 3481 
z
" transform="scale(0.015625)"/>
                            </defs>
                            <use xlink:href="#DejaVuSans-38"/>
                        </g>
                    </g>
                </g>
                <g id="text_11">
                    <!-- log -->
                    <g transform="translate(242.115625 378.845312)rotate(-90)scale(0.2 -0.2)">
                        <defs>
                            <path id="DejaVuSans-6f" d="M 1959 3097
Q 1497 3097 1228 2736 
Q 959 2375 959 1747 
Q 959 1119 1226 758 
Q 1494 397 1959 397 
Q 2419 397 2687 759 
Q 2956 1122 2956 1747 
Q 2956 2369 2687 2733 
Q 2419 3097 1959 3097 
z
M 1959 3584 
Q 2709 3584 3137 3096 
Q 3566 2609 3566 1747 
Q 3566 888 3137 398 
Q 2709 -91 1959 -91 
Q 1206 -91 779 398 
Q 353 888 353 1747 
Q 353 2609 779 3096 
Q 1206 3584 1959 3584 
z
" transform="scale(0.015625)"/>
                            <path id="DejaVuSans-67" d="M 2906 1791
Q 2906 2416 2648 2759 
Q 2391 3103 1925 3103 
Q 1463 3103 1205 2759 
Q 947 2416 947 1791 
Q 947 1169 1205 825 
Q 1463 481 1925 481 
Q 2391 481 2648 825 
Q 2906 1169 2906 1791 
z
M 3481 434 
Q 3481 -459 3084 -895 
Q 2688 -1331 1869 -1331 
Q 1566 -1331 1297 -1286 
Q 1028 -1241 775 -1147 
L 775 -588 
Q 1028 -725 1275 -790 
Q 1522 -856 1778 -856 
Q 2344 -856 2625 -561 
Q 2906 -266 2906 331 
L 2906 616 
Q 2728 306 2450 153 
Q 2172 0 1784 0 
Q 1141 0 747 490 
Q 353 981 353 1791 
Q 353 2603 747 3093 
Q 1141 3584 1784 3584 
Q 2172 3584 2450 3431 
Q 2728 3278 2906 2969 
L 2906 3500 
L 3481 3500 
L 3481 434 
z
" transform="scale(0.015625)"/>
                        </defs>
                        <use xlink:href="#DejaVuSans-6c"/>
                        <use xlink:href="#DejaVuSans-6f" x="27.783203"/>
                        <use xlink:href="#DejaVuSans-67" x="88.964844"/>
                    </g>
                </g>
            </g>
            <g id="line2d_10">
                <path d="M 479.25 460.202854
L 479.25 266.997146 
" clip-path="url(#p49e422eb8f)" style="fill: none; stroke: #595959; stroke-width: 1.5; stroke-linecap: square"/>
            </g>
            <g id="line2d_11">
                <path d="M 479.25 417.13256
L 479.25 320.529706 
" clip-path="url(#p49e422eb8f)" style="fill: none; stroke: #595959; stroke-width: 4.5; stroke-linecap: square"/>
            </g>
            <g id="line2d_12">
                <path d="M 897.75 448.159852
L 897.75 437.345214 
" clip-path="url(#p49e422eb8f)" style="fill: none; stroke: #595959; stroke-width: 1.5; stroke-linecap: square"/>
            </g>
            <g id="line2d_13">
                <path d="M 897.75 445.456193
L 897.75 440.048874 
" clip-path="url(#p49e422eb8f)" style="fill: none; stroke: #595959; stroke-width: 4.5; stroke-linecap: square"/>
            </g>
            <g id="line2d_14">
                <path d="M 1260.45 469.907129
L 1372.05 469.907129 
" clip-path="url(#p49e422eb8f)" style="fill: none; stroke: #595959; stroke-width: 1.5; stroke-linecap: square"/>
            </g>
            <g id="line2d_15">
                <path d="M 1734.75 455.198564
L 1734.75 438.527314 
" clip-path="url(#p49e422eb8f)" style="fill: none; stroke: #595959; stroke-width: 1.5; stroke-linecap: square"/>
            </g>
            <g id="line2d_16">
                <path d="M 1734.75 451.030752
L 1734.75 442.695127 
" clip-path="url(#p49e422eb8f)" style="fill: none; stroke: #595959; stroke-width: 4.5; stroke-linecap: square"/>
            </g>
            <g id="patch_3">
                <path d="M 270 640.8
L 270 86.4 
" style="fill: none; stroke: #000000; stroke-width: 0.8; stroke-linejoin: miter; stroke-linecap: square"/>
            </g>
            <g id="patch_4">
                <path d="M 1944 640.8
L 1944 86.4 
" style="fill: none; stroke: #000000; stroke-width: 0.8; stroke-linejoin: miter; stroke-linecap: square"/>
            </g>
            <g id="patch_5">
                <path d="M 270 640.8
L 1944 640.8 
" style="fill: none; stroke: #000000; stroke-width: 0.8; stroke-linejoin: miter; stroke-linecap: square"/>
            </g>
            <g id="patch_6">
                <path d="M 270 86.4
L 1944 86.4 
" style="fill: none; stroke: #000000; stroke-width: 0.8; stroke-linejoin: miter; stroke-linecap: square"/>
            </g>
            <g id="PathCollection_1">
                <defs>
                    <path id="m80edcdc6b1" d="M 0 1.5
C 0.397805 1.5 0.77937 1.341951 1.06066 1.06066 
C 1.341951 0.77937 1.5 0.397805 1.5 0 
C 1.5 -0.397805 1.341951 -0.77937 1.06066 -1.06066 
C 0.77937 -1.341951 0.397805 -1.5 0 -1.5 
C -0.397805 -1.5 -0.77937 -1.341951 -1.06066 -1.06066 
C -1.341951 -0.77937 -1.5 -0.397805 -1.5 0 
C -1.5 0.397805 -1.341951 0.77937 -1.06066 1.06066 
C -0.77937 1.341951 -0.397805 1.5 0 1.5 
z
" style="stroke: #595959"/>
                </defs>
                <g clip-path="url(#p49e422eb8f)">
                    <use xlink:href="#m80edcdc6b1" x="479.25" y="374.062266" style="fill: #ffffff; stroke: #595959"/>
                </g>
            </g>
            <g id="PathCollection_2">
                <g clip-path="url(#p49e422eb8f)">
                    <use xlink:href="#m80edcdc6b1" x="897.75" y="442.752533" style="fill: #ffffff; stroke: #595959"/>
                </g>
            </g>
            <g id="PathCollection_3">
                <g clip-path="url(#p49e422eb8f)">
                    <use xlink:href="#m80edcdc6b1" x="1734.75" y="446.862939" style="fill: #ffffff; stroke: #595959"/>
                </g>
            </g>
            <g id="PathCollection_4">
                <defs>
                    <path id="C0_0_bfde75a1f8" d="M 0 2.5
C 0.663008 2.5 1.29895 2.236584 1.767767 1.767767 
C 2.236584 1.29895 2.5 0.663008 2.5 -0 
C 2.5 -0.663008 2.236584 -1.29895 1.767767 -1.767767 
C 1.29895 -2.236584 0.663008 -2.5 0 -2.5 
C -0.663008 -2.5 -1.29895 -2.236584 -1.767767 -1.767767 
C -2.236584 -1.29895 -2.5 -0.663008 -2.5 0 
C -2.5 0.663008 -2.236584 1.29895 -1.767767 1.767767 
C -1.29895 2.236584 -0.663008 2.5 0 2.5 
z
"/>
                </defs>
                <g clip-path="url(#p49e422eb8f)">
                    <use xlink:href="#C0_0_bfde75a1f8" x="479.25" y="460.202854" style="fill: #1f77b4"/>
                </g>
                <g clip-path="url(#p49e422eb8f)">
                    <use xlink:href="#C0_0_bfde75a1f8" x="479.25" y="374.062266" style="fill: #1f77b4"/>
                </g>
                <g clip-path="url(#p49e422eb8f)">
                    <use xlink:href="#C0_0_bfde75a1f8" x="479.25" y="266.997146" style="fill: #1f77b4"/>
                </g>
            </g>
            <g id="PathCollection_5">
                <defs>
                    <path id="C1_0_4bc241eb09" d="M 0 2.5
C 0.663008 2.5 1.29895 2.236584 1.767767 1.767767 
C 2.236584 1.29895 2.5 0.663008 2.5 -0 
C 2.5 -0.663008 2.236584 -1.29895 1.767767 -1.767767 
C 1.29895 -2.236584 0.663008 -2.5 0 -2.5 
C -0.663008 -2.5 -1.29895 -2.236584 -1.767767 -1.767767 
C -2.236584 -1.29895 -2.5 -0.663008 -2.5 0 
C -2.5 0.663008 -2.236584 1.29895 -1.767767 1.767767 
C -1.29895 2.236584 -0.663008 2.5 0 2.5 
z
"/>
                </defs>
                <g clip-path="url(#p49e422eb8f)">
                    <use xlink:href="#C1_0_4bc241eb09" x="897.75" y="448.159852" style="fill: #ff7f0e"/>
                </g>
                <g clip-path="url(#p49e422eb8f)">
                    <use xlink:href="#C1_0_4bc241eb09" x="897.75" y="437.345214" style="fill: #ff7f0e"/>
                </g>
            </g>
            <g id="PathCollection_6">
                <defs>
                    <path id="m1887e62540" d="M 0 2.5
C 0.663008 2.5 1.29895 2.236584 1.767767 1.767767 
C 2.236584 1.29895 2.5 0.663008 2.5 0 
C 2.5 -0.663008 2.236584 -1.29895 1.767767 -1.767767 
C 1.29895 -2.236584 0.663008 -2.5 0 -2.5 
C -0.663008 -2.5 -1.29895 -2.236584 -1.767767 -1.767767 
C -2.236584 -1.29895 -2.5 -0.663008 -2.5 0 
C -2.5 0.663008 -2.236584 1.29895 -1.767767 1.767767 
C -1.29895 2.236584 -0.663008 2.5 0 2.5 
z
"/>
                </defs>
                <g clip-path="url(#p49e422eb8f)">
                    <use xlink:href="#m1887e62540" x="1316.25" y="469.907129" style="fill: #2ca02c"/>
                </g>
            </g>
            <g id="PathCollection_7">
                <defs>
                    <path id="C2_0_d1bf7cccf7" d="M 0 2.5
C 0.663008 2.5 1.29895 2.236584 1.767767 1.767767 
C 2.236584 1.29895 2.5 0.663008 2.5 -0 
C 2.5 -0.663008 2.236584 -1.29895 1.767767 -1.767767 
C 1.29895 -2.236584 0.663008 -2.5 0 -2.5 
C -0.663008 -2.5 -1.29895 -2.236584 -1.767767 -1.767767 
C -2.236584 -1.29895 -2.5 -0.663008 -2.5 0 
C -2.5 0.663008 -2.236584 1.29895 -1.767767 1.767767 
C -1.29895 2.236584 -0.663008 2.5 0 2.5 
z
"/>
                </defs>
                <g clip-path="url(#p49e422eb8f)">
                    <use xlink:href="#C2_0_d1bf7cccf7" x="1734.75" y="455.198564" style="fill: #d62728"/>
                </g>
                <g clip-path="url(#p49e422eb8f)">
                    <use xlink:href="#C2_0_d1bf7cccf7" x="1734.75" y="438.527314" style="fill: #d62728"/>
                </g>
            </g>
            <g id="text_12">
                <!-- P values of Field Social Interactions -->
                <g transform="translate(895.4625 80.4)scale(0.24 -0.24)">
                    <defs>
                        <path id="DejaVuSans-50" d="M 1259 4147
L 1259 2394 
L 2053 2394 
Q 2494 2394 2734 2622 
Q 2975 2850 2975 3272 
Q 2975 3691 2734 3919 
Q 2494 4147 2053 4147 
L 1259 4147 
z
M 628 4666 
L 2053 4666 
Q 2838 4666 3239 4311 
Q 3641 3956 3641 3272 
Q 3641 2581 3239 2228 
Q 2838 1875 2053 1875 
L 1259 1875 
L 1259 0 
L 628 0 
L 628 4666 
z
" transform="scale(0.015625)"/>
                        <path id="DejaVuSans-20" transform="scale(0.015625)"/>
                        <path id="DejaVuSans-76" d="M 191 3500
L 800 3500 
L 1894 563 
L 2988 3500 
L 3597 3500 
L 2284 0 
L 1503 0 
L 191 3500 
z
" transform="scale(0.015625)"/>
                        <path id="DejaVuSans-61" d="M 2194 1759
Q 1497 1759 1228 1600 
Q 959 1441 959 1056 
Q 959 750 1161 570 
Q 1363 391 1709 391 
Q 2188 391 2477 730 
Q 2766 1069 2766 1631 
L 2766 1759 
L 2194 1759 
z
M 3341 1997 
L 3341 0 
L 2766 0 
L 2766 531 
Q 2569 213 2275 61 
Q 1981 -91 1556 -91 
Q 1019 -91 701 211 
Q 384 513 384 1019 
Q 384 1609 779 1909 
Q 1175 2209 1959 2209 
L 2766 2209 
L 2766 2266 
Q 2766 2663 2505 2880 
Q 2244 3097 1772 3097 
Q 1472 3097 1187 3025 
Q 903 2953 641 2809 
L 641 3341 
Q 956 3463 1253 3523 
Q 1550 3584 1831 3584 
Q 2591 3584 2966 3190 
Q 3341 2797 3341 1997 
z
" transform="scale(0.015625)"/>
                        <path id="DejaVuSans-66" d="M 2375 4863
L 2375 4384 
L 1825 4384 
Q 1516 4384 1395 4259 
Q 1275 4134 1275 3809 
L 1275 3500 
L 2222 3500 
L 2222 3053 
L 1275 3053 
L 1275 0 
L 697 0 
L 697 3053 
L 147 3053 
L 147 3500 
L 697 3500 
L 697 3744 
Q 697 4328 969 4595 
Q 1241 4863 1831 4863 
L 2375 4863 
z
" transform="scale(0.015625)"/>
                        <path id="DejaVuSans-46" d="M 628 4666
L 3309 4666 
L 3309 4134 
L 1259 4134 
L 1259 2759 
L 3109 2759 
L 3109 2228 
L 1259 2228 
L 1259 0 
L 628 0 
L 628 4666 
z
" transform="scale(0.015625)"/>
                        <path id="DejaVuSans-69" d="M 603 3500
L 1178 3500 
L 1178 0 
L 603 0 
L 603 3500 
z
M 603 4863 
L 1178 4863 
L 1178 4134 
L 603 4134 
L 603 4863 
z
" transform="scale(0.015625)"/>
                        <path id="DejaVuSans-64" d="M 2906 2969
L 2906 4863 
L 3481 4863 
L 3481 0 
L 2906 0 
L 2906 525 
Q 2725 213 2448 61 
Q 2172 -91 1784 -91 
Q 1150 -91 751 415 
Q 353 922 353 1747 
Q 353 2572 751 3078 
Q 1150 3584 1784 3584 
Q 2172 3584 2448 3432 
Q 2725 3281 2906 2969 
z
M 947 1747 
Q 947 1113 1208 752 
Q 1469 391 1925 391 
Q 2381 391 2643 752 
Q 2906 1113 2906 1747 
Q 2906 2381 2643 2742 
Q 2381 3103 1925 3103 
Q 1469 3103 1208 2742 
Q 947 2381 947 1747 
z
" transform="scale(0.015625)"/>
                        <path id="DejaVuSans-53" d="M 3425 4513
L 3425 3897 
Q 3066 4069 2747 4153 
Q 2428 4238 2131 4238 
Q 1616 4238 1336 4038 
Q 1056 3838 1056 3469 
Q 1056 3159 1242 3001 
Q 1428 2844 1947 2747 
L 2328 2669 
Q 3034 2534 3370 2195 
Q 3706 1856 3706 1288 
Q 3706 609 3251 259 
Q 2797 -91 1919 -91 
Q 1588 -91 1214 -16 
Q 841 59 441 206 
L 441 856 
Q 825 641 1194 531 
Q 1563 422 1919 422 
Q 2459 422 2753 634 
Q 3047 847 3047 1241 
Q 3047 1584 2836 1778 
Q 2625 1972 2144 2069 
L 1759 2144 
Q 1053 2284 737 2584 
Q 422 2884 422 3419 
Q 422 4038 858 4394 
Q 1294 4750 2059 4750 
Q 2388 4750 2728 4690 
Q 3069 4631 3425 4513 
z
" transform="scale(0.015625)"/>
                        <path id="DejaVuSans-49" d="M 628 4666
L 1259 4666 
L 1259 0 
L 628 0 
L 628 4666 
z
" transform="scale(0.015625)"/>
                        <path id="DejaVuSans-6e" d="M 3513 2113
L 3513 0 
L 2938 0 
L 2938 2094 
Q 2938 2591 2744 2837 
Q 2550 3084 2163 3084 
Q 1697 3084 1428 2787 
Q 1159 2491 1159 1978 
L 1159 0 
L 581 0 
L 581 3500 
L 1159 3500 
L 1159 2956 
Q 1366 3272 1645 3428 
Q 1925 3584 2291 3584 
Q 2894 3584 3203 3211 
Q 3513 2838 3513 2113 
z
" transform="scale(0.015625)"/>
                    </defs>
                    <use xlink:href="#DejaVuSans-50"/>
                    <use xlink:href="#DejaVuSans-20" x="60.302734"/>
                    <use xlink:href="#DejaVuSans-76" x="92.089844"/>
                    <use xlink:href="#DejaVuSans-61" x="151.269531"/>
                    <use xlink:href="#DejaVuSans-6c" x="212.548828"/>
                    <use xlink:href="#DejaVuSans-75" x="240.332031"/>
                    <use xlink:href="#DejaVuSans-65" x="303.710938"/>
                    <use xlink:href="#DejaVuSans-73" x="365.234375"/>
                    <use xlink:href="#DejaVuSans-20" x="417.333984"/>
                    <use xlink:href="#DejaVuSans-6f" x="449.121094"/>
                    <use xlink:href="#DejaVuSans-66" x="510.302734"/>
                    <use xlink:href="#DejaVuSans-20" x="545.507812"/>
                    <use xlink:href="#DejaVuSans-46" x="577.294922"/>
                    <use xlink:href="#DejaVuSans-69" x="627.564453"/>
                    <use xlink:href="#DejaVuSans-65" x="655.347656"/>
                    <use xlink:href="#DejaVuSans-6c" x="716.871094"/>
                    <use xlink:href="#DejaVuSans-64" x="744.654297"/>
                    <use xlink:href="#DejaVuSans-20" x="808.130859"/>
                    <use xlink:href="#DejaVuSans-53" x="839.917969"/>
                    <use xlink:href="#DejaVuSans-6f" x="903.394531"/>
                    <use xlink:href="#DejaVuSans-63" x="964.576172"/>
                    <use xlink:href="#DejaVuSans-69" x="1019.556641"/>
                    <use xlink:href="#DejaVuSans-61" x="1047.339844"/>
                    <use xlink:href="#DejaVuSans-6c" x="1108.619141"/>
                    <use xlink:href="#DejaVuSans-20" x="1136.402344"/>
                    <use xlink:href="#DejaVuSans-49" x="1168.189453"/>
                    <use xlink:href="#DejaVuSans-6e" x="1197.681641"/>
                    <use xlink:href="#DejaVuSans-74" x="1261.060547"/>
                    <use xlink:href="#DejaVuSans-65" x="1300.269531"/>
                    <use xlink:href="#DejaVuSans-72" x="1361.792969"/>
                    <use xlink:href="#DejaVuSans-61" x="1402.90625"/>
                    <use xlink:href="#DejaVuSans-63" x="1464.185547"/>
                    <use xlink:href="#DejaVuSans-74" x="1519.166016"/>
                    <use xlink:href="#DejaVuSans-69" x="1558.375"/>
                    <use xlink:href="#DejaVuSans-6f" x="1586.158203"/>
                    <use xlink:href="#DejaVuSans-6e" x="1647.339844"/>
                    <use xlink:href="#DejaVuSans-73" x="1710.71875"/>
                </g>
            </g>
        </g>
    </g>
    <defs>
        <clipPath id="p49e422eb8f">
            <rect x="270" y="86.4" width="1674" height="554.4"/>
        </clipPath>
    </defs>
</svg>
