<?xml version="1.0" encoding="utf-8" standalone="no"?>
<!DOCTYPE svg PUBLIC "-//W3C//DTD SVG 1.1//EN"
        "http://www.w3.org/Graphics/SVG/1.1/DTD/svg11.dtd">
<svg xmlns:xlink="http://www.w3.org/1999/xlink" width="2160pt" height="720pt" viewBox="0 0 2160 720"
     xmlns="http://www.w3.org/2000/svg" version="1.1">
    <metadata>
        <rdf:RDF xmlns:dc="http://purl.org/dc/elements/1.1/" xmlns:cc="http://creativecommons.org/ns#"
                 xmlns:rdf="http://www.w3.org/1999/02/22-rdf-syntax-ns#">
            <cc:Work>
                <dc:type rdf:resource="http://purl.org/dc/dcmitype/StillImage"/>
                <dc:date>2022-06-10T17:50:39.070307</dc:date>
                <dc:format>image/svg+xml</dc:format>
                <dc:creator>
                    <cc:Agent>
                        <dc:title>Matplotlib v3.5.1, https://matplotlib.org/</dc:title>
                    </cc:Agent>
                </dc:creator>
            </cc:Work>
        </rdf:RDF>
    </metadata>
    <defs>
        <style type="text/css">*{stroke-linejoin: round; stroke-linecap: butt}</style>
    </defs>
    <g id="figure_1">
        <g id="patch_1">
            <path d="M 0 720
L 2160 720 
L 2160 0 
L 0 0 
z
" style="fill: #ffffff"/>
        </g>
        <g id="axes_1">
            <g id="patch_2">
                <path d="M 270 640.8
L 1944 640.8 
L 1944 86.4 
L 270 86.4 
z
" style="fill: #ffffff"/>
            </g>
            <g id="PolyCollection_1">
                <defs>
                    <path id="ma2e17eba5f" d="M 418.416501 -116.600478
L 400.583499 -116.600478 
L 397.655989 -121.56815 
L 394.033702 -126.535822 
L 389.644978 -131.503494 
L 384.440961 -136.471166 
L 378.405569 -141.438838 
L 371.565051 -146.40651 
L 363.995943 -151.374182 
L 355.830215 -156.341854 
L 347.256422 -161.309526 
L 338.516019 -166.277198 
L 329.894374 -171.244869 
L 321.706668 -176.212541 
L 314.27946 -181.180213 
L 307.929351 -186.147885 
L 302.940659 -191.115557 
L 299.54429 -196.083229 
L 297.9 -201.050901 
L 298.083939 -206.018573 
L 300.082846 -210.986245 
L 303.79549 -215.953917 
L 309.041161 -220.921589 
L 315.574213 -225.889261 
L 323.103039 -230.856933 
L 331.311449 -235.824605 
L 339.880286 -240.792277 
L 348.507276 -245.759949 
L 356.923474 -250.72762 
L 364.905224 -255.695292 
L 372.281118 -260.662964 
L 378.934069 -265.630636 
L 384.799073 -270.598308 
L 389.857571 -275.56598 
L 394.129536 -280.533652 
L 397.664387 -285.501324 
L 400.531761 -290.468996 
L 402.812937 -295.436668 
L 404.593484 -300.40434 
L 405.957443 -305.372012 
L 406.983126 -310.339684 
L 407.740454 -315.307356 
L 408.289606 -320.275028 
L 408.680722 -325.2427 
L 408.954362 -330.210371 
L 409.142449 -335.178043 
L 409.269472 -340.145715 
L 409.353762 -345.113387 
L 409.40872 -350.081059 
L 409.443923 -355.048731 
L 409.466065 -360.016403 
L 409.479715 -364.984075 
L 409.487924 -369.951747 
L 409.492664 -374.919419 
L 409.495164 -379.887091 
L 409.496127 -384.854763 
L 409.495882 -389.822435 
L 409.494466 -394.790107 
L 409.49166 -399.757779 
L 409.486991 -404.725451 
L 409.479701 -409.693122 
L 409.468694 -414.660794 
L 409.452477 -419.628466 
L 409.429087 -424.596138 
L 409.396028 -429.56381 
L 409.350235 -434.531482 
L 409.288076 -439.499154 
L 409.205404 -444.466826 
L 409.097706 -449.434498 
L 408.960324 -454.40217 
L 408.788798 -459.369842 
L 408.579287 -464.337514 
L 408.329081 -469.305186 
L 408.037149 -474.272858 
L 407.704669 -479.24053 
L 407.335488 -484.208202 
L 406.936422 -489.175873 
L 406.517338 -494.143545 
L 406.090956 -499.111217 
L 405.67235 -504.078889 
L 405.27815 -509.046561 
L 404.925491 -514.014233 
L 404.630805 -518.981905 
L 404.408557 -523.949577 
L 404.270072 -528.917249 
L 404.222582 -533.884921 
L 404.268595 -538.852593 
L 404.40568 -543.820265 
L 404.626678 -548.787937 
L 404.920321 -553.755609 
L 405.272184 -558.723281 
L 405.665859 -563.690953 
L 406.084211 -568.658624 
L 406.510592 -573.626296 
L 406.929898 -578.593968 
L 407.329367 -583.56164 
L 407.699083 -588.529312 
L 408.032183 -593.496984 
L 408.324775 -598.464656 
L 408.575639 -603.432328 
L 408.785779 -608.4 
L 410.214221 -608.4 
L 410.214221 -608.4 
L 410.424361 -603.432328 
L 410.675225 -598.464656 
L 410.967817 -593.496984 
L 411.300917 -588.529312 
L 411.670633 -583.56164 
L 412.070102 -578.593968 
L 412.489408 -573.626296 
L 412.915789 -568.658624 
L 413.334141 -563.690953 
L 413.727816 -558.723281 
L 414.079679 -553.755609 
L 414.373322 -548.787937 
L 414.59432 -543.820265 
L 414.731405 -538.852593 
L 414.777418 -533.884921 
L 414.729928 -528.917249 
L 414.591443 -523.949577 
L 414.369195 -518.981905 
L 414.074509 -514.014233 
L 413.72185 -509.046561 
L 413.32765 -504.078889 
L 412.909044 -499.111217 
L 412.482662 -494.143545 
L 412.063578 -489.175873 
L 411.664512 -484.208202 
L 411.295331 -479.24053 
L 410.962851 -474.272858 
L 410.670919 -469.305186 
L 410.420713 -464.337514 
L 410.211202 -459.369842 
L 410.039676 -454.40217 
L 409.902294 -449.434498 
L 409.794596 -444.466826 
L 409.711924 -439.499154 
L 409.649765 -434.531482 
L 409.603972 -429.56381 
L 409.570913 -424.596138 
L 409.547523 -419.628466 
L 409.531306 -414.660794 
L 409.520299 -409.693122 
L 409.513009 -404.725451 
L 409.50834 -399.757779 
L 409.505534 -394.790107 
L 409.504118 -389.822435 
L 409.503873 -384.854763 
L 409.504836 -379.887091 
L 409.507336 -374.919419 
L 409.512076 -369.951747 
L 409.520285 -364.984075 
L 409.533935 -360.016403 
L 409.556077 -355.048731 
L 409.59128 -350.081059 
L 409.646238 -345.113387 
L 409.730528 -340.145715 
L 409.857551 -335.178043 
L 410.045638 -330.210371 
L 410.319278 -325.2427 
L 410.710394 -320.275028 
L 411.259546 -315.307356 
L 412.016874 -310.339684 
L 413.042557 -305.372012 
L 414.406516 -300.40434 
L 416.187063 -295.436668 
L 418.468239 -290.468996 
L 421.335613 -285.501324 
L 424.870464 -280.533652 
L 429.142429 -275.56598 
L 434.200927 -270.598308 
L 440.065931 -265.630636 
L 446.718882 -260.662964 
L 454.094776 -255.695292 
L 462.076526 -250.72762 
L 470.492724 -245.759949 
L 479.119714 -240.792277 
L 487.688551 -235.824605 
L 495.896961 -230.856933 
L 503.425787 -225.889261 
L 509.958839 -220.921589 
L 515.20451 -215.953917 
L 518.917154 -210.986245 
L 520.916061 -206.018573 
L 521.1 -201.050901 
L 519.45571 -196.083229 
L 516.059341 -191.115557 
L 511.070649 -186.147885 
L 504.72054 -181.180213 
L 497.293332 -176.212541 
L 489.105626 -171.244869 
L 480.483981 -166.277198 
L 471.743578 -161.309526 
L 463.169785 -156.341854 
L 455.004057 -151.374182 
L 447.434949 -146.40651 
L 440.594431 -141.438838 
L 434.559039 -136.471166 
L 429.355022 -131.503494 
L 424.966298 -126.535822 
L 421.344011 -121.56815 
L 418.416501 -116.600478 
z
" style="stroke: #595959; stroke-width: 1.5"/>
                </defs>
                <g clip-path="url(#p02ea648b41)">
                    <use xlink:href="#ma2e17eba5f" x="0" y="720"
                         style="fill: #72b6a1; stroke: #595959; stroke-width: 1.5"/>
                </g>
            </g>
            <g id="PolyCollection_2">
                <defs>
                    <path id="ma82b77420d" d="M 691.81254 -145.890959
L 685.18746 -145.890959 
L 684.055956 -148.772381 
L 682.625412 -151.653802 
L 680.847368 -154.535224 
L 678.674909 -157.416646 
L 676.065771 -160.298067 
L 672.985826 -163.179489 
L 669.412701 -166.06091 
L 665.339221 -168.942332 
L 660.776343 -171.823754 
L 655.755216 -174.705175 
L 650.328083 -177.586597 
L 644.567785 -180.468018 
L 638.565806 -183.34944 
L 632.428895 -186.230861 
L 626.274502 -189.112283 
L 620.225384 -191.993705 
L 614.40384 -194.875126 
L 608.926091 -197.756548 
L 603.897305 -200.637969 
L 599.407677 -203.519391 
L 595.529861 -206.400813 
L 592.317868 -209.282234 
L 589.807381 -212.163656 
L 588.017276 -215.045077 
L 586.951992 -217.926499 
L 586.604348 -220.807921 
L 586.958367 -223.689342 
L 587.99172 -226.570764 
L 589.677494 -229.452185 
L 591.985129 -232.333607 
L 594.880497 -235.215028 
L 598.325247 -238.09645 
L 602.275658 -240.977872 
L 606.681321 -243.859293 
L 611.48399 -246.740715 
L 616.616944 -249.622136 
L 622.0051 -252.503558 
L 627.566046 -255.38498 
L 633.212 -258.266401 
L 638.852604 -261.147823 
L 644.398304 -264.029244 
L 649.764024 -266.910666 
L 654.872773 -269.792088 
L 659.658831 -272.673509 
L 664.070226 -275.554931 
L 668.070287 -278.436352 
L 671.638171 -281.317774 
L 674.768372 -284.199195 
L 677.469334 -287.080617 
L 679.761349 -289.962039 
L 681.673996 -292.84346 
L 683.243372 -295.724882 
L 684.509341 -298.606303 
L 685.51303 -301.487725 
L 686.294688 -304.369147 
L 686.891997 -307.250568 
L 687.33887 -310.13199 
L 687.664698 -313.013411 
L 687.893994 -315.894833 
L 688.04636 -318.776255 
L 688.13669 -321.657676 
L 688.175552 -324.539098 
L 688.169661 -327.420519 
L 688.12244 -330.301941 
L 688.034615 -333.183362 
L 687.904853 -336.064784 
L 687.730446 -338.946206 
L 687.508027 -341.827627 
L 687.234336 -344.709049 
L 686.907008 -347.59047 
L 686.525347 -350.471892 
L 686.091061 -353.353314 
L 685.608859 -356.234735 
L 685.086881 -359.116157 
L 684.536851 -361.997578 
L 683.97393 -364.879 
L 683.416216 -367.760422 
L 682.883902 -370.641843 
L 682.398134 -373.523265 
L 681.97966 -376.404686 
L 681.647372 -379.286108 
L 681.416901 -382.16753 
L 681.299403 -385.048951 
L 681.300657 -387.930373 
L 681.420603 -390.811794 
L 681.653341 -393.693216 
L 681.987613 -396.574637 
L 682.407707 -399.456059 
L 682.89468 -402.337481 
L 683.427769 -405.218902 
L 683.985842 -408.100324 
L 684.548758 -410.981745 
L 685.098508 -413.863167 
L 685.620054 -416.744589 
L 686.101839 -419.62601 
L 686.535956 -422.507432 
L 686.918011 -425.388853 
L 687.246759 -428.270275 
L 687.523562 -431.151697 
L 689.476438 -431.151697 
L 689.476438 -431.151697 
L 689.753241 -428.270275 
L 690.081989 -425.388853 
L 690.464044 -422.507432 
L 690.898161 -419.62601 
L 691.379946 -416.744589 
L 691.901492 -413.863167 
L 692.451242 -410.981745 
L 693.014158 -408.100324 
L 693.572231 -405.218902 
L 694.10532 -402.337481 
L 694.592293 -399.456059 
L 695.012387 -396.574637 
L 695.346659 -393.693216 
L 695.579397 -390.811794 
L 695.699343 -387.930373 
L 695.700597 -385.048951 
L 695.583099 -382.16753 
L 695.352628 -379.286108 
L 695.02034 -376.404686 
L 694.601866 -373.523265 
L 694.116098 -370.641843 
L 693.583784 -367.760422 
L 693.02607 -364.879 
L 692.463149 -361.997578 
L 691.913119 -359.116157 
L 691.391141 -356.234735 
L 690.908939 -353.353314 
L 690.474653 -350.471892 
L 690.092992 -347.59047 
L 689.765664 -344.709049 
L 689.491973 -341.827627 
L 689.269554 -338.946206 
L 689.095147 -336.064784 
L 688.965385 -333.183362 
L 688.87756 -330.301941 
L 688.830339 -327.420519 
L 688.824448 -324.539098 
L 688.86331 -321.657676 
L 688.95364 -318.776255 
L 689.106006 -315.894833 
L 689.335302 -313.013411 
L 689.66113 -310.13199 
L 690.108003 -307.250568 
L 690.705312 -304.369147 
L 691.48697 -301.487725 
L 692.490659 -298.606303 
L 693.756628 -295.724882 
L 695.326004 -292.84346 
L 697.238651 -289.962039 
L 699.530666 -287.080617 
L 702.231628 -284.199195 
L 705.361829 -281.317774 
L 708.929713 -278.436352 
L 712.929774 -275.554931 
L 717.341169 -272.673509 
L 722.127227 -269.792088 
L 727.235976 -266.910666 
L 732.601696 -264.029244 
L 738.147396 -261.147823 
L 743.788 -258.266401 
L 749.433954 -255.38498 
L 754.9949 -252.503558 
L 760.383056 -249.622136 
L 765.51601 -246.740715 
L 770.318679 -243.859293 
L 774.724342 -240.977872 
L 778.674753 -238.09645 
L 782.119503 -235.215028 
L 785.014871 -232.333607 
L 787.322506 -229.452185 
L 789.00828 -226.570764 
L 790.041633 -223.689342 
L 790.395652 -220.807921 
L 790.048008 -217.926499 
L 788.982724 -215.045077 
L 787.192619 -212.163656 
L 784.682132 -209.282234 
L 781.470139 -206.400813 
L 777.592323 -203.519391 
L 773.102695 -200.637969 
L 768.073909 -197.756548 
L 762.59616 -194.875126 
L 756.774616 -191.993705 
L 750.725498 -189.112283 
L 744.571105 -186.230861 
L 738.434194 -183.34944 
L 732.432215 -180.468018 
L 726.671917 -177.586597 
L 721.244784 -174.705175 
L 716.223657 -171.823754 
L 711.660779 -168.942332 
L 707.587299 -166.06091 
L 704.014174 -163.179489 
L 700.934229 -160.298067 
L 698.325091 -157.416646 
L 696.152632 -154.535224 
L 694.374588 -151.653802 
L 692.944044 -148.772381 
L 691.81254 -145.890959 
z
" style="stroke: #595959; stroke-width: 1.5"/>
                </defs>
                <g clip-path="url(#p02ea648b41)">
                    <use xlink:href="#ma82b77420d" x="0" y="720"
                         style="fill: #e99675; stroke: #595959; stroke-width: 1.5"/>
                </g>
            </g>
            <g id="PolyCollection_3">
                <defs>
                    <path id="mb0f3412e17" d="M 970.072117 -154.02552
L 964.927883 -154.02552 
L 964.485671 -155.437565 
L 963.987441 -156.84961 
L 963.429981 -158.261654 
L 962.81061 -159.673699 
L 962.127311 -161.085744 
L 961.378877 -162.497789 
L 960.565037 -163.909833 
L 959.686577 -165.321878 
L 958.745448 -166.733923 
L 957.744839 -168.145968 
L 956.689239 -169.558012 
L 955.584446 -170.970057 
L 954.437557 -172.382102 
L 953.256909 -173.794146 
L 952.051976 -175.206191 
L 950.833238 -176.618236 
L 949.611998 -178.030281 
L 948.400172 -179.442325 
L 947.210051 -180.85437 
L 946.054039 -182.266415 
L 944.944376 -183.67846 
L 943.89286 -185.090504 
L 942.910576 -186.502549 
L 942.007641 -187.914594 
L 941.192967 -189.326638 
L 940.474068 -190.738683 
L 939.856902 -192.150728 
L 939.345761 -193.562773 
L 938.943207 -194.974817 
L 938.65007 -196.386862 
L 938.465479 -197.798907 
L 938.386957 -199.210952 
L 938.410547 -200.622996 
L 938.530982 -202.035041 
L 938.741872 -203.447086 
L 939.035919 -204.859131 
L 939.405141 -206.271175 
L 939.841094 -207.68322 
L 940.335087 -209.095265 
L 940.878384 -210.507309 
L 941.462385 -211.919354 
L 942.078785 -213.331399 
L 942.719696 -214.743444 
L 943.377753 -216.155488 
L 944.046179 -217.567533 
L 944.718835 -218.979578 
L 945.390237 -220.391623 
L 946.055555 -221.803667 
L 946.710607 -223.215712 
L 947.351826 -224.627757 
L 947.976234 -226.039802 
L 948.581408 -227.451846 
L 949.165447 -228.863891 
L 949.726945 -230.275936 
L 950.264964 -231.68798 
L 950.779018 -233.100025 
L 951.269055 -234.51207 
L 951.735444 -235.924115 
L 952.178965 -237.336159 
L 952.600795 -238.748204 
L 953.002488 -240.160249 
L 953.385952 -241.572294 
L 953.753416 -242.984338 
L 954.107384 -244.396383 
L 954.450584 -245.808428 
L 954.7859 -247.220472 
L 955.1163 -248.632517 
L 955.444753 -250.044562 
L 955.774143 -251.456607 
L 956.10718 -252.868651 
L 956.446316 -254.280696 
L 956.793661 -255.692741 
L 957.150919 -257.104786 
L 957.519321 -258.51683 
L 957.899591 -259.928875 
L 958.291917 -261.34092 
L 958.695946 -262.752965 
L 959.1108 -264.165009 
L 959.535104 -265.577054 
L 959.967039 -266.989099 
L 960.404404 -268.401143 
L 960.844692 -269.813188 
L 961.285172 -271.225233 
L 961.722981 -272.637278 
L 962.155212 -274.049322 
L 962.578999 -275.461367 
L 962.991601 -276.873412 
L 963.390474 -278.285457 
L 963.773328 -279.697501 
L 964.138184 -281.109546 
L 964.483401 -282.521591 
L 964.807703 -283.933636 
L 965.110186 -285.34568 
L 965.390315 -286.757725 
L 965.647905 -288.16977 
L 965.883103 -289.581814 
L 966.096351 -290.993859 
L 966.288349 -292.405904 
L 966.460017 -293.817949 
L 968.539983 -293.817949 
L 968.539983 -293.817949 
L 968.711651 -292.405904 
L 968.903649 -290.993859 
L 969.116897 -289.581814 
L 969.352095 -288.16977 
L 969.609685 -286.757725 
L 969.889814 -285.34568 
L 970.192297 -283.933636 
L 970.516599 -282.521591 
L 970.861816 -281.109546 
L 971.226672 -279.697501 
L 971.609526 -278.285457 
L 972.008399 -276.873412 
L 972.421001 -275.461367 
L 972.844788 -274.049322 
L 973.277019 -272.637278 
L 973.714828 -271.225233 
L 974.155308 -269.813188 
L 974.595596 -268.401143 
L 975.032961 -266.989099 
L 975.464896 -265.577054 
L 975.8892 -264.165009 
L 976.304054 -262.752965 
L 976.708083 -261.34092 
L 977.100409 -259.928875 
L 977.480679 -258.51683 
L 977.849081 -257.104786 
L 978.206339 -255.692741 
L 978.553684 -254.280696 
L 978.89282 -252.868651 
L 979.225857 -251.456607 
L 979.555247 -250.044562 
L 979.8837 -248.632517 
L 980.2141 -247.220472 
L 980.549416 -245.808428 
L 980.892616 -244.396383 
L 981.246584 -242.984338 
L 981.614048 -241.572294 
L 981.997512 -240.160249 
L 982.399205 -238.748204 
L 982.821035 -237.336159 
L 983.264556 -235.924115 
L 983.730945 -234.51207 
L 984.220982 -233.100025 
L 984.735036 -231.68798 
L 985.273055 -230.275936 
L 985.834553 -228.863891 
L 986.418592 -227.451846 
L 987.023766 -226.039802 
L 987.648174 -224.627757 
L 988.289393 -223.215712 
L 988.944445 -221.803667 
L 989.609763 -220.391623 
L 990.281165 -218.979578 
L 990.953821 -217.567533 
L 991.622247 -216.155488 
L 992.280304 -214.743444 
L 992.921215 -213.331399 
L 993.537615 -211.919354 
L 994.121616 -210.507309 
L 994.664913 -209.095265 
L 995.158906 -207.68322 
L 995.594859 -206.271175 
L 995.964081 -204.859131 
L 996.258128 -203.447086 
L 996.469018 -202.035041 
L 996.589453 -200.622996 
L 996.613043 -199.210952 
L 996.534521 -197.798907 
L 996.34993 -196.386862 
L 996.056793 -194.974817 
L 995.654239 -193.562773 
L 995.143098 -192.150728 
L 994.525932 -190.738683 
L 993.807033 -189.326638 
L 992.992359 -187.914594 
L 992.089424 -186.502549 
L 991.10714 -185.090504 
L 990.055624 -183.67846 
L 988.945961 -182.266415 
L 987.789949 -180.85437 
L 986.599828 -179.442325 
L 985.388002 -178.030281 
L 984.166762 -176.618236 
L 982.948024 -175.206191 
L 981.743091 -173.794146 
L 980.562443 -172.382102 
L 979.415554 -170.970057 
L 978.310761 -169.558012 
L 977.255161 -168.145968 
L 976.254552 -166.733923 
L 975.313423 -165.321878 
L 974.434963 -163.909833 
L 973.621123 -162.497789 
L 972.872689 -161.085744 
L 972.18939 -159.673699 
L 971.570019 -158.261654 
L 971.012559 -156.84961 
L 970.514329 -155.437565 
L 970.072117 -154.02552 
z
" style="stroke: #595959; stroke-width: 1.5"/>
                </defs>
                <g clip-path="url(#p02ea648b41)">
                    <use xlink:href="#mb0f3412e17" x="0" y="720"
                         style="fill: #95a3c3; stroke: #595959; stroke-width: 1.5"/>
                </g>
            </g>
            <g id="PolyCollection_4">
                <defs>
                    <path id="ma8356564dc" d="M 1249.29004 -104.4
L 1243.70996 -104.4 
L 1243.14021 -108.188785 
L 1242.482136 -111.97757 
L 1241.728303 -115.766356 
L 1240.871933 -119.555141 
L 1239.907201 -123.343926 
L 1238.829547 -127.132711 
L 1237.635986 -130.921497 
L 1236.325411 -134.710282 
L 1234.898865 -138.499067 
L 1233.359779 -142.287852 
L 1231.714154 -146.076638 
L 1229.970676 -149.865423 
L 1228.140753 -153.654208 
L 1226.238468 -157.442993 
L 1224.280437 -161.231778 
L 1222.285586 -165.020564 
L 1220.274828 -168.809349 
L 1218.270674 -172.598134 
L 1216.296769 -176.386919 
L 1214.377379 -180.175705 
L 1212.536845 -183.96449 
L 1210.799024 -187.753275 
L 1209.186731 -191.54206 
L 1207.721209 -195.330845 
L 1206.421641 -199.119631 
L 1205.304717 -202.908416 
L 1204.384273 -206.697201 
L 1203.671005 -210.485986 
L 1203.172265 -214.274772 
L 1202.891943 -218.063557 
L 1202.830435 -221.852342 
L 1202.98468 -225.641127 
L 1203.348285 -229.429913 
L 1203.911704 -233.218698 
L 1204.662486 -237.007483 
L 1205.585568 -240.796268 
L 1206.663619 -244.585053 
L 1207.877417 -248.373839 
L 1209.206256 -252.162624 
L 1210.628379 -255.951409 
L 1212.121418 -259.740194 
L 1213.662847 -263.52898 
L 1215.230431 -267.317765 
L 1216.802662 -271.10655 
L 1218.359171 -274.895335 
L 1219.881109 -278.684121 
L 1221.351486 -282.472906 
L 1222.755454 -286.261691 
L 1224.080531 -290.050476 
L 1225.316757 -293.839261 
L 1226.456775 -297.628047 
L 1227.495846 -301.416832 
L 1228.431779 -305.205617 
L 1229.264811 -308.994402 
L 1229.997409 -312.783188 
L 1230.634039 -316.571973 
L 1231.180883 -320.360758 
L 1231.645541 -324.149543 
L 1232.036713 -327.938328 
L 1232.363886 -331.727114 
L 1232.637029 -335.515899 
L 1232.866308 -339.304684 
L 1233.061831 -343.093469 
L 1233.23342 -346.882255 
L 1233.390426 -350.67104 
L 1233.541567 -354.459825 
L 1233.694806 -358.24861 
L 1233.85726 -362.037396 
L 1234.035127 -365.826181 
L 1234.233644 -369.614966 
L 1234.45706 -373.403751 
L 1234.708621 -377.192536 
L 1234.990578 -380.981322 
L 1235.304197 -384.770107 
L 1235.649791 -388.558892 
L 1236.026752 -392.347677 
L 1236.433612 -396.136463 
L 1236.868103 -399.925248 
L 1237.327242 -403.714033 
L 1237.807423 -407.502818 
L 1238.304526 -411.291603 
L 1238.814038 -415.080389 
L 1239.331177 -418.869174 
L 1239.85103 -422.657959 
L 1240.368685 -426.446744 
L 1240.879359 -430.23553 
L 1241.378525 -434.024315 
L 1241.862013 -437.8131 
L 1242.32611 -441.601885 
L 1242.76763 -445.390671 
L 1243.183961 -449.179456 
L 1243.573103 -452.968241 
L 1243.933665 -456.757026 
L 1244.264858 -460.545811 
L 1244.56646 -464.334597 
L 1244.838767 -468.123382 
L 1245.082533 -471.912167 
L 1245.298904 -475.700952 
L 1245.489341 -479.489738 
L 1247.510659 -479.489738 
L 1247.510659 -479.489738 
L 1247.701096 -475.700952 
L 1247.917467 -471.912167 
L 1248.161233 -468.123382 
L 1248.43354 -464.334597 
L 1248.735142 -460.545811 
L 1249.066335 -456.757026 
L 1249.426897 -452.968241 
L 1249.816039 -449.179456 
L 1250.23237 -445.390671 
L 1250.67389 -441.601885 
L 1251.137987 -437.8131 
L 1251.621475 -434.024315 
L 1252.120641 -430.23553 
L 1252.631315 -426.446744 
L 1253.14897 -422.657959 
L 1253.668823 -418.869174 
L 1254.185962 -415.080389 
L 1254.695474 -411.291603 
L 1255.192577 -407.502818 
L 1255.672758 -403.714033 
L 1256.131897 -399.925248 
L 1256.566388 -396.136463 
L 1256.973248 -392.347677 
L 1257.350209 -388.558892 
L 1257.695803 -384.770107 
L 1258.009422 -380.981322 
L 1258.291379 -377.192536 
L 1258.54294 -373.403751 
L 1258.766356 -369.614966 
L 1258.964873 -365.826181 
L 1259.14274 -362.037396 
L 1259.305194 -358.24861 
L 1259.458433 -354.459825 
L 1259.609574 -350.67104 
L 1259.76658 -346.882255 
L 1259.938169 -343.093469 
L 1260.133692 -339.304684 
L 1260.362971 -335.515899 
L 1260.636114 -331.727114 
L 1260.963287 -327.938328 
L 1261.354459 -324.149543 
L 1261.819117 -320.360758 
L 1262.365961 -316.571973 
L 1263.002591 -312.783188 
L 1263.735189 -308.994402 
L 1264.568221 -305.205617 
L 1265.504154 -301.416832 
L 1266.543225 -297.628047 
L 1267.683243 -293.839261 
L 1268.919469 -290.050476 
L 1270.244546 -286.261691 
L 1271.648514 -282.472906 
L 1273.118891 -278.684121 
L 1274.640829 -274.895335 
L 1276.197338 -271.10655 
L 1277.769569 -267.317765 
L 1279.337153 -263.52898 
L 1280.878582 -259.740194 
L 1282.371621 -255.951409 
L 1283.793744 -252.162624 
L 1285.122583 -248.373839 
L 1286.336381 -244.585053 
L 1287.414432 -240.796268 
L 1288.337514 -237.007483 
L 1289.088296 -233.218698 
L 1289.651715 -229.429913 
L 1290.01532 -225.641127 
L 1290.169565 -221.852342 
L 1290.108057 -218.063557 
L 1289.827735 -214.274772 
L 1289.328995 -210.485986 
L 1288.615727 -206.697201 
L 1287.695283 -202.908416 
L 1286.578359 -199.119631 
L 1285.278791 -195.330845 
L 1283.813269 -191.54206 
L 1282.200976 -187.753275 
L 1280.463155 -183.96449 
L 1278.622621 -180.175705 
L 1276.703231 -176.386919 
L 1274.729326 -172.598134 
L 1272.725172 -168.809349 
L 1270.714414 -165.020564 
L 1268.719563 -161.231778 
L 1266.761532 -157.442993 
L 1264.859247 -153.654208 
L 1263.029324 -149.865423 
L 1261.285846 -146.076638 
L 1259.640221 -142.287852 
L 1258.101135 -138.499067 
L 1256.674589 -134.710282 
L 1255.364014 -130.921497 
L 1254.170453 -127.132711 
L 1253.092799 -123.343926 
L 1252.128067 -119.555141 
L 1251.271697 -115.766356 
L 1250.517864 -111.97757 
L 1249.85979 -108.188785 
L 1249.29004 -104.4 
z
" style="stroke: #595959; stroke-width: 1.5"/>
                </defs>
                <g clip-path="url(#p02ea648b41)">
                    <use xlink:href="#ma8356564dc" x="0" y="720"
                         style="fill: #db96c0; stroke: #595959; stroke-width: 1.5"/>
                </g>
            </g>
            <g id="PolyCollection_5">
                <defs>
                    <path id="m205c22e3d8" d="M 1529.403914 -133.93212
L 1521.596086 -133.93212 
L 1520.500595 -137.076109 
L 1519.169003 -140.220099 
L 1517.571496 -143.364089 
L 1515.680092 -146.508079 
L 1513.470308 -149.652068 
L 1510.922985 -152.796058 
L 1508.026172 -155.940048 
L 1504.776948 -159.084038 
L 1501.183065 -162.228028 
L 1497.264255 -165.372017 
L 1493.053082 -168.516007 
L 1488.595224 -171.659997 
L 1483.949095 -174.803987 
L 1479.184769 -177.947976 
L 1474.382214 -181.091966 
L 1469.628879 -184.235956 
L 1465.016765 -187.379946 
L 1460.639098 -190.523935 
L 1456.586815 -193.667925 
L 1452.945038 -196.811915 
L 1449.789758 -199.955905 
L 1447.184908 -203.099894 
L 1445.179986 -206.243884 
L 1443.808367 -209.387874 
L 1443.086357 -212.531864 
L 1443.013043 -215.675853 
L 1443.57089 -218.819843 
L 1444.727037 -221.963833 
L 1446.435184 -225.107823 
L 1448.637925 -228.251812 
L 1451.269399 -231.395802 
L 1454.258083 -234.539792 
L 1457.529596 -237.683782 
L 1461.009371 -240.827772 
L 1464.625072 -243.971761 
L 1468.308689 -247.115751 
L 1471.998226 -250.259741 
L 1475.638971 -253.403731 
L 1479.184337 -256.54772 
L 1482.596285 -259.69171 
L 1485.845388 -262.8357 
L 1488.910565 -265.97969 
L 1491.778556 -269.123679 
L 1494.443199 -272.267669 
L 1496.904551 -275.411659 
L 1499.167923 -278.555649 
L 1501.242856 -281.699638 
L 1503.142085 -284.843628 
L 1504.880516 -287.987618 
L 1506.474238 -291.131608 
L 1507.939602 -294.275597 
L 1509.29238 -297.419587 
L 1510.547033 -300.563577 
L 1511.716102 -303.707567 
L 1512.809744 -306.851557 
L 1513.835436 -309.995546 
L 1514.797844 -313.139536 
L 1515.698873 -316.283526 
L 1516.53789 -319.427516 
L 1517.312095 -322.571505 
L 1518.017029 -325.715495 
L 1518.647186 -328.859485 
L 1519.196686 -332.003475 
L 1519.659967 -335.147464 
L 1520.032469 -338.291454 
L 1520.311257 -341.435444 
L 1520.495546 -344.579434 
L 1520.587115 -347.723423 
L 1520.590558 -350.867413 
L 1520.513377 -354.011403 
L 1520.365906 -357.155393 
L 1520.161047 -360.299382 
L 1519.913857 -363.443372 
L 1519.640973 -366.587362 
L 1519.359936 -369.731352 
L 1519.08842 -372.875341 
L 1518.84344 -376.019331 
L 1518.640564 -379.163321 
L 1518.493192 -382.307311 
L 1518.411949 -385.451301 
L 1518.404234 -388.59529 
L 1518.473944 -391.73928 
L 1518.621414 -394.88327 
L 1518.84355 -398.02726 
L 1519.134156 -401.171249 
L 1519.48443 -404.315239 
L 1519.883571 -407.459229 
L 1520.319471 -410.603219 
L 1520.779422 -413.747208 
L 1521.250805 -416.891198 
L 1521.721699 -420.035188 
L 1522.18139 -423.179178 
L 1522.62075 -426.323167 
L 1523.032474 -429.467157 
L 1523.411186 -432.611147 
L 1523.753408 -435.755137 
L 1524.057436 -438.899126 
L 1524.323128 -442.043116 
L 1524.55164 -445.187106 
L 1526.44836 -445.187106 
L 1526.44836 -445.187106 
L 1526.676872 -442.043116 
L 1526.942564 -438.899126 
L 1527.246592 -435.755137 
L 1527.588814 -432.611147 
L 1527.967526 -429.467157 
L 1528.37925 -426.323167 
L 1528.81861 -423.179178 
L 1529.278301 -420.035188 
L 1529.749195 -416.891198 
L 1530.220578 -413.747208 
L 1530.680529 -410.603219 
L 1531.116429 -407.459229 
L 1531.51557 -404.315239 
L 1531.865844 -401.171249 
L 1532.15645 -398.02726 
L 1532.378586 -394.88327 
L 1532.526056 -391.73928 
L 1532.595766 -388.59529 
L 1532.588051 -385.451301 
L 1532.506808 -382.307311 
L 1532.359436 -379.163321 
L 1532.15656 -376.019331 
L 1531.91158 -372.875341 
L 1531.640064 -369.731352 
L 1531.359027 -366.587362 
L 1531.086143 -363.443372 
L 1530.838953 -360.299382 
L 1530.634094 -357.155393 
L 1530.486623 -354.011403 
L 1530.409442 -350.867413 
L 1530.412885 -347.723423 
L 1530.504454 -344.579434 
L 1530.688743 -341.435444 
L 1530.967531 -338.291454 
L 1531.340033 -335.147464 
L 1531.803314 -332.003475 
L 1532.352814 -328.859485 
L 1532.982971 -325.715495 
L 1533.687905 -322.571505 
L 1534.46211 -319.427516 
L 1535.301127 -316.283526 
L 1536.202156 -313.139536 
L 1537.164564 -309.995546 
L 1538.190256 -306.851557 
L 1539.283898 -303.707567 
L 1540.452967 -300.563577 
L 1541.70762 -297.419587 
L 1543.060398 -294.275597 
L 1544.525762 -291.131608 
L 1546.119484 -287.987618 
L 1547.857915 -284.843628 
L 1549.757144 -281.699638 
L 1551.832077 -278.555649 
L 1554.095449 -275.411659 
L 1556.556801 -272.267669 
L 1559.221444 -269.123679 
L 1562.089435 -265.97969 
L 1565.154612 -262.8357 
L 1568.403715 -259.69171 
L 1571.815663 -256.54772 
L 1575.361029 -253.403731 
L 1579.001774 -250.259741 
L 1582.691311 -247.115751 
L 1586.374928 -243.971761 
L 1589.990629 -240.827772 
L 1593.470404 -237.683782 
L 1596.741917 -234.539792 
L 1599.730601 -231.395802 
L 1602.362075 -228.251812 
L 1604.564816 -225.107823 
L 1606.272963 -221.963833 
L 1607.42911 -218.819843 
L 1607.986957 -215.675853 
L 1607.913643 -212.531864 
L 1607.191633 -209.387874 
L 1605.820014 -206.243884 
L 1603.815092 -203.099894 
L 1601.210242 -199.955905 
L 1598.054962 -196.811915 
L 1594.413185 -193.667925 
L 1590.360902 -190.523935 
L 1585.983235 -187.379946 
L 1581.371121 -184.235956 
L 1576.617786 -181.091966 
L 1571.815231 -177.947976 
L 1567.050905 -174.803987 
L 1562.404776 -171.659997 
L 1557.946918 -168.516007 
L 1553.735745 -165.372017 
L 1549.816935 -162.228028 
L 1546.223052 -159.084038 
L 1542.973828 -155.940048 
L 1540.077015 -152.796058 
L 1537.529692 -149.652068 
L 1535.319908 -146.508079 
L 1533.428504 -143.364089 
L 1531.830997 -140.220099 
L 1530.499405 -137.076109 
L 1529.403914 -133.93212 
z
" style="stroke: #595959; stroke-width: 1.5"/>
                </defs>
                <g clip-path="url(#p02ea648b41)">
                    <use xlink:href="#m205c22e3d8" x="0" y="720"
                         style="fill: #a2c865; stroke: #595959; stroke-width: 1.5"/>
                </g>
            </g>
            <g id="PolyCollection_6">
                <defs>
                    <path id="ma3847f617b" d="M 1806.290785 -168.498793
L 1802.709215 -168.498793 
L 1802.370964 -169.45581 
L 1801.983469 -170.412828 
L 1801.542611 -171.369845 
L 1801.044518 -172.326863 
L 1800.485693 -173.28388 
L 1799.863161 -174.240898 
L 1799.174609 -175.197915 
L 1798.418539 -176.154933 
L 1797.594411 -177.11195 
L 1796.70278 -178.068968 
L 1795.745413 -179.025985 
L 1794.725386 -179.983003 
L 1793.647155 -180.94002 
L 1792.516595 -181.897038 
L 1791.340992 -182.854055 
L 1790.129007 -183.811073 
L 1788.890588 -184.76809 
L 1787.63684 -185.725108 
L 1786.379855 -186.682125 
L 1785.132498 -187.639143 
L 1783.908169 -188.59616 
L 1782.720526 -189.553178 
L 1781.583197 -190.510195 
L 1780.509477 -191.467213 
L 1779.512033 -192.42423 
L 1778.602611 -193.381248 
L 1777.791767 -194.338265 
L 1777.088633 -195.295283 
L 1776.50071 -196.2523 
L 1776.03372 -197.209318 
L 1775.691494 -198.166335 
L 1775.475924 -199.123353 
L 1775.386957 -200.08037 
L 1775.422649 -201.037388 
L 1775.579262 -201.994405 
L 1775.851402 -202.951423 
L 1776.232192 -203.90844 
L 1776.713476 -204.865458 
L 1777.286032 -205.822475 
L 1777.939808 -206.779493 
L 1778.664146 -207.73651 
L 1779.44801 -208.693528 
L 1780.2802 -209.650545 
L 1781.149546 -210.607563 
L 1782.04509 -211.56458 
L 1782.956237 -212.521598 
L 1783.872892 -213.478615 
L 1784.785569 -214.435633 
L 1785.68549 -215.39265 
L 1786.564652 -216.349668 
L 1787.415896 -217.306685 
L 1788.232946 -218.263703 
L 1789.010455 -219.22072 
L 1789.744027 -220.177738 
L 1790.430239 -221.134755 
L 1791.066657 -222.091773 
L 1791.651836 -223.04879 
L 1792.185313 -224.005808 
L 1792.667594 -224.962825 
L 1793.10012 -225.919843 
L 1793.48522 -226.87686 
L 1793.82605 -227.833878 
L 1794.126507 -228.790895 
L 1794.391137 -229.747913 
L 1794.625012 -230.70493 
L 1794.833601 -231.661948 
L 1795.022626 -232.618965 
L 1795.197908 -233.575983 
L 1795.365211 -234.533 
L 1795.530087 -235.490018 
L 1795.697725 -236.447035 
L 1795.872818 -237.404053 
L 1796.059439 -238.361071 
L 1796.260949 -239.318088 
L 1796.479919 -240.275106 
L 1796.718091 -241.232123 
L 1796.976357 -242.189141 
L 1797.254778 -243.146158 
L 1797.552622 -244.103176 
L 1797.868432 -245.060193 
L 1798.20011 -246.017211 
L 1798.545027 -246.974228 
L 1798.900137 -247.931246 
L 1799.262099 -248.888263 
L 1799.627408 -249.845281 
L 1799.992511 -250.802298 
L 1800.353922 -251.759316 
L 1800.708331 -252.716333 
L 1801.05268 -253.673351 
L 1801.384248 -254.630368 
L 1801.700691 -255.587386 
L 1802.000086 -256.544403 
L 1802.280944 -257.501421 
L 1802.542213 -258.458438 
L 1802.783263 -259.415456 
L 1803.003858 -260.372473 
L 1803.204126 -261.329491 
L 1803.38451 -262.286508 
L 1803.545721 -263.243526 
L 1805.454279 -263.243526 
L 1805.454279 -263.243526 
L 1805.61549 -262.286508 
L 1805.795874 -261.329491 
L 1805.996142 -260.372473 
L 1806.216737 -259.415456 
L 1806.457787 -258.458438 
L 1806.719056 -257.501421 
L 1806.999914 -256.544403 
L 1807.299309 -255.587386 
L 1807.615752 -254.630368 
L 1807.94732 -253.673351 
L 1808.291669 -252.716333 
L 1808.646078 -251.759316 
L 1809.007489 -250.802298 
L 1809.372592 -249.845281 
L 1809.737901 -248.888263 
L 1810.099863 -247.931246 
L 1810.454973 -246.974228 
L 1810.79989 -246.017211 
L 1811.131568 -245.060193 
L 1811.447378 -244.103176 
L 1811.745222 -243.146158 
L 1812.023643 -242.189141 
L 1812.281909 -241.232123 
L 1812.520081 -240.275106 
L 1812.739051 -239.318088 
L 1812.940561 -238.361071 
L 1813.127182 -237.404053 
L 1813.302275 -236.447035 
L 1813.469913 -235.490018 
L 1813.634789 -234.533 
L 1813.802092 -233.575983 
L 1813.977374 -232.618965 
L 1814.166399 -231.661948 
L 1814.374988 -230.70493 
L 1814.608863 -229.747913 
L 1814.873493 -228.790895 
L 1815.17395 -227.833878 
L 1815.51478 -226.87686 
L 1815.89988 -225.919843 
L 1816.332406 -224.962825 
L 1816.814687 -224.005808 
L 1817.348164 -223.04879 
L 1817.933343 -222.091773 
L 1818.569761 -221.134755 
L 1819.255973 -220.177738 
L 1819.989545 -219.22072 
L 1820.767054 -218.263703 
L 1821.584104 -217.306685 
L 1822.435348 -216.349668 
L 1823.31451 -215.39265 
L 1824.214431 -214.435633 
L 1825.127108 -213.478615 
L 1826.043763 -212.521598 
L 1826.95491 -211.56458 
L 1827.850454 -210.607563 
L 1828.7198 -209.650545 
L 1829.55199 -208.693528 
L 1830.335854 -207.73651 
L 1831.060192 -206.779493 
L 1831.713968 -205.822475 
L 1832.286524 -204.865458 
L 1832.767808 -203.90844 
L 1833.148598 -202.951423 
L 1833.420738 -201.994405 
L 1833.577351 -201.037388 
L 1833.613043 -200.08037 
L 1833.524076 -199.123353 
L 1833.308506 -198.166335 
L 1832.96628 -197.209318 
L 1832.49929 -196.2523 
L 1831.911367 -195.295283 
L 1831.208233 -194.338265 
L 1830.397389 -193.381248 
L 1829.487967 -192.42423 
L 1828.490523 -191.467213 
L 1827.416803 -190.510195 
L 1826.279474 -189.553178 
L 1825.091831 -188.59616 
L 1823.867502 -187.639143 
L 1822.620145 -186.682125 
L 1821.36316 -185.725108 
L 1820.109412 -184.76809 
L 1818.870993 -183.811073 
L 1817.659008 -182.854055 
L 1816.483405 -181.897038 
L 1815.352845 -180.94002 
L 1814.274614 -179.983003 
L 1813.254587 -179.025985 
L 1812.29722 -178.068968 
L 1811.405589 -177.11195 
L 1810.581461 -176.154933 
L 1809.825391 -175.197915 
L 1809.136839 -174.240898 
L 1808.514307 -173.28388 
L 1807.955482 -172.326863 
L 1807.457389 -171.369845 
L 1807.016531 -170.412828 
L 1806.629036 -169.45581 
L 1806.290785 -168.498793 
z
" style="stroke: #595959; stroke-width: 1.5"/>
                </defs>
                <g clip-path="url(#p02ea648b41)">
                    <use xlink:href="#ma3847f617b" x="0" y="720"
                         style="fill: #e5c849; stroke: #595959; stroke-width: 1.5"/>
                </g>
            </g>
            <g id="matplotlib.axis_1">
                <g id="xtick_1">
                    <g id="line2d_1">
                        <defs>
                            <path id="m65a54d8824" d="M 0 0
L 0 3.5 
" style="stroke: #000000; stroke-width: 0.8"/>
                        </defs>
                        <g>
                            <use xlink:href="#m65a54d8824" x="409.5" y="640.8"
                                 style="stroke: #000000; stroke-width: 0.8"/>
                        </g>
                    </g>
                    <g id="text_1">
                        <!-- 1 -->
                        <g transform="translate(403.1375 662.996875)scale(0.2 -0.2)">
                            <defs>
                                <path id="DejaVuSans-31" d="M 794 531
L 1825 531 
L 1825 4091 
L 703 3866 
L 703 4441 
L 1819 4666 
L 2450 4666 
L 2450 531 
L 3481 531 
L 3481 0 
L 794 0 
L 794 531 
z
" transform="scale(0.015625)"/>
                            </defs>
                            <use xlink:href="#DejaVuSans-31"/>
                        </g>
                    </g>
                </g>
                <g id="xtick_2">
                    <g id="line2d_2">
                        <g>
                            <use xlink:href="#m65a54d8824" x="688.5" y="640.8"
                                 style="stroke: #000000; stroke-width: 0.8"/>
                        </g>
                    </g>
                    <g id="text_2">
                        <!-- 2 -->
                        <g transform="translate(682.1375 662.996875)scale(0.2 -0.2)">
                            <defs>
                                <path id="DejaVuSans-32" d="M 1228 531
L 3431 531 
L 3431 0 
L 469 0 
L 469 531 
Q 828 903 1448 1529 
Q 2069 2156 2228 2338 
Q 2531 2678 2651 2914 
Q 2772 3150 2772 3378 
Q 2772 3750 2511 3984 
Q 2250 4219 1831 4219 
Q 1534 4219 1204 4116 
Q 875 4013 500 3803 
L 500 4441 
Q 881 4594 1212 4672 
Q 1544 4750 1819 4750 
Q 2544 4750 2975 4387 
Q 3406 4025 3406 3419 
Q 3406 3131 3298 2873 
Q 3191 2616 2906 2266 
Q 2828 2175 2409 1742 
Q 1991 1309 1228 531 
z
" transform="scale(0.015625)"/>
                            </defs>
                            <use xlink:href="#DejaVuSans-32"/>
                        </g>
                    </g>
                </g>
                <g id="xtick_3">
                    <g id="line2d_3">
                        <g>
                            <use xlink:href="#m65a54d8824" x="967.5" y="640.8"
                                 style="stroke: #000000; stroke-width: 0.8"/>
                        </g>
                    </g>
                    <g id="text_3">
                        <!-- 3 -->
                        <g transform="translate(961.1375 662.996875)scale(0.2 -0.2)">
                            <defs>
                                <path id="DejaVuSans-33" d="M 2597 2516
Q 3050 2419 3304 2112 
Q 3559 1806 3559 1356 
Q 3559 666 3084 287 
Q 2609 -91 1734 -91 
Q 1441 -91 1130 -33 
Q 819 25 488 141 
L 488 750 
Q 750 597 1062 519 
Q 1375 441 1716 441 
Q 2309 441 2620 675 
Q 2931 909 2931 1356 
Q 2931 1769 2642 2001 
Q 2353 2234 1838 2234 
L 1294 2234 
L 1294 2753 
L 1863 2753 
Q 2328 2753 2575 2939 
Q 2822 3125 2822 3475 
Q 2822 3834 2567 4026 
Q 2313 4219 1838 4219 
Q 1578 4219 1281 4162 
Q 984 4106 628 3988 
L 628 4550 
Q 988 4650 1302 4700 
Q 1616 4750 1894 4750 
Q 2613 4750 3031 4423 
Q 3450 4097 3450 3541 
Q 3450 3153 3228 2886 
Q 3006 2619 2597 2516 
z
" transform="scale(0.015625)"/>
                            </defs>
                            <use xlink:href="#DejaVuSans-33"/>
                        </g>
                    </g>
                </g>
                <g id="xtick_4">
                    <g id="line2d_4">
                        <g>
                            <use xlink:href="#m65a54d8824" x="1246.5" y="640.8"
                                 style="stroke: #000000; stroke-width: 0.8"/>
                        </g>
                    </g>
                    <g id="text_4">
                        <!-- 4 -->
                        <g transform="translate(1240.1375 662.996875)scale(0.2 -0.2)">
                            <defs>
                                <path id="DejaVuSans-34" d="M 2419 4116
L 825 1625 
L 2419 1625 
L 2419 4116 
z
M 2253 4666 
L 3047 4666 
L 3047 1625 
L 3713 1625 
L 3713 1100 
L 3047 1100 
L 3047 0 
L 2419 0 
L 2419 1100 
L 313 1100 
L 313 1709 
L 2253 4666 
z
" transform="scale(0.015625)"/>
                            </defs>
                            <use xlink:href="#DejaVuSans-34"/>
                        </g>
                    </g>
                </g>
                <g id="xtick_5">
                    <g id="line2d_5">
                        <g>
                            <use xlink:href="#m65a54d8824" x="1525.5" y="640.8"
                                 style="stroke: #000000; stroke-width: 0.8"/>
                        </g>
                    </g>
                    <g id="text_5">
                        <!-- 5 -->
                        <g transform="translate(1519.1375 662.996875)scale(0.2 -0.2)">
                            <defs>
                                <path id="DejaVuSans-35" d="M 691 4666
L 3169 4666 
L 3169 4134 
L 1269 4134 
L 1269 2991 
Q 1406 3038 1543 3061 
Q 1681 3084 1819 3084 
Q 2600 3084 3056 2656 
Q 3513 2228 3513 1497 
Q 3513 744 3044 326 
Q 2575 -91 1722 -91 
Q 1428 -91 1123 -41 
Q 819 9 494 109 
L 494 744 
Q 775 591 1075 516 
Q 1375 441 1709 441 
Q 2250 441 2565 725 
Q 2881 1009 2881 1497 
Q 2881 1984 2565 2268 
Q 2250 2553 1709 2553 
Q 1456 2553 1204 2497 
Q 953 2441 691 2322 
L 691 4666 
z
" transform="scale(0.015625)"/>
                            </defs>
                            <use xlink:href="#DejaVuSans-35"/>
                        </g>
                    </g>
                </g>
                <g id="xtick_6">
                    <g id="line2d_6">
                        <g>
                            <use xlink:href="#m65a54d8824" x="1804.5" y="640.8"
                                 style="stroke: #000000; stroke-width: 0.8"/>
                        </g>
                    </g>
                    <g id="text_6">
                        <!-- 6 -->
                        <g transform="translate(1798.1375 662.996875)scale(0.2 -0.2)">
                            <defs>
                                <path id="DejaVuSans-36" d="M 2113 2584
Q 1688 2584 1439 2293 
Q 1191 2003 1191 1497 
Q 1191 994 1439 701 
Q 1688 409 2113 409 
Q 2538 409 2786 701 
Q 3034 994 3034 1497 
Q 3034 2003 2786 2293 
Q 2538 2584 2113 2584 
z
M 3366 4563 
L 3366 3988 
Q 3128 4100 2886 4159 
Q 2644 4219 2406 4219 
Q 1781 4219 1451 3797 
Q 1122 3375 1075 2522 
Q 1259 2794 1537 2939 
Q 1816 3084 2150 3084 
Q 2853 3084 3261 2657 
Q 3669 2231 3669 1497 
Q 3669 778 3244 343 
Q 2819 -91 2113 -91 
Q 1303 -91 875 529 
Q 447 1150 447 2328 
Q 447 3434 972 4092 
Q 1497 4750 2381 4750 
Q 2619 4750 2861 4703 
Q 3103 4656 3366 4563 
z
" transform="scale(0.015625)"/>
                            </defs>
                            <use xlink:href="#DejaVuSans-36"/>
                        </g>
                    </g>
                </g>
                <g id="text_7">
                    <!-- cluster -->
                    <g transform="translate(1072.992188 686.353125)scale(0.2 -0.2)">
                        <defs>
                            <path id="DejaVuSans-63" d="M 3122 3366
L 3122 2828 
Q 2878 2963 2633 3030 
Q 2388 3097 2138 3097 
Q 1578 3097 1268 2742 
Q 959 2388 959 1747 
Q 959 1106 1268 751 
Q 1578 397 2138 397 
Q 2388 397 2633 464 
Q 2878 531 3122 666 
L 3122 134 
Q 2881 22 2623 -34 
Q 2366 -91 2075 -91 
Q 1284 -91 818 406 
Q 353 903 353 1747 
Q 353 2603 823 3093 
Q 1294 3584 2113 3584 
Q 2378 3584 2631 3529 
Q 2884 3475 3122 3366 
z
" transform="scale(0.015625)"/>
                            <path id="DejaVuSans-6c" d="M 603 4863
L 1178 4863 
L 1178 0 
L 603 0 
L 603 4863 
z
" transform="scale(0.015625)"/>
                            <path id="DejaVuSans-75" d="M 544 1381
L 544 3500 
L 1119 3500 
L 1119 1403 
Q 1119 906 1312 657 
Q 1506 409 1894 409 
Q 2359 409 2629 706 
Q 2900 1003 2900 1516 
L 2900 3500 
L 3475 3500 
L 3475 0 
L 2900 0 
L 2900 538 
Q 2691 219 2414 64 
Q 2138 -91 1772 -91 
Q 1169 -91 856 284 
Q 544 659 544 1381 
z
M 1991 3584 
L 1991 3584 
z
" transform="scale(0.015625)"/>
                            <path id="DejaVuSans-73" d="M 2834 3397
L 2834 2853 
Q 2591 2978 2328 3040 
Q 2066 3103 1784 3103 
Q 1356 3103 1142 2972 
Q 928 2841 928 2578 
Q 928 2378 1081 2264 
Q 1234 2150 1697 2047 
L 1894 2003 
Q 2506 1872 2764 1633 
Q 3022 1394 3022 966 
Q 3022 478 2636 193 
Q 2250 -91 1575 -91 
Q 1294 -91 989 -36 
Q 684 19 347 128 
L 347 722 
Q 666 556 975 473 
Q 1284 391 1588 391 
Q 1994 391 2212 530 
Q 2431 669 2431 922 
Q 2431 1156 2273 1281 
Q 2116 1406 1581 1522 
L 1381 1569 
Q 847 1681 609 1914 
Q 372 2147 372 2553 
Q 372 3047 722 3315 
Q 1072 3584 1716 3584 
Q 2034 3584 2315 3537 
Q 2597 3491 2834 3397 
z
" transform="scale(0.015625)"/>
                            <path id="DejaVuSans-74" d="M 1172 4494
L 1172 3500 
L 2356 3500 
L 2356 3053 
L 1172 3053 
L 1172 1153 
Q 1172 725 1289 603 
Q 1406 481 1766 481 
L 2356 481 
L 2356 0 
L 1766 0 
Q 1100 0 847 248 
Q 594 497 594 1153 
L 594 3053 
L 172 3053 
L 172 3500 
L 594 3500 
L 594 4494 
L 1172 4494 
z
" transform="scale(0.015625)"/>
                            <path id="DejaVuSans-65" d="M 3597 1894
L 3597 1613 
L 953 1613 
Q 991 1019 1311 708 
Q 1631 397 2203 397 
Q 2534 397 2845 478 
Q 3156 559 3463 722 
L 3463 178 
Q 3153 47 2828 -22 
Q 2503 -91 2169 -91 
Q 1331 -91 842 396 
Q 353 884 353 1716 
Q 353 2575 817 3079 
Q 1281 3584 2069 3584 
Q 2775 3584 3186 3129 
Q 3597 2675 3597 1894 
z
M 3022 2063 
Q 3016 2534 2758 2815 
Q 2500 3097 2075 3097 
Q 1594 3097 1305 2825 
Q 1016 2553 972 2059 
L 3022 2063 
z
" transform="scale(0.015625)"/>
                            <path id="DejaVuSans-72" d="M 2631 2963
Q 2534 3019 2420 3045 
Q 2306 3072 2169 3072 
Q 1681 3072 1420 2755 
Q 1159 2438 1159 1844 
L 1159 0 
L 581 0 
L 581 3500 
L 1159 3500 
L 1159 2956 
Q 1341 3275 1631 3429 
Q 1922 3584 2338 3584 
Q 2397 3584 2469 3576 
Q 2541 3569 2628 3553 
L 2631 2963 
z
" transform="scale(0.015625)"/>
                        </defs>
                        <use xlink:href="#DejaVuSans-63"/>
                        <use xlink:href="#DejaVuSans-6c" x="54.980469"/>
                        <use xlink:href="#DejaVuSans-75" x="82.763672"/>
                        <use xlink:href="#DejaVuSans-73" x="146.142578"/>
                        <use xlink:href="#DejaVuSans-74" x="198.242188"/>
                        <use xlink:href="#DejaVuSans-65" x="237.451172"/>
                        <use xlink:href="#DejaVuSans-72" x="298.974609"/>
                    </g>
                </g>
            </g>
            <g id="matplotlib.axis_2">
                <g id="ytick_1">
                    <g id="line2d_7">
                        <defs>
                            <path id="m898efdd5ce" d="M 0 0
L -3.5 0 
" style="stroke: #000000; stroke-width: 0.8"/>
                        </defs>
                        <g>
                            <use xlink:href="#m898efdd5ce" x="270" y="602.022496"
                                 style="stroke: #000000; stroke-width: 0.8"/>
                        </g>
                    </g>
                    <g id="text_8">
                        <!-- 2.5 -->
                        <g transform="translate(231.19375 609.620934)scale(0.2 -0.2)">
                            <defs>
                                <path id="DejaVuSans-2e" d="M 684 794
L 1344 794 
L 1344 0 
L 684 0 
L 684 794 
z
" transform="scale(0.015625)"/>
                            </defs>
                            <use xlink:href="#DejaVuSans-32"/>
                            <use xlink:href="#DejaVuSans-2e" x="63.623047"/>
                            <use xlink:href="#DejaVuSans-35" x="95.410156"/>
                        </g>
                    </g>
                </g>
                <g id="ytick_2">
                    <g id="line2d_8">
                        <g>
                            <use xlink:href="#m898efdd5ce" x="270" y="529.707839"
                                 style="stroke: #000000; stroke-width: 0.8"/>
                        </g>
                    </g>
                    <g id="text_9">
                        <!-- 5.0 -->
                        <g transform="translate(231.19375 537.306276)scale(0.2 -0.2)">
                            <defs>
                                <path id="DejaVuSans-30" d="M 2034 4250
Q 1547 4250 1301 3770 
Q 1056 3291 1056 2328 
Q 1056 1369 1301 889 
Q 1547 409 2034 409 
Q 2525 409 2770 889 
Q 3016 1369 3016 2328 
Q 3016 3291 2770 3770 
Q 2525 4250 2034 4250 
z
M 2034 4750 
Q 2819 4750 3233 4129 
Q 3647 3509 3647 2328 
Q 3647 1150 3233 529 
Q 2819 -91 2034 -91 
Q 1250 -91 836 529 
Q 422 1150 422 2328 
Q 422 3509 836 4129 
Q 1250 4750 2034 4750 
z
" transform="scale(0.015625)"/>
                            </defs>
                            <use xlink:href="#DejaVuSans-35"/>
                            <use xlink:href="#DejaVuSans-2e" x="63.623047"/>
                            <use xlink:href="#DejaVuSans-30" x="95.410156"/>
                        </g>
                    </g>
                </g>
                <g id="ytick_3">
                    <g id="line2d_9">
                        <g>
                            <use xlink:href="#m898efdd5ce" x="270" y="457.393181"
                                 style="stroke: #000000; stroke-width: 0.8"/>
                        </g>
                    </g>
                    <g id="text_10">
                        <!-- 7.5 -->
                        <g transform="translate(231.19375 464.991619)scale(0.2 -0.2)">
                            <defs>
                                <path id="DejaVuSans-37" d="M 525 4666
L 3525 4666 
L 3525 4397 
L 1831 0 
L 1172 0 
L 2766 4134 
L 525 4134 
L 525 4666 
z
" transform="scale(0.015625)"/>
                            </defs>
                            <use xlink:href="#DejaVuSans-37"/>
                            <use xlink:href="#DejaVuSans-2e" x="63.623047"/>
                            <use xlink:href="#DejaVuSans-35" x="95.410156"/>
                        </g>
                    </g>
                </g>
                <g id="ytick_4">
                    <g id="line2d_10">
                        <g>
                            <use xlink:href="#m898efdd5ce" x="270" y="385.078524"
                                 style="stroke: #000000; stroke-width: 0.8"/>
                        </g>
                    </g>
                    <g id="text_11">
                        <!-- 10.0 -->
                        <g transform="translate(218.46875 392.676961)scale(0.2 -0.2)">
                            <use xlink:href="#DejaVuSans-31"/>
                            <use xlink:href="#DejaVuSans-30" x="63.623047"/>
                            <use xlink:href="#DejaVuSans-2e" x="127.246094"/>
                            <use xlink:href="#DejaVuSans-30" x="159.033203"/>
                        </g>
                    </g>
                </g>
                <g id="ytick_5">
                    <g id="line2d_11">
                        <g>
                            <use xlink:href="#m898efdd5ce" x="270" y="312.763866"
                                 style="stroke: #000000; stroke-width: 0.8"/>
                        </g>
                    </g>
                    <g id="text_12">
                        <!-- 12.5 -->
                        <g transform="translate(218.46875 320.362304)scale(0.2 -0.2)">
                            <use xlink:href="#DejaVuSans-31"/>
                            <use xlink:href="#DejaVuSans-32" x="63.623047"/>
                            <use xlink:href="#DejaVuSans-2e" x="127.246094"/>
                            <use xlink:href="#DejaVuSans-35" x="159.033203"/>
                        </g>
                    </g>
                </g>
                <g id="ytick_6">
                    <g id="line2d_12">
                        <g>
                            <use xlink:href="#m898efdd5ce" x="270" y="240.449209"
                                 style="stroke: #000000; stroke-width: 0.8"/>
                        </g>
                    </g>
                    <g id="text_13">
                        <!-- 15.0 -->
                        <g transform="translate(218.46875 248.047646)scale(0.2 -0.2)">
                            <use xlink:href="#DejaVuSans-31"/>
                            <use xlink:href="#DejaVuSans-35" x="63.623047"/>
                            <use xlink:href="#DejaVuSans-2e" x="127.246094"/>
                            <use xlink:href="#DejaVuSans-30" x="159.033203"/>
                        </g>
                    </g>
                </g>
                <g id="ytick_7">
                    <g id="line2d_13">
                        <g>
                            <use xlink:href="#m898efdd5ce" x="270" y="168.134551"
                                 style="stroke: #000000; stroke-width: 0.8"/>
                        </g>
                    </g>
                    <g id="text_14">
                        <!-- 17.5 -->
                        <g transform="translate(218.46875 175.732989)scale(0.2 -0.2)">
                            <use xlink:href="#DejaVuSans-31"/>
                            <use xlink:href="#DejaVuSans-37" x="63.623047"/>
                            <use xlink:href="#DejaVuSans-2e" x="127.246094"/>
                            <use xlink:href="#DejaVuSans-35" x="159.033203"/>
                        </g>
                    </g>
                </g>
                <g id="ytick_8">
                    <g id="line2d_14">
                        <g>
                            <use xlink:href="#m898efdd5ce" x="270" y="95.819894"
                                 style="stroke: #000000; stroke-width: 0.8"/>
                        </g>
                    </g>
                    <g id="text_15">
                        <!-- 20.0 -->
                        <g transform="translate(218.46875 103.418331)scale(0.2 -0.2)">
                            <use xlink:href="#DejaVuSans-32"/>
                            <use xlink:href="#DejaVuSans-30" x="63.623047"/>
                            <use xlink:href="#DejaVuSans-2e" x="127.246094"/>
                            <use xlink:href="#DejaVuSans-30" x="159.033203"/>
                        </g>
                    </g>
                </g>
                <g id="text_16">
                    <!-- log -->
                    <g transform="translate(210.309375 378.845312)rotate(-90)scale(0.2 -0.2)">
                        <defs>
                            <path id="DejaVuSans-6f" d="M 1959 3097
Q 1497 3097 1228 2736 
Q 959 2375 959 1747 
Q 959 1119 1226 758 
Q 1494 397 1959 397 
Q 2419 397 2687 759 
Q 2956 1122 2956 1747 
Q 2956 2369 2687 2733 
Q 2419 3097 1959 3097 
z
M 1959 3584 
Q 2709 3584 3137 3096 
Q 3566 2609 3566 1747 
Q 3566 888 3137 398 
Q 2709 -91 1959 -91 
Q 1206 -91 779 398 
Q 353 888 353 1747 
Q 353 2609 779 3096 
Q 1206 3584 1959 3584 
z
" transform="scale(0.015625)"/>
                            <path id="DejaVuSans-67" d="M 2906 1791
Q 2906 2416 2648 2759 
Q 2391 3103 1925 3103 
Q 1463 3103 1205 2759 
Q 947 2416 947 1791 
Q 947 1169 1205 825 
Q 1463 481 1925 481 
Q 2391 481 2648 825 
Q 2906 1169 2906 1791 
z
M 3481 434 
Q 3481 -459 3084 -895 
Q 2688 -1331 1869 -1331 
Q 1566 -1331 1297 -1286 
Q 1028 -1241 775 -1147 
L 775 -588 
Q 1028 -725 1275 -790 
Q 1522 -856 1778 -856 
Q 2344 -856 2625 -561 
Q 2906 -266 2906 331 
L 2906 616 
Q 2728 306 2450 153 
Q 2172 0 1784 0 
Q 1141 0 747 490 
Q 353 981 353 1791 
Q 353 2603 747 3093 
Q 1141 3584 1784 3584 
Q 2172 3584 2450 3431 
Q 2728 3278 2906 2969 
L 2906 3500 
L 3481 3500 
L 3481 434 
z
" transform="scale(0.015625)"/>
                        </defs>
                        <use xlink:href="#DejaVuSans-6c"/>
                        <use xlink:href="#DejaVuSans-6f" x="27.783203"/>
                        <use xlink:href="#DejaVuSans-67" x="88.964844"/>
                    </g>
                </g>
            </g>
            <g id="line2d_15">
                <path d="M 409.5 528.923855
L 409.5 491.411533 
" clip-path="url(#p02ea648b41)" style="fill: none; stroke: #595959; stroke-width: 1.5; stroke-linecap: square"/>
            </g>
            <g id="line2d_16">
                <path d="M 409.5 523.923463
L 409.5 507.127292 
" clip-path="url(#p02ea648b41)" style="fill: none; stroke: #595959; stroke-width: 4.5; stroke-linecap: square"/>
            </g>
            <g id="line2d_17">
                <path d="M 688.5 529.416816
L 688.5 463.856829 
" clip-path="url(#p02ea648b41)" style="fill: none; stroke: #595959; stroke-width: 1.5; stroke-linecap: square"/>
            </g>
            <g id="line2d_18">
                <path d="M 688.5 515.961848
L 688.5 476.065033 
" clip-path="url(#p02ea648b41)" style="fill: none; stroke: #595959; stroke-width: 4.5; stroke-linecap: square"/>
            </g>
            <g id="line2d_19">
                <path d="M 967.5 529.27459
L 967.5 462.881942 
" clip-path="url(#p02ea648b41)" style="fill: none; stroke: #595959; stroke-width: 1.5; stroke-linecap: square"/>
            </g>
            <g id="line2d_20">
                <path d="M 967.5 527.438328
L 967.5 495.191691 
" clip-path="url(#p02ea648b41)" style="fill: none; stroke: #595959; stroke-width: 4.5; stroke-linecap: square"/>
            </g>
            <g id="line2d_21">
                <path d="M 1246.5 527.709007
L 1246.5 465.227809 
" clip-path="url(#p02ea648b41)" style="fill: none; stroke: #595959; stroke-width: 1.5; stroke-linecap: square"/>
            </g>
            <g id="line2d_22">
                <path d="M 1246.5 517.295549
L 1246.5 465.227809 
" clip-path="url(#p02ea648b41)" style="fill: none; stroke: #595959; stroke-width: 4.5; stroke-linecap: square"/>
            </g>
            <g id="line2d_23">
                <path d="M 1525.5 529.427097
L 1525.5 449.167752 
" clip-path="url(#p02ea648b41)" style="fill: none; stroke: #595959; stroke-width: 1.5; stroke-linecap: square"/>
            </g>
            <g id="line2d_24">
                <path d="M 1525.5 520.828266
L 1525.5 483.511755 
" clip-path="url(#p02ea648b41)" style="fill: none; stroke: #595959; stroke-width: 4.5; stroke-linecap: square"/>
            </g>
            <g id="line2d_25">
                <path d="M 1804.5 527.377693
L 1804.5 504.164556 
" clip-path="url(#p02ea648b41)" style="fill: none; stroke: #595959; stroke-width: 1.5; stroke-linecap: square"/>
            </g>
            <g id="line2d_26">
                <path d="M 1804.5 522.852453
L 1804.5 506.967957 
" clip-path="url(#p02ea648b41)" style="fill: none; stroke: #595959; stroke-width: 4.5; stroke-linecap: square"/>
            </g>
            <g id="patch_3">
                <path d="M 270 640.8
L 270 86.4 
" style="fill: none; stroke: #000000; stroke-width: 0.8; stroke-linejoin: miter; stroke-linecap: square"/>
            </g>
            <g id="patch_4">
                <path d="M 1944 640.8
L 1944 86.4 
" style="fill: none; stroke: #000000; stroke-width: 0.8; stroke-linejoin: miter; stroke-linecap: square"/>
            </g>
            <g id="patch_5">
                <path d="M 270 640.8
L 1944 640.8 
" style="fill: none; stroke: #000000; stroke-width: 0.8; stroke-linejoin: miter; stroke-linecap: square"/>
            </g>
            <g id="patch_6">
                <path d="M 270 86.4
L 1944 86.4 
" style="fill: none; stroke: #000000; stroke-width: 0.8; stroke-linejoin: miter; stroke-linecap: square"/>
            </g>
            <g id="PathCollection_1">
                <defs>
                    <path id="m43f3d157f3" d="M 0 1.5
C 0.397805 1.5 0.77937 1.341951 1.06066 1.06066 
C 1.341951 0.77937 1.5 0.397805 1.5 0 
C 1.5 -0.397805 1.341951 -0.77937 1.06066 -1.06066 
C 0.77937 -1.341951 0.397805 -1.5 0 -1.5 
C -0.397805 -1.5 -0.77937 -1.341951 -1.06066 -1.06066 
C -1.341951 -0.77937 -1.5 -0.397805 -1.5 0 
C -1.5 0.397805 -1.341951 0.77937 -1.06066 1.06066 
C -0.77937 1.341951 -0.397805 1.5 0 1.5 
z
" style="stroke: #595959"/>
                </defs>
                <g clip-path="url(#p02ea648b41)">
                    <use xlink:href="#m43f3d157f3" x="409.5" y="519.061699" style="fill: #ffffff; stroke: #595959"/>
                </g>
            </g>
            <g id="PathCollection_2">
                <g clip-path="url(#p02ea648b41)">
                    <use xlink:href="#m43f3d157f3" x="688.5" y="494.889683" style="fill: #ffffff; stroke: #595959"/>
                </g>
            </g>
            <g id="PathCollection_3">
                <g clip-path="url(#p02ea648b41)">
                    <use xlink:href="#m43f3d157f3" x="967.5" y="515.671918" style="fill: #ffffff; stroke: #595959"/>
                </g>
            </g>
            <g id="PathCollection_4">
                <g clip-path="url(#p02ea648b41)">
                    <use xlink:href="#m43f3d157f3" x="1246.5" y="479.468314" style="fill: #ffffff; stroke: #595959"/>
                </g>
            </g>
            <g id="PathCollection_5">
                <g clip-path="url(#p02ea648b41)">
                    <use xlink:href="#m43f3d157f3" x="1525.5" y="503.124596" style="fill: #ffffff; stroke: #595959"/>
                </g>
            </g>
            <g id="PathCollection_6">
                <g clip-path="url(#p02ea648b41)">
                    <use xlink:href="#m43f3d157f3" x="1804.5" y="518.152687" style="fill: #ffffff; stroke: #595959"/>
                </g>
            </g>
            <g id="PathCollection_7">
                <defs>
                    <path id="C0_0_5f27f270fe" d="M 0 2.5
C 0.663008 2.5 1.29895 2.236584 1.767767 1.767767 
C 2.236584 1.29895 2.5 0.663008 2.5 -0 
C 2.5 -0.663008 2.236584 -1.29895 1.767767 -1.767767 
C 1.29895 -2.236584 0.663008 -2.5 0 -2.5 
C -0.663008 -2.5 -1.29895 -2.236584 -1.767767 -1.767767 
C -2.236584 -1.29895 -2.5 -0.663008 -2.5 0 
C -2.5 0.663008 -2.236584 1.29895 -1.767767 1.767767 
C -1.29895 2.236584 -0.663008 2.5 0 2.5 
z
"/>
                </defs>
                <g clip-path="url(#p02ea648b41)">
                    <use xlink:href="#C0_0_5f27f270fe" x="409.5" y="528.923855" style="fill: #1f77b4"/>
                </g>
                <g clip-path="url(#p02ea648b41)">
                    <use xlink:href="#C0_0_5f27f270fe" x="404.252785" y="528.761011" style="fill: #1f77b4"/>
                </g>
                <g clip-path="url(#p02ea648b41)">
                    <use xlink:href="#C0_0_5f27f270fe" x="414.555572" y="527.575742" style="fill: #1f77b4"/>
                </g>
                <g clip-path="url(#p02ea648b41)">
                    <use xlink:href="#C0_0_5f27f270fe" x="399.215567" y="527.351958" style="fill: #1f77b4"/>
                </g>
                <g clip-path="url(#p02ea648b41)">
                    <use xlink:href="#C0_0_5f27f270fe" x="419.423974" y="525.70433" style="fill: #1f77b4"/>
                </g>
                <g clip-path="url(#p02ea648b41)">
                    <use xlink:href="#C0_0_5f27f270fe" x="410.796087" y="524.085714" style="fill: #1f77b4"/>
                </g>
                <g clip-path="url(#p02ea648b41)">
                    <use xlink:href="#C0_0_5f27f270fe" x="405.557155" y="523.761212" style="fill: #1f77b4"/>
                </g>
                <g clip-path="url(#p02ea648b41)">
                    <use xlink:href="#C0_0_5f27f270fe" x="396.451905" y="523.100809" style="fill: #1f77b4"/>
                </g>
                <g clip-path="url(#p02ea648b41)">
                    <use xlink:href="#C0_0_5f27f270fe" x="423.724635" y="522.836601" style="fill: #1f77b4"/>
                </g>
                <g clip-path="url(#p02ea648b41)">
                    <use xlink:href="#C0_0_5f27f270fe" x="415.516026" y="522.365499" style="fill: #1f77b4"/>
                </g>
                <g clip-path="url(#p02ea648b41)">
                    <use xlink:href="#C0_0_5f27f270fe" x="391.278054" y="522.252304" style="fill: #1f77b4"/>
                </g>
                <g clip-path="url(#p02ea648b41)">
                    <use xlink:href="#C0_0_5f27f270fe" x="409.5" y="519.061699" style="fill: #1f77b4"/>
                </g>
                <g clip-path="url(#p02ea648b41)">
                    <use xlink:href="#C0_0_5f27f270fe" x="404.304866" y="518.340723" style="fill: #1f77b4"/>
                </g>
                <g clip-path="url(#p02ea648b41)">
                    <use xlink:href="#C0_0_5f27f270fe" x="412.767453" y="515.148091" style="fill: #1f77b4"/>
                </g>
                <g clip-path="url(#p02ea648b41)">
                    <use xlink:href="#C0_0_5f27f270fe" x="418.009494" y="514.872874" style="fill: #1f77b4"/>
                </g>
                <g clip-path="url(#p02ea648b41)">
                    <use xlink:href="#C0_0_5f27f270fe" x="409.5" y="511.234337" style="fill: #1f77b4"/>
                </g>
                <g clip-path="url(#p02ea648b41)">
                    <use xlink:href="#C0_0_5f27f270fe" x="406.154215" y="507.381226" style="fill: #1f77b4"/>
                </g>
                <g clip-path="url(#p02ea648b41)">
                    <use xlink:href="#C0_0_5f27f270fe" x="412.068074" y="506.873358" style="fill: #1f77b4"/>
                </g>
                <g clip-path="url(#p02ea648b41)">
                    <use xlink:href="#C0_0_5f27f270fe" x="416.171826" y="503.754878" style="fill: #1f77b4"/>
                </g>
                <g clip-path="url(#p02ea648b41)">
                    <use xlink:href="#C0_0_5f27f270fe" x="409.5" y="500.794532" style="fill: #1f77b4"/>
                </g>
                <g clip-path="url(#p02ea648b41)">
                    <use xlink:href="#C0_0_5f27f270fe" x="404.264746" y="500.420041" style="fill: #1f77b4"/>
                </g>
                <g clip-path="url(#p02ea648b41)">
                    <use xlink:href="#C0_0_5f27f270fe" x="409.5" y="491.411533" style="fill: #1f77b4"/>
                </g>
                <g clip-path="url(#p02ea648b41)">
                    <use xlink:href="#C0_0_5f27f270fe" x="409.5" y="186.075667" style="fill: #1f77b4"/>
                </g>
            </g>
            <g id="PathCollection_8">
                <defs>
                    <path id="C1_0_b99620cb78" d="M 0 2.5
C 0.663008 2.5 1.29895 2.236584 1.767767 1.767767 
C 2.236584 1.29895 2.5 0.663008 2.5 -0 
C 2.5 -0.663008 2.236584 -1.29895 1.767767 -1.767767 
C 1.29895 -2.236584 0.663008 -2.5 0 -2.5 
C -0.663008 -2.5 -1.29895 -2.236584 -1.767767 -1.767767 
C -2.236584 -1.29895 -2.5 -0.663008 -2.5 0 
C -2.5 0.663008 -2.236584 1.29895 -1.767767 1.767767 
C -1.29895 2.236584 -0.663008 2.5 0 2.5 
z
"/>
                </defs>
                <g clip-path="url(#p02ea648b41)">
                    <use xlink:href="#C1_0_b99620cb78" x="688.5" y="529.416816" style="fill: #ff7f0e"/>
                </g>
                <g clip-path="url(#p02ea648b41)">
                    <use xlink:href="#C1_0_b99620cb78" x="688.5" y="524.36558" style="fill: #ff7f0e"/>
                </g>
                <g clip-path="url(#p02ea648b41)">
                    <use xlink:href="#C1_0_b99620cb78" x="683.912355" y="521.934486" style="fill: #ff7f0e"/>
                </g>
                <g clip-path="url(#p02ea648b41)">
                    <use xlink:href="#C1_0_b99620cb78" x="690.952404" y="519.944622" style="fill: #ff7f0e"/>
                </g>
                <g clip-path="url(#p02ea648b41)">
                    <use xlink:href="#C1_0_b99620cb78" x="686.570636" y="517.19051" style="fill: #ff7f0e"/>
                </g>
                <g clip-path="url(#p02ea648b41)">
                    <use xlink:href="#C1_0_b99620cb78" x="694.126376" y="515.961848" style="fill: #ff7f0e"/>
                </g>
                <g clip-path="url(#p02ea648b41)">
                    <use xlink:href="#C1_0_b99620cb78" x="688.5" y="512.55135" style="fill: #ff7f0e"/>
                </g>
                <g clip-path="url(#p02ea648b41)">
                    <use xlink:href="#C1_0_b99620cb78" x="688.5" y="506.352155" style="fill: #ff7f0e"/>
                </g>
                <g clip-path="url(#p02ea648b41)">
                    <use xlink:href="#C1_0_b99620cb78" x="684.80821" y="502.797186" style="fill: #ff7f0e"/>
                </g>
                <g clip-path="url(#p02ea648b41)">
                    <use xlink:href="#C1_0_b99620cb78" x="689.38259" y="500.343524" style="fill: #ff7f0e"/>
                </g>
                <g clip-path="url(#p02ea648b41)">
                    <use xlink:href="#C1_0_b99620cb78" x="688.5" y="494.889683" style="fill: #ff7f0e"/>
                </g>
                <g clip-path="url(#p02ea648b41)">
                    <use xlink:href="#C1_0_b99620cb78" x="683.279007" y="494.364809" style="fill: #ff7f0e"/>
                </g>
                <g clip-path="url(#p02ea648b41)">
                    <use xlink:href="#C1_0_b99620cb78" x="692.314113" y="491.453839" style="fill: #ff7f0e"/>
                </g>
                <g clip-path="url(#p02ea648b41)">
                    <use xlink:href="#C1_0_b99620cb78" x="688.5" y="484.709526" style="fill: #ff7f0e"/>
                </g>
                <g clip-path="url(#p02ea648b41)">
                    <use xlink:href="#C1_0_b99620cb78" x="683.251576" y="484.58701" style="fill: #ff7f0e"/>
                </g>
                <g clip-path="url(#p02ea648b41)">
                    <use xlink:href="#C1_0_b99620cb78" x="688.5" y="476.065033" style="fill: #ff7f0e"/>
                </g>
                <g clip-path="url(#p02ea648b41)">
                    <use xlink:href="#C1_0_b99620cb78" x="684.442165" y="472.892521" style="fill: #ff7f0e"/>
                </g>
                <g clip-path="url(#p02ea648b41)">
                    <use xlink:href="#C1_0_b99620cb78" x="689.716728" y="471.201165" style="fill: #ff7f0e"/>
                </g>
                <g clip-path="url(#p02ea648b41)">
                    <use xlink:href="#C1_0_b99620cb78" x="687.212936" y="466.806412" style="fill: #ff7f0e"/>
                </g>
                <g clip-path="url(#p02ea648b41)">
                    <use xlink:href="#C1_0_b99620cb78" x="691.452122" y="463.856829" style="fill: #ff7f0e"/>
                </g>
                <g clip-path="url(#p02ea648b41)">
                    <use xlink:href="#C1_0_b99620cb78" x="688.5" y="333.540528" style="fill: #ff7f0e"/>
                </g>
            </g>
            <g id="PathCollection_9">
                <defs>
                    <path id="C2_0_cb0022d811" d="M 0 2.5
C 0.663008 2.5 1.29895 2.236584 1.767767 1.767767 
C 2.236584 1.29895 2.5 0.663008 2.5 -0 
C 2.5 -0.663008 2.236584 -1.29895 1.767767 -1.767767 
C 1.29895 -2.236584 0.663008 -2.5 0 -2.5 
C -0.663008 -2.5 -1.29895 -2.236584 -1.767767 -1.767767 
C -2.236584 -1.29895 -2.5 -0.663008 -2.5 0 
C -2.5 0.663008 -2.236584 1.29895 -1.767767 1.767767 
C -1.29895 2.236584 -0.663008 2.5 0 2.5 
z
"/>
                </defs>
                <g clip-path="url(#p02ea648b41)">
                    <use xlink:href="#C2_0_cb0022d811" x="967.5" y="529.27459" style="fill: #2ca02c"/>
                </g>
                <g clip-path="url(#p02ea648b41)">
                    <use xlink:href="#C2_0_cb0022d811" x="962.292289" y="528.641239" style="fill: #2ca02c"/>
                </g>
                <g clip-path="url(#p02ea648b41)">
                    <use xlink:href="#C2_0_cb0022d811" x="967.5" y="523.829595" style="fill: #2ca02c"/>
                </g>
                <g clip-path="url(#p02ea648b41)">
                    <use xlink:href="#C2_0_cb0022d811" x="967.5" y="507.514241" style="fill: #2ca02c"/>
                </g>
                <g clip-path="url(#p02ea648b41)">
                    <use xlink:href="#C2_0_cb0022d811" x="967.5" y="491.084174" style="fill: #2ca02c"/>
                </g>
                <g clip-path="url(#p02ea648b41)">
                    <use xlink:href="#C2_0_cb0022d811" x="967.5" y="462.881942" style="fill: #2ca02c"/>
                </g>
            </g>
            <g id="PathCollection_10">
                <defs>
                    <path id="C3_0_f97b06d8ec" d="M 0 2.5
C 0.663008 2.5 1.29895 2.236584 1.767767 1.767767 
C 2.236584 1.29895 2.5 0.663008 2.5 -0 
C 2.5 -0.663008 2.236584 -1.29895 1.767767 -1.767767 
C 1.29895 -2.236584 0.663008 -2.5 0 -2.5 
C -0.663008 -2.5 -1.29895 -2.236584 -1.767767 -1.767767 
C -2.236584 -1.29895 -2.5 -0.663008 -2.5 0 
C -2.5 0.663008 -2.236584 1.29895 -1.767767 1.767767 
C -1.29895 2.236584 -0.663008 2.5 0 2.5 
z
"/>
                </defs>
                <g clip-path="url(#p02ea648b41)">
                    <use xlink:href="#C3_0_f97b06d8ec" x="1246.5" y="527.709007" style="fill: #d62728"/>
                </g>
                <g clip-path="url(#p02ea648b41)">
                    <use xlink:href="#C3_0_f97b06d8ec" x="1246.5" y="520.628004" style="fill: #d62728"/>
                </g>
                <g clip-path="url(#p02ea648b41)">
                    <use xlink:href="#C3_0_f97b06d8ec" x="1242.586056" y="517.295549" style="fill: #d62728"/>
                </g>
                <g clip-path="url(#p02ea648b41)">
                    <use xlink:href="#C3_0_f97b06d8ec" x="1246.5" y="510.629616" style="fill: #d62728"/>
                </g>
                <g clip-path="url(#p02ea648b41)">
                    <use xlink:href="#C3_0_f97b06d8ec" x="1246.5" y="479.468314" style="fill: #d62728"/>
                </g>
                <g clip-path="url(#p02ea648b41)">
                    <use xlink:href="#C3_0_f97b06d8ec" x="1246.5" y="469.052907" style="fill: #d62728"/>
                </g>
                <g clip-path="url(#p02ea648b41)">
                    <use xlink:href="#C3_0_f97b06d8ec" x="1243.118963" y="465.227809" style="fill: #d62728"/>
                </g>
                <g clip-path="url(#p02ea648b41)">
                    <use xlink:href="#C3_0_f97b06d8ec" x="1246.5" y="384.301224" style="fill: #d62728"/>
                </g>
                <g clip-path="url(#p02ea648b41)">
                    <use xlink:href="#C3_0_f97b06d8ec" x="1246.5" y="328.401255" style="fill: #d62728"/>
                </g>
            </g>
            <g id="PathCollection_11">
                <defs>
                    <path id="C4_0_5a9bf89128" d="M 0 2.5
C 0.663008 2.5 1.29895 2.236584 1.767767 1.767767 
C 2.236584 1.29895 2.5 0.663008 2.5 -0 
C 2.5 -0.663008 2.236584 -1.29895 1.767767 -1.767767 
C 1.29895 -2.236584 0.663008 -2.5 0 -2.5 
C -0.663008 -2.5 -1.29895 -2.236584 -1.767767 -1.767767 
C -2.236584 -1.29895 -2.5 -0.663008 -2.5 0 
C -2.5 0.663008 -2.236584 1.29895 -1.767767 1.767767 
C -1.29895 2.236584 -0.663008 2.5 0 2.5 
z
"/>
                </defs>
                <g clip-path="url(#p02ea648b41)">
                    <use xlink:href="#C4_0_5a9bf89128" x="1525.5" y="529.427097" style="fill: #9467bd"/>
                </g>
                <g clip-path="url(#p02ea648b41)">
                    <use xlink:href="#C4_0_5a9bf89128" x="1522.134265" y="525.589779" style="fill: #9467bd"/>
                </g>
                <g clip-path="url(#p02ea648b41)">
                    <use xlink:href="#C4_0_5a9bf89128" x="1526.215094" y="522.444133" style="fill: #9467bd"/>
                </g>
                <g clip-path="url(#p02ea648b41)">
                    <use xlink:href="#C4_0_5a9bf89128" x="1531.311842" y="521.244866" style="fill: #9467bd"/>
                </g>
                <g clip-path="url(#p02ea648b41)">
                    <use xlink:href="#C4_0_5a9bf89128" x="1520.532199" y="520.828266" style="fill: #9467bd"/>
                </g>
                <g clip-path="url(#p02ea648b41)">
                    <use xlink:href="#C4_0_5a9bf89128" x="1525.5" y="513.398357" style="fill: #9467bd"/>
                </g>
                <g clip-path="url(#p02ea648b41)">
                    <use xlink:href="#C4_0_5a9bf89128" x="1525.5" y="505.187047" style="fill: #9467bd"/>
                </g>
                <g clip-path="url(#p02ea648b41)">
                    <use xlink:href="#C4_0_5a9bf89128" x="1520.346753" y="504.231555" style="fill: #9467bd"/>
                </g>
                <g clip-path="url(#p02ea648b41)">
                    <use xlink:href="#C4_0_5a9bf89128" x="1530.28255" y="503.124596" style="fill: #9467bd"/>
                </g>
                <g clip-path="url(#p02ea648b41)">
                    <use xlink:href="#C4_0_5a9bf89128" x="1525.5" y="496.120547" style="fill: #9467bd"/>
                </g>
                <g clip-path="url(#p02ea648b41)">
                    <use xlink:href="#C4_0_5a9bf89128" x="1525.5" y="490.576564" style="fill: #9467bd"/>
                </g>
                <g clip-path="url(#p02ea648b41)">
                    <use xlink:href="#C4_0_5a9bf89128" x="1525.5" y="484.07039" style="fill: #9467bd"/>
                </g>
                <g clip-path="url(#p02ea648b41)">
                    <use xlink:href="#C4_0_5a9bf89128" x="1520.28287" y="483.511755" style="fill: #9467bd"/>
                </g>
                <g clip-path="url(#p02ea648b41)">
                    <use xlink:href="#C4_0_5a9bf89128" x="1525.5" y="463.600128" style="fill: #9467bd"/>
                </g>
                <g clip-path="url(#p02ea648b41)">
                    <use xlink:href="#C4_0_5a9bf89128" x="1525.5" y="449.167752" style="fill: #9467bd"/>
                </g>
                <g clip-path="url(#p02ea648b41)">
                    <use xlink:href="#C4_0_5a9bf89128" x="1525.5" y="415.292738" style="fill: #9467bd"/>
                </g>
                <g clip-path="url(#p02ea648b41)">
                    <use xlink:href="#C4_0_5a9bf89128" x="1525.5" y="331.453677" style="fill: #9467bd"/>
                </g>
            </g>
            <g id="PathCollection_12">
                <defs>
                    <path id="C5_0_21de4b3a24" d="M 0 2.5
C 0.663008 2.5 1.29895 2.236584 1.767767 1.767767 
C 2.236584 1.29895 2.5 0.663008 2.5 -0 
C 2.5 -0.663008 2.236584 -1.29895 1.767767 -1.767767 
C 1.29895 -2.236584 0.663008 -2.5 0 -2.5 
C -0.663008 -2.5 -1.29895 -2.236584 -1.767767 -1.767767 
C -2.236584 -1.29895 -2.5 -0.663008 -2.5 0 
C -2.5 0.663008 -2.236584 1.29895 -1.767767 1.767767 
C -1.29895 2.236584 -0.663008 2.5 0 2.5 
z
"/>
                </defs>
                <g clip-path="url(#p02ea648b41)">
                    <use xlink:href="#C5_0_21de4b3a24" x="1804.5" y="527.377693" style="fill: #8c564b"/>
                </g>
                <g clip-path="url(#p02ea648b41)">
                    <use xlink:href="#C5_0_21de4b3a24" x="1801.19317" y="523.494199" style="fill: #8c564b"/>
                </g>
                <g clip-path="url(#p02ea648b41)">
                    <use xlink:href="#C5_0_21de4b3a24" x="1805.698463" y="520.927213" style="fill: #8c564b"/>
                </g>
                <g clip-path="url(#p02ea648b41)">
                    <use xlink:href="#C5_0_21de4b3a24" x="1804.5" y="515.378162" style="fill: #8c564b"/>
                </g>
                <g clip-path="url(#p02ea648b41)">
                    <use xlink:href="#C5_0_21de4b3a24" x="1804.5" y="504.164556" style="fill: #8c564b"/>
                </g>
                <g clip-path="url(#p02ea648b41)">
                    <use xlink:href="#C5_0_21de4b3a24" x="1804.5" y="480.879989" style="fill: #8c564b"/>
                </g>
            </g>
            <g id="text_17">
                <!-- P values of Field Neurological -->
                <g transform="translate(931.325625 80.4)scale(0.24 -0.24)">
                    <defs>
                        <path id="DejaVuSans-50" d="M 1259 4147
L 1259 2394 
L 2053 2394 
Q 2494 2394 2734 2622 
Q 2975 2850 2975 3272 
Q 2975 3691 2734 3919 
Q 2494 4147 2053 4147 
L 1259 4147 
z
M 628 4666 
L 2053 4666 
Q 2838 4666 3239 4311 
Q 3641 3956 3641 3272 
Q 3641 2581 3239 2228 
Q 2838 1875 2053 1875 
L 1259 1875 
L 1259 0 
L 628 0 
L 628 4666 
z
" transform="scale(0.015625)"/>
                        <path id="DejaVuSans-20" transform="scale(0.015625)"/>
                        <path id="DejaVuSans-76" d="M 191 3500
L 800 3500 
L 1894 563 
L 2988 3500 
L 3597 3500 
L 2284 0 
L 1503 0 
L 191 3500 
z
" transform="scale(0.015625)"/>
                        <path id="DejaVuSans-61" d="M 2194 1759
Q 1497 1759 1228 1600 
Q 959 1441 959 1056 
Q 959 750 1161 570 
Q 1363 391 1709 391 
Q 2188 391 2477 730 
Q 2766 1069 2766 1631 
L 2766 1759 
L 2194 1759 
z
M 3341 1997 
L 3341 0 
L 2766 0 
L 2766 531 
Q 2569 213 2275 61 
Q 1981 -91 1556 -91 
Q 1019 -91 701 211 
Q 384 513 384 1019 
Q 384 1609 779 1909 
Q 1175 2209 1959 2209 
L 2766 2209 
L 2766 2266 
Q 2766 2663 2505 2880 
Q 2244 3097 1772 3097 
Q 1472 3097 1187 3025 
Q 903 2953 641 2809 
L 641 3341 
Q 956 3463 1253 3523 
Q 1550 3584 1831 3584 
Q 2591 3584 2966 3190 
Q 3341 2797 3341 1997 
z
" transform="scale(0.015625)"/>
                        <path id="DejaVuSans-66" d="M 2375 4863
L 2375 4384 
L 1825 4384 
Q 1516 4384 1395 4259 
Q 1275 4134 1275 3809 
L 1275 3500 
L 2222 3500 
L 2222 3053 
L 1275 3053 
L 1275 0 
L 697 0 
L 697 3053 
L 147 3053 
L 147 3500 
L 697 3500 
L 697 3744 
Q 697 4328 969 4595 
Q 1241 4863 1831 4863 
L 2375 4863 
z
" transform="scale(0.015625)"/>
                        <path id="DejaVuSans-46" d="M 628 4666
L 3309 4666 
L 3309 4134 
L 1259 4134 
L 1259 2759 
L 3109 2759 
L 3109 2228 
L 1259 2228 
L 1259 0 
L 628 0 
L 628 4666 
z
" transform="scale(0.015625)"/>
                        <path id="DejaVuSans-69" d="M 603 3500
L 1178 3500 
L 1178 0 
L 603 0 
L 603 3500 
z
M 603 4863 
L 1178 4863 
L 1178 4134 
L 603 4134 
L 603 4863 
z
" transform="scale(0.015625)"/>
                        <path id="DejaVuSans-64" d="M 2906 2969
L 2906 4863 
L 3481 4863 
L 3481 0 
L 2906 0 
L 2906 525 
Q 2725 213 2448 61 
Q 2172 -91 1784 -91 
Q 1150 -91 751 415 
Q 353 922 353 1747 
Q 353 2572 751 3078 
Q 1150 3584 1784 3584 
Q 2172 3584 2448 3432 
Q 2725 3281 2906 2969 
z
M 947 1747 
Q 947 1113 1208 752 
Q 1469 391 1925 391 
Q 2381 391 2643 752 
Q 2906 1113 2906 1747 
Q 2906 2381 2643 2742 
Q 2381 3103 1925 3103 
Q 1469 3103 1208 2742 
Q 947 2381 947 1747 
z
" transform="scale(0.015625)"/>
                        <path id="DejaVuSans-4e" d="M 628 4666
L 1478 4666 
L 3547 763 
L 3547 4666 
L 4159 4666 
L 4159 0 
L 3309 0 
L 1241 3903 
L 1241 0 
L 628 0 
L 628 4666 
z
" transform="scale(0.015625)"/>
                    </defs>
                    <use xlink:href="#DejaVuSans-50"/>
                    <use xlink:href="#DejaVuSans-20" x="60.302734"/>
                    <use xlink:href="#DejaVuSans-76" x="92.089844"/>
                    <use xlink:href="#DejaVuSans-61" x="151.269531"/>
                    <use xlink:href="#DejaVuSans-6c" x="212.548828"/>
                    <use xlink:href="#DejaVuSans-75" x="240.332031"/>
                    <use xlink:href="#DejaVuSans-65" x="303.710938"/>
                    <use xlink:href="#DejaVuSans-73" x="365.234375"/>
                    <use xlink:href="#DejaVuSans-20" x="417.333984"/>
                    <use xlink:href="#DejaVuSans-6f" x="449.121094"/>
                    <use xlink:href="#DejaVuSans-66" x="510.302734"/>
                    <use xlink:href="#DejaVuSans-20" x="545.507812"/>
                    <use xlink:href="#DejaVuSans-46" x="577.294922"/>
                    <use xlink:href="#DejaVuSans-69" x="627.564453"/>
                    <use xlink:href="#DejaVuSans-65" x="655.347656"/>
                    <use xlink:href="#DejaVuSans-6c" x="716.871094"/>
                    <use xlink:href="#DejaVuSans-64" x="744.654297"/>
                    <use xlink:href="#DejaVuSans-20" x="808.130859"/>
                    <use xlink:href="#DejaVuSans-4e" x="839.917969"/>
                    <use xlink:href="#DejaVuSans-65" x="914.722656"/>
                    <use xlink:href="#DejaVuSans-75" x="976.246094"/>
                    <use xlink:href="#DejaVuSans-72" x="1039.625"/>
                    <use xlink:href="#DejaVuSans-6f" x="1078.488281"/>
                    <use xlink:href="#DejaVuSans-6c" x="1139.669922"/>
                    <use xlink:href="#DejaVuSans-6f" x="1167.453125"/>
                    <use xlink:href="#DejaVuSans-67" x="1228.634766"/>
                    <use xlink:href="#DejaVuSans-69" x="1292.111328"/>
                    <use xlink:href="#DejaVuSans-63" x="1319.894531"/>
                    <use xlink:href="#DejaVuSans-61" x="1374.875"/>
                    <use xlink:href="#DejaVuSans-6c" x="1436.154297"/>
                </g>
            </g>
        </g>
    </g>
    <defs>
        <clipPath id="p02ea648b41">
            <rect x="270" y="86.4" width="1674" height="554.4"/>
        </clipPath>
    </defs>
</svg>
