<?xml version="1.0" encoding="utf-8" standalone="no"?>
<!DOCTYPE svg PUBLIC "-//W3C//DTD SVG 1.1//EN"
        "http://www.w3.org/Graphics/SVG/1.1/DTD/svg11.dtd">
<svg xmlns:xlink="http://www.w3.org/1999/xlink" width="2160pt" height="720pt" viewBox="0 0 2160 720"
     xmlns="http://www.w3.org/2000/svg" version="1.1">
    <metadata>
        <rdf:RDF xmlns:dc="http://purl.org/dc/elements/1.1/" xmlns:cc="http://creativecommons.org/ns#"
                 xmlns:rdf="http://www.w3.org/1999/02/22-rdf-syntax-ns#">
            <cc:Work>
                <dc:type rdf:resource="http://purl.org/dc/dcmitype/StillImage"/>
                <dc:date>2022-06-10T17:39:06.735086</dc:date>
                <dc:format>image/svg+xml</dc:format>
                <dc:creator>
                    <cc:Agent>
                        <dc:title>Matplotlib v3.5.1, https://matplotlib.org/</dc:title>
                    </cc:Agent>
                </dc:creator>
            </cc:Work>
        </rdf:RDF>
    </metadata>
    <defs>
        <style type="text/css">*{stroke-linejoin: round; stroke-linecap: butt}</style>
    </defs>
    <g id="figure_1">
        <g id="patch_1">
            <path d="M 0 720
L 2160 720 
L 2160 0 
L 0 0 
z
" style="fill: #ffffff"/>
        </g>
        <g id="axes_1">
            <g id="patch_2">
                <path d="M 270 640.8
L 1944 640.8 
L 1944 86.4 
L 270 86.4 
z
" style="fill: #ffffff"/>
            </g>
            <g id="patch_3">
                <path d="M 297.9 579.342587
L 521.1 579.342587 
L 521.1 471.865494 
L 297.9 471.865494 
L 297.9 579.342587 
z
" clip-path="url(#pb77d1dfaea)" style="fill: #72b6a1; stroke: #595959; stroke-width: 1.5; stroke-linejoin: miter"/>
            </g>
            <g id="patch_4">
                <path d="M 576.9 546.097482
L 800.1 546.097482 
L 800.1 425.75445 
L 576.9 425.75445 
L 576.9 546.097482 
z
" clip-path="url(#pb77d1dfaea)" style="fill: #e99675; stroke: #595959; stroke-width: 1.5; stroke-linejoin: miter"/>
            </g>
            <g id="patch_5">
                <path d="M 855.9 554.668485
L 1079.1 554.668485 
L 1079.1 468.517694 
L 855.9 468.517694 
L 855.9 554.668485 
z
" clip-path="url(#pb77d1dfaea)" style="fill: #95a3c3; stroke: #595959; stroke-width: 1.5; stroke-linejoin: miter"/>
            </g>
            <g id="patch_6">
                <path d="M 1134.9 578.831061
L 1358.1 578.831061 
L 1358.1 563.556938 
L 1134.9 563.556938 
L 1134.9 578.831061 
z
" clip-path="url(#pb77d1dfaea)" style="fill: #db96c0; stroke: #595959; stroke-width: 1.5; stroke-linejoin: miter"/>
            </g>
            <g id="patch_7">
                <path d="M 1413.9 588.728504
L 1637.1 588.728504 
L 1637.1 490.059566 
L 1413.9 490.059566 
L 1413.9 588.728504 
z
" clip-path="url(#pb77d1dfaea)" style="fill: #a2c865; stroke: #595959; stroke-width: 1.5; stroke-linejoin: miter"/>
            </g>
            <g id="patch_8">
                <path d="M 1692.9 494.632031
L 1916.1 494.632031 
L 1916.1 494.632031 
L 1692.9 494.632031 
L 1692.9 494.632031 
z
" clip-path="url(#pb77d1dfaea)" style="fill: #e5c849; stroke: #595959; stroke-width: 1.5; stroke-linejoin: miter"/>
            </g>
            <g id="matplotlib.axis_1">
                <g id="xtick_1">
                    <g id="line2d_1">
                        <defs>
                            <path id="m120ee57b2f" d="M 0 0
L 0 3.5 
" style="stroke: #000000; stroke-width: 0.8"/>
                        </defs>
                        <g>
                            <use xlink:href="#m120ee57b2f" x="409.5" y="640.8"
                                 style="stroke: #000000; stroke-width: 0.8"/>
                        </g>
                    </g>
                    <g id="text_1">
                        <!-- 1 -->
                        <g transform="translate(403.1375 662.996875)scale(0.2 -0.2)">
                            <defs>
                                <path id="DejaVuSans-31" d="M 794 531
L 1825 531 
L 1825 4091 
L 703 3866 
L 703 4441 
L 1819 4666 
L 2450 4666 
L 2450 531 
L 3481 531 
L 3481 0 
L 794 0 
L 794 531 
z
" transform="scale(0.015625)"/>
                            </defs>
                            <use xlink:href="#DejaVuSans-31"/>
                        </g>
                    </g>
                </g>
                <g id="xtick_2">
                    <g id="line2d_2">
                        <g>
                            <use xlink:href="#m120ee57b2f" x="688.5" y="640.8"
                                 style="stroke: #000000; stroke-width: 0.8"/>
                        </g>
                    </g>
                    <g id="text_2">
                        <!-- 2 -->
                        <g transform="translate(682.1375 662.996875)scale(0.2 -0.2)">
                            <defs>
                                <path id="DejaVuSans-32" d="M 1228 531
L 3431 531 
L 3431 0 
L 469 0 
L 469 531 
Q 828 903 1448 1529 
Q 2069 2156 2228 2338 
Q 2531 2678 2651 2914 
Q 2772 3150 2772 3378 
Q 2772 3750 2511 3984 
Q 2250 4219 1831 4219 
Q 1534 4219 1204 4116 
Q 875 4013 500 3803 
L 500 4441 
Q 881 4594 1212 4672 
Q 1544 4750 1819 4750 
Q 2544 4750 2975 4387 
Q 3406 4025 3406 3419 
Q 3406 3131 3298 2873 
Q 3191 2616 2906 2266 
Q 2828 2175 2409 1742 
Q 1991 1309 1228 531 
z
" transform="scale(0.015625)"/>
                            </defs>
                            <use xlink:href="#DejaVuSans-32"/>
                        </g>
                    </g>
                </g>
                <g id="xtick_3">
                    <g id="line2d_3">
                        <g>
                            <use xlink:href="#m120ee57b2f" x="967.5" y="640.8"
                                 style="stroke: #000000; stroke-width: 0.8"/>
                        </g>
                    </g>
                    <g id="text_3">
                        <!-- 3 -->
                        <g transform="translate(961.1375 662.996875)scale(0.2 -0.2)">
                            <defs>
                                <path id="DejaVuSans-33" d="M 2597 2516
Q 3050 2419 3304 2112 
Q 3559 1806 3559 1356 
Q 3559 666 3084 287 
Q 2609 -91 1734 -91 
Q 1441 -91 1130 -33 
Q 819 25 488 141 
L 488 750 
Q 750 597 1062 519 
Q 1375 441 1716 441 
Q 2309 441 2620 675 
Q 2931 909 2931 1356 
Q 2931 1769 2642 2001 
Q 2353 2234 1838 2234 
L 1294 2234 
L 1294 2753 
L 1863 2753 
Q 2328 2753 2575 2939 
Q 2822 3125 2822 3475 
Q 2822 3834 2567 4026 
Q 2313 4219 1838 4219 
Q 1578 4219 1281 4162 
Q 984 4106 628 3988 
L 628 4550 
Q 988 4650 1302 4700 
Q 1616 4750 1894 4750 
Q 2613 4750 3031 4423 
Q 3450 4097 3450 3541 
Q 3450 3153 3228 2886 
Q 3006 2619 2597 2516 
z
" transform="scale(0.015625)"/>
                            </defs>
                            <use xlink:href="#DejaVuSans-33"/>
                        </g>
                    </g>
                </g>
                <g id="xtick_4">
                    <g id="line2d_4">
                        <g>
                            <use xlink:href="#m120ee57b2f" x="1246.5" y="640.8"
                                 style="stroke: #000000; stroke-width: 0.8"/>
                        </g>
                    </g>
                    <g id="text_4">
                        <!-- 4 -->
                        <g transform="translate(1240.1375 662.996875)scale(0.2 -0.2)">
                            <defs>
                                <path id="DejaVuSans-34" d="M 2419 4116
L 825 1625 
L 2419 1625 
L 2419 4116 
z
M 2253 4666 
L 3047 4666 
L 3047 1625 
L 3713 1625 
L 3713 1100 
L 3047 1100 
L 3047 0 
L 2419 0 
L 2419 1100 
L 313 1100 
L 313 1709 
L 2253 4666 
z
" transform="scale(0.015625)"/>
                            </defs>
                            <use xlink:href="#DejaVuSans-34"/>
                        </g>
                    </g>
                </g>
                <g id="xtick_5">
                    <g id="line2d_5">
                        <g>
                            <use xlink:href="#m120ee57b2f" x="1525.5" y="640.8"
                                 style="stroke: #000000; stroke-width: 0.8"/>
                        </g>
                    </g>
                    <g id="text_5">
                        <!-- 5 -->
                        <g transform="translate(1519.1375 662.996875)scale(0.2 -0.2)">
                            <defs>
                                <path id="DejaVuSans-35" d="M 691 4666
L 3169 4666 
L 3169 4134 
L 1269 4134 
L 1269 2991 
Q 1406 3038 1543 3061 
Q 1681 3084 1819 3084 
Q 2600 3084 3056 2656 
Q 3513 2228 3513 1497 
Q 3513 744 3044 326 
Q 2575 -91 1722 -91 
Q 1428 -91 1123 -41 
Q 819 9 494 109 
L 494 744 
Q 775 591 1075 516 
Q 1375 441 1709 441 
Q 2250 441 2565 725 
Q 2881 1009 2881 1497 
Q 2881 1984 2565 2268 
Q 2250 2553 1709 2553 
Q 1456 2553 1204 2497 
Q 953 2441 691 2322 
L 691 4666 
z
" transform="scale(0.015625)"/>
                            </defs>
                            <use xlink:href="#DejaVuSans-35"/>
                        </g>
                    </g>
                </g>
                <g id="xtick_6">
                    <g id="line2d_6">
                        <g>
                            <use xlink:href="#m120ee57b2f" x="1804.5" y="640.8"
                                 style="stroke: #000000; stroke-width: 0.8"/>
                        </g>
                    </g>
                    <g id="text_6">
                        <!-- 6 -->
                        <g transform="translate(1798.1375 662.996875)scale(0.2 -0.2)">
                            <defs>
                                <path id="DejaVuSans-36" d="M 2113 2584
Q 1688 2584 1439 2293 
Q 1191 2003 1191 1497 
Q 1191 994 1439 701 
Q 1688 409 2113 409 
Q 2538 409 2786 701 
Q 3034 994 3034 1497 
Q 3034 2003 2786 2293 
Q 2538 2584 2113 2584 
z
M 3366 4563 
L 3366 3988 
Q 3128 4100 2886 4159 
Q 2644 4219 2406 4219 
Q 1781 4219 1451 3797 
Q 1122 3375 1075 2522 
Q 1259 2794 1537 2939 
Q 1816 3084 2150 3084 
Q 2853 3084 3261 2657 
Q 3669 2231 3669 1497 
Q 3669 778 3244 343 
Q 2819 -91 2113 -91 
Q 1303 -91 875 529 
Q 447 1150 447 2328 
Q 447 3434 972 4092 
Q 1497 4750 2381 4750 
Q 2619 4750 2861 4703 
Q 3103 4656 3366 4563 
z
" transform="scale(0.015625)"/>
                            </defs>
                            <use xlink:href="#DejaVuSans-36"/>
                        </g>
                    </g>
                </g>
                <g id="text_7">
                    <!-- cluster -->
                    <g transform="translate(1072.992188 686.353125)scale(0.2 -0.2)">
                        <defs>
                            <path id="DejaVuSans-63" d="M 3122 3366
L 3122 2828 
Q 2878 2963 2633 3030 
Q 2388 3097 2138 3097 
Q 1578 3097 1268 2742 
Q 959 2388 959 1747 
Q 959 1106 1268 751 
Q 1578 397 2138 397 
Q 2388 397 2633 464 
Q 2878 531 3122 666 
L 3122 134 
Q 2881 22 2623 -34 
Q 2366 -91 2075 -91 
Q 1284 -91 818 406 
Q 353 903 353 1747 
Q 353 2603 823 3093 
Q 1294 3584 2113 3584 
Q 2378 3584 2631 3529 
Q 2884 3475 3122 3366 
z
" transform="scale(0.015625)"/>
                            <path id="DejaVuSans-6c" d="M 603 4863
L 1178 4863 
L 1178 0 
L 603 0 
L 603 4863 
z
" transform="scale(0.015625)"/>
                            <path id="DejaVuSans-75" d="M 544 1381
L 544 3500 
L 1119 3500 
L 1119 1403 
Q 1119 906 1312 657 
Q 1506 409 1894 409 
Q 2359 409 2629 706 
Q 2900 1003 2900 1516 
L 2900 3500 
L 3475 3500 
L 3475 0 
L 2900 0 
L 2900 538 
Q 2691 219 2414 64 
Q 2138 -91 1772 -91 
Q 1169 -91 856 284 
Q 544 659 544 1381 
z
M 1991 3584 
L 1991 3584 
z
" transform="scale(0.015625)"/>
                            <path id="DejaVuSans-73" d="M 2834 3397
L 2834 2853 
Q 2591 2978 2328 3040 
Q 2066 3103 1784 3103 
Q 1356 3103 1142 2972 
Q 928 2841 928 2578 
Q 928 2378 1081 2264 
Q 1234 2150 1697 2047 
L 1894 2003 
Q 2506 1872 2764 1633 
Q 3022 1394 3022 966 
Q 3022 478 2636 193 
Q 2250 -91 1575 -91 
Q 1294 -91 989 -36 
Q 684 19 347 128 
L 347 722 
Q 666 556 975 473 
Q 1284 391 1588 391 
Q 1994 391 2212 530 
Q 2431 669 2431 922 
Q 2431 1156 2273 1281 
Q 2116 1406 1581 1522 
L 1381 1569 
Q 847 1681 609 1914 
Q 372 2147 372 2553 
Q 372 3047 722 3315 
Q 1072 3584 1716 3584 
Q 2034 3584 2315 3537 
Q 2597 3491 2834 3397 
z
" transform="scale(0.015625)"/>
                            <path id="DejaVuSans-74" d="M 1172 4494
L 1172 3500 
L 2356 3500 
L 2356 3053 
L 1172 3053 
L 1172 1153 
Q 1172 725 1289 603 
Q 1406 481 1766 481 
L 2356 481 
L 2356 0 
L 1766 0 
Q 1100 0 847 248 
Q 594 497 594 1153 
L 594 3053 
L 172 3053 
L 172 3500 
L 594 3500 
L 594 4494 
L 1172 4494 
z
" transform="scale(0.015625)"/>
                            <path id="DejaVuSans-65" d="M 3597 1894
L 3597 1613 
L 953 1613 
Q 991 1019 1311 708 
Q 1631 397 2203 397 
Q 2534 397 2845 478 
Q 3156 559 3463 722 
L 3463 178 
Q 3153 47 2828 -22 
Q 2503 -91 2169 -91 
Q 1331 -91 842 396 
Q 353 884 353 1716 
Q 353 2575 817 3079 
Q 1281 3584 2069 3584 
Q 2775 3584 3186 3129 
Q 3597 2675 3597 1894 
z
M 3022 2063 
Q 3016 2534 2758 2815 
Q 2500 3097 2075 3097 
Q 1594 3097 1305 2825 
Q 1016 2553 972 2059 
L 3022 2063 
z
" transform="scale(0.015625)"/>
                            <path id="DejaVuSans-72" d="M 2631 2963
Q 2534 3019 2420 3045 
Q 2306 3072 2169 3072 
Q 1681 3072 1420 2755 
Q 1159 2438 1159 1844 
L 1159 0 
L 581 0 
L 581 3500 
L 1159 3500 
L 1159 2956 
Q 1341 3275 1631 3429 
Q 1922 3584 2338 3584 
Q 2397 3584 2469 3576 
Q 2541 3569 2628 3553 
L 2631 2963 
z
" transform="scale(0.015625)"/>
                        </defs>
                        <use xlink:href="#DejaVuSans-63"/>
                        <use xlink:href="#DejaVuSans-6c" x="54.980469"/>
                        <use xlink:href="#DejaVuSans-75" x="82.763672"/>
                        <use xlink:href="#DejaVuSans-73" x="146.142578"/>
                        <use xlink:href="#DejaVuSans-74" x="198.242188"/>
                        <use xlink:href="#DejaVuSans-65" x="237.451172"/>
                        <use xlink:href="#DejaVuSans-72" x="298.974609"/>
                    </g>
                </g>
            </g>
            <g id="matplotlib.axis_2">
                <g id="ytick_1">
                    <g id="line2d_7">
                        <defs>
                            <path id="m33b440917d" d="M 0 0
L -3.5 0 
" style="stroke: #000000; stroke-width: 0.8"/>
                        </defs>
                        <g>
                            <use xlink:href="#m33b440917d" x="270" y="581.180728"
                                 style="stroke: #000000; stroke-width: 0.8"/>
                        </g>
                    </g>
                    <g id="text_8">
                        <!-- 6 -->
                        <g transform="translate(250.275 588.779165)scale(0.2 -0.2)">
                            <use xlink:href="#DejaVuSans-36"/>
                        </g>
                    </g>
                </g>
                <g id="ytick_2">
                    <g id="line2d_8">
                        <g>
                            <use xlink:href="#m33b440917d" x="270" y="512.01906"
                                 style="stroke: #000000; stroke-width: 0.8"/>
                        </g>
                    </g>
                    <g id="text_9">
                        <!-- 8 -->
                        <g transform="translate(250.275 519.617498)scale(0.2 -0.2)">
                            <defs>
                                <path id="DejaVuSans-38" d="M 2034 2216
Q 1584 2216 1326 1975 
Q 1069 1734 1069 1313 
Q 1069 891 1326 650 
Q 1584 409 2034 409 
Q 2484 409 2743 651 
Q 3003 894 3003 1313 
Q 3003 1734 2745 1975 
Q 2488 2216 2034 2216 
z
M 1403 2484 
Q 997 2584 770 2862 
Q 544 3141 544 3541 
Q 544 4100 942 4425 
Q 1341 4750 2034 4750 
Q 2731 4750 3128 4425 
Q 3525 4100 3525 3541 
Q 3525 3141 3298 2862 
Q 3072 2584 2669 2484 
Q 3125 2378 3379 2068 
Q 3634 1759 3634 1313 
Q 3634 634 3220 271 
Q 2806 -91 2034 -91 
Q 1263 -91 848 271 
Q 434 634 434 1313 
Q 434 1759 690 2068 
Q 947 2378 1403 2484 
z
M 1172 3481 
Q 1172 3119 1398 2916 
Q 1625 2713 2034 2713 
Q 2441 2713 2670 2916 
Q 2900 3119 2900 3481 
Q 2900 3844 2670 4047 
Q 2441 4250 2034 4250 
Q 1625 4250 1398 4047 
Q 1172 3844 1172 3481 
z
" transform="scale(0.015625)"/>
                            </defs>
                            <use xlink:href="#DejaVuSans-38"/>
                        </g>
                    </g>
                </g>
                <g id="ytick_3">
                    <g id="line2d_9">
                        <g>
                            <use xlink:href="#m33b440917d" x="270" y="442.857393"
                                 style="stroke: #000000; stroke-width: 0.8"/>
                        </g>
                    </g>
                    <g id="text_10">
                        <!-- 10 -->
                        <g transform="translate(237.55 450.45583)scale(0.2 -0.2)">
                            <defs>
                                <path id="DejaVuSans-30" d="M 2034 4250
Q 1547 4250 1301 3770 
Q 1056 3291 1056 2328 
Q 1056 1369 1301 889 
Q 1547 409 2034 409 
Q 2525 409 2770 889 
Q 3016 1369 3016 2328 
Q 3016 3291 2770 3770 
Q 2525 4250 2034 4250 
z
M 2034 4750 
Q 2819 4750 3233 4129 
Q 3647 3509 3647 2328 
Q 3647 1150 3233 529 
Q 2819 -91 2034 -91 
Q 1250 -91 836 529 
Q 422 1150 422 2328 
Q 422 3509 836 4129 
Q 1250 4750 2034 4750 
z
" transform="scale(0.015625)"/>
                            </defs>
                            <use xlink:href="#DejaVuSans-31"/>
                            <use xlink:href="#DejaVuSans-30" x="63.623047"/>
                        </g>
                    </g>
                </g>
                <g id="ytick_4">
                    <g id="line2d_10">
                        <g>
                            <use xlink:href="#m33b440917d" x="270" y="373.695725"
                                 style="stroke: #000000; stroke-width: 0.8"/>
                        </g>
                    </g>
                    <g id="text_11">
                        <!-- 12 -->
                        <g transform="translate(237.55 381.294163)scale(0.2 -0.2)">
                            <use xlink:href="#DejaVuSans-31"/>
                            <use xlink:href="#DejaVuSans-32" x="63.623047"/>
                        </g>
                    </g>
                </g>
                <g id="ytick_5">
                    <g id="line2d_11">
                        <g>
                            <use xlink:href="#m33b440917d" x="270" y="304.534058"
                                 style="stroke: #000000; stroke-width: 0.8"/>
                        </g>
                    </g>
                    <g id="text_12">
                        <!-- 14 -->
                        <g transform="translate(237.55 312.132495)scale(0.2 -0.2)">
                            <use xlink:href="#DejaVuSans-31"/>
                            <use xlink:href="#DejaVuSans-34" x="63.623047"/>
                        </g>
                    </g>
                </g>
                <g id="ytick_6">
                    <g id="line2d_12">
                        <g>
                            <use xlink:href="#m33b440917d" x="270" y="235.37239"
                                 style="stroke: #000000; stroke-width: 0.8"/>
                        </g>
                    </g>
                    <g id="text_13">
                        <!-- 16 -->
                        <g transform="translate(237.55 242.970828)scale(0.2 -0.2)">
                            <use xlink:href="#DejaVuSans-31"/>
                            <use xlink:href="#DejaVuSans-36" x="63.623047"/>
                        </g>
                    </g>
                </g>
                <g id="ytick_7">
                    <g id="line2d_13">
                        <g>
                            <use xlink:href="#m33b440917d" x="270" y="166.210723"
                                 style="stroke: #000000; stroke-width: 0.8"/>
                        </g>
                    </g>
                    <g id="text_14">
                        <!-- 18 -->
                        <g transform="translate(237.55 173.80916)scale(0.2 -0.2)">
                            <use xlink:href="#DejaVuSans-31"/>
                            <use xlink:href="#DejaVuSans-38" x="63.623047"/>
                        </g>
                    </g>
                </g>
                <g id="ytick_8">
                    <g id="line2d_14">
                        <g>
                            <use xlink:href="#m33b440917d" x="270" y="97.049055"
                                 style="stroke: #000000; stroke-width: 0.8"/>
                        </g>
                    </g>
                    <g id="text_15">
                        <!-- 20 -->
                        <g transform="translate(237.55 104.647493)scale(0.2 -0.2)">
                            <use xlink:href="#DejaVuSans-32"/>
                            <use xlink:href="#DejaVuSans-30" x="63.623047"/>
                        </g>
                    </g>
                </g>
                <g id="text_16">
                    <!-- log -->
                    <g transform="translate(229.390625 378.845312)rotate(-90)scale(0.2 -0.2)">
                        <defs>
                            <path id="DejaVuSans-6f" d="M 1959 3097
Q 1497 3097 1228 2736 
Q 959 2375 959 1747 
Q 959 1119 1226 758 
Q 1494 397 1959 397 
Q 2419 397 2687 759 
Q 2956 1122 2956 1747 
Q 2956 2369 2687 2733 
Q 2419 3097 1959 3097 
z
M 1959 3584 
Q 2709 3584 3137 3096 
Q 3566 2609 3566 1747 
Q 3566 888 3137 398 
Q 2709 -91 1959 -91 
Q 1206 -91 779 398 
Q 353 888 353 1747 
Q 353 2609 779 3096 
Q 1206 3584 1959 3584 
z
" transform="scale(0.015625)"/>
                            <path id="DejaVuSans-67" d="M 2906 1791
Q 2906 2416 2648 2759 
Q 2391 3103 1925 3103 
Q 1463 3103 1205 2759 
Q 947 2416 947 1791 
Q 947 1169 1205 825 
Q 1463 481 1925 481 
Q 2391 481 2648 825 
Q 2906 1169 2906 1791 
z
M 3481 434 
Q 3481 -459 3084 -895 
Q 2688 -1331 1869 -1331 
Q 1566 -1331 1297 -1286 
Q 1028 -1241 775 -1147 
L 775 -588 
Q 1028 -725 1275 -790 
Q 1522 -856 1778 -856 
Q 2344 -856 2625 -561 
Q 2906 -266 2906 331 
L 2906 616 
Q 2728 306 2450 153 
Q 2172 0 1784 0 
Q 1141 0 747 490 
Q 353 981 353 1791 
Q 353 2603 747 3093 
Q 1141 3584 1784 3584 
Q 2172 3584 2450 3431 
Q 2728 3278 2906 2969 
L 2906 3500 
L 3481 3500 
L 3481 434 
z
" transform="scale(0.015625)"/>
                        </defs>
                        <use xlink:href="#DejaVuSans-6c"/>
                        <use xlink:href="#DejaVuSans-6f" x="27.783203"/>
                        <use xlink:href="#DejaVuSans-67" x="88.964844"/>
                    </g>
                </g>
            </g>
            <g id="line2d_15">
                <path d="M 409.5 579.342587
L 409.5 592.932982 
" clip-path="url(#pb77d1dfaea)" style="fill: none; stroke: #595959; stroke-width: 1.5; stroke-linecap: square"/>
            </g>
            <g id="line2d_16">
                <path d="M 409.5 471.865494
L 409.5 471.865494 
" clip-path="url(#pb77d1dfaea)" style="fill: none; stroke: #595959; stroke-width: 1.5; stroke-linecap: square"/>
            </g>
            <g id="line2d_17">
                <path d="M 353.7 592.932982
L 465.3 592.932982 
" clip-path="url(#pb77d1dfaea)" style="fill: none; stroke: #595959; stroke-width: 1.5; stroke-linecap: square"/>
            </g>
            <g id="line2d_18">
                <path d="M 353.7 471.865494
L 465.3 471.865494 
" clip-path="url(#pb77d1dfaea)" style="fill: none; stroke: #595959; stroke-width: 1.5; stroke-linecap: square"/>
            </g>
            <g id="line2d_19">
                <defs>
                    <path id="m8a4c46ec0a" d="M -0 3.535534
L 2.12132 0 
L -0 -3.535534 
L -2.12132 -0 
z
" style="stroke: #595959; stroke-linejoin: miter"/>
                </defs>
                <g clip-path="url(#pb77d1dfaea)">
                    <use xlink:href="#m8a4c46ec0a" x="409.5" y="196.778285"
                         style="fill: #595959; stroke: #595959; stroke-linejoin: miter"/>
                    <use xlink:href="#m8a4c46ec0a" x="409.5" y="111.6"
                         style="fill: #595959; stroke: #595959; stroke-linejoin: miter"/>
                </g>
            </g>
            <g id="line2d_20">
                <path d="M 688.5 546.097482
L 688.5 615.6 
" clip-path="url(#pb77d1dfaea)" style="fill: none; stroke: #595959; stroke-width: 1.5; stroke-linecap: square"/>
            </g>
            <g id="line2d_21">
                <path d="M 688.5 425.75445
L 688.5 358.452085 
" clip-path="url(#pb77d1dfaea)" style="fill: none; stroke: #595959; stroke-width: 1.5; stroke-linecap: square"/>
            </g>
            <g id="line2d_22">
                <path d="M 632.7 615.6
L 744.3 615.6 
" clip-path="url(#pb77d1dfaea)" style="fill: none; stroke: #595959; stroke-width: 1.5; stroke-linecap: square"/>
            </g>
            <g id="line2d_23">
                <path d="M 632.7 358.452085
L 744.3 358.452085 
" clip-path="url(#pb77d1dfaea)" style="fill: none; stroke: #595959; stroke-width: 1.5; stroke-linecap: square"/>
            </g>
            <g id="line2d_24">
                <g clip-path="url(#pb77d1dfaea)">
                    <use xlink:href="#m8a4c46ec0a" x="688.5" y="165.896582"
                         style="fill: #595959; stroke: #595959; stroke-linejoin: miter"/>
                </g>
            </g>
            <g id="line2d_25">
                <path d="M 967.5 554.668485
L 967.5 563.836655 
" clip-path="url(#pb77d1dfaea)" style="fill: none; stroke: #595959; stroke-width: 1.5; stroke-linecap: square"/>
            </g>
            <g id="line2d_26">
                <path d="M 967.5 468.517694
L 967.5 391.535073 
" clip-path="url(#pb77d1dfaea)" style="fill: none; stroke: #595959; stroke-width: 1.5; stroke-linecap: square"/>
            </g>
            <g id="line2d_27">
                <path d="M 911.7 563.836655
L 1023.3 563.836655 
" clip-path="url(#pb77d1dfaea)" style="fill: none; stroke: #595959; stroke-width: 1.5; stroke-linecap: square"/>
            </g>
            <g id="line2d_28">
                <path d="M 911.7 391.535073
L 1023.3 391.535073 
" clip-path="url(#pb77d1dfaea)" style="fill: none; stroke: #595959; stroke-width: 1.5; stroke-linecap: square"/>
            </g>
            <g id="line2d_29"/>
            <g id="line2d_30">
                <path d="M 1246.5 578.831061
L 1246.5 586.468123 
" clip-path="url(#pb77d1dfaea)" style="fill: none; stroke: #595959; stroke-width: 1.5; stroke-linecap: square"/>
            </g>
            <g id="line2d_31">
                <path d="M 1246.5 563.556938
L 1246.5 555.919876 
" clip-path="url(#pb77d1dfaea)" style="fill: none; stroke: #595959; stroke-width: 1.5; stroke-linecap: square"/>
            </g>
            <g id="line2d_32">
                <path d="M 1190.7 586.468123
L 1302.3 586.468123 
" clip-path="url(#pb77d1dfaea)" style="fill: none; stroke: #595959; stroke-width: 1.5; stroke-linecap: square"/>
            </g>
            <g id="line2d_33">
                <path d="M 1190.7 555.919876
L 1302.3 555.919876 
" clip-path="url(#pb77d1dfaea)" style="fill: none; stroke: #595959; stroke-width: 1.5; stroke-linecap: square"/>
            </g>
            <g id="line2d_34"/>
            <g id="line2d_35">
                <path d="M 1525.5 588.728504
L 1525.5 614.112333 
" clip-path="url(#pb77d1dfaea)" style="fill: none; stroke: #595959; stroke-width: 1.5; stroke-linecap: square"/>
            </g>
            <g id="line2d_36">
                <path d="M 1525.5 490.059566
L 1525.5 411.361113 
" clip-path="url(#pb77d1dfaea)" style="fill: none; stroke: #595959; stroke-width: 1.5; stroke-linecap: square"/>
            </g>
            <g id="line2d_37">
                <path d="M 1469.7 614.112333
L 1581.3 614.112333 
" clip-path="url(#pb77d1dfaea)" style="fill: none; stroke: #595959; stroke-width: 1.5; stroke-linecap: square"/>
            </g>
            <g id="line2d_38">
                <path d="M 1469.7 411.361113
L 1581.3 411.361113 
" clip-path="url(#pb77d1dfaea)" style="fill: none; stroke: #595959; stroke-width: 1.5; stroke-linecap: square"/>
            </g>
            <g id="line2d_39">
                <g clip-path="url(#pb77d1dfaea)">
                    <use xlink:href="#m8a4c46ec0a" x="1525.5" y="252.364087"
                         style="fill: #595959; stroke: #595959; stroke-linejoin: miter"/>
                    <use xlink:href="#m8a4c46ec0a" x="1525.5" y="260.132383"
                         style="fill: #595959; stroke: #595959; stroke-linejoin: miter"/>
                </g>
            </g>
            <g id="line2d_40">
                <path d="M 1804.5 494.632031
L 1804.5 494.632031 
" clip-path="url(#pb77d1dfaea)" style="fill: none; stroke: #595959; stroke-width: 1.5; stroke-linecap: square"/>
            </g>
            <g id="line2d_41">
                <path d="M 1804.5 494.632031
L 1804.5 494.632031 
" clip-path="url(#pb77d1dfaea)" style="fill: none; stroke: #595959; stroke-width: 1.5; stroke-linecap: square"/>
            </g>
            <g id="line2d_42">
                <path d="M 1748.7 494.632031
L 1860.3 494.632031 
" clip-path="url(#pb77d1dfaea)" style="fill: none; stroke: #595959; stroke-width: 1.5; stroke-linecap: square"/>
            </g>
            <g id="line2d_43">
                <path d="M 1748.7 494.632031
L 1860.3 494.632031 
" clip-path="url(#pb77d1dfaea)" style="fill: none; stroke: #595959; stroke-width: 1.5; stroke-linecap: square"/>
            </g>
            <g id="line2d_44"/>
            <g id="line2d_45">
                <path d="M 297.9 516.301953
L 521.1 516.301953 
" clip-path="url(#pb77d1dfaea)" style="fill: none; stroke: #595959; stroke-width: 1.5; stroke-linecap: square"/>
            </g>
            <g id="line2d_46">
                <path d="M 576.9 488.580838
L 800.1 488.580838 
" clip-path="url(#pb77d1dfaea)" style="fill: none; stroke: #595959; stroke-width: 1.5; stroke-linecap: square"/>
            </g>
            <g id="line2d_47">
                <path d="M 855.9 545.500316
L 1079.1 545.500316 
" clip-path="url(#pb77d1dfaea)" style="fill: none; stroke: #595959; stroke-width: 1.5; stroke-linecap: square"/>
            </g>
            <g id="line2d_48">
                <path d="M 1134.9 571.194
L 1358.1 571.194 
" clip-path="url(#pb77d1dfaea)" style="fill: none; stroke: #595959; stroke-width: 1.5; stroke-linecap: square"/>
            </g>
            <g id="line2d_49">
                <path d="M 1413.9 566.09005
L 1637.1 566.09005 
" clip-path="url(#pb77d1dfaea)" style="fill: none; stroke: #595959; stroke-width: 1.5; stroke-linecap: square"/>
            </g>
            <g id="line2d_50">
                <path d="M 1692.9 494.632031
L 1916.1 494.632031 
" clip-path="url(#pb77d1dfaea)" style="fill: none; stroke: #595959; stroke-width: 1.5; stroke-linecap: square"/>
            </g>
            <g id="patch_9">
                <path d="M 270 640.8
L 270 86.4 
" style="fill: none; stroke: #000000; stroke-width: 0.8; stroke-linejoin: miter; stroke-linecap: square"/>
            </g>
            <g id="patch_10">
                <path d="M 1944 640.8
L 1944 86.4 
" style="fill: none; stroke: #000000; stroke-width: 0.8; stroke-linejoin: miter; stroke-linecap: square"/>
            </g>
            <g id="patch_11">
                <path d="M 270 640.8
L 1944 640.8 
" style="fill: none; stroke: #000000; stroke-width: 0.8; stroke-linejoin: miter; stroke-linecap: square"/>
            </g>
            <g id="patch_12">
                <path d="M 270 86.4
L 1944 86.4 
" style="fill: none; stroke: #000000; stroke-width: 0.8; stroke-linejoin: miter; stroke-linecap: square"/>
            </g>
            <g id="PathCollection_1">
                <defs>
                    <path id="C0_0_3686ab063b" d="M 0 2.5
C 0.663008 2.5 1.29895 2.236584 1.767767 1.767767 
C 2.236584 1.29895 2.5 0.663008 2.5 -0 
C 2.5 -0.663008 2.236584 -1.29895 1.767767 -1.767767 
C 1.29895 -2.236584 0.663008 -2.5 0 -2.5 
C -0.663008 -2.5 -1.29895 -2.236584 -1.767767 -1.767767 
C -2.236584 -1.29895 -2.5 -0.663008 -2.5 0 
C -2.5 0.663008 -2.236584 1.29895 -1.767767 1.767767 
C -1.29895 2.236584 -0.663008 2.5 0 2.5 
z
"/>
                </defs>
                <g clip-path="url(#pb77d1dfaea)">
                    <use xlink:href="#C0_0_3686ab063b" x="409.5" y="592.932982" style="fill: #1f77b4"/>
                </g>
                <g clip-path="url(#pb77d1dfaea)">
                    <use xlink:href="#C0_0_3686ab063b" x="404.818856" y="590.669321" style="fill: #1f77b4"/>
                </g>
                <g clip-path="url(#pb77d1dfaea)">
                    <use xlink:href="#C0_0_3686ab063b" x="409.5" y="579.342587" style="fill: #1f77b4"/>
                </g>
                <g clip-path="url(#pb77d1dfaea)">
                    <use xlink:href="#C0_0_3686ab063b" x="409.5" y="517.072289" style="fill: #1f77b4"/>
                </g>
                <g clip-path="url(#pb77d1dfaea)">
                    <use xlink:href="#C0_0_3686ab063b" x="404.312683" y="516.301953" style="fill: #1f77b4"/>
                </g>
                <g clip-path="url(#pb77d1dfaea)">
                    <use xlink:href="#C0_0_3686ab063b" x="409.5" y="495.368871" style="fill: #1f77b4"/>
                </g>
                <g clip-path="url(#pb77d1dfaea)">
                    <use xlink:href="#C0_0_3686ab063b" x="409.5" y="471.865494" style="fill: #1f77b4"/>
                </g>
                <g clip-path="url(#pb77d1dfaea)">
                    <use xlink:href="#C0_0_3686ab063b" x="409.5" y="196.778285" style="fill: #1f77b4"/>
                </g>
                <g clip-path="url(#pb77d1dfaea)">
                    <use xlink:href="#C0_0_3686ab063b" x="409.5" y="111.6" style="fill: #1f77b4"/>
                </g>
            </g>
            <g id="PathCollection_2">
                <defs>
                    <path id="C1_0_a207c479f4" d="M 0 2.5
C 0.663008 2.5 1.29895 2.236584 1.767767 1.767767 
C 2.236584 1.29895 2.5 0.663008 2.5 -0 
C 2.5 -0.663008 2.236584 -1.29895 1.767767 -1.767767 
C 1.29895 -2.236584 0.663008 -2.5 0 -2.5 
C -0.663008 -2.5 -1.29895 -2.236584 -1.767767 -1.767767 
C -2.236584 -1.29895 -2.5 -0.663008 -2.5 0 
C -2.5 0.663008 -2.236584 1.29895 -1.767767 1.767767 
C -1.29895 2.236584 -0.663008 2.5 0 2.5 
z
"/>
                </defs>
                <g clip-path="url(#pb77d1dfaea)">
                    <use xlink:href="#C1_0_a207c479f4" x="688.5" y="615.6" style="fill: #ff7f0e"/>
                </g>
                <g clip-path="url(#pb77d1dfaea)">
                    <use xlink:href="#C1_0_a207c479f4" x="688.5" y="601.24198" style="fill: #ff7f0e"/>
                </g>
                <g clip-path="url(#pb77d1dfaea)">
                    <use xlink:href="#C1_0_a207c479f4" x="688.5" y="546.097482" style="fill: #ff7f0e"/>
                </g>
                <g clip-path="url(#pb77d1dfaea)">
                    <use xlink:href="#C1_0_a207c479f4" x="688.5" y="505.549448" style="fill: #ff7f0e"/>
                </g>
                <g clip-path="url(#pb77d1dfaea)">
                    <use xlink:href="#C1_0_a207c479f4" x="688.5" y="488.580838" style="fill: #ff7f0e"/>
                </g>
                <g clip-path="url(#pb77d1dfaea)">
                    <use xlink:href="#C1_0_a207c479f4" x="688.5" y="448.165896" style="fill: #ff7f0e"/>
                </g>
                <g clip-path="url(#pb77d1dfaea)">
                    <use xlink:href="#C1_0_a207c479f4" x="688.5" y="425.75445" style="fill: #ff7f0e"/>
                </g>
                <g clip-path="url(#pb77d1dfaea)">
                    <use xlink:href="#C1_0_a207c479f4" x="688.5" y="358.452085" style="fill: #ff7f0e"/>
                </g>
                <g clip-path="url(#pb77d1dfaea)">
                    <use xlink:href="#C1_0_a207c479f4" x="688.5" y="165.896582" style="fill: #ff7f0e"/>
                </g>
            </g>
            <g id="PathCollection_3">
                <defs>
                    <path id="C2_0_f649a03191" d="M 0 2.5
C 0.663008 2.5 1.29895 2.236584 1.767767 1.767767 
C 2.236584 1.29895 2.5 0.663008 2.5 -0 
C 2.5 -0.663008 2.236584 -1.29895 1.767767 -1.767767 
C 1.29895 -2.236584 0.663008 -2.5 0 -2.5 
C -0.663008 -2.5 -1.29895 -2.236584 -1.767767 -1.767767 
C -2.236584 -1.29895 -2.5 -0.663008 -2.5 0 
C -2.5 0.663008 -2.236584 1.29895 -1.767767 1.767767 
C -1.29895 2.236584 -0.663008 2.5 0 2.5 
z
"/>
                </defs>
                <g clip-path="url(#pb77d1dfaea)">
                    <use xlink:href="#C2_0_f649a03191" x="967.5" y="563.836655" style="fill: #2ca02c"/>
                </g>
                <g clip-path="url(#pb77d1dfaea)">
                    <use xlink:href="#C2_0_f649a03191" x="967.5" y="545.500316" style="fill: #2ca02c"/>
                </g>
                <g clip-path="url(#pb77d1dfaea)">
                    <use xlink:href="#C2_0_f649a03191" x="967.5" y="391.535073" style="fill: #2ca02c"/>
                </g>
            </g>
            <g id="PathCollection_4">
                <defs>
                    <path id="C3_0_9f5a32e25e" d="M 0 2.5
C 0.663008 2.5 1.29895 2.236584 1.767767 1.767767 
C 2.236584 1.29895 2.5 0.663008 2.5 -0 
C 2.5 -0.663008 2.236584 -1.29895 1.767767 -1.767767 
C 1.29895 -2.236584 0.663008 -2.5 0 -2.5 
C -0.663008 -2.5 -1.29895 -2.236584 -1.767767 -1.767767 
C -2.236584 -1.29895 -2.5 -0.663008 -2.5 0 
C -2.5 0.663008 -2.236584 1.29895 -1.767767 1.767767 
C -1.29895 2.236584 -0.663008 2.5 0 2.5 
z
"/>
                </defs>
                <g clip-path="url(#pb77d1dfaea)">
                    <use xlink:href="#C3_0_9f5a32e25e" x="1246.5" y="586.468123" style="fill: #d62728"/>
                </g>
                <g clip-path="url(#pb77d1dfaea)">
                    <use xlink:href="#C3_0_9f5a32e25e" x="1246.5" y="555.919876" style="fill: #d62728"/>
                </g>
            </g>
            <g id="PathCollection_5">
                <defs>
                    <path id="C4_0_42b98800ca" d="M 0 2.5
C 0.663008 2.5 1.29895 2.236584 1.767767 1.767767 
C 2.236584 1.29895 2.5 0.663008 2.5 -0 
C 2.5 -0.663008 2.236584 -1.29895 1.767767 -1.767767 
C 1.29895 -2.236584 0.663008 -2.5 0 -2.5 
C -0.663008 -2.5 -1.29895 -2.236584 -1.767767 -1.767767 
C -2.236584 -1.29895 -2.5 -0.663008 -2.5 0 
C -2.5 0.663008 -2.236584 1.29895 -1.767767 1.767767 
C -1.29895 2.236584 -0.663008 2.5 0 2.5 
z
"/>
                </defs>
                <g clip-path="url(#pb77d1dfaea)">
                    <use xlink:href="#C4_0_42b98800ca" x="1525.5" y="614.112333" style="fill: #9467bd"/>
                </g>
                <g clip-path="url(#pb77d1dfaea)">
                    <use xlink:href="#C4_0_42b98800ca" x="1525.5" y="608.089847" style="fill: #9467bd"/>
                </g>
                <g clip-path="url(#pb77d1dfaea)">
                    <use xlink:href="#C4_0_42b98800ca" x="1520.519831" y="606.507514" style="fill: #9467bd"/>
                </g>
                <g clip-path="url(#pb77d1dfaea)">
                    <use xlink:href="#C4_0_42b98800ca" x="1525.5" y="602.000464" style="fill: #9467bd"/>
                </g>
                <g clip-path="url(#pb77d1dfaea)">
                    <use xlink:href="#C4_0_42b98800ca" x="1525.5" y="595.714564" style="fill: #9467bd"/>
                </g>
                <g clip-path="url(#pb77d1dfaea)">
                    <use xlink:href="#C4_0_42b98800ca" x="1521.022601" y="593.103685" style="fill: #9467bd"/>
                </g>
                <g clip-path="url(#pb77d1dfaea)">
                    <use xlink:href="#C4_0_42b98800ca" x="1525.5" y="587.27011" style="fill: #9467bd"/>
                </g>
                <g clip-path="url(#pb77d1dfaea)">
                    <use xlink:href="#C4_0_42b98800ca" x="1525.5" y="580.860451" style="fill: #9467bd"/>
                </g>
                <g clip-path="url(#pb77d1dfaea)">
                    <use xlink:href="#C4_0_42b98800ca" x="1520.377705" y="579.764345" style="fill: #9467bd"/>
                </g>
                <g clip-path="url(#pb77d1dfaea)">
                    <use xlink:href="#C4_0_42b98800ca" x="1530.608674" y="579.708128" style="fill: #9467bd"/>
                </g>
                <g clip-path="url(#pb77d1dfaea)">
                    <use xlink:href="#C4_0_42b98800ca" x="1516.339595" y="576.569087" style="fill: #9467bd"/>
                </g>
                <g clip-path="url(#pb77d1dfaea)">
                    <use xlink:href="#C4_0_42b98800ca" x="1525.5" y="569.040959" style="fill: #9467bd"/>
                </g>
                <g clip-path="url(#pb77d1dfaea)">
                    <use xlink:href="#C4_0_42b98800ca" x="1525.5" y="563.13914" style="fill: #9467bd"/>
                </g>
                <g clip-path="url(#pb77d1dfaea)">
                    <use xlink:href="#C4_0_42b98800ca" x="1520.250168" y="563.099145" style="fill: #9467bd"/>
                </g>
                <g clip-path="url(#pb77d1dfaea)">
                    <use xlink:href="#C4_0_42b98800ca" x="1525.5" y="556.239426" style="fill: #9467bd"/>
                </g>
                <g clip-path="url(#pb77d1dfaea)">
                    <use xlink:href="#C4_0_42b98800ca" x="1525.5" y="517.179181" style="fill: #9467bd"/>
                </g>
                <g clip-path="url(#pb77d1dfaea)">
                    <use xlink:href="#C4_0_42b98800ca" x="1520.2512" y="517.072289" style="fill: #9467bd"/>
                </g>
                <g clip-path="url(#pb77d1dfaea)">
                    <use xlink:href="#C4_0_42b98800ca" x="1525.5" y="496.423217" style="fill: #9467bd"/>
                </g>
                <g clip-path="url(#pb77d1dfaea)">
                    <use xlink:href="#C4_0_42b98800ca" x="1525.5" y="470.968614" style="fill: #9467bd"/>
                </g>
                <g clip-path="url(#pb77d1dfaea)">
                    <use xlink:href="#C4_0_42b98800ca" x="1520.255696" y="470.735768" style="fill: #9467bd"/>
                </g>
                <g clip-path="url(#pb77d1dfaea)">
                    <use xlink:href="#C4_0_42b98800ca" x="1525.5" y="458.727916" style="fill: #9467bd"/>
                </g>
                <g clip-path="url(#pb77d1dfaea)">
                    <use xlink:href="#C4_0_42b98800ca" x="1525.5" y="411.361113" style="fill: #9467bd"/>
                </g>
                <g clip-path="url(#pb77d1dfaea)">
                    <use xlink:href="#C4_0_42b98800ca" x="1525.5" y="260.132383" style="fill: #9467bd"/>
                </g>
                <g clip-path="url(#pb77d1dfaea)">
                    <use xlink:href="#C4_0_42b98800ca" x="1525.5" y="252.364087" style="fill: #9467bd"/>
                </g>
            </g>
            <g id="PathCollection_6">
                <defs>
                    <path id="m2c2616c541" d="M 0 2.5
C 0.663008 2.5 1.29895 2.236584 1.767767 1.767767 
C 2.236584 1.29895 2.5 0.663008 2.5 0 
C 2.5 -0.663008 2.236584 -1.29895 1.767767 -1.767767 
C 1.29895 -2.236584 0.663008 -2.5 0 -2.5 
C -0.663008 -2.5 -1.29895 -2.236584 -1.767767 -1.767767 
C -2.236584 -1.29895 -2.5 -0.663008 -2.5 0 
C -2.5 0.663008 -2.236584 1.29895 -1.767767 1.767767 
C -1.29895 2.236584 -0.663008 2.5 0 2.5 
z
"/>
                </defs>
                <g clip-path="url(#pb77d1dfaea)">
                    <use xlink:href="#m2c2616c541" x="1804.5" y="494.632031" style="fill: #8c564b"/>
                </g>
            </g>
            <g id="text_17">
                <!-- P values of Field Dermatological -->
                <g transform="translate(914.86125 80.4)scale(0.24 -0.24)">
                    <defs>
                        <path id="DejaVuSans-50" d="M 1259 4147
L 1259 2394 
L 2053 2394 
Q 2494 2394 2734 2622 
Q 2975 2850 2975 3272 
Q 2975 3691 2734 3919 
Q 2494 4147 2053 4147 
L 1259 4147 
z
M 628 4666 
L 2053 4666 
Q 2838 4666 3239 4311 
Q 3641 3956 3641 3272 
Q 3641 2581 3239 2228 
Q 2838 1875 2053 1875 
L 1259 1875 
L 1259 0 
L 628 0 
L 628 4666 
z
" transform="scale(0.015625)"/>
                        <path id="DejaVuSans-20" transform="scale(0.015625)"/>
                        <path id="DejaVuSans-76" d="M 191 3500
L 800 3500 
L 1894 563 
L 2988 3500 
L 3597 3500 
L 2284 0 
L 1503 0 
L 191 3500 
z
" transform="scale(0.015625)"/>
                        <path id="DejaVuSans-61" d="M 2194 1759
Q 1497 1759 1228 1600 
Q 959 1441 959 1056 
Q 959 750 1161 570 
Q 1363 391 1709 391 
Q 2188 391 2477 730 
Q 2766 1069 2766 1631 
L 2766 1759 
L 2194 1759 
z
M 3341 1997 
L 3341 0 
L 2766 0 
L 2766 531 
Q 2569 213 2275 61 
Q 1981 -91 1556 -91 
Q 1019 -91 701 211 
Q 384 513 384 1019 
Q 384 1609 779 1909 
Q 1175 2209 1959 2209 
L 2766 2209 
L 2766 2266 
Q 2766 2663 2505 2880 
Q 2244 3097 1772 3097 
Q 1472 3097 1187 3025 
Q 903 2953 641 2809 
L 641 3341 
Q 956 3463 1253 3523 
Q 1550 3584 1831 3584 
Q 2591 3584 2966 3190 
Q 3341 2797 3341 1997 
z
" transform="scale(0.015625)"/>
                        <path id="DejaVuSans-66" d="M 2375 4863
L 2375 4384 
L 1825 4384 
Q 1516 4384 1395 4259 
Q 1275 4134 1275 3809 
L 1275 3500 
L 2222 3500 
L 2222 3053 
L 1275 3053 
L 1275 0 
L 697 0 
L 697 3053 
L 147 3053 
L 147 3500 
L 697 3500 
L 697 3744 
Q 697 4328 969 4595 
Q 1241 4863 1831 4863 
L 2375 4863 
z
" transform="scale(0.015625)"/>
                        <path id="DejaVuSans-46" d="M 628 4666
L 3309 4666 
L 3309 4134 
L 1259 4134 
L 1259 2759 
L 3109 2759 
L 3109 2228 
L 1259 2228 
L 1259 0 
L 628 0 
L 628 4666 
z
" transform="scale(0.015625)"/>
                        <path id="DejaVuSans-69" d="M 603 3500
L 1178 3500 
L 1178 0 
L 603 0 
L 603 3500 
z
M 603 4863 
L 1178 4863 
L 1178 4134 
L 603 4134 
L 603 4863 
z
" transform="scale(0.015625)"/>
                        <path id="DejaVuSans-64" d="M 2906 2969
L 2906 4863 
L 3481 4863 
L 3481 0 
L 2906 0 
L 2906 525 
Q 2725 213 2448 61 
Q 2172 -91 1784 -91 
Q 1150 -91 751 415 
Q 353 922 353 1747 
Q 353 2572 751 3078 
Q 1150 3584 1784 3584 
Q 2172 3584 2448 3432 
Q 2725 3281 2906 2969 
z
M 947 1747 
Q 947 1113 1208 752 
Q 1469 391 1925 391 
Q 2381 391 2643 752 
Q 2906 1113 2906 1747 
Q 2906 2381 2643 2742 
Q 2381 3103 1925 3103 
Q 1469 3103 1208 2742 
Q 947 2381 947 1747 
z
" transform="scale(0.015625)"/>
                        <path id="DejaVuSans-44" d="M 1259 4147
L 1259 519 
L 2022 519 
Q 2988 519 3436 956 
Q 3884 1394 3884 2338 
Q 3884 3275 3436 3711 
Q 2988 4147 2022 4147 
L 1259 4147 
z
M 628 4666 
L 1925 4666 
Q 3281 4666 3915 4102 
Q 4550 3538 4550 2338 
Q 4550 1131 3912 565 
Q 3275 0 1925 0 
L 628 0 
L 628 4666 
z
" transform="scale(0.015625)"/>
                        <path id="DejaVuSans-6d" d="M 3328 2828
Q 3544 3216 3844 3400 
Q 4144 3584 4550 3584 
Q 5097 3584 5394 3201 
Q 5691 2819 5691 2113 
L 5691 0 
L 5113 0 
L 5113 2094 
Q 5113 2597 4934 2840 
Q 4756 3084 4391 3084 
Q 3944 3084 3684 2787 
Q 3425 2491 3425 1978 
L 3425 0 
L 2847 0 
L 2847 2094 
Q 2847 2600 2669 2842 
Q 2491 3084 2119 3084 
Q 1678 3084 1418 2786 
Q 1159 2488 1159 1978 
L 1159 0 
L 581 0 
L 581 3500 
L 1159 3500 
L 1159 2956 
Q 1356 3278 1631 3431 
Q 1906 3584 2284 3584 
Q 2666 3584 2933 3390 
Q 3200 3197 3328 2828 
z
" transform="scale(0.015625)"/>
                    </defs>
                    <use xlink:href="#DejaVuSans-50"/>
                    <use xlink:href="#DejaVuSans-20" x="60.302734"/>
                    <use xlink:href="#DejaVuSans-76" x="92.089844"/>
                    <use xlink:href="#DejaVuSans-61" x="151.269531"/>
                    <use xlink:href="#DejaVuSans-6c" x="212.548828"/>
                    <use xlink:href="#DejaVuSans-75" x="240.332031"/>
                    <use xlink:href="#DejaVuSans-65" x="303.710938"/>
                    <use xlink:href="#DejaVuSans-73" x="365.234375"/>
                    <use xlink:href="#DejaVuSans-20" x="417.333984"/>
                    <use xlink:href="#DejaVuSans-6f" x="449.121094"/>
                    <use xlink:href="#DejaVuSans-66" x="510.302734"/>
                    <use xlink:href="#DejaVuSans-20" x="545.507812"/>
                    <use xlink:href="#DejaVuSans-46" x="577.294922"/>
                    <use xlink:href="#DejaVuSans-69" x="627.564453"/>
                    <use xlink:href="#DejaVuSans-65" x="655.347656"/>
                    <use xlink:href="#DejaVuSans-6c" x="716.871094"/>
                    <use xlink:href="#DejaVuSans-64" x="744.654297"/>
                    <use xlink:href="#DejaVuSans-20" x="808.130859"/>
                    <use xlink:href="#DejaVuSans-44" x="839.917969"/>
                    <use xlink:href="#DejaVuSans-65" x="916.919922"/>
                    <use xlink:href="#DejaVuSans-72" x="978.443359"/>
                    <use xlink:href="#DejaVuSans-6d" x="1017.806641"/>
                    <use xlink:href="#DejaVuSans-61" x="1115.21875"/>
                    <use xlink:href="#DejaVuSans-74" x="1176.498047"/>
                    <use xlink:href="#DejaVuSans-6f" x="1215.707031"/>
                    <use xlink:href="#DejaVuSans-6c" x="1276.888672"/>
                    <use xlink:href="#DejaVuSans-6f" x="1304.671875"/>
                    <use xlink:href="#DejaVuSans-67" x="1365.853516"/>
                    <use xlink:href="#DejaVuSans-69" x="1429.330078"/>
                    <use xlink:href="#DejaVuSans-63" x="1457.113281"/>
                    <use xlink:href="#DejaVuSans-61" x="1512.09375"/>
                    <use xlink:href="#DejaVuSans-6c" x="1573.373047"/>
                </g>
            </g>
        </g>
    </g>
    <defs>
        <clipPath id="pb77d1dfaea">
            <rect x="270" y="86.4" width="1674" height="554.4"/>
        </clipPath>
    </defs>
</svg>
