<?xml version="1.0" encoding="utf-8" standalone="no"?>
<!DOCTYPE svg PUBLIC "-//W3C//DTD SVG 1.1//EN"
        "http://www.w3.org/Graphics/SVG/1.1/DTD/svg11.dtd">
<svg xmlns:xlink="http://www.w3.org/1999/xlink" width="2160pt" height="720pt" viewBox="0 0 2160 720"
     xmlns="http://www.w3.org/2000/svg" version="1.1">
    <metadata>
        <rdf:RDF xmlns:dc="http://purl.org/dc/elements/1.1/" xmlns:cc="http://creativecommons.org/ns#"
                 xmlns:rdf="http://www.w3.org/1999/02/22-rdf-syntax-ns#">
            <cc:Work>
                <dc:type rdf:resource="http://purl.org/dc/dcmitype/StillImage"/>
                <dc:date>2022-06-10T17:50:39.568683</dc:date>
                <dc:format>image/svg+xml</dc:format>
                <dc:creator>
                    <cc:Agent>
                        <dc:title>Matplotlib v3.5.1, https://matplotlib.org/</dc:title>
                    </cc:Agent>
                </dc:creator>
            </cc:Work>
        </rdf:RDF>
    </metadata>
    <defs>
        <style type="text/css">*{stroke-linejoin: round; stroke-linecap: butt}</style>
    </defs>
    <g id="figure_1">
        <g id="patch_1">
            <path d="M 0 720
L 2160 720 
L 2160 0 
L 0 0 
z
" style="fill: #ffffff"/>
        </g>
        <g id="axes_1">
            <g id="patch_2">
                <path d="M 270 640.8
L 1944 640.8 
L 1944 86.4 
L 270 86.4 
z
" style="fill: #ffffff"/>
            </g>
            <g id="PolyCollection_1">
                <defs>
                    <path id="mad1fcaa5a9" d="M 412.068112 -129.049792
L 406.931888 -129.049792 
L 406.181329 -133.891713 
L 405.253461 -138.733634 
L 404.119252 -143.575556 
L 402.748482 -148.417477 
L 401.110707 -153.259398 
L 399.176488 -158.10132 
L 396.918854 -162.943241 
L 394.314972 -167.785162 
L 391.34795 -172.627084 
L 388.008708 -177.469005 
L 384.297782 -182.310926 
L 380.22696 -187.152847 
L 375.820598 -191.994769 
L 371.116496 -196.83669 
L 366.166192 -201.678611 
L 361.034608 -206.520533 
L 355.798947 -211.362454 
L 350.546867 -216.204375 
L 345.373941 -221.046296 
L 340.380516 -225.888218 
L 335.668114 -230.730139 
L 331.335566 -235.57206 
L 327.4751 -240.413982 
L 324.168627 -245.255903 
L 321.484448 -250.097824 
L 319.474583 -254.939746 
L 318.172898 -259.781667 
L 317.594118 -264.623588 
L 317.73377 -269.465509 
L 318.569045 -274.307431 
L 320.060461 -279.149352 
L 322.154216 -283.991273 
L 324.785034 -288.833195 
L 327.879321 -293.675116 
L 331.358411 -298.517037 
L 335.141733 -303.358958 
L 339.14972 -308.20088 
L 343.30634 -313.042801 
L 347.541154 -317.884722 
L 351.790855 -322.726644 
L 356.000278 -327.568565 
L 360.122897 -332.410486 
L 364.120868 -337.252408 
L 367.964683 -342.094329 
L 371.632507 -346.93625 
L 375.109302 -351.778171 
L 378.385805 -356.620093 
L 381.457448 -361.462014 
L 384.3233 -366.303935 
L 386.985064 -371.145857 
L 389.446201 -375.987778 
L 391.711197 -380.829699 
L 393.784978 -385.67162 
L 395.672504 -390.513542 
L 397.378505 -395.355463 
L 398.907353 -400.197384 
L 400.263057 -405.039306 
L 401.449337 -409.881227 
L 402.469775 -414.723148 
L 403.328004 -419.56507 
L 404.027931 -424.406991 
L 404.573974 -429.248912 
L 404.971305 -434.090833 
L 405.226094 -438.932755 
L 405.345738 -443.774676 
L 405.339074 -448.616597 
L 405.216556 -453.458519 
L 404.990386 -458.30044 
L 404.67457 -463.142361 
L 404.284896 -467.984282 
L 403.838796 -472.826204 
L 403.355089 -477.668125 
L 402.853601 -482.510046 
L 402.35466 -487.351968 
L 401.87848 -492.193889 
L 401.44448 -497.03581 
L 401.070545 -501.877732 
L 400.772321 -506.719653 
L 400.562547 -511.561574 
L 400.450523 -516.403495 
L 400.441719 -521.245417 
L 400.537587 -526.087338 
L 400.735579 -530.929259 
L 401.029385 -535.771181 
L 401.409362 -540.613102 
L 401.863139 -545.455023 
L 402.376337 -550.296944 
L 402.933366 -555.138866 
L 403.518233 -559.980787 
L 404.115308 -564.822708 
L 404.710002 -569.66463 
L 405.289325 -574.506551 
L 405.842291 -579.348472 
L 406.360162 -584.190394 
L 406.836544 -589.032315 
L 407.267334 -593.874236 
L 407.650553 -598.716157 
L 407.986091 -603.558079 
L 408.275392 -608.4 
L 410.724608 -608.4 
L 410.724608 -608.4 
L 411.013909 -603.558079 
L 411.349447 -598.716157 
L 411.732666 -593.874236 
L 412.163456 -589.032315 
L 412.639838 -584.190394 
L 413.157709 -579.348472 
L 413.710675 -574.506551 
L 414.289998 -569.66463 
L 414.884692 -564.822708 
L 415.481767 -559.980787 
L 416.066634 -555.138866 
L 416.623663 -550.296944 
L 417.136861 -545.455023 
L 417.590638 -540.613102 
L 417.970615 -535.771181 
L 418.264421 -530.929259 
L 418.462413 -526.087338 
L 418.558281 -521.245417 
L 418.549477 -516.403495 
L 418.437453 -511.561574 
L 418.227679 -506.719653 
L 417.929455 -501.877732 
L 417.55552 -497.03581 
L 417.12152 -492.193889 
L 416.64534 -487.351968 
L 416.146399 -482.510046 
L 415.644911 -477.668125 
L 415.161204 -472.826204 
L 414.715104 -467.984282 
L 414.32543 -463.142361 
L 414.009614 -458.30044 
L 413.783444 -453.458519 
L 413.660926 -448.616597 
L 413.654262 -443.774676 
L 413.773906 -438.932755 
L 414.028695 -434.090833 
L 414.426026 -429.248912 
L 414.972069 -424.406991 
L 415.671996 -419.56507 
L 416.530225 -414.723148 
L 417.550663 -409.881227 
L 418.736943 -405.039306 
L 420.092647 -400.197384 
L 421.621495 -395.355463 
L 423.327496 -390.513542 
L 425.215022 -385.67162 
L 427.288803 -380.829699 
L 429.553799 -375.987778 
L 432.014936 -371.145857 
L 434.6767 -366.303935 
L 437.542552 -361.462014 
L 440.614195 -356.620093 
L 443.890698 -351.778171 
L 447.367493 -346.93625 
L 451.035317 -342.094329 
L 454.879132 -337.252408 
L 458.877103 -332.410486 
L 462.999722 -327.568565 
L 467.209145 -322.726644 
L 471.458846 -317.884722 
L 475.69366 -313.042801 
L 479.85028 -308.20088 
L 483.858267 -303.358958 
L 487.641589 -298.517037 
L 491.120679 -293.675116 
L 494.214966 -288.833195 
L 496.845784 -283.991273 
L 498.939539 -279.149352 
L 500.430955 -274.307431 
L 501.26623 -269.465509 
L 501.405882 -264.623588 
L 500.827102 -259.781667 
L 499.525417 -254.939746 
L 497.515552 -250.097824 
L 494.831373 -245.255903 
L 491.5249 -240.413982 
L 487.664434 -235.57206 
L 483.331886 -230.730139 
L 478.619484 -225.888218 
L 473.626059 -221.046296 
L 468.453133 -216.204375 
L 463.201053 -211.362454 
L 457.965392 -206.520533 
L 452.833808 -201.678611 
L 447.883504 -196.83669 
L 443.179402 -191.994769 
L 438.77304 -187.152847 
L 434.702218 -182.310926 
L 430.991292 -177.469005 
L 427.65205 -172.627084 
L 424.685028 -167.785162 
L 422.081146 -162.943241 
L 419.823512 -158.10132 
L 417.889293 -153.259398 
L 416.251518 -148.417477 
L 414.880748 -143.575556 
L 413.746539 -138.733634 
L 412.818671 -133.891713 
L 412.068112 -129.049792 
z
" style="stroke: #595959; stroke-width: 1.5"/>
                </defs>
                <g clip-path="url(#pab1550d8ef)">
                    <use xlink:href="#mad1fcaa5a9" x="0" y="720"
                         style="fill: #72b6a1; stroke: #595959; stroke-width: 1.5"/>
                </g>
            </g>
            <g id="PolyCollection_2">
                <defs>
                    <path id="m11bd852096" d="M 693.772832 -141.369019
L 683.227168 -141.369019 
L 682.150099 -144.538827 
L 680.906296 -147.708635 
L 679.482036 -150.878443 
L 677.865032 -154.048251 
L 676.045063 -157.218059 
L 674.01463 -160.387867 
L 671.769627 -163.557675 
L 669.309994 -166.727483 
L 666.640317 -169.897291 
L 663.770342 -173.067099 
L 660.715377 -176.236907 
L 657.496534 -179.406715 
L 654.140791 -182.576524 
L 650.680841 -185.746332 
L 647.154721 -188.91614 
L 643.605202 -192.085948 
L 640.078955 -195.255756 
L 636.625496 -198.425564 
L 633.295952 -201.595372 
L 630.141666 -204.76518 
L 627.212721 -207.934988 
L 624.55641 -211.104796 
L 622.215731 -214.274604 
L 620.227981 -217.444412 
L 618.623486 -220.61422 
L 617.424562 -223.784028 
L 616.64473 -226.953836 
L 616.288235 -230.123644 
L 616.349902 -233.293452 
L 616.815325 -236.46326 
L 617.661392 -239.633068 
L 618.857124 -242.802876 
L 620.364777 -245.972684 
L 622.141176 -249.142493 
L 624.139199 -252.312301 
L 626.309362 -255.482109 
L 628.601414 -258.651917 
L 630.965899 -261.821725 
L 633.355592 -264.991533 
L 635.726775 -268.161341 
L 638.040302 -271.331149 
L 640.26241 -274.500957 
L 642.365279 -277.670765 
L 644.327319 -280.840573 
L 646.133206 -284.010381 
L 647.773679 -287.180189 
L 649.245143 -290.349997 
L 650.5491 -293.519805 
L 651.69147 -296.689613 
L 652.68183 -299.859421 
L 653.532629 -303.029229 
L 654.258408 -306.199037 
L 654.875065 -309.368845 
L 655.399199 -312.538653 
L 655.847532 -315.708461 
L 656.236442 -318.87827 
L 656.581604 -322.048078 
L 656.897728 -325.217886 
L 657.19839 -328.387694 
L 657.495947 -331.557502 
L 657.801511 -334.72731 
L 658.12497 -337.897118 
L 658.475034 -341.066926 
L 658.859294 -344.236734 
L 659.284278 -347.406542 
L 659.7555 -350.57635 
L 660.277482 -353.746158 
L 660.853764 -356.915966 
L 661.486889 -360.085774 
L 662.178378 -363.255582 
L 662.928694 -366.42539 
L 663.737199 -369.595198 
L 664.602136 -372.765006 
L 665.520607 -375.934814 
L 666.48859 -379.104622 
L 667.50098 -382.27443 
L 668.55166 -385.444239 
L 669.633616 -388.614047 
L 670.739075 -391.783855 
L 671.859676 -394.953663 
L 672.98667 -398.123471 
L 674.111125 -401.293279 
L 675.224149 -404.463087 
L 676.317105 -407.632895 
L 677.381819 -410.802703 
L 678.410768 -413.972511 
L 679.39724 -417.142319 
L 680.335466 -420.312127 
L 681.22071 -423.481935 
L 682.049331 -426.651743 
L 682.818797 -429.821551 
L 683.52767 -432.991359 
L 684.175555 -436.161167 
L 684.76302 -439.330975 
L 685.291499 -442.500783 
L 685.76317 -445.670591 
L 686.180829 -448.840399 
L 686.547757 -452.010207 
L 686.86759 -455.180016 
L 690.13241 -455.180016 
L 690.13241 -455.180016 
L 690.452243 -452.010207 
L 690.819171 -448.840399 
L 691.23683 -445.670591 
L 691.708501 -442.500783 
L 692.23698 -439.330975 
L 692.824445 -436.161167 
L 693.47233 -432.991359 
L 694.181203 -429.821551 
L 694.950669 -426.651743 
L 695.77929 -423.481935 
L 696.664534 -420.312127 
L 697.60276 -417.142319 
L 698.589232 -413.972511 
L 699.618181 -410.802703 
L 700.682895 -407.632895 
L 701.775851 -404.463087 
L 702.888875 -401.293279 
L 704.01333 -398.123471 
L 705.140324 -394.953663 
L 706.260925 -391.783855 
L 707.366384 -388.614047 
L 708.44834 -385.444239 
L 709.49902 -382.27443 
L 710.51141 -379.104622 
L 711.479393 -375.934814 
L 712.397864 -372.765006 
L 713.262801 -369.595198 
L 714.071306 -366.42539 
L 714.821622 -363.255582 
L 715.513111 -360.085774 
L 716.146236 -356.915966 
L 716.722518 -353.746158 
L 717.2445 -350.57635 
L 717.715722 -347.406542 
L 718.140706 -344.236734 
L 718.524966 -341.066926 
L 718.87503 -337.897118 
L 719.198489 -334.72731 
L 719.504053 -331.557502 
L 719.80161 -328.387694 
L 720.102272 -325.217886 
L 720.418396 -322.048078 
L 720.763558 -318.87827 
L 721.152468 -315.708461 
L 721.600801 -312.538653 
L 722.124935 -309.368845 
L 722.741592 -306.199037 
L 723.467371 -303.029229 
L 724.31817 -299.859421 
L 725.30853 -296.689613 
L 726.4509 -293.519805 
L 727.754857 -290.349997 
L 729.226321 -287.180189 
L 730.866794 -284.010381 
L 732.672681 -280.840573 
L 734.634721 -277.670765 
L 736.73759 -274.500957 
L 738.959698 -271.331149 
L 741.273225 -268.161341 
L 743.644408 -264.991533 
L 746.034101 -261.821725 
L 748.398586 -258.651917 
L 750.690638 -255.482109 
L 752.860801 -252.312301 
L 754.858824 -249.142493 
L 756.635223 -245.972684 
L 758.142876 -242.802876 
L 759.338608 -239.633068 
L 760.184675 -236.46326 
L 760.650098 -233.293452 
L 760.711765 -230.123644 
L 760.35527 -226.953836 
L 759.575438 -223.784028 
L 758.376514 -220.61422 
L 756.772019 -217.444412 
L 754.784269 -214.274604 
L 752.44359 -211.104796 
L 749.787279 -207.934988 
L 746.858334 -204.76518 
L 743.704048 -201.595372 
L 740.374504 -198.425564 
L 736.921045 -195.255756 
L 733.394798 -192.085948 
L 729.845279 -188.91614 
L 726.319159 -185.746332 
L 722.859209 -182.576524 
L 719.503466 -179.406715 
L 716.284623 -176.236907 
L 713.229658 -173.067099 
L 710.359683 -169.897291 
L 707.690006 -166.727483 
L 705.230373 -163.557675 
L 702.98537 -160.387867 
L 700.954937 -157.218059 
L 699.134968 -154.048251 
L 697.517964 -150.878443 
L 696.093704 -147.708635 
L 694.849901 -144.538827 
L 693.772832 -141.369019 
z
" style="stroke: #595959; stroke-width: 1.5"/>
                </defs>
                <g clip-path="url(#pab1550d8ef)">
                    <use xlink:href="#m11bd852096" x="0" y="720"
                         style="fill: #e99675; stroke: #595959; stroke-width: 1.5"/>
                </g>
            </g>
            <g id="PolyCollection_3">
                <defs>
                    <path id="m4b036aa442" d="M 971.206416 -106.209921
L 963.793584 -106.209921 
L 963.127173 -110.688207 
L 962.370766 -115.166492 
L 961.51816 -119.644778 
L 960.563826 -124.123064 
L 959.503129 -128.601349 
L 958.332565 -133.079635 
L 957.049978 -137.55792 
L 955.654776 -142.036206 
L 954.148123 -146.514492 
L 952.533095 -150.992777 
L 950.814802 -155.471063 
L 949.00046 -159.949348 
L 947.099404 -164.427634 
L 945.123049 -168.90592 
L 943.084777 -173.384205 
L 940.999772 -177.862491 
L 938.884781 -182.340776 
L 936.757834 -186.819062 
L 934.637901 -191.297348 
L 932.544522 -195.775633 
L 930.4974 -200.253919 
L 928.515992 -204.732204 
L 926.61909 -209.21049 
L 924.82443 -213.688776 
L 923.148312 -218.167061 
L 921.605279 -222.645347 
L 920.207836 -227.123633 
L 918.966227 -231.601918 
L 917.888285 -236.080204 
L 916.979335 -240.558489 
L 916.242174 -245.036775 
L 915.677104 -249.515061 
L 915.282026 -253.993346 
L 915.052586 -258.471632 
L 914.982353 -262.949917 
L 915.063033 -267.428203 
L 915.28471 -271.906489 
L 915.636091 -276.384774 
L 916.104764 -280.86306 
L 916.677453 -285.341345 
L 917.340267 -289.819631 
L 918.07894 -294.297917 
L 918.879059 -298.776202 
L 919.726283 -303.254488 
L 920.606549 -307.732773 
L 921.506265 -312.211059 
L 922.412497 -316.689345 
L 923.313141 -321.16763 
L 924.197098 -325.645916 
L 925.054429 -330.124202 
L 925.876505 -334.602487 
L 926.656145 -339.080773 
L 927.387742 -343.559058 
L 928.067361 -348.037344 
L 928.692825 -352.51563 
L 929.26376 -356.993915 
L 929.781614 -361.472201 
L 930.249638 -365.950486 
L 930.672815 -370.428772 
L 931.057757 -374.907058 
L 931.412541 -379.385343 
L 931.746513 -383.863629 
L 932.070043 -388.341914 
L 932.394236 -392.8202 
L 932.730625 -397.298486 
L 933.090828 -401.776771 
L 933.486206 -406.255057 
L 933.927507 -410.733342 
L 934.42453 -415.211628 
L 934.985815 -419.689914 
L 935.618362 -424.168199 
L 936.327401 -428.646485 
L 937.116214 -433.124771 
L 937.986028 -437.603056 
L 938.935966 -442.081342 
L 939.96307 -446.559627 
L 941.062394 -451.037913 
L 942.22716 -455.516199 
L 943.448965 -459.994484 
L 944.718044 -464.47277 
L 946.023563 -468.951055 
L 947.353942 -473.429341 
L 948.697183 -477.907627 
L 950.041207 -482.385912 
L 951.374164 -486.864198 
L 952.684737 -491.342483 
L 953.962394 -495.820769 
L 955.197609 -500.299055 
L 956.38204 -504.77734 
L 957.508649 -509.255626 
L 958.571778 -513.733911 
L 959.567179 -518.212197 
L 960.491992 -522.690483 
L 961.34469 -527.168768 
L 962.124988 -531.647054 
L 962.833727 -536.12534 
L 963.472731 -540.603625 
L 964.044663 -545.081911 
L 964.552864 -549.560196 
L 970.447136 -549.560196 
L 970.447136 -549.560196 
L 970.955337 -545.081911 
L 971.527269 -540.603625 
L 972.166273 -536.12534 
L 972.875012 -531.647054 
L 973.65531 -527.168768 
L 974.508008 -522.690483 
L 975.432821 -518.212197 
L 976.428222 -513.733911 
L 977.491351 -509.255626 
L 978.61796 -504.77734 
L 979.802391 -500.299055 
L 981.037606 -495.820769 
L 982.315263 -491.342483 
L 983.625836 -486.864198 
L 984.958793 -482.385912 
L 986.302817 -477.907627 
L 987.646058 -473.429341 
L 988.976437 -468.951055 
L 990.281956 -464.47277 
L 991.551035 -459.994484 
L 992.77284 -455.516199 
L 993.937606 -451.037913 
L 995.03693 -446.559627 
L 996.064034 -442.081342 
L 997.013972 -437.603056 
L 997.883786 -433.124771 
L 998.672599 -428.646485 
L 999.381638 -424.168199 
L 1000.014185 -419.689914 
L 1000.57547 -415.211628 
L 1001.072493 -410.733342 
L 1001.513794 -406.255057 
L 1001.909172 -401.776771 
L 1002.269375 -397.298486 
L 1002.605764 -392.8202 
L 1002.929957 -388.341914 
L 1003.253487 -383.863629 
L 1003.587459 -379.385343 
L 1003.942243 -374.907058 
L 1004.327185 -370.428772 
L 1004.750362 -365.950486 
L 1005.218386 -361.472201 
L 1005.73624 -356.993915 
L 1006.307175 -352.51563 
L 1006.932639 -348.037344 
L 1007.612258 -343.559058 
L 1008.343855 -339.080773 
L 1009.123495 -334.602487 
L 1009.945571 -330.124202 
L 1010.802902 -325.645916 
L 1011.686859 -321.16763 
L 1012.587503 -316.689345 
L 1013.493735 -312.211059 
L 1014.393451 -307.732773 
L 1015.273717 -303.254488 
L 1016.120941 -298.776202 
L 1016.92106 -294.297917 
L 1017.659733 -289.819631 
L 1018.322547 -285.341345 
L 1018.895236 -280.86306 
L 1019.363909 -276.384774 
L 1019.71529 -271.906489 
L 1019.936967 -267.428203 
L 1020.017647 -262.949917 
L 1019.947414 -258.471632 
L 1019.717974 -253.993346 
L 1019.322896 -249.515061 
L 1018.757826 -245.036775 
L 1018.020665 -240.558489 
L 1017.111715 -236.080204 
L 1016.033773 -231.601918 
L 1014.792164 -227.123633 
L 1013.394721 -222.645347 
L 1011.851688 -218.167061 
L 1010.17557 -213.688776 
L 1008.38091 -209.21049 
L 1006.484008 -204.732204 
L 1004.5026 -200.253919 
L 1002.455478 -195.775633 
L 1000.362099 -191.297348 
L 998.242166 -186.819062 
L 996.115219 -182.340776 
L 994.000228 -177.862491 
L 991.915223 -173.384205 
L 989.876951 -168.90592 
L 987.900596 -164.427634 
L 985.99954 -159.949348 
L 984.185198 -155.471063 
L 982.466905 -150.992777 
L 980.851877 -146.514492 
L 979.345224 -142.036206 
L 977.950022 -137.55792 
L 976.667435 -133.079635 
L 975.496871 -128.601349 
L 974.436174 -124.123064 
L 973.48184 -119.644778 
L 972.629234 -115.166492 
L 971.872827 -110.688207 
L 971.206416 -106.209921 
z
" style="stroke: #595959; stroke-width: 1.5"/>
                </defs>
                <g clip-path="url(#pab1550d8ef)">
                    <use xlink:href="#m4b036aa442" x="0" y="720"
                         style="fill: #95a3c3; stroke: #595959; stroke-width: 1.5"/>
                </g>
            </g>
            <g id="PolyCollection_4">
                <defs>
                    <path id="m86318e6c5e" d="M 1251.404279 -104.4
L 1241.595721 -104.4 
L 1240.539672 -109.37032 
L 1239.310791 -114.34064 
L 1237.893787 -119.31096 
L 1236.274902 -124.28128 
L 1234.442639 -129.2516 
L 1232.388538 -134.22192 
L 1230.107957 -139.19224 
L 1227.600831 -144.16256 
L 1224.872364 -149.13288 
L 1221.933601 -154.1032 
L 1218.801854 -159.07352 
L 1215.500913 -164.04384 
L 1212.061034 -169.01416 
L 1208.518652 -173.98448 
L 1204.915815 -178.9548 
L 1201.299341 -183.92512 
L 1197.719699 -188.89544 
L 1194.229654 -193.86576 
L 1190.882723 -198.83608 
L 1187.731498 -203.8064 
L 1184.825916 -208.77672 
L 1182.211551 -213.74704 
L 1179.928012 -218.71736 
L 1178.007536 -223.68768 
L 1176.473838 -228.658 
L 1175.341298 -233.62832 
L 1174.614511 -238.59864 
L 1174.288235 -243.56896 
L 1174.34775 -248.53928 
L 1174.769586 -253.5096 
L 1175.522609 -258.47992 
L 1176.569378 -263.45024 
L 1177.867728 -268.42056 
L 1179.372474 -273.39088 
L 1181.037162 -278.3612 
L 1182.815778 -283.33152 
L 1184.664324 -288.30184 
L 1186.542219 -293.27216 
L 1188.413433 -298.242481 
L 1190.247345 -303.212801 
L 1192.019298 -308.183121 
L 1193.710834 -313.153441 
L 1195.309643 -318.123761 
L 1196.809249 -323.094081 
L 1198.208463 -328.064401 
L 1199.51067 -333.034721 
L 1200.722984 -338.005041 
L 1201.855343 -342.975361 
L 1202.919586 -347.945681 
L 1203.928561 -352.916001 
L 1204.895304 -357.886321 
L 1205.832329 -362.856641 
L 1206.751043 -367.826961 
L 1207.661298 -372.797281 
L 1208.571104 -377.767601 
L 1209.486472 -382.737921 
L 1210.411404 -387.708241 
L 1211.347994 -392.678561 
L 1212.296633 -397.648881 
L 1213.256283 -402.619201 
L 1214.224814 -407.589521 
L 1215.199354 -412.559841 
L 1216.176649 -417.530161 
L 1217.153403 -422.500481 
L 1218.126579 -427.470801 
L 1219.093639 -432.441121 
L 1220.052729 -437.411441 
L 1221.002784 -442.381761 
L 1221.94356 -447.352081 
L 1222.875597 -452.322401 
L 1223.80011 -457.292721 
L 1224.718833 -462.263041 
L 1225.633818 -467.233361 
L 1226.54721 -472.203681 
L 1227.46101 -477.174001 
L 1228.376856 -482.144321 
L 1229.295815 -487.114641 
L 1230.218223 -492.084961 
L 1231.143569 -497.055281 
L 1232.070433 -502.025601 
L 1232.996484 -506.995921 
L 1233.918534 -511.966241 
L 1234.832644 -516.936561 
L 1235.734275 -521.906881 
L 1236.618467 -526.877201 
L 1237.480049 -531.847521 
L 1238.31385 -536.817841 
L 1239.114904 -541.788161 
L 1239.878648 -546.758481 
L 1240.601081 -551.728801 
L 1241.278903 -556.699121 
L 1241.909605 -561.669441 
L 1242.491528 -566.639761 
L 1243.023871 -571.610081 
L 1243.506673 -576.580401 
L 1243.940756 -581.550721 
L 1244.327644 -586.521041 
L 1244.669464 -591.491361 
L 1244.968828 -596.461681 
L 1248.031172 -596.461681 
L 1248.031172 -596.461681 
L 1248.330536 -591.491361 
L 1248.672356 -586.521041 
L 1249.059244 -581.550721 
L 1249.493327 -576.580401 
L 1249.976129 -571.610081 
L 1250.508472 -566.639761 
L 1251.090395 -561.669441 
L 1251.721097 -556.699121 
L 1252.398919 -551.728801 
L 1253.121352 -546.758481 
L 1253.885096 -541.788161 
L 1254.68615 -536.817841 
L 1255.519951 -531.847521 
L 1256.381533 -526.877201 
L 1257.265725 -521.906881 
L 1258.167356 -516.936561 
L 1259.081466 -511.966241 
L 1260.003516 -506.995921 
L 1260.929567 -502.025601 
L 1261.856431 -497.055281 
L 1262.781777 -492.084961 
L 1263.704185 -487.114641 
L 1264.623144 -482.144321 
L 1265.53899 -477.174001 
L 1266.45279 -472.203681 
L 1267.366182 -467.233361 
L 1268.281167 -462.263041 
L 1269.19989 -457.292721 
L 1270.124403 -452.322401 
L 1271.05644 -447.352081 
L 1271.997216 -442.381761 
L 1272.947271 -437.411441 
L 1273.906361 -432.441121 
L 1274.873421 -427.470801 
L 1275.846597 -422.500481 
L 1276.823351 -417.530161 
L 1277.800646 -412.559841 
L 1278.775186 -407.589521 
L 1279.743717 -402.619201 
L 1280.703367 -397.648881 
L 1281.652006 -392.678561 
L 1282.588596 -387.708241 
L 1283.513528 -382.737921 
L 1284.428896 -377.767601 
L 1285.338702 -372.797281 
L 1286.248957 -367.826961 
L 1287.167671 -362.856641 
L 1288.104696 -357.886321 
L 1289.071439 -352.916001 
L 1290.080414 -347.945681 
L 1291.144657 -342.975361 
L 1292.277016 -338.005041 
L 1293.48933 -333.034721 
L 1294.791537 -328.064401 
L 1296.190751 -323.094081 
L 1297.690357 -318.123761 
L 1299.289166 -313.153441 
L 1300.980702 -308.183121 
L 1302.752655 -303.212801 
L 1304.586567 -298.242481 
L 1306.457781 -293.27216 
L 1308.335676 -288.30184 
L 1310.184222 -283.33152 
L 1311.962838 -278.3612 
L 1313.627526 -273.39088 
L 1315.132272 -268.42056 
L 1316.430622 -263.45024 
L 1317.477391 -258.47992 
L 1318.230414 -253.5096 
L 1318.65225 -248.53928 
L 1318.711765 -243.56896 
L 1318.385489 -238.59864 
L 1317.658702 -233.62832 
L 1316.526162 -228.658 
L 1314.992464 -223.68768 
L 1313.071988 -218.71736 
L 1310.788449 -213.74704 
L 1308.174084 -208.77672 
L 1305.268502 -203.8064 
L 1302.117277 -198.83608 
L 1298.770346 -193.86576 
L 1295.280301 -188.89544 
L 1291.700659 -183.92512 
L 1288.084185 -178.9548 
L 1284.481348 -173.98448 
L 1280.938966 -169.01416 
L 1277.499087 -164.04384 
L 1274.198146 -159.07352 
L 1271.066399 -154.1032 
L 1268.127636 -149.13288 
L 1265.399169 -144.16256 
L 1262.892043 -139.19224 
L 1260.611462 -134.22192 
L 1258.557361 -129.2516 
L 1256.725098 -124.28128 
L 1255.106213 -119.31096 
L 1253.689209 -114.34064 
L 1252.460328 -109.37032 
L 1251.404279 -104.4 
z
" style="stroke: #595959; stroke-width: 1.5"/>
                </defs>
                <g clip-path="url(#pab1550d8ef)">
                    <use xlink:href="#m86318e6c5e" x="0" y="720"
                         style="fill: #db96c0; stroke: #595959; stroke-width: 1.5"/>
                </g>
            </g>
            <g id="PolyCollection_5">
                <defs>
                    <path id="m9a1791ec5e" d="M 1530.183307 -150.365073
L 1520.816693 -150.365073 
L 1519.51054 -153.870847 
L 1517.918985 -157.37662 
L 1516.002825 -160.882394 
L 1513.723622 -164.388168 
L 1511.045534 -167.893942 
L 1507.93743 -171.399715 
L 1504.375208 -174.905489 
L 1500.344228 -178.411263 
L 1495.841712 -181.917037 
L 1490.878972 -185.42281 
L 1485.483278 -188.928584 
L 1479.699214 -192.434358 
L 1473.589347 -195.940132 
L 1467.234064 -199.445905 
L 1460.730493 -202.951679 
L 1454.190453 -206.457453 
L 1447.737434 -209.963227 
L 1441.502718 -213.469 
L 1435.620757 -216.974774 
L 1430.22405 -220.480548 
L 1425.437761 -223.986321 
L 1421.374395 -227.492095 
L 1418.128831 -230.997869 
L 1415.774029 -234.503643 
L 1414.357678 -238.009416 
L 1413.9 -241.51519 
L 1414.392863 -245.020964 
L 1415.800264 -248.526738 
L 1418.060153 -252.032511 
L 1421.087481 -255.538285 
L 1424.778282 -259.044059 
L 1429.014541 -262.549833 
L 1433.669528 -266.055606 
L 1438.613311 -269.56138 
L 1443.718113 -273.067154 
L 1448.863234 -276.572928 
L 1453.939311 -280.078701 
L 1458.851706 -283.584475 
L 1463.522938 -287.090249 
L 1467.894088 -290.596023 
L 1471.925205 -294.101796 
L 1475.594782 -297.60757 
L 1478.898422 -301.113344 
L 1481.846845 -304.619118 
L 1484.463396 -308.124891 
L 1486.781247 -311.630665 
L 1488.840439 -315.136439 
L 1490.684945 -318.642213 
L 1492.359872 -322.147986 
L 1493.908933 -325.65376 
L 1495.372266 -329.159534 
L 1496.784672 -332.665307 
L 1498.174305 -336.171081 
L 1499.561845 -339.676855 
L 1500.960126 -343.182629 
L 1502.374218 -346.688402 
L 1503.801908 -350.194176 
L 1505.234529 -353.69995 
L 1506.658074 -357.205724 
L 1508.054515 -360.711497 
L 1509.403251 -364.217271 
L 1510.682616 -367.723045 
L 1511.87135 -371.228819 
L 1512.94998 -374.734592 
L 1513.90205 -378.240366 
L 1514.715132 -381.74614 
L 1515.38159 -385.251914 
L 1515.899077 -388.757687 
L 1516.270729 -392.263461 
L 1516.505077 -395.769235 
L 1516.615672 -399.275009 
L 1516.620462 -402.780782 
L 1516.540937 -406.286556 
L 1516.401109 -409.79233 
L 1516.226364 -413.298104 
L 1516.042261 -416.803877 
L 1515.873335 -420.309651 
L 1515.741977 -423.815425 
L 1515.667451 -427.321199 
L 1515.665102 -430.826972 
L 1515.745801 -434.332746 
L 1515.915658 -437.83852 
L 1516.175998 -441.344293 
L 1516.523614 -444.850067 
L 1516.951252 -448.355841 
L 1517.448285 -451.861615 
L 1518.001538 -455.367388 
L 1518.59618 -458.873162 
L 1519.216631 -462.378936 
L 1519.847427 -465.88471 
L 1520.47398 -469.390483 
L 1521.083203 -472.896257 
L 1521.663973 -476.402031 
L 1522.207421 -479.907805 
L 1522.707049 -483.413578 
L 1523.158699 -486.919352 
L 1523.560393 -490.425126 
L 1523.912077 -493.9309 
L 1524.215298 -497.436673 
L 1526.784702 -497.436673 
L 1526.784702 -497.436673 
L 1527.087923 -493.9309 
L 1527.439607 -490.425126 
L 1527.841301 -486.919352 
L 1528.292951 -483.413578 
L 1528.792579 -479.907805 
L 1529.336027 -476.402031 
L 1529.916797 -472.896257 
L 1530.52602 -469.390483 
L 1531.152573 -465.88471 
L 1531.783369 -462.378936 
L 1532.40382 -458.873162 
L 1532.998462 -455.367388 
L 1533.551715 -451.861615 
L 1534.048748 -448.355841 
L 1534.476386 -444.850067 
L 1534.824002 -441.344293 
L 1535.084342 -437.83852 
L 1535.254199 -434.332746 
L 1535.334898 -430.826972 
L 1535.332549 -427.321199 
L 1535.258023 -423.815425 
L 1535.126665 -420.309651 
L 1534.957739 -416.803877 
L 1534.773636 -413.298104 
L 1534.598891 -409.79233 
L 1534.459063 -406.286556 
L 1534.379538 -402.780782 
L 1534.384328 -399.275009 
L 1534.494923 -395.769235 
L 1534.729271 -392.263461 
L 1535.100923 -388.757687 
L 1535.61841 -385.251914 
L 1536.284868 -381.74614 
L 1537.09795 -378.240366 
L 1538.05002 -374.734592 
L 1539.12865 -371.228819 
L 1540.317384 -367.723045 
L 1541.596749 -364.217271 
L 1542.945485 -360.711497 
L 1544.341926 -357.205724 
L 1545.765471 -353.69995 
L 1547.198092 -350.194176 
L 1548.625782 -346.688402 
L 1550.039874 -343.182629 
L 1551.438155 -339.676855 
L 1552.825695 -336.171081 
L 1554.215328 -332.665307 
L 1555.627734 -329.159534 
L 1557.091067 -325.65376 
L 1558.640128 -322.147986 
L 1560.315055 -318.642213 
L 1562.159561 -315.136439 
L 1564.218753 -311.630665 
L 1566.536604 -308.124891 
L 1569.153155 -304.619118 
L 1572.101578 -301.113344 
L 1575.405218 -297.60757 
L 1579.074795 -294.101796 
L 1583.105912 -290.596023 
L 1587.477062 -287.090249 
L 1592.148294 -283.584475 
L 1597.060689 -280.078701 
L 1602.136766 -276.572928 
L 1607.281887 -273.067154 
L 1612.386689 -269.56138 
L 1617.330472 -266.055606 
L 1621.985459 -262.549833 
L 1626.221718 -259.044059 
L 1629.912519 -255.538285 
L 1632.939847 -252.032511 
L 1635.199736 -248.526738 
L 1636.607137 -245.020964 
L 1637.1 -241.51519 
L 1636.642322 -238.009416 
L 1635.225971 -234.503643 
L 1632.871169 -230.997869 
L 1629.625605 -227.492095 
L 1625.562239 -223.986321 
L 1620.77595 -220.480548 
L 1615.379243 -216.974774 
L 1609.497282 -213.469 
L 1603.262566 -209.963227 
L 1596.809547 -206.457453 
L 1590.269507 -202.951679 
L 1583.765936 -199.445905 
L 1577.410653 -195.940132 
L 1571.300786 -192.434358 
L 1565.516722 -188.928584 
L 1560.121028 -185.42281 
L 1555.158288 -181.917037 
L 1550.655772 -178.411263 
L 1546.624792 -174.905489 
L 1543.06257 -171.399715 
L 1539.954466 -167.893942 
L 1537.276378 -164.388168 
L 1534.997175 -160.882394 
L 1533.081015 -157.37662 
L 1531.48946 -153.870847 
L 1530.183307 -150.365073 
z
" style="stroke: #595959; stroke-width: 1.5"/>
                </defs>
                <g clip-path="url(#pab1550d8ef)">
                    <use xlink:href="#m9a1791ec5e" x="0" y="720"
                         style="fill: #a2c865; stroke: #595959; stroke-width: 1.5"/>
                </g>
            </g>
            <g id="matplotlib.axis_1">
                <g id="xtick_1">
                    <g id="line2d_1">
                        <defs>
                            <path id="m372fd226bf" d="M 0 0
L 0 3.5 
" style="stroke: #000000; stroke-width: 0.8"/>
                        </defs>
                        <g>
                            <use xlink:href="#m372fd226bf" x="409.5" y="640.8"
                                 style="stroke: #000000; stroke-width: 0.8"/>
                        </g>
                    </g>
                    <g id="text_1">
                        <!-- 1 -->
                        <g transform="translate(403.1375 662.996875)scale(0.2 -0.2)">
                            <defs>
                                <path id="DejaVuSans-31" d="M 794 531
L 1825 531 
L 1825 4091 
L 703 3866 
L 703 4441 
L 1819 4666 
L 2450 4666 
L 2450 531 
L 3481 531 
L 3481 0 
L 794 0 
L 794 531 
z
" transform="scale(0.015625)"/>
                            </defs>
                            <use xlink:href="#DejaVuSans-31"/>
                        </g>
                    </g>
                </g>
                <g id="xtick_2">
                    <g id="line2d_2">
                        <g>
                            <use xlink:href="#m372fd226bf" x="688.5" y="640.8"
                                 style="stroke: #000000; stroke-width: 0.8"/>
                        </g>
                    </g>
                    <g id="text_2">
                        <!-- 2 -->
                        <g transform="translate(682.1375 662.996875)scale(0.2 -0.2)">
                            <defs>
                                <path id="DejaVuSans-32" d="M 1228 531
L 3431 531 
L 3431 0 
L 469 0 
L 469 531 
Q 828 903 1448 1529 
Q 2069 2156 2228 2338 
Q 2531 2678 2651 2914 
Q 2772 3150 2772 3378 
Q 2772 3750 2511 3984 
Q 2250 4219 1831 4219 
Q 1534 4219 1204 4116 
Q 875 4013 500 3803 
L 500 4441 
Q 881 4594 1212 4672 
Q 1544 4750 1819 4750 
Q 2544 4750 2975 4387 
Q 3406 4025 3406 3419 
Q 3406 3131 3298 2873 
Q 3191 2616 2906 2266 
Q 2828 2175 2409 1742 
Q 1991 1309 1228 531 
z
" transform="scale(0.015625)"/>
                            </defs>
                            <use xlink:href="#DejaVuSans-32"/>
                        </g>
                    </g>
                </g>
                <g id="xtick_3">
                    <g id="line2d_3">
                        <g>
                            <use xlink:href="#m372fd226bf" x="967.5" y="640.8"
                                 style="stroke: #000000; stroke-width: 0.8"/>
                        </g>
                    </g>
                    <g id="text_3">
                        <!-- 3 -->
                        <g transform="translate(961.1375 662.996875)scale(0.2 -0.2)">
                            <defs>
                                <path id="DejaVuSans-33" d="M 2597 2516
Q 3050 2419 3304 2112 
Q 3559 1806 3559 1356 
Q 3559 666 3084 287 
Q 2609 -91 1734 -91 
Q 1441 -91 1130 -33 
Q 819 25 488 141 
L 488 750 
Q 750 597 1062 519 
Q 1375 441 1716 441 
Q 2309 441 2620 675 
Q 2931 909 2931 1356 
Q 2931 1769 2642 2001 
Q 2353 2234 1838 2234 
L 1294 2234 
L 1294 2753 
L 1863 2753 
Q 2328 2753 2575 2939 
Q 2822 3125 2822 3475 
Q 2822 3834 2567 4026 
Q 2313 4219 1838 4219 
Q 1578 4219 1281 4162 
Q 984 4106 628 3988 
L 628 4550 
Q 988 4650 1302 4700 
Q 1616 4750 1894 4750 
Q 2613 4750 3031 4423 
Q 3450 4097 3450 3541 
Q 3450 3153 3228 2886 
Q 3006 2619 2597 2516 
z
" transform="scale(0.015625)"/>
                            </defs>
                            <use xlink:href="#DejaVuSans-33"/>
                        </g>
                    </g>
                </g>
                <g id="xtick_4">
                    <g id="line2d_4">
                        <g>
                            <use xlink:href="#m372fd226bf" x="1246.5" y="640.8"
                                 style="stroke: #000000; stroke-width: 0.8"/>
                        </g>
                    </g>
                    <g id="text_4">
                        <!-- 4 -->
                        <g transform="translate(1240.1375 662.996875)scale(0.2 -0.2)">
                            <defs>
                                <path id="DejaVuSans-34" d="M 2419 4116
L 825 1625 
L 2419 1625 
L 2419 4116 
z
M 2253 4666 
L 3047 4666 
L 3047 1625 
L 3713 1625 
L 3713 1100 
L 3047 1100 
L 3047 0 
L 2419 0 
L 2419 1100 
L 313 1100 
L 313 1709 
L 2253 4666 
z
" transform="scale(0.015625)"/>
                            </defs>
                            <use xlink:href="#DejaVuSans-34"/>
                        </g>
                    </g>
                </g>
                <g id="xtick_5">
                    <g id="line2d_5">
                        <g>
                            <use xlink:href="#m372fd226bf" x="1525.5" y="640.8"
                                 style="stroke: #000000; stroke-width: 0.8"/>
                        </g>
                    </g>
                    <g id="text_5">
                        <!-- 5 -->
                        <g transform="translate(1519.1375 662.996875)scale(0.2 -0.2)">
                            <defs>
                                <path id="DejaVuSans-35" d="M 691 4666
L 3169 4666 
L 3169 4134 
L 1269 4134 
L 1269 2991 
Q 1406 3038 1543 3061 
Q 1681 3084 1819 3084 
Q 2600 3084 3056 2656 
Q 3513 2228 3513 1497 
Q 3513 744 3044 326 
Q 2575 -91 1722 -91 
Q 1428 -91 1123 -41 
Q 819 9 494 109 
L 494 744 
Q 775 591 1075 516 
Q 1375 441 1709 441 
Q 2250 441 2565 725 
Q 2881 1009 2881 1497 
Q 2881 1984 2565 2268 
Q 2250 2553 1709 2553 
Q 1456 2553 1204 2497 
Q 953 2441 691 2322 
L 691 4666 
z
" transform="scale(0.015625)"/>
                            </defs>
                            <use xlink:href="#DejaVuSans-35"/>
                        </g>
                    </g>
                </g>
                <g id="xtick_6">
                    <g id="line2d_6">
                        <g>
                            <use xlink:href="#m372fd226bf" x="1804.5" y="640.8"
                                 style="stroke: #000000; stroke-width: 0.8"/>
                        </g>
                    </g>
                    <g id="text_6">
                        <!-- 6 -->
                        <g transform="translate(1798.1375 662.996875)scale(0.2 -0.2)">
                            <defs>
                                <path id="DejaVuSans-36" d="M 2113 2584
Q 1688 2584 1439 2293 
Q 1191 2003 1191 1497 
Q 1191 994 1439 701 
Q 1688 409 2113 409 
Q 2538 409 2786 701 
Q 3034 994 3034 1497 
Q 3034 2003 2786 2293 
Q 2538 2584 2113 2584 
z
M 3366 4563 
L 3366 3988 
Q 3128 4100 2886 4159 
Q 2644 4219 2406 4219 
Q 1781 4219 1451 3797 
Q 1122 3375 1075 2522 
Q 1259 2794 1537 2939 
Q 1816 3084 2150 3084 
Q 2853 3084 3261 2657 
Q 3669 2231 3669 1497 
Q 3669 778 3244 343 
Q 2819 -91 2113 -91 
Q 1303 -91 875 529 
Q 447 1150 447 2328 
Q 447 3434 972 4092 
Q 1497 4750 2381 4750 
Q 2619 4750 2861 4703 
Q 3103 4656 3366 4563 
z
" transform="scale(0.015625)"/>
                            </defs>
                            <use xlink:href="#DejaVuSans-36"/>
                        </g>
                    </g>
                </g>
                <g id="text_7">
                    <!-- cluster -->
                    <g transform="translate(1072.992188 686.353125)scale(0.2 -0.2)">
                        <defs>
                            <path id="DejaVuSans-63" d="M 3122 3366
L 3122 2828 
Q 2878 2963 2633 3030 
Q 2388 3097 2138 3097 
Q 1578 3097 1268 2742 
Q 959 2388 959 1747 
Q 959 1106 1268 751 
Q 1578 397 2138 397 
Q 2388 397 2633 464 
Q 2878 531 3122 666 
L 3122 134 
Q 2881 22 2623 -34 
Q 2366 -91 2075 -91 
Q 1284 -91 818 406 
Q 353 903 353 1747 
Q 353 2603 823 3093 
Q 1294 3584 2113 3584 
Q 2378 3584 2631 3529 
Q 2884 3475 3122 3366 
z
" transform="scale(0.015625)"/>
                            <path id="DejaVuSans-6c" d="M 603 4863
L 1178 4863 
L 1178 0 
L 603 0 
L 603 4863 
z
" transform="scale(0.015625)"/>
                            <path id="DejaVuSans-75" d="M 544 1381
L 544 3500 
L 1119 3500 
L 1119 1403 
Q 1119 906 1312 657 
Q 1506 409 1894 409 
Q 2359 409 2629 706 
Q 2900 1003 2900 1516 
L 2900 3500 
L 3475 3500 
L 3475 0 
L 2900 0 
L 2900 538 
Q 2691 219 2414 64 
Q 2138 -91 1772 -91 
Q 1169 -91 856 284 
Q 544 659 544 1381 
z
M 1991 3584 
L 1991 3584 
z
" transform="scale(0.015625)"/>
                            <path id="DejaVuSans-73" d="M 2834 3397
L 2834 2853 
Q 2591 2978 2328 3040 
Q 2066 3103 1784 3103 
Q 1356 3103 1142 2972 
Q 928 2841 928 2578 
Q 928 2378 1081 2264 
Q 1234 2150 1697 2047 
L 1894 2003 
Q 2506 1872 2764 1633 
Q 3022 1394 3022 966 
Q 3022 478 2636 193 
Q 2250 -91 1575 -91 
Q 1294 -91 989 -36 
Q 684 19 347 128 
L 347 722 
Q 666 556 975 473 
Q 1284 391 1588 391 
Q 1994 391 2212 530 
Q 2431 669 2431 922 
Q 2431 1156 2273 1281 
Q 2116 1406 1581 1522 
L 1381 1569 
Q 847 1681 609 1914 
Q 372 2147 372 2553 
Q 372 3047 722 3315 
Q 1072 3584 1716 3584 
Q 2034 3584 2315 3537 
Q 2597 3491 2834 3397 
z
" transform="scale(0.015625)"/>
                            <path id="DejaVuSans-74" d="M 1172 4494
L 1172 3500 
L 2356 3500 
L 2356 3053 
L 1172 3053 
L 1172 1153 
Q 1172 725 1289 603 
Q 1406 481 1766 481 
L 2356 481 
L 2356 0 
L 1766 0 
Q 1100 0 847 248 
Q 594 497 594 1153 
L 594 3053 
L 172 3053 
L 172 3500 
L 594 3500 
L 594 4494 
L 1172 4494 
z
" transform="scale(0.015625)"/>
                            <path id="DejaVuSans-65" d="M 3597 1894
L 3597 1613 
L 953 1613 
Q 991 1019 1311 708 
Q 1631 397 2203 397 
Q 2534 397 2845 478 
Q 3156 559 3463 722 
L 3463 178 
Q 3153 47 2828 -22 
Q 2503 -91 2169 -91 
Q 1331 -91 842 396 
Q 353 884 353 1716 
Q 353 2575 817 3079 
Q 1281 3584 2069 3584 
Q 2775 3584 3186 3129 
Q 3597 2675 3597 1894 
z
M 3022 2063 
Q 3016 2534 2758 2815 
Q 2500 3097 2075 3097 
Q 1594 3097 1305 2825 
Q 1016 2553 972 2059 
L 3022 2063 
z
" transform="scale(0.015625)"/>
                            <path id="DejaVuSans-72" d="M 2631 2963
Q 2534 3019 2420 3045 
Q 2306 3072 2169 3072 
Q 1681 3072 1420 2755 
Q 1159 2438 1159 1844 
L 1159 0 
L 581 0 
L 581 3500 
L 1159 3500 
L 1159 2956 
Q 1341 3275 1631 3429 
Q 1922 3584 2338 3584 
Q 2397 3584 2469 3576 
Q 2541 3569 2628 3553 
L 2631 2963 
z
" transform="scale(0.015625)"/>
                        </defs>
                        <use xlink:href="#DejaVuSans-63"/>
                        <use xlink:href="#DejaVuSans-6c" x="54.980469"/>
                        <use xlink:href="#DejaVuSans-75" x="82.763672"/>
                        <use xlink:href="#DejaVuSans-73" x="146.142578"/>
                        <use xlink:href="#DejaVuSans-74" x="198.242188"/>
                        <use xlink:href="#DejaVuSans-65" x="237.451172"/>
                        <use xlink:href="#DejaVuSans-72" x="298.974609"/>
                    </g>
                </g>
            </g>
            <g id="matplotlib.axis_2">
                <g id="ytick_1">
                    <g id="line2d_7">
                        <defs>
                            <path id="me7b011b594" d="M 0 0
L -3.5 0 
" style="stroke: #000000; stroke-width: 0.8"/>
                        </defs>
                        <g>
                            <use xlink:href="#me7b011b594" x="270" y="617.841582"
                                 style="stroke: #000000; stroke-width: 0.8"/>
                        </g>
                    </g>
                    <g id="text_8">
                        <!-- 0 -->
                        <g transform="translate(250.275 625.440019)scale(0.2 -0.2)">
                            <defs>
                                <path id="DejaVuSans-30" d="M 2034 4250
Q 1547 4250 1301 3770 
Q 1056 3291 1056 2328 
Q 1056 1369 1301 889 
Q 1547 409 2034 409 
Q 2525 409 2770 889 
Q 3016 1369 3016 2328 
Q 3016 3291 2770 3770 
Q 2525 4250 2034 4250 
z
M 2034 4750 
Q 2819 4750 3233 4129 
Q 3647 3509 3647 2328 
Q 3647 1150 3233 529 
Q 2819 -91 2034 -91 
Q 1250 -91 836 529 
Q 422 1150 422 2328 
Q 422 3509 836 4129 
Q 1250 4750 2034 4750 
z
" transform="scale(0.015625)"/>
                            </defs>
                            <use xlink:href="#DejaVuSans-30"/>
                        </g>
                    </g>
                </g>
                <g id="ytick_2">
                    <g id="line2d_8">
                        <g>
                            <use xlink:href="#me7b011b594" x="270" y="505.711981"
                                 style="stroke: #000000; stroke-width: 0.8"/>
                        </g>
                    </g>
                    <g id="text_9">
                        <!-- 5 -->
                        <g transform="translate(250.275 513.310418)scale(0.2 -0.2)">
                            <use xlink:href="#DejaVuSans-35"/>
                        </g>
                    </g>
                </g>
                <g id="ytick_3">
                    <g id="line2d_9">
                        <g>
                            <use xlink:href="#me7b011b594" x="270" y="393.582379"
                                 style="stroke: #000000; stroke-width: 0.8"/>
                        </g>
                    </g>
                    <g id="text_10">
                        <!-- 10 -->
                        <g transform="translate(237.55 401.180817)scale(0.2 -0.2)">
                            <use xlink:href="#DejaVuSans-31"/>
                            <use xlink:href="#DejaVuSans-30" x="63.623047"/>
                        </g>
                    </g>
                </g>
                <g id="ytick_4">
                    <g id="line2d_10">
                        <g>
                            <use xlink:href="#me7b011b594" x="270" y="281.452778"
                                 style="stroke: #000000; stroke-width: 0.8"/>
                        </g>
                    </g>
                    <g id="text_11">
                        <!-- 15 -->
                        <g transform="translate(237.55 289.051216)scale(0.2 -0.2)">
                            <use xlink:href="#DejaVuSans-31"/>
                            <use xlink:href="#DejaVuSans-35" x="63.623047"/>
                        </g>
                    </g>
                </g>
                <g id="ytick_5">
                    <g id="line2d_11">
                        <g>
                            <use xlink:href="#me7b011b594" x="270" y="169.323177"
                                 style="stroke: #000000; stroke-width: 0.8"/>
                        </g>
                    </g>
                    <g id="text_12">
                        <!-- 20 -->
                        <g transform="translate(237.55 176.921615)scale(0.2 -0.2)">
                            <use xlink:href="#DejaVuSans-32"/>
                            <use xlink:href="#DejaVuSans-30" x="63.623047"/>
                        </g>
                    </g>
                </g>
                <g id="text_13">
                    <!-- log -->
                    <g transform="translate(229.390625 378.845312)rotate(-90)scale(0.2 -0.2)">
                        <defs>
                            <path id="DejaVuSans-6f" d="M 1959 3097
Q 1497 3097 1228 2736 
Q 959 2375 959 1747 
Q 959 1119 1226 758 
Q 1494 397 1959 397 
Q 2419 397 2687 759 
Q 2956 1122 2956 1747 
Q 2956 2369 2687 2733 
Q 2419 3097 1959 3097 
z
M 1959 3584 
Q 2709 3584 3137 3096 
Q 3566 2609 3566 1747 
Q 3566 888 3137 398 
Q 2709 -91 1959 -91 
Q 1206 -91 779 398 
Q 353 888 353 1747 
Q 353 2609 779 3096 
Q 1206 3584 1959 3584 
z
" transform="scale(0.015625)"/>
                            <path id="DejaVuSans-67" d="M 2906 1791
Q 2906 2416 2648 2759 
Q 2391 3103 1925 3103 
Q 1463 3103 1205 2759 
Q 947 2416 947 1791 
Q 947 1169 1205 825 
Q 1463 481 1925 481 
Q 2391 481 2648 825 
Q 2906 1169 2906 1791 
z
M 3481 434 
Q 3481 -459 3084 -895 
Q 2688 -1331 1869 -1331 
Q 1566 -1331 1297 -1286 
Q 1028 -1241 775 -1147 
L 775 -588 
Q 1028 -725 1275 -790 
Q 1522 -856 1778 -856 
Q 2344 -856 2625 -561 
Q 2906 -266 2906 331 
L 2906 616 
Q 2728 306 2450 153 
Q 2172 0 1784 0 
Q 1141 0 747 490 
Q 353 981 353 1791 
Q 353 2603 747 3093 
Q 1141 3584 1784 3584 
Q 2172 3584 2450 3431 
Q 2728 3278 2906 2969 
L 2906 3500 
L 3481 3500 
L 3481 434 
z
" transform="scale(0.015625)"/>
                        </defs>
                        <use xlink:href="#DejaVuSans-6c"/>
                        <use xlink:href="#DejaVuSans-6f" x="27.783203"/>
                        <use xlink:href="#DejaVuSans-67" x="88.964844"/>
                    </g>
                </g>
            </g>
            <g id="line2d_12">
                <path d="M 409.5 502.113537
L 409.5 357.146936 
" clip-path="url(#pab1550d8ef)" style="fill: none; stroke: #595959; stroke-width: 1.5; stroke-linecap: square"/>
            </g>
            <g id="line2d_13">
                <path d="M 409.5 468.775005
L 409.5 411.947284 
" clip-path="url(#pab1550d8ef)" style="fill: none; stroke: #595959; stroke-width: 4.5; stroke-linecap: square"/>
            </g>
            <g id="line2d_14">
                <path d="M 688.5 504.967407
L 688.5 338.483558 
" clip-path="url(#pab1550d8ef)" style="fill: none; stroke: #595959; stroke-width: 1.5; stroke-linecap: square"/>
            </g>
            <g id="line2d_15">
                <path d="M 688.5 495.854297
L 688.5 411.977514 
" clip-path="url(#pab1550d8ef)" style="fill: none; stroke: #595959; stroke-width: 4.5; stroke-linecap: square"/>
            </g>
            <g id="line2d_16">
                <path d="M 967.5 499.430728
L 967.5 284.799154 
" clip-path="url(#pab1550d8ef)" style="fill: none; stroke: #595959; stroke-width: 1.5; stroke-linecap: square"/>
            </g>
            <g id="line2d_17">
                <path d="M 967.5 484.022216
L 967.5 341.844341 
" clip-path="url(#pab1550d8ef)" style="fill: none; stroke: #595959; stroke-width: 4.5; stroke-linecap: square"/>
            </g>
            <g id="line2d_18">
                <path d="M 1246.5 503.948727
L 1246.5 235.189592 
" clip-path="url(#pab1550d8ef)" style="fill: none; stroke: #595959; stroke-width: 1.5; stroke-linecap: square"/>
            </g>
            <g id="line2d_19">
                <path d="M 1246.5 482.448495
L 1246.5 362.178695 
" clip-path="url(#pab1550d8ef)" style="fill: none; stroke: #595959; stroke-width: 4.5; stroke-linecap: square"/>
            </g>
            <g id="line2d_20">
                <path d="M 1525.5 505.245163
L 1525.5 391.505994 
" clip-path="url(#pab1550d8ef)" style="fill: none; stroke: #595959; stroke-width: 1.5; stroke-linecap: square"/>
            </g>
            <g id="line2d_21">
                <path d="M 1525.5 483.15763
L 1525.5 445.898514 
" clip-path="url(#pab1550d8ef)" style="fill: none; stroke: #595959; stroke-width: 4.5; stroke-linecap: square"/>
            </g>
            <g id="line2d_22">
                <path d="M 1797.935294 417.361032
L 1811.064706 417.361032 
" clip-path="url(#pab1550d8ef)" style="fill: none; stroke: #595959; stroke-width: 1.5; stroke-linecap: square"/>
            </g>
            <g id="patch_3">
                <path d="M 270 640.8
L 270 86.4 
" style="fill: none; stroke: #000000; stroke-width: 0.8; stroke-linejoin: miter; stroke-linecap: square"/>
            </g>
            <g id="patch_4">
                <path d="M 1944 640.8
L 1944 86.4 
" style="fill: none; stroke: #000000; stroke-width: 0.8; stroke-linejoin: miter; stroke-linecap: square"/>
            </g>
            <g id="patch_5">
                <path d="M 270 640.8
L 1944 640.8 
" style="fill: none; stroke: #000000; stroke-width: 0.8; stroke-linejoin: miter; stroke-linecap: square"/>
            </g>
            <g id="patch_6">
                <path d="M 270 86.4
L 1944 86.4 
" style="fill: none; stroke: #000000; stroke-width: 0.8; stroke-linejoin: miter; stroke-linecap: square"/>
            </g>
            <g id="PathCollection_1">
                <defs>
                    <path id="madf7e60171" d="M 0 1.5
C 0.397805 1.5 0.77937 1.341951 1.06066 1.06066 
C 1.341951 0.77937 1.5 0.397805 1.5 0 
C 1.5 -0.397805 1.341951 -0.77937 1.06066 -1.06066 
C 0.77937 -1.341951 0.397805 -1.5 0 -1.5 
C -0.397805 -1.5 -0.77937 -1.341951 -1.06066 -1.06066 
C -1.341951 -0.77937 -1.5 -0.397805 -1.5 0 
C -1.5 0.397805 -1.341951 0.77937 -1.06066 1.06066 
C -0.77937 1.341951 -0.397805 1.5 0 1.5 
z
" style="stroke: #595959"/>
                </defs>
                <g clip-path="url(#pab1550d8ef)">
                    <use xlink:href="#madf7e60171" x="409.5" y="453.607582" style="fill: #ffffff; stroke: #595959"/>
                </g>
            </g>
            <g id="PathCollection_2">
                <g clip-path="url(#pab1550d8ef)">
                    <use xlink:href="#madf7e60171" x="688.5" y="480.583676" style="fill: #ffffff; stroke: #595959"/>
                </g>
            </g>
            <g id="PathCollection_3">
                <g clip-path="url(#pab1550d8ef)">
                    <use xlink:href="#madf7e60171" x="967.5" y="423.584707" style="fill: #ffffff; stroke: #595959"/>
                </g>
            </g>
            <g id="PathCollection_4">
                <g clip-path="url(#pab1550d8ef)">
                    <use xlink:href="#madf7e60171" x="1246.5" y="475.014019" style="fill: #ffffff; stroke: #595959"/>
                </g>
            </g>
            <g id="PathCollection_5">
                <g clip-path="url(#pab1550d8ef)">
                    <use xlink:href="#madf7e60171" x="1525.5" y="477.39593" style="fill: #ffffff; stroke: #595959"/>
                </g>
            </g>
            <g id="PathCollection_6">
                <defs>
                    <path id="C0_0_f36f44e766" d="M 0 2.5
C 0.663008 2.5 1.29895 2.236584 1.767767 1.767767 
C 2.236584 1.29895 2.5 0.663008 2.5 -0 
C 2.5 -0.663008 2.236584 -1.29895 1.767767 -1.767767 
C 1.29895 -2.236584 0.663008 -2.5 0 -2.5 
C -0.663008 -2.5 -1.29895 -2.236584 -1.767767 -1.767767 
C -2.236584 -1.29895 -2.5 -0.663008 -2.5 0 
C -2.5 0.663008 -2.236584 1.29895 -1.767767 1.767767 
C -1.29895 2.236584 -0.663008 2.5 0 2.5 
z
"/>
                </defs>
                <g clip-path="url(#pab1550d8ef)">
                    <use xlink:href="#C0_0_f36f44e766" x="409.5" y="502.113537" style="fill: #1f77b4"/>
                </g>
                <g clip-path="url(#pab1550d8ef)">
                    <use xlink:href="#C0_0_f36f44e766" x="409.5" y="477.893002" style="fill: #1f77b4"/>
                </g>
                <g clip-path="url(#pab1550d8ef)">
                    <use xlink:href="#C0_0_f36f44e766" x="409.5" y="470.922792" style="fill: #1f77b4"/>
                </g>
                <g clip-path="url(#pab1550d8ef)">
                    <use xlink:href="#C0_0_f36f44e766" x="404.627642" y="469.060742" style="fill: #1f77b4"/>
                </g>
                <g clip-path="url(#pab1550d8ef)">
                    <use xlink:href="#C0_0_f36f44e766" x="413.696059" y="467.917795" style="fill: #1f77b4"/>
                </g>
                <g clip-path="url(#pab1550d8ef)">
                    <use xlink:href="#C0_0_f36f44e766" x="409.5" y="465.184892" style="fill: #1f77b4"/>
                </g>
                <g clip-path="url(#pab1550d8ef)">
                    <use xlink:href="#C0_0_f36f44e766" x="409.5" y="454.033" style="fill: #1f77b4"/>
                </g>
                <g clip-path="url(#pab1550d8ef)">
                    <use xlink:href="#C0_0_f36f44e766" x="404.32657" y="453.182165" style="fill: #1f77b4"/>
                </g>
                <g clip-path="url(#pab1550d8ef)">
                    <use xlink:href="#C0_0_f36f44e766" x="409.5" y="433.328325" style="fill: #1f77b4"/>
                </g>
                <g clip-path="url(#pab1550d8ef)">
                    <use xlink:href="#C0_0_f36f44e766" x="405.215812" y="430.438318" style="fill: #1f77b4"/>
                </g>
                <g clip-path="url(#pab1550d8ef)">
                    <use xlink:href="#C0_0_f36f44e766" x="409.5" y="405.783606" style="fill: #1f77b4"/>
                </g>
                <g clip-path="url(#pab1550d8ef)">
                    <use xlink:href="#C0_0_f36f44e766" x="404.605268" y="403.975561" style="fill: #1f77b4"/>
                </g>
                <g clip-path="url(#pab1550d8ef)">
                    <use xlink:href="#C0_0_f36f44e766" x="409.5" y="357.146936" style="fill: #1f77b4"/>
                </g>
                <g clip-path="url(#pab1550d8ef)">
                    <use xlink:href="#C0_0_f36f44e766" x="409.5" y="200.436671" style="fill: #1f77b4"/>
                </g>
            </g>
            <g id="PathCollection_7">
                <defs>
                    <path id="C1_0_f1dd310afa" d="M 0 2.5
C 0.663008 2.5 1.29895 2.236584 1.767767 1.767767 
C 2.236584 1.29895 2.5 0.663008 2.5 -0 
C 2.5 -0.663008 2.236584 -1.29895 1.767767 -1.767767 
C 1.29895 -2.236584 0.663008 -2.5 0 -2.5 
C -0.663008 -2.5 -1.29895 -2.236584 -1.767767 -1.767767 
C -2.236584 -1.29895 -2.5 -0.663008 -2.5 0 
C -2.5 0.663008 -2.236584 1.29895 -1.767767 1.767767 
C -1.29895 2.236584 -0.663008 2.5 0 2.5 
z
"/>
                </defs>
                <g clip-path="url(#pab1550d8ef)">
                    <use xlink:href="#C1_0_f1dd310afa" x="688.5" y="504.967407" style="fill: #ff7f0e"/>
                </g>
                <g clip-path="url(#pab1550d8ef)">
                    <use xlink:href="#C1_0_f1dd310afa" x="683.490875" y="503.470268" style="fill: #ff7f0e"/>
                </g>
                <g clip-path="url(#pab1550d8ef)">
                    <use xlink:href="#C1_0_f1dd310afa" x="688.5" y="497.469497" style="fill: #ff7f0e"/>
                </g>
                <g clip-path="url(#pab1550d8ef)">
                    <use xlink:href="#C1_0_f1dd310afa" x="684.492834" y="494.239097" style="fill: #ff7f0e"/>
                </g>
                <g clip-path="url(#pab1550d8ef)">
                    <use xlink:href="#C1_0_f1dd310afa" x="688.5" y="483.382971" style="fill: #ff7f0e"/>
                </g>
                <g clip-path="url(#pab1550d8ef)">
                    <use xlink:href="#C1_0_f1dd310afa" x="684.149914" y="480.583676" style="fill: #ff7f0e"/>
                </g>
                <g clip-path="url(#pab1550d8ef)">
                    <use xlink:href="#C1_0_f1dd310afa" x="690.175321" y="478.644381" style="fill: #ff7f0e"/>
                </g>
                <g clip-path="url(#pab1550d8ef)">
                    <use xlink:href="#C1_0_f1dd310afa" x="688.5" y="423.390787" style="fill: #ff7f0e"/>
                </g>
                <g clip-path="url(#pab1550d8ef)">
                    <use xlink:href="#C1_0_f1dd310afa" x="688.5" y="400.56424" style="fill: #ff7f0e"/>
                </g>
                <g clip-path="url(#pab1550d8ef)">
                    <use xlink:href="#C1_0_f1dd310afa" x="688.5" y="366.960869" style="fill: #ff7f0e"/>
                </g>
                <g clip-path="url(#pab1550d8ef)">
                    <use xlink:href="#C1_0_f1dd310afa" x="688.5" y="338.483558" style="fill: #ff7f0e"/>
                </g>
            </g>
            <g id="PathCollection_8">
                <defs>
                    <path id="C2_0_33aa69d24d" d="M 0 2.5
C 0.663008 2.5 1.29895 2.236584 1.767767 1.767767 
C 2.236584 1.29895 2.5 0.663008 2.5 -0 
C 2.5 -0.663008 2.236584 -1.29895 1.767767 -1.767767 
C 1.29895 -2.236584 0.663008 -2.5 0 -2.5 
C -0.663008 -2.5 -1.29895 -2.236584 -1.767767 -1.767767 
C -2.236584 -1.29895 -2.5 -0.663008 -2.5 0 
C -2.5 0.663008 -2.236584 1.29895 -1.767767 1.767767 
C -1.29895 2.236584 -0.663008 2.5 0 2.5 
z
"/>
                </defs>
                <g clip-path="url(#pab1550d8ef)">
                    <use xlink:href="#C2_0_33aa69d24d" x="967.5" y="499.430728" style="fill: #2ca02c"/>
                </g>
                <g clip-path="url(#pab1550d8ef)">
                    <use xlink:href="#C2_0_33aa69d24d" x="967.5" y="491.39814" style="fill: #2ca02c"/>
                </g>
                <g clip-path="url(#pab1550d8ef)">
                    <use xlink:href="#C2_0_33aa69d24d" x="967.5" y="481.563574" style="fill: #2ca02c"/>
                </g>
                <g clip-path="url(#pab1550d8ef)">
                    <use xlink:href="#C2_0_33aa69d24d" x="967.5" y="427.342838" style="fill: #2ca02c"/>
                </g>
                <g clip-path="url(#pab1550d8ef)">
                    <use xlink:href="#C2_0_33aa69d24d" x="967.5" y="419.826575" style="fill: #2ca02c"/>
                </g>
                <g clip-path="url(#pab1550d8ef)">
                    <use xlink:href="#C2_0_33aa69d24d" x="967.5" y="358.89662" style="fill: #2ca02c"/>
                </g>
                <g clip-path="url(#pab1550d8ef)">
                    <use xlink:href="#C2_0_33aa69d24d" x="967.5" y="290.687503" style="fill: #2ca02c"/>
                </g>
                <g clip-path="url(#pab1550d8ef)">
                    <use xlink:href="#C2_0_33aa69d24d" x="967.5" y="284.799154" style="fill: #2ca02c"/>
                </g>
            </g>
            <g id="PathCollection_9">
                <defs>
                    <path id="C3_0_733686b4fe" d="M 0 2.5
C 0.663008 2.5 1.29895 2.236584 1.767767 1.767767 
C 2.236584 1.29895 2.5 0.663008 2.5 -0 
C 2.5 -0.663008 2.236584 -1.29895 1.767767 -1.767767 
C 1.29895 -2.236584 0.663008 -2.5 0 -2.5 
C -0.663008 -2.5 -1.29895 -2.236584 -1.767767 -1.767767 
C -2.236584 -1.29895 -2.5 -0.663008 -2.5 0 
C -2.5 0.663008 -2.236584 1.29895 -1.767767 1.767767 
C -1.29895 2.236584 -0.663008 2.5 0 2.5 
z
"/>
                </defs>
                <g clip-path="url(#pab1550d8ef)">
                    <use xlink:href="#C3_0_733686b4fe" x="1246.5" y="503.948727" style="fill: #d62728"/>
                </g>
                <g clip-path="url(#pab1550d8ef)">
                    <use xlink:href="#C3_0_733686b4fe" x="1246.5" y="496.896767" style="fill: #d62728"/>
                </g>
                <g clip-path="url(#pab1550d8ef)">
                    <use xlink:href="#C3_0_733686b4fe" x="1246.5" y="483.402238" style="fill: #d62728"/>
                </g>
                <g clip-path="url(#pab1550d8ef)">
                    <use xlink:href="#C3_0_733686b4fe" x="1241.647057" y="481.494752" style="fill: #d62728"/>
                </g>
                <g clip-path="url(#pab1550d8ef)">
                    <use xlink:href="#C3_0_733686b4fe" x="1248.832291" y="478.922714" style="fill: #d62728"/>
                </g>
                <g clip-path="url(#pab1550d8ef)">
                    <use xlink:href="#C3_0_733686b4fe" x="1245.558361" y="475.014019" style="fill: #d62728"/>
                </g>
                <g clip-path="url(#pab1550d8ef)">
                    <use xlink:href="#C3_0_733686b4fe" x="1246.5" y="414.098037" style="fill: #d62728"/>
                </g>
                <g clip-path="url(#pab1550d8ef)">
                    <use xlink:href="#C3_0_733686b4fe" x="1246.5" y="374.557938" style="fill: #d62728"/>
                </g>
                <g clip-path="url(#pab1550d8ef)">
                    <use xlink:href="#C3_0_733686b4fe" x="1246.5" y="349.799452" style="fill: #d62728"/>
                </g>
                <g clip-path="url(#pab1550d8ef)">
                    <use xlink:href="#C3_0_733686b4fe" x="1246.5" y="306.336098" style="fill: #d62728"/>
                </g>
                <g clip-path="url(#pab1550d8ef)">
                    <use xlink:href="#C3_0_733686b4fe" x="1246.5" y="235.189592" style="fill: #d62728"/>
                </g>
            </g>
            <g id="PathCollection_10">
                <defs>
                    <path id="C4_0_332be7e021" d="M 0 2.5
C 0.663008 2.5 1.29895 2.236584 1.767767 1.767767 
C 2.236584 1.29895 2.5 0.663008 2.5 -0 
C 2.5 -0.663008 2.236584 -1.29895 1.767767 -1.767767 
C 1.29895 -2.236584 0.663008 -2.5 0 -2.5 
C -0.663008 -2.5 -1.29895 -2.236584 -1.767767 -1.767767 
C -2.236584 -1.29895 -2.5 -0.663008 -2.5 0 
C -2.5 0.663008 -2.236584 1.29895 -1.767767 1.767767 
C -1.29895 2.236584 -0.663008 2.5 0 2.5 
z
"/>
                </defs>
                <g clip-path="url(#pab1550d8ef)">
                    <use xlink:href="#C4_0_332be7e021" x="1525.5" y="505.245163" style="fill: #9467bd"/>
                </g>
                <g clip-path="url(#pab1550d8ef)">
                    <use xlink:href="#C4_0_332be7e021" x="1520.433856" y="503.933541" style="fill: #9467bd"/>
                </g>
                <g clip-path="url(#pab1550d8ef)">
                    <use xlink:href="#C4_0_332be7e021" x="1525.5" y="493.441848" style="fill: #9467bd"/>
                </g>
                <g clip-path="url(#pab1550d8ef)">
                    <use xlink:href="#C4_0_332be7e021" x="1520.991029" y="490.880725" style="fill: #9467bd"/>
                </g>
                <g clip-path="url(#pab1550d8ef)">
                    <use xlink:href="#C4_0_332be7e021" x="1525.5" y="483.15763" style="fill: #9467bd"/>
                </g>
                <g clip-path="url(#pab1550d8ef)">
                    <use xlink:href="#C4_0_332be7e021" x="1520.61696" y="481.321135" style="fill: #9467bd"/>
                </g>
                <g clip-path="url(#pab1550d8ef)">
                    <use xlink:href="#C4_0_332be7e021" x="1530.27052" y="481.07006" style="fill: #9467bd"/>
                </g>
                <g clip-path="url(#pab1550d8ef)">
                    <use xlink:href="#C4_0_332be7e021" x="1525.5" y="478.04098" style="fill: #9467bd"/>
                </g>
                <g clip-path="url(#pab1550d8ef)">
                    <use xlink:href="#C4_0_332be7e021" x="1517.364879" y="477.39593" style="fill: #9467bd"/>
                </g>
                <g clip-path="url(#pab1550d8ef)">
                    <use xlink:href="#C4_0_332be7e021" x="1525.5" y="467.503288" style="fill: #9467bd"/>
                </g>
                <g clip-path="url(#pab1550d8ef)">
                    <use xlink:href="#C4_0_332be7e021" x="1521.42525" y="464.350502" style="fill: #9467bd"/>
                </g>
                <g clip-path="url(#pab1550d8ef)">
                    <use xlink:href="#C4_0_332be7e021" x="1525.5" y="461.298156" style="fill: #9467bd"/>
                </g>
                <g clip-path="url(#pab1550d8ef)">
                    <use xlink:href="#C4_0_332be7e021" x="1525.5" y="445.898514" style="fill: #9467bd"/>
                </g>
                <g clip-path="url(#pab1550d8ef)">
                    <use xlink:href="#C4_0_332be7e021" x="1525.5" y="416.980739" style="fill: #9467bd"/>
                </g>
                <g clip-path="url(#pab1550d8ef)">
                    <use xlink:href="#C4_0_332be7e021" x="1525.5" y="391.505994" style="fill: #9467bd"/>
                </g>
                <g clip-path="url(#pab1550d8ef)">
                    <use xlink:href="#C4_0_332be7e021" x="1525.5" y="373.734193" style="fill: #9467bd"/>
                </g>
                <g clip-path="url(#pab1550d8ef)">
                    <use xlink:href="#C4_0_332be7e021" x="1525.5" y="286.95309" style="fill: #9467bd"/>
                </g>
            </g>
            <g id="PathCollection_11">
                <defs>
                    <path id="md8766720e6" d="M 0 2.5
C 0.663008 2.5 1.29895 2.236584 1.767767 1.767767 
C 2.236584 1.29895 2.5 0.663008 2.5 0 
C 2.5 -0.663008 2.236584 -1.29895 1.767767 -1.767767 
C 1.29895 -2.236584 0.663008 -2.5 0 -2.5 
C -0.663008 -2.5 -1.29895 -2.236584 -1.767767 -1.767767 
C -2.236584 -1.29895 -2.5 -0.663008 -2.5 0 
C -2.5 0.663008 -2.236584 1.29895 -1.767767 1.767767 
C -1.29895 2.236584 -0.663008 2.5 0 2.5 
z
"/>
                </defs>
                <g clip-path="url(#pab1550d8ef)">
                    <use xlink:href="#md8766720e6" x="1804.5" y="417.361032" style="fill: #8c564b"/>
                </g>
            </g>
            <g id="text_14">
                <!-- P values of Field Reproduction -->
                <g transform="translate(926.59875 80.4)scale(0.24 -0.24)">
                    <defs>
                        <path id="DejaVuSans-50" d="M 1259 4147
L 1259 2394 
L 2053 2394 
Q 2494 2394 2734 2622 
Q 2975 2850 2975 3272 
Q 2975 3691 2734 3919 
Q 2494 4147 2053 4147 
L 1259 4147 
z
M 628 4666 
L 2053 4666 
Q 2838 4666 3239 4311 
Q 3641 3956 3641 3272 
Q 3641 2581 3239 2228 
Q 2838 1875 2053 1875 
L 1259 1875 
L 1259 0 
L 628 0 
L 628 4666 
z
" transform="scale(0.015625)"/>
                        <path id="DejaVuSans-20" transform="scale(0.015625)"/>
                        <path id="DejaVuSans-76" d="M 191 3500
L 800 3500 
L 1894 563 
L 2988 3500 
L 3597 3500 
L 2284 0 
L 1503 0 
L 191 3500 
z
" transform="scale(0.015625)"/>
                        <path id="DejaVuSans-61" d="M 2194 1759
Q 1497 1759 1228 1600 
Q 959 1441 959 1056 
Q 959 750 1161 570 
Q 1363 391 1709 391 
Q 2188 391 2477 730 
Q 2766 1069 2766 1631 
L 2766 1759 
L 2194 1759 
z
M 3341 1997 
L 3341 0 
L 2766 0 
L 2766 531 
Q 2569 213 2275 61 
Q 1981 -91 1556 -91 
Q 1019 -91 701 211 
Q 384 513 384 1019 
Q 384 1609 779 1909 
Q 1175 2209 1959 2209 
L 2766 2209 
L 2766 2266 
Q 2766 2663 2505 2880 
Q 2244 3097 1772 3097 
Q 1472 3097 1187 3025 
Q 903 2953 641 2809 
L 641 3341 
Q 956 3463 1253 3523 
Q 1550 3584 1831 3584 
Q 2591 3584 2966 3190 
Q 3341 2797 3341 1997 
z
" transform="scale(0.015625)"/>
                        <path id="DejaVuSans-66" d="M 2375 4863
L 2375 4384 
L 1825 4384 
Q 1516 4384 1395 4259 
Q 1275 4134 1275 3809 
L 1275 3500 
L 2222 3500 
L 2222 3053 
L 1275 3053 
L 1275 0 
L 697 0 
L 697 3053 
L 147 3053 
L 147 3500 
L 697 3500 
L 697 3744 
Q 697 4328 969 4595 
Q 1241 4863 1831 4863 
L 2375 4863 
z
" transform="scale(0.015625)"/>
                        <path id="DejaVuSans-46" d="M 628 4666
L 3309 4666 
L 3309 4134 
L 1259 4134 
L 1259 2759 
L 3109 2759 
L 3109 2228 
L 1259 2228 
L 1259 0 
L 628 0 
L 628 4666 
z
" transform="scale(0.015625)"/>
                        <path id="DejaVuSans-69" d="M 603 3500
L 1178 3500 
L 1178 0 
L 603 0 
L 603 3500 
z
M 603 4863 
L 1178 4863 
L 1178 4134 
L 603 4134 
L 603 4863 
z
" transform="scale(0.015625)"/>
                        <path id="DejaVuSans-64" d="M 2906 2969
L 2906 4863 
L 3481 4863 
L 3481 0 
L 2906 0 
L 2906 525 
Q 2725 213 2448 61 
Q 2172 -91 1784 -91 
Q 1150 -91 751 415 
Q 353 922 353 1747 
Q 353 2572 751 3078 
Q 1150 3584 1784 3584 
Q 2172 3584 2448 3432 
Q 2725 3281 2906 2969 
z
M 947 1747 
Q 947 1113 1208 752 
Q 1469 391 1925 391 
Q 2381 391 2643 752 
Q 2906 1113 2906 1747 
Q 2906 2381 2643 2742 
Q 2381 3103 1925 3103 
Q 1469 3103 1208 2742 
Q 947 2381 947 1747 
z
" transform="scale(0.015625)"/>
                        <path id="DejaVuSans-52" d="M 2841 2188
Q 3044 2119 3236 1894 
Q 3428 1669 3622 1275 
L 4263 0 
L 3584 0 
L 2988 1197 
Q 2756 1666 2539 1819 
Q 2322 1972 1947 1972 
L 1259 1972 
L 1259 0 
L 628 0 
L 628 4666 
L 2053 4666 
Q 2853 4666 3247 4331 
Q 3641 3997 3641 3322 
Q 3641 2881 3436 2590 
Q 3231 2300 2841 2188 
z
M 1259 4147 
L 1259 2491 
L 2053 2491 
Q 2509 2491 2742 2702 
Q 2975 2913 2975 3322 
Q 2975 3731 2742 3939 
Q 2509 4147 2053 4147 
L 1259 4147 
z
" transform="scale(0.015625)"/>
                        <path id="DejaVuSans-70" d="M 1159 525
L 1159 -1331 
L 581 -1331 
L 581 3500 
L 1159 3500 
L 1159 2969 
Q 1341 3281 1617 3432 
Q 1894 3584 2278 3584 
Q 2916 3584 3314 3078 
Q 3713 2572 3713 1747 
Q 3713 922 3314 415 
Q 2916 -91 2278 -91 
Q 1894 -91 1617 61 
Q 1341 213 1159 525 
z
M 3116 1747 
Q 3116 2381 2855 2742 
Q 2594 3103 2138 3103 
Q 1681 3103 1420 2742 
Q 1159 2381 1159 1747 
Q 1159 1113 1420 752 
Q 1681 391 2138 391 
Q 2594 391 2855 752 
Q 3116 1113 3116 1747 
z
" transform="scale(0.015625)"/>
                        <path id="DejaVuSans-6e" d="M 3513 2113
L 3513 0 
L 2938 0 
L 2938 2094 
Q 2938 2591 2744 2837 
Q 2550 3084 2163 3084 
Q 1697 3084 1428 2787 
Q 1159 2491 1159 1978 
L 1159 0 
L 581 0 
L 581 3500 
L 1159 3500 
L 1159 2956 
Q 1366 3272 1645 3428 
Q 1925 3584 2291 3584 
Q 2894 3584 3203 3211 
Q 3513 2838 3513 2113 
z
" transform="scale(0.015625)"/>
                    </defs>
                    <use xlink:href="#DejaVuSans-50"/>
                    <use xlink:href="#DejaVuSans-20" x="60.302734"/>
                    <use xlink:href="#DejaVuSans-76" x="92.089844"/>
                    <use xlink:href="#DejaVuSans-61" x="151.269531"/>
                    <use xlink:href="#DejaVuSans-6c" x="212.548828"/>
                    <use xlink:href="#DejaVuSans-75" x="240.332031"/>
                    <use xlink:href="#DejaVuSans-65" x="303.710938"/>
                    <use xlink:href="#DejaVuSans-73" x="365.234375"/>
                    <use xlink:href="#DejaVuSans-20" x="417.333984"/>
                    <use xlink:href="#DejaVuSans-6f" x="449.121094"/>
                    <use xlink:href="#DejaVuSans-66" x="510.302734"/>
                    <use xlink:href="#DejaVuSans-20" x="545.507812"/>
                    <use xlink:href="#DejaVuSans-46" x="577.294922"/>
                    <use xlink:href="#DejaVuSans-69" x="627.564453"/>
                    <use xlink:href="#DejaVuSans-65" x="655.347656"/>
                    <use xlink:href="#DejaVuSans-6c" x="716.871094"/>
                    <use xlink:href="#DejaVuSans-64" x="744.654297"/>
                    <use xlink:href="#DejaVuSans-20" x="808.130859"/>
                    <use xlink:href="#DejaVuSans-52" x="839.917969"/>
                    <use xlink:href="#DejaVuSans-65" x="904.900391"/>
                    <use xlink:href="#DejaVuSans-70" x="966.423828"/>
                    <use xlink:href="#DejaVuSans-72" x="1029.900391"/>
                    <use xlink:href="#DejaVuSans-6f" x="1068.763672"/>
                    <use xlink:href="#DejaVuSans-64" x="1129.945312"/>
                    <use xlink:href="#DejaVuSans-75" x="1193.421875"/>
                    <use xlink:href="#DejaVuSans-63" x="1256.800781"/>
                    <use xlink:href="#DejaVuSans-74" x="1311.78125"/>
                    <use xlink:href="#DejaVuSans-69" x="1350.990234"/>
                    <use xlink:href="#DejaVuSans-6f" x="1378.773438"/>
                    <use xlink:href="#DejaVuSans-6e" x="1439.955078"/>
                </g>
            </g>
        </g>
    </g>
    <defs>
        <clipPath id="pab1550d8ef">
            <rect x="270" y="86.4" width="1674" height="554.4"/>
        </clipPath>
    </defs>
</svg>
