<?xml version="1.0" encoding="utf-8" standalone="no"?>
<!DOCTYPE svg PUBLIC "-//W3C//DTD SVG 1.1//EN"
        "http://www.w3.org/Graphics/SVG/1.1/DTD/svg11.dtd">
<svg xmlns:xlink="http://www.w3.org/1999/xlink" width="2160pt" height="720pt" viewBox="0 0 2160 720"
     xmlns="http://www.w3.org/2000/svg" version="1.1">
    <metadata>
        <rdf:RDF xmlns:dc="http://purl.org/dc/elements/1.1/" xmlns:cc="http://creativecommons.org/ns#"
                 xmlns:rdf="http://www.w3.org/1999/02/22-rdf-syntax-ns#">
            <cc:Work>
                <dc:type rdf:resource="http://purl.org/dc/dcmitype/StillImage"/>
                <dc:date>2022-06-10T17:50:39.695158</dc:date>
                <dc:format>image/svg+xml</dc:format>
                <dc:creator>
                    <cc:Agent>
                        <dc:title>Matplotlib v3.5.1, https://matplotlib.org/</dc:title>
                    </cc:Agent>
                </dc:creator>
            </cc:Work>
        </rdf:RDF>
    </metadata>
    <defs>
        <style type="text/css">*{stroke-linejoin: round; stroke-linecap: butt}</style>
    </defs>
    <g id="figure_1">
        <g id="patch_1">
            <path d="M 0 720
L 2160 720 
L 2160 0 
L 0 0 
z
" style="fill: #ffffff"/>
        </g>
        <g id="axes_1">
            <g id="patch_2">
                <path d="M 270 640.8
L 1944 640.8 
L 1944 86.4 
L 270 86.4 
z
" style="fill: #ffffff"/>
            </g>
            <g id="PolyCollection_1">
                <defs>
                    <path id="m6284538436" d="M 414.955437 -104.4
L 404.044563 -104.4 
L 402.196672 -109.490909 
L 399.881967 -114.581818 
L 397.038833 -119.672727 
L 393.615438 -124.763636 
L 389.575922 -129.854545 
L 384.906755 -134.945455 
L 379.622576 -140.036364 
L 373.770819 -145.127273 
L 367.434362 -150.218182 
L 360.731585 -155.309091 
L 353.813421 -160.4 
L 346.857288 -165.490909 
L 340.058164 -170.581818 
L 333.61744 -175.672727 
L 327.730496 -180.763636 
L 322.574174 -185.854545 
L 318.295384 -190.945455 
L 315.001983 -196.036364 
L 312.756805 -201.127273 
L 311.575363 -206.218182 
L 311.427273 -211.309091 
L 312.241056 -216.4 
L 313.911604 -221.490909 
L 316.309345 -226.581818 
L 319.290093 -231.672727 
L 322.704626 -236.763636 
L 326.407204 -241.854545 
L 330.262535 -246.945455 
L 334.150958 -252.036364 
L 337.971868 -257.127273 
L 341.645578 -262.218182 
L 345.113918 -267.309091 
L 348.339861 -272.4 
L 351.306427 -277.490909 
L 354.015012 -282.581818 
L 356.483217 -287.672727 
L 358.742197 -292.763636 
L 360.83353 -297.854545 
L 362.805663 -302.945455 
L 364.710039 -308.036364 
L 366.597114 -313.127273 
L 368.512522 -318.218182 
L 370.493699 -323.309091 
L 372.567237 -328.4 
L 374.747228 -333.490909 
L 377.034701 -338.581818 
L 379.418184 -343.672727 
L 381.875274 -348.763636 
L 384.374993 -353.854545 
L 386.880661 -358.945455 
L 389.352964 -364.036364 
L 391.752909 -369.127273 
L 394.044433 -374.218182 
L 396.196454 -379.309091 
L 398.18429 -384.4 
L 399.990402 -389.490909 
L 401.604502 -394.581818 
L 403.023135 -399.672727 
L 404.248832 -404.763636 
L 405.288996 -409.854545 
L 406.154628 -414.945455 
L 406.859034 -420.036364 
L 407.416602 -425.127273 
L 407.841745 -430.218182 
L 408.148052 -435.309091 
L 408.347706 -440.4 
L 408.451174 -445.490909 
L 408.467175 -450.581818 
L 408.402907 -455.672727 
L 408.264498 -460.763636 
L 408.057623 -465.854545 
L 407.788219 -470.945455 
L 407.463202 -476.036364 
L 407.091122 -481.127273 
L 406.682625 -486.218182 
L 406.250681 -491.309091 
L 405.810496 -496.4 
L 405.379091 -501.490909 
L 404.97456 -506.581818 
L 404.615068 -511.672727 
L 404.317673 -516.763636 
L 404.097109 -521.854545 
L 403.96466 -526.945455 
L 403.927254 -532.036364 
L 403.986904 -537.127273 
L 404.140551 -542.218182 
L 404.380336 -547.309091 
L 404.694279 -552.4 
L 405.067273 -557.490909 
L 405.482291 -562.581818 
L 405.921666 -567.672727 
L 406.368315 -572.763636 
L 406.806791 -577.854545 
L 407.224081 -582.945455 
L 407.610102 -588.036364 
L 407.957893 -593.127273 
L 408.263525 -598.218182 
L 408.525793 -603.309091 
L 408.745757 -608.4 
L 410.254243 -608.4 
L 410.254243 -608.4 
L 410.474207 -603.309091 
L 410.736475 -598.218182 
L 411.042107 -593.127273 
L 411.389898 -588.036364 
L 411.775919 -582.945455 
L 412.193209 -577.854545 
L 412.631685 -572.763636 
L 413.078334 -567.672727 
L 413.517709 -562.581818 
L 413.932727 -557.490909 
L 414.305721 -552.4 
L 414.619664 -547.309091 
L 414.859449 -542.218182 
L 415.013096 -537.127273 
L 415.072746 -532.036364 
L 415.03534 -526.945455 
L 414.902891 -521.854545 
L 414.682327 -516.763636 
L 414.384932 -511.672727 
L 414.02544 -506.581818 
L 413.620909 -501.490909 
L 413.189504 -496.4 
L 412.749319 -491.309091 
L 412.317375 -486.218182 
L 411.908878 -481.127273 
L 411.536798 -476.036364 
L 411.211781 -470.945455 
L 410.942377 -465.854545 
L 410.735502 -460.763636 
L 410.597093 -455.672727 
L 410.532825 -450.581818 
L 410.548826 -445.490909 
L 410.652294 -440.4 
L 410.851948 -435.309091 
L 411.158255 -430.218182 
L 411.583398 -425.127273 
L 412.140966 -420.036364 
L 412.845372 -414.945455 
L 413.711004 -409.854545 
L 414.751168 -404.763636 
L 415.976865 -399.672727 
L 417.395498 -394.581818 
L 419.009598 -389.490909 
L 420.81571 -384.4 
L 422.803546 -379.309091 
L 424.955567 -374.218182 
L 427.247091 -369.127273 
L 429.647036 -364.036364 
L 432.119339 -358.945455 
L 434.625007 -353.854545 
L 437.124726 -348.763636 
L 439.581816 -343.672727 
L 441.965299 -338.581818 
L 444.252772 -333.490909 
L 446.432763 -328.4 
L 448.506301 -323.309091 
L 450.487478 -318.218182 
L 452.402886 -313.127273 
L 454.289961 -308.036364 
L 456.194337 -302.945455 
L 458.16647 -297.854545 
L 460.257803 -292.763636 
L 462.516783 -287.672727 
L 464.984988 -282.581818 
L 467.693573 -277.490909 
L 470.660139 -272.4 
L 473.886082 -267.309091 
L 477.354422 -262.218182 
L 481.028132 -257.127273 
L 484.849042 -252.036364 
L 488.737465 -246.945455 
L 492.592796 -241.854545 
L 496.295374 -236.763636 
L 499.709907 -231.672727 
L 502.690655 -226.581818 
L 505.088396 -221.490909 
L 506.758944 -216.4 
L 507.572727 -211.309091 
L 507.424637 -206.218182 
L 506.243195 -201.127273 
L 503.998017 -196.036364 
L 500.704616 -190.945455 
L 496.425826 -185.854545 
L 491.269504 -180.763636 
L 485.38256 -175.672727 
L 478.941836 -170.581818 
L 472.142712 -165.490909 
L 465.186579 -160.4 
L 458.268415 -155.309091 
L 451.565638 -150.218182 
L 445.229181 -145.127273 
L 439.377424 -140.036364 
L 434.093245 -134.945455 
L 429.424078 -129.854545 
L 425.384562 -124.763636 
L 421.961167 -119.672727 
L 419.118033 -114.581818 
L 416.803328 -109.490909 
L 414.955437 -104.4 
z
" style="stroke: #595959; stroke-width: 1.5"/>
                </defs>
                <g clip-path="url(#pe4f46906ca)">
                    <use xlink:href="#m6284538436" x="0" y="720"
                         style="fill: #72b6a1; stroke: #595959; stroke-width: 1.5"/>
                </g>
            </g>
            <g id="PolyCollection_2">
                <defs>
                    <path id="md8372a1252" d="M 693.107981 -127.94617
L 683.892019 -127.94617 
L 682.934065 -130.688574 
L 681.827811 -133.430978 
L 680.562111 -136.173382 
L 679.12757 -138.915787 
L 677.51716 -141.658191 
L 675.726859 -144.400595 
L 673.75626 -147.143 
L 671.609138 -149.885404 
L 669.293924 -152.627808 
L 666.824053 -155.370212 
L 664.218148 -158.112617 
L 661.500015 -160.855021 
L 658.698412 -163.597425 
L 655.846592 -166.33983 
L 652.981601 -169.082234 
L 650.14335 -171.824638 
L 647.373487 -174.567042 
L 644.714095 -177.309447 
L 642.206278 -180.051851 
L 639.888688 -182.794255 
L 637.796077 -185.53666 
L 635.957921 -188.279064 
L 634.397218 -191.021468 
L 633.129507 -193.763872 
L 632.162178 -196.506277 
L 631.494111 -199.248681 
L 631.115673 -201.991085 
L 631.009091 -204.73349 
L 631.149173 -207.475894 
L 631.504357 -210.218298 
L 632.03804 -212.960702 
L 632.710107 -215.703107 
L 633.478604 -218.445511 
L 634.301455 -221.187915 
L 635.138135 -223.93032 
L 635.951241 -226.672724 
L 636.707848 -229.415128 
L 637.380627 -232.157532 
L 637.948645 -234.899937 
L 638.397842 -237.642341 
L 638.721163 -240.384745 
L 638.918354 -243.12715 
L 638.995457 -245.869554 
L 638.964037 -248.611958 
L 638.840199 -251.354362 
L 638.643459 -254.096767 
L 638.395536 -256.839171 
L 638.119135 -259.581575 
L 637.836784 -262.32398 
L 637.569787 -265.066384 
L 637.337338 -267.808788 
L 637.155839 -270.551192 
L 637.038443 -273.293597 
L 636.994825 -276.036001 
L 637.031192 -278.778405 
L 637.150495 -281.52081 
L 637.35283 -284.263214 
L 637.635979 -287.005618 
L 637.996043 -289.748022 
L 638.428138 -292.490427 
L 638.927066 -295.232831 
L 639.487958 -297.975235 
L 640.106812 -300.71764 
L 640.780907 -303.460044 
L 641.509071 -306.202448 
L 642.291781 -308.944852 
L 643.131102 -311.687257 
L 644.030466 -314.429661 
L 644.994322 -317.172065 
L 646.027678 -319.91447 
L 647.13557 -322.656874 
L 648.322506 -325.399278 
L 649.591916 -328.141682 
L 650.945651 -330.884087 
L 652.383562 -333.626491 
L 653.9032 -336.368895 
L 655.499627 -339.1113 
L 657.165389 -341.853704 
L 658.89061 -344.596108 
L 660.66323 -347.338512 
L 662.469359 -350.080917 
L 664.293715 -352.823321 
L 666.120135 -355.565725 
L 667.932118 -358.30813 
L 669.713369 -361.050534 
L 671.448322 -363.792938 
L 673.12261 -366.535342 
L 674.723463 -369.277747 
L 676.24002 -372.020151 
L 677.663543 -374.762555 
L 678.987536 -377.50496 
L 680.207771 -380.247364 
L 681.322215 -382.989768 
L 682.330894 -385.732172 
L 683.235692 -388.474577 
L 684.040101 -391.216981 
L 684.748947 -393.959385 
L 685.368101 -396.70179 
L 685.904193 -399.444194 
L 691.095807 -399.444194 
L 691.095807 -399.444194 
L 691.631899 -396.70179 
L 692.251053 -393.959385 
L 692.959899 -391.216981 
L 693.764308 -388.474577 
L 694.669106 -385.732172 
L 695.677785 -382.989768 
L 696.792229 -380.247364 
L 698.012464 -377.50496 
L 699.336457 -374.762555 
L 700.75998 -372.020151 
L 702.276537 -369.277747 
L 703.87739 -366.535342 
L 705.551678 -363.792938 
L 707.286631 -361.050534 
L 709.067882 -358.30813 
L 710.879865 -355.565725 
L 712.706285 -352.823321 
L 714.530641 -350.080917 
L 716.33677 -347.338512 
L 718.10939 -344.596108 
L 719.834611 -341.853704 
L 721.500373 -339.1113 
L 723.0968 -336.368895 
L 724.616438 -333.626491 
L 726.054349 -330.884087 
L 727.408084 -328.141682 
L 728.677494 -325.399278 
L 729.86443 -322.656874 
L 730.972322 -319.91447 
L 732.005678 -317.172065 
L 732.969534 -314.429661 
L 733.868898 -311.687257 
L 734.708219 -308.944852 
L 735.490929 -306.202448 
L 736.219093 -303.460044 
L 736.893188 -300.71764 
L 737.512042 -297.975235 
L 738.072934 -295.232831 
L 738.571862 -292.490427 
L 739.003957 -289.748022 
L 739.364021 -287.005618 
L 739.64717 -284.263214 
L 739.849505 -281.52081 
L 739.968808 -278.778405 
L 740.005175 -276.036001 
L 739.961557 -273.293597 
L 739.844161 -270.551192 
L 739.662662 -267.808788 
L 739.430213 -265.066384 
L 739.163216 -262.32398 
L 738.880865 -259.581575 
L 738.604464 -256.839171 
L 738.356541 -254.096767 
L 738.159801 -251.354362 
L 738.035963 -248.611958 
L 738.004543 -245.869554 
L 738.081646 -243.12715 
L 738.278837 -240.384745 
L 738.602158 -237.642341 
L 739.051355 -234.899937 
L 739.619373 -232.157532 
L 740.292152 -229.415128 
L 741.048759 -226.672724 
L 741.861865 -223.93032 
L 742.698545 -221.187915 
L 743.521396 -218.445511 
L 744.289893 -215.703107 
L 744.96196 -212.960702 
L 745.495643 -210.218298 
L 745.850827 -207.475894 
L 745.990909 -204.73349 
L 745.884327 -201.991085 
L 745.505889 -199.248681 
L 744.837822 -196.506277 
L 743.870493 -193.763872 
L 742.602782 -191.021468 
L 741.042079 -188.279064 
L 739.203923 -185.53666 
L 737.111312 -182.794255 
L 734.793722 -180.051851 
L 732.285905 -177.309447 
L 729.626513 -174.567042 
L 726.85665 -171.824638 
L 724.018399 -169.082234 
L 721.153408 -166.33983 
L 718.301588 -163.597425 
L 715.499985 -160.855021 
L 712.781852 -158.112617 
L 710.175947 -155.370212 
L 707.706076 -152.627808 
L 705.390862 -149.885404 
L 703.24374 -147.143 
L 701.273141 -144.400595 
L 699.48284 -141.658191 
L 697.87243 -138.915787 
L 696.437889 -136.173382 
L 695.172189 -133.430978 
L 694.065935 -130.688574 
L 693.107981 -127.94617 
z
" style="stroke: #595959; stroke-width: 1.5"/>
                </defs>
                <g clip-path="url(#pe4f46906ca)">
                    <use xlink:href="#md8372a1252" x="0" y="720"
                         style="fill: #e99675; stroke: #595959; stroke-width: 1.5"/>
                </g>
            </g>
            <g id="PolyCollection_3">
                <defs>
                    <path id="mda0128ad4e" d="M 969.403269 -137.325771
L 965.596731 -137.325771 
L 965.259547 -139.429277 
L 964.877939 -141.532782 
L 964.449134 -143.636288 
L 963.970774 -145.739794 
L 963.44104 -147.8433 
L 962.858778 -149.946806 
L 962.223618 -152.050311 
L 961.536089 -154.153817 
L 960.79772 -156.257323 
L 960.011117 -158.360829 
L 959.180025 -160.464334 
L 958.309344 -162.56784 
L 957.405126 -164.671346 
L 956.474521 -166.774852 
L 955.525689 -168.878358 
L 954.567667 -170.981863 
L 953.610194 -173.085369 
L 952.663502 -175.188875 
L 951.73807 -177.292381 
L 950.844355 -179.395887 
L 949.992504 -181.499392 
L 949.192058 -183.602898 
L 948.451663 -185.706404 
L 947.778789 -187.80991 
L 947.179486 -189.913416 
L 946.658171 -192.016921 
L 946.217464 -194.120427 
L 945.858083 -196.223933 
L 945.578801 -198.327439 
L 945.376468 -200.430945 
L 945.246104 -202.53445 
L 945.181052 -204.637956 
L 945.1732 -206.741462 
L 945.213248 -208.844968 
L 945.291019 -210.948473 
L 945.395812 -213.051979 
L 945.516755 -215.155485 
L 945.643175 -217.258991 
L 945.764956 -219.362497 
L 945.872866 -221.466002 
L 945.95885 -223.569508 
L 946.016284 -225.673014 
L 946.040162 -227.77652 
L 946.027223 -229.880026 
L 945.976025 -231.983531 
L 945.886935 -234.087037 
L 945.762078 -236.190543 
L 945.60521 -238.294049 
L 945.421552 -240.397555 
L 945.217579 -242.50106 
L 945.000779 -244.604566 
L 944.77939 -246.708072 
L 944.562124 -248.811578 
L 944.357898 -250.915083 
L 944.17557 -253.018589 
L 944.023691 -255.122095 
L 943.910288 -257.225601 
L 943.842671 -259.329107 
L 943.827273 -261.432612 
L 943.869532 -263.536118 
L 943.9738 -265.639624 
L 944.143291 -267.74313 
L 944.380057 -269.846636 
L 944.684997 -271.950141 
L 945.05789 -274.053647 
L 945.497448 -276.157153 
L 946.001386 -278.260659 
L 946.566511 -280.364165 
L 947.188812 -282.46767 
L 947.863571 -284.571176 
L 948.585462 -286.674682 
L 949.348668 -288.778188 
L 950.146987 -290.881694 
L 950.973944 -292.985199 
L 951.822901 -295.088705 
L 952.687157 -297.192211 
L 953.560055 -299.295717 
L 954.435072 -301.399222 
L 955.30591 -303.502728 
L 956.166583 -305.606234 
L 957.011485 -307.70974 
L 957.83546 -309.813246 
L 958.633857 -311.916751 
L 959.402572 -314.020257 
L 960.138082 -316.123763 
L 960.837469 -318.227269 
L 961.498425 -320.330775 
L 962.119249 -322.43428 
L 962.698835 -324.537786 
L 963.236644 -326.641292 
L 963.73267 -328.744798 
L 964.187397 -330.848304 
L 964.601747 -332.951809 
L 964.977027 -335.055315 
L 965.314868 -337.158821 
L 965.617168 -339.262327 
L 965.886032 -341.365832 
L 966.12371 -343.469338 
L 966.332548 -345.572844 
L 968.667452 -345.572844 
L 968.667452 -345.572844 
L 968.87629 -343.469338 
L 969.113968 -341.365832 
L 969.382832 -339.262327 
L 969.685132 -337.158821 
L 970.022973 -335.055315 
L 970.398253 -332.951809 
L 970.812603 -330.848304 
L 971.26733 -328.744798 
L 971.763356 -326.641292 
L 972.301165 -324.537786 
L 972.880751 -322.43428 
L 973.501575 -320.330775 
L 974.162531 -318.227269 
L 974.861918 -316.123763 
L 975.597428 -314.020257 
L 976.366143 -311.916751 
L 977.16454 -309.813246 
L 977.988515 -307.70974 
L 978.833417 -305.606234 
L 979.69409 -303.502728 
L 980.564928 -301.399222 
L 981.439945 -299.295717 
L 982.312843 -297.192211 
L 983.177099 -295.088705 
L 984.026056 -292.985199 
L 984.853013 -290.881694 
L 985.651332 -288.778188 
L 986.414538 -286.674682 
L 987.136429 -284.571176 
L 987.811188 -282.46767 
L 988.433489 -280.364165 
L 988.998614 -278.260659 
L 989.502552 -276.157153 
L 989.94211 -274.053647 
L 990.315003 -271.950141 
L 990.619943 -269.846636 
L 990.856709 -267.74313 
L 991.0262 -265.639624 
L 991.130468 -263.536118 
L 991.172727 -261.432612 
L 991.157329 -259.329107 
L 991.089712 -257.225601 
L 990.976309 -255.122095 
L 990.82443 -253.018589 
L 990.642102 -250.915083 
L 990.437876 -248.811578 
L 990.22061 -246.708072 
L 989.999221 -244.604566 
L 989.782421 -242.50106 
L 989.578448 -240.397555 
L 989.39479 -238.294049 
L 989.237922 -236.190543 
L 989.113065 -234.087037 
L 989.023975 -231.983531 
L 988.972777 -229.880026 
L 988.959838 -227.77652 
L 988.983716 -225.673014 
L 989.04115 -223.569508 
L 989.127134 -221.466002 
L 989.235044 -219.362497 
L 989.356825 -217.258991 
L 989.483245 -215.155485 
L 989.604188 -213.051979 
L 989.708981 -210.948473 
L 989.786752 -208.844968 
L 989.8268 -206.741462 
L 989.818948 -204.637956 
L 989.753896 -202.53445 
L 989.623532 -200.430945 
L 989.421199 -198.327439 
L 989.141917 -196.223933 
L 988.782536 -194.120427 
L 988.341829 -192.016921 
L 987.820514 -189.913416 
L 987.221211 -187.80991 
L 986.548337 -185.706404 
L 985.807942 -183.602898 
L 985.007496 -181.499392 
L 984.155645 -179.395887 
L 983.26193 -177.292381 
L 982.336498 -175.188875 
L 981.389806 -173.085369 
L 980.432333 -170.981863 
L 979.474311 -168.878358 
L 978.525479 -166.774852 
L 977.594874 -164.671346 
L 976.690656 -162.56784 
L 975.819975 -160.464334 
L 974.988883 -158.360829 
L 974.20228 -156.257323 
L 973.463911 -154.153817 
L 972.776382 -152.050311 
L 972.141222 -149.946806 
L 971.55896 -147.8433 
L 971.029226 -145.739794 
L 970.550866 -143.636288 
L 970.122061 -141.532782 
L 969.740453 -139.429277 
L 969.403269 -137.325771 
z
" style="stroke: #595959; stroke-width: 1.5"/>
                </defs>
                <g clip-path="url(#pe4f46906ca)">
                    <use xlink:href="#mda0128ad4e" x="0" y="720"
                         style="fill: #95a3c3; stroke: #595959; stroke-width: 1.5"/>
                </g>
            </g>
            <g id="PolyCollection_4">
                <defs>
                    <path id="m11c61cabbf" d="M 1248.621194 -139.500406
L 1244.378806 -139.500406 
L 1243.943872 -141.287444 
L 1243.441457 -143.074481 
L 1242.865879 -144.861519 
L 1242.211933 -146.648556 
L 1241.475093 -148.435594 
L 1240.651725 -150.222631 
L 1239.739289 -152.009669 
L 1238.736533 -153.796706 
L 1237.64366 -155.583744 
L 1236.462456 -157.370781 
L 1235.196385 -159.157819 
L 1233.850628 -160.944856 
L 1232.432064 -162.731894 
L 1230.949205 -164.518931 
L 1229.412067 -166.305968 
L 1227.831985 -168.093006 
L 1226.221397 -169.880043 
L 1224.593576 -171.667081 
L 1222.962349 -173.454118 
L 1221.341799 -175.241156 
L 1219.745972 -177.028193 
L 1218.188596 -178.815231 
L 1216.682828 -180.602268 
L 1215.241037 -182.389306 
L 1213.874627 -184.176343 
L 1212.593908 -185.963381 
L 1211.408009 -187.750418 
L 1210.324837 -189.537455 
L 1209.351071 -191.324493 
L 1208.492186 -193.11153 
L 1207.752495 -194.898568 
L 1207.135201 -196.685605 
L 1206.642458 -198.472643 
L 1206.275414 -200.25968 
L 1206.034245 -202.046718 
L 1205.918182 -203.833755 
L 1205.925502 -205.620793 
L 1206.053521 -207.40783 
L 1206.298558 -209.194868 
L 1206.655902 -210.981905 
L 1207.119776 -212.768943 
L 1207.683307 -214.55598 
L 1208.338512 -216.343017 
L 1209.076312 -218.130055 
L 1209.886576 -219.917092 
L 1210.758202 -221.70413 
L 1211.67924 -223.491167 
L 1212.637061 -225.278205 
L 1213.618565 -227.065242 
L 1214.610437 -228.85228 
L 1215.599424 -230.639317 
L 1216.572655 -232.426355 
L 1217.517967 -234.213392 
L 1218.424233 -236.00043 
L 1219.281691 -237.787467 
L 1220.082243 -239.574505 
L 1220.819714 -241.361542 
L 1221.490068 -243.148579 
L 1222.091554 -244.935617 
L 1222.624781 -246.722654 
L 1223.092713 -248.509692 
L 1223.50058 -250.296729 
L 1223.8557 -252.083767 
L 1224.16723 -253.870804 
L 1224.445833 -255.657842 
L 1224.703291 -257.444879 
L 1224.952071 -259.231917 
L 1225.204862 -261.018954 
L 1225.474101 -262.805992 
L 1225.771512 -264.593029 
L 1226.107676 -266.380066 
L 1226.491646 -268.167104 
L 1226.930638 -269.954141 
L 1227.429782 -271.741179 
L 1227.991982 -273.528216 
L 1228.617847 -275.315254 
L 1229.305732 -277.102291 
L 1230.051854 -278.889329 
L 1230.850492 -280.676366 
L 1231.694258 -282.463404 
L 1232.574414 -284.250441 
L 1233.481229 -286.037479 
L 1234.404355 -287.824516 
L 1235.333201 -289.611554 
L 1236.257297 -291.398591 
L 1237.166621 -293.185628 
L 1238.051889 -294.972666 
L 1238.904794 -296.759703 
L 1239.718188 -298.546741 
L 1240.486199 -300.333778 
L 1241.204302 -302.120816 
L 1241.869317 -303.907853 
L 1242.479375 -305.694891 
L 1243.033831 -307.481928 
L 1243.533144 -309.268966 
L 1243.978736 -311.056003 
L 1244.372835 -312.843041 
L 1244.718312 -314.630078 
L 1245.018511 -316.417115 
L 1247.981489 -316.417115 
L 1247.981489 -316.417115 
L 1248.281688 -314.630078 
L 1248.627165 -312.843041 
L 1249.021264 -311.056003 
L 1249.466856 -309.268966 
L 1249.966169 -307.481928 
L 1250.520625 -305.694891 
L 1251.130683 -303.907853 
L 1251.795698 -302.120816 
L 1252.513801 -300.333778 
L 1253.281812 -298.546741 
L 1254.095206 -296.759703 
L 1254.948111 -294.972666 
L 1255.833379 -293.185628 
L 1256.742703 -291.398591 
L 1257.666799 -289.611554 
L 1258.595645 -287.824516 
L 1259.518771 -286.037479 
L 1260.425586 -284.250441 
L 1261.305742 -282.463404 
L 1262.149508 -280.676366 
L 1262.948146 -278.889329 
L 1263.694268 -277.102291 
L 1264.382153 -275.315254 
L 1265.008018 -273.528216 
L 1265.570218 -271.741179 
L 1266.069362 -269.954141 
L 1266.508354 -268.167104 
L 1266.892324 -266.380066 
L 1267.228488 -264.593029 
L 1267.525899 -262.805992 
L 1267.795138 -261.018954 
L 1268.047929 -259.231917 
L 1268.296709 -257.444879 
L 1268.554167 -255.657842 
L 1268.83277 -253.870804 
L 1269.1443 -252.083767 
L 1269.49942 -250.296729 
L 1269.907287 -248.509692 
L 1270.375219 -246.722654 
L 1270.908446 -244.935617 
L 1271.509932 -243.148579 
L 1272.180286 -241.361542 
L 1272.917757 -239.574505 
L 1273.718309 -237.787467 
L 1274.575767 -236.00043 
L 1275.482033 -234.213392 
L 1276.427345 -232.426355 
L 1277.400576 -230.639317 
L 1278.389563 -228.85228 
L 1279.381435 -227.065242 
L 1280.362939 -225.278205 
L 1281.32076 -223.491167 
L 1282.241798 -221.70413 
L 1283.113424 -219.917092 
L 1283.923688 -218.130055 
L 1284.661488 -216.343017 
L 1285.316693 -214.55598 
L 1285.880224 -212.768943 
L 1286.344098 -210.981905 
L 1286.701442 -209.194868 
L 1286.946479 -207.40783 
L 1287.074498 -205.620793 
L 1287.081818 -203.833755 
L 1286.965755 -202.046718 
L 1286.724586 -200.25968 
L 1286.357542 -198.472643 
L 1285.864799 -196.685605 
L 1285.247505 -194.898568 
L 1284.507814 -193.11153 
L 1283.648929 -191.324493 
L 1282.675163 -189.537455 
L 1281.591991 -187.750418 
L 1280.406092 -185.963381 
L 1279.125373 -184.176343 
L 1277.758963 -182.389306 
L 1276.317172 -180.602268 
L 1274.811404 -178.815231 
L 1273.254028 -177.028193 
L 1271.658201 -175.241156 
L 1270.037651 -173.454118 
L 1268.406424 -171.667081 
L 1266.778603 -169.880043 
L 1265.168015 -168.093006 
L 1263.587933 -166.305968 
L 1262.050795 -164.518931 
L 1260.567936 -162.731894 
L 1259.149372 -160.944856 
L 1257.803615 -159.157819 
L 1256.537544 -157.370781 
L 1255.35634 -155.583744 
L 1254.263467 -153.796706 
L 1253.260711 -152.009669 
L 1252.348275 -150.222631 
L 1251.524907 -148.435594 
L 1250.788067 -146.648556 
L 1250.134121 -144.861519 
L 1249.558543 -143.074481 
L 1249.056128 -141.287444 
L 1248.621194 -139.500406 
z
" style="stroke: #595959; stroke-width: 1.5"/>
                </defs>
                <g clip-path="url(#pe4f46906ca)">
                    <use xlink:href="#m11c61cabbf" x="0" y="720"
                         style="fill: #db96c0; stroke: #595959; stroke-width: 1.5"/>
                </g>
            </g>
            <g id="PolyCollection_5">
                <defs>
                    <path id="mc870d694c7" d="M 1531.073933 -115.051083
L 1519.926067 -115.051083 
L 1517.80175 -119.816244 
L 1515.073905 -124.581404 
L 1511.651339 -129.346565 
L 1507.456823 -134.111725 
L 1502.43748 -138.876886 
L 1496.575493 -143.642046 
L 1489.897845 -148.407207 
L 1482.483674 -153.172367 
L 1474.467841 -157.937528 
L 1466.039588 -162.702688 
L 1457.435687 -167.467849 
L 1448.928177 -172.233009 
L 1440.80754 -176.99817 
L 1433.362905 -181.76333 
L 1426.861401 -186.528491 
L 1421.528958 -191.293652 
L 1417.534793 -196.058812 
L 1414.981253 -200.823973 
L 1413.9 -205.589133 
L 1414.254589 -210.354294 
L 1415.948682 -215.119454 
L 1418.838438 -219.884615 
L 1422.74724 -224.649775 
L 1427.480867 -229.414936 
L 1432.841455 -234.180096 
L 1438.639037 -238.945257 
L 1444.700013 -243.710417 
L 1450.872436 -248.475578 
L 1457.028423 -253.240738 
L 1463.064248 -258.005899 
L 1468.89881 -262.771059 
L 1474.471095 -267.53622 
L 1479.737158 -272.30138 
L 1484.667014 -277.066541 
L 1489.241696 -281.831701 
L 1493.450642 -286.596862 
L 1497.289549 -291.362022 
L 1500.758764 -296.127183 
L 1503.862266 -300.892343 
L 1506.607242 -305.657504 
L 1509.004193 -310.422664 
L 1511.067418 -315.187825 
L 1512.815674 -319.952985 
L 1514.272738 -324.718146 
L 1515.467633 -329.483306 
L 1516.434303 -334.248467 
L 1517.21063 -339.013627 
L 1517.836806 -343.778788 
L 1518.353211 -348.543948 
L 1518.798043 -353.309109 
L 1519.205001 -358.07427 
L 1519.60135 -362.83943 
L 1520.006628 -367.604591 
L 1520.43214 -372.369751 
L 1520.881303 -377.134912 
L 1521.350724 -381.900072 
L 1521.831841 -386.665233 
L 1522.312851 -391.430393 
L 1522.780663 -396.195554 
L 1523.222619 -400.960714 
L 1523.627807 -405.725875 
L 1523.987866 -410.491035 
L 1524.297273 -415.256196 
L 1524.553167 -420.021356 
L 1524.754833 -424.786517 
L 1524.902981 -429.551677 
L 1524.998979 -434.316838 
L 1525.044155 -439.081998 
L 1525.039302 -443.847159 
L 1524.984425 -448.612319 
L 1524.878805 -453.37748 
L 1524.721348 -458.14264 
L 1524.511202 -462.907801 
L 1524.248563 -467.672961 
L 1523.935557 -472.438122 
L 1523.577085 -477.203282 
L 1523.181468 -481.968443 
L 1522.760765 -486.733603 
L 1522.330652 -491.498764 
L 1521.909797 -496.263924 
L 1521.518741 -501.029085 
L 1521.178377 -505.794245 
L 1520.908176 -510.559406 
L 1520.724389 -515.324566 
L 1520.638446 -520.089727 
L 1520.6558 -524.854888 
L 1520.775355 -529.620048 
L 1520.989589 -534.385209 
L 1521.285339 -539.150369 
L 1521.645139 -543.91553 
L 1522.048926 -548.68069 
L 1522.475878 -553.445851 
L 1522.906156 -558.211011 
L 1523.322351 -562.976172 
L 1523.710502 -567.741332 
L 1524.060624 -572.506493 
L 1524.366774 -577.271653 
L 1524.62671 -582.036814 
L 1524.841282 -586.801974 
L 1526.158718 -586.801974 
L 1526.158718 -586.801974 
L 1526.37329 -582.036814 
L 1526.633226 -577.271653 
L 1526.939376 -572.506493 
L 1527.289498 -567.741332 
L 1527.677649 -562.976172 
L 1528.093844 -558.211011 
L 1528.524122 -553.445851 
L 1528.951074 -548.68069 
L 1529.354861 -543.91553 
L 1529.714661 -539.150369 
L 1530.010411 -534.385209 
L 1530.224645 -529.620048 
L 1530.3442 -524.854888 
L 1530.361554 -520.089727 
L 1530.275611 -515.324566 
L 1530.091824 -510.559406 
L 1529.821623 -505.794245 
L 1529.481259 -501.029085 
L 1529.090203 -496.263924 
L 1528.669348 -491.498764 
L 1528.239235 -486.733603 
L 1527.818532 -481.968443 
L 1527.422915 -477.203282 
L 1527.064443 -472.438122 
L 1526.751437 -467.672961 
L 1526.488798 -462.907801 
L 1526.278652 -458.14264 
L 1526.121195 -453.37748 
L 1526.015575 -448.612319 
L 1525.960698 -443.847159 
L 1525.955845 -439.081998 
L 1526.001021 -434.316838 
L 1526.097019 -429.551677 
L 1526.245167 -424.786517 
L 1526.446833 -420.021356 
L 1526.702727 -415.256196 
L 1527.012134 -410.491035 
L 1527.372193 -405.725875 
L 1527.777381 -400.960714 
L 1528.219337 -396.195554 
L 1528.687149 -391.430393 
L 1529.168159 -386.665233 
L 1529.649276 -381.900072 
L 1530.118697 -377.134912 
L 1530.56786 -372.369751 
L 1530.993372 -367.604591 
L 1531.39865 -362.83943 
L 1531.794999 -358.07427 
L 1532.201957 -353.309109 
L 1532.646789 -348.543948 
L 1533.163194 -343.778788 
L 1533.78937 -339.013627 
L 1534.565697 -334.248467 
L 1535.532367 -329.483306 
L 1536.727262 -324.718146 
L 1538.184326 -319.952985 
L 1539.932582 -315.187825 
L 1541.995807 -310.422664 
L 1544.392758 -305.657504 
L 1547.137734 -300.892343 
L 1550.241236 -296.127183 
L 1553.710451 -291.362022 
L 1557.549358 -286.596862 
L 1561.758304 -281.831701 
L 1566.332986 -277.066541 
L 1571.262842 -272.30138 
L 1576.528905 -267.53622 
L 1582.10119 -262.771059 
L 1587.935752 -258.005899 
L 1593.971577 -253.240738 
L 1600.127564 -248.475578 
L 1606.299987 -243.710417 
L 1612.360963 -238.945257 
L 1618.158545 -234.180096 
L 1623.519133 -229.414936 
L 1628.25276 -224.649775 
L 1632.161562 -219.884615 
L 1635.051318 -215.119454 
L 1636.745411 -210.354294 
L 1637.1 -205.589133 
L 1636.018747 -200.823973 
L 1633.465207 -196.058812 
L 1629.471042 -191.293652 
L 1624.138599 -186.528491 
L 1617.637095 -181.76333 
L 1610.19246 -176.99817 
L 1602.071823 -172.233009 
L 1593.564313 -167.467849 
L 1584.960412 -162.702688 
L 1576.532159 -157.937528 
L 1568.516326 -153.172367 
L 1561.102155 -148.407207 
L 1554.424507 -143.642046 
L 1548.56252 -138.876886 
L 1543.543177 -134.111725 
L 1539.348661 -129.346565 
L 1535.926095 -124.581404 
L 1533.19825 -119.816244 
L 1531.073933 -115.051083 
z
" style="stroke: #595959; stroke-width: 1.5"/>
                </defs>
                <g clip-path="url(#pe4f46906ca)">
                    <use xlink:href="#mc870d694c7" x="0" y="720"
                         style="fill: #a2c865; stroke: #595959; stroke-width: 1.5"/>
                </g>
            </g>
            <g id="PolyCollection_6">
                <defs>
                    <path id="mfa8e4b6467" d="M 1805.670816 -135.266082
L 1803.329184 -135.266082 
L 1803.070887 -137.605775 
L 1802.767913 -139.945468 
L 1802.415359 -142.28516 
L 1802.008357 -144.624853 
L 1801.542208 -146.964546 
L 1801.012521 -149.304238 
L 1800.415379 -151.643931 
L 1799.747497 -153.983624 
L 1799.006396 -156.323316 
L 1798.190574 -158.663009 
L 1797.299667 -161.002702 
L 1796.334598 -163.342395 
L 1795.297704 -165.682087 
L 1794.192828 -168.02178 
L 1793.025385 -170.361473 
L 1791.802372 -172.701165 
L 1790.532333 -175.040858 
L 1789.225263 -177.380551 
L 1787.892461 -179.720243 
L 1786.546306 -182.059936 
L 1785.199992 -184.399629 
L 1783.867192 -186.739322 
L 1782.561687 -189.079014 
L 1781.296956 -191.418707 
L 1780.085748 -193.7584 
L 1778.93966 -196.098092 
L 1777.868729 -198.437785 
L 1776.881073 -200.777478 
L 1775.982597 -203.11717 
L 1775.176787 -205.456863 
L 1774.4646 -207.796556 
L 1773.84448 -210.136248 
L 1773.312483 -212.475941 
L 1772.862531 -214.815634 
L 1772.486773 -217.155327 
L 1772.176042 -219.495019 
L 1771.920381 -221.834712 
L 1771.709622 -224.174405 
L 1771.533962 -226.514097 
L 1771.384531 -228.85379 
L 1771.253899 -231.193483 
L 1771.136492 -233.533175 
L 1771.028906 -235.872868 
L 1770.930086 -238.212561 
L 1770.841364 -240.552254 
L 1770.766355 -242.891946 
L 1770.710723 -245.231639 
L 1770.681818 -247.571332 
L 1770.688227 -249.911024 
L 1770.739245 -252.250717 
L 1770.84432 -254.59041 
L 1771.012484 -256.930102 
L 1771.251823 -259.269795 
L 1771.569004 -261.609488 
L 1771.968878 -263.94918 
L 1772.454204 -266.288873 
L 1773.025478 -268.628566 
L 1773.680891 -270.968259 
L 1774.416408 -273.307951 
L 1775.225956 -275.647644 
L 1776.101716 -277.987337 
L 1777.034482 -280.327029 
L 1778.014082 -282.666722 
L 1779.029816 -285.006415 
L 1780.070905 -287.346107 
L 1781.126904 -289.6858 
L 1782.188076 -292.025493 
L 1783.245696 -294.365186 
L 1784.292276 -296.704878 
L 1785.321707 -299.044571 
L 1786.329307 -301.384264 
L 1787.311789 -303.723956 
L 1788.267151 -306.063649 
L 1789.194503 -308.403342 
L 1790.093852 -310.743034 
L 1790.965855 -313.082727 
L 1791.811569 -315.42242 
L 1792.632202 -317.762113 
L 1793.428897 -320.101805 
L 1794.202552 -322.441498 
L 1794.953685 -324.781191 
L 1795.682353 -327.120883 
L 1796.388121 -329.460576 
L 1797.070085 -331.800269 
L 1797.726935 -334.139961 
L 1798.35705 -336.479654 
L 1798.958622 -338.819347 
L 1799.529786 -341.159039 
L 1800.068756 -343.498732 
L 1800.573949 -345.838425 
L 1801.044093 -348.178118 
L 1801.478312 -350.51781 
L 1801.876185 -352.857503 
L 1802.237773 -355.197196 
L 1802.563625 -357.536888 
L 1802.854751 -359.876581 
L 1803.112579 -362.216274 
L 1803.338899 -364.555966 
L 1803.535784 -366.895659 
L 1805.464216 -366.895659 
L 1805.464216 -366.895659 
L 1805.661101 -364.555966 
L 1805.887421 -362.216274 
L 1806.145249 -359.876581 
L 1806.436375 -357.536888 
L 1806.762227 -355.197196 
L 1807.123815 -352.857503 
L 1807.521688 -350.51781 
L 1807.955907 -348.178118 
L 1808.426051 -345.838425 
L 1808.931244 -343.498732 
L 1809.470214 -341.159039 
L 1810.041378 -338.819347 
L 1810.64295 -336.479654 
L 1811.273065 -334.139961 
L 1811.929915 -331.800269 
L 1812.611879 -329.460576 
L 1813.317647 -327.120883 
L 1814.046315 -324.781191 
L 1814.797448 -322.441498 
L 1815.571103 -320.101805 
L 1816.367798 -317.762113 
L 1817.188431 -315.42242 
L 1818.034145 -313.082727 
L 1818.906148 -310.743034 
L 1819.805497 -308.403342 
L 1820.732849 -306.063649 
L 1821.688211 -303.723956 
L 1822.670693 -301.384264 
L 1823.678293 -299.044571 
L 1824.707724 -296.704878 
L 1825.754304 -294.365186 
L 1826.811924 -292.025493 
L 1827.873096 -289.6858 
L 1828.929095 -287.346107 
L 1829.970184 -285.006415 
L 1830.985918 -282.666722 
L 1831.965518 -280.327029 
L 1832.898284 -277.987337 
L 1833.774044 -275.647644 
L 1834.583592 -273.307951 
L 1835.319109 -270.968259 
L 1835.974522 -268.628566 
L 1836.545796 -266.288873 
L 1837.031122 -263.94918 
L 1837.430996 -261.609488 
L 1837.748177 -259.269795 
L 1837.987516 -256.930102 
L 1838.15568 -254.59041 
L 1838.260755 -252.250717 
L 1838.311773 -249.911024 
L 1838.318182 -247.571332 
L 1838.289277 -245.231639 
L 1838.233645 -242.891946 
L 1838.158636 -240.552254 
L 1838.069914 -238.212561 
L 1837.971094 -235.872868 
L 1837.863508 -233.533175 
L 1837.746101 -231.193483 
L 1837.615469 -228.85379 
L 1837.466038 -226.514097 
L 1837.290378 -224.174405 
L 1837.079619 -221.834712 
L 1836.823958 -219.495019 
L 1836.513227 -217.155327 
L 1836.137469 -214.815634 
L 1835.687517 -212.475941 
L 1835.15552 -210.136248 
L 1834.5354 -207.796556 
L 1833.823213 -205.456863 
L 1833.017403 -203.11717 
L 1832.118927 -200.777478 
L 1831.131271 -198.437785 
L 1830.06034 -196.098092 
L 1828.914252 -193.7584 
L 1827.703044 -191.418707 
L 1826.438313 -189.079014 
L 1825.132808 -186.739322 
L 1823.800008 -184.399629 
L 1822.453694 -182.059936 
L 1821.107539 -179.720243 
L 1819.774737 -177.380551 
L 1818.467667 -175.040858 
L 1817.197628 -172.701165 
L 1815.974615 -170.361473 
L 1814.807172 -168.02178 
L 1813.702296 -165.682087 
L 1812.665402 -163.342395 
L 1811.700333 -161.002702 
L 1810.809426 -158.663009 
L 1809.993604 -156.323316 
L 1809.252503 -153.983624 
L 1808.584621 -151.643931 
L 1807.987479 -149.304238 
L 1807.457792 -146.964546 
L 1806.991643 -144.624853 
L 1806.584641 -142.28516 
L 1806.232087 -139.945468 
L 1805.929113 -137.605775 
L 1805.670816 -135.266082 
z
" style="stroke: #595959; stroke-width: 1.5"/>
                </defs>
                <g clip-path="url(#pe4f46906ca)">
                    <use xlink:href="#mfa8e4b6467" x="0" y="720"
                         style="fill: #e5c849; stroke: #595959; stroke-width: 1.5"/>
                </g>
            </g>
            <g id="matplotlib.axis_1">
                <g id="xtick_1">
                    <g id="line2d_1">
                        <defs>
                            <path id="mf64eaaeecd" d="M 0 0
L 0 3.5 
" style="stroke: #000000; stroke-width: 0.8"/>
                        </defs>
                        <g>
                            <use xlink:href="#mf64eaaeecd" x="409.5" y="640.8"
                                 style="stroke: #000000; stroke-width: 0.8"/>
                        </g>
                    </g>
                    <g id="text_1">
                        <!-- 1 -->
                        <g transform="translate(403.1375 662.996875)scale(0.2 -0.2)">
                            <defs>
                                <path id="DejaVuSans-31" d="M 794 531
L 1825 531 
L 1825 4091 
L 703 3866 
L 703 4441 
L 1819 4666 
L 2450 4666 
L 2450 531 
L 3481 531 
L 3481 0 
L 794 0 
L 794 531 
z
" transform="scale(0.015625)"/>
                            </defs>
                            <use xlink:href="#DejaVuSans-31"/>
                        </g>
                    </g>
                </g>
                <g id="xtick_2">
                    <g id="line2d_2">
                        <g>
                            <use xlink:href="#mf64eaaeecd" x="688.5" y="640.8"
                                 style="stroke: #000000; stroke-width: 0.8"/>
                        </g>
                    </g>
                    <g id="text_2">
                        <!-- 2 -->
                        <g transform="translate(682.1375 662.996875)scale(0.2 -0.2)">
                            <defs>
                                <path id="DejaVuSans-32" d="M 1228 531
L 3431 531 
L 3431 0 
L 469 0 
L 469 531 
Q 828 903 1448 1529 
Q 2069 2156 2228 2338 
Q 2531 2678 2651 2914 
Q 2772 3150 2772 3378 
Q 2772 3750 2511 3984 
Q 2250 4219 1831 4219 
Q 1534 4219 1204 4116 
Q 875 4013 500 3803 
L 500 4441 
Q 881 4594 1212 4672 
Q 1544 4750 1819 4750 
Q 2544 4750 2975 4387 
Q 3406 4025 3406 3419 
Q 3406 3131 3298 2873 
Q 3191 2616 2906 2266 
Q 2828 2175 2409 1742 
Q 1991 1309 1228 531 
z
" transform="scale(0.015625)"/>
                            </defs>
                            <use xlink:href="#DejaVuSans-32"/>
                        </g>
                    </g>
                </g>
                <g id="xtick_3">
                    <g id="line2d_3">
                        <g>
                            <use xlink:href="#mf64eaaeecd" x="967.5" y="640.8"
                                 style="stroke: #000000; stroke-width: 0.8"/>
                        </g>
                    </g>
                    <g id="text_3">
                        <!-- 3 -->
                        <g transform="translate(961.1375 662.996875)scale(0.2 -0.2)">
                            <defs>
                                <path id="DejaVuSans-33" d="M 2597 2516
Q 3050 2419 3304 2112 
Q 3559 1806 3559 1356 
Q 3559 666 3084 287 
Q 2609 -91 1734 -91 
Q 1441 -91 1130 -33 
Q 819 25 488 141 
L 488 750 
Q 750 597 1062 519 
Q 1375 441 1716 441 
Q 2309 441 2620 675 
Q 2931 909 2931 1356 
Q 2931 1769 2642 2001 
Q 2353 2234 1838 2234 
L 1294 2234 
L 1294 2753 
L 1863 2753 
Q 2328 2753 2575 2939 
Q 2822 3125 2822 3475 
Q 2822 3834 2567 4026 
Q 2313 4219 1838 4219 
Q 1578 4219 1281 4162 
Q 984 4106 628 3988 
L 628 4550 
Q 988 4650 1302 4700 
Q 1616 4750 1894 4750 
Q 2613 4750 3031 4423 
Q 3450 4097 3450 3541 
Q 3450 3153 3228 2886 
Q 3006 2619 2597 2516 
z
" transform="scale(0.015625)"/>
                            </defs>
                            <use xlink:href="#DejaVuSans-33"/>
                        </g>
                    </g>
                </g>
                <g id="xtick_4">
                    <g id="line2d_4">
                        <g>
                            <use xlink:href="#mf64eaaeecd" x="1246.5" y="640.8"
                                 style="stroke: #000000; stroke-width: 0.8"/>
                        </g>
                    </g>
                    <g id="text_4">
                        <!-- 4 -->
                        <g transform="translate(1240.1375 662.996875)scale(0.2 -0.2)">
                            <defs>
                                <path id="DejaVuSans-34" d="M 2419 4116
L 825 1625 
L 2419 1625 
L 2419 4116 
z
M 2253 4666 
L 3047 4666 
L 3047 1625 
L 3713 1625 
L 3713 1100 
L 3047 1100 
L 3047 0 
L 2419 0 
L 2419 1100 
L 313 1100 
L 313 1709 
L 2253 4666 
z
" transform="scale(0.015625)"/>
                            </defs>
                            <use xlink:href="#DejaVuSans-34"/>
                        </g>
                    </g>
                </g>
                <g id="xtick_5">
                    <g id="line2d_5">
                        <g>
                            <use xlink:href="#mf64eaaeecd" x="1525.5" y="640.8"
                                 style="stroke: #000000; stroke-width: 0.8"/>
                        </g>
                    </g>
                    <g id="text_5">
                        <!-- 5 -->
                        <g transform="translate(1519.1375 662.996875)scale(0.2 -0.2)">
                            <defs>
                                <path id="DejaVuSans-35" d="M 691 4666
L 3169 4666 
L 3169 4134 
L 1269 4134 
L 1269 2991 
Q 1406 3038 1543 3061 
Q 1681 3084 1819 3084 
Q 2600 3084 3056 2656 
Q 3513 2228 3513 1497 
Q 3513 744 3044 326 
Q 2575 -91 1722 -91 
Q 1428 -91 1123 -41 
Q 819 9 494 109 
L 494 744 
Q 775 591 1075 516 
Q 1375 441 1709 441 
Q 2250 441 2565 725 
Q 2881 1009 2881 1497 
Q 2881 1984 2565 2268 
Q 2250 2553 1709 2553 
Q 1456 2553 1204 2497 
Q 953 2441 691 2322 
L 691 4666 
z
" transform="scale(0.015625)"/>
                            </defs>
                            <use xlink:href="#DejaVuSans-35"/>
                        </g>
                    </g>
                </g>
                <g id="xtick_6">
                    <g id="line2d_6">
                        <g>
                            <use xlink:href="#mf64eaaeecd" x="1804.5" y="640.8"
                                 style="stroke: #000000; stroke-width: 0.8"/>
                        </g>
                    </g>
                    <g id="text_6">
                        <!-- 6 -->
                        <g transform="translate(1798.1375 662.996875)scale(0.2 -0.2)">
                            <defs>
                                <path id="DejaVuSans-36" d="M 2113 2584
Q 1688 2584 1439 2293 
Q 1191 2003 1191 1497 
Q 1191 994 1439 701 
Q 1688 409 2113 409 
Q 2538 409 2786 701 
Q 3034 994 3034 1497 
Q 3034 2003 2786 2293 
Q 2538 2584 2113 2584 
z
M 3366 4563 
L 3366 3988 
Q 3128 4100 2886 4159 
Q 2644 4219 2406 4219 
Q 1781 4219 1451 3797 
Q 1122 3375 1075 2522 
Q 1259 2794 1537 2939 
Q 1816 3084 2150 3084 
Q 2853 3084 3261 2657 
Q 3669 2231 3669 1497 
Q 3669 778 3244 343 
Q 2819 -91 2113 -91 
Q 1303 -91 875 529 
Q 447 1150 447 2328 
Q 447 3434 972 4092 
Q 1497 4750 2381 4750 
Q 2619 4750 2861 4703 
Q 3103 4656 3366 4563 
z
" transform="scale(0.015625)"/>
                            </defs>
                            <use xlink:href="#DejaVuSans-36"/>
                        </g>
                    </g>
                </g>
                <g id="text_7">
                    <!-- cluster -->
                    <g transform="translate(1072.992188 686.353125)scale(0.2 -0.2)">
                        <defs>
                            <path id="DejaVuSans-63" d="M 3122 3366
L 3122 2828 
Q 2878 2963 2633 3030 
Q 2388 3097 2138 3097 
Q 1578 3097 1268 2742 
Q 959 2388 959 1747 
Q 959 1106 1268 751 
Q 1578 397 2138 397 
Q 2388 397 2633 464 
Q 2878 531 3122 666 
L 3122 134 
Q 2881 22 2623 -34 
Q 2366 -91 2075 -91 
Q 1284 -91 818 406 
Q 353 903 353 1747 
Q 353 2603 823 3093 
Q 1294 3584 2113 3584 
Q 2378 3584 2631 3529 
Q 2884 3475 3122 3366 
z
" transform="scale(0.015625)"/>
                            <path id="DejaVuSans-6c" d="M 603 4863
L 1178 4863 
L 1178 0 
L 603 0 
L 603 4863 
z
" transform="scale(0.015625)"/>
                            <path id="DejaVuSans-75" d="M 544 1381
L 544 3500 
L 1119 3500 
L 1119 1403 
Q 1119 906 1312 657 
Q 1506 409 1894 409 
Q 2359 409 2629 706 
Q 2900 1003 2900 1516 
L 2900 3500 
L 3475 3500 
L 3475 0 
L 2900 0 
L 2900 538 
Q 2691 219 2414 64 
Q 2138 -91 1772 -91 
Q 1169 -91 856 284 
Q 544 659 544 1381 
z
M 1991 3584 
L 1991 3584 
z
" transform="scale(0.015625)"/>
                            <path id="DejaVuSans-73" d="M 2834 3397
L 2834 2853 
Q 2591 2978 2328 3040 
Q 2066 3103 1784 3103 
Q 1356 3103 1142 2972 
Q 928 2841 928 2578 
Q 928 2378 1081 2264 
Q 1234 2150 1697 2047 
L 1894 2003 
Q 2506 1872 2764 1633 
Q 3022 1394 3022 966 
Q 3022 478 2636 193 
Q 2250 -91 1575 -91 
Q 1294 -91 989 -36 
Q 684 19 347 128 
L 347 722 
Q 666 556 975 473 
Q 1284 391 1588 391 
Q 1994 391 2212 530 
Q 2431 669 2431 922 
Q 2431 1156 2273 1281 
Q 2116 1406 1581 1522 
L 1381 1569 
Q 847 1681 609 1914 
Q 372 2147 372 2553 
Q 372 3047 722 3315 
Q 1072 3584 1716 3584 
Q 2034 3584 2315 3537 
Q 2597 3491 2834 3397 
z
" transform="scale(0.015625)"/>
                            <path id="DejaVuSans-74" d="M 1172 4494
L 1172 3500 
L 2356 3500 
L 2356 3053 
L 1172 3053 
L 1172 1153 
Q 1172 725 1289 603 
Q 1406 481 1766 481 
L 2356 481 
L 2356 0 
L 1766 0 
Q 1100 0 847 248 
Q 594 497 594 1153 
L 594 3053 
L 172 3053 
L 172 3500 
L 594 3500 
L 594 4494 
L 1172 4494 
z
" transform="scale(0.015625)"/>
                            <path id="DejaVuSans-65" d="M 3597 1894
L 3597 1613 
L 953 1613 
Q 991 1019 1311 708 
Q 1631 397 2203 397 
Q 2534 397 2845 478 
Q 3156 559 3463 722 
L 3463 178 
Q 3153 47 2828 -22 
Q 2503 -91 2169 -91 
Q 1331 -91 842 396 
Q 353 884 353 1716 
Q 353 2575 817 3079 
Q 1281 3584 2069 3584 
Q 2775 3584 3186 3129 
Q 3597 2675 3597 1894 
z
M 3022 2063 
Q 3016 2534 2758 2815 
Q 2500 3097 2075 3097 
Q 1594 3097 1305 2825 
Q 1016 2553 972 2059 
L 3022 2063 
z
" transform="scale(0.015625)"/>
                            <path id="DejaVuSans-72" d="M 2631 2963
Q 2534 3019 2420 3045 
Q 2306 3072 2169 3072 
Q 1681 3072 1420 2755 
Q 1159 2438 1159 1844 
L 1159 0 
L 581 0 
L 581 3500 
L 1159 3500 
L 1159 2956 
Q 1341 3275 1631 3429 
Q 1922 3584 2338 3584 
Q 2397 3584 2469 3576 
Q 2541 3569 2628 3553 
L 2631 2963 
z
" transform="scale(0.015625)"/>
                        </defs>
                        <use xlink:href="#DejaVuSans-63"/>
                        <use xlink:href="#DejaVuSans-6c" x="54.980469"/>
                        <use xlink:href="#DejaVuSans-75" x="82.763672"/>
                        <use xlink:href="#DejaVuSans-73" x="146.142578"/>
                        <use xlink:href="#DejaVuSans-74" x="198.242188"/>
                        <use xlink:href="#DejaVuSans-65" x="237.451172"/>
                        <use xlink:href="#DejaVuSans-72" x="298.974609"/>
                    </g>
                </g>
            </g>
            <g id="matplotlib.axis_2">
                <g id="ytick_1">
                    <g id="line2d_7">
                        <defs>
                            <path id="m8933b822db" d="M 0 0
L -3.5 0 
" style="stroke: #000000; stroke-width: 0.8"/>
                        </defs>
                        <g>
                            <use xlink:href="#m8933b822db" x="270" y="539.927678"
                                 style="stroke: #000000; stroke-width: 0.8"/>
                        </g>
                    </g>
                    <g id="text_8">
                        <!-- 5 -->
                        <g transform="translate(250.275 547.526116)scale(0.2 -0.2)">
                            <use xlink:href="#DejaVuSans-35"/>
                        </g>
                    </g>
                </g>
                <g id="ytick_2">
                    <g id="line2d_8">
                        <g>
                            <use xlink:href="#m8933b822db" x="270" y="421.430773"
                                 style="stroke: #000000; stroke-width: 0.8"/>
                        </g>
                    </g>
                    <g id="text_9">
                        <!-- 10 -->
                        <g transform="translate(237.55 429.029211)scale(0.2 -0.2)">
                            <defs>
                                <path id="DejaVuSans-30" d="M 2034 4250
Q 1547 4250 1301 3770 
Q 1056 3291 1056 2328 
Q 1056 1369 1301 889 
Q 1547 409 2034 409 
Q 2525 409 2770 889 
Q 3016 1369 3016 2328 
Q 3016 3291 2770 3770 
Q 2525 4250 2034 4250 
z
M 2034 4750 
Q 2819 4750 3233 4129 
Q 3647 3509 3647 2328 
Q 3647 1150 3233 529 
Q 2819 -91 2034 -91 
Q 1250 -91 836 529 
Q 422 1150 422 2328 
Q 422 3509 836 4129 
Q 1250 4750 2034 4750 
z
" transform="scale(0.015625)"/>
                            </defs>
                            <use xlink:href="#DejaVuSans-31"/>
                            <use xlink:href="#DejaVuSans-30" x="63.623047"/>
                        </g>
                    </g>
                </g>
                <g id="ytick_3">
                    <g id="line2d_9">
                        <g>
                            <use xlink:href="#m8933b822db" x="270" y="302.933868"
                                 style="stroke: #000000; stroke-width: 0.8"/>
                        </g>
                    </g>
                    <g id="text_10">
                        <!-- 15 -->
                        <g transform="translate(237.55 310.532305)scale(0.2 -0.2)">
                            <use xlink:href="#DejaVuSans-31"/>
                            <use xlink:href="#DejaVuSans-35" x="63.623047"/>
                        </g>
                    </g>
                </g>
                <g id="ytick_4">
                    <g id="line2d_10">
                        <g>
                            <use xlink:href="#m8933b822db" x="270" y="184.436962"
                                 style="stroke: #000000; stroke-width: 0.8"/>
                        </g>
                    </g>
                    <g id="text_11">
                        <!-- 20 -->
                        <g transform="translate(237.55 192.0354)scale(0.2 -0.2)">
                            <use xlink:href="#DejaVuSans-32"/>
                            <use xlink:href="#DejaVuSans-30" x="63.623047"/>
                        </g>
                    </g>
                </g>
                <g id="text_12">
                    <!-- log -->
                    <g transform="translate(229.390625 378.845312)rotate(-90)scale(0.2 -0.2)">
                        <defs>
                            <path id="DejaVuSans-6f" d="M 1959 3097
Q 1497 3097 1228 2736 
Q 959 2375 959 1747 
Q 959 1119 1226 758 
Q 1494 397 1959 397 
Q 2419 397 2687 759 
Q 2956 1122 2956 1747 
Q 2956 2369 2687 2733 
Q 2419 3097 1959 3097 
z
M 1959 3584 
Q 2709 3584 3137 3096 
Q 3566 2609 3566 1747 
Q 3566 888 3137 398 
Q 2709 -91 1959 -91 
Q 1206 -91 779 398 
Q 353 888 353 1747 
Q 353 2609 779 3096 
Q 1206 3584 1959 3584 
z
" transform="scale(0.015625)"/>
                            <path id="DejaVuSans-67" d="M 2906 1791
Q 2906 2416 2648 2759 
Q 2391 3103 1925 3103 
Q 1463 3103 1205 2759 
Q 947 2416 947 1791 
Q 947 1169 1205 825 
Q 1463 481 1925 481 
Q 2391 481 2648 825 
Q 2906 1169 2906 1791 
z
M 3481 434 
Q 3481 -459 3084 -895 
Q 2688 -1331 1869 -1331 
Q 1566 -1331 1297 -1286 
Q 1028 -1241 775 -1147 
L 775 -588 
Q 1028 -725 1275 -790 
Q 1522 -856 1778 -856 
Q 2344 -856 2625 -561 
Q 2906 -266 2906 331 
L 2906 616 
Q 2728 306 2450 153 
Q 2172 0 1784 0 
Q 1141 0 747 490 
Q 353 981 353 1791 
Q 353 2603 747 3093 
Q 1141 3584 1784 3584 
Q 2172 3584 2450 3431 
Q 2728 3278 2906 2969 
L 2906 3500 
L 3481 3500 
L 3481 434 
z
" transform="scale(0.015625)"/>
                        </defs>
                        <use xlink:href="#DejaVuSans-6c"/>
                        <use xlink:href="#DejaVuSans-6f" x="27.783203"/>
                        <use xlink:href="#DejaVuSans-67" x="88.964844"/>
                    </g>
                </g>
            </g>
            <g id="line2d_11">
                <path d="M 409.5 538.65863
L 409.5 361.291176 
" clip-path="url(#pe4f46906ca)" style="fill: none; stroke: #595959; stroke-width: 1.5; stroke-linecap: square"/>
            </g>
            <g id="line2d_12">
                <path d="M 409.5 525.609706
L 409.5 450.177795 
" clip-path="url(#pe4f46906ca)" style="fill: none; stroke: #595959; stroke-width: 4.5; stroke-linecap: square"/>
            </g>
            <g id="line2d_13">
                <path d="M 688.5 530.049747
L 688.5 382.559889 
" clip-path="url(#pe4f46906ca)" style="fill: none; stroke: #595959; stroke-width: 1.5; stroke-linecap: square"/>
            </g>
            <g id="line2d_14">
                <path d="M 688.5 520.60537
L 688.5 432.282291 
" clip-path="url(#pe4f46906ca)" style="fill: none; stroke: #595959; stroke-width: 4.5; stroke-linecap: square"/>
            </g>
            <g id="line2d_15">
                <path d="M 967.5 528.232153
L 967.5 428.869232 
" clip-path="url(#pe4f46906ca)" style="fill: none; stroke: #595959; stroke-width: 1.5; stroke-linecap: square"/>
            </g>
            <g id="line2d_16">
                <path d="M 967.5 520.531191
L 967.5 455.736704 
" clip-path="url(#pe4f46906ca)" style="fill: none; stroke: #595959; stroke-width: 4.5; stroke-linecap: square"/>
            </g>
            <g id="line2d_17">
                <path d="M 1246.5 539.855378
L 1246.5 444.2271 
" clip-path="url(#pe4f46906ca)" style="fill: none; stroke: #595959; stroke-width: 1.5; stroke-linecap: square"/>
            </g>
            <g id="line2d_18">
                <path d="M 1246.5 523.802324
L 1246.5 481.880888 
" clip-path="url(#pe4f46906ca)" style="fill: none; stroke: #595959; stroke-width: 4.5; stroke-linecap: square"/>
            </g>
            <g id="line2d_19">
                <path d="M 1525.5 539.824235
L 1525.5 421.533187 
" clip-path="url(#pe4f46906ca)" style="fill: none; stroke: #595959; stroke-width: 1.5; stroke-linecap: square"/>
            </g>
            <g id="line2d_20">
                <path d="M 1525.5 524.436649
L 1525.5 478.272811 
" clip-path="url(#pe4f46906ca)" style="fill: none; stroke: #595959; stroke-width: 4.5; stroke-linecap: square"/>
            </g>
            <g id="line2d_21">
                <path d="M 1804.5 533.943336
L 1804.5 403.894923 
" clip-path="url(#pe4f46906ca)" style="fill: none; stroke: #595959; stroke-width: 1.5; stroke-linecap: square"/>
            </g>
            <g id="line2d_22">
                <path d="M 1804.5 507.200061
L 1804.5 452.416725 
" clip-path="url(#pe4f46906ca)" style="fill: none; stroke: #595959; stroke-width: 4.5; stroke-linecap: square"/>
            </g>
            <g id="patch_3">
                <path d="M 270 640.8
L 270 86.4 
" style="fill: none; stroke: #000000; stroke-width: 0.8; stroke-linejoin: miter; stroke-linecap: square"/>
            </g>
            <g id="patch_4">
                <path d="M 1944 640.8
L 1944 86.4 
" style="fill: none; stroke: #000000; stroke-width: 0.8; stroke-linejoin: miter; stroke-linecap: square"/>
            </g>
            <g id="patch_5">
                <path d="M 270 640.8
L 1944 640.8 
" style="fill: none; stroke: #000000; stroke-width: 0.8; stroke-linejoin: miter; stroke-linecap: square"/>
            </g>
            <g id="patch_6">
                <path d="M 270 86.4
L 1944 86.4 
" style="fill: none; stroke: #000000; stroke-width: 0.8; stroke-linejoin: miter; stroke-linecap: square"/>
            </g>
            <g id="PathCollection_1">
                <defs>
                    <path id="m58b1f8afe9" d="M 0 1.5
C 0.397805 1.5 0.77937 1.341951 1.06066 1.06066 
C 1.341951 0.77937 1.5 0.397805 1.5 0 
C 1.5 -0.397805 1.341951 -0.77937 1.06066 -1.06066 
C 0.77937 -1.341951 0.397805 -1.5 0 -1.5 
C -0.397805 -1.5 -0.77937 -1.341951 -1.06066 -1.06066 
C -1.341951 -0.77937 -1.5 -0.397805 -1.5 0 
C -1.5 0.397805 -1.341951 0.77937 -1.06066 1.06066 
C -0.77937 1.341951 -0.397805 1.5 0 1.5 
z
" style="stroke: #595959"/>
                </defs>
                <g clip-path="url(#pe4f46906ca)">
                    <use xlink:href="#m58b1f8afe9" x="409.5" y="497.03966" style="fill: #ffffff; stroke: #595959"/>
                </g>
            </g>
            <g id="PathCollection_2">
                <g clip-path="url(#pe4f46906ca)">
                    <use xlink:href="#m58b1f8afe9" x="688.5" y="459.05854" style="fill: #ffffff; stroke: #595959"/>
                </g>
            </g>
            <g id="PathCollection_3">
                <g clip-path="url(#pe4f46906ca)">
                    <use xlink:href="#m58b1f8afe9" x="967.5" y="468.931949" style="fill: #ffffff; stroke: #595959"/>
                </g>
            </g>
            <g id="PathCollection_4">
                <g clip-path="url(#pe4f46906ca)">
                    <use xlink:href="#m58b1f8afe9" x="1246.5" y="508.486768" style="fill: #ffffff; stroke: #595959"/>
                </g>
            </g>
            <g id="PathCollection_5">
                <g clip-path="url(#pe4f46906ca)">
                    <use xlink:href="#m58b1f8afe9" x="1525.5" y="511.738889" style="fill: #ffffff; stroke: #595959"/>
                </g>
            </g>
            <g id="PathCollection_6">
                <g clip-path="url(#pe4f46906ca)">
                    <use xlink:href="#m58b1f8afe9" x="1804.5" y="472.592843" style="fill: #ffffff; stroke: #595959"/>
                </g>
            </g>
            <g id="PathCollection_7">
                <defs>
                    <path id="C0_0_ceef63341d" d="M 0 2.5
C 0.663008 2.5 1.29895 2.236584 1.767767 1.767767 
C 2.236584 1.29895 2.5 0.663008 2.5 -0 
C 2.5 -0.663008 2.236584 -1.29895 1.767767 -1.767767 
C 1.29895 -2.236584 0.663008 -2.5 0 -2.5 
C -0.663008 -2.5 -1.29895 -2.236584 -1.767767 -1.767767 
C -2.236584 -1.29895 -2.5 -0.663008 -2.5 0 
C -2.5 0.663008 -2.236584 1.29895 -1.767767 1.767767 
C -1.29895 2.236584 -0.663008 2.5 0 2.5 
z
"/>
                </defs>
                <g clip-path="url(#pe4f46906ca)">
                    <use xlink:href="#C0_0_ceef63341d" x="409.5" y="538.65863" style="fill: #1f77b4"/>
                </g>
                <g clip-path="url(#pe4f46906ca)">
                    <use xlink:href="#C0_0_ceef63341d" x="404.282869" y="538.100008" style="fill: #1f77b4"/>
                </g>
                <g clip-path="url(#pe4f46906ca)">
                    <use xlink:href="#C0_0_ceef63341d" x="409.5" y="532.479952" style="fill: #1f77b4"/>
                </g>
                <g clip-path="url(#pe4f46906ca)">
                    <use xlink:href="#C0_0_ceef63341d" x="405.638049" y="529.092924" style="fill: #1f77b4"/>
                </g>
                <g clip-path="url(#pe4f46906ca)">
                    <use xlink:href="#C0_0_ceef63341d" x="413.057409" y="528.802806" style="fill: #1f77b4"/>
                </g>
                <g clip-path="url(#pe4f46906ca)">
                    <use xlink:href="#C0_0_ceef63341d" x="418.286447" y="528.356449" style="fill: #1f77b4"/>
                </g>
                <g clip-path="url(#pe4f46906ca)">
                    <use xlink:href="#C0_0_ceef63341d" x="400.498967" y="528.070572" style="fill: #1f77b4"/>
                </g>
                <g clip-path="url(#pe4f46906ca)">
                    <use xlink:href="#C0_0_ceef63341d" x="422.673312" y="525.609706" style="fill: #1f77b4"/>
                </g>
                <g clip-path="url(#pe4f46906ca)">
                    <use xlink:href="#C0_0_ceef63341d" x="409.5" y="521.689794" style="fill: #1f77b4"/>
                </g>
                <g clip-path="url(#pe4f46906ca)">
                    <use xlink:href="#C0_0_ceef63341d" x="404.399787" y="520.503965" style="fill: #1f77b4"/>
                </g>
                <g clip-path="url(#pe4f46906ca)">
                    <use xlink:href="#C0_0_ceef63341d" x="414.406" y="519.909665" style="fill: #1f77b4"/>
                </g>
                <g clip-path="url(#pe4f46906ca)">
                    <use xlink:href="#C0_0_ceef63341d" x="399.700337" y="518.274972" style="fill: #1f77b4"/>
                </g>
                <g clip-path="url(#pe4f46906ca)">
                    <use xlink:href="#C0_0_ceef63341d" x="409.5" y="513.362945" style="fill: #1f77b4"/>
                </g>
                <g clip-path="url(#pe4f46906ca)">
                    <use xlink:href="#C0_0_ceef63341d" x="409.5" y="497.745342" style="fill: #1f77b4"/>
                </g>
                <g clip-path="url(#pe4f46906ca)">
                    <use xlink:href="#C0_0_ceef63341d" x="404.302552" y="497.03966" style="fill: #1f77b4"/>
                </g>
                <g clip-path="url(#pe4f46906ca)">
                    <use xlink:href="#C0_0_ceef63341d" x="409.5" y="489.984812" style="fill: #1f77b4"/>
                </g>
                <g clip-path="url(#pe4f46906ca)">
                    <use xlink:href="#C0_0_ceef63341d" x="409.5" y="479.353122" style="fill: #1f77b4"/>
                </g>
                <g clip-path="url(#pe4f46906ca)">
                    <use xlink:href="#C0_0_ceef63341d" x="404.557403" y="477.667319" style="fill: #1f77b4"/>
                </g>
                <g clip-path="url(#pe4f46906ca)">
                    <use xlink:href="#C0_0_ceef63341d" x="409.5" y="466.849546" style="fill: #1f77b4"/>
                </g>
                <g clip-path="url(#pe4f46906ca)">
                    <use xlink:href="#C0_0_ceef63341d" x="409.5" y="459.949672" style="fill: #1f77b4"/>
                </g>
                <g clip-path="url(#pe4f46906ca)">
                    <use xlink:href="#C0_0_ceef63341d" x="409.5" y="451.293685" style="fill: #1f77b4"/>
                </g>
                <g clip-path="url(#pe4f46906ca)">
                    <use xlink:href="#C0_0_ceef63341d" x="404.382417" y="450.177795" style="fill: #1f77b4"/>
                </g>
                <g clip-path="url(#pe4f46906ca)">
                    <use xlink:href="#C0_0_ceef63341d" x="409.5" y="419.84246" style="fill: #1f77b4"/>
                </g>
                <g clip-path="url(#pe4f46906ca)">
                    <use xlink:href="#C0_0_ceef63341d" x="409.5" y="408.945818" style="fill: #1f77b4"/>
                </g>
                <g clip-path="url(#pe4f46906ca)">
                    <use xlink:href="#C0_0_ceef63341d" x="409.5" y="396.47398" style="fill: #1f77b4"/>
                </g>
                <g clip-path="url(#pe4f46906ca)">
                    <use xlink:href="#C0_0_ceef63341d" x="404.289334" y="395.863076" style="fill: #1f77b4"/>
                </g>
                <g clip-path="url(#pe4f46906ca)">
                    <use xlink:href="#C0_0_ceef63341d" x="409.5" y="390.347135" style="fill: #1f77b4"/>
                </g>
                <g clip-path="url(#pe4f46906ca)">
                    <use xlink:href="#C0_0_ceef63341d" x="409.5" y="361.291176" style="fill: #1f77b4"/>
                </g>
                <g clip-path="url(#pe4f46906ca)">
                    <use xlink:href="#C0_0_ceef63341d" x="409.5" y="188.54137" style="fill: #1f77b4"/>
                </g>
            </g>
            <g id="PathCollection_8">
                <defs>
                    <path id="C1_0_df2fd92867" d="M 0 2.5
C 0.663008 2.5 1.29895 2.236584 1.767767 1.767767 
C 2.236584 1.29895 2.5 0.663008 2.5 -0 
C 2.5 -0.663008 2.236584 -1.29895 1.767767 -1.767767 
C 1.29895 -2.236584 0.663008 -2.5 0 -2.5 
C -0.663008 -2.5 -1.29895 -2.236584 -1.767767 -1.767767 
C -2.236584 -1.29895 -2.5 -0.663008 -2.5 0 
C -2.5 0.663008 -2.236584 1.29895 -1.767767 1.767767 
C -1.29895 2.236584 -0.663008 2.5 0 2.5 
z
"/>
                </defs>
                <g clip-path="url(#pe4f46906ca)">
                    <use xlink:href="#C1_0_df2fd92867" x="688.5" y="530.049747" style="fill: #ff7f0e"/>
                </g>
                <g clip-path="url(#pe4f46906ca)">
                    <use xlink:href="#C1_0_df2fd92867" x="683.583504" y="528.296082" style="fill: #ff7f0e"/>
                </g>
                <g clip-path="url(#pe4f46906ca)">
                    <use xlink:href="#C1_0_df2fd92867" x="688.5" y="524.482907" style="fill: #ff7f0e"/>
                </g>
                <g clip-path="url(#pe4f46906ca)">
                    <use xlink:href="#C1_0_df2fd92867" x="693.715856" y="523.913591" style="fill: #ff7f0e"/>
                </g>
                <g clip-path="url(#pe4f46906ca)">
                    <use xlink:href="#C1_0_df2fd92867" x="685.185473" y="520.60537" style="fill: #ff7f0e"/>
                </g>
                <g clip-path="url(#pe4f46906ca)">
                    <use xlink:href="#C1_0_df2fd92867" x="689.433083" y="517.666799" style="fill: #ff7f0e"/>
                </g>
                <g clip-path="url(#pe4f46906ca)">
                    <use xlink:href="#C1_0_df2fd92867" x="686.992637" y="513.239843" style="fill: #ff7f0e"/>
                </g>
                <g clip-path="url(#pe4f46906ca)">
                    <use xlink:href="#C1_0_df2fd92867" x="688.5" y="470.087462" style="fill: #ff7f0e"/>
                </g>
                <g clip-path="url(#pe4f46906ca)">
                    <use xlink:href="#C1_0_df2fd92867" x="688.5" y="459.05854" style="fill: #ff7f0e"/>
                </g>
                <g clip-path="url(#pe4f46906ca)">
                    <use xlink:href="#C1_0_df2fd92867" x="685.263187" y="455.121906" style="fill: #ff7f0e"/>
                </g>
                <g clip-path="url(#pe4f46906ca)">
                    <use xlink:href="#C1_0_df2fd92867" x="688.5" y="444.901191" style="fill: #ff7f0e"/>
                </g>
                <g clip-path="url(#pe4f46906ca)">
                    <use xlink:href="#C1_0_df2fd92867" x="688.5" y="437.275522" style="fill: #ff7f0e"/>
                </g>
                <g clip-path="url(#pe4f46906ca)">
                    <use xlink:href="#C1_0_df2fd92867" x="688.226919" y="432.282291" style="fill: #ff7f0e"/>
                </g>
                <g clip-path="url(#pe4f46906ca)">
                    <use xlink:href="#C1_0_df2fd92867" x="688.5" y="405.893276" style="fill: #ff7f0e"/>
                </g>
                <g clip-path="url(#pe4f46906ca)">
                    <use xlink:href="#C1_0_df2fd92867" x="688.5" y="390.760544" style="fill: #ff7f0e"/>
                </g>
                <g clip-path="url(#pe4f46906ca)">
                    <use xlink:href="#C1_0_df2fd92867" x="685.498982" y="386.65796" style="fill: #ff7f0e"/>
                </g>
                <g clip-path="url(#pe4f46906ca)">
                    <use xlink:href="#C1_0_df2fd92867" x="688.5" y="382.559889" style="fill: #ff7f0e"/>
                </g>
            </g>
            <g id="PathCollection_9">
                <defs>
                    <path id="C2_0_ebda3f74a0" d="M 0 2.5
C 0.663008 2.5 1.29895 2.236584 1.767767 1.767767 
C 2.236584 1.29895 2.5 0.663008 2.5 -0 
C 2.5 -0.663008 2.236584 -1.29895 1.767767 -1.767767 
C 1.29895 -2.236584 0.663008 -2.5 0 -2.5 
C -0.663008 -2.5 -1.29895 -2.236584 -1.767767 -1.767767 
C -2.236584 -1.29895 -2.5 -0.663008 -2.5 0 
C -2.5 0.663008 -2.236584 1.29895 -1.767767 1.767767 
C -1.29895 2.236584 -0.663008 2.5 0 2.5 
z
"/>
                </defs>
                <g clip-path="url(#pe4f46906ca)">
                    <use xlink:href="#C2_0_ebda3f74a0" x="967.5" y="528.232153" style="fill: #2ca02c"/>
                </g>
                <g clip-path="url(#pe4f46906ca)">
                    <use xlink:href="#C2_0_ebda3f74a0" x="967.5" y="521.444723" style="fill: #2ca02c"/>
                </g>
                <g clip-path="url(#pe4f46906ca)">
                    <use xlink:href="#C2_0_ebda3f74a0" x="962.61306" y="519.61766" style="fill: #2ca02c"/>
                </g>
                <g clip-path="url(#pe4f46906ca)">
                    <use xlink:href="#C2_0_ebda3f74a0" x="967.5" y="468.931949" style="fill: #2ca02c"/>
                </g>
                <g clip-path="url(#pe4f46906ca)">
                    <use xlink:href="#C2_0_ebda3f74a0" x="963.373282" y="465.841081" style="fill: #2ca02c"/>
                </g>
                <g clip-path="url(#pe4f46906ca)">
                    <use xlink:href="#C2_0_ebda3f74a0" x="967.5" y="445.632327" style="fill: #2ca02c"/>
                </g>
                <g clip-path="url(#pe4f46906ca)">
                    <use xlink:href="#C2_0_ebda3f74a0" x="967.5" y="428.869232" style="fill: #2ca02c"/>
                </g>
            </g>
            <g id="PathCollection_10">
                <defs>
                    <path id="C3_0_87b748d009" d="M 0 2.5
C 0.663008 2.5 1.29895 2.236584 1.767767 1.767767 
C 2.236584 1.29895 2.5 0.663008 2.5 -0 
C 2.5 -0.663008 2.236584 -1.29895 1.767767 -1.767767 
C 1.29895 -2.236584 0.663008 -2.5 0 -2.5 
C -0.663008 -2.5 -1.29895 -2.236584 -1.767767 -1.767767 
C -2.236584 -1.29895 -2.5 -0.663008 -2.5 0 
C -2.5 0.663008 -2.236584 1.29895 -1.767767 1.767767 
C -1.29895 2.236584 -0.663008 2.5 0 2.5 
z
"/>
                </defs>
                <g clip-path="url(#pe4f46906ca)">
                    <use xlink:href="#C3_0_87b748d009" x="1246.5" y="539.855378" style="fill: #d62728"/>
                </g>
                <g clip-path="url(#pe4f46906ca)">
                    <use xlink:href="#C3_0_87b748d009" x="1241.548208" y="538.194228" style="fill: #d62728"/>
                </g>
                <g clip-path="url(#pe4f46906ca)">
                    <use xlink:href="#C3_0_87b748d009" x="1246.5" y="533.393187" style="fill: #d62728"/>
                </g>
                <g clip-path="url(#pe4f46906ca)">
                    <use xlink:href="#C3_0_87b748d009" x="1246.5" y="520.60537" style="fill: #d62728"/>
                </g>
                <g clip-path="url(#pe4f46906ca)">
                    <use xlink:href="#C3_0_87b748d009" x="1246.5" y="512.055558" style="fill: #d62728"/>
                </g>
                <g clip-path="url(#pe4f46906ca)">
                    <use xlink:href="#C3_0_87b748d009" x="1241.250308" y="512.001383" style="fill: #d62728"/>
                </g>
                <g clip-path="url(#pe4f46906ca)">
                    <use xlink:href="#C3_0_87b748d009" x="1246.5" y="504.972153" style="fill: #d62728"/>
                </g>
                <g clip-path="url(#pe4f46906ca)">
                    <use xlink:href="#C3_0_87b748d009" x="1246.5" y="492.215415" style="fill: #d62728"/>
                </g>
                <g clip-path="url(#pe4f46906ca)">
                    <use xlink:href="#C3_0_87b748d009" x="1243.024064" y="488.468262" style="fill: #d62728"/>
                </g>
                <g clip-path="url(#pe4f46906ca)">
                    <use xlink:href="#C3_0_87b748d009" x="1246.5" y="462.118765" style="fill: #d62728"/>
                </g>
                <g clip-path="url(#pe4f46906ca)">
                    <use xlink:href="#C3_0_87b748d009" x="1246.5" y="448.666555" style="fill: #d62728"/>
                </g>
                <g clip-path="url(#pe4f46906ca)">
                    <use xlink:href="#C3_0_87b748d009" x="1244.084716" y="444.2271" style="fill: #d62728"/>
                </g>
            </g>
            <g id="PathCollection_11">
                <defs>
                    <path id="C4_0_23b2338480" d="M 0 2.5
C 0.663008 2.5 1.29895 2.236584 1.767767 1.767767 
C 2.236584 1.29895 2.5 0.663008 2.5 -0 
C 2.5 -0.663008 2.236584 -1.29895 1.767767 -1.767767 
C 1.29895 -2.236584 0.663008 -2.5 0 -2.5 
C -0.663008 -2.5 -1.29895 -2.236584 -1.767767 -1.767767 
C -2.236584 -1.29895 -2.5 -0.663008 -2.5 0 
C -2.5 0.663008 -2.236584 1.29895 -1.767767 1.767767 
C -1.29895 2.236584 -0.663008 2.5 0 2.5 
z
"/>
                </defs>
                <g clip-path="url(#pe4f46906ca)">
                    <use xlink:href="#C4_0_23b2338480" x="1525.5" y="539.824235" style="fill: #9467bd"/>
                </g>
                <g clip-path="url(#pe4f46906ca)">
                    <use xlink:href="#C4_0_23b2338480" x="1520.442562" y="538.482485" style="fill: #9467bd"/>
                </g>
                <g clip-path="url(#pe4f46906ca)">
                    <use xlink:href="#C4_0_23b2338480" x="1530.277504" y="537.751203" style="fill: #9467bd"/>
                </g>
                <g clip-path="url(#pe4f46906ca)">
                    <use xlink:href="#C4_0_23b2338480" x="1525.5" y="534.635635" style="fill: #9467bd"/>
                </g>
                <g clip-path="url(#pe4f46906ca)">
                    <use xlink:href="#C4_0_23b2338480" x="1517.272325" y="534.497013" style="fill: #9467bd"/>
                </g>
                <g clip-path="url(#pe4f46906ca)">
                    <use xlink:href="#C4_0_23b2338480" x="1534.006837" y="534.231955" style="fill: #9467bd"/>
                </g>
                <g clip-path="url(#pe4f46906ca)">
                    <use xlink:href="#C4_0_23b2338480" x="1512.096136" y="533.661536" style="fill: #9467bd"/>
                </g>
                <g clip-path="url(#pe4f46906ca)">
                    <use xlink:href="#C4_0_23b2338480" x="1525.5" y="528.884386" style="fill: #9467bd"/>
                </g>
                <g clip-path="url(#pe4f46906ca)">
                    <use xlink:href="#C4_0_23b2338480" x="1523.101575" y="524.436649" style="fill: #9467bd"/>
                </g>
                <g clip-path="url(#pe4f46906ca)">
                    <use xlink:href="#C4_0_23b2338480" x="1528.230186" y="523.367667" style="fill: #9467bd"/>
                </g>
                <g clip-path="url(#pe4f46906ca)">
                    <use xlink:href="#C4_0_23b2338480" x="1518.15612" y="522.758465" style="fill: #9467bd"/>
                </g>
                <g clip-path="url(#pe4f46906ca)">
                    <use xlink:href="#C4_0_23b2338480" x="1532.558465" y="520.537878" style="fill: #9467bd"/>
                </g>
                <g clip-path="url(#pe4f46906ca)">
                    <use xlink:href="#C4_0_23b2338480" x="1525.5" y="518.849205" style="fill: #9467bd"/>
                </g>
                <g clip-path="url(#pe4f46906ca)">
                    <use xlink:href="#C4_0_23b2338480" x="1515.230125" y="518.607017" style="fill: #9467bd"/>
                </g>
                <g clip-path="url(#pe4f46906ca)">
                    <use xlink:href="#C4_0_23b2338480" x="1520.667248" y="516.895777" style="fill: #9467bd"/>
                </g>
                <g clip-path="url(#pe4f46906ca)">
                    <use xlink:href="#C4_0_23b2338480" x="1525.5" y="512.106378" style="fill: #9467bd"/>
                </g>
                <g clip-path="url(#pe4f46906ca)">
                    <use xlink:href="#C4_0_23b2338480" x="1520.264199" y="511.738889" style="fill: #9467bd"/>
                </g>
                <g clip-path="url(#pe4f46906ca)">
                    <use xlink:href="#C4_0_23b2338480" x="1528.987813" y="508.369249" style="fill: #9467bd"/>
                </g>
                <g clip-path="url(#pe4f46906ca)">
                    <use xlink:href="#C4_0_23b2338480" x="1525.5" y="504.500658" style="fill: #9467bd"/>
                </g>
                <g clip-path="url(#pe4f46906ca)">
                    <use xlink:href="#C4_0_23b2338480" x="1520.287415" y="503.904784" style="fill: #9467bd"/>
                </g>
                <g clip-path="url(#pe4f46906ca)">
                    <use xlink:href="#C4_0_23b2338480" x="1525.5" y="492.732735" style="fill: #9467bd"/>
                </g>
                <g clip-path="url(#pe4f46906ca)">
                    <use xlink:href="#C4_0_23b2338480" x="1525.5" y="484.378657" style="fill: #9467bd"/>
                </g>
                <g clip-path="url(#pe4f46906ca)">
                    <use xlink:href="#C4_0_23b2338480" x="1520.268318" y="483.961335" style="fill: #9467bd"/>
                </g>
                <g clip-path="url(#pe4f46906ca)">
                    <use xlink:href="#C4_0_23b2338480" x="1530.632558" y="483.326999" style="fill: #9467bd"/>
                </g>
                <g clip-path="url(#pe4f46906ca)">
                    <use xlink:href="#C4_0_23b2338480" x="1525.5" y="478.272811" style="fill: #9467bd"/>
                </g>
                <g clip-path="url(#pe4f46906ca)">
                    <use xlink:href="#C4_0_23b2338480" x="1521.486577" y="475.049464" style="fill: #9467bd"/>
                </g>
                <g clip-path="url(#pe4f46906ca)">
                    <use xlink:href="#C4_0_23b2338480" x="1527.710394" y="473.737571" style="fill: #9467bd"/>
                </g>
                <g clip-path="url(#pe4f46906ca)">
                    <use xlink:href="#C4_0_23b2338480" x="1525.5" y="460.859455" style="fill: #9467bd"/>
                </g>
                <g clip-path="url(#pe4f46906ca)">
                    <use xlink:href="#C4_0_23b2338480" x="1525.5" y="450.469845" style="fill: #9467bd"/>
                </g>
                <g clip-path="url(#pe4f46906ca)">
                    <use xlink:href="#C4_0_23b2338480" x="1525.5" y="438.371861" style="fill: #9467bd"/>
                </g>
                <g clip-path="url(#pe4f46906ca)">
                    <use xlink:href="#C4_0_23b2338480" x="1525.5" y="421.533187" style="fill: #9467bd"/>
                </g>
                <g clip-path="url(#pe4f46906ca)">
                    <use xlink:href="#C4_0_23b2338480" x="1525.5" y="359.722309" style="fill: #9467bd"/>
                </g>
                <g clip-path="url(#pe4f46906ca)">
                    <use xlink:href="#C4_0_23b2338480" x="1525.5" y="198.322707" style="fill: #9467bd"/>
                </g>
            </g>
            <g id="PathCollection_12">
                <defs>
                    <path id="C5_0_5ee73c19c2" d="M 0 2.5
C 0.663008 2.5 1.29895 2.236584 1.767767 1.767767 
C 2.236584 1.29895 2.5 0.663008 2.5 -0 
C 2.5 -0.663008 2.236584 -1.29895 1.767767 -1.767767 
C 1.29895 -2.236584 0.663008 -2.5 0 -2.5 
C -0.663008 -2.5 -1.29895 -2.236584 -1.767767 -1.767767 
C -2.236584 -1.29895 -2.5 -0.663008 -2.5 0 
C -2.5 0.663008 -2.236584 1.29895 -1.767767 1.767767 
C -1.29895 2.236584 -0.663008 2.5 0 2.5 
z
"/>
                </defs>
                <g clip-path="url(#pe4f46906ca)">
                    <use xlink:href="#C5_0_5ee73c19c2" x="1804.5" y="533.943336" style="fill: #8c564b"/>
                </g>
                <g clip-path="url(#pe4f46906ca)">
                    <use xlink:href="#C5_0_5ee73c19c2" x="1804.5" y="512.967963" style="fill: #8c564b"/>
                </g>
                <g clip-path="url(#pe4f46906ca)">
                    <use xlink:href="#C5_0_5ee73c19c2" x="1804.5" y="507.68435" style="fill: #8c564b"/>
                </g>
                <g clip-path="url(#pe4f46906ca)">
                    <use xlink:href="#C5_0_5ee73c19c2" x="1799.660033" y="505.747193" style="fill: #8c564b"/>
                </g>
                <g clip-path="url(#pe4f46906ca)">
                    <use xlink:href="#C5_0_5ee73c19c2" x="1804.5" y="478.423844" style="fill: #8c564b"/>
                </g>
                <g clip-path="url(#pe4f46906ca)">
                    <use xlink:href="#C5_0_5ee73c19c2" x="1804.5" y="466.761843" style="fill: #8c564b"/>
                </g>
                <g clip-path="url(#pe4f46906ca)">
                    <use xlink:href="#C5_0_5ee73c19c2" x="1804.5" y="455.616651" style="fill: #8c564b"/>
                </g>
                <g clip-path="url(#pe4f46906ca)">
                    <use xlink:href="#C5_0_5ee73c19c2" x="1801.762661" y="451.350083" style="fill: #8c564b"/>
                </g>
                <g clip-path="url(#pe4f46906ca)">
                    <use xlink:href="#C5_0_5ee73c19c2" x="1804.5" y="435.252223" style="fill: #8c564b"/>
                </g>
                <g clip-path="url(#pe4f46906ca)">
                    <use xlink:href="#C5_0_5ee73c19c2" x="1804.5" y="403.894923" style="fill: #8c564b"/>
                </g>
            </g>
            <g id="text_13">
                <!-- P values of Field Respiratory -->
                <g transform="translate(937.456875 80.4)scale(0.24 -0.24)">
                    <defs>
                        <path id="DejaVuSans-50" d="M 1259 4147
L 1259 2394 
L 2053 2394 
Q 2494 2394 2734 2622 
Q 2975 2850 2975 3272 
Q 2975 3691 2734 3919 
Q 2494 4147 2053 4147 
L 1259 4147 
z
M 628 4666 
L 2053 4666 
Q 2838 4666 3239 4311 
Q 3641 3956 3641 3272 
Q 3641 2581 3239 2228 
Q 2838 1875 2053 1875 
L 1259 1875 
L 1259 0 
L 628 0 
L 628 4666 
z
" transform="scale(0.015625)"/>
                        <path id="DejaVuSans-20" transform="scale(0.015625)"/>
                        <path id="DejaVuSans-76" d="M 191 3500
L 800 3500 
L 1894 563 
L 2988 3500 
L 3597 3500 
L 2284 0 
L 1503 0 
L 191 3500 
z
" transform="scale(0.015625)"/>
                        <path id="DejaVuSans-61" d="M 2194 1759
Q 1497 1759 1228 1600 
Q 959 1441 959 1056 
Q 959 750 1161 570 
Q 1363 391 1709 391 
Q 2188 391 2477 730 
Q 2766 1069 2766 1631 
L 2766 1759 
L 2194 1759 
z
M 3341 1997 
L 3341 0 
L 2766 0 
L 2766 531 
Q 2569 213 2275 61 
Q 1981 -91 1556 -91 
Q 1019 -91 701 211 
Q 384 513 384 1019 
Q 384 1609 779 1909 
Q 1175 2209 1959 2209 
L 2766 2209 
L 2766 2266 
Q 2766 2663 2505 2880 
Q 2244 3097 1772 3097 
Q 1472 3097 1187 3025 
Q 903 2953 641 2809 
L 641 3341 
Q 956 3463 1253 3523 
Q 1550 3584 1831 3584 
Q 2591 3584 2966 3190 
Q 3341 2797 3341 1997 
z
" transform="scale(0.015625)"/>
                        <path id="DejaVuSans-66" d="M 2375 4863
L 2375 4384 
L 1825 4384 
Q 1516 4384 1395 4259 
Q 1275 4134 1275 3809 
L 1275 3500 
L 2222 3500 
L 2222 3053 
L 1275 3053 
L 1275 0 
L 697 0 
L 697 3053 
L 147 3053 
L 147 3500 
L 697 3500 
L 697 3744 
Q 697 4328 969 4595 
Q 1241 4863 1831 4863 
L 2375 4863 
z
" transform="scale(0.015625)"/>
                        <path id="DejaVuSans-46" d="M 628 4666
L 3309 4666 
L 3309 4134 
L 1259 4134 
L 1259 2759 
L 3109 2759 
L 3109 2228 
L 1259 2228 
L 1259 0 
L 628 0 
L 628 4666 
z
" transform="scale(0.015625)"/>
                        <path id="DejaVuSans-69" d="M 603 3500
L 1178 3500 
L 1178 0 
L 603 0 
L 603 3500 
z
M 603 4863 
L 1178 4863 
L 1178 4134 
L 603 4134 
L 603 4863 
z
" transform="scale(0.015625)"/>
                        <path id="DejaVuSans-64" d="M 2906 2969
L 2906 4863 
L 3481 4863 
L 3481 0 
L 2906 0 
L 2906 525 
Q 2725 213 2448 61 
Q 2172 -91 1784 -91 
Q 1150 -91 751 415 
Q 353 922 353 1747 
Q 353 2572 751 3078 
Q 1150 3584 1784 3584 
Q 2172 3584 2448 3432 
Q 2725 3281 2906 2969 
z
M 947 1747 
Q 947 1113 1208 752 
Q 1469 391 1925 391 
Q 2381 391 2643 752 
Q 2906 1113 2906 1747 
Q 2906 2381 2643 2742 
Q 2381 3103 1925 3103 
Q 1469 3103 1208 2742 
Q 947 2381 947 1747 
z
" transform="scale(0.015625)"/>
                        <path id="DejaVuSans-52" d="M 2841 2188
Q 3044 2119 3236 1894 
Q 3428 1669 3622 1275 
L 4263 0 
L 3584 0 
L 2988 1197 
Q 2756 1666 2539 1819 
Q 2322 1972 1947 1972 
L 1259 1972 
L 1259 0 
L 628 0 
L 628 4666 
L 2053 4666 
Q 2853 4666 3247 4331 
Q 3641 3997 3641 3322 
Q 3641 2881 3436 2590 
Q 3231 2300 2841 2188 
z
M 1259 4147 
L 1259 2491 
L 2053 2491 
Q 2509 2491 2742 2702 
Q 2975 2913 2975 3322 
Q 2975 3731 2742 3939 
Q 2509 4147 2053 4147 
L 1259 4147 
z
" transform="scale(0.015625)"/>
                        <path id="DejaVuSans-70" d="M 1159 525
L 1159 -1331 
L 581 -1331 
L 581 3500 
L 1159 3500 
L 1159 2969 
Q 1341 3281 1617 3432 
Q 1894 3584 2278 3584 
Q 2916 3584 3314 3078 
Q 3713 2572 3713 1747 
Q 3713 922 3314 415 
Q 2916 -91 2278 -91 
Q 1894 -91 1617 61 
Q 1341 213 1159 525 
z
M 3116 1747 
Q 3116 2381 2855 2742 
Q 2594 3103 2138 3103 
Q 1681 3103 1420 2742 
Q 1159 2381 1159 1747 
Q 1159 1113 1420 752 
Q 1681 391 2138 391 
Q 2594 391 2855 752 
Q 3116 1113 3116 1747 
z
" transform="scale(0.015625)"/>
                        <path id="DejaVuSans-79" d="M 2059 -325
Q 1816 -950 1584 -1140 
Q 1353 -1331 966 -1331 
L 506 -1331 
L 506 -850 
L 844 -850 
Q 1081 -850 1212 -737 
Q 1344 -625 1503 -206 
L 1606 56 
L 191 3500 
L 800 3500 
L 1894 763 
L 2988 3500 
L 3597 3500 
L 2059 -325 
z
" transform="scale(0.015625)"/>
                    </defs>
                    <use xlink:href="#DejaVuSans-50"/>
                    <use xlink:href="#DejaVuSans-20" x="60.302734"/>
                    <use xlink:href="#DejaVuSans-76" x="92.089844"/>
                    <use xlink:href="#DejaVuSans-61" x="151.269531"/>
                    <use xlink:href="#DejaVuSans-6c" x="212.548828"/>
                    <use xlink:href="#DejaVuSans-75" x="240.332031"/>
                    <use xlink:href="#DejaVuSans-65" x="303.710938"/>
                    <use xlink:href="#DejaVuSans-73" x="365.234375"/>
                    <use xlink:href="#DejaVuSans-20" x="417.333984"/>
                    <use xlink:href="#DejaVuSans-6f" x="449.121094"/>
                    <use xlink:href="#DejaVuSans-66" x="510.302734"/>
                    <use xlink:href="#DejaVuSans-20" x="545.507812"/>
                    <use xlink:href="#DejaVuSans-46" x="577.294922"/>
                    <use xlink:href="#DejaVuSans-69" x="627.564453"/>
                    <use xlink:href="#DejaVuSans-65" x="655.347656"/>
                    <use xlink:href="#DejaVuSans-6c" x="716.871094"/>
                    <use xlink:href="#DejaVuSans-64" x="744.654297"/>
                    <use xlink:href="#DejaVuSans-20" x="808.130859"/>
                    <use xlink:href="#DejaVuSans-52" x="839.917969"/>
                    <use xlink:href="#DejaVuSans-65" x="904.900391"/>
                    <use xlink:href="#DejaVuSans-73" x="966.423828"/>
                    <use xlink:href="#DejaVuSans-70" x="1018.523438"/>
                    <use xlink:href="#DejaVuSans-69" x="1082"/>
                    <use xlink:href="#DejaVuSans-72" x="1109.783203"/>
                    <use xlink:href="#DejaVuSans-61" x="1150.896484"/>
                    <use xlink:href="#DejaVuSans-74" x="1212.175781"/>
                    <use xlink:href="#DejaVuSans-6f" x="1251.384766"/>
                    <use xlink:href="#DejaVuSans-72" x="1312.566406"/>
                    <use xlink:href="#DejaVuSans-79" x="1353.679688"/>
                </g>
            </g>
        </g>
    </g>
    <defs>
        <clipPath id="pe4f46906ca">
            <rect x="270" y="86.4" width="1674" height="554.4"/>
        </clipPath>
    </defs>
</svg>
