<?xml version="1.0" encoding="utf-8" standalone="no"?>
<!DOCTYPE svg PUBLIC "-//W3C//DTD SVG 1.1//EN"
        "http://www.w3.org/Graphics/SVG/1.1/DTD/svg11.dtd">
<svg xmlns:xlink="http://www.w3.org/1999/xlink" width="2160pt" height="720pt" viewBox="0 0 2160 720"
     xmlns="http://www.w3.org/2000/svg" version="1.1">
    <metadata>
        <rdf:RDF xmlns:dc="http://purl.org/dc/elements/1.1/" xmlns:cc="http://creativecommons.org/ns#"
                 xmlns:rdf="http://www.w3.org/1999/02/22-rdf-syntax-ns#">
            <cc:Work>
                <dc:type rdf:resource="http://purl.org/dc/dcmitype/StillImage"/>
                <dc:date>2022-06-10T17:50:36.913287</dc:date>
                <dc:format>image/svg+xml</dc:format>
                <dc:creator>
                    <cc:Agent>
                        <dc:title>Matplotlib v3.5.1, https://matplotlib.org/</dc:title>
                    </cc:Agent>
                </dc:creator>
            </cc:Work>
        </rdf:RDF>
    </metadata>
    <defs>
        <style type="text/css">*{stroke-linejoin: round; stroke-linecap: butt}</style>
    </defs>
    <g id="figure_1">
        <g id="patch_1">
            <path d="M 0 720
L 2160 720 
L 2160 0 
L 0 0 
z
" style="fill: #ffffff"/>
        </g>
        <g id="axes_1">
            <g id="patch_2">
                <path d="M 270 640.8
L 1944 640.8 
L 1944 86.4 
L 270 86.4 
z
" style="fill: #ffffff"/>
            </g>
            <g id="PolyCollection_1">
                <defs>
                    <path id="m8099264661" d="M 414.63597 -185.759058
L 404.36403 -185.759058 
L 402.7559 -188.063375 
L 400.76312 -190.367692 
L 398.332559 -192.672009 
L 395.415132 -194.976326 
L 391.969519 -197.280644 
L 387.96621 -199.584961 
L 383.391604 -201.889278 
L 378.251813 -204.193595 
L 372.575809 -206.497912 
L 366.417528 -208.802229 
L 359.856605 -211.106547 
L 352.997477 -213.410864 
L 345.966744 -215.715181 
L 338.908809 -218.019498 
L 331.979997 -220.323815 
L 325.341513 -222.628133 
L 319.151728 -224.93245 
L 313.558376 -227.236767 
L 308.691273 -229.541084 
L 304.656124 -231.845401 
L 301.529891 -234.149719 
L 299.358066 -236.454036 
L 298.153962 -238.758353 
L 297.9 -241.06267 
L 298.550748 -243.366987 
L 300.037351 -245.671304 
L 302.272885 -247.975622 
L 305.158135 -250.279939 
L 308.587315 -252.584256 
L 312.453332 -254.888573 
L 316.652279 -257.19289 
L 321.086969 -259.497208 
L 325.66946 -261.801525 
L 330.322584 -264.105842 
L 334.980602 -266.410159 
L 339.589142 -268.714476 
L 344.104586 -271.018793 
L 348.493072 -273.323111 
L 352.729258 -275.627428 
L 356.794958 -277.931745 
L 360.677748 -280.236062 
L 364.369622 -282.540379 
L 367.865749 -284.844697 
L 371.163397 -287.149014 
L 374.261081 -289.453331 
L 377.157976 -291.757648 
L 379.853619 -294.061965 
L 382.347917 -296.366283 
L 384.64142 -298.6706 
L 386.735805 -300.974917 
L 388.634475 -303.279234 
L 390.343158 -305.583551 
L 391.870382 -307.887868 
L 393.227718 -310.192186 
L 394.429707 -312.496503 
L 395.493429 -314.80082 
L 396.437726 -317.105137 
L 397.282147 -319.409454 
L 398.045708 -321.713772 
L 398.745621 -324.018089 
L 399.396123 -326.322406 
L 400.007554 -328.626723 
L 400.585792 -330.93104 
L 401.132119 -333.235358 
L 401.643541 -335.539675 
L 402.113527 -337.843992 
L 402.533106 -340.148309 
L 402.892206 -342.452626 
L 403.1811 -344.756943 
L 403.391835 -347.061261 
L 403.519486 -349.365578 
L 403.563143 -351.669895 
L 403.526529 -353.974212 
L 403.4182 -356.278529 
L 403.251304 -358.582847 
L 403.042936 -360.887164 
L 402.81313 -363.191481 
L 402.583584 -365.495798 
L 402.376229 -367.800115 
L 402.211762 -370.104433 
L 402.108274 -372.40875 
L 402.080078 -374.713067 
L 402.13685 -377.017384 
L 402.283131 -379.321701 
L 402.518232 -381.626018 
L 402.836533 -383.930336 
L 403.228125 -386.234653 
L 403.67973 -388.53897 
L 404.175793 -390.843287 
L 404.69965 -393.147604 
L 405.234658 -395.451922 
L 405.765209 -397.756239 
L 406.277538 -400.060556 
L 406.760307 -402.364873 
L 407.204925 -404.66919 
L 407.605632 -406.973507 
L 407.959372 -409.277825 
L 408.265494 -411.582142 
L 408.525353 -413.886459 
L 410.474647 -413.886459 
L 410.474647 -413.886459 
L 410.734506 -411.582142 
L 411.040628 -409.277825 
L 411.394368 -406.973507 
L 411.795075 -404.66919 
L 412.239693 -402.364873 
L 412.722462 -400.060556 
L 413.234791 -397.756239 
L 413.765342 -395.451922 
L 414.30035 -393.147604 
L 414.824207 -390.843287 
L 415.32027 -388.53897 
L 415.771875 -386.234653 
L 416.163467 -383.930336 
L 416.481768 -381.626018 
L 416.716869 -379.321701 
L 416.86315 -377.017384 
L 416.919922 -374.713067 
L 416.891726 -372.40875 
L 416.788238 -370.104433 
L 416.623771 -367.800115 
L 416.416416 -365.495798 
L 416.18687 -363.191481 
L 415.957064 -360.887164 
L 415.748696 -358.582847 
L 415.5818 -356.278529 
L 415.473471 -353.974212 
L 415.436857 -351.669895 
L 415.480514 -349.365578 
L 415.608165 -347.061261 
L 415.8189 -344.756943 
L 416.107794 -342.452626 
L 416.466894 -340.148309 
L 416.886473 -337.843992 
L 417.356459 -335.539675 
L 417.867881 -333.235358 
L 418.414208 -330.93104 
L 418.992446 -328.626723 
L 419.603877 -326.322406 
L 420.254379 -324.018089 
L 420.954292 -321.713772 
L 421.717853 -319.409454 
L 422.562274 -317.105137 
L 423.506571 -314.80082 
L 424.570293 -312.496503 
L 425.772282 -310.192186 
L 427.129618 -307.887868 
L 428.656842 -305.583551 
L 430.365525 -303.279234 
L 432.264195 -300.974917 
L 434.35858 -298.6706 
L 436.652083 -296.366283 
L 439.146381 -294.061965 
L 441.842024 -291.757648 
L 444.738919 -289.453331 
L 447.836603 -287.149014 
L 451.134251 -284.844697 
L 454.630378 -282.540379 
L 458.322252 -280.236062 
L 462.205042 -277.931745 
L 466.270742 -275.627428 
L 470.506928 -273.323111 
L 474.895414 -271.018793 
L 479.410858 -268.714476 
L 484.019398 -266.410159 
L 488.677416 -264.105842 
L 493.33054 -261.801525 
L 497.913031 -259.497208 
L 502.347721 -257.19289 
L 506.546668 -254.888573 
L 510.412685 -252.584256 
L 513.841865 -250.279939 
L 516.727115 -247.975622 
L 518.962649 -245.671304 
L 520.449252 -243.366987 
L 521.1 -241.06267 
L 520.846038 -238.758353 
L 519.641934 -236.454036 
L 517.470109 -234.149719 
L 514.343876 -231.845401 
L 510.308727 -229.541084 
L 505.441624 -227.236767 
L 499.848272 -224.93245 
L 493.658487 -222.628133 
L 487.020003 -220.323815 
L 480.091191 -218.019498 
L 473.033256 -215.715181 
L 466.002523 -213.410864 
L 459.143395 -211.106547 
L 452.582472 -208.802229 
L 446.424191 -206.497912 
L 440.748187 -204.193595 
L 435.608396 -201.889278 
L 431.03379 -199.584961 
L 427.030481 -197.280644 
L 423.584868 -194.976326 
L 420.667441 -192.672009 
L 418.23688 -190.367692 
L 416.2441 -188.063375 
L 414.63597 -185.759058 
z
" style="stroke: #595959; stroke-width: 1.5"/>
                </defs>
                <g clip-path="url(#pf2c239ffcd)">
                    <use xlink:href="#m8099264661" x="0" y="720"
                         style="fill: #72b6a1; stroke: #595959; stroke-width: 1.5"/>
                </g>
            </g>
            <g id="PolyCollection_2">
                <defs>
                    <path id="m1b1cbd8a85" d="M 693.61017 -130.572327
L 683.38983 -130.572327 
L 682.073286 -135.398869 
L 680.497912 -140.225411 
L 678.635133 -145.051953 
L 676.458889 -149.878495 
L 673.94729 -154.705038 
L 671.084383 -159.53158 
L 667.861959 -164.358122 
L 664.281294 -169.184664 
L 660.354682 -174.011206 
L 656.106651 -178.837748 
L 651.57472 -183.664291 
L 646.809582 -188.490833 
L 641.874639 -193.317375 
L 636.844826 -198.143917 
L 631.804719 -202.970459 
L 626.845991 -207.797001 
L 622.06429 -212.623543 
L 617.555712 -217.450086 
L 613.413053 -222.276628 
L 609.722054 -227.10317 
L 606.557878 -231.929712 
L 603.982041 -236.756254 
L 602.039993 -241.582796 
L 600.759513 -246.409339 
L 600.15 -251.235881 
L 600.202707 -256.062423 
L 600.891873 -260.888965 
L 602.176642 -265.715507 
L 604.003633 -270.542049 
L 606.309924 -275.368591 
L 609.026271 -280.195134 
L 612.080291 -285.021676 
L 615.39944 -289.848218 
L 618.91359 -294.67476 
L 622.557082 -299.501302 
L 626.270192 -304.327844 
L 629.999991 -309.154387 
L 633.70063 -313.980929 
L 637.333158 -318.807471 
L 640.864961 -323.634013 
L 644.268973 -328.460555 
L 647.522787 -333.287097 
L 650.607799 -338.113639 
L 653.508476 -342.940182 
L 656.211818 -347.766724 
L 658.707065 -352.593266 
L 660.985628 -357.419808 
L 663.041233 -362.24635 
L 664.870204 -367.072892 
L 666.47184 -371.899435 
L 667.848774 -376.725977 
L 669.007276 -381.552519 
L 669.957404 -386.379061 
L 670.712976 -391.205603 
L 671.291327 -396.032145 
L 671.712855 -400.858687 
L 672.000369 -405.68523 
L 672.178282 -410.511772 
L 672.271703 -415.338314 
L 672.305494 -420.164856 
L 672.303354 -424.991398 
L 672.286999 -429.81794 
L 672.27549 -434.644483 
L 672.28475 -439.471025 
L 672.327296 -444.297567 
L 672.412188 -449.124109 
L 672.54519 -453.950651 
L 672.7291 -458.777193 
L 672.964222 -463.603735 
L 673.248914 -468.430278 
L 673.580175 -473.25682 
L 673.954197 -478.083362 
L 674.366862 -482.909904 
L 674.814122 -487.736446 
L 675.292266 -492.562988 
L 675.798049 -497.38953 
L 676.3287 -502.216073 
L 676.881823 -507.042615 
L 677.455228 -511.869157 
L 678.046716 -516.695699 
L 678.653862 -521.522241 
L 679.273821 -526.348783 
L 679.903197 -531.175326 
L 680.53797 -536.001868 
L 681.173516 -540.82841 
L 681.804694 -545.654952 
L 682.426009 -550.481494 
L 683.031821 -555.308036 
L 683.616584 -560.134578 
L 684.175088 -564.961121 
L 684.702689 -569.787663 
L 685.195499 -574.614205 
L 685.650531 -579.440747 
L 686.065785 -584.267289 
L 686.440268 -589.093831 
L 686.77397 -593.920374 
L 687.06778 -598.746916 
L 687.323369 -603.573458 
L 687.543042 -608.4 
L 689.456958 -608.4 
L 689.456958 -608.4 
L 689.676631 -603.573458 
L 689.93222 -598.746916 
L 690.22603 -593.920374 
L 690.559732 -589.093831 
L 690.934215 -584.267289 
L 691.349469 -579.440747 
L 691.804501 -574.614205 
L 692.297311 -569.787663 
L 692.824912 -564.961121 
L 693.383416 -560.134578 
L 693.968179 -555.308036 
L 694.573991 -550.481494 
L 695.195306 -545.654952 
L 695.826484 -540.82841 
L 696.46203 -536.001868 
L 697.096803 -531.175326 
L 697.726179 -526.348783 
L 698.346138 -521.522241 
L 698.953284 -516.695699 
L 699.544772 -511.869157 
L 700.118177 -507.042615 
L 700.6713 -502.216073 
L 701.201951 -497.38953 
L 701.707734 -492.562988 
L 702.185878 -487.736446 
L 702.633138 -482.909904 
L 703.045803 -478.083362 
L 703.419825 -473.25682 
L 703.751086 -468.430278 
L 704.035778 -463.603735 
L 704.2709 -458.777193 
L 704.45481 -453.950651 
L 704.587812 -449.124109 
L 704.672704 -444.297567 
L 704.71525 -439.471025 
L 704.72451 -434.644483 
L 704.713001 -429.81794 
L 704.696646 -424.991398 
L 704.694506 -420.164856 
L 704.728297 -415.338314 
L 704.821718 -410.511772 
L 704.999631 -405.68523 
L 705.287145 -400.858687 
L 705.708673 -396.032145 
L 706.287024 -391.205603 
L 707.042596 -386.379061 
L 707.992724 -381.552519 
L 709.151226 -376.725977 
L 710.52816 -371.899435 
L 712.129796 -367.072892 
L 713.958767 -362.24635 
L 716.014372 -357.419808 
L 718.292935 -352.593266 
L 720.788182 -347.766724 
L 723.491524 -342.940182 
L 726.392201 -338.113639 
L 729.477213 -333.287097 
L 732.731027 -328.460555 
L 736.135039 -323.634013 
L 739.666842 -318.807471 
L 743.29937 -313.980929 
L 747.000009 -309.154387 
L 750.729808 -304.327844 
L 754.442918 -299.501302 
L 758.08641 -294.67476 
L 761.60056 -289.848218 
L 764.919709 -285.021676 
L 767.973729 -280.195134 
L 770.690076 -275.368591 
L 772.996367 -270.542049 
L 774.823358 -265.715507 
L 776.108127 -260.888965 
L 776.797293 -256.062423 
L 776.85 -251.235881 
L 776.240487 -246.409339 
L 774.960007 -241.582796 
L 773.017959 -236.756254 
L 770.442122 -231.929712 
L 767.277946 -227.10317 
L 763.586947 -222.276628 
L 759.444288 -217.450086 
L 754.93571 -212.623543 
L 750.154009 -207.797001 
L 745.195281 -202.970459 
L 740.155174 -198.143917 
L 735.125361 -193.317375 
L 730.190418 -188.490833 
L 725.42528 -183.664291 
L 720.893349 -178.837748 
L 716.645318 -174.011206 
L 712.718706 -169.184664 
L 709.138041 -164.358122 
L 705.915617 -159.53158 
L 703.05271 -154.705038 
L 700.541111 -149.878495 
L 698.364867 -145.051953 
L 696.502088 -140.225411 
L 694.926714 -135.398869 
L 693.61017 -130.572327 
z
" style="stroke: #595959; stroke-width: 1.5"/>
                </defs>
                <g clip-path="url(#pf2c239ffcd)">
                    <use xlink:href="#m1b1cbd8a85" x="0" y="720"
                         style="fill: #e99675; stroke: #595959; stroke-width: 1.5"/>
                </g>
            </g>
            <g id="PolyCollection_3">
                <defs>
                    <path id="m32ae457f42" d="M 970.005156 -163.444728
L 964.994844 -163.444728 
L 964.492579 -166.020079 
L 963.913382 -168.595429 
L 963.250654 -171.17078 
L 962.498264 -173.74613 
L 961.650788 -176.321481 
L 960.703756 -178.896831 
L 959.653903 -181.472182 
L 958.499425 -184.047532 
L 957.24021 -186.622883 
L 955.878047 -189.198233 
L 954.416806 -191.773584 
L 952.86256 -194.348934 
L 951.223657 -196.924285 
L 949.510728 -199.499636 
L 947.736625 -202.074986 
L 945.916282 -204.650337 
L 944.066513 -207.225687 
L 942.205731 -209.801038 
L 940.353611 -212.376388 
L 938.530694 -214.951739 
L 936.757956 -217.527089 
L 935.056343 -220.10244 
L 933.446295 -222.67779 
L 931.947278 -225.253141 
L 930.577329 -227.828491 
L 929.35264 -230.403842 
L 928.28719 -232.979192 
L 927.392437 -235.554543 
L 926.677076 -238.129893 
L 926.146879 -240.705244 
L 925.804606 -243.280595 
L 925.65 -245.855945 
L 925.679855 -248.431296 
L 925.888156 -251.006646 
L 926.266284 -253.581997 
L 926.803268 -256.157347 
L 927.486091 -258.732698 
L 928.300022 -261.308048 
L 929.228972 -263.883399 
L 930.255865 -266.458749 
L 931.363005 -269.0341 
L 932.532438 -271.60945 
L 933.746304 -274.184801 
L 934.987158 -276.760151 
L 936.238273 -279.335502 
L 937.483908 -281.910852 
L 938.709542 -284.486203 
L 939.902079 -287.061554 
L 941.050006 -289.636904 
L 942.143525 -292.212255 
L 943.174643 -294.787605 
L 944.137228 -297.362956 
L 945.027027 -299.938306 
L 945.841653 -302.513657 
L 946.580536 -305.089007 
L 947.244845 -307.664358 
L 947.837373 -310.239708 
L 948.362404 -312.815059 
L 948.825544 -315.390409 
L 949.233535 -317.96576 
L 949.594045 -320.54111 
L 949.91545 -323.116461 
L 950.206595 -325.691812 
L 950.476562 -328.267162 
L 950.734422 -330.842513 
L 950.989011 -333.417863 
L 951.248701 -335.993214 
L 951.5212 -338.568564 
L 951.813369 -341.143915 
L 952.131066 -343.719265 
L 952.479022 -346.294616 
L 952.860758 -348.869966 
L 953.278523 -351.445317 
L 953.733287 -354.020667 
L 954.224762 -356.596018 
L 954.751456 -359.171368 
L 955.31077 -361.746719 
L 955.899113 -364.322069 
L 956.512051 -366.89742 
L 957.14447 -369.472771 
L 957.790751 -372.048121 
L 958.444957 -374.623472 
L 959.101014 -377.198822 
L 959.752889 -379.774173 
L 960.394756 -382.349523 
L 961.021145 -384.924874 
L 961.627067 -387.500224 
L 962.208121 -390.075575 
L 962.760567 -392.650925 
L 963.281378 -395.226276 
L 963.768263 -397.801626 
L 964.219665 -400.376977 
L 964.634736 -402.952327 
L 965.013291 -405.527678 
L 965.355753 -408.103029 
L 965.663074 -410.678379 
L 965.936655 -413.25373 
L 966.178266 -415.82908 
L 966.389953 -418.404431 
L 968.610047 -418.404431 
L 968.610047 -418.404431 
L 968.821734 -415.82908 
L 969.063345 -413.25373 
L 969.336926 -410.678379 
L 969.644247 -408.103029 
L 969.986709 -405.527678 
L 970.365264 -402.952327 
L 970.780335 -400.376977 
L 971.231737 -397.801626 
L 971.718622 -395.226276 
L 972.239433 -392.650925 
L 972.791879 -390.075575 
L 973.372933 -387.500224 
L 973.978855 -384.924874 
L 974.605244 -382.349523 
L 975.247111 -379.774173 
L 975.898986 -377.198822 
L 976.555043 -374.623472 
L 977.209249 -372.048121 
L 977.85553 -369.472771 
L 978.487949 -366.89742 
L 979.100887 -364.322069 
L 979.68923 -361.746719 
L 980.248544 -359.171368 
L 980.775238 -356.596018 
L 981.266713 -354.020667 
L 981.721477 -351.445317 
L 982.139242 -348.869966 
L 982.520978 -346.294616 
L 982.868934 -343.719265 
L 983.186631 -341.143915 
L 983.4788 -338.568564 
L 983.751299 -335.993214 
L 984.010989 -333.417863 
L 984.265578 -330.842513 
L 984.523438 -328.267162 
L 984.793405 -325.691812 
L 985.08455 -323.116461 
L 985.405955 -320.54111 
L 985.766465 -317.96576 
L 986.174456 -315.390409 
L 986.637596 -312.815059 
L 987.162627 -310.239708 
L 987.755155 -307.664358 
L 988.419464 -305.089007 
L 989.158347 -302.513657 
L 989.972973 -299.938306 
L 990.862772 -297.362956 
L 991.825357 -294.787605 
L 992.856475 -292.212255 
L 993.949994 -289.636904 
L 995.097921 -287.061554 
L 996.290458 -284.486203 
L 997.516092 -281.910852 
L 998.761727 -279.335502 
L 1000.012842 -276.760151 
L 1001.253696 -274.184801 
L 1002.467562 -271.60945 
L 1003.636995 -269.0341 
L 1004.744135 -266.458749 
L 1005.771028 -263.883399 
L 1006.699978 -261.308048 
L 1007.513909 -258.732698 
L 1008.196732 -256.157347 
L 1008.733716 -253.581997 
L 1009.111844 -251.006646 
L 1009.320145 -248.431296 
L 1009.35 -245.855945 
L 1009.195394 -243.280595 
L 1008.853121 -240.705244 
L 1008.322924 -238.129893 
L 1007.607563 -235.554543 
L 1006.71281 -232.979192 
L 1005.64736 -230.403842 
L 1004.422671 -227.828491 
L 1003.052722 -225.253141 
L 1001.553705 -222.67779 
L 999.943657 -220.10244 
L 998.242044 -217.527089 
L 996.469306 -214.951739 
L 994.646389 -212.376388 
L 992.794269 -209.801038 
L 990.933487 -207.225687 
L 989.083718 -204.650337 
L 987.263375 -202.074986 
L 985.489272 -199.499636 
L 983.776343 -196.924285 
L 982.13744 -194.348934 
L 980.583194 -191.773584 
L 979.121953 -189.198233 
L 977.75979 -186.622883 
L 976.500575 -184.047532 
L 975.346097 -181.472182 
L 974.296244 -178.896831 
L 973.349212 -176.321481 
L 972.501736 -173.74613 
L 971.749346 -171.17078 
L 971.086618 -168.595429 
L 970.507421 -166.020079 
L 970.005156 -163.444728 
z
" style="stroke: #595959; stroke-width: 1.5"/>
                </defs>
                <g clip-path="url(#pf2c239ffcd)">
                    <use xlink:href="#m32ae457f42" x="0" y="720"
                         style="fill: #95a3c3; stroke: #595959; stroke-width: 1.5"/>
                </g>
            </g>
            <g id="PolyCollection_4">
                <defs>
                    <path id="m62fcf62b83" d="M 1248.98329 -104.4
L 1244.01671 -104.4 
L 1243.620948 -108.990309 
L 1243.179251 -113.580617 
L 1242.689428 -118.170926 
L 1242.149743 -122.761234 
L 1241.55901 -127.351543 
L 1240.916703 -131.941851 
L 1240.223048 -136.53216 
L 1239.47911 -141.122468 
L 1238.686877 -145.712777 
L 1237.849317 -150.303085 
L 1236.97042 -154.893394 
L 1236.055225 -159.483702 
L 1235.109808 -164.074011 
L 1234.141253 -168.664319 
L 1233.157591 -173.254628 
L 1232.167706 -177.844936 
L 1231.181219 -182.435245 
L 1230.208335 -187.025554 
L 1229.259675 -191.615862 
L 1228.346081 -196.206171 
L 1227.478403 -200.796479 
L 1226.667284 -205.386788 
L 1225.92293 -209.977096 
L 1225.254885 -214.567405 
L 1224.67182 -219.157713 
L 1224.181328 -223.748022 
L 1223.789744 -228.33833 
L 1223.501999 -232.928639 
L 1223.32149 -237.518947 
L 1223.25 -242.109256 
L 1223.287651 -246.699564 
L 1223.432892 -251.289873 
L 1223.682535 -255.880182 
L 1224.031824 -260.47049 
L 1224.474538 -265.060799 
L 1225.003137 -269.651107 
L 1225.608923 -274.241416 
L 1226.282231 -278.831724 
L 1227.012643 -283.422033 
L 1227.789199 -288.012341 
L 1228.600631 -292.60265 
L 1229.435582 -297.192958 
L 1230.282827 -301.783267 
L 1231.131486 -306.373575 
L 1231.971209 -310.963884 
L 1232.792358 -315.554192 
L 1233.586155 -320.144501 
L 1234.344809 -324.734809 
L 1235.061618 -329.325118 
L 1235.731044 -333.915427 
L 1236.348759 -338.505735 
L 1236.911664 -343.096044 
L 1237.417885 -347.686352 
L 1237.866744 -352.276661 
L 1238.258704 -356.866969 
L 1238.595297 -361.457278 
L 1238.879036 -366.047586 
L 1239.113302 -370.637895 
L 1239.302233 -375.228203 
L 1239.450588 -379.818512 
L 1239.563618 -384.40882 
L 1239.646921 -388.999129 
L 1239.706306 -393.589437 
L 1239.747649 -398.179746 
L 1239.776768 -402.770055 
L 1239.799288 -407.360363 
L 1239.820534 -411.950672 
L 1239.845423 -416.54098 
L 1239.878373 -421.131289 
L 1239.923239 -425.721597 
L 1239.983249 -430.311906 
L 1240.060969 -434.902214 
L 1240.158285 -439.492523 
L 1240.276403 -444.082831 
L 1240.415858 -448.67314 
L 1240.576554 -453.263448 
L 1240.757802 -457.853757 
L 1240.958386 -462.444065 
L 1241.176624 -467.034374 
L 1241.41045 -471.624682 
L 1241.65749 -476.214991 
L 1241.915148 -480.8053 
L 1242.180688 -485.395608 
L 1242.451313 -489.985917 
L 1242.724241 -494.576225 
L 1242.996772 -499.166534 
L 1243.26635 -503.756842 
L 1243.530613 -508.347151 
L 1243.787432 -512.937459 
L 1244.034944 -517.527768 
L 1244.271571 -522.118076 
L 1244.496027 -526.708385 
L 1244.707326 -531.298693 
L 1244.904768 -535.889002 
L 1245.087929 -540.47931 
L 1245.256641 -545.069619 
L 1245.410964 -549.659927 
L 1245.551163 -554.250236 
L 1245.677674 -558.840545 
L 1247.322326 -558.840545 
L 1247.322326 -558.840545 
L 1247.448837 -554.250236 
L 1247.589036 -549.659927 
L 1247.743359 -545.069619 
L 1247.912071 -540.47931 
L 1248.095232 -535.889002 
L 1248.292674 -531.298693 
L 1248.503973 -526.708385 
L 1248.728429 -522.118076 
L 1248.965056 -517.527768 
L 1249.212568 -512.937459 
L 1249.469387 -508.347151 
L 1249.73365 -503.756842 
L 1250.003228 -499.166534 
L 1250.275759 -494.576225 
L 1250.548687 -489.985917 
L 1250.819312 -485.395608 
L 1251.084852 -480.8053 
L 1251.34251 -476.214991 
L 1251.58955 -471.624682 
L 1251.823376 -467.034374 
L 1252.041614 -462.444065 
L 1252.242198 -457.853757 
L 1252.423446 -453.263448 
L 1252.584142 -448.67314 
L 1252.723597 -444.082831 
L 1252.841715 -439.492523 
L 1252.939031 -434.902214 
L 1253.016751 -430.311906 
L 1253.076761 -425.721597 
L 1253.121627 -421.131289 
L 1253.154577 -416.54098 
L 1253.179466 -411.950672 
L 1253.200712 -407.360363 
L 1253.223232 -402.770055 
L 1253.252351 -398.179746 
L 1253.293694 -393.589437 
L 1253.353079 -388.999129 
L 1253.436382 -384.40882 
L 1253.549412 -379.818512 
L 1253.697767 -375.228203 
L 1253.886698 -370.637895 
L 1254.120964 -366.047586 
L 1254.404703 -361.457278 
L 1254.741296 -356.866969 
L 1255.133256 -352.276661 
L 1255.582115 -347.686352 
L 1256.088336 -343.096044 
L 1256.651241 -338.505735 
L 1257.268956 -333.915427 
L 1257.938382 -329.325118 
L 1258.655191 -324.734809 
L 1259.413845 -320.144501 
L 1260.207642 -315.554192 
L 1261.028791 -310.963884 
L 1261.868514 -306.373575 
L 1262.717173 -301.783267 
L 1263.564418 -297.192958 
L 1264.399369 -292.60265 
L 1265.210801 -288.012341 
L 1265.987357 -283.422033 
L 1266.717769 -278.831724 
L 1267.391077 -274.241416 
L 1267.996863 -269.651107 
L 1268.525462 -265.060799 
L 1268.968176 -260.47049 
L 1269.317465 -255.880182 
L 1269.567108 -251.289873 
L 1269.712349 -246.699564 
L 1269.75 -242.109256 
L 1269.67851 -237.518947 
L 1269.498001 -232.928639 
L 1269.210256 -228.33833 
L 1268.818672 -223.748022 
L 1268.32818 -219.157713 
L 1267.745115 -214.567405 
L 1267.07707 -209.977096 
L 1266.332716 -205.386788 
L 1265.521597 -200.796479 
L 1264.653919 -196.206171 
L 1263.740325 -191.615862 
L 1262.791665 -187.025554 
L 1261.818781 -182.435245 
L 1260.832294 -177.844936 
L 1259.842409 -173.254628 
L 1258.858747 -168.664319 
L 1257.890192 -164.074011 
L 1256.944775 -159.483702 
L 1256.02958 -154.893394 
L 1255.150683 -150.303085 
L 1254.313123 -145.712777 
L 1253.52089 -141.122468 
L 1252.776952 -136.53216 
L 1252.083297 -131.941851 
L 1251.44099 -127.351543 
L 1250.850257 -122.761234 
L 1250.310572 -118.170926 
L 1249.820749 -113.580617 
L 1249.379052 -108.990309 
L 1248.98329 -104.4 
z
" style="stroke: #595959; stroke-width: 1.5"/>
                </defs>
                <g clip-path="url(#pf2c239ffcd)">
                    <use xlink:href="#m62fcf62b83" x="0" y="720"
                         style="fill: #db96c0; stroke: #595959; stroke-width: 1.5"/>
                </g>
            </g>
            <g id="PolyCollection_5">
                <defs>
                    <path id="m5595ede50a" d="M 1531.5518 -165.826794
L 1519.4482 -165.826794 
L 1517.843442 -169.100729 
L 1515.925483 -172.374664 
L 1513.66523 -175.648599 
L 1511.039266 -178.922534 
L 1508.032183 -182.196469 
L 1504.638872 -185.470404 
L 1500.866633 -188.744339 
L 1496.736892 -192.018273 
L 1492.286352 -195.292208 
L 1487.567415 -198.566143 
L 1482.647736 -201.840078 
L 1477.608865 -205.114013 
L 1472.543958 -208.387948 
L 1467.554653 -211.661883 
L 1462.747258 -214.935818 
L 1458.228486 -218.209753 
L 1454.100979 -221.483688 
L 1450.458955 -224.757622 
L 1447.384231 -228.031557 
L 1444.942907 -231.305492 
L 1443.182912 -234.579427 
L 1442.132534 -237.853362 
L 1441.8 -241.127297 
L 1442.174065 -244.401232 
L 1443.225491 -247.675167 
L 1444.90926 -250.949102 
L 1447.167304 -254.223037 
L 1449.931522 -257.496971 
L 1453.126885 -260.770906 
L 1456.674417 -264.044841 
L 1460.493919 -267.318776 
L 1464.506328 -270.592711 
L 1468.635676 -273.866646 
L 1472.810619 -277.140581 
L 1476.965587 -280.414516 
L 1481.041612 -283.688451 
L 1484.986871 -286.962386 
L 1488.757044 -290.23632 
L 1492.315507 -293.510255 
L 1495.633423 -296.78419 
L 1498.689726 -300.058125 
L 1501.47102 -303.33206 
L 1503.971359 -306.605995 
L 1506.191912 -309.87993 
L 1508.140461 -313.153865 
L 1509.830745 -316.4278 
L 1511.281624 -319.701735 
L 1512.516082 -322.975669 
L 1513.560092 -326.249604 
L 1514.441385 -329.523539 
L 1515.188177 -332.797474 
L 1515.82792 -336.071409 
L 1516.386144 -339.345344 
L 1516.88545 -342.619279 
L 1517.344712 -345.893214 
L 1517.778538 -349.167149 
L 1518.196994 -352.441084 
L 1518.605619 -355.715018 
L 1519.005698 -358.988953 
L 1519.394781 -362.262888 
L 1519.767379 -365.536823 
L 1520.115814 -368.810758 
L 1520.431133 -372.084693 
L 1520.704047 -375.358628 
L 1520.925836 -378.632563 
L 1521.089162 -381.906498 
L 1521.188763 -385.180433 
L 1521.221976 -388.454367 
L 1521.189095 -391.728302 
L 1521.093524 -395.002237 
L 1520.941745 -398.276172 
L 1520.743085 -401.550107 
L 1520.509324 -404.824042 
L 1520.254139 -408.097977 
L 1519.992437 -411.371912 
L 1519.739608 -414.645847 
L 1519.510732 -417.919782 
L 1519.319812 -421.193716 
L 1519.179054 -424.467651 
L 1519.09826 -427.741586 
L 1519.084365 -431.015521 
L 1519.141147 -434.289456 
L 1519.269133 -437.563391 
L 1519.465695 -440.837326 
L 1519.725333 -444.111261 
L 1520.040111 -447.385196 
L 1520.400217 -450.659131 
L 1520.794589 -453.933065 
L 1521.211581 -457.207 
L 1521.639589 -460.480935 
L 1522.06763 -463.75487 
L 1522.485815 -467.028805 
L 1522.885705 -470.30274 
L 1523.260539 -473.576675 
L 1523.605331 -476.85061 
L 1523.916851 -480.124545 
L 1524.193508 -483.39848 
L 1524.435152 -486.672414 
L 1524.642838 -489.946349 
L 1526.357162 -489.946349 
L 1526.357162 -489.946349 
L 1526.564848 -486.672414 
L 1526.806492 -483.39848 
L 1527.083149 -480.124545 
L 1527.394669 -476.85061 
L 1527.739461 -473.576675 
L 1528.114295 -470.30274 
L 1528.514185 -467.028805 
L 1528.93237 -463.75487 
L 1529.360411 -460.480935 
L 1529.788419 -457.207 
L 1530.205411 -453.933065 
L 1530.599783 -450.659131 
L 1530.959889 -447.385196 
L 1531.274667 -444.111261 
L 1531.534305 -440.837326 
L 1531.730867 -437.563391 
L 1531.858853 -434.289456 
L 1531.915635 -431.015521 
L 1531.90174 -427.741586 
L 1531.820946 -424.467651 
L 1531.680188 -421.193716 
L 1531.489268 -417.919782 
L 1531.260392 -414.645847 
L 1531.007563 -411.371912 
L 1530.745861 -408.097977 
L 1530.490676 -404.824042 
L 1530.256915 -401.550107 
L 1530.058255 -398.276172 
L 1529.906476 -395.002237 
L 1529.810905 -391.728302 
L 1529.778024 -388.454367 
L 1529.811237 -385.180433 
L 1529.910838 -381.906498 
L 1530.074164 -378.632563 
L 1530.295953 -375.358628 
L 1530.568867 -372.084693 
L 1530.884186 -368.810758 
L 1531.232621 -365.536823 
L 1531.605219 -362.262888 
L 1531.994302 -358.988953 
L 1532.394381 -355.715018 
L 1532.803006 -352.441084 
L 1533.221462 -349.167149 
L 1533.655288 -345.893214 
L 1534.11455 -342.619279 
L 1534.613856 -339.345344 
L 1535.17208 -336.071409 
L 1535.811823 -332.797474 
L 1536.558615 -329.523539 
L 1537.439908 -326.249604 
L 1538.483918 -322.975669 
L 1539.718376 -319.701735 
L 1541.169255 -316.4278 
L 1542.859539 -313.153865 
L 1544.808088 -309.87993 
L 1547.028641 -306.605995 
L 1549.52898 -303.33206 
L 1552.310274 -300.058125 
L 1555.366577 -296.78419 
L 1558.684493 -293.510255 
L 1562.242956 -290.23632 
L 1566.013129 -286.962386 
L 1569.958388 -283.688451 
L 1574.034413 -280.414516 
L 1578.189381 -277.140581 
L 1582.364324 -273.866646 
L 1586.493672 -270.592711 
L 1590.506081 -267.318776 
L 1594.325583 -264.044841 
L 1597.873115 -260.770906 
L 1601.068478 -257.496971 
L 1603.832696 -254.223037 
L 1606.09074 -250.949102 
L 1607.774509 -247.675167 
L 1608.825935 -244.401232 
L 1609.2 -241.127297 
L 1608.867466 -237.853362 
L 1607.817088 -234.579427 
L 1606.057093 -231.305492 
L 1603.615769 -228.031557 
L 1600.541045 -224.757622 
L 1596.899021 -221.483688 
L 1592.771514 -218.209753 
L 1588.252742 -214.935818 
L 1583.445347 -211.661883 
L 1578.456042 -208.387948 
L 1573.391135 -205.114013 
L 1568.352264 -201.840078 
L 1563.432585 -198.566143 
L 1558.713648 -195.292208 
L 1554.263108 -192.018273 
L 1550.133367 -188.744339 
L 1546.361128 -185.470404 
L 1542.967817 -182.196469 
L 1539.960734 -178.922534 
L 1537.33477 -175.648599 
L 1535.074517 -172.374664 
L 1533.156558 -169.100729 
L 1531.5518 -165.826794 
z
" style="stroke: #595959; stroke-width: 1.5"/>
                </defs>
                <g clip-path="url(#pf2c239ffcd)">
                    <use xlink:href="#m5595ede50a" x="0" y="720"
                         style="fill: #a2c865; stroke: #595959; stroke-width: 1.5"/>
                </g>
            </g>
            <g id="PolyCollection_6">
                <defs>
                    <path id="mc8a9ac8559" d="M 1806.022469 -143.16638
L 1802.977531 -143.16638 
L 1802.676663 -146.737884 
L 1802.32902 -150.309387 
L 1801.930089 -153.880891 
L 1801.475476 -157.452395 
L 1800.96104 -161.023899 
L 1800.383039 -164.595402 
L 1799.738289 -168.166906 
L 1799.024333 -171.73841 
L 1798.239613 -175.309914 
L 1797.383641 -178.881417 
L 1796.457166 -182.452921 
L 1795.46232 -186.024425 
L 1794.402744 -189.595929 
L 1793.283691 -193.167432 
L 1792.112076 -196.738936 
L 1790.896506 -200.31044 
L 1789.647235 -203.881944 
L 1788.376092 -207.453447 
L 1787.096332 -211.024951 
L 1785.822451 -214.596455 
L 1784.569934 -218.167959 
L 1783.354961 -221.739462 
L 1782.194076 -225.310966 
L 1781.103814 -228.88247 
L 1780.100314 -232.453974 
L 1779.198922 -236.025477 
L 1778.413792 -239.596981 
L 1777.757517 -243.168485 
L 1777.240775 -246.739989 
L 1776.872038 -250.311492 
L 1776.65732 -253.882996 
L 1776.6 -257.4545 
L 1776.700714 -261.026004 
L 1776.957323 -264.597507 
L 1777.364955 -268.169011 
L 1777.916128 -271.740515 
L 1778.600943 -275.312019 
L 1779.407333 -278.883522 
L 1780.321375 -282.455026 
L 1781.327642 -286.02653 
L 1782.409577 -289.598034 
L 1783.549897 -293.169537 
L 1784.730992 -296.741041 
L 1785.935315 -300.312545 
L 1787.145756 -303.884049 
L 1788.345986 -307.455552 
L 1789.520756 -311.027056 
L 1790.656161 -314.59856 
L 1791.73985 -318.170064 
L 1792.761187 -321.741567 
L 1793.711366 -325.313071 
L 1794.583467 -328.884575 
L 1795.372481 -332.456079 
L 1796.075278 -336.027582 
L 1796.690548 -339.599086 
L 1797.218708 -343.17059 
L 1797.661774 -346.742094 
L 1798.023221 -350.313597 
L 1798.307821 -353.885101 
L 1798.521461 -357.456605 
L 1798.670965 -361.028108 
L 1798.763898 -364.599612 
L 1798.808368 -368.171116 
L 1798.81284 -371.74262 
L 1798.785937 -375.314123 
L 1798.736257 -378.885627 
L 1798.672196 -382.457131 
L 1798.601781 -386.028635 
L 1798.532515 -389.600138 
L 1798.471249 -393.171642 
L 1798.424058 -396.743146 
L 1798.396153 -400.31465 
L 1798.391804 -403.886153 
L 1798.414304 -407.457657 
L 1798.465941 -411.029161 
L 1798.548012 -414.600665 
L 1798.660852 -418.172168 
L 1798.80389 -421.743672 
L 1798.975734 -425.315176 
L 1799.17426 -428.88668 
L 1799.396727 -432.458183 
L 1799.639902 -436.029687 
L 1799.900185 -439.601191 
L 1800.173738 -443.172695 
L 1800.456616 -446.744198 
L 1800.744886 -450.315702 
L 1801.034733 -453.887206 
L 1801.32256 -457.45871 
L 1801.605068 -461.030213 
L 1801.879316 -464.601717 
L 1802.142768 -468.173221 
L 1802.393323 -471.744725 
L 1802.629321 -475.316228 
L 1802.849543 -478.887732 
L 1803.053191 -482.459236 
L 1803.239859 -486.03074 
L 1803.409497 -489.602243 
L 1803.562365 -493.173747 
L 1803.698987 -496.745251 
L 1805.301013 -496.745251 
L 1805.301013 -496.745251 
L 1805.437635 -493.173747 
L 1805.590503 -489.602243 
L 1805.760141 -486.03074 
L 1805.946809 -482.459236 
L 1806.150457 -478.887732 
L 1806.370679 -475.316228 
L 1806.606677 -471.744725 
L 1806.857232 -468.173221 
L 1807.120684 -464.601717 
L 1807.394932 -461.030213 
L 1807.67744 -457.45871 
L 1807.965267 -453.887206 
L 1808.255114 -450.315702 
L 1808.543384 -446.744198 
L 1808.826262 -443.172695 
L 1809.099815 -439.601191 
L 1809.360098 -436.029687 
L 1809.603273 -432.458183 
L 1809.82574 -428.88668 
L 1810.024266 -425.315176 
L 1810.19611 -421.743672 
L 1810.339148 -418.172168 
L 1810.451988 -414.600665 
L 1810.534059 -411.029161 
L 1810.585696 -407.457657 
L 1810.608196 -403.886153 
L 1810.603847 -400.31465 
L 1810.575942 -396.743146 
L 1810.528751 -393.171642 
L 1810.467485 -389.600138 
L 1810.398219 -386.028635 
L 1810.327804 -382.457131 
L 1810.263743 -378.885627 
L 1810.214063 -375.314123 
L 1810.18716 -371.74262 
L 1810.191632 -368.171116 
L 1810.236102 -364.599612 
L 1810.329035 -361.028108 
L 1810.478539 -357.456605 
L 1810.692179 -353.885101 
L 1810.976779 -350.313597 
L 1811.338226 -346.742094 
L 1811.781292 -343.17059 
L 1812.309452 -339.599086 
L 1812.924722 -336.027582 
L 1813.627519 -332.456079 
L 1814.416533 -328.884575 
L 1815.288634 -325.313071 
L 1816.238813 -321.741567 
L 1817.26015 -318.170064 
L 1818.343839 -314.59856 
L 1819.479244 -311.027056 
L 1820.654014 -307.455552 
L 1821.854244 -303.884049 
L 1823.064685 -300.312545 
L 1824.269008 -296.741041 
L 1825.450103 -293.169537 
L 1826.590423 -289.598034 
L 1827.672358 -286.02653 
L 1828.678625 -282.455026 
L 1829.592667 -278.883522 
L 1830.399057 -275.312019 
L 1831.083872 -271.740515 
L 1831.635045 -268.169011 
L 1832.042677 -264.597507 
L 1832.299286 -261.026004 
L 1832.4 -257.4545 
L 1832.34268 -253.882996 
L 1832.127962 -250.311492 
L 1831.759225 -246.739989 
L 1831.242483 -243.168485 
L 1830.586208 -239.596981 
L 1829.801078 -236.025477 
L 1828.899686 -232.453974 
L 1827.896186 -228.88247 
L 1826.805924 -225.310966 
L 1825.645039 -221.739462 
L 1824.430066 -218.167959 
L 1823.177549 -214.596455 
L 1821.903668 -211.024951 
L 1820.623908 -207.453447 
L 1819.352765 -203.881944 
L 1818.103494 -200.31044 
L 1816.887924 -196.738936 
L 1815.716309 -193.167432 
L 1814.597256 -189.595929 
L 1813.53768 -186.024425 
L 1812.542834 -182.452921 
L 1811.616359 -178.881417 
L 1810.760387 -175.309914 
L 1809.975667 -171.73841 
L 1809.261711 -168.166906 
L 1808.616961 -164.595402 
L 1808.03896 -161.023899 
L 1807.524524 -157.452395 
L 1807.069911 -153.880891 
L 1806.67098 -150.309387 
L 1806.323337 -146.737884 
L 1806.022469 -143.16638 
z
" style="stroke: #595959; stroke-width: 1.5"/>
                </defs>
                <g clip-path="url(#pf2c239ffcd)">
                    <use xlink:href="#mc8a9ac8559" x="0" y="720"
                         style="fill: #e5c849; stroke: #595959; stroke-width: 1.5"/>
                </g>
            </g>
            <g id="matplotlib.axis_1">
                <g id="xtick_1">
                    <g id="line2d_1">
                        <defs>
                            <path id="mfeead32a26" d="M 0 0
L 0 3.5 
" style="stroke: #000000; stroke-width: 0.8"/>
                        </defs>
                        <g>
                            <use xlink:href="#mfeead32a26" x="409.5" y="640.8"
                                 style="stroke: #000000; stroke-width: 0.8"/>
                        </g>
                    </g>
                    <g id="text_1">
                        <!-- 1 -->
                        <g transform="translate(403.1375 662.996875)scale(0.2 -0.2)">
                            <defs>
                                <path id="DejaVuSans-31" d="M 794 531
L 1825 531 
L 1825 4091 
L 703 3866 
L 703 4441 
L 1819 4666 
L 2450 4666 
L 2450 531 
L 3481 531 
L 3481 0 
L 794 0 
L 794 531 
z
" transform="scale(0.015625)"/>
                            </defs>
                            <use xlink:href="#DejaVuSans-31"/>
                        </g>
                    </g>
                </g>
                <g id="xtick_2">
                    <g id="line2d_2">
                        <g>
                            <use xlink:href="#mfeead32a26" x="688.5" y="640.8"
                                 style="stroke: #000000; stroke-width: 0.8"/>
                        </g>
                    </g>
                    <g id="text_2">
                        <!-- 2 -->
                        <g transform="translate(682.1375 662.996875)scale(0.2 -0.2)">
                            <defs>
                                <path id="DejaVuSans-32" d="M 1228 531
L 3431 531 
L 3431 0 
L 469 0 
L 469 531 
Q 828 903 1448 1529 
Q 2069 2156 2228 2338 
Q 2531 2678 2651 2914 
Q 2772 3150 2772 3378 
Q 2772 3750 2511 3984 
Q 2250 4219 1831 4219 
Q 1534 4219 1204 4116 
Q 875 4013 500 3803 
L 500 4441 
Q 881 4594 1212 4672 
Q 1544 4750 1819 4750 
Q 2544 4750 2975 4387 
Q 3406 4025 3406 3419 
Q 3406 3131 3298 2873 
Q 3191 2616 2906 2266 
Q 2828 2175 2409 1742 
Q 1991 1309 1228 531 
z
" transform="scale(0.015625)"/>
                            </defs>
                            <use xlink:href="#DejaVuSans-32"/>
                        </g>
                    </g>
                </g>
                <g id="xtick_3">
                    <g id="line2d_3">
                        <g>
                            <use xlink:href="#mfeead32a26" x="967.5" y="640.8"
                                 style="stroke: #000000; stroke-width: 0.8"/>
                        </g>
                    </g>
                    <g id="text_3">
                        <!-- 3 -->
                        <g transform="translate(961.1375 662.996875)scale(0.2 -0.2)">
                            <defs>
                                <path id="DejaVuSans-33" d="M 2597 2516
Q 3050 2419 3304 2112 
Q 3559 1806 3559 1356 
Q 3559 666 3084 287 
Q 2609 -91 1734 -91 
Q 1441 -91 1130 -33 
Q 819 25 488 141 
L 488 750 
Q 750 597 1062 519 
Q 1375 441 1716 441 
Q 2309 441 2620 675 
Q 2931 909 2931 1356 
Q 2931 1769 2642 2001 
Q 2353 2234 1838 2234 
L 1294 2234 
L 1294 2753 
L 1863 2753 
Q 2328 2753 2575 2939 
Q 2822 3125 2822 3475 
Q 2822 3834 2567 4026 
Q 2313 4219 1838 4219 
Q 1578 4219 1281 4162 
Q 984 4106 628 3988 
L 628 4550 
Q 988 4650 1302 4700 
Q 1616 4750 1894 4750 
Q 2613 4750 3031 4423 
Q 3450 4097 3450 3541 
Q 3450 3153 3228 2886 
Q 3006 2619 2597 2516 
z
" transform="scale(0.015625)"/>
                            </defs>
                            <use xlink:href="#DejaVuSans-33"/>
                        </g>
                    </g>
                </g>
                <g id="xtick_4">
                    <g id="line2d_4">
                        <g>
                            <use xlink:href="#mfeead32a26" x="1246.5" y="640.8"
                                 style="stroke: #000000; stroke-width: 0.8"/>
                        </g>
                    </g>
                    <g id="text_4">
                        <!-- 4 -->
                        <g transform="translate(1240.1375 662.996875)scale(0.2 -0.2)">
                            <defs>
                                <path id="DejaVuSans-34" d="M 2419 4116
L 825 1625 
L 2419 1625 
L 2419 4116 
z
M 2253 4666 
L 3047 4666 
L 3047 1625 
L 3713 1625 
L 3713 1100 
L 3047 1100 
L 3047 0 
L 2419 0 
L 2419 1100 
L 313 1100 
L 313 1709 
L 2253 4666 
z
" transform="scale(0.015625)"/>
                            </defs>
                            <use xlink:href="#DejaVuSans-34"/>
                        </g>
                    </g>
                </g>
                <g id="xtick_5">
                    <g id="line2d_5">
                        <g>
                            <use xlink:href="#mfeead32a26" x="1525.5" y="640.8"
                                 style="stroke: #000000; stroke-width: 0.8"/>
                        </g>
                    </g>
                    <g id="text_5">
                        <!-- 5 -->
                        <g transform="translate(1519.1375 662.996875)scale(0.2 -0.2)">
                            <defs>
                                <path id="DejaVuSans-35" d="M 691 4666
L 3169 4666 
L 3169 4134 
L 1269 4134 
L 1269 2991 
Q 1406 3038 1543 3061 
Q 1681 3084 1819 3084 
Q 2600 3084 3056 2656 
Q 3513 2228 3513 1497 
Q 3513 744 3044 326 
Q 2575 -91 1722 -91 
Q 1428 -91 1123 -41 
Q 819 9 494 109 
L 494 744 
Q 775 591 1075 516 
Q 1375 441 1709 441 
Q 2250 441 2565 725 
Q 2881 1009 2881 1497 
Q 2881 1984 2565 2268 
Q 2250 2553 1709 2553 
Q 1456 2553 1204 2497 
Q 953 2441 691 2322 
L 691 4666 
z
" transform="scale(0.015625)"/>
                            </defs>
                            <use xlink:href="#DejaVuSans-35"/>
                        </g>
                    </g>
                </g>
                <g id="xtick_6">
                    <g id="line2d_6">
                        <g>
                            <use xlink:href="#mfeead32a26" x="1804.5" y="640.8"
                                 style="stroke: #000000; stroke-width: 0.8"/>
                        </g>
                    </g>
                    <g id="text_6">
                        <!-- 6 -->
                        <g transform="translate(1798.1375 662.996875)scale(0.2 -0.2)">
                            <defs>
                                <path id="DejaVuSans-36" d="M 2113 2584
Q 1688 2584 1439 2293 
Q 1191 2003 1191 1497 
Q 1191 994 1439 701 
Q 1688 409 2113 409 
Q 2538 409 2786 701 
Q 3034 994 3034 1497 
Q 3034 2003 2786 2293 
Q 2538 2584 2113 2584 
z
M 3366 4563 
L 3366 3988 
Q 3128 4100 2886 4159 
Q 2644 4219 2406 4219 
Q 1781 4219 1451 3797 
Q 1122 3375 1075 2522 
Q 1259 2794 1537 2939 
Q 1816 3084 2150 3084 
Q 2853 3084 3261 2657 
Q 3669 2231 3669 1497 
Q 3669 778 3244 343 
Q 2819 -91 2113 -91 
Q 1303 -91 875 529 
Q 447 1150 447 2328 
Q 447 3434 972 4092 
Q 1497 4750 2381 4750 
Q 2619 4750 2861 4703 
Q 3103 4656 3366 4563 
z
" transform="scale(0.015625)"/>
                            </defs>
                            <use xlink:href="#DejaVuSans-36"/>
                        </g>
                    </g>
                </g>
                <g id="text_7">
                    <!-- cluster -->
                    <g transform="translate(1072.992188 686.353125)scale(0.2 -0.2)">
                        <defs>
                            <path id="DejaVuSans-63" d="M 3122 3366
L 3122 2828 
Q 2878 2963 2633 3030 
Q 2388 3097 2138 3097 
Q 1578 3097 1268 2742 
Q 959 2388 959 1747 
Q 959 1106 1268 751 
Q 1578 397 2138 397 
Q 2388 397 2633 464 
Q 2878 531 3122 666 
L 3122 134 
Q 2881 22 2623 -34 
Q 2366 -91 2075 -91 
Q 1284 -91 818 406 
Q 353 903 353 1747 
Q 353 2603 823 3093 
Q 1294 3584 2113 3584 
Q 2378 3584 2631 3529 
Q 2884 3475 3122 3366 
z
" transform="scale(0.015625)"/>
                            <path id="DejaVuSans-6c" d="M 603 4863
L 1178 4863 
L 1178 0 
L 603 0 
L 603 4863 
z
" transform="scale(0.015625)"/>
                            <path id="DejaVuSans-75" d="M 544 1381
L 544 3500 
L 1119 3500 
L 1119 1403 
Q 1119 906 1312 657 
Q 1506 409 1894 409 
Q 2359 409 2629 706 
Q 2900 1003 2900 1516 
L 2900 3500 
L 3475 3500 
L 3475 0 
L 2900 0 
L 2900 538 
Q 2691 219 2414 64 
Q 2138 -91 1772 -91 
Q 1169 -91 856 284 
Q 544 659 544 1381 
z
M 1991 3584 
L 1991 3584 
z
" transform="scale(0.015625)"/>
                            <path id="DejaVuSans-73" d="M 2834 3397
L 2834 2853 
Q 2591 2978 2328 3040 
Q 2066 3103 1784 3103 
Q 1356 3103 1142 2972 
Q 928 2841 928 2578 
Q 928 2378 1081 2264 
Q 1234 2150 1697 2047 
L 1894 2003 
Q 2506 1872 2764 1633 
Q 3022 1394 3022 966 
Q 3022 478 2636 193 
Q 2250 -91 1575 -91 
Q 1294 -91 989 -36 
Q 684 19 347 128 
L 347 722 
Q 666 556 975 473 
Q 1284 391 1588 391 
Q 1994 391 2212 530 
Q 2431 669 2431 922 
Q 2431 1156 2273 1281 
Q 2116 1406 1581 1522 
L 1381 1569 
Q 847 1681 609 1914 
Q 372 2147 372 2553 
Q 372 3047 722 3315 
Q 1072 3584 1716 3584 
Q 2034 3584 2315 3537 
Q 2597 3491 2834 3397 
z
" transform="scale(0.015625)"/>
                            <path id="DejaVuSans-74" d="M 1172 4494
L 1172 3500 
L 2356 3500 
L 2356 3053 
L 1172 3053 
L 1172 1153 
Q 1172 725 1289 603 
Q 1406 481 1766 481 
L 2356 481 
L 2356 0 
L 1766 0 
Q 1100 0 847 248 
Q 594 497 594 1153 
L 594 3053 
L 172 3053 
L 172 3500 
L 594 3500 
L 594 4494 
L 1172 4494 
z
" transform="scale(0.015625)"/>
                            <path id="DejaVuSans-65" d="M 3597 1894
L 3597 1613 
L 953 1613 
Q 991 1019 1311 708 
Q 1631 397 2203 397 
Q 2534 397 2845 478 
Q 3156 559 3463 722 
L 3463 178 
Q 3153 47 2828 -22 
Q 2503 -91 2169 -91 
Q 1331 -91 842 396 
Q 353 884 353 1716 
Q 353 2575 817 3079 
Q 1281 3584 2069 3584 
Q 2775 3584 3186 3129 
Q 3597 2675 3597 1894 
z
M 3022 2063 
Q 3016 2534 2758 2815 
Q 2500 3097 2075 3097 
Q 1594 3097 1305 2825 
Q 1016 2553 972 2059 
L 3022 2063 
z
" transform="scale(0.015625)"/>
                            <path id="DejaVuSans-72" d="M 2631 2963
Q 2534 3019 2420 3045 
Q 2306 3072 2169 3072 
Q 1681 3072 1420 2755 
Q 1159 2438 1159 1844 
L 1159 0 
L 581 0 
L 581 3500 
L 1159 3500 
L 1159 2956 
Q 1341 3275 1631 3429 
Q 1922 3584 2338 3584 
Q 2397 3584 2469 3576 
Q 2541 3569 2628 3553 
L 2631 2963 
z
" transform="scale(0.015625)"/>
                        </defs>
                        <use xlink:href="#DejaVuSans-63"/>
                        <use xlink:href="#DejaVuSans-6c" x="54.980469"/>
                        <use xlink:href="#DejaVuSans-75" x="82.763672"/>
                        <use xlink:href="#DejaVuSans-73" x="146.142578"/>
                        <use xlink:href="#DejaVuSans-74" x="198.242188"/>
                        <use xlink:href="#DejaVuSans-65" x="237.451172"/>
                        <use xlink:href="#DejaVuSans-72" x="298.974609"/>
                    </g>
                </g>
            </g>
            <g id="matplotlib.axis_2">
                <g id="ytick_1">
                    <g id="line2d_7">
                        <defs>
                            <path id="mdc0fb3bf9b" d="M 0 0
L -3.5 0 
" style="stroke: #000000; stroke-width: 0.8"/>
                        </defs>
                        <g>
                            <use xlink:href="#mdc0fb3bf9b" x="270" y="615.821675"
                                 style="stroke: #000000; stroke-width: 0.8"/>
                        </g>
                    </g>
                    <g id="text_8">
                        <!-- 0 -->
                        <g transform="translate(250.275 623.420113)scale(0.2 -0.2)">
                            <defs>
                                <path id="DejaVuSans-30" d="M 2034 4250
Q 1547 4250 1301 3770 
Q 1056 3291 1056 2328 
Q 1056 1369 1301 889 
Q 1547 409 2034 409 
Q 2525 409 2770 889 
Q 3016 1369 3016 2328 
Q 3016 3291 2770 3770 
Q 2525 4250 2034 4250 
z
M 2034 4750 
Q 2819 4750 3233 4129 
Q 3647 3509 3647 2328 
Q 3647 1150 3233 529 
Q 2819 -91 2034 -91 
Q 1250 -91 836 529 
Q 422 1150 422 2328 
Q 422 3509 836 4129 
Q 1250 4750 2034 4750 
z
" transform="scale(0.015625)"/>
                            </defs>
                            <use xlink:href="#DejaVuSans-30"/>
                        </g>
                    </g>
                </g>
                <g id="ytick_2">
                    <g id="line2d_8">
                        <g>
                            <use xlink:href="#mdc0fb3bf9b" x="270" y="496.481215"
                                 style="stroke: #000000; stroke-width: 0.8"/>
                        </g>
                    </g>
                    <g id="text_9">
                        <!-- 5 -->
                        <g transform="translate(250.275 504.079653)scale(0.2 -0.2)">
                            <use xlink:href="#DejaVuSans-35"/>
                        </g>
                    </g>
                </g>
                <g id="ytick_3">
                    <g id="line2d_9">
                        <g>
                            <use xlink:href="#mdc0fb3bf9b" x="270" y="377.140755"
                                 style="stroke: #000000; stroke-width: 0.8"/>
                        </g>
                    </g>
                    <g id="text_10">
                        <!-- 10 -->
                        <g transform="translate(237.55 384.739193)scale(0.2 -0.2)">
                            <use xlink:href="#DejaVuSans-31"/>
                            <use xlink:href="#DejaVuSans-30" x="63.623047"/>
                        </g>
                    </g>
                </g>
                <g id="ytick_4">
                    <g id="line2d_10">
                        <g>
                            <use xlink:href="#mdc0fb3bf9b" x="270" y="257.800296"
                                 style="stroke: #000000; stroke-width: 0.8"/>
                        </g>
                    </g>
                    <g id="text_11">
                        <!-- 15 -->
                        <g transform="translate(237.55 265.398733)scale(0.2 -0.2)">
                            <use xlink:href="#DejaVuSans-31"/>
                            <use xlink:href="#DejaVuSans-35" x="63.623047"/>
                        </g>
                    </g>
                </g>
                <g id="ytick_5">
                    <g id="line2d_11">
                        <g>
                            <use xlink:href="#mdc0fb3bf9b" x="270" y="138.459836"
                                 style="stroke: #000000; stroke-width: 0.8"/>
                        </g>
                    </g>
                    <g id="text_12">
                        <!-- 20 -->
                        <g transform="translate(237.55 146.058273)scale(0.2 -0.2)">
                            <use xlink:href="#DejaVuSans-32"/>
                            <use xlink:href="#DejaVuSans-30" x="63.623047"/>
                        </g>
                    </g>
                </g>
                <g id="text_13">
                    <!-- log -->
                    <g transform="translate(229.390625 378.845312)rotate(-90)scale(0.2 -0.2)">
                        <defs>
                            <path id="DejaVuSans-6f" d="M 1959 3097
Q 1497 3097 1228 2736 
Q 959 2375 959 1747 
Q 959 1119 1226 758 
Q 1494 397 1959 397 
Q 2419 397 2687 759 
Q 2956 1122 2956 1747 
Q 2956 2369 2687 2733 
Q 2419 3097 1959 3097 
z
M 1959 3584 
Q 2709 3584 3137 3096 
Q 3566 2609 3566 1747 
Q 3566 888 3137 398 
Q 2709 -91 1959 -91 
Q 1206 -91 779 398 
Q 353 888 353 1747 
Q 353 2609 779 3096 
Q 1206 3584 1959 3584 
z
" transform="scale(0.015625)"/>
                            <path id="DejaVuSans-67" d="M 2906 1791
Q 2906 2416 2648 2759 
Q 2391 3103 1925 3103 
Q 1463 3103 1205 2759 
Q 947 2416 947 1791 
Q 947 1169 1205 825 
Q 1463 481 1925 481 
Q 2391 481 2648 825 
Q 2906 1169 2906 1791 
z
M 3481 434 
Q 3481 -459 3084 -895 
Q 2688 -1331 1869 -1331 
Q 1566 -1331 1297 -1286 
Q 1028 -1241 775 -1147 
L 775 -588 
Q 1028 -725 1275 -790 
Q 1522 -856 1778 -856 
Q 2344 -856 2625 -561 
Q 2906 -266 2906 331 
L 2906 616 
Q 2728 306 2450 153 
Q 2172 0 1784 0 
Q 1141 0 747 490 
Q 353 981 353 1791 
Q 353 2603 747 3093 
Q 1141 3584 1784 3584 
Q 2172 3584 2450 3431 
Q 2728 3278 2906 2969 
L 2906 3500 
L 3481 3500 
L 3481 434 
z
" transform="scale(0.015625)"/>
                        </defs>
                        <use xlink:href="#DejaVuSans-6c"/>
                        <use xlink:href="#DejaVuSans-6f" x="27.783203"/>
                        <use xlink:href="#DejaVuSans-67" x="88.964844"/>
                    </g>
                </g>
            </g>
            <g id="line2d_12">
                <path d="M 409.5 496.423004
L 409.5 427.443932 
" clip-path="url(#pf2c239ffcd)" style="fill: none; stroke: #595959; stroke-width: 1.5; stroke-linecap: square"/>
            </g>
            <g id="line2d_13">
                <path d="M 409.5 488.078534
L 409.5 455.473104 
" clip-path="url(#pf2c239ffcd)" style="fill: none; stroke: #595959; stroke-width: 4.5; stroke-linecap: square"/>
            </g>
            <g id="line2d_14">
                <path d="M 688.5 496.446952
L 688.5 294.810045 
" clip-path="url(#pf2c239ffcd)" style="fill: none; stroke: #595959; stroke-width: 1.5; stroke-linecap: square"/>
            </g>
            <g id="line2d_15">
                <path d="M 688.5 479.533182
L 688.5 400.261363 
" clip-path="url(#pf2c239ffcd)" style="fill: none; stroke: #595959; stroke-width: 4.5; stroke-linecap: square"/>
            </g>
            <g id="line2d_16">
                <path d="M 967.5 496.077481
L 967.5 362.07336 
" clip-path="url(#pf2c239ffcd)" style="fill: none; stroke: #595959; stroke-width: 1.5; stroke-linecap: square"/>
            </g>
            <g id="line2d_17">
                <path d="M 967.5 483.125509
L 967.5 429.618505 
" clip-path="url(#pf2c239ffcd)" style="fill: none; stroke: #595959; stroke-width: 4.5; stroke-linecap: square"/>
            </g>
            <g id="line2d_18">
                <path d="M 1246.5 489.560249
L 1246.5 442.795665 
" clip-path="url(#pf2c239ffcd)" style="fill: none; stroke: #595959; stroke-width: 1.5; stroke-linecap: square"/>
            </g>
            <g id="line2d_19">
                <path d="M 1246.5 488.766691
L 1246.5 442.795665 
" clip-path="url(#pf2c239ffcd)" style="fill: none; stroke: #595959; stroke-width: 4.5; stroke-linecap: square"/>
            </g>
            <g id="line2d_20">
                <path d="M 1525.5 495.493354
L 1525.5 431.146809 
" clip-path="url(#pf2c239ffcd)" style="fill: none; stroke: #595959; stroke-width: 1.5; stroke-linecap: square"/>
            </g>
            <g id="line2d_21">
                <path d="M 1525.5 492.620245
L 1525.5 455.696799 
" clip-path="url(#pf2c239ffcd)" style="fill: none; stroke: #595959; stroke-width: 4.5; stroke-linecap: square"/>
            </g>
            <g id="line2d_22">
                <path d="M 1804.5 487.930984
L 1804.5 438.320492 
" clip-path="url(#pf2c239ffcd)" style="fill: none; stroke: #595959; stroke-width: 1.5; stroke-linecap: square"/>
            </g>
            <g id="line2d_23">
                <path d="M 1804.5 463.754058
L 1804.5 444.324792 
" clip-path="url(#pf2c239ffcd)" style="fill: none; stroke: #595959; stroke-width: 4.5; stroke-linecap: square"/>
            </g>
            <g id="patch_3">
                <path d="M 270 640.8
L 270 86.4 
" style="fill: none; stroke: #000000; stroke-width: 0.8; stroke-linejoin: miter; stroke-linecap: square"/>
            </g>
            <g id="patch_4">
                <path d="M 1944 640.8
L 1944 86.4 
" style="fill: none; stroke: #000000; stroke-width: 0.8; stroke-linejoin: miter; stroke-linecap: square"/>
            </g>
            <g id="patch_5">
                <path d="M 270 640.8
L 1944 640.8 
" style="fill: none; stroke: #000000; stroke-width: 0.8; stroke-linejoin: miter; stroke-linecap: square"/>
            </g>
            <g id="patch_6">
                <path d="M 270 86.4
L 1944 86.4 
" style="fill: none; stroke: #000000; stroke-width: 0.8; stroke-linejoin: miter; stroke-linecap: square"/>
            </g>
            <g id="PathCollection_1">
                <defs>
                    <path id="m388a656a11" d="M 0 1.5
C 0.397805 1.5 0.77937 1.341951 1.06066 1.06066 
C 1.341951 0.77937 1.5 0.397805 1.5 0 
C 1.5 -0.397805 1.341951 -0.77937 1.06066 -1.06066 
C 0.77937 -1.341951 0.397805 -1.5 0 -1.5 
C -0.397805 -1.5 -0.77937 -1.341951 -1.06066 -1.06066 
C -1.341951 -0.77937 -1.5 -0.397805 -1.5 0 
C -1.5 0.397805 -1.341951 0.77937 -1.06066 1.06066 
C -0.77937 1.341951 -0.397805 1.5 0 1.5 
z
" style="stroke: #595959"/>
                </defs>
                <g clip-path="url(#pf2c239ffcd)">
                    <use xlink:href="#m388a656a11" x="409.5" y="475.93869" style="fill: #ffffff; stroke: #595959"/>
                </g>
            </g>
            <g id="PathCollection_2">
                <g clip-path="url(#pf2c239ffcd)">
                    <use xlink:href="#m388a656a11" x="688.5" y="463.42397" style="fill: #ffffff; stroke: #595959"/>
                </g>
            </g>
            <g id="PathCollection_3">
                <g clip-path="url(#pf2c239ffcd)">
                    <use xlink:href="#m388a656a11" x="967.5" y="462.847299" style="fill: #ffffff; stroke: #595959"/>
                </g>
            </g>
            <g id="PathCollection_4">
                <g clip-path="url(#pf2c239ffcd)">
                    <use xlink:href="#m388a656a11" x="1246.5" y="485.377477" style="fill: #ffffff; stroke: #595959"/>
                </g>
            </g>
            <g id="PathCollection_5">
                <g clip-path="url(#pf2c239ffcd)">
                    <use xlink:href="#m388a656a11" x="1525.5" y="475.460078" style="fill: #ffffff; stroke: #595959"/>
                </g>
            </g>
            <g id="PathCollection_6">
                <g clip-path="url(#pf2c239ffcd)">
                    <use xlink:href="#m388a656a11" x="1804.5" y="462.775379" style="fill: #ffffff; stroke: #595959"/>
                </g>
            </g>
            <g id="PathCollection_7">
                <defs>
                    <path id="C0_0_4afa6f3afc" d="M 0 2.5
C 0.663008 2.5 1.29895 2.236584 1.767767 1.767767 
C 2.236584 1.29895 2.5 0.663008 2.5 -0 
C 2.5 -0.663008 2.236584 -1.29895 1.767767 -1.767767 
C 1.29895 -2.236584 0.663008 -2.5 0 -2.5 
C -0.663008 -2.5 -1.29895 -2.236584 -1.767767 -1.767767 
C -2.236584 -1.29895 -2.5 -0.663008 -2.5 0 
C -2.5 0.663008 -2.236584 1.29895 -1.767767 1.767767 
C -1.29895 2.236584 -0.663008 2.5 0 2.5 
z
"/>
                </defs>
                <g clip-path="url(#pf2c239ffcd)">
                    <use xlink:href="#C0_0_4afa6f3afc" x="409.5" y="496.423004" style="fill: #1f77b4"/>
                </g>
                <g clip-path="url(#pf2c239ffcd)">
                    <use xlink:href="#C0_0_4afa6f3afc" x="404.355005" y="495.427991" style="fill: #1f77b4"/>
                </g>
                <g clip-path="url(#pf2c239ffcd)">
                    <use xlink:href="#C0_0_4afa6f3afc" x="412.033222" y="492.043575" style="fill: #1f77b4"/>
                </g>
                <g clip-path="url(#pf2c239ffcd)">
                    <use xlink:href="#C0_0_4afa6f3afc" x="417.237898" y="491.387991" style="fill: #1f77b4"/>
                </g>
                <g clip-path="url(#pf2c239ffcd)">
                    <use xlink:href="#C0_0_4afa6f3afc" x="406.982811" y="490.678028" style="fill: #1f77b4"/>
                </g>
                <g clip-path="url(#pf2c239ffcd)">
                    <use xlink:href="#C0_0_4afa6f3afc" x="401.826713" y="489.73659" style="fill: #1f77b4"/>
                </g>
                <g clip-path="url(#pf2c239ffcd)">
                    <use xlink:href="#C0_0_4afa6f3afc" x="420.572184" y="487.525849" style="fill: #1f77b4"/>
                </g>
                <g clip-path="url(#pf2c239ffcd)">
                    <use xlink:href="#C0_0_4afa6f3afc" x="409.5" y="485.669826" style="fill: #1f77b4"/>
                </g>
                <g clip-path="url(#pf2c239ffcd)">
                    <use xlink:href="#C0_0_4afa6f3afc" x="406.699857" y="481.440386" style="fill: #1f77b4"/>
                </g>
                <g clip-path="url(#pf2c239ffcd)">
                    <use xlink:href="#C0_0_4afa6f3afc" x="412.094783" y="481.323211" style="fill: #1f77b4"/>
                </g>
                <g clip-path="url(#pf2c239ffcd)">
                    <use xlink:href="#C0_0_4afa6f3afc" x="416.777546" y="479.062589" style="fill: #1f77b4"/>
                </g>
                <g clip-path="url(#pf2c239ffcd)">
                    <use xlink:href="#C0_0_4afa6f3afc" x="403.64449" y="477.374352" style="fill: #1f77b4"/>
                </g>
                <g clip-path="url(#pf2c239ffcd)">
                    <use xlink:href="#C0_0_4afa6f3afc" x="409.5" y="474.503029" style="fill: #1f77b4"/>
                </g>
                <g clip-path="url(#pf2c239ffcd)">
                    <use xlink:href="#C0_0_4afa6f3afc" x="404.896104" y="472.099961" style="fill: #1f77b4"/>
                </g>
                <g clip-path="url(#pf2c239ffcd)">
                    <use xlink:href="#C0_0_4afa6f3afc" x="409.5" y="465.174175" style="fill: #1f77b4"/>
                </g>
                <g clip-path="url(#pf2c239ffcd)">
                    <use xlink:href="#C0_0_4afa6f3afc" x="404.318269" y="464.370463" style="fill: #1f77b4"/>
                </g>
                <g clip-path="url(#pf2c239ffcd)">
                    <use xlink:href="#C0_0_4afa6f3afc" x="409.5" y="456.391271" style="fill: #1f77b4"/>
                </g>
                <g clip-path="url(#pf2c239ffcd)">
                    <use xlink:href="#C0_0_4afa6f3afc" x="404.25533" y="456.166026" style="fill: #1f77b4"/>
                </g>
                <g clip-path="url(#pf2c239ffcd)">
                    <use xlink:href="#C0_0_4afa6f3afc" x="413.702414" y="453.394339" style="fill: #1f77b4"/>
                </g>
                <g clip-path="url(#pf2c239ffcd)">
                    <use xlink:href="#C0_0_4afa6f3afc" x="409.5" y="445.482809" style="fill: #1f77b4"/>
                </g>
                <g clip-path="url(#pf2c239ffcd)">
                    <use xlink:href="#C0_0_4afa6f3afc" x="409.5" y="431.915805" style="fill: #1f77b4"/>
                </g>
                <g clip-path="url(#pf2c239ffcd)">
                    <use xlink:href="#C0_0_4afa6f3afc" x="407.151576" y="427.443932" style="fill: #1f77b4"/>
                </g>
                <g clip-path="url(#pf2c239ffcd)">
                    <use xlink:href="#C0_0_4afa6f3afc" x="409.5" y="394.701908" style="fill: #1f77b4"/>
                </g>
                <g clip-path="url(#pf2c239ffcd)">
                    <use xlink:href="#C0_0_4afa6f3afc" x="409.5" y="343.93148" style="fill: #1f77b4"/>
                </g>
            </g>
            <g id="PathCollection_8">
                <defs>
                    <path id="C1_0_b5a1662f94" d="M 0 2.5
C 0.663008 2.5 1.29895 2.236584 1.767767 1.767767 
C 2.236584 1.29895 2.5 0.663008 2.5 -0 
C 2.5 -0.663008 2.236584 -1.29895 1.767767 -1.767767 
C 1.29895 -2.236584 0.663008 -2.5 0 -2.5 
C -0.663008 -2.5 -1.29895 -2.236584 -1.767767 -1.767767 
C -2.236584 -1.29895 -2.5 -0.663008 -2.5 0 
C -2.5 0.663008 -2.236584 1.29895 -1.767767 1.767767 
C -1.29895 2.236584 -0.663008 2.5 0 2.5 
z
"/>
                </defs>
                <g clip-path="url(#pf2c239ffcd)">
                    <use xlink:href="#C1_0_b5a1662f94" x="688.5" y="496.446952" style="fill: #ff7f0e"/>
                </g>
                <g clip-path="url(#pf2c239ffcd)">
                    <use xlink:href="#C1_0_b5a1662f94" x="684.128095" y="493.678659" style="fill: #ff7f0e"/>
                </g>
                <g clip-path="url(#pf2c239ffcd)">
                    <use xlink:href="#C1_0_b5a1662f94" x="690.932064" y="492.015814" style="fill: #ff7f0e"/>
                </g>
                <g clip-path="url(#pf2c239ffcd)">
                    <use xlink:href="#C1_0_b5a1662f94" x="688.5" y="486.481414" style="fill: #ff7f0e"/>
                </g>
                <g clip-path="url(#pf2c239ffcd)">
                    <use xlink:href="#C1_0_b5a1662f94" x="683.889107" y="484.090547" style="fill: #ff7f0e"/>
                </g>
                <g clip-path="url(#pf2c239ffcd)">
                    <use xlink:href="#C1_0_b5a1662f94" x="688.5" y="474.975817" style="fill: #ff7f0e"/>
                </g>
                <g clip-path="url(#pf2c239ffcd)">
                    <use xlink:href="#C1_0_b5a1662f94" x="688.5" y="469.768371" style="fill: #ff7f0e"/>
                </g>
                <g clip-path="url(#pf2c239ffcd)">
                    <use xlink:href="#C1_0_b5a1662f94" x="683.268457" y="469.349481" style="fill: #ff7f0e"/>
                </g>
                <g clip-path="url(#pf2c239ffcd)">
                    <use xlink:href="#C1_0_b5a1662f94" x="693.192783" y="467.526674" style="fill: #ff7f0e"/>
                </g>
                <g clip-path="url(#pf2c239ffcd)">
                    <use xlink:href="#C1_0_b5a1662f94" x="688.5" y="463.42397" style="fill: #ff7f0e"/>
                </g>
                <g clip-path="url(#pf2c239ffcd)">
                    <use xlink:href="#C1_0_b5a1662f94" x="683.560143" y="461.730897" style="fill: #ff7f0e"/>
                </g>
                <g clip-path="url(#pf2c239ffcd)">
                    <use xlink:href="#C1_0_b5a1662f94" x="688.5" y="448.817339" style="fill: #ff7f0e"/>
                </g>
                <g clip-path="url(#pf2c239ffcd)">
                    <use xlink:href="#C1_0_b5a1662f94" x="688.5" y="423.109044" style="fill: #ff7f0e"/>
                </g>
                <g clip-path="url(#pf2c239ffcd)">
                    <use xlink:href="#C1_0_b5a1662f94" x="688.5" y="408.600412" style="fill: #ff7f0e"/>
                </g>
                <g clip-path="url(#pf2c239ffcd)">
                    <use xlink:href="#C1_0_b5a1662f94" x="688.5" y="391.922314" style="fill: #ff7f0e"/>
                </g>
                <g clip-path="url(#pf2c239ffcd)">
                    <use xlink:href="#C1_0_b5a1662f94" x="688.5" y="384.40322" style="fill: #ff7f0e"/>
                </g>
                <g clip-path="url(#pf2c239ffcd)">
                    <use xlink:href="#C1_0_b5a1662f94" x="688.5" y="294.810045" style="fill: #ff7f0e"/>
                </g>
                <g clip-path="url(#pf2c239ffcd)">
                    <use xlink:href="#C1_0_b5a1662f94" x="688.5" y="268.381454" style="fill: #ff7f0e"/>
                </g>
                <g clip-path="url(#pf2c239ffcd)">
                    <use xlink:href="#C1_0_b5a1662f94" x="688.5" y="204.580722" style="fill: #ff7f0e"/>
                </g>
            </g>
            <g id="PathCollection_9">
                <defs>
                    <path id="C2_0_ba27d0f150" d="M 0 2.5
C 0.663008 2.5 1.29895 2.236584 1.767767 1.767767 
C 2.236584 1.29895 2.5 0.663008 2.5 -0 
C 2.5 -0.663008 2.236584 -1.29895 1.767767 -1.767767 
C 1.29895 -2.236584 0.663008 -2.5 0 -2.5 
C -0.663008 -2.5 -1.29895 -2.236584 -1.767767 -1.767767 
C -2.236584 -1.29895 -2.5 -0.663008 -2.5 0 
C -2.5 0.663008 -2.236584 1.29895 -1.767767 1.767767 
C -1.29895 2.236584 -0.663008 2.5 0 2.5 
z
"/>
                </defs>
                <g clip-path="url(#pf2c239ffcd)">
                    <use xlink:href="#C2_0_ba27d0f150" x="967.5" y="496.077481" style="fill: #2ca02c"/>
                </g>
                <g clip-path="url(#pf2c239ffcd)">
                    <use xlink:href="#C2_0_ba27d0f150" x="962.851777" y="493.753101" style="fill: #2ca02c"/>
                </g>
                <g clip-path="url(#pf2c239ffcd)">
                    <use xlink:href="#C2_0_ba27d0f150" x="967.5" y="483.125509" style="fill: #2ca02c"/>
                </g>
                <g clip-path="url(#pf2c239ffcd)">
                    <use xlink:href="#C2_0_ba27d0f150" x="967.5" y="473.169507" style="fill: #2ca02c"/>
                </g>
                <g clip-path="url(#pf2c239ffcd)">
                    <use xlink:href="#C2_0_ba27d0f150" x="967.5" y="462.847299" style="fill: #2ca02c"/>
                </g>
                <g clip-path="url(#pf2c239ffcd)">
                    <use xlink:href="#C2_0_ba27d0f150" x="967.5" y="454.57546" style="fill: #2ca02c"/>
                </g>
                <g clip-path="url(#pf2c239ffcd)">
                    <use xlink:href="#C2_0_ba27d0f150" x="967.5" y="429.618505" style="fill: #2ca02c"/>
                </g>
                <g clip-path="url(#pf2c239ffcd)">
                    <use xlink:href="#C2_0_ba27d0f150" x="967.5" y="389.874809" style="fill: #2ca02c"/>
                </g>
                <g clip-path="url(#pf2c239ffcd)">
                    <use xlink:href="#C2_0_ba27d0f150" x="967.5" y="362.07336" style="fill: #2ca02c"/>
                </g>
            </g>
            <g id="PathCollection_10">
                <defs>
                    <path id="C3_0_7cd7c8faa2" d="M 0 2.5
C 0.663008 2.5 1.29895 2.236584 1.767767 1.767767 
C 2.236584 1.29895 2.5 0.663008 2.5 -0 
C 2.5 -0.663008 2.236584 -1.29895 1.767767 -1.767767 
C 1.29895 -2.236584 0.663008 -2.5 0 -2.5 
C -0.663008 -2.5 -1.29895 -2.236584 -1.767767 -1.767767 
C -2.236584 -1.29895 -2.5 -0.663008 -2.5 0 
C -2.5 0.663008 -2.236584 1.29895 -1.767767 1.767767 
C -1.29895 2.236584 -0.663008 2.5 0 2.5 
z
"/>
                </defs>
                <g clip-path="url(#pf2c239ffcd)">
                    <use xlink:href="#C3_0_7cd7c8faa2" x="1246.5" y="489.560249" style="fill: #d62728"/>
                </g>
                <g clip-path="url(#pf2c239ffcd)">
                    <use xlink:href="#C3_0_7cd7c8faa2" x="1241.316544" y="488.766691" style="fill: #d62728"/>
                </g>
                <g clip-path="url(#pf2c239ffcd)">
                    <use xlink:href="#C3_0_7cd7c8faa2" x="1249.37639" y="485.377477" style="fill: #d62728"/>
                </g>
                <g clip-path="url(#pf2c239ffcd)">
                    <use xlink:href="#C3_0_7cd7c8faa2" x="1246.5" y="442.795665" style="fill: #d62728"/>
                </g>
                <g clip-path="url(#pf2c239ffcd)">
                    <use xlink:href="#C3_0_7cd7c8faa2" x="1246.5" y="287.199206" style="fill: #d62728"/>
                </g>
            </g>
            <g id="PathCollection_11">
                <defs>
                    <path id="C4_0_6b5539e09f" d="M 0 2.5
C 0.663008 2.5 1.29895 2.236584 1.767767 1.767767 
C 2.236584 1.29895 2.5 0.663008 2.5 -0 
C 2.5 -0.663008 2.236584 -1.29895 1.767767 -1.767767 
C 1.29895 -2.236584 0.663008 -2.5 0 -2.5 
C -0.663008 -2.5 -1.29895 -2.236584 -1.767767 -1.767767 
C -2.236584 -1.29895 -2.5 -0.663008 -2.5 0 
C -2.5 0.663008 -2.236584 1.29895 -1.767767 1.767767 
C -1.29895 2.236584 -0.663008 2.5 0 2.5 
z
"/>
                </defs>
                <g clip-path="url(#pf2c239ffcd)">
                    <use xlink:href="#C4_0_6b5539e09f" x="1525.5" y="495.493354" style="fill: #9467bd"/>
                </g>
                <g clip-path="url(#pf2c239ffcd)">
                    <use xlink:href="#C4_0_6b5539e09f" x="1520.254413" y="495.288381" style="fill: #9467bd"/>
                </g>
                <g clip-path="url(#pf2c239ffcd)">
                    <use xlink:href="#C4_0_6b5539e09f" x="1530.677061" y="494.662794" style="fill: #9467bd"/>
                </g>
                <g clip-path="url(#pf2c239ffcd)">
                    <use xlink:href="#C4_0_6b5539e09f" x="1515.532998" y="493.101896" style="fill: #9467bd"/>
                </g>
                <g clip-path="url(#pf2c239ffcd)">
                    <use xlink:href="#C4_0_6b5539e09f" x="1535.571829" y="492.854838" style="fill: #9467bd"/>
                </g>
                <g clip-path="url(#pf2c239ffcd)">
                    <use xlink:href="#C4_0_6b5539e09f" x="1510.432683" y="491.916466" style="fill: #9467bd"/>
                </g>
                <g clip-path="url(#pf2c239ffcd)">
                    <use xlink:href="#C4_0_6b5539e09f" x="1525.5" y="487.377233" style="fill: #9467bd"/>
                </g>
                <g clip-path="url(#pf2c239ffcd)">
                    <use xlink:href="#C4_0_6b5539e09f" x="1521.3315" y="484.337645" style="fill: #9467bd"/>
                </g>
                <g clip-path="url(#pf2c239ffcd)">
                    <use xlink:href="#C4_0_6b5539e09f" x="1525.5" y="476.939735" style="fill: #9467bd"/>
                </g>
                <g clip-path="url(#pf2c239ffcd)">
                    <use xlink:href="#C4_0_6b5539e09f" x="1521.268295" y="473.980422" style="fill: #9467bd"/>
                </g>
                <g clip-path="url(#pf2c239ffcd)">
                    <use xlink:href="#C4_0_6b5539e09f" x="1529.681697" y="473.916633" style="fill: #9467bd"/>
                </g>
                <g clip-path="url(#pf2c239ffcd)">
                    <use xlink:href="#C4_0_6b5539e09f" x="1525.5" y="459.637618" style="fill: #9467bd"/>
                </g>
                <g clip-path="url(#pf2c239ffcd)">
                    <use xlink:href="#C4_0_6b5539e09f" x="1522.258146" y="455.704748" style="fill: #9467bd"/>
                </g>
                <g clip-path="url(#pf2c239ffcd)">
                    <use xlink:href="#C4_0_6b5539e09f" x="1528.727628" y="455.694149" style="fill: #9467bd"/>
                </g>
                <g clip-path="url(#pf2c239ffcd)">
                    <use xlink:href="#C4_0_6b5539e09f" x="1525.5" y="444.596863" style="fill: #9467bd"/>
                </g>
                <g clip-path="url(#pf2c239ffcd)">
                    <use xlink:href="#C4_0_6b5539e09f" x="1525.5" y="431.146809" style="fill: #9467bd"/>
                </g>
                <g clip-path="url(#pf2c239ffcd)">
                    <use xlink:href="#C4_0_6b5539e09f" x="1525.5" y="375.443918" style="fill: #9467bd"/>
                </g>
                <g clip-path="url(#pf2c239ffcd)">
                    <use xlink:href="#C4_0_6b5539e09f" x="1525.5" y="288.733502" style="fill: #9467bd"/>
                </g>
            </g>
            <g id="PathCollection_12">
                <defs>
                    <path id="C5_0_bbb9f12ca9" d="M 0 2.5
C 0.663008 2.5 1.29895 2.236584 1.767767 1.767767 
C 2.236584 1.29895 2.5 0.663008 2.5 -0 
C 2.5 -0.663008 2.236584 -1.29895 1.767767 -1.767767 
C 1.29895 -2.236584 0.663008 -2.5 0 -2.5 
C -0.663008 -2.5 -1.29895 -2.236584 -1.767767 -1.767767 
C -2.236584 -1.29895 -2.5 -0.663008 -2.5 0 
C -2.5 0.663008 -2.236584 1.29895 -1.767767 1.767767 
C -1.29895 2.236584 -0.663008 2.5 0 2.5 
z
"/>
                </defs>
                <g clip-path="url(#pf2c239ffcd)">
                    <use xlink:href="#C5_0_bbb9f12ca9" x="1804.5" y="487.930984" style="fill: #8c564b"/>
                </g>
                <g clip-path="url(#pf2c239ffcd)">
                    <use xlink:href="#C5_0_bbb9f12ca9" x="1804.5" y="463.934389" style="fill: #8c564b"/>
                </g>
                <g clip-path="url(#pf2c239ffcd)">
                    <use xlink:href="#C5_0_bbb9f12ca9" x="1799.30492" y="463.213065" style="fill: #8c564b"/>
                </g>
                <g clip-path="url(#pf2c239ffcd)">
                    <use xlink:href="#C5_0_bbb9f12ca9" x="1809.475113" y="462.337694" style="fill: #8c564b"/>
                </g>
                <g clip-path="url(#pf2c239ffcd)">
                    <use xlink:href="#C5_0_bbb9f12ca9" x="1804.5" y="438.320492" style="fill: #8c564b"/>
                </g>
                <g clip-path="url(#pf2c239ffcd)">
                    <use xlink:href="#C5_0_bbb9f12ca9" x="1804.5" y="312.157385" style="fill: #8c564b"/>
                </g>
            </g>
            <g id="text_14">
                <!-- P values of Field Activities -->
                <g transform="translate(951.466875 80.4)scale(0.24 -0.24)">
                    <defs>
                        <path id="DejaVuSans-50" d="M 1259 4147
L 1259 2394 
L 2053 2394 
Q 2494 2394 2734 2622 
Q 2975 2850 2975 3272 
Q 2975 3691 2734 3919 
Q 2494 4147 2053 4147 
L 1259 4147 
z
M 628 4666 
L 2053 4666 
Q 2838 4666 3239 4311 
Q 3641 3956 3641 3272 
Q 3641 2581 3239 2228 
Q 2838 1875 2053 1875 
L 1259 1875 
L 1259 0 
L 628 0 
L 628 4666 
z
" transform="scale(0.015625)"/>
                        <path id="DejaVuSans-20" transform="scale(0.015625)"/>
                        <path id="DejaVuSans-76" d="M 191 3500
L 800 3500 
L 1894 563 
L 2988 3500 
L 3597 3500 
L 2284 0 
L 1503 0 
L 191 3500 
z
" transform="scale(0.015625)"/>
                        <path id="DejaVuSans-61" d="M 2194 1759
Q 1497 1759 1228 1600 
Q 959 1441 959 1056 
Q 959 750 1161 570 
Q 1363 391 1709 391 
Q 2188 391 2477 730 
Q 2766 1069 2766 1631 
L 2766 1759 
L 2194 1759 
z
M 3341 1997 
L 3341 0 
L 2766 0 
L 2766 531 
Q 2569 213 2275 61 
Q 1981 -91 1556 -91 
Q 1019 -91 701 211 
Q 384 513 384 1019 
Q 384 1609 779 1909 
Q 1175 2209 1959 2209 
L 2766 2209 
L 2766 2266 
Q 2766 2663 2505 2880 
Q 2244 3097 1772 3097 
Q 1472 3097 1187 3025 
Q 903 2953 641 2809 
L 641 3341 
Q 956 3463 1253 3523 
Q 1550 3584 1831 3584 
Q 2591 3584 2966 3190 
Q 3341 2797 3341 1997 
z
" transform="scale(0.015625)"/>
                        <path id="DejaVuSans-66" d="M 2375 4863
L 2375 4384 
L 1825 4384 
Q 1516 4384 1395 4259 
Q 1275 4134 1275 3809 
L 1275 3500 
L 2222 3500 
L 2222 3053 
L 1275 3053 
L 1275 0 
L 697 0 
L 697 3053 
L 147 3053 
L 147 3500 
L 697 3500 
L 697 3744 
Q 697 4328 969 4595 
Q 1241 4863 1831 4863 
L 2375 4863 
z
" transform="scale(0.015625)"/>
                        <path id="DejaVuSans-46" d="M 628 4666
L 3309 4666 
L 3309 4134 
L 1259 4134 
L 1259 2759 
L 3109 2759 
L 3109 2228 
L 1259 2228 
L 1259 0 
L 628 0 
L 628 4666 
z
" transform="scale(0.015625)"/>
                        <path id="DejaVuSans-69" d="M 603 3500
L 1178 3500 
L 1178 0 
L 603 0 
L 603 3500 
z
M 603 4863 
L 1178 4863 
L 1178 4134 
L 603 4134 
L 603 4863 
z
" transform="scale(0.015625)"/>
                        <path id="DejaVuSans-64" d="M 2906 2969
L 2906 4863 
L 3481 4863 
L 3481 0 
L 2906 0 
L 2906 525 
Q 2725 213 2448 61 
Q 2172 -91 1784 -91 
Q 1150 -91 751 415 
Q 353 922 353 1747 
Q 353 2572 751 3078 
Q 1150 3584 1784 3584 
Q 2172 3584 2448 3432 
Q 2725 3281 2906 2969 
z
M 947 1747 
Q 947 1113 1208 752 
Q 1469 391 1925 391 
Q 2381 391 2643 752 
Q 2906 1113 2906 1747 
Q 2906 2381 2643 2742 
Q 2381 3103 1925 3103 
Q 1469 3103 1208 2742 
Q 947 2381 947 1747 
z
" transform="scale(0.015625)"/>
                        <path id="DejaVuSans-41" d="M 2188 4044
L 1331 1722 
L 3047 1722 
L 2188 4044 
z
M 1831 4666 
L 2547 4666 
L 4325 0 
L 3669 0 
L 3244 1197 
L 1141 1197 
L 716 0 
L 50 0 
L 1831 4666 
z
" transform="scale(0.015625)"/>
                    </defs>
                    <use xlink:href="#DejaVuSans-50"/>
                    <use xlink:href="#DejaVuSans-20" x="60.302734"/>
                    <use xlink:href="#DejaVuSans-76" x="92.089844"/>
                    <use xlink:href="#DejaVuSans-61" x="151.269531"/>
                    <use xlink:href="#DejaVuSans-6c" x="212.548828"/>
                    <use xlink:href="#DejaVuSans-75" x="240.332031"/>
                    <use xlink:href="#DejaVuSans-65" x="303.710938"/>
                    <use xlink:href="#DejaVuSans-73" x="365.234375"/>
                    <use xlink:href="#DejaVuSans-20" x="417.333984"/>
                    <use xlink:href="#DejaVuSans-6f" x="449.121094"/>
                    <use xlink:href="#DejaVuSans-66" x="510.302734"/>
                    <use xlink:href="#DejaVuSans-20" x="545.507812"/>
                    <use xlink:href="#DejaVuSans-46" x="577.294922"/>
                    <use xlink:href="#DejaVuSans-69" x="627.564453"/>
                    <use xlink:href="#DejaVuSans-65" x="655.347656"/>
                    <use xlink:href="#DejaVuSans-6c" x="716.871094"/>
                    <use xlink:href="#DejaVuSans-64" x="744.654297"/>
                    <use xlink:href="#DejaVuSans-20" x="808.130859"/>
                    <use xlink:href="#DejaVuSans-41" x="839.917969"/>
                    <use xlink:href="#DejaVuSans-63" x="906.576172"/>
                    <use xlink:href="#DejaVuSans-74" x="961.556641"/>
                    <use xlink:href="#DejaVuSans-69" x="1000.765625"/>
                    <use xlink:href="#DejaVuSans-76" x="1028.548828"/>
                    <use xlink:href="#DejaVuSans-69" x="1087.728516"/>
                    <use xlink:href="#DejaVuSans-74" x="1115.511719"/>
                    <use xlink:href="#DejaVuSans-69" x="1154.720703"/>
                    <use xlink:href="#DejaVuSans-65" x="1182.503906"/>
                    <use xlink:href="#DejaVuSans-73" x="1244.027344"/>
                </g>
            </g>
        </g>
    </g>
    <defs>
        <clipPath id="pf2c239ffcd">
            <rect x="270" y="86.4" width="1674" height="554.4"/>
        </clipPath>
    </defs>
</svg>
