<?xml version="1.0" encoding="utf-8" standalone="no"?>
<!DOCTYPE svg PUBLIC "-//W3C//DTD SVG 1.1//EN"
        "http://www.w3.org/Graphics/SVG/1.1/DTD/svg11.dtd">
<svg xmlns:xlink="http://www.w3.org/1999/xlink" width="2160pt" height="720pt" viewBox="0 0 2160 720"
     xmlns="http://www.w3.org/2000/svg" version="1.1">
    <metadata>
        <rdf:RDF xmlns:dc="http://purl.org/dc/elements/1.1/" xmlns:cc="http://creativecommons.org/ns#"
                 xmlns:rdf="http://www.w3.org/1999/02/22-rdf-syntax-ns#">
            <cc:Work>
                <dc:type rdf:resource="http://purl.org/dc/dcmitype/StillImage"/>
                <dc:date>2022-06-10T17:50:37.879377</dc:date>
                <dc:format>image/svg+xml</dc:format>
                <dc:creator>
                    <cc:Agent>
                        <dc:title>Matplotlib v3.5.1, https://matplotlib.org/</dc:title>
                    </cc:Agent>
                </dc:creator>
            </cc:Work>
        </rdf:RDF>
    </metadata>
    <defs>
        <style type="text/css">*{stroke-linejoin: round; stroke-linecap: butt}</style>
    </defs>
    <g id="figure_1">
        <g id="patch_1">
            <path d="M 0 720
L 2160 720 
L 2160 0 
L 0 0 
z
" style="fill: #ffffff"/>
        </g>
        <g id="axes_1">
            <g id="patch_2">
                <path d="M 270 640.8
L 1944 640.8 
L 1944 86.4 
L 270 86.4 
z
" style="fill: #ffffff"/>
            </g>
            <g id="PolyCollection_1">
                <defs>
                    <path id="m02b6b39ce9" d="M 411.562708 -151.778059
L 407.437292 -151.778059 
L 406.767055 -154.976728 
L 405.927924 -158.175396 
L 404.893369 -161.374064 
L 403.637247 -164.572733 
L 402.135122 -167.771401 
L 400.365752 -170.970069 
L 398.31261 -174.168737 
L 395.96536 -177.367406 
L 393.321161 -180.566074 
L 390.385686 -183.764742 
L 387.173766 -186.96341 
L 383.709605 -190.162079 
L 380.026533 -193.360747 
L 376.166327 -196.559415 
L 372.178145 -199.758083 
L 368.117172 -202.956752 
L 364.043063 -206.15542 
L 360.018288 -209.354088 
L 356.106471 -212.552757 
L 352.37078 -215.751425 
L 348.8724 -218.950093 
L 345.669124 -222.148761 
L 342.814041 -225.34743 
L 340.354335 -228.546098 
L 338.330196 -231.744766 
L 336.77386 -234.943434 
L 335.708832 -238.142103 
L 335.149326 -241.340771 
L 335.1 -244.539439 
L 335.556002 -247.738108 
L 336.503372 -250.936776 
L 337.919763 -254.135444 
L 339.77544 -257.334112 
L 342.034453 -260.532781 
L 344.655892 -263.731449 
L 347.595104 -266.930117 
L 350.804774 -270.128785 
L 354.235825 -273.327454 
L 357.838108 -276.526122 
L 361.560926 -279.72479 
L 365.353444 -282.923459 
L 369.165096 -286.122127 
L 372.946054 -289.320795 
L 376.647851 -292.519463 
L 380.224184 -295.718132 
L 383.631895 -298.9168 
L 386.832072 -302.115468 
L 389.791196 -305.314136 
L 392.482221 -308.512805 
L 394.88548 -311.711473 
L 396.989323 -314.910141 
L 398.790412 -318.108809 
L 400.293644 -321.307478 
L 401.511688 -324.506146 
L 402.464172 -327.704814 
L 403.176571 -330.903483 
L 403.678856 -334.102151 
L 404.003989 -337.300819 
L 404.186337 -340.499487 
L 404.260091 -343.698156 
L 404.25775 -346.896824 
L 404.20877 -350.095492 
L 404.138427 -353.29416 
L 404.066969 -356.492829 
L 404.009103 -359.691497 
L 403.973864 -362.890165 
L 403.964863 -366.088834 
L 403.98092 -369.287502 
L 404.017011 -372.48617 
L 404.065476 -375.684838 
L 404.117365 -378.883507 
L 404.163815 -382.082175 
L 404.197324 -385.280843 
L 404.2128 -388.479511 
L 404.208294 -391.67818 
L 404.185349 -394.876848 
L 404.148934 -398.075516 
L 404.106988 -401.274185 
L 404.069638 -404.472853 
L 404.048173 -407.671521 
L 404.053907 -410.870189 
L 404.097052 -414.068858 
L 404.18572 -417.267526 
L 404.325162 -420.466194 
L 404.517303 -423.664862 
L 404.760615 -426.863531 
L 405.050321 -430.062199 
L 405.378874 -433.260867 
L 405.736659 -436.459536 
L 406.112816 -439.658204 
L 406.496096 -442.856872 
L 406.875668 -446.05554 
L 407.241795 -449.254209 
L 407.586346 -452.452877 
L 407.903106 -455.651545 
L 408.187895 -458.850213 
L 408.438508 -462.048882 
L 408.654525 -465.24755 
L 408.837009 -468.446218 
L 410.162991 -468.446218 
L 410.162991 -468.446218 
L 410.345475 -465.24755 
L 410.561492 -462.048882 
L 410.812105 -458.850213 
L 411.096894 -455.651545 
L 411.413654 -452.452877 
L 411.758205 -449.254209 
L 412.124332 -446.05554 
L 412.503904 -442.856872 
L 412.887184 -439.658204 
L 413.263341 -436.459536 
L 413.621126 -433.260867 
L 413.949679 -430.062199 
L 414.239385 -426.863531 
L 414.482697 -423.664862 
L 414.674838 -420.466194 
L 414.81428 -417.267526 
L 414.902948 -414.068858 
L 414.946093 -410.870189 
L 414.951827 -407.671521 
L 414.930362 -404.472853 
L 414.893012 -401.274185 
L 414.851066 -398.075516 
L 414.814651 -394.876848 
L 414.791706 -391.67818 
L 414.7872 -388.479511 
L 414.802676 -385.280843 
L 414.836185 -382.082175 
L 414.882635 -378.883507 
L 414.934524 -375.684838 
L 414.982989 -372.48617 
L 415.01908 -369.287502 
L 415.035137 -366.088834 
L 415.026136 -362.890165 
L 414.990897 -359.691497 
L 414.933031 -356.492829 
L 414.861573 -353.29416 
L 414.79123 -350.095492 
L 414.74225 -346.896824 
L 414.739909 -343.698156 
L 414.813663 -340.499487 
L 414.996011 -337.300819 
L 415.321144 -334.102151 
L 415.823429 -330.903483 
L 416.535828 -327.704814 
L 417.488312 -324.506146 
L 418.706356 -321.307478 
L 420.209588 -318.108809 
L 422.010677 -314.910141 
L 424.11452 -311.711473 
L 426.517779 -308.512805 
L 429.208804 -305.314136 
L 432.167928 -302.115468 
L 435.368105 -298.9168 
L 438.775816 -295.718132 
L 442.352149 -292.519463 
L 446.053946 -289.320795 
L 449.834904 -286.122127 
L 453.646556 -282.923459 
L 457.439074 -279.72479 
L 461.161892 -276.526122 
L 464.764175 -273.327454 
L 468.195226 -270.128785 
L 471.404896 -266.930117 
L 474.344108 -263.731449 
L 476.965547 -260.532781 
L 479.22456 -257.334112 
L 481.080237 -254.135444 
L 482.496628 -250.936776 
L 483.443998 -247.738108 
L 483.9 -244.539439 
L 483.850674 -241.340771 
L 483.291168 -238.142103 
L 482.22614 -234.943434 
L 480.669804 -231.744766 
L 478.645665 -228.546098 
L 476.185959 -225.34743 
L 473.330876 -222.148761 
L 470.1276 -218.950093 
L 466.62922 -215.751425 
L 462.893529 -212.552757 
L 458.981712 -209.354088 
L 454.956937 -206.15542 
L 450.882828 -202.956752 
L 446.821855 -199.758083 
L 442.833673 -196.559415 
L 438.973467 -193.360747 
L 435.290395 -190.162079 
L 431.826234 -186.96341 
L 428.614314 -183.764742 
L 425.678839 -180.566074 
L 423.03464 -177.367406 
L 420.68739 -174.168737 
L 418.634248 -170.970069 
L 416.864878 -167.771401 
L 415.362753 -164.572733 
L 414.106631 -161.374064 
L 413.072076 -158.175396 
L 412.232945 -154.976728 
L 411.562708 -151.778059 
z
" style="stroke: #595959; stroke-width: 1.5"/>
                </defs>
                <g clip-path="url(#p961f0b3925)">
                    <use xlink:href="#m02b6b39ce9" x="0" y="720"
                         style="fill: #72b6a1; stroke: #595959; stroke-width: 1.5"/>
                </g>
            </g>
            <g id="PolyCollection_2">
                <defs>
                    <path id="m8811d8735b" d="M 690.280487 -104.4
L 686.719513 -104.4 
L 686.2601 -109.490909 
L 685.708671 -114.581818 
L 685.053924 -119.672727 
L 684.284875 -124.763636 
L 683.391316 -129.854545 
L 682.364311 -134.945455 
L 681.196739 -140.036364 
L 679.883838 -145.127273 
L 678.423733 -150.218182 
L 676.817921 -155.309091 
L 675.071681 -160.4 
L 673.194374 -165.490909 
L 671.199616 -170.581818 
L 669.105297 -175.672727 
L 666.933426 -180.763636 
L 664.7098 -185.854545 
L 662.463503 -190.945455 
L 660.226226 -196.036364 
L 658.031451 -201.127273 
L 655.913511 -206.218182 
L 653.906572 -211.309091 
L 652.043574 -216.4 
L 650.355183 -221.490909 
L 648.868801 -226.581818 
L 647.60768 -231.672727 
L 646.590189 -236.763636 
L 645.829268 -241.854545 
L 645.332097 -246.945455 
L 645.1 -252.036364 
L 645.128579 -257.127273 
L 645.40808 -262.218182 
L 645.923955 -267.309091 
L 646.657598 -272.4 
L 647.587196 -277.490909 
L 648.688663 -282.581818 
L 649.936582 -287.672727 
L 651.305129 -292.763636 
L 652.768916 -297.854545 
L 654.303718 -302.945455 
L 655.887065 -308.036364 
L 657.498675 -313.127273 
L 659.120728 -318.218182 
L 660.737988 -323.309091 
L 662.33778 -328.4 
L 663.909859 -333.490909 
L 665.44618 -338.581818 
L 666.940608 -343.672727 
L 668.388584 -348.763636 
L 669.786783 -353.854545 
L 671.132771 -358.945455 
L 672.42469 -364.036364 
L 673.660979 -369.127273 
L 674.840141 -374.218182 
L 675.960562 -379.309091 
L 677.020394 -384.4 
L 678.017493 -389.490909 
L 678.949423 -394.581818 
L 679.813513 -399.672727 
L 680.606973 -404.763636 
L 681.327056 -409.854545 
L 681.971257 -414.945455 
L 682.537539 -420.036364 
L 683.024572 -425.127273 
L 683.431967 -430.218182 
L 683.760493 -435.309091 
L 684.012259 -440.4 
L 684.190839 -445.490909 
L 684.301338 -450.581818 
L 684.350381 -455.672727 
L 684.346021 -460.763636 
L 684.297562 -465.854545 
L 684.215311 -470.945455 
L 684.110252 -476.036364 
L 683.993671 -481.127273 
L 683.876748 -486.218182 
L 683.770129 -491.309091 
L 683.683525 -496.4 
L 683.62533 -501.490909 
L 683.602319 -506.581818 
L 683.61941 -511.672727 
L 683.67953 -516.763636 
L 683.783583 -521.854545 
L 683.930514 -526.945455 
L 684.117477 -532.036364 
L 684.340086 -537.127273 
L 684.592722 -542.218182 
L 684.868894 -547.309091 
L 685.161612 -552.4 
L 685.463753 -557.490909 
L 685.768403 -562.581818 
L 686.06915 -567.672727 
L 686.36032 -572.763636 
L 686.637145 -577.854545 
L 686.895863 -582.945455 
L 687.133749 -588.036364 
L 687.349088 -593.127273 
L 687.5411 -598.218182 
L 687.709827 -603.309091 
L 687.855999 -608.4 
L 689.144001 -608.4 
L 689.144001 -608.4 
L 689.290173 -603.309091 
L 689.4589 -598.218182 
L 689.650912 -593.127273 
L 689.866251 -588.036364 
L 690.104137 -582.945455 
L 690.362855 -577.854545 
L 690.63968 -572.763636 
L 690.93085 -567.672727 
L 691.231597 -562.581818 
L 691.536247 -557.490909 
L 691.838388 -552.4 
L 692.131106 -547.309091 
L 692.407278 -542.218182 
L 692.659914 -537.127273 
L 692.882523 -532.036364 
L 693.069486 -526.945455 
L 693.216417 -521.854545 
L 693.32047 -516.763636 
L 693.38059 -511.672727 
L 693.397681 -506.581818 
L 693.37467 -501.490909 
L 693.316475 -496.4 
L 693.229871 -491.309091 
L 693.123252 -486.218182 
L 693.006329 -481.127273 
L 692.889748 -476.036364 
L 692.784689 -470.945455 
L 692.702438 -465.854545 
L 692.653979 -460.763636 
L 692.649619 -455.672727 
L 692.698662 -450.581818 
L 692.809161 -445.490909 
L 692.987741 -440.4 
L 693.239507 -435.309091 
L 693.568033 -430.218182 
L 693.975428 -425.127273 
L 694.462461 -420.036364 
L 695.028743 -414.945455 
L 695.672944 -409.854545 
L 696.393027 -404.763636 
L 697.186487 -399.672727 
L 698.050577 -394.581818 
L 698.982507 -389.490909 
L 699.979606 -384.4 
L 701.039438 -379.309091 
L 702.159859 -374.218182 
L 703.339021 -369.127273 
L 704.57531 -364.036364 
L 705.867229 -358.945455 
L 707.213217 -353.854545 
L 708.611416 -348.763636 
L 710.059392 -343.672727 
L 711.55382 -338.581818 
L 713.090141 -333.490909 
L 714.66222 -328.4 
L 716.262012 -323.309091 
L 717.879272 -318.218182 
L 719.501325 -313.127273 
L 721.112935 -308.036364 
L 722.696282 -302.945455 
L 724.231084 -297.854545 
L 725.694871 -292.763636 
L 727.063418 -287.672727 
L 728.311337 -282.581818 
L 729.412804 -277.490909 
L 730.342402 -272.4 
L 731.076045 -267.309091 
L 731.59192 -262.218182 
L 731.871421 -257.127273 
L 731.9 -252.036364 
L 731.667903 -246.945455 
L 731.170732 -241.854545 
L 730.409811 -236.763636 
L 729.39232 -231.672727 
L 728.131199 -226.581818 
L 726.644817 -221.490909 
L 724.956426 -216.4 
L 723.093428 -211.309091 
L 721.086489 -206.218182 
L 718.968549 -201.127273 
L 716.773774 -196.036364 
L 714.536497 -190.945455 
L 712.2902 -185.854545 
L 710.066574 -180.763636 
L 707.894703 -175.672727 
L 705.800384 -170.581818 
L 703.805626 -165.490909 
L 701.928319 -160.4 
L 700.182079 -155.309091 
L 698.576267 -150.218182 
L 697.116162 -145.127273 
L 695.803261 -140.036364 
L 694.635689 -134.945455 
L 693.608684 -129.854545 
L 692.715125 -124.763636 
L 691.946076 -119.672727 
L 691.291329 -114.581818 
L 690.7399 -109.490909 
L 690.280487 -104.4 
z
" style="stroke: #595959; stroke-width: 1.5"/>
                </defs>
                <g clip-path="url(#p961f0b3925)">
                    <use xlink:href="#m8811d8735b" x="0" y="720"
                         style="fill: #e99675; stroke: #595959; stroke-width: 1.5"/>
                </g>
            </g>
            <g id="PolyCollection_3">
                <defs>
                    <path id="m07832b1926" d="M 969.494635 -123.541501
L 965.505365 -123.541501 
L 965.014806 -127.381642 
L 964.431922 -131.221784 
L 963.746625 -135.061926 
L 962.949391 -138.902068 
L 962.031683 -142.742209 
L 960.986396 -146.582351 
L 959.808314 -150.422493 
L 958.494548 -154.262635 
L 957.044949 -158.102776 
L 955.462444 -161.942918 
L 953.753303 -165.78306 
L 951.927299 -169.623202 
L 949.99775 -173.463343 
L 947.98144 -177.303485 
L 945.898407 -181.143627 
L 943.771611 -184.983769 
L 941.626473 -188.82391 
L 939.490326 -192.664052 
L 937.391772 -196.504194 
L 935.35998 -200.344336 
L 933.423943 -204.184477 
L 931.611733 -208.024619 
L 929.949749 -211.864761 
L 928.462027 -215.704903 
L 927.169586 -219.545044 
L 926.089878 -223.385186 
L 925.236322 -227.225328 
L 924.617961 -231.06547 
L 924.239256 -234.905611 
L 924.1 -238.745753 
L 924.195395 -242.585895 
L 924.516254 -246.426037 
L 925.049352 -250.266178 
L 925.777892 -254.10632 
L 926.682087 -257.946462 
L 927.739828 -261.786604 
L 928.927414 -265.626745 
L 930.220319 -269.466887 
L 931.593959 -273.307029 
L 933.024437 -277.147171 
L 934.489227 -280.987312 
L 935.967771 -284.827454 
L 937.441971 -288.667596 
L 938.896543 -292.507738 
L 940.319234 -296.347879 
L 941.700882 -300.188021 
L 943.035332 -304.028163 
L 944.319205 -307.868305 
L 945.551547 -311.708446 
L 946.733375 -315.548588 
L 947.867152 -319.38873 
L 948.956222 -323.228871 
L 950.004247 -327.069013 
L 951.014678 -330.909155 
L 951.990292 -334.749297 
L 952.932831 -338.589438 
L 953.842756 -342.42958 
L 954.719141 -346.269722 
L 955.559697 -350.109864 
L 956.360937 -353.950005 
L 957.118452 -357.790147 
L 957.82728 -361.630289 
L 958.482345 -365.470431 
L 959.078918 -369.310572 
L 959.613078 -373.150714 
L 960.082125 -376.990856 
L 960.48493 -380.830998 
L 960.822176 -384.671139 
L 961.096491 -388.511281 
L 961.312453 -392.351423 
L 961.476464 -396.191565 
L 961.596514 -400.031706 
L 961.681836 -403.871848 
L 961.742484 -407.71199 
L 961.788868 -411.552132 
L 961.831256 -415.392273 
L 961.879305 -419.232415 
L 961.941622 -423.072557 
L 962.025401 -426.912699 
L 962.136149 -430.75284 
L 962.277511 -434.592982 
L 962.451214 -438.433124 
L 962.657111 -442.273266 
L 962.893323 -446.113407 
L 963.156476 -449.953549 
L 963.441987 -453.793691 
L 963.744404 -457.633833 
L 964.057753 -461.473974 
L 964.375884 -465.314116 
L 964.692794 -469.154258 
L 965.002894 -472.9944 
L 965.301236 -476.834541 
L 965.583669 -480.674683 
L 965.846934 -484.514825 
L 966.088697 -488.354967 
L 966.30753 -492.195108 
L 966.50285 -496.03525 
L 966.674816 -499.875392 
L 966.824209 -503.715534 
L 968.175791 -503.715534 
L 968.175791 -503.715534 
L 968.325184 -499.875392 
L 968.49715 -496.03525 
L 968.69247 -492.195108 
L 968.911303 -488.354967 
L 969.153066 -484.514825 
L 969.416331 -480.674683 
L 969.698764 -476.834541 
L 969.997106 -472.9944 
L 970.307206 -469.154258 
L 970.624116 -465.314116 
L 970.942247 -461.473974 
L 971.255596 -457.633833 
L 971.558013 -453.793691 
L 971.843524 -449.953549 
L 972.106677 -446.113407 
L 972.342889 -442.273266 
L 972.548786 -438.433124 
L 972.722489 -434.592982 
L 972.863851 -430.75284 
L 972.974599 -426.912699 
L 973.058378 -423.072557 
L 973.120695 -419.232415 
L 973.168744 -415.392273 
L 973.211132 -411.552132 
L 973.257516 -407.71199 
L 973.318164 -403.871848 
L 973.403486 -400.031706 
L 973.523536 -396.191565 
L 973.687547 -392.351423 
L 973.903509 -388.511281 
L 974.177824 -384.671139 
L 974.51507 -380.830998 
L 974.917875 -376.990856 
L 975.386922 -373.150714 
L 975.921082 -369.310572 
L 976.517655 -365.470431 
L 977.17272 -361.630289 
L 977.881548 -357.790147 
L 978.639063 -353.950005 
L 979.440303 -350.109864 
L 980.280859 -346.269722 
L 981.157244 -342.42958 
L 982.067169 -338.589438 
L 983.009708 -334.749297 
L 983.985322 -330.909155 
L 984.995753 -327.069013 
L 986.043778 -323.228871 
L 987.132848 -319.38873 
L 988.266625 -315.548588 
L 989.448453 -311.708446 
L 990.680795 -307.868305 
L 991.964668 -304.028163 
L 993.299118 -300.188021 
L 994.680766 -296.347879 
L 996.103457 -292.507738 
L 997.558029 -288.667596 
L 999.032229 -284.827454 
L 1000.510773 -280.987312 
L 1001.975563 -277.147171 
L 1003.406041 -273.307029 
L 1004.779681 -269.466887 
L 1006.072586 -265.626745 
L 1007.260172 -261.786604 
L 1008.317913 -257.946462 
L 1009.222108 -254.10632 
L 1009.950648 -250.266178 
L 1010.483746 -246.426037 
L 1010.804605 -242.585895 
L 1010.9 -238.745753 
L 1010.760744 -234.905611 
L 1010.382039 -231.06547 
L 1009.763678 -227.225328 
L 1008.910122 -223.385186 
L 1007.830414 -219.545044 
L 1006.537973 -215.704903 
L 1005.050251 -211.864761 
L 1003.388267 -208.024619 
L 1001.576057 -204.184477 
L 999.64002 -200.344336 
L 997.608228 -196.504194 
L 995.509674 -192.664052 
L 993.373527 -188.82391 
L 991.228389 -184.983769 
L 989.101593 -181.143627 
L 987.01856 -177.303485 
L 985.00225 -173.463343 
L 983.072701 -169.623202 
L 981.246697 -165.78306 
L 979.537556 -161.942918 
L 977.955051 -158.102776 
L 976.505452 -154.262635 
L 975.191686 -150.422493 
L 974.013604 -146.582351 
L 972.968317 -142.742209 
L 972.050609 -138.902068 
L 971.253375 -135.061926 
L 970.568078 -131.221784 
L 969.985194 -127.381642 
L 969.494635 -123.541501 
z
" style="stroke: #595959; stroke-width: 1.5"/>
                </defs>
                <g clip-path="url(#p961f0b3925)">
                    <use xlink:href="#m07832b1926" x="0" y="720"
                         style="fill: #95a3c3; stroke: #595959; stroke-width: 1.5"/>
                </g>
            </g>
            <g id="PolyCollection_4">
                <defs>
                    <path id="m8637afdc64" d="M 1247.29359 -191.557583
L 1245.70641 -191.557583 
L 1245.511439 -193.334731 
L 1245.278074 -195.111879 
L 1245.00109 -196.889027 
L 1244.675045 -198.666175 
L 1244.294379 -200.443323 
L 1243.853524 -202.220471 
L 1243.347044 -203.997619 
L 1242.769784 -205.774767 
L 1242.117045 -207.551915 
L 1241.384772 -209.329063 
L 1240.569759 -211.106211 
L 1239.669863 -212.883359 
L 1238.684223 -214.660507 
L 1237.61348 -216.437655 
L 1236.459987 -218.214803 
L 1235.228004 -219.991951 
L 1233.92386 -221.769099 
L 1232.556077 -223.546247 
L 1231.135435 -225.323395 
L 1229.674979 -227.100543 
L 1228.189934 -228.877691 
L 1226.697545 -230.654839 
L 1225.216815 -232.431988 
L 1223.768155 -234.209136 
L 1222.372945 -235.986284 
L 1221.053012 -237.763432 
L 1219.830054 -239.54058 
L 1218.725027 -241.317728 
L 1217.757509 -243.094876 
L 1216.9451 -244.872024 
L 1216.302855 -246.649172 
L 1215.842797 -248.42632 
L 1215.573536 -250.203468 
L 1215.5 -251.980616 
L 1215.623298 -253.757764 
L 1215.940718 -255.534912 
L 1216.445861 -257.31206 
L 1217.128885 -259.089208 
L 1217.97686 -260.866356 
L 1218.9742 -262.643504 
L 1220.103157 -264.420652 
L 1221.344343 -266.1978 
L 1222.677263 -267.974948 
L 1224.080843 -269.752096 
L 1225.533918 -271.529244 
L 1227.015688 -273.306392 
L 1228.506118 -275.08354 
L 1229.986278 -276.860688 
L 1231.438631 -278.637836 
L 1232.847251 -280.414984 
L 1234.197995 -282.192132 
L 1235.478609 -283.96928 
L 1236.678797 -285.746428 
L 1237.790235 -287.523577 
L 1238.80655 -289.300725 
L 1239.723273 -291.077873 
L 1240.53775 -292.855021 
L 1241.249048 -294.632169 
L 1241.857837 -296.409317 
L 1242.366265 -298.186465 
L 1242.777831 -299.963613 
L 1243.097255 -301.740761 
L 1243.330346 -303.517909 
L 1243.483885 -305.295057 
L 1243.565493 -307.072205 
L 1243.583509 -308.849353 
L 1243.546864 -310.626501 
L 1243.46494 -312.403649 
L 1243.347422 -314.180797 
L 1243.204139 -315.957945 
L 1243.044882 -317.735093 
L 1242.879216 -319.512241 
L 1242.716276 -321.289389 
L 1242.564562 -323.066537 
L 1242.431736 -324.843685 
L 1242.324437 -326.620833 
L 1242.248109 -328.397981 
L 1242.206881 -330.175129 
L 1242.203475 -331.952277 
L 1242.239173 -333.729425 
L 1242.313838 -335.506573 
L 1242.42599 -337.283721 
L 1242.572932 -339.060869 
L 1242.750928 -340.838018 
L 1242.955407 -342.615166 
L 1243.181206 -344.392314 
L 1243.422809 -346.169462 
L 1243.674592 -347.94661 
L 1243.931056 -349.723758 
L 1244.187025 -351.500906 
L 1244.437817 -353.278054 
L 1244.67937 -355.055202 
L 1244.908332 -356.83235 
L 1245.122096 -358.609498 
L 1245.318809 -360.386646 
L 1245.497335 -362.163794 
L 1245.657199 -363.940942 
L 1245.798499 -365.71809 
L 1245.921817 -367.495238 
L 1247.078183 -367.495238 
L 1247.078183 -367.495238 
L 1247.201501 -365.71809 
L 1247.342801 -363.940942 
L 1247.502665 -362.163794 
L 1247.681191 -360.386646 
L 1247.877904 -358.609498 
L 1248.091668 -356.83235 
L 1248.32063 -355.055202 
L 1248.562183 -353.278054 
L 1248.812975 -351.500906 
L 1249.068944 -349.723758 
L 1249.325408 -347.94661 
L 1249.577191 -346.169462 
L 1249.818794 -344.392314 
L 1250.044593 -342.615166 
L 1250.249072 -340.838018 
L 1250.427068 -339.060869 
L 1250.57401 -337.283721 
L 1250.686162 -335.506573 
L 1250.760827 -333.729425 
L 1250.796525 -331.952277 
L 1250.793119 -330.175129 
L 1250.751891 -328.397981 
L 1250.675563 -326.620833 
L 1250.568264 -324.843685 
L 1250.435438 -323.066537 
L 1250.283724 -321.289389 
L 1250.120784 -319.512241 
L 1249.955118 -317.735093 
L 1249.795861 -315.957945 
L 1249.652578 -314.180797 
L 1249.53506 -312.403649 
L 1249.453136 -310.626501 
L 1249.416491 -308.849353 
L 1249.434507 -307.072205 
L 1249.516115 -305.295057 
L 1249.669654 -303.517909 
L 1249.902745 -301.740761 
L 1250.222169 -299.963613 
L 1250.633735 -298.186465 
L 1251.142163 -296.409317 
L 1251.750952 -294.632169 
L 1252.46225 -292.855021 
L 1253.276727 -291.077873 
L 1254.19345 -289.300725 
L 1255.209765 -287.523577 
L 1256.321203 -285.746428 
L 1257.521391 -283.96928 
L 1258.802005 -282.192132 
L 1260.152749 -280.414984 
L 1261.561369 -278.637836 
L 1263.013722 -276.860688 
L 1264.493882 -275.08354 
L 1265.984312 -273.306392 
L 1267.466082 -271.529244 
L 1268.919157 -269.752096 
L 1270.322737 -267.974948 
L 1271.655657 -266.1978 
L 1272.896843 -264.420652 
L 1274.0258 -262.643504 
L 1275.02314 -260.866356 
L 1275.871115 -259.089208 
L 1276.554139 -257.31206 
L 1277.059282 -255.534912 
L 1277.376702 -253.757764 
L 1277.5 -251.980616 
L 1277.426464 -250.203468 
L 1277.157203 -248.42632 
L 1276.697145 -246.649172 
L 1276.0549 -244.872024 
L 1275.242491 -243.094876 
L 1274.274973 -241.317728 
L 1273.169946 -239.54058 
L 1271.946988 -237.763432 
L 1270.627055 -235.986284 
L 1269.231845 -234.209136 
L 1267.783185 -232.431988 
L 1266.302455 -230.654839 
L 1264.810066 -228.877691 
L 1263.325021 -227.100543 
L 1261.864565 -225.323395 
L 1260.443923 -223.546247 
L 1259.07614 -221.769099 
L 1257.771996 -219.991951 
L 1256.540013 -218.214803 
L 1255.38652 -216.437655 
L 1254.315777 -214.660507 
L 1253.330137 -212.883359 
L 1252.430241 -211.106211 
L 1251.615228 -209.329063 
L 1250.882955 -207.551915 
L 1250.230216 -205.774767 
L 1249.652956 -203.997619 
L 1249.146476 -202.220471 
L 1248.705621 -200.443323 
L 1248.324955 -198.666175 
L 1247.99891 -196.889027 
L 1247.721926 -195.111879 
L 1247.488561 -193.334731 
L 1247.29359 -191.557583 
z
" style="stroke: #595959; stroke-width: 1.5"/>
                </defs>
                <g clip-path="url(#p961f0b3925)">
                    <use xlink:href="#m8637afdc64" x="0" y="720"
                         style="fill: #db96c0; stroke: #595959; stroke-width: 1.5"/>
                </g>
            </g>
            <g id="PolyCollection_5">
                <defs>
                    <path id="mf1026287d9" d="M 1527.393485 -154.646436
L 1523.606515 -154.646436 
L 1522.947031 -157.666109 
L 1522.103245 -160.685782 
L 1521.038828 -163.705454 
L 1519.714618 -166.725127 
L 1518.08956 -169.7448 
L 1516.121957 -172.764473 
L 1513.771074 -175.784146 
L 1510.99907 -178.803819 
L 1507.773257 -181.823492 
L 1504.068622 -184.843165 
L 1499.870547 -187.862838 
L 1495.177585 -190.882511 
L 1490.004128 -193.902184 
L 1484.382741 -196.921857 
L 1478.365889 -199.94153 
L 1472.026791 -202.961203 
L 1465.459117 -205.980876 
L 1458.775334 -209.000549 
L 1452.103561 -212.020222 
L 1445.582974 -215.039895 
L 1439.357938 -218.059568 
L 1433.571198 -221.079241 
L 1428.356643 -224.098913 
L 1423.832203 -227.118586 
L 1420.093514 -230.138259 
L 1417.208911 -233.157932 
L 1415.216198 -236.177605 
L 1414.121466 -239.197278 
L 1413.9 -242.216951 
L 1414.49914 -245.236624 
L 1415.842738 -248.256297 
L 1417.836756 -251.27597 
L 1420.375495 -254.295643 
L 1423.34794 -257.315316 
L 1426.643795 -260.334989 
L 1430.15887 -263.354662 
L 1433.799594 -266.374335 
L 1437.486528 -269.394008 
L 1441.15681 -272.413681 
L 1444.765519 -275.433354 
L 1448.285939 -278.453027 
L 1451.708739 -281.4727 
L 1455.040087 -284.492372 
L 1458.298771 -287.512045 
L 1461.512454 -290.531718 
L 1464.713288 -293.551391 
L 1467.933192 -296.571064 
L 1471.199189 -299.590737 
L 1474.529225 -302.61041 
L 1477.928894 -305.630083 
L 1481.389408 -308.649756 
L 1484.887055 -311.669429 
L 1488.384198 -314.689102 
L 1491.831741 -317.708775 
L 1495.172772 -320.728448 
L 1498.347024 -323.748121 
L 1501.295672 -326.767794 
L 1503.965994 -329.787467 
L 1506.31546 -332.80714 
L 1508.314889 -335.826813 
L 1509.950428 -338.846486 
L 1511.22425 -341.866159 
L 1512.153989 -344.885831 
L 1512.771022 -347.905504 
L 1513.117838 -350.925177 
L 1513.244752 -353.94485 
L 1513.206285 -356.964523 
L 1513.057533 -359.984196 
L 1512.850807 -363.003869 
L 1512.632814 -366.023542 
L 1512.442564 -369.043215 
L 1512.310123 -372.062888 
L 1512.256227 -375.082561 
L 1512.292714 -378.102234 
L 1512.423618 -381.121907 
L 1512.646739 -384.14158 
L 1512.955444 -387.161253 
L 1513.340464 -390.180926 
L 1513.791475 -393.200599 
L 1514.298315 -396.220272 
L 1514.851731 -399.239945 
L 1515.44368 -402.259618 
L 1516.067216 -405.27929 
L 1516.716108 -408.298963 
L 1517.384324 -411.318636 
L 1518.065519 -414.338309 
L 1518.752671 -417.357982 
L 1519.437929 -420.377655 
L 1520.112701 -423.397328 
L 1520.767976 -426.417001 
L 1521.394804 -429.436674 
L 1521.984854 -432.456347 
L 1522.530962 -435.47602 
L 1523.027587 -438.495693 
L 1523.471112 -441.515366 
L 1523.859966 -444.535039 
L 1524.194562 -447.554712 
L 1524.47708 -450.574385 
L 1524.711138 -453.594058 
L 1526.288862 -453.594058 
L 1526.288862 -453.594058 
L 1526.52292 -450.574385 
L 1526.805438 -447.554712 
L 1527.140034 -444.535039 
L 1527.528888 -441.515366 
L 1527.972413 -438.495693 
L 1528.469038 -435.47602 
L 1529.015146 -432.456347 
L 1529.605196 -429.436674 
L 1530.232024 -426.417001 
L 1530.887299 -423.397328 
L 1531.562071 -420.377655 
L 1532.247329 -417.357982 
L 1532.934481 -414.338309 
L 1533.615676 -411.318636 
L 1534.283892 -408.298963 
L 1534.932784 -405.27929 
L 1535.55632 -402.259618 
L 1536.148269 -399.239945 
L 1536.701685 -396.220272 
L 1537.208525 -393.200599 
L 1537.659536 -390.180926 
L 1538.044556 -387.161253 
L 1538.353261 -384.14158 
L 1538.576382 -381.121907 
L 1538.707286 -378.102234 
L 1538.743773 -375.082561 
L 1538.689877 -372.062888 
L 1538.557436 -369.043215 
L 1538.367186 -366.023542 
L 1538.149193 -363.003869 
L 1537.942467 -359.984196 
L 1537.793715 -356.964523 
L 1537.755248 -353.94485 
L 1537.882162 -350.925177 
L 1538.228978 -347.905504 
L 1538.846011 -344.885831 
L 1539.77575 -341.866159 
L 1541.049572 -338.846486 
L 1542.685111 -335.826813 
L 1544.68454 -332.80714 
L 1547.034006 -329.787467 
L 1549.704328 -326.767794 
L 1552.652976 -323.748121 
L 1555.827228 -320.728448 
L 1559.168259 -317.708775 
L 1562.615802 -314.689102 
L 1566.112945 -311.669429 
L 1569.610592 -308.649756 
L 1573.071106 -305.630083 
L 1576.470775 -302.61041 
L 1579.800811 -299.590737 
L 1583.066808 -296.571064 
L 1586.286712 -293.551391 
L 1589.487546 -290.531718 
L 1592.701229 -287.512045 
L 1595.959913 -284.492372 
L 1599.291261 -281.4727 
L 1602.714061 -278.453027 
L 1606.234481 -275.433354 
L 1609.84319 -272.413681 
L 1613.513472 -269.394008 
L 1617.200406 -266.374335 
L 1620.84113 -263.354662 
L 1624.356205 -260.334989 
L 1627.65206 -257.315316 
L 1630.624505 -254.295643 
L 1633.163244 -251.27597 
L 1635.157262 -248.256297 
L 1636.50086 -245.236624 
L 1637.1 -242.216951 
L 1636.878534 -239.197278 
L 1635.783802 -236.177605 
L 1633.791089 -233.157932 
L 1630.906486 -230.138259 
L 1627.167797 -227.118586 
L 1622.643357 -224.098913 
L 1617.428802 -221.079241 
L 1611.642062 -218.059568 
L 1605.417026 -215.039895 
L 1598.896439 -212.020222 
L 1592.224666 -209.000549 
L 1585.540883 -205.980876 
L 1578.973209 -202.961203 
L 1572.634111 -199.94153 
L 1566.617259 -196.921857 
L 1560.995872 -193.902184 
L 1555.822415 -190.882511 
L 1551.129453 -187.862838 
L 1546.931378 -184.843165 
L 1543.226743 -181.823492 
L 1540.00093 -178.803819 
L 1537.228926 -175.784146 
L 1534.878043 -172.764473 
L 1532.91044 -169.7448 
L 1531.285382 -166.725127 
L 1529.961172 -163.705454 
L 1528.896755 -160.685782 
L 1528.052969 -157.666109 
L 1527.393485 -154.646436 
z
" style="stroke: #595959; stroke-width: 1.5"/>
                </defs>
                <g clip-path="url(#p961f0b3925)">
                    <use xlink:href="#mf1026287d9" x="0" y="720"
                         style="fill: #a2c865; stroke: #595959; stroke-width: 1.5"/>
                </g>
            </g>
            <g id="PolyCollection_6">
                <defs>
                    <path id="m9c2c4d4962" d="M 1807.327523 -152.334142
L 1801.672477 -152.334142 
L 1801.117575 -154.468625 
L 1800.481816 -156.603107 
L 1799.759578 -158.73759 
L 1798.946119 -160.872073 
L 1798.037869 -163.006555 
L 1797.032715 -165.141038 
L 1795.930288 -167.275521 
L 1794.732217 -169.410004 
L 1793.442352 -171.544486 
L 1792.066931 -173.678969 
L 1790.614682 -175.813452 
L 1789.096843 -177.947934 
L 1787.527096 -180.082417 
L 1785.921398 -182.2169 
L 1784.297723 -184.351382 
L 1782.6757 -186.485865 
L 1781.076168 -188.620348 
L 1779.520653 -190.75483 
L 1778.030786 -192.889313 
L 1776.627693 -195.023796 
L 1775.33136 -197.158278 
L 1774.160025 -199.292761 
L 1773.129608 -201.427244 
L 1772.253204 -203.561726 
L 1771.540675 -205.696209 
L 1770.998346 -207.830692 
L 1770.628832 -209.965174 
L 1770.430987 -212.099657 
L 1770.4 -214.23414 
L 1770.527615 -216.368623 
L 1770.802465 -218.503105 
L 1771.21052 -220.637588 
L 1771.735604 -222.772071 
L 1772.359978 -224.906553 
L 1773.064946 -227.041036 
L 1773.831473 -229.175519 
L 1774.64077 -231.310001 
L 1775.474848 -233.444484 
L 1776.316987 -235.578967 
L 1777.152146 -237.713449 
L 1777.967259 -239.847932 
L 1778.751447 -241.982415 
L 1779.496126 -244.116897 
L 1780.195023 -246.25138 
L 1780.844096 -248.385863 
L 1781.441393 -250.520345 
L 1781.986841 -252.654828 
L 1782.481989 -254.789311 
L 1782.929731 -256.923794 
L 1783.334011 -259.058276 
L 1783.699535 -261.192759 
L 1784.031497 -263.327242 
L 1784.335338 -265.461724 
L 1784.616536 -267.596207 
L 1784.88044 -269.73069 
L 1785.132149 -271.865172 
L 1785.37643 -273.999655 
L 1785.617675 -276.134138 
L 1785.859892 -278.26862 
L 1786.10672 -280.403103 
L 1786.361459 -282.537586 
L 1786.627114 -284.672068 
L 1786.90643 -286.806551 
L 1787.201929 -288.941034 
L 1787.515927 -291.075516 
L 1787.850538 -293.209999 
L 1788.207659 -295.344482 
L 1788.588937 -297.478964 
L 1788.995723 -299.613447 
L 1789.429009 -301.74793 
L 1789.889366 -303.882413 
L 1790.37688 -306.016895 
L 1790.891091 -308.151378 
L 1791.430949 -310.285861 
L 1791.994788 -312.420343 
L 1792.580323 -314.554826 
L 1793.184662 -316.689309 
L 1793.804361 -318.823791 
L 1794.435485 -320.958274 
L 1795.073705 -323.092757 
L 1795.714403 -325.227239 
L 1796.352799 -327.361722 
L 1796.984076 -329.496205 
L 1797.603513 -331.630687 
L 1798.206609 -333.76517 
L 1798.789198 -335.899653 
L 1799.347549 -338.034135 
L 1799.878446 -340.168618 
L 1800.379248 -342.303101 
L 1800.847923 -344.437584 
L 1801.283063 -346.572066 
L 1801.683879 -348.706549 
L 1802.050167 -350.841032 
L 1802.38227 -352.975514 
L 1802.681016 -355.109997 
L 1802.947654 -357.24448 
L 1803.183778 -359.378962 
L 1803.391257 -361.513445 
L 1803.572151 -363.647928 
L 1805.427849 -363.647928 
L 1805.427849 -363.647928 
L 1805.608743 -361.513445 
L 1805.816222 -359.378962 
L 1806.052346 -357.24448 
L 1806.318984 -355.109997 
L 1806.61773 -352.975514 
L 1806.949833 -350.841032 
L 1807.316121 -348.706549 
L 1807.716937 -346.572066 
L 1808.152077 -344.437584 
L 1808.620752 -342.303101 
L 1809.121554 -340.168618 
L 1809.652451 -338.034135 
L 1810.210802 -335.899653 
L 1810.793391 -333.76517 
L 1811.396487 -331.630687 
L 1812.015924 -329.496205 
L 1812.647201 -327.361722 
L 1813.285597 -325.227239 
L 1813.926295 -323.092757 
L 1814.564515 -320.958274 
L 1815.195639 -318.823791 
L 1815.815338 -316.689309 
L 1816.419677 -314.554826 
L 1817.005212 -312.420343 
L 1817.569051 -310.285861 
L 1818.108909 -308.151378 
L 1818.62312 -306.016895 
L 1819.110634 -303.882413 
L 1819.570991 -301.74793 
L 1820.004277 -299.613447 
L 1820.411063 -297.478964 
L 1820.792341 -295.344482 
L 1821.149462 -293.209999 
L 1821.484073 -291.075516 
L 1821.798071 -288.941034 
L 1822.09357 -286.806551 
L 1822.372886 -284.672068 
L 1822.638541 -282.537586 
L 1822.89328 -280.403103 
L 1823.140108 -278.26862 
L 1823.382325 -276.134138 
L 1823.62357 -273.999655 
L 1823.867851 -271.865172 
L 1824.11956 -269.73069 
L 1824.383464 -267.596207 
L 1824.664662 -265.461724 
L 1824.968503 -263.327242 
L 1825.300465 -261.192759 
L 1825.665989 -259.058276 
L 1826.070269 -256.923794 
L 1826.518011 -254.789311 
L 1827.013159 -252.654828 
L 1827.558607 -250.520345 
L 1828.155904 -248.385863 
L 1828.804977 -246.25138 
L 1829.503874 -244.116897 
L 1830.248553 -241.982415 
L 1831.032741 -239.847932 
L 1831.847854 -237.713449 
L 1832.683013 -235.578967 
L 1833.525152 -233.444484 
L 1834.35923 -231.310001 
L 1835.168527 -229.175519 
L 1835.935054 -227.041036 
L 1836.640022 -224.906553 
L 1837.264396 -222.772071 
L 1837.78948 -220.637588 
L 1838.197535 -218.503105 
L 1838.472385 -216.368623 
L 1838.6 -214.23414 
L 1838.569013 -212.099657 
L 1838.371168 -209.965174 
L 1838.001654 -207.830692 
L 1837.459325 -205.696209 
L 1836.746796 -203.561726 
L 1835.870392 -201.427244 
L 1834.839975 -199.292761 
L 1833.66864 -197.158278 
L 1832.372307 -195.023796 
L 1830.969214 -192.889313 
L 1829.479347 -190.75483 
L 1827.923832 -188.620348 
L 1826.3243 -186.485865 
L 1824.702277 -184.351382 
L 1823.078602 -182.2169 
L 1821.472904 -180.082417 
L 1819.903157 -177.947934 
L 1818.385318 -175.813452 
L 1816.933069 -173.678969 
L 1815.557648 -171.544486 
L 1814.267783 -169.410004 
L 1813.069712 -167.275521 
L 1811.967285 -165.141038 
L 1810.962131 -163.006555 
L 1810.053881 -160.872073 
L 1809.240422 -158.73759 
L 1808.518184 -156.603107 
L 1807.882425 -154.468625 
L 1807.327523 -152.334142 
z
" style="stroke: #595959; stroke-width: 1.5"/>
                </defs>
                <g clip-path="url(#p961f0b3925)">
                    <use xlink:href="#m9c2c4d4962" x="0" y="720"
                         style="fill: #e5c849; stroke: #595959; stroke-width: 1.5"/>
                </g>
            </g>
            <g id="matplotlib.axis_1">
                <g id="xtick_1">
                    <g id="line2d_1">
                        <defs>
                            <path id="mcbb153d076" d="M 0 0
L 0 3.5 
" style="stroke: #000000; stroke-width: 0.8"/>
                        </defs>
                        <g>
                            <use xlink:href="#mcbb153d076" x="409.5" y="640.8"
                                 style="stroke: #000000; stroke-width: 0.8"/>
                        </g>
                    </g>
                    <g id="text_1">
                        <!-- 1 -->
                        <g transform="translate(403.1375 662.996875)scale(0.2 -0.2)">
                            <defs>
                                <path id="DejaVuSans-31" d="M 794 531
L 1825 531 
L 1825 4091 
L 703 3866 
L 703 4441 
L 1819 4666 
L 2450 4666 
L 2450 531 
L 3481 531 
L 3481 0 
L 794 0 
L 794 531 
z
" transform="scale(0.015625)"/>
                            </defs>
                            <use xlink:href="#DejaVuSans-31"/>
                        </g>
                    </g>
                </g>
                <g id="xtick_2">
                    <g id="line2d_2">
                        <g>
                            <use xlink:href="#mcbb153d076" x="688.5" y="640.8"
                                 style="stroke: #000000; stroke-width: 0.8"/>
                        </g>
                    </g>
                    <g id="text_2">
                        <!-- 2 -->
                        <g transform="translate(682.1375 662.996875)scale(0.2 -0.2)">
                            <defs>
                                <path id="DejaVuSans-32" d="M 1228 531
L 3431 531 
L 3431 0 
L 469 0 
L 469 531 
Q 828 903 1448 1529 
Q 2069 2156 2228 2338 
Q 2531 2678 2651 2914 
Q 2772 3150 2772 3378 
Q 2772 3750 2511 3984 
Q 2250 4219 1831 4219 
Q 1534 4219 1204 4116 
Q 875 4013 500 3803 
L 500 4441 
Q 881 4594 1212 4672 
Q 1544 4750 1819 4750 
Q 2544 4750 2975 4387 
Q 3406 4025 3406 3419 
Q 3406 3131 3298 2873 
Q 3191 2616 2906 2266 
Q 2828 2175 2409 1742 
Q 1991 1309 1228 531 
z
" transform="scale(0.015625)"/>
                            </defs>
                            <use xlink:href="#DejaVuSans-32"/>
                        </g>
                    </g>
                </g>
                <g id="xtick_3">
                    <g id="line2d_3">
                        <g>
                            <use xlink:href="#mcbb153d076" x="967.5" y="640.8"
                                 style="stroke: #000000; stroke-width: 0.8"/>
                        </g>
                    </g>
                    <g id="text_3">
                        <!-- 3 -->
                        <g transform="translate(961.1375 662.996875)scale(0.2 -0.2)">
                            <defs>
                                <path id="DejaVuSans-33" d="M 2597 2516
Q 3050 2419 3304 2112 
Q 3559 1806 3559 1356 
Q 3559 666 3084 287 
Q 2609 -91 1734 -91 
Q 1441 -91 1130 -33 
Q 819 25 488 141 
L 488 750 
Q 750 597 1062 519 
Q 1375 441 1716 441 
Q 2309 441 2620 675 
Q 2931 909 2931 1356 
Q 2931 1769 2642 2001 
Q 2353 2234 1838 2234 
L 1294 2234 
L 1294 2753 
L 1863 2753 
Q 2328 2753 2575 2939 
Q 2822 3125 2822 3475 
Q 2822 3834 2567 4026 
Q 2313 4219 1838 4219 
Q 1578 4219 1281 4162 
Q 984 4106 628 3988 
L 628 4550 
Q 988 4650 1302 4700 
Q 1616 4750 1894 4750 
Q 2613 4750 3031 4423 
Q 3450 4097 3450 3541 
Q 3450 3153 3228 2886 
Q 3006 2619 2597 2516 
z
" transform="scale(0.015625)"/>
                            </defs>
                            <use xlink:href="#DejaVuSans-33"/>
                        </g>
                    </g>
                </g>
                <g id="xtick_4">
                    <g id="line2d_4">
                        <g>
                            <use xlink:href="#mcbb153d076" x="1246.5" y="640.8"
                                 style="stroke: #000000; stroke-width: 0.8"/>
                        </g>
                    </g>
                    <g id="text_4">
                        <!-- 4 -->
                        <g transform="translate(1240.1375 662.996875)scale(0.2 -0.2)">
                            <defs>
                                <path id="DejaVuSans-34" d="M 2419 4116
L 825 1625 
L 2419 1625 
L 2419 4116 
z
M 2253 4666 
L 3047 4666 
L 3047 1625 
L 3713 1625 
L 3713 1100 
L 3047 1100 
L 3047 0 
L 2419 0 
L 2419 1100 
L 313 1100 
L 313 1709 
L 2253 4666 
z
" transform="scale(0.015625)"/>
                            </defs>
                            <use xlink:href="#DejaVuSans-34"/>
                        </g>
                    </g>
                </g>
                <g id="xtick_5">
                    <g id="line2d_5">
                        <g>
                            <use xlink:href="#mcbb153d076" x="1525.5" y="640.8"
                                 style="stroke: #000000; stroke-width: 0.8"/>
                        </g>
                    </g>
                    <g id="text_5">
                        <!-- 5 -->
                        <g transform="translate(1519.1375 662.996875)scale(0.2 -0.2)">
                            <defs>
                                <path id="DejaVuSans-35" d="M 691 4666
L 3169 4666 
L 3169 4134 
L 1269 4134 
L 1269 2991 
Q 1406 3038 1543 3061 
Q 1681 3084 1819 3084 
Q 2600 3084 3056 2656 
Q 3513 2228 3513 1497 
Q 3513 744 3044 326 
Q 2575 -91 1722 -91 
Q 1428 -91 1123 -41 
Q 819 9 494 109 
L 494 744 
Q 775 591 1075 516 
Q 1375 441 1709 441 
Q 2250 441 2565 725 
Q 2881 1009 2881 1497 
Q 2881 1984 2565 2268 
Q 2250 2553 1709 2553 
Q 1456 2553 1204 2497 
Q 953 2441 691 2322 
L 691 4666 
z
" transform="scale(0.015625)"/>
                            </defs>
                            <use xlink:href="#DejaVuSans-35"/>
                        </g>
                    </g>
                </g>
                <g id="xtick_6">
                    <g id="line2d_6">
                        <g>
                            <use xlink:href="#mcbb153d076" x="1804.5" y="640.8"
                                 style="stroke: #000000; stroke-width: 0.8"/>
                        </g>
                    </g>
                    <g id="text_6">
                        <!-- 6 -->
                        <g transform="translate(1798.1375 662.996875)scale(0.2 -0.2)">
                            <defs>
                                <path id="DejaVuSans-36" d="M 2113 2584
Q 1688 2584 1439 2293 
Q 1191 2003 1191 1497 
Q 1191 994 1439 701 
Q 1688 409 2113 409 
Q 2538 409 2786 701 
Q 3034 994 3034 1497 
Q 3034 2003 2786 2293 
Q 2538 2584 2113 2584 
z
M 3366 4563 
L 3366 3988 
Q 3128 4100 2886 4159 
Q 2644 4219 2406 4219 
Q 1781 4219 1451 3797 
Q 1122 3375 1075 2522 
Q 1259 2794 1537 2939 
Q 1816 3084 2150 3084 
Q 2853 3084 3261 2657 
Q 3669 2231 3669 1497 
Q 3669 778 3244 343 
Q 2819 -91 2113 -91 
Q 1303 -91 875 529 
Q 447 1150 447 2328 
Q 447 3434 972 4092 
Q 1497 4750 2381 4750 
Q 2619 4750 2861 4703 
Q 3103 4656 3366 4563 
z
" transform="scale(0.015625)"/>
                            </defs>
                            <use xlink:href="#DejaVuSans-36"/>
                        </g>
                    </g>
                </g>
                <g id="text_7">
                    <!-- cluster -->
                    <g transform="translate(1072.992188 686.353125)scale(0.2 -0.2)">
                        <defs>
                            <path id="DejaVuSans-63" d="M 3122 3366
L 3122 2828 
Q 2878 2963 2633 3030 
Q 2388 3097 2138 3097 
Q 1578 3097 1268 2742 
Q 959 2388 959 1747 
Q 959 1106 1268 751 
Q 1578 397 2138 397 
Q 2388 397 2633 464 
Q 2878 531 3122 666 
L 3122 134 
Q 2881 22 2623 -34 
Q 2366 -91 2075 -91 
Q 1284 -91 818 406 
Q 353 903 353 1747 
Q 353 2603 823 3093 
Q 1294 3584 2113 3584 
Q 2378 3584 2631 3529 
Q 2884 3475 3122 3366 
z
" transform="scale(0.015625)"/>
                            <path id="DejaVuSans-6c" d="M 603 4863
L 1178 4863 
L 1178 0 
L 603 0 
L 603 4863 
z
" transform="scale(0.015625)"/>
                            <path id="DejaVuSans-75" d="M 544 1381
L 544 3500 
L 1119 3500 
L 1119 1403 
Q 1119 906 1312 657 
Q 1506 409 1894 409 
Q 2359 409 2629 706 
Q 2900 1003 2900 1516 
L 2900 3500 
L 3475 3500 
L 3475 0 
L 2900 0 
L 2900 538 
Q 2691 219 2414 64 
Q 2138 -91 1772 -91 
Q 1169 -91 856 284 
Q 544 659 544 1381 
z
M 1991 3584 
L 1991 3584 
z
" transform="scale(0.015625)"/>
                            <path id="DejaVuSans-73" d="M 2834 3397
L 2834 2853 
Q 2591 2978 2328 3040 
Q 2066 3103 1784 3103 
Q 1356 3103 1142 2972 
Q 928 2841 928 2578 
Q 928 2378 1081 2264 
Q 1234 2150 1697 2047 
L 1894 2003 
Q 2506 1872 2764 1633 
Q 3022 1394 3022 966 
Q 3022 478 2636 193 
Q 2250 -91 1575 -91 
Q 1294 -91 989 -36 
Q 684 19 347 128 
L 347 722 
Q 666 556 975 473 
Q 1284 391 1588 391 
Q 1994 391 2212 530 
Q 2431 669 2431 922 
Q 2431 1156 2273 1281 
Q 2116 1406 1581 1522 
L 1381 1569 
Q 847 1681 609 1914 
Q 372 2147 372 2553 
Q 372 3047 722 3315 
Q 1072 3584 1716 3584 
Q 2034 3584 2315 3537 
Q 2597 3491 2834 3397 
z
" transform="scale(0.015625)"/>
                            <path id="DejaVuSans-74" d="M 1172 4494
L 1172 3500 
L 2356 3500 
L 2356 3053 
L 1172 3053 
L 1172 1153 
Q 1172 725 1289 603 
Q 1406 481 1766 481 
L 2356 481 
L 2356 0 
L 1766 0 
Q 1100 0 847 248 
Q 594 497 594 1153 
L 594 3053 
L 172 3053 
L 172 3500 
L 594 3500 
L 594 4494 
L 1172 4494 
z
" transform="scale(0.015625)"/>
                            <path id="DejaVuSans-65" d="M 3597 1894
L 3597 1613 
L 953 1613 
Q 991 1019 1311 708 
Q 1631 397 2203 397 
Q 2534 397 2845 478 
Q 3156 559 3463 722 
L 3463 178 
Q 3153 47 2828 -22 
Q 2503 -91 2169 -91 
Q 1331 -91 842 396 
Q 353 884 353 1716 
Q 353 2575 817 3079 
Q 1281 3584 2069 3584 
Q 2775 3584 3186 3129 
Q 3597 2675 3597 1894 
z
M 3022 2063 
Q 3016 2534 2758 2815 
Q 2500 3097 2075 3097 
Q 1594 3097 1305 2825 
Q 1016 2553 972 2059 
L 3022 2063 
z
" transform="scale(0.015625)"/>
                            <path id="DejaVuSans-72" d="M 2631 2963
Q 2534 3019 2420 3045 
Q 2306 3072 2169 3072 
Q 1681 3072 1420 2755 
Q 1159 2438 1159 1844 
L 1159 0 
L 581 0 
L 581 3500 
L 1159 3500 
L 1159 2956 
Q 1341 3275 1631 3429 
Q 1922 3584 2338 3584 
Q 2397 3584 2469 3576 
Q 2541 3569 2628 3553 
L 2631 2963 
z
" transform="scale(0.015625)"/>
                        </defs>
                        <use xlink:href="#DejaVuSans-63"/>
                        <use xlink:href="#DejaVuSans-6c" x="54.980469"/>
                        <use xlink:href="#DejaVuSans-75" x="82.763672"/>
                        <use xlink:href="#DejaVuSans-73" x="146.142578"/>
                        <use xlink:href="#DejaVuSans-74" x="198.242188"/>
                        <use xlink:href="#DejaVuSans-65" x="237.451172"/>
                        <use xlink:href="#DejaVuSans-72" x="298.974609"/>
                    </g>
                </g>
            </g>
            <g id="matplotlib.axis_2">
                <g id="ytick_1">
                    <g id="line2d_7">
                        <defs>
                            <path id="m35adb004d3" d="M 0 0
L -3.5 0 
" style="stroke: #000000; stroke-width: 0.8"/>
                        </defs>
                        <g>
                            <use xlink:href="#m35adb004d3" x="270" y="631.353115"
                                 style="stroke: #000000; stroke-width: 0.8"/>
                        </g>
                    </g>
                    <g id="text_8">
                        <!-- 0 -->
                        <g transform="translate(250.275 638.951552)scale(0.2 -0.2)">
                            <defs>
                                <path id="DejaVuSans-30" d="M 2034 4250
Q 1547 4250 1301 3770 
Q 1056 3291 1056 2328 
Q 1056 1369 1301 889 
Q 1547 409 2034 409 
Q 2525 409 2770 889 
Q 3016 1369 3016 2328 
Q 3016 3291 2770 3770 
Q 2525 4250 2034 4250 
z
M 2034 4750 
Q 2819 4750 3233 4129 
Q 3647 3509 3647 2328 
Q 3647 1150 3233 529 
Q 2819 -91 2034 -91 
Q 1250 -91 836 529 
Q 422 1150 422 2328 
Q 422 3509 836 4129 
Q 1250 4750 2034 4750 
z
" transform="scale(0.015625)"/>
                            </defs>
                            <use xlink:href="#DejaVuSans-30"/>
                        </g>
                    </g>
                </g>
                <g id="ytick_2">
                    <g id="line2d_8">
                        <g>
                            <use xlink:href="#m35adb004d3" x="270" y="522.031075"
                                 style="stroke: #000000; stroke-width: 0.8"/>
                        </g>
                    </g>
                    <g id="text_9">
                        <!-- 5 -->
                        <g transform="translate(250.275 529.629513)scale(0.2 -0.2)">
                            <use xlink:href="#DejaVuSans-35"/>
                        </g>
                    </g>
                </g>
                <g id="ytick_3">
                    <g id="line2d_9">
                        <g>
                            <use xlink:href="#m35adb004d3" x="270" y="412.709036"
                                 style="stroke: #000000; stroke-width: 0.8"/>
                        </g>
                    </g>
                    <g id="text_10">
                        <!-- 10 -->
                        <g transform="translate(237.55 420.307473)scale(0.2 -0.2)">
                            <use xlink:href="#DejaVuSans-31"/>
                            <use xlink:href="#DejaVuSans-30" x="63.623047"/>
                        </g>
                    </g>
                </g>
                <g id="ytick_4">
                    <g id="line2d_10">
                        <g>
                            <use xlink:href="#m35adb004d3" x="270" y="303.386996"
                                 style="stroke: #000000; stroke-width: 0.8"/>
                        </g>
                    </g>
                    <g id="text_11">
                        <!-- 15 -->
                        <g transform="translate(237.55 310.985434)scale(0.2 -0.2)">
                            <use xlink:href="#DejaVuSans-31"/>
                            <use xlink:href="#DejaVuSans-35" x="63.623047"/>
                        </g>
                    </g>
                </g>
                <g id="ytick_5">
                    <g id="line2d_11">
                        <g>
                            <use xlink:href="#m35adb004d3" x="270" y="194.064957"
                                 style="stroke: #000000; stroke-width: 0.8"/>
                        </g>
                    </g>
                    <g id="text_12">
                        <!-- 20 -->
                        <g transform="translate(237.55 201.663394)scale(0.2 -0.2)">
                            <use xlink:href="#DejaVuSans-32"/>
                            <use xlink:href="#DejaVuSans-30" x="63.623047"/>
                        </g>
                    </g>
                </g>
                <g id="text_13">
                    <!-- log -->
                    <g transform="translate(229.390625 378.845312)rotate(-90)scale(0.2 -0.2)">
                        <defs>
                            <path id="DejaVuSans-6f" d="M 1959 3097
Q 1497 3097 1228 2736 
Q 959 2375 959 1747 
Q 959 1119 1226 758 
Q 1494 397 1959 397 
Q 2419 397 2687 759 
Q 2956 1122 2956 1747 
Q 2956 2369 2687 2733 
Q 2419 3097 1959 3097 
z
M 1959 3584 
Q 2709 3584 3137 3096 
Q 3566 2609 3566 1747 
Q 3566 888 3137 398 
Q 2709 -91 1959 -91 
Q 1206 -91 779 398 
Q 353 888 353 1747 
Q 353 2609 779 3096 
Q 1206 3584 1959 3584 
z
" transform="scale(0.015625)"/>
                            <path id="DejaVuSans-67" d="M 2906 1791
Q 2906 2416 2648 2759 
Q 2391 3103 1925 3103 
Q 1463 3103 1205 2759 
Q 947 2416 947 1791 
Q 947 1169 1205 825 
Q 1463 481 1925 481 
Q 2391 481 2648 825 
Q 2906 1169 2906 1791 
z
M 3481 434 
Q 3481 -459 3084 -895 
Q 2688 -1331 1869 -1331 
Q 1566 -1331 1297 -1286 
Q 1028 -1241 775 -1147 
L 775 -588 
Q 1028 -725 1275 -790 
Q 1522 -856 1778 -856 
Q 2344 -856 2625 -561 
Q 2906 -266 2906 331 
L 2906 616 
Q 2728 306 2450 153 
Q 2172 0 1784 0 
Q 1141 0 747 490 
Q 353 981 353 1791 
Q 353 2603 747 3093 
Q 1141 3584 1784 3584 
Q 2172 3584 2450 3431 
Q 2728 3278 2906 2969 
L 2906 3500 
L 3481 3500 
L 3481 434 
z
" transform="scale(0.015625)"/>
                        </defs>
                        <use xlink:href="#DejaVuSans-6c"/>
                        <use xlink:href="#DejaVuSans-6f" x="27.783203"/>
                        <use xlink:href="#DejaVuSans-67" x="88.964844"/>
                    </g>
                </g>
            </g>
            <g id="line2d_12">
                <path d="M 409.5 517.180484
L 409.5 434.573444 
" clip-path="url(#p961f0b3925)" style="fill: none; stroke: #595959; stroke-width: 1.5; stroke-linecap: square"/>
            </g>
            <g id="line2d_13">
                <path d="M 409.5 489.816683
L 409.5 451.503663 
" clip-path="url(#p961f0b3925)" style="fill: none; stroke: #595959; stroke-width: 4.5; stroke-linecap: square"/>
            </g>
            <g id="line2d_14">
                <path d="M 688.5 518.644236
L 688.5 340.533969 
" clip-path="url(#p961f0b3925)" style="fill: none; stroke: #595959; stroke-width: 1.5; stroke-linecap: square"/>
            </g>
            <g id="line2d_15">
                <path d="M 688.5 484.856809
L 688.5 403.401884 
" clip-path="url(#p961f0b3925)" style="fill: none; stroke: #595959; stroke-width: 4.5; stroke-linecap: square"/>
            </g>
            <g id="line2d_16">
                <path d="M 967.5 521.443532
L 967.5 378.411733 
" clip-path="url(#p961f0b3925)" style="fill: none; stroke: #595959; stroke-width: 1.5; stroke-linecap: square"/>
            </g>
            <g id="line2d_17">
                <path d="M 967.5 491.648642
L 967.5 435.297137 
" clip-path="url(#p961f0b3925)" style="fill: none; stroke: #595959; stroke-width: 4.5; stroke-linecap: square"/>
            </g>
            <g id="line2d_18">
                <path d="M 1246.5 492.584364
L 1246.5 449.46838 
" clip-path="url(#p961f0b3925)" style="fill: none; stroke: #595959; stroke-width: 1.5; stroke-linecap: square"/>
            </g>
            <g id="line2d_19">
                <path d="M 1246.5 473.339587
L 1246.5 453.003053 
" clip-path="url(#p961f0b3925)" style="fill: none; stroke: #595959; stroke-width: 4.5; stroke-linecap: square"/>
            </g>
            <g id="line2d_20">
                <path d="M 1525.5 519.299364
L 1525.5 354.602681 
" clip-path="url(#p961f0b3925)" style="fill: none; stroke: #595959; stroke-width: 1.5; stroke-linecap: square"/>
            </g>
            <g id="line2d_21">
                <path d="M 1525.5 489.420114
L 1525.5 433.868383 
" clip-path="url(#p961f0b3925)" style="fill: none; stroke: #595959; stroke-width: 4.5; stroke-linecap: square"/>
            </g>
            <g id="line2d_22">
                <path d="M 1804.5 517.337439
L 1804.5 406.680491 
" clip-path="url(#p961f0b3925)" style="fill: none; stroke: #595959; stroke-width: 1.5; stroke-linecap: square"/>
            </g>
            <g id="line2d_23">
                <path d="M 1804.5 513.282636
L 1804.5 451.145286 
" clip-path="url(#p961f0b3925)" style="fill: none; stroke: #595959; stroke-width: 4.5; stroke-linecap: square"/>
            </g>
            <g id="patch_3">
                <path d="M 270 640.8
L 270 86.4 
" style="fill: none; stroke: #000000; stroke-width: 0.8; stroke-linejoin: miter; stroke-linecap: square"/>
            </g>
            <g id="patch_4">
                <path d="M 1944 640.8
L 1944 86.4 
" style="fill: none; stroke: #000000; stroke-width: 0.8; stroke-linejoin: miter; stroke-linecap: square"/>
            </g>
            <g id="patch_5">
                <path d="M 270 640.8
L 1944 640.8 
" style="fill: none; stroke: #000000; stroke-width: 0.8; stroke-linejoin: miter; stroke-linecap: square"/>
            </g>
            <g id="patch_6">
                <path d="M 270 86.4
L 1944 86.4 
" style="fill: none; stroke: #000000; stroke-width: 0.8; stroke-linejoin: miter; stroke-linecap: square"/>
            </g>
            <g id="PathCollection_1">
                <defs>
                    <path id="m0dcedaba80" d="M 0 1.5
C 0.397805 1.5 0.77937 1.341951 1.06066 1.06066 
C 1.341951 0.77937 1.5 0.397805 1.5 0 
C 1.5 -0.397805 1.341951 -0.77937 1.06066 -1.06066 
C 0.77937 -1.341951 0.397805 -1.5 0 -1.5 
C -0.397805 -1.5 -0.77937 -1.341951 -1.06066 -1.06066 
C -1.341951 -0.77937 -1.5 -0.397805 -1.5 0 
C -1.5 0.397805 -1.341951 0.77937 -1.06066 1.06066 
C -0.77937 1.341951 -0.397805 1.5 0 1.5 
z
" style="stroke: #595959"/>
                </defs>
                <g clip-path="url(#p961f0b3925)">
                    <use xlink:href="#m0dcedaba80" x="409.5" y="472.784413" style="fill: #ffffff; stroke: #595959"/>
                </g>
            </g>
            <g id="PathCollection_2">
                <g clip-path="url(#p961f0b3925)">
                    <use xlink:href="#m0dcedaba80" x="688.5" y="453.450378" style="fill: #ffffff; stroke: #595959"/>
                </g>
            </g>
            <g id="PathCollection_3">
                <g clip-path="url(#p961f0b3925)">
                    <use xlink:href="#m0dcedaba80" x="967.5" y="474.404411" style="fill: #ffffff; stroke: #595959"/>
                </g>
            </g>
            <g id="PathCollection_4">
                <g clip-path="url(#p961f0b3925)">
                    <use xlink:href="#m0dcedaba80" x="1246.5" y="468.115477" style="fill: #ffffff; stroke: #595959"/>
                </g>
            </g>
            <g id="PathCollection_5">
                <g clip-path="url(#p961f0b3925)">
                    <use xlink:href="#m0dcedaba80" x="1525.5" y="469.619308" style="fill: #ffffff; stroke: #595959"/>
                </g>
            </g>
            <g id="PathCollection_6">
                <g clip-path="url(#p961f0b3925)">
                    <use xlink:href="#m0dcedaba80" x="1804.5" y="496.363896" style="fill: #ffffff; stroke: #595959"/>
                </g>
            </g>
            <g id="PathCollection_7">
                <defs>
                    <path id="C0_0_065f442a0a" d="M 0 2.5
C 0.663008 2.5 1.29895 2.236584 1.767767 1.767767 
C 2.236584 1.29895 2.5 0.663008 2.5 -0 
C 2.5 -0.663008 2.236584 -1.29895 1.767767 -1.767767 
C 1.29895 -2.236584 0.663008 -2.5 0 -2.5 
C -0.663008 -2.5 -1.29895 -2.236584 -1.767767 -1.767767 
C -2.236584 -1.29895 -2.5 -0.663008 -2.5 0 
C -2.5 0.663008 -2.236584 1.29895 -1.767767 1.767767 
C -1.29895 2.236584 -0.663008 2.5 0 2.5 
z
"/>
                </defs>
                <g clip-path="url(#p961f0b3925)">
                    <use xlink:href="#C0_0_065f442a0a" x="409.5" y="517.180484" style="fill: #1f77b4"/>
                </g>
                <g clip-path="url(#p961f0b3925)">
                    <use xlink:href="#C0_0_065f442a0a" x="405.873773" y="513.564824" style="fill: #1f77b4"/>
                </g>
                <g clip-path="url(#p961f0b3925)">
                    <use xlink:href="#C0_0_065f442a0a" x="409.5" y="508.075632" style="fill: #1f77b4"/>
                </g>
                <g clip-path="url(#p961f0b3925)">
                    <use xlink:href="#C0_0_065f442a0a" x="405.696004" y="504.62963" style="fill: #1f77b4"/>
                </g>
                <g clip-path="url(#p961f0b3925)">
                    <use xlink:href="#C0_0_065f442a0a" x="411.250247" y="503.36167" style="fill: #1f77b4"/>
                </g>
                <g clip-path="url(#p961f0b3925)">
                    <use xlink:href="#C0_0_065f442a0a" x="409.5" y="491.225537" style="fill: #1f77b4"/>
                </g>
                <g clip-path="url(#p961f0b3925)">
                    <use xlink:href="#C0_0_065f442a0a" x="404.634596" y="489.347065" style="fill: #1f77b4"/>
                </g>
                <g clip-path="url(#p961f0b3925)">
                    <use xlink:href="#C0_0_065f442a0a" x="414.365404" y="489.347065" style="fill: #1f77b4"/>
                </g>
                <g clip-path="url(#p961f0b3925)">
                    <use xlink:href="#C0_0_065f442a0a" x="409.5" y="483.883642" style="fill: #1f77b4"/>
                </g>
                <g clip-path="url(#p961f0b3925)">
                    <use xlink:href="#C0_0_065f442a0a" x="407.641857" y="479.207286" style="fill: #1f77b4"/>
                </g>
                <g clip-path="url(#p961f0b3925)">
                    <use xlink:href="#C0_0_065f442a0a" x="411.379785" y="475.696319" style="fill: #1f77b4"/>
                </g>
                <g clip-path="url(#p961f0b3925)">
                    <use xlink:href="#C0_0_065f442a0a" x="405.505058" y="474.640166" style="fill: #1f77b4"/>
                </g>
                <g clip-path="url(#p961f0b3925)">
                    <use xlink:href="#C0_0_065f442a0a" x="409.5" y="470.928659" style="fill: #1f77b4"/>
                </g>
                <g clip-path="url(#p961f0b3925)">
                    <use xlink:href="#C0_0_065f442a0a" x="414.706761" y="470.288264" style="fill: #1f77b4"/>
                </g>
                <g clip-path="url(#p961f0b3925)">
                    <use xlink:href="#C0_0_065f442a0a" x="409.5" y="465.510998" style="fill: #1f77b4"/>
                </g>
                <g clip-path="url(#p961f0b3925)">
                    <use xlink:href="#C0_0_065f442a0a" x="404.311011" y="464.750945" style="fill: #1f77b4"/>
                </g>
                <g clip-path="url(#p961f0b3925)">
                    <use xlink:href="#C0_0_065f442a0a" x="409.5" y="456.050223" style="fill: #1f77b4"/>
                </g>
                <g clip-path="url(#p961f0b3925)">
                    <use xlink:href="#C0_0_065f442a0a" x="404.34256" y="455.115476" style="fill: #1f77b4"/>
                </g>
                <g clip-path="url(#p961f0b3925)">
                    <use xlink:href="#C0_0_065f442a0a" x="409.5" y="440.668226" style="fill: #1f77b4"/>
                </g>
                <g clip-path="url(#p961f0b3925)">
                    <use xlink:href="#C0_0_065f442a0a" x="404.808774" y="438.423575" style="fill: #1f77b4"/>
                </g>
                <g clip-path="url(#p961f0b3925)">
                    <use xlink:href="#C0_0_065f442a0a" x="412.063289" y="436.304695" style="fill: #1f77b4"/>
                </g>
                <g clip-path="url(#p961f0b3925)">
                    <use xlink:href="#C0_0_065f442a0a" x="416.988536" y="434.573444" style="fill: #1f77b4"/>
                </g>
                <g clip-path="url(#p961f0b3925)">
                    <use xlink:href="#C0_0_065f442a0a" x="409.5" y="359.279037" style="fill: #1f77b4"/>
                </g>
                <g clip-path="url(#p961f0b3925)">
                    <use xlink:href="#C0_0_065f442a0a" x="409.5" y="302.595239" style="fill: #1f77b4"/>
                </g>
            </g>
            <g id="PathCollection_8">
                <defs>
                    <path id="C1_0_f28df42f9e" d="M 0 2.5
C 0.663008 2.5 1.29895 2.236584 1.767767 1.767767 
C 2.236584 1.29895 2.5 0.663008 2.5 -0 
C 2.5 -0.663008 2.236584 -1.29895 1.767767 -1.767767 
C 1.29895 -2.236584 0.663008 -2.5 0 -2.5 
C -0.663008 -2.5 -1.29895 -2.236584 -1.767767 -1.767767 
C -2.236584 -1.29895 -2.5 -0.663008 -2.5 0 
C -2.5 0.663008 -2.236584 1.29895 -1.767767 1.767767 
C -1.29895 2.236584 -0.663008 2.5 0 2.5 
z
"/>
                </defs>
                <g clip-path="url(#p961f0b3925)">
                    <use xlink:href="#C1_0_f28df42f9e" x="688.5" y="518.644236" style="fill: #ff7f0e"/>
                </g>
                <g clip-path="url(#p961f0b3925)">
                    <use xlink:href="#C1_0_f28df42f9e" x="683.391344" y="517.491843" style="fill: #ff7f0e"/>
                </g>
                <g clip-path="url(#p961f0b3925)">
                    <use xlink:href="#C1_0_f28df42f9e" x="688.5" y="491.465945" style="fill: #ff7f0e"/>
                </g>
                <g clip-path="url(#p961f0b3925)">
                    <use xlink:href="#C1_0_f28df42f9e" x="688.5" y="486.211225" style="fill: #ff7f0e"/>
                </g>
                <g clip-path="url(#p961f0b3925)">
                    <use xlink:href="#C1_0_f28df42f9e" x="688.5" y="480.793563" style="fill: #ff7f0e"/>
                </g>
                <g clip-path="url(#p961f0b3925)">
                    <use xlink:href="#C1_0_f28df42f9e" x="688.5" y="470.928659" style="fill: #ff7f0e"/>
                </g>
                <g clip-path="url(#p961f0b3925)">
                    <use xlink:href="#C1_0_f28df42f9e" x="688.5" y="454.553443" style="fill: #ff7f0e"/>
                </g>
                <g clip-path="url(#p961f0b3925)">
                    <use xlink:href="#C1_0_f28df42f9e" x="683.788671" y="452.347313" style="fill: #ff7f0e"/>
                </g>
                <g clip-path="url(#p961f0b3925)">
                    <use xlink:href="#C1_0_f28df42f9e" x="692.726398" y="451.58726" style="fill: #ff7f0e"/>
                </g>
                <g clip-path="url(#p961f0b3925)">
                    <use xlink:href="#C1_0_f28df42f9e" x="688.5" y="424.329508" style="fill: #ff7f0e"/>
                </g>
                <g clip-path="url(#p961f0b3925)">
                    <use xlink:href="#C1_0_f28df42f9e" x="688.5" y="396.42601" style="fill: #ff7f0e"/>
                </g>
                <g clip-path="url(#p961f0b3925)">
                    <use xlink:href="#C1_0_f28df42f9e" x="688.5" y="389.844167" style="fill: #ff7f0e"/>
                </g>
                <g clip-path="url(#p961f0b3925)">
                    <use xlink:href="#C1_0_f28df42f9e" x="688.5" y="340.533969" style="fill: #ff7f0e"/>
                </g>
                <g clip-path="url(#p961f0b3925)">
                    <use xlink:href="#C1_0_f28df42f9e" x="688.5" y="208.555764" style="fill: #ff7f0e"/>
                </g>
            </g>
            <g id="PathCollection_9">
                <defs>
                    <path id="C2_0_1dd117f004" d="M 0 2.5
C 0.663008 2.5 1.29895 2.236584 1.767767 1.767767 
C 2.236584 1.29895 2.5 0.663008 2.5 -0 
C 2.5 -0.663008 2.236584 -1.29895 1.767767 -1.767767 
C 1.29895 -2.236584 0.663008 -2.5 0 -2.5 
C -0.663008 -2.5 -1.29895 -2.236584 -1.767767 -1.767767 
C -2.236584 -1.29895 -2.5 -0.663008 -2.5 0 
C -2.5 0.663008 -2.236584 1.29895 -1.767767 1.767767 
C -1.29895 2.236584 -0.663008 2.5 0 2.5 
z
"/>
                </defs>
                <g clip-path="url(#p961f0b3925)">
                    <use xlink:href="#C2_0_1dd117f004" x="967.5" y="521.443532" style="fill: #2ca02c"/>
                </g>
                <g clip-path="url(#p961f0b3925)">
                    <use xlink:href="#C2_0_1dd117f004" x="962.278361" y="520.924518" style="fill: #2ca02c"/>
                </g>
                <g clip-path="url(#p961f0b3925)">
                    <use xlink:href="#C2_0_1dd117f004" x="967.5" y="511.211473" style="fill: #2ca02c"/>
                </g>
                <g clip-path="url(#p961f0b3925)">
                    <use xlink:href="#C2_0_1dd117f004" x="967.5" y="493.197196" style="fill: #2ca02c"/>
                </g>
                <g clip-path="url(#p961f0b3925)">
                    <use xlink:href="#C2_0_1dd117f004" x="967.5" y="487.002982" style="fill: #2ca02c"/>
                </g>
                <g clip-path="url(#p961f0b3925)">
                    <use xlink:href="#C2_0_1dd117f004" x="967.5" y="480.033511" style="fill: #2ca02c"/>
                </g>
                <g clip-path="url(#p961f0b3925)">
                    <use xlink:href="#C2_0_1dd117f004" x="962.322174" y="479.207286" style="fill: #2ca02c"/>
                </g>
                <g clip-path="url(#p961f0b3925)">
                    <use xlink:href="#C2_0_1dd117f004" x="967.5" y="469.601537" style="fill: #2ca02c"/>
                </g>
                <g clip-path="url(#p961f0b3925)">
                    <use xlink:href="#C2_0_1dd117f004" x="967.5" y="459.632855" style="fill: #2ca02c"/>
                </g>
                <g clip-path="url(#p961f0b3925)">
                    <use xlink:href="#C2_0_1dd117f004" x="967.5" y="440.154826" style="fill: #2ca02c"/>
                </g>
                <g clip-path="url(#p961f0b3925)">
                    <use xlink:href="#C2_0_1dd117f004" x="967.5" y="433.677908" style="fill: #2ca02c"/>
                </g>
                <g clip-path="url(#p961f0b3925)">
                    <use xlink:href="#C2_0_1dd117f004" x="967.5" y="396.93941" style="fill: #2ca02c"/>
                </g>
                <g clip-path="url(#p961f0b3925)">
                    <use xlink:href="#C2_0_1dd117f004" x="967.5" y="378.411733" style="fill: #2ca02c"/>
                </g>
                <g clip-path="url(#p961f0b3925)">
                    <use xlink:href="#C2_0_1dd117f004" x="967.5" y="291.299434" style="fill: #2ca02c"/>
                </g>
            </g>
            <g id="PathCollection_10">
                <defs>
                    <path id="C3_0_3ac5e93894" d="M 0 2.5
C 0.663008 2.5 1.29895 2.236584 1.767767 1.767767 
C 2.236584 1.29895 2.5 0.663008 2.5 -0 
C 2.5 -0.663008 2.236584 -1.29895 1.767767 -1.767767 
C 1.29895 -2.236584 0.663008 -2.5 0 -2.5 
C -0.663008 -2.5 -1.29895 -2.236584 -1.767767 -1.767767 
C -2.236584 -1.29895 -2.5 -0.663008 -2.5 0 
C -2.5 0.663008 -2.236584 1.29895 -1.767767 1.767767 
C -1.29895 2.236584 -0.663008 2.5 0 2.5 
z
"/>
                </defs>
                <g clip-path="url(#p961f0b3925)">
                    <use xlink:href="#C3_0_3ac5e93894" x="1246.5" y="492.584364" style="fill: #d62728"/>
                </g>
                <g clip-path="url(#p961f0b3925)">
                    <use xlink:href="#C3_0_3ac5e93894" x="1246.5" y="480.033511" style="fill: #d62728"/>
                </g>
                <g clip-path="url(#p961f0b3925)">
                    <use xlink:href="#C3_0_3ac5e93894" x="1246.5" y="474.356695" style="fill: #d62728"/>
                </g>
                <g clip-path="url(#p961f0b3925)">
                    <use xlink:href="#C3_0_3ac5e93894" x="1243.448151" y="470.288264" style="fill: #d62728"/>
                </g>
                <g clip-path="url(#p961f0b3925)">
                    <use xlink:href="#C3_0_3ac5e93894" x="1248.607106" y="469.361129" style="fill: #d62728"/>
                </g>
                <g clip-path="url(#p961f0b3925)">
                    <use xlink:href="#C3_0_3ac5e93894" x="1253.158998" y="466.869825" style="fill: #d62728"/>
                </g>
                <g clip-path="url(#p961f0b3925)">
                    <use xlink:href="#C3_0_3ac5e93894" x="1246.5" y="463.019694" style="fill: #d62728"/>
                </g>
                <g clip-path="url(#p961f0b3925)">
                    <use xlink:href="#C3_0_3ac5e93894" x="1246.5" y="449.664172" style="fill: #d62728"/>
                </g>
                <g clip-path="url(#p961f0b3925)">
                    <use xlink:href="#C3_0_3ac5e93894" x="1241.254027" y="449.46838" style="fill: #d62728"/>
                </g>
                <g clip-path="url(#p961f0b3925)">
                    <use xlink:href="#C3_0_3ac5e93894" x="1246.5" y="388.362815" style="fill: #d62728"/>
                </g>
            </g>
            <g id="PathCollection_11">
                <defs>
                    <path id="C4_0_2900be3a1f" d="M 0 2.5
C 0.663008 2.5 1.29895 2.236584 1.767767 1.767767 
C 2.236584 1.29895 2.5 0.663008 2.5 -0 
C 2.5 -0.663008 2.236584 -1.29895 1.767767 -1.767767 
C 1.29895 -2.236584 0.663008 -2.5 0 -2.5 
C -0.663008 -2.5 -1.29895 -2.236584 -1.767767 -1.767767 
C -2.236584 -1.29895 -2.5 -0.663008 -2.5 0 
C -2.5 0.663008 -2.236584 1.29895 -1.767767 1.767767 
C -1.29895 2.236584 -0.663008 2.5 0 2.5 
z
"/>
                </defs>
                <g clip-path="url(#p961f0b3925)">
                    <use xlink:href="#C4_0_2900be3a1f" x="1525.5" y="519.299364" style="fill: #9467bd"/>
                </g>
                <g clip-path="url(#p961f0b3925)">
                    <use xlink:href="#C4_0_2900be3a1f" x="1521.396969" y="516.180023" style="fill: #9467bd"/>
                </g>
                <g clip-path="url(#p961f0b3925)">
                    <use xlink:href="#C4_0_2900be3a1f" x="1525.5" y="504.016799" style="fill: #9467bd"/>
                </g>
                <g clip-path="url(#p961f0b3925)">
                    <use xlink:href="#C4_0_2900be3a1f" x="1524.22618" y="499.166207" style="fill: #9467bd"/>
                </g>
                <g clip-path="url(#p961f0b3925)">
                    <use xlink:href="#C4_0_2900be3a1f" x="1528.839636" y="496.779828" style="fill: #9467bd"/>
                </g>
                <g clip-path="url(#p961f0b3925)">
                    <use xlink:href="#C4_0_2900be3a1f" x="1521.332667" y="494.994161" style="fill: #9467bd"/>
                </g>
                <g clip-path="url(#p961f0b3925)">
                    <use xlink:href="#C4_0_2900be3a1f" x="1532.008086" y="492.793067" style="fill: #9467bd"/>
                </g>
                <g clip-path="url(#p961f0b3925)">
                    <use xlink:href="#C4_0_2900be3a1f" x="1525.5" y="490.978885" style="fill: #9467bd"/>
                </g>
                <g clip-path="url(#p961f0b3925)">
                    <use xlink:href="#C4_0_2900be3a1f" x="1520.441941" y="489.63926" style="fill: #9467bd"/>
                </g>
                <g clip-path="url(#p961f0b3925)">
                    <use xlink:href="#C4_0_2900be3a1f" x="1515.200913" y="489.347065" style="fill: #9467bd"/>
                </g>
                <g clip-path="url(#p961f0b3925)">
                    <use xlink:href="#C4_0_2900be3a1f" x="1529.139571" y="487.375406" style="fill: #9467bd"/>
                </g>
                <g clip-path="url(#p961f0b3925)">
                    <use xlink:href="#C4_0_2900be3a1f" x="1525.5" y="483.883642" style="fill: #9467bd"/>
                </g>
                <g clip-path="url(#p961f0b3925)">
                    <use xlink:href="#C4_0_2900be3a1f" x="1521.37263" y="480.793563" style="fill: #9467bd"/>
                </g>
                <g clip-path="url(#p961f0b3925)">
                    <use xlink:href="#C4_0_2900be3a1f" x="1527.358143" y="479.207286" style="fill: #9467bd"/>
                </g>
                <g clip-path="url(#p961f0b3925)">
                    <use xlink:href="#C4_0_2900be3a1f" x="1532.296596" y="477.510502" style="fill: #9467bd"/>
                </g>
                <g clip-path="url(#p961f0b3925)">
                    <use xlink:href="#C4_0_2900be3a1f" x="1517.726938" y="477.195702" style="fill: #9467bd"/>
                </g>
                <g clip-path="url(#p961f0b3925)">
                    <use xlink:href="#C4_0_2900be3a1f" x="1537.486966" y="476.759046" style="fill: #9467bd"/>
                </g>
                <g clip-path="url(#p961f0b3925)">
                    <use xlink:href="#C4_0_2900be3a1f" x="1524.06417" y="475.313895" style="fill: #9467bd"/>
                </g>
                <g clip-path="url(#p961f0b3925)">
                    <use xlink:href="#C4_0_2900be3a1f" x="1525.5" y="463.924721" style="fill: #9467bd"/>
                </g>
                <g clip-path="url(#p961f0b3925)">
                    <use xlink:href="#C4_0_2900be3a1f" x="1520.270529" y="463.482986" style="fill: #9467bd"/>
                </g>
                <g clip-path="url(#p961f0b3925)">
                    <use xlink:href="#C4_0_2900be3a1f" x="1528.193385" y="459.632855" style="fill: #9467bd"/>
                </g>
                <g clip-path="url(#p961f0b3925)">
                    <use xlink:href="#C4_0_2900be3a1f" x="1525.174294" y="455.542316" style="fill: #9467bd"/>
                </g>
                <g clip-path="url(#p961f0b3925)">
                    <use xlink:href="#C4_0_2900be3a1f" x="1530.057467" y="453.70614" style="fill: #9467bd"/>
                </g>
                <g clip-path="url(#p961f0b3925)">
                    <use xlink:href="#C4_0_2900be3a1f" x="1521.269545" y="452.200092" style="fill: #9467bd"/>
                </g>
                <g clip-path="url(#p961f0b3925)">
                    <use xlink:href="#C4_0_2900be3a1f" x="1525.5" y="448.855549" style="fill: #9467bd"/>
                </g>
                <g clip-path="url(#p961f0b3925)">
                    <use xlink:href="#C4_0_2900be3a1f" x="1523.223015" y="444.350289" style="fill: #9467bd"/>
                </g>
                <g clip-path="url(#p961f0b3925)">
                    <use xlink:href="#C4_0_2900be3a1f" x="1525.5" y="436.304695" style="fill: #9467bd"/>
                </g>
                <g clip-path="url(#p961f0b3925)">
                    <use xlink:href="#C4_0_2900be3a1f" x="1525.5" y="426.559449" style="fill: #9467bd"/>
                </g>
                <g clip-path="url(#p961f0b3925)">
                    <use xlink:href="#C4_0_2900be3a1f" x="1525.5" y="419.75417" style="fill: #9467bd"/>
                </g>
                <g clip-path="url(#p961f0b3925)">
                    <use xlink:href="#C4_0_2900be3a1f" x="1520.272586" y="419.290878" style="fill: #9467bd"/>
                </g>
                <g clip-path="url(#p961f0b3925)">
                    <use xlink:href="#C4_0_2900be3a1f" x="1530.654295" y="418.803818" style="fill: #9467bd"/>
                </g>
                <g clip-path="url(#p961f0b3925)">
                    <use xlink:href="#C4_0_2900be3a1f" x="1525.5" y="410.227223" style="fill: #9467bd"/>
                </g>
                <g clip-path="url(#p961f0b3925)">
                    <use xlink:href="#C4_0_2900be3a1f" x="1520.365194" y="409.185567" style="fill: #9467bd"/>
                </g>
                <g clip-path="url(#p961f0b3925)">
                    <use xlink:href="#C4_0_2900be3a1f" x="1525.5" y="354.602681" style="fill: #9467bd"/>
                </g>
                <g clip-path="url(#p961f0b3925)">
                    <use xlink:href="#C4_0_2900be3a1f" x="1525.5" y="343.863664" style="fill: #9467bd"/>
                </g>
                <g clip-path="url(#p961f0b3925)">
                    <use xlink:href="#C4_0_2900be3a1f" x="1525.5" y="312.460143" style="fill: #9467bd"/>
                </g>
            </g>
            <g id="PathCollection_12">
                <defs>
                    <path id="C5_0_db1128664b" d="M 0 2.5
C 0.663008 2.5 1.29895 2.236584 1.767767 1.767767 
C 2.236584 1.29895 2.5 0.663008 2.5 -0 
C 2.5 -0.663008 2.236584 -1.29895 1.767767 -1.767767 
C 1.29895 -2.236584 0.663008 -2.5 0 -2.5 
C -0.663008 -2.5 -1.29895 -2.236584 -1.767767 -1.767767 
C -2.236584 -1.29895 -2.5 -0.663008 -2.5 0 
C -2.5 0.663008 -2.236584 1.29895 -1.767767 1.767767 
C -1.29895 2.236584 -0.663008 2.5 0 2.5 
z
"/>
                </defs>
                <g clip-path="url(#p961f0b3925)">
                    <use xlink:href="#C5_0_db1128664b" x="1804.5" y="517.337439" style="fill: #8c564b"/>
                </g>
                <g clip-path="url(#p961f0b3925)">
                    <use xlink:href="#C5_0_db1128664b" x="1800.214816" y="514.448772" style="fill: #8c564b"/>
                </g>
                <g clip-path="url(#p961f0b3925)">
                    <use xlink:href="#C5_0_db1128664b" x="1808.617449" y="514.235379" style="fill: #8c564b"/>
                </g>
                <g clip-path="url(#p961f0b3925)">
                    <use xlink:href="#C5_0_db1128664b" x="1813.471258" y="512.329892" style="fill: #8c564b"/>
                </g>
                <g clip-path="url(#p961f0b3925)">
                    <use xlink:href="#C5_0_db1128664b" x="1804.5" y="510.276726" style="fill: #8c564b"/>
                </g>
                <g clip-path="url(#p961f0b3925)">
                    <use xlink:href="#C5_0_db1128664b" x="1804.5" y="496.363896" style="fill: #8c564b"/>
                </g>
                <g clip-path="url(#p961f0b3925)">
                    <use xlink:href="#C5_0_db1128664b" x="1804.5" y="477.195702" style="fill: #8c564b"/>
                </g>
                <g clip-path="url(#p961f0b3925)">
                    <use xlink:href="#C5_0_db1128664b" x="1804.5" y="454.318972" style="fill: #8c564b"/>
                </g>
                <g clip-path="url(#p961f0b3925)">
                    <use xlink:href="#C5_0_db1128664b" x="1804.5" y="447.9716" style="fill: #8c564b"/>
                </g>
                <g clip-path="url(#p961f0b3925)">
                    <use xlink:href="#C5_0_db1128664b" x="1804.5" y="421.022129" style="fill: #8c564b"/>
                </g>
                <g clip-path="url(#p961f0b3925)">
                    <use xlink:href="#C5_0_db1128664b" x="1804.5" y="406.680491" style="fill: #8c564b"/>
                </g>
            </g>
            <g id="text_14">
                <!-- P values of Field Environmental -->
                <g transform="translate(918.9075 80.4)scale(0.24 -0.24)">
                    <defs>
                        <path id="DejaVuSans-50" d="M 1259 4147
L 1259 2394 
L 2053 2394 
Q 2494 2394 2734 2622 
Q 2975 2850 2975 3272 
Q 2975 3691 2734 3919 
Q 2494 4147 2053 4147 
L 1259 4147 
z
M 628 4666 
L 2053 4666 
Q 2838 4666 3239 4311 
Q 3641 3956 3641 3272 
Q 3641 2581 3239 2228 
Q 2838 1875 2053 1875 
L 1259 1875 
L 1259 0 
L 628 0 
L 628 4666 
z
" transform="scale(0.015625)"/>
                        <path id="DejaVuSans-20" transform="scale(0.015625)"/>
                        <path id="DejaVuSans-76" d="M 191 3500
L 800 3500 
L 1894 563 
L 2988 3500 
L 3597 3500 
L 2284 0 
L 1503 0 
L 191 3500 
z
" transform="scale(0.015625)"/>
                        <path id="DejaVuSans-61" d="M 2194 1759
Q 1497 1759 1228 1600 
Q 959 1441 959 1056 
Q 959 750 1161 570 
Q 1363 391 1709 391 
Q 2188 391 2477 730 
Q 2766 1069 2766 1631 
L 2766 1759 
L 2194 1759 
z
M 3341 1997 
L 3341 0 
L 2766 0 
L 2766 531 
Q 2569 213 2275 61 
Q 1981 -91 1556 -91 
Q 1019 -91 701 211 
Q 384 513 384 1019 
Q 384 1609 779 1909 
Q 1175 2209 1959 2209 
L 2766 2209 
L 2766 2266 
Q 2766 2663 2505 2880 
Q 2244 3097 1772 3097 
Q 1472 3097 1187 3025 
Q 903 2953 641 2809 
L 641 3341 
Q 956 3463 1253 3523 
Q 1550 3584 1831 3584 
Q 2591 3584 2966 3190 
Q 3341 2797 3341 1997 
z
" transform="scale(0.015625)"/>
                        <path id="DejaVuSans-66" d="M 2375 4863
L 2375 4384 
L 1825 4384 
Q 1516 4384 1395 4259 
Q 1275 4134 1275 3809 
L 1275 3500 
L 2222 3500 
L 2222 3053 
L 1275 3053 
L 1275 0 
L 697 0 
L 697 3053 
L 147 3053 
L 147 3500 
L 697 3500 
L 697 3744 
Q 697 4328 969 4595 
Q 1241 4863 1831 4863 
L 2375 4863 
z
" transform="scale(0.015625)"/>
                        <path id="DejaVuSans-46" d="M 628 4666
L 3309 4666 
L 3309 4134 
L 1259 4134 
L 1259 2759 
L 3109 2759 
L 3109 2228 
L 1259 2228 
L 1259 0 
L 628 0 
L 628 4666 
z
" transform="scale(0.015625)"/>
                        <path id="DejaVuSans-69" d="M 603 3500
L 1178 3500 
L 1178 0 
L 603 0 
L 603 3500 
z
M 603 4863 
L 1178 4863 
L 1178 4134 
L 603 4134 
L 603 4863 
z
" transform="scale(0.015625)"/>
                        <path id="DejaVuSans-64" d="M 2906 2969
L 2906 4863 
L 3481 4863 
L 3481 0 
L 2906 0 
L 2906 525 
Q 2725 213 2448 61 
Q 2172 -91 1784 -91 
Q 1150 -91 751 415 
Q 353 922 353 1747 
Q 353 2572 751 3078 
Q 1150 3584 1784 3584 
Q 2172 3584 2448 3432 
Q 2725 3281 2906 2969 
z
M 947 1747 
Q 947 1113 1208 752 
Q 1469 391 1925 391 
Q 2381 391 2643 752 
Q 2906 1113 2906 1747 
Q 2906 2381 2643 2742 
Q 2381 3103 1925 3103 
Q 1469 3103 1208 2742 
Q 947 2381 947 1747 
z
" transform="scale(0.015625)"/>
                        <path id="DejaVuSans-45" d="M 628 4666
L 3578 4666 
L 3578 4134 
L 1259 4134 
L 1259 2753 
L 3481 2753 
L 3481 2222 
L 1259 2222 
L 1259 531 
L 3634 531 
L 3634 0 
L 628 0 
L 628 4666 
z
" transform="scale(0.015625)"/>
                        <path id="DejaVuSans-6e" d="M 3513 2113
L 3513 0 
L 2938 0 
L 2938 2094 
Q 2938 2591 2744 2837 
Q 2550 3084 2163 3084 
Q 1697 3084 1428 2787 
Q 1159 2491 1159 1978 
L 1159 0 
L 581 0 
L 581 3500 
L 1159 3500 
L 1159 2956 
Q 1366 3272 1645 3428 
Q 1925 3584 2291 3584 
Q 2894 3584 3203 3211 
Q 3513 2838 3513 2113 
z
" transform="scale(0.015625)"/>
                        <path id="DejaVuSans-6d" d="M 3328 2828
Q 3544 3216 3844 3400 
Q 4144 3584 4550 3584 
Q 5097 3584 5394 3201 
Q 5691 2819 5691 2113 
L 5691 0 
L 5113 0 
L 5113 2094 
Q 5113 2597 4934 2840 
Q 4756 3084 4391 3084 
Q 3944 3084 3684 2787 
Q 3425 2491 3425 1978 
L 3425 0 
L 2847 0 
L 2847 2094 
Q 2847 2600 2669 2842 
Q 2491 3084 2119 3084 
Q 1678 3084 1418 2786 
Q 1159 2488 1159 1978 
L 1159 0 
L 581 0 
L 581 3500 
L 1159 3500 
L 1159 2956 
Q 1356 3278 1631 3431 
Q 1906 3584 2284 3584 
Q 2666 3584 2933 3390 
Q 3200 3197 3328 2828 
z
" transform="scale(0.015625)"/>
                    </defs>
                    <use xlink:href="#DejaVuSans-50"/>
                    <use xlink:href="#DejaVuSans-20" x="60.302734"/>
                    <use xlink:href="#DejaVuSans-76" x="92.089844"/>
                    <use xlink:href="#DejaVuSans-61" x="151.269531"/>
                    <use xlink:href="#DejaVuSans-6c" x="212.548828"/>
                    <use xlink:href="#DejaVuSans-75" x="240.332031"/>
                    <use xlink:href="#DejaVuSans-65" x="303.710938"/>
                    <use xlink:href="#DejaVuSans-73" x="365.234375"/>
                    <use xlink:href="#DejaVuSans-20" x="417.333984"/>
                    <use xlink:href="#DejaVuSans-6f" x="449.121094"/>
                    <use xlink:href="#DejaVuSans-66" x="510.302734"/>
                    <use xlink:href="#DejaVuSans-20" x="545.507812"/>
                    <use xlink:href="#DejaVuSans-46" x="577.294922"/>
                    <use xlink:href="#DejaVuSans-69" x="627.564453"/>
                    <use xlink:href="#DejaVuSans-65" x="655.347656"/>
                    <use xlink:href="#DejaVuSans-6c" x="716.871094"/>
                    <use xlink:href="#DejaVuSans-64" x="744.654297"/>
                    <use xlink:href="#DejaVuSans-20" x="808.130859"/>
                    <use xlink:href="#DejaVuSans-45" x="839.917969"/>
                    <use xlink:href="#DejaVuSans-6e" x="903.101562"/>
                    <use xlink:href="#DejaVuSans-76" x="966.480469"/>
                    <use xlink:href="#DejaVuSans-69" x="1025.660156"/>
                    <use xlink:href="#DejaVuSans-72" x="1053.443359"/>
                    <use xlink:href="#DejaVuSans-6f" x="1092.306641"/>
                    <use xlink:href="#DejaVuSans-6e" x="1153.488281"/>
                    <use xlink:href="#DejaVuSans-6d" x="1216.867188"/>
                    <use xlink:href="#DejaVuSans-65" x="1314.279297"/>
                    <use xlink:href="#DejaVuSans-6e" x="1375.802734"/>
                    <use xlink:href="#DejaVuSans-74" x="1439.181641"/>
                    <use xlink:href="#DejaVuSans-61" x="1478.390625"/>
                    <use xlink:href="#DejaVuSans-6c" x="1539.669922"/>
                </g>
            </g>
        </g>
    </g>
    <defs>
        <clipPath id="p961f0b3925">
            <rect x="270" y="86.4" width="1674" height="554.4"/>
        </clipPath>
    </defs>
</svg>
