<?xml version="1.0" encoding="utf-8" standalone="no"?>
<!DOCTYPE svg PUBLIC "-//W3C//DTD SVG 1.1//EN"
        "http://www.w3.org/Graphics/SVG/1.1/DTD/svg11.dtd">
<svg xmlns:xlink="http://www.w3.org/1999/xlink" width="460.8pt" height="345.6pt" viewBox="0 0 460.8 345.6"
     xmlns="http://www.w3.org/2000/svg" version="1.1">
 <metadata>
  <rdf:RDF xmlns:dc="http://purl.org/dc/elements/1.1/" xmlns:cc="http://creativecommons.org/ns#"
           xmlns:rdf="http://www.w3.org/1999/02/22-rdf-syntax-ns#">
   <cc:Work>
    <dc:type rdf:resource="http://purl.org/dc/dcmitype/StillImage"/>
    <dc:date>2022-04-07T19:17:29.287256</dc:date>
    <dc:format>image/svg+xml</dc:format>
    <dc:creator>
     <cc:Agent>
      <dc:title>Matplotlib v3.5.1, https://matplotlib.org/</dc:title>
     </cc:Agent>
    </dc:creator>
   </cc:Work>
  </rdf:RDF>
 </metadata>
 <defs>
  <style type="text/css">*{stroke-linejoin: round; stroke-linecap: butt}</style>
 </defs>
 <g id="figure_1">
  <g id="patch_1">
   <path d="M 0 345.6 
L 460.8 345.6 
L 460.8 0 
L 0 0 
z
" style="fill: #ffffff"/>
  </g>
  <g id="axes_1">
   <g id="patch_2">
    <path d="M 33.64 320.72 
L 340.51 320.72 
L 340.51 26.88 
L 33.64 26.88 
z
" style="fill: #ffffff"/>
   </g>
   <g id="matplotlib.axis_1">
    <g id="text_1">
     <!-- Iterations -->
     <g transform="translate(163.261719 332.318437)scale(0.1 -0.1)">
      <defs>
       <path id="DejaVuSans-49" d="M 628 4666 
L 1259 4666 
L 1259 0 
L 628 0 
L 628 4666 
z
" transform="scale(0.015625)"/>
       <path id="DejaVuSans-74" d="M 1172 4494 
L 1172 3500 
L 2356 3500 
L 2356 3053 
L 1172 3053 
L 1172 1153 
Q 1172 725 1289 603 
Q 1406 481 1766 481 
L 2356 481 
L 2356 0 
L 1766 0 
Q 1100 0 847 248 
Q 594 497 594 1153 
L 594 3053 
L 172 3053 
L 172 3500 
L 594 3500 
L 594 4494 
L 1172 4494 
z
" transform="scale(0.015625)"/>
       <path id="DejaVuSans-65" d="M 3597 1894 
L 3597 1613 
L 953 1613 
Q 991 1019 1311 708 
Q 1631 397 2203 397 
Q 2534 397 2845 478 
Q 3156 559 3463 722 
L 3463 178 
Q 3153 47 2828 -22 
Q 2503 -91 2169 -91 
Q 1331 -91 842 396 
Q 353 884 353 1716 
Q 353 2575 817 3079 
Q 1281 3584 2069 3584 
Q 2775 3584 3186 3129 
Q 3597 2675 3597 1894 
z
M 3022 2063 
Q 3016 2534 2758 2815 
Q 2500 3097 2075 3097 
Q 1594 3097 1305 2825 
Q 1016 2553 972 2059 
L 3022 2063 
z
" transform="scale(0.015625)"/>
       <path id="DejaVuSans-72" d="M 2631 2963 
Q 2534 3019 2420 3045 
Q 2306 3072 2169 3072 
Q 1681 3072 1420 2755 
Q 1159 2438 1159 1844 
L 1159 0 
L 581 0 
L 581 3500 
L 1159 3500 
L 1159 2956 
Q 1341 3275 1631 3429 
Q 1922 3584 2338 3584 
Q 2397 3584 2469 3576 
Q 2541 3569 2628 3553 
L 2631 2963 
z
" transform="scale(0.015625)"/>
       <path id="DejaVuSans-61" d="M 2194 1759 
Q 1497 1759 1228 1600 
Q 959 1441 959 1056 
Q 959 750 1161 570 
Q 1363 391 1709 391 
Q 2188 391 2477 730 
Q 2766 1069 2766 1631 
L 2766 1759 
L 2194 1759 
z
M 3341 1997 
L 3341 0 
L 2766 0 
L 2766 531 
Q 2569 213 2275 61 
Q 1981 -91 1556 -91 
Q 1019 -91 701 211 
Q 384 513 384 1019 
Q 384 1609 779 1909 
Q 1175 2209 1959 2209 
L 2766 2209 
L 2766 2266 
Q 2766 2663 2505 2880 
Q 2244 3097 1772 3097 
Q 1472 3097 1187 3025 
Q 903 2953 641 2809 
L 641 3341 
Q 956 3463 1253 3523 
Q 1550 3584 1831 3584 
Q 2591 3584 2966 3190 
Q 3341 2797 3341 1997 
z
" transform="scale(0.015625)"/>
       <path id="DejaVuSans-69" d="M 603 3500 
L 1178 3500 
L 1178 0 
L 603 0 
L 603 3500 
z
M 603 4863 
L 1178 4863 
L 1178 4134 
L 603 4134 
L 603 4863 
z
" transform="scale(0.015625)"/>
       <path id="DejaVuSans-6f" d="M 1959 3097 
Q 1497 3097 1228 2736 
Q 959 2375 959 1747 
Q 959 1119 1226 758 
Q 1494 397 1959 397 
Q 2419 397 2687 759 
Q 2956 1122 2956 1747 
Q 2956 2369 2687 2733 
Q 2419 3097 1959 3097 
z
M 1959 3584 
Q 2709 3584 3137 3096 
Q 3566 2609 3566 1747 
Q 3566 888 3137 398 
Q 2709 -91 1959 -91 
Q 1206 -91 779 398 
Q 353 888 353 1747 
Q 353 2609 779 3096 
Q 1206 3584 1959 3584 
z
" transform="scale(0.015625)"/>
       <path id="DejaVuSans-6e" d="M 3513 2113 
L 3513 0 
L 2938 0 
L 2938 2094 
Q 2938 2591 2744 2837 
Q 2550 3084 2163 3084 
Q 1697 3084 1428 2787 
Q 1159 2491 1159 1978 
L 1159 0 
L 581 0 
L 581 3500 
L 1159 3500 
L 1159 2956 
Q 1366 3272 1645 3428 
Q 1925 3584 2291 3584 
Q 2894 3584 3203 3211 
Q 3513 2838 3513 2113 
z
" transform="scale(0.015625)"/>
       <path id="DejaVuSans-73" d="M 2834 3397 
L 2834 2853 
Q 2591 2978 2328 3040 
Q 2066 3103 1784 3103 
Q 1356 3103 1142 2972 
Q 928 2841 928 2578 
Q 928 2378 1081 2264 
Q 1234 2150 1697 2047 
L 1894 2003 
Q 2506 1872 2764 1633 
Q 3022 1394 3022 966 
Q 3022 478 2636 193 
Q 2250 -91 1575 -91 
Q 1294 -91 989 -36 
Q 684 19 347 128 
L 347 722 
Q 666 556 975 473 
Q 1284 391 1588 391 
Q 1994 391 2212 530 
Q 2431 669 2431 922 
Q 2431 1156 2273 1281 
Q 2116 1406 1581 1522 
L 1381 1569 
Q 847 1681 609 1914 
Q 372 2147 372 2553 
Q 372 3047 722 3315 
Q 1072 3584 1716 3584 
Q 2034 3584 2315 3537 
Q 2597 3491 2834 3397 
z
" transform="scale(0.015625)"/>
      </defs>
      <use xlink:href="#DejaVuSans-49"/>
      <use xlink:href="#DejaVuSans-74" x="29.492188"/>
      <use xlink:href="#DejaVuSans-65" x="68.701172"/>
      <use xlink:href="#DejaVuSans-72" x="130.224609"/>
      <use xlink:href="#DejaVuSans-61" x="171.337891"/>
      <use xlink:href="#DejaVuSans-74" x="232.617188"/>
      <use xlink:href="#DejaVuSans-69" x="271.826172"/>
      <use xlink:href="#DejaVuSans-6f" x="299.609375"/>
      <use xlink:href="#DejaVuSans-6e" x="360.791016"/>
      <use xlink:href="#DejaVuSans-73" x="424.169922"/>
     </g>
    </g>
   </g>
   <g id="matplotlib.axis_2">
    <g id="ytick_1">
     <g id="line2d_1">
      <defs>
       <path id="mdcabc8b47e" d="M 0 0 
L -3.5 0 
" style="stroke: #000000; stroke-width: 0.8"/>
      </defs>
      <g>
       <use xlink:href="#mdcabc8b47e" x="33.64" y="312.16722" style="stroke: #000000; stroke-width: 0.8"/>
      </g>
     </g>
     <g id="text_2">
      <!-- 0.3 -->
      <g transform="translate(10.736875 315.966439)scale(0.1 -0.1)">
       <defs>
        <path id="DejaVuSans-30" d="M 2034 4250 
Q 1547 4250 1301 3770 
Q 1056 3291 1056 2328 
Q 1056 1369 1301 889 
Q 1547 409 2034 409 
Q 2525 409 2770 889 
Q 3016 1369 3016 2328 
Q 3016 3291 2770 3770 
Q 2525 4250 2034 4250 
z
M 2034 4750 
Q 2819 4750 3233 4129 
Q 3647 3509 3647 2328 
Q 3647 1150 3233 529 
Q 2819 -91 2034 -91 
Q 1250 -91 836 529 
Q 422 1150 422 2328 
Q 422 3509 836 4129 
Q 1250 4750 2034 4750 
z
" transform="scale(0.015625)"/>
        <path id="DejaVuSans-2e" d="M 684 794 
L 1344 794 
L 1344 0 
L 684 0 
L 684 794 
z
" transform="scale(0.015625)"/>
        <path id="DejaVuSans-33" d="M 2597 2516 
Q 3050 2419 3304 2112 
Q 3559 1806 3559 1356 
Q 3559 666 3084 287 
Q 2609 -91 1734 -91 
Q 1441 -91 1130 -33 
Q 819 25 488 141 
L 488 750 
Q 750 597 1062 519 
Q 1375 441 1716 441 
Q 2309 441 2620 675 
Q 2931 909 2931 1356 
Q 2931 1769 2642 2001 
Q 2353 2234 1838 2234 
L 1294 2234 
L 1294 2753 
L 1863 2753 
Q 2328 2753 2575 2939 
Q 2822 3125 2822 3475 
Q 2822 3834 2567 4026 
Q 2313 4219 1838 4219 
Q 1578 4219 1281 4162 
Q 984 4106 628 3988 
L 628 4550 
Q 988 4650 1302 4700 
Q 1616 4750 1894 4750 
Q 2613 4750 3031 4423 
Q 3450 4097 3450 3541 
Q 3450 3153 3228 2886 
Q 3006 2619 2597 2516 
z
" transform="scale(0.015625)"/>
       </defs>
       <use xlink:href="#DejaVuSans-30"/>
       <use xlink:href="#DejaVuSans-2e" x="63.623047"/>
       <use xlink:href="#DejaVuSans-33" x="95.410156"/>
      </g>
     </g>
    </g>
    <g id="ytick_2">
     <g id="line2d_2">
      <g>
       <use xlink:href="#mdcabc8b47e" x="33.64" y="264.131386" style="stroke: #000000; stroke-width: 0.8"/>
      </g>
     </g>
     <g id="text_3">
      <!-- 0.4 -->
      <g transform="translate(10.736875 267.930605)scale(0.1 -0.1)">
       <defs>
        <path id="DejaVuSans-34" d="M 2419 4116 
L 825 1625 
L 2419 1625 
L 2419 4116 
z
M 2253 4666 
L 3047 4666 
L 3047 1625 
L 3713 1625 
L 3713 1100 
L 3047 1100 
L 3047 0 
L 2419 0 
L 2419 1100 
L 313 1100 
L 313 1709 
L 2253 4666 
z
" transform="scale(0.015625)"/>
       </defs>
       <use xlink:href="#DejaVuSans-30"/>
       <use xlink:href="#DejaVuSans-2e" x="63.623047"/>
       <use xlink:href="#DejaVuSans-34" x="95.410156"/>
      </g>
     </g>
    </g>
    <g id="ytick_3">
     <g id="line2d_3">
      <g>
       <use xlink:href="#mdcabc8b47e" x="33.64" y="216.095552" style="stroke: #000000; stroke-width: 0.8"/>
      </g>
     </g>
     <g id="text_4">
      <!-- 0.5 -->
      <g transform="translate(10.736875 219.894771)scale(0.1 -0.1)">
       <defs>
        <path id="DejaVuSans-35" d="M 691 4666 
L 3169 4666 
L 3169 4134 
L 1269 4134 
L 1269 2991 
Q 1406 3038 1543 3061 
Q 1681 3084 1819 3084 
Q 2600 3084 3056 2656 
Q 3513 2228 3513 1497 
Q 3513 744 3044 326 
Q 2575 -91 1722 -91 
Q 1428 -91 1123 -41 
Q 819 9 494 109 
L 494 744 
Q 775 591 1075 516 
Q 1375 441 1709 441 
Q 2250 441 2565 725 
Q 2881 1009 2881 1497 
Q 2881 1984 2565 2268 
Q 2250 2553 1709 2553 
Q 1456 2553 1204 2497 
Q 953 2441 691 2322 
L 691 4666 
z
" transform="scale(0.015625)"/>
       </defs>
       <use xlink:href="#DejaVuSans-30"/>
       <use xlink:href="#DejaVuSans-2e" x="63.623047"/>
       <use xlink:href="#DejaVuSans-35" x="95.410156"/>
      </g>
     </g>
    </g>
    <g id="ytick_4">
     <g id="line2d_4">
      <g>
       <use xlink:href="#mdcabc8b47e" x="33.64" y="168.059718" style="stroke: #000000; stroke-width: 0.8"/>
      </g>
     </g>
     <g id="text_5">
      <!-- 0.6 -->
      <g transform="translate(10.736875 171.858937)scale(0.1 -0.1)">
       <defs>
        <path id="DejaVuSans-36" d="M 2113 2584 
Q 1688 2584 1439 2293 
Q 1191 2003 1191 1497 
Q 1191 994 1439 701 
Q 1688 409 2113 409 
Q 2538 409 2786 701 
Q 3034 994 3034 1497 
Q 3034 2003 2786 2293 
Q 2538 2584 2113 2584 
z
M 3366 4563 
L 3366 3988 
Q 3128 4100 2886 4159 
Q 2644 4219 2406 4219 
Q 1781 4219 1451 3797 
Q 1122 3375 1075 2522 
Q 1259 2794 1537 2939 
Q 1816 3084 2150 3084 
Q 2853 3084 3261 2657 
Q 3669 2231 3669 1497 
Q 3669 778 3244 343 
Q 2819 -91 2113 -91 
Q 1303 -91 875 529 
Q 447 1150 447 2328 
Q 447 3434 972 4092 
Q 1497 4750 2381 4750 
Q 2619 4750 2861 4703 
Q 3103 4656 3366 4563 
z
" transform="scale(0.015625)"/>
       </defs>
       <use xlink:href="#DejaVuSans-30"/>
       <use xlink:href="#DejaVuSans-2e" x="63.623047"/>
       <use xlink:href="#DejaVuSans-36" x="95.410156"/>
      </g>
     </g>
    </g>
    <g id="ytick_5">
     <g id="line2d_5">
      <g>
       <use xlink:href="#mdcabc8b47e" x="33.64" y="120.023884" style="stroke: #000000; stroke-width: 0.8"/>
      </g>
     </g>
     <g id="text_6">
      <!-- 0.7 -->
      <g transform="translate(10.736875 123.823103)scale(0.1 -0.1)">
       <defs>
        <path id="DejaVuSans-37" d="M 525 4666 
L 3525 4666 
L 3525 4397 
L 1831 0 
L 1172 0 
L 2766 4134 
L 525 4134 
L 525 4666 
z
" transform="scale(0.015625)"/>
       </defs>
       <use xlink:href="#DejaVuSans-30"/>
       <use xlink:href="#DejaVuSans-2e" x="63.623047"/>
       <use xlink:href="#DejaVuSans-37" x="95.410156"/>
      </g>
     </g>
    </g>
    <g id="ytick_6">
     <g id="line2d_6">
      <g>
       <use xlink:href="#mdcabc8b47e" x="33.64" y="71.98805" style="stroke: #000000; stroke-width: 0.8"/>
      </g>
     </g>
     <g id="text_7">
      <!-- 0.8 -->
      <g transform="translate(10.736875 75.787269)scale(0.1 -0.1)">
       <defs>
        <path id="DejaVuSans-38" d="M 2034 2216 
Q 1584 2216 1326 1975 
Q 1069 1734 1069 1313 
Q 1069 891 1326 650 
Q 1584 409 2034 409 
Q 2484 409 2743 651 
Q 3003 894 3003 1313 
Q 3003 1734 2745 1975 
Q 2488 2216 2034 2216 
z
M 1403 2484 
Q 997 2584 770 2862 
Q 544 3141 544 3541 
Q 544 4100 942 4425 
Q 1341 4750 2034 4750 
Q 2731 4750 3128 4425 
Q 3525 4100 3525 3541 
Q 3525 3141 3298 2862 
Q 3072 2584 2669 2484 
Q 3125 2378 3379 2068 
Q 3634 1759 3634 1313 
Q 3634 634 3220 271 
Q 2806 -91 2034 -91 
Q 1263 -91 848 271 
Q 434 634 434 1313 
Q 434 1759 690 2068 
Q 947 2378 1403 2484 
z
M 1172 3481 
Q 1172 3119 1398 2916 
Q 1625 2713 2034 2713 
Q 2441 2713 2670 2916 
Q 2900 3119 2900 3481 
Q 2900 3844 2670 4047 
Q 2441 4250 2034 4250 
Q 1625 4250 1398 4047 
Q 1172 3844 1172 3481 
z
" transform="scale(0.015625)"/>
       </defs>
       <use xlink:href="#DejaVuSans-30"/>
       <use xlink:href="#DejaVuSans-2e" x="63.623047"/>
       <use xlink:href="#DejaVuSans-38" x="95.410156"/>
      </g>
     </g>
    </g>
   </g>
   <g id="line2d_7">
    <path d="M 47.588636 40.236364 
L 47.990415 93.088214 
L 48.32523 112.46775 
L 48.593082 117.203636 
L 48.660045 117.389842 
L 48.727008 117.296404 
L 48.927897 115.935526 
L 49.262713 113.575537 
L 49.396639 113.422029 
L 49.530565 113.608504 
L 50.133232 115.050904 
L 50.334121 115.015611 
L 50.7359 114.841944 
L 51.003752 115.06993 
L 52.409976 116.894953 
L 52.94568 117.218103 
L 53.414421 117.230475 
L 53.883163 117.262642 
L 55.021535 117.857828 
L 55.35635 118.193712 
L 55.892054 118.967681 
L 56.02598 118.899884 
L 56.226869 118.371698 
L 56.8965 115.74976 
L 57.030426 115.905249 
L 57.298278 117.015485 
L 57.76702 119.122105 
L 57.967909 119.339141 
L 58.235761 119.23377 
L 58.503613 119.172828 
L 58.838428 119.531563 
L 59.106281 119.685863 
L 59.240207 119.55185 
L 59.508059 118.751818 
L 59.9768 117.393467 
L 60.110726 117.45763 
L 60.311615 118.004535 
L 60.981246 120.275911 
L 61.182135 120.360722 
L 61.449987 120.19039 
L 61.985692 119.816131 
L 62.320507 119.859468 
L 62.722285 120.245723 
L 63.0571 120.49873 
L 63.257989 120.455548 
L 64.061546 119.966235 
L 64.530287 120.396544 
L 64.865103 120.536665 
L 65.266881 120.371482 
L 65.802585 120.171854 
L 66.1374 120.249513 
L 66.539179 120.591371 
L 67.141846 121.088387 
L 67.476661 121.077312 
L 67.87844 120.81353 
L 68.481107 120.396119 
L 68.748959 120.524374 
L 69.753405 121.387515 
L 71.561407 121.524356 
L 72.967631 121.841743 
L 73.503336 121.921255 
L 74.306892 122.11067 
L 75.378301 122.178145 
L 76.918451 122.508936 
L 77.855934 122.659529 
L 78.927343 122.929066 
L 79.463047 123.097548 
L 79.864825 122.955984 
L 80.534456 122.687862 
L 80.802308 122.784537 
L 81.003197 123.002106 
L 81.003197 123.002106 
" clip-path="url(#p0971eb97ae)" style="fill: none; stroke: #1f77b4; stroke-width: 1.5; stroke-linecap: square"/>
   </g>
   <g id="line2d_8">
    <path d="M 81.78028 123.002106 
L 86.638994 123.077632 
L 87.311739 122.91628 
L 87.984484 123.190097 
L 88.50773 123.253341 
L 90.824963 123.069247 
L 91.27346 123.081325 
L 92.394701 123.315372 
L 93.291695 123.325333 
L 93.740192 123.594425 
L 94.338187 123.953935 
L 95.459429 124.241474 
L 96.580671 124.96685 
L 97.552413 124.807685 
L 98.150409 125.513461 
L 98.598906 125.859995 
L 98.823154 125.824664 
L 99.122152 125.492445 
L 99.645398 124.877562 
L 99.869646 124.943182 
L 100.243394 125.435098 
L 100.990888 126.480576 
L 101.663633 127.057701 
L 102.11213 127.19318 
L 103.532369 127.276437 
L 104.354613 127.444347 
L 104.80311 127.853935 
L 106.223349 129.31466 
L 106.746596 129.917361 
L 107.419341 130.781351 
L 107.793088 130.829292 
L 108.092086 130.912803 
L 108.316334 131.209652 
L 109.288077 133.031191 
L 109.886072 133.492755 
L 110.25982 134.252446 
L 110.783066 135.950602 
L 111.455811 138.114576 
L 112.053806 139.727417 
L 112.651802 142.788345 
L 112.9508 143.815546 
L 113.623545 144.97659 
L 113.922543 146.81734 
L 114.819536 153.094871 
L 115.56703 155.810232 
L 115.940778 157.673489 
L 116.91252 163.694354 
L 117.286268 164.410481 
L 117.510516 165.66871 
L 117.809514 169.276892 
L 118.706507 181.735549 
L 118.856006 182.113116 
L 119.005505 181.513297 
L 119.080254 180.789214 
L 119.080254 180.789214 
" clip-path="url(#p0971eb97ae)" style="fill: none; stroke: #ff7f0e; stroke-width: 1.5; stroke-linecap: square"/>
   </g>
   <g id="line2d_9">
    <path d="M 119.857337 88.800592 
L 120.263787 115.55846 
L 120.579915 124.721897 
L 120.850882 127.246366 
L 120.986365 127.364061 
L 121.16701 126.924235 
L 121.437977 126.249946 
L 121.528299 126.294232 
L 121.708943 126.781634 
L 122.567005 129.880562 
L 122.928294 130.096113 
L 123.334744 130.38202 
L 123.650872 130.899505 
L 124.057322 132.098087 
L 124.734739 134.029384 
L 125.276672 135.231019 
L 126.270217 138.384178 
L 126.721828 138.469151 
L 126.902473 138.937355 
L 127.218601 140.634866 
L 127.760534 143.438803 
L 128.076662 143.939916 
L 128.573434 144.436552 
L 128.844401 145.17477 
L 129.160529 146.69279 
L 129.702463 150.763392 
L 130.199235 153.817437 
L 130.515363 154.676641 
L 130.741168 154.800466 
L 131.283102 154.64753 
L 131.463746 155.241635 
L 131.689552 156.942229 
L 132.683097 165.93769 
L 133.179869 167.466089 
L 134.444381 171.381996 
L 134.715347 173.819734 
L 135.437925 181.251405 
L 135.528248 181.352403 
L 135.573409 181.316115 
L 135.754053 180.754442 
L 136.250826 178.824646 
L 136.341148 178.879663 
L 136.476631 179.311507 
L 136.702437 181.004399 
L 137.018565 185.544505 
L 137.831465 198.950682 
L 138.01211 199.350666 
L 138.147593 199.156925 
L 138.554043 198.326171 
L 138.689526 198.581479 
L 138.915332 199.722844 
L 139.276621 202.992478 
L 140.270166 213.026291 
L 140.676616 214.469661 
L 141.850805 217.239899 
L 142.03145 217.138472 
L 142.212094 216.728814 
L 142.392739 215.951444 
L 142.392739 215.951444 
" clip-path="url(#p0971eb97ae)" style="fill: none; stroke: #2ca02c; stroke-width: 1.5; stroke-linecap: square"/>
   </g>
   <g id="line2d_10">
    <path d="M 143.169821 106.189564 
L 143.576272 124.229799 
L 143.937561 132.004994 
L 144.253688 134.670759 
L 144.524655 135.338183 
L 144.840783 135.829712 
L 145.202072 137.088073 
L 145.92465 140.685792 
L 146.376261 144.03475 
L 147.279484 151.427415 
L 147.776256 154.384986 
L 148.182706 158.995251 
L 148.589156 162.614632 
L 148.72464 162.783943 
L 148.860123 162.493388 
L 149.221412 161.554647 
L 149.311734 161.722842 
L 149.447218 162.598925 
L 149.763346 167.020121 
L 150.214957 173.117636 
L 150.440763 173.837293 
L 150.576246 173.76209 
L 150.847213 173.502762 
L 150.982696 173.759463 
L 151.163341 174.798192 
L 151.479468 178.208965 
L 152.518174 191.379985 
L 152.608497 191.260676 
L 152.789141 190.334055 
L 153.195591 188.290749 
L 153.285913 188.482883 
L 153.466558 189.974596 
L 154.324619 199.508851 
L 154.866553 200.862924 
L 155.13752 203.34244 
L 155.769775 212.161766 
L 156.266548 217.53057 
L 156.492353 218.262431 
L 156.627837 218.210124 
L 156.898803 218.030882 
L 157.034287 218.363878 
L 157.214931 219.756372 
L 157.57622 225.388657 
L 158.027832 231.296516 
L 158.253637 231.911141 
L 158.614926 232.072955 
L 158.795571 232.958452 
L 159.15686 236.744089 
L 159.608471 240.886307 
L 160.150404 243.778685 
L 160.421371 247.925337 
L 160.872982 255.157067 
L 160.963305 255.375341 
L 161.053627 254.848783 
L 161.234271 251.606601 
L 161.731044 241.471993 
L 161.776205 241.450467 
L 161.866527 242.278123 
L 162.047172 247.022027 
L 162.76975 270.195679 
L 162.860072 270.421861 
L 162.905233 270.33417 
L 163.085878 269.093321 
L 163.447167 266.319073 
L 163.537489 266.287804 
L 163.672972 266.746236 
L 163.943939 268.884306 
L 164.666517 275.006562 
L 164.982645 276.217585 
L 165.163289 276.35667 
L 165.298773 276.162032 
L 165.524578 275.210974 
L 165.705223 273.834624 
L 165.705223 273.834624 
" clip-path="url(#p0971eb97ae)" style="fill: none; stroke: #d62728; stroke-width: 1.5; stroke-linecap: square"/>
   </g>
   <g id="line2d_11">
    <path d="M 166.482306 88.416305 
L 166.905886 115.549442 
L 167.276519 128.010446 
L 167.594204 133.05159 
L 167.911889 135.175256 
L 168.864944 139.635347 
L 169.712105 144.05551 
L 170.24158 145.826304 
L 170.506318 147.833003 
L 171.459373 156.385843 
L 171.882953 157.592994 
L 172.359481 158.954019 
L 172.783061 160.875376 
L 173.206641 163.996574 
L 173.630222 169.14702 
L 174.212644 176.449531 
L 174.424435 177.251627 
L 174.583277 177.23171 
L 174.900962 177.011683 
L 175.006857 177.241213 
L 175.218647 178.574328 
L 176.22465 186.837874 
L 176.489388 188.602756 
L 176.807073 192.770085 
L 177.548339 203.682656 
L 177.813076 204.790876 
L 177.918971 204.776332 
L 178.077814 204.305155 
L 178.395499 202.160843 
L 178.660237 200.755196 
L 178.713184 200.694304 
L 178.766132 200.741618 
L 178.872027 201.220518 
L 179.083817 203.92212 
L 179.719187 214.105125 
L 179.772135 214.219186 
L 179.825082 214.18046 
L 179.983925 213.429937 
L 180.354557 211.602202 
L 180.460452 212.076872 
L 180.672243 215.287536 
L 181.36056 227.938358 
L 181.413508 228.003962 
L 181.466455 227.940504 
L 181.678246 226.916782 
L 181.942983 225.857686 
L 182.048878 226.170187 
L 182.260668 228.546074 
L 183.160776 241.773547 
L 183.531409 243.100091 
L 183.902042 244.466961 
L 184.325622 247.000714 
L 185.278677 253.536089 
L 185.8611 255.223973 
L 186.125838 257.461025 
L 186.972998 265.609104 
L 187.396578 268.649873 
L 187.873106 274.82372 
L 188.137844 276.879516 
L 188.190791 276.921384 
L 188.296686 276.509552 
L 188.508476 274.057342 
L 189.037952 267.324651 
L 189.090899 267.248189 
L 189.143847 267.327102 
L 189.302689 268.35908 
L 189.620374 272.76863 
L 190.255745 281.55514 
L 190.520482 282.710342 
L 190.626377 282.531736 
L 190.838168 281.194922 
L 191.526485 275.976112 
L 191.63238 275.994316 
L 191.791223 276.61537 
L 192.003013 278.611166 
L 192.320698 284.290958 
L 192.691331 295.355907 
L 192.903121 304.001128 
L 192.903121 304.001128 
" clip-path="url(#p0971eb97ae)" style="fill: none; stroke: #9467bd; stroke-width: 1.5; stroke-linecap: square"/>
   </g>
   <g id="line2d_12">
    <path d="M 193.680204 111.281362 
L 194.061737 124.408965 
L 194.388766 129.084573 
L 194.606786 130.083652 
L 194.7703 130.224713 
L 195.097329 130.237993 
L 195.260843 130.7076 
L 195.533367 132.623124 
L 196.078415 136.42776 
L 196.24193 136.601336 
L 196.459949 136.430565 
L 196.677968 136.37728 
L 196.841483 136.790148 
L 197.168511 138.830375 
L 197.550045 140.933876 
L 197.659055 141.04941 
L 197.713559 141.016412 
L 197.931579 140.528633 
L 198.258608 139.906191 
L 198.367617 140.069814 
L 198.585636 141.188699 
L 199.566723 147.675705 
L 200.32979 150.357143 
L 201.092857 154.428015 
L 202.346468 161.512198 
L 202.564487 161.529926 
L 202.782506 161.547128 
L 202.946021 161.843808 
L 203.16404 162.952541 
L 203.491069 166.047101 
L 204.690175 178.851505 
L 204.908194 178.977365 
L 205.071708 179.010039 
L 205.235223 179.358061 
L 205.398737 180.345965 
L 206.161804 187.256201 
L 206.216309 187.24145 
L 206.379824 186.710534 
L 206.815862 184.773527 
L 206.924872 184.91987 
L 207.088386 185.927197 
L 207.960463 193.036207 
L 208.451006 193.832178 
L 208.72353 195.566042 
L 209.813626 203.912868 
L 210.031646 204.235518 
L 210.413179 204.110493 
L 210.576694 204.690368 
L 210.794713 206.961316 
L 211.55778 219.751438 
L 211.612285 219.681433 
L 211.775799 218.336081 
L 212.266343 212.791654 
L 212.320848 212.842392 
L 212.429857 213.717435 
L 212.702381 219.027621 
L 213.192924 228.248778 
L 213.301934 228.574765 
L 213.356439 228.508984 
L 213.519953 227.634014 
L 214.174011 223.032536 
L 214.283021 223.103648 
L 214.446535 223.836661 
L 214.664554 226.081858 
L 215.046088 233.155892 
L 215.75465 246.589365 
L 215.97267 247.911189 
L 216.027174 247.876935 
L 216.136184 247.297167 
L 216.354203 243.931736 
L 216.899251 233.509543 
L 216.953756 233.355912 
L 217.008261 233.516454 
L 217.171775 235.795039 
L 218.043852 252.988136 
L 218.207367 252.62894 
L 218.370881 252.290016 
L 218.425386 252.331084 
L 218.534395 252.836547 
L 218.752415 255.858179 
L 219.297463 264.28582 
L 219.351967 264.29634 
L 219.460977 263.589239 
L 219.678996 259.99519 
L 220.387559 246.781933 
L 220.442064 246.781116 
L 220.551073 247.638609 
L 220.714588 251.470051 
L 220.878102 258.991552 
L 220.878102 258.991552 
" clip-path="url(#p0971eb97ae)" style="fill: none; stroke: #8c564b; stroke-width: 1.5; stroke-linecap: square"/>
   </g>
   <g id="line2d_13">
    <path d="M 221.655185 112.626365 
L 222.025818 129.611293 
L 222.343503 135.978104 
L 222.60824 137.514495 
L 222.714135 137.538544 
L 222.925925 137.109522 
L 223.190663 136.682098 
L 223.296558 136.84391 
L 223.508348 137.800892 
L 225.149722 147.589558 
L 226.367515 152.641693 
L 226.579305 152.40544 
L 226.791095 152.259856 
L 226.89699 152.423782 
L 227.055832 153.193625 
L 227.32057 156.240973 
L 228.008888 165.293522 
L 228.273626 166.072049 
L 228.644258 166.509434 
L 228.908996 167.712878 
L 229.491419 170.552622 
L 230.020894 171.36888 
L 230.232684 173.044564 
L 230.656264 179.63273 
L 231.026897 183.93519 
L 231.18574 184.215867 
L 231.344582 183.894413 
L 231.662267 183.277875 
L 231.768162 183.577912 
L 231.979952 185.319948 
L 232.509428 190.081336 
L 232.562375 190.100972 
L 232.66827 189.775002 
L 233.09185 187.443226 
L 233.144798 187.470636 
L 233.250693 188.027726 
L 233.409536 190.449863 
L 234.256696 208.17645 
L 234.362591 207.711598 
L 234.892066 203.650231 
L 234.945014 203.761028 
L 235.103856 204.851606 
L 235.739227 210.343367 
L 235.845122 210.056351 
L 236.374597 207.478561 
L 236.427545 207.566287 
L 236.586387 208.573901 
L 236.904072 212.883938 
L 237.539443 221.913015 
L 237.857128 223.720471 
L 237.963023 223.790477 
L 238.121865 223.401835 
L 238.545446 222.07818 
L 238.651341 222.336189 
L 238.810183 223.647622 
L 239.127868 229.094578 
L 239.604396 236.824095 
L 239.816186 237.771972 
L 239.975029 237.767657 
L 240.345661 237.401283 
L 240.504504 237.753307 
L 240.822189 239.284419 
L 242.463563 249.627537 
L 243.575461 257.948305 
L 244.157883 260.563719 
L 245.057991 263.798656 
L 245.428624 266.589725 
L 245.852204 271.762084 
L 246.328732 277.212453 
L 246.434627 277.387688 
L 246.540522 276.918016 
L 246.752312 274.068842 
L 247.44063 262.447042 
L 247.493577 262.348376 
L 247.546525 262.475821 
L 247.65242 263.499037 
L 247.811263 267.292158 
L 248.076 281.136071 
L 248.076 281.136071 
" clip-path="url(#p0971eb97ae)" style="fill: none; stroke: #e377c2; stroke-width: 1.5; stroke-linecap: square"/>
   </g>
   <g id="line2d_14">
    <path d="M 248.853083 85.24594 
L 249.234617 122.815505 
L 249.561646 137.943368 
L 249.83417 142.366105 
L 249.997684 142.757324 
L 250.161198 142.222921 
L 250.542732 140.85075 
L 250.651742 140.964517 
L 250.869761 141.819796 
L 251.251295 144.668803 
L 252.232381 152.603721 
L 252.940944 155.757936 
L 254.194554 161.580756 
L 254.685097 166.366991 
L 255.012126 168.687496 
L 255.121136 168.865336 
L 255.175641 168.826394 
L 255.39366 168.235234 
L 255.611679 167.843837 
L 255.720689 168.096545 
L 255.884203 169.453931 
L 256.211232 175.361419 
L 256.64727 182.187864 
L 256.75628 182.479653 
L 256.810785 182.421717 
L 257.028804 181.477481 
L 257.246823 180.722954 
L 257.301328 180.77173 
L 257.410338 181.348034 
L 257.628357 184.489449 
L 258.173405 193.30662 
L 258.22791 193.437477 
L 258.282414 193.365302 
L 258.445929 192.242659 
L 258.936472 188.022972 
L 259.045482 188.473854 
L 259.263501 191.333372 
L 260.135578 205.528018 
L 261.770722 217.852334 
L 261.934237 218.114538 
L 262.043246 217.940236 
L 262.261265 216.773275 
L 262.588294 215.246702 
L 262.697304 215.481448 
L 262.860818 217.118044 
L 263.133342 223.299513 
L 263.623885 234.462207 
L 263.7874 235.126369 
L 263.89641 234.643302 
L 264.168934 231.492823 
L 264.659477 225.938029 
L 264.822991 225.436722 
L 264.932001 225.572674 
L 265.095515 226.545399 
L 265.368039 230.275899 
L 266.076602 241.448903 
L 266.294621 242.30122 
L 266.458135 242.397831 
L 266.730659 242.424475 
L 266.894174 242.811254 
L 267.112193 244.017556 
L 267.384717 246.853898 
L 267.766251 253.549801 
L 268.311299 262.821399 
L 268.583823 264.242857 
L 268.692832 264.240363 
L 268.856347 263.817117 
L 269.564909 261.099309 
L 269.619414 261.164186 
L 269.782929 261.888021 
L 270.000948 264.2908 
L 270.764015 274.019247 
L 270.927529 274.218385 
L 271.145549 273.953432 
L 271.309063 273.83662 
L 271.418073 274.00279 
L 271.636092 275.085002 
L 272.835198 284.205143 
L 273.162227 289.161578 
L 273.707275 297.290877 
L 273.870789 297.801096 
L 273.979799 297.585259 
L 274.197818 296.338416 
L 274.633856 293.774879 
L 274.797371 293.623973 
L 274.960885 293.96805 
L 275.178904 295.160557 
L 275.505933 298.420664 
L 275.941972 305.253085 
L 276.050981 307.363636 
L 276.050981 307.363636 
" clip-path="url(#p0971eb97ae)" style="fill: none; stroke: #7f7f7f; stroke-width: 1.5; stroke-linecap: square"/>
   </g>
   <g id="line2d_15">
    <path d="M 276.828064 91.250419 
L 277.276561 127.523682 
L 277.675224 142.882179 
L 277.974222 147.580642 
L 278.223387 148.981919 
L 278.821383 150.980327 
L 279.070548 153.118291 
L 279.419378 158.433567 
L 279.917708 165.492989 
L 280.067207 166.001412 
L 280.11704 165.987143 
L 280.266539 165.588543 
L 280.665202 164.376326 
L 280.764868 164.641009 
L 280.9642 166.188891 
L 281.412697 172.388537 
L 281.96086 179.129291 
L 282.30969 181.335438 
L 282.658521 182.101913 
L 282.857853 182.723699 
L 283.057185 184.074316 
L 283.406016 188.606223 
L 284.004011 196.14118 
L 285.200002 205.312757 
L 285.797998 210.424645 
L 286.047163 211.270742 
L 286.146829 211.296966 
L 286.296328 210.980641 
L 286.993989 208.549458 
L 287.043822 208.607857 
L 287.193321 209.125075 
L 287.442486 211.220819 
L 287.741484 216.010773 
L 288.538811 230.485551 
L 288.638477 230.566332 
L 288.787976 229.99321 
L 289.18664 228.090223 
L 289.286305 228.369052 
L 289.485637 230.30319 
L 289.983967 235.46481 
L 290.0338 235.419488 
L 290.183299 234.277882 
L 290.731461 227.808823 
L 290.781294 227.903247 
L 290.930793 229.617017 
L 291.229791 237.683566 
L 291.777954 252.709958 
L 292.076952 255.383333 
L 292.22645 255.597554 
L 292.375949 255.3221 
L 292.625114 254.148002 
L 292.973945 251.167681 
L 293.721439 243.843246 
L 293.821105 244.264001 
L 293.970604 246.263863 
L 294.269602 254.580541 
L 294.867598 271.36256 
L 295.116762 273.408516 
L 295.216428 273.514888 
L 295.316094 273.304461 
L 295.515426 272.173568 
L 296.113422 268.326165 
L 296.213088 268.462505 
L 296.362587 269.466516 
L 297.010415 275.690473 
L 297.060248 275.575249 
L 297.209747 274.429216 
L 297.708077 269.848763 
L 297.807743 270.360936 
L 298.007074 273.887876 
L 298.654903 287.969094 
L 298.704736 288.009068 
L 298.804402 287.594444 
L 299.302732 283.499611 
L 299.352564 283.626198 
L 299.502063 285.238555 
L 299.850894 293.218764 
L 300.249558 300.478894 
L 300.399057 300.918664 
L 300.498723 300.6262 
L 300.698055 299.038282 
L 301.395716 292.342233 
L 301.445549 292.32734 
L 301.545215 292.673011 
L 301.694714 294.29789 
L 301.694714 294.29789 
" clip-path="url(#p0971eb97ae)" style="fill: none; stroke: #bcbd22; stroke-width: 1.5; stroke-linecap: square"/>
   </g>
   <g id="line2d_16">
    <path d="M 302.471797 93.123817 
L 302.906278 125.071299 
L 303.244208 136.309535 
L 303.533862 139.980785 
L 303.77524 140.865404 
L 304.064894 141.615135 
L 304.354548 143.63119 
L 305.126959 149.527893 
L 305.513165 152.244503 
L 305.89937 157.146417 
L 306.382127 162.802133 
L 306.623506 163.679992 
L 307.106262 164.420431 
L 307.347641 166.145501 
L 308.651084 178.073514 
L 309.37522 181.774329 
L 309.713149 185.661706 
L 310.82349 199.951413 
L 311.113144 201.047067 
L 311.306247 201.093102 
L 311.49935 201.109866 
L 311.644177 201.398894 
L 311.83728 202.545316 
L 312.223485 207.225918 
L 312.609691 210.924739 
L 312.754518 211.166985 
L 312.899345 210.991119 
L 313.140723 210.63314 
L 313.188999 210.657883 
L 313.28555 210.897993 
L 313.478653 212.400178 
L 313.96141 219.47121 
L 314.29934 222.775958 
L 314.540718 223.394737 
L 314.733821 223.400894 
L 314.926923 223.411025 
L 315.120026 223.750541 
L 315.361405 224.783134 
L 315.651059 227.063589 
L 316.08554 232.578061 
L 316.857951 242.259908 
L 317.195881 244.394212 
L 317.437259 244.878887 
L 317.920016 245.164586 
L 318.113119 245.909205 
L 318.5476 249.055805 
L 318.982081 251.624624 
L 319.368287 253.607509 
L 319.609665 256.203698 
L 320.430352 267.210556 
L 320.526903 267.103495 
L 320.720006 266.053749 
L 321.202763 263.142429 
L 321.299314 263.191832 
L 321.444141 263.742344 
L 321.685519 265.756788 
L 322.120001 271.807209 
L 322.554482 277.039916 
L 322.699309 277.494526 
L 322.79586 277.296768 
L 323.278617 274.965894 
L 323.375168 275.20725 
L 323.519995 276.646175 
L 323.906201 284.460491 
L 324.195855 288.253356 
L 324.244131 288.276652 
L 324.340682 287.683509 
L 324.582061 283.774363 
L 324.968266 277.79175 
L 325.016542 277.671689 
L 325.064817 277.774093 
L 325.209644 279.266526 
L 325.499299 286.020835 
L 326.175158 302.673488 
L 326.27171 303.1154 
L 326.319985 303.007044 
L 326.464812 301.156186 
L 326.561364 298.477007 
L 326.561364 298.477007 
" clip-path="url(#p0971eb97ae)" style="fill: none; stroke: #17becf; stroke-width: 1.5; stroke-linecap: square"/>
   </g>
   <g id="patch_3">
    <path d="M 33.64 320.72 
L 33.64 26.88 
" style="fill: none; stroke: #000000; stroke-width: 0.8; stroke-linejoin: miter; stroke-linecap: square"/>
   </g>
   <g id="patch_4">
    <path d="M 340.51 320.72 
L 340.51 26.88 
" style="fill: none; stroke: #000000; stroke-width: 0.8; stroke-linejoin: miter; stroke-linecap: square"/>
   </g>
   <g id="patch_5">
    <path d="M 33.64 320.72 
L 340.51 320.72 
" style="fill: none; stroke: #000000; stroke-width: 0.8; stroke-linejoin: miter; stroke-linecap: square"/>
   </g>
   <g id="patch_6">
    <path d="M 33.64 26.88 
L 340.51 26.88 
" style="fill: none; stroke: #000000; stroke-width: 0.8; stroke-linejoin: miter; stroke-linecap: square"/>
   </g>
   <g id="text_8">
    <!-- Train Loss Curve -->
    <g transform="translate(138.00625 20.88)scale(0.12 -0.12)">
     <defs>
      <path id="DejaVuSans-54" d="M -19 4666 
L 3928 4666 
L 3928 4134 
L 2272 4134 
L 2272 0 
L 1638 0 
L 1638 4134 
L -19 4134 
L -19 4666 
z
" transform="scale(0.015625)"/>
      <path id="DejaVuSans-20" transform="scale(0.015625)"/>
      <path id="DejaVuSans-4c" d="M 628 4666 
L 1259 4666 
L 1259 531 
L 3531 531 
L 3531 0 
L 628 0 
L 628 4666 
z
" transform="scale(0.015625)"/>
      <path id="DejaVuSans-43" d="M 4122 4306 
L 4122 3641 
Q 3803 3938 3442 4084 
Q 3081 4231 2675 4231 
Q 1875 4231 1450 3742 
Q 1025 3253 1025 2328 
Q 1025 1406 1450 917 
Q 1875 428 2675 428 
Q 3081 428 3442 575 
Q 3803 722 4122 1019 
L 4122 359 
Q 3791 134 3420 21 
Q 3050 -91 2638 -91 
Q 1578 -91 968 557 
Q 359 1206 359 2328 
Q 359 3453 968 4101 
Q 1578 4750 2638 4750 
Q 3056 4750 3426 4639 
Q 3797 4528 4122 4306 
z
" transform="scale(0.015625)"/>
      <path id="DejaVuSans-75" d="M 544 1381 
L 544 3500 
L 1119 3500 
L 1119 1403 
Q 1119 906 1312 657 
Q 1506 409 1894 409 
Q 2359 409 2629 706 
Q 2900 1003 2900 1516 
L 2900 3500 
L 3475 3500 
L 3475 0 
L 2900 0 
L 2900 538 
Q 2691 219 2414 64 
Q 2138 -91 1772 -91 
Q 1169 -91 856 284 
Q 544 659 544 1381 
z
M 1991 3584 
L 1991 3584 
z
" transform="scale(0.015625)"/>
      <path id="DejaVuSans-76" d="M 191 3500 
L 800 3500 
L 1894 563 
L 2988 3500 
L 3597 3500 
L 2284 0 
L 1503 0 
L 191 3500 
z
" transform="scale(0.015625)"/>
     </defs>
     <use xlink:href="#DejaVuSans-54"/>
     <use xlink:href="#DejaVuSans-72" x="46.333984"/>
     <use xlink:href="#DejaVuSans-61" x="87.447266"/>
     <use xlink:href="#DejaVuSans-69" x="148.726562"/>
     <use xlink:href="#DejaVuSans-6e" x="176.509766"/>
     <use xlink:href="#DejaVuSans-20" x="239.888672"/>
     <use xlink:href="#DejaVuSans-4c" x="271.675781"/>
     <use xlink:href="#DejaVuSans-6f" x="325.638672"/>
     <use xlink:href="#DejaVuSans-73" x="386.820312"/>
     <use xlink:href="#DejaVuSans-73" x="438.919922"/>
     <use xlink:href="#DejaVuSans-20" x="491.019531"/>
     <use xlink:href="#DejaVuSans-43" x="522.806641"/>
     <use xlink:href="#DejaVuSans-75" x="592.630859"/>
     <use xlink:href="#DejaVuSans-72" x="656.009766"/>
     <use xlink:href="#DejaVuSans-76" x="697.123047"/>
     <use xlink:href="#DejaVuSans-65" x="756.302734"/>
    </g>
   </g>
   <g id="legend_1">
    <g id="patch_7">
     <path d="M 349.51 250.690625 
L 449.899062 250.690625 
Q 451.899062 250.690625 451.899062 248.690625 
L 451.899062 102.909375 
Q 451.899062 100.909375 449.899062 100.909375 
L 349.51 100.909375 
Q 347.51 100.909375 347.51 102.909375 
L 347.51 248.690625 
Q 347.51 250.690625 349.51 250.690625 
z
" style="fill: #4c4c4c; opacity: 0.5; stroke: #4c4c4c; stroke-linejoin: miter"/>
    </g>
    <g id="patch_8">
     <path d="M 347.51 248.690625 
L 447.899062 248.690625 
Q 449.899062 248.690625 449.899062 246.690625 
L 449.899062 100.909375 
Q 449.899062 98.909375 447.899062 98.909375 
L 347.51 98.909375 
Q 345.51 98.909375 345.51 100.909375 
L 345.51 246.690625 
Q 345.51 248.690625 347.51 248.690625 
z
" style="fill: #ffffff; stroke: #cccccc; stroke-linejoin: miter"/>
    </g>
    <g id="line2d_17">
     <path d="M 349.51 107.007812 
L 359.51 107.007812 
L 369.51 107.007812 
" style="fill: none; stroke: #1f77b4; stroke-width: 1.5; stroke-linecap: square"/>
    </g>
    <g id="text_9">
     <!-- No.0 iteration -->
     <g transform="translate(377.51 110.507812)scale(0.1 -0.1)">
      <defs>
       <path id="DejaVuSans-4e" d="M 628 4666 
L 1478 4666 
L 3547 763 
L 3547 4666 
L 4159 4666 
L 4159 0 
L 3309 0 
L 1241 3903 
L 1241 0 
L 628 0 
L 628 4666 
z
" transform="scale(0.015625)"/>
      </defs>
      <use xlink:href="#DejaVuSans-4e"/>
      <use xlink:href="#DejaVuSans-6f" x="74.804688"/>
      <use xlink:href="#DejaVuSans-2e" x="134.236328"/>
      <use xlink:href="#DejaVuSans-30" x="166.023438"/>
      <use xlink:href="#DejaVuSans-20" x="229.646484"/>
      <use xlink:href="#DejaVuSans-69" x="261.433594"/>
      <use xlink:href="#DejaVuSans-74" x="289.216797"/>
      <use xlink:href="#DejaVuSans-65" x="328.425781"/>
      <use xlink:href="#DejaVuSans-72" x="389.949219"/>
      <use xlink:href="#DejaVuSans-61" x="431.0625"/>
      <use xlink:href="#DejaVuSans-74" x="492.341797"/>
      <use xlink:href="#DejaVuSans-69" x="531.550781"/>
      <use xlink:href="#DejaVuSans-6f" x="559.333984"/>
      <use xlink:href="#DejaVuSans-6e" x="620.515625"/>
     </g>
    </g>
    <g id="line2d_18">
     <path d="M 349.51 121.685938 
L 359.51 121.685938 
L 369.51 121.685938 
" style="fill: none; stroke: #ff7f0e; stroke-width: 1.5; stroke-linecap: square"/>
    </g>
    <g id="text_10">
     <!-- No.1 iteration -->
     <g transform="translate(377.51 125.185938)scale(0.1 -0.1)">
      <defs>
       <path id="DejaVuSans-31" d="M 794 531 
L 1825 531 
L 1825 4091 
L 703 3866 
L 703 4441 
L 1819 4666 
L 2450 4666 
L 2450 531 
L 3481 531 
L 3481 0 
L 794 0 
L 794 531 
z
" transform="scale(0.015625)"/>
      </defs>
      <use xlink:href="#DejaVuSans-4e"/>
      <use xlink:href="#DejaVuSans-6f" x="74.804688"/>
      <use xlink:href="#DejaVuSans-2e" x="134.236328"/>
      <use xlink:href="#DejaVuSans-31" x="166.023438"/>
      <use xlink:href="#DejaVuSans-20" x="229.646484"/>
      <use xlink:href="#DejaVuSans-69" x="261.433594"/>
      <use xlink:href="#DejaVuSans-74" x="289.216797"/>
      <use xlink:href="#DejaVuSans-65" x="328.425781"/>
      <use xlink:href="#DejaVuSans-72" x="389.949219"/>
      <use xlink:href="#DejaVuSans-61" x="431.0625"/>
      <use xlink:href="#DejaVuSans-74" x="492.341797"/>
      <use xlink:href="#DejaVuSans-69" x="531.550781"/>
      <use xlink:href="#DejaVuSans-6f" x="559.333984"/>
      <use xlink:href="#DejaVuSans-6e" x="620.515625"/>
     </g>
    </g>
    <g id="line2d_19">
     <path d="M 349.51 136.364063 
L 359.51 136.364063 
L 369.51 136.364063 
" style="fill: none; stroke: #2ca02c; stroke-width: 1.5; stroke-linecap: square"/>
    </g>
    <g id="text_11">
     <!-- No.2 iteration -->
     <g transform="translate(377.51 139.864063)scale(0.1 -0.1)">
      <defs>
       <path id="DejaVuSans-32" d="M 1228 531 
L 3431 531 
L 3431 0 
L 469 0 
L 469 531 
Q 828 903 1448 1529 
Q 2069 2156 2228 2338 
Q 2531 2678 2651 2914 
Q 2772 3150 2772 3378 
Q 2772 3750 2511 3984 
Q 2250 4219 1831 4219 
Q 1534 4219 1204 4116 
Q 875 4013 500 3803 
L 500 4441 
Q 881 4594 1212 4672 
Q 1544 4750 1819 4750 
Q 2544 4750 2975 4387 
Q 3406 4025 3406 3419 
Q 3406 3131 3298 2873 
Q 3191 2616 2906 2266 
Q 2828 2175 2409 1742 
Q 1991 1309 1228 531 
z
" transform="scale(0.015625)"/>
      </defs>
      <use xlink:href="#DejaVuSans-4e"/>
      <use xlink:href="#DejaVuSans-6f" x="74.804688"/>
      <use xlink:href="#DejaVuSans-2e" x="134.236328"/>
      <use xlink:href="#DejaVuSans-32" x="166.023438"/>
      <use xlink:href="#DejaVuSans-20" x="229.646484"/>
      <use xlink:href="#DejaVuSans-69" x="261.433594"/>
      <use xlink:href="#DejaVuSans-74" x="289.216797"/>
      <use xlink:href="#DejaVuSans-65" x="328.425781"/>
      <use xlink:href="#DejaVuSans-72" x="389.949219"/>
      <use xlink:href="#DejaVuSans-61" x="431.0625"/>
      <use xlink:href="#DejaVuSans-74" x="492.341797"/>
      <use xlink:href="#DejaVuSans-69" x="531.550781"/>
      <use xlink:href="#DejaVuSans-6f" x="559.333984"/>
      <use xlink:href="#DejaVuSans-6e" x="620.515625"/>
     </g>
    </g>
    <g id="line2d_20">
     <path d="M 349.51 151.042188 
L 359.51 151.042188 
L 369.51 151.042188 
" style="fill: none; stroke: #d62728; stroke-width: 1.5; stroke-linecap: square"/>
    </g>
    <g id="text_12">
     <!-- No.3 iteration -->
     <g transform="translate(377.51 154.542188)scale(0.1 -0.1)">
      <use xlink:href="#DejaVuSans-4e"/>
      <use xlink:href="#DejaVuSans-6f" x="74.804688"/>
      <use xlink:href="#DejaVuSans-2e" x="134.236328"/>
      <use xlink:href="#DejaVuSans-33" x="166.023438"/>
      <use xlink:href="#DejaVuSans-20" x="229.646484"/>
      <use xlink:href="#DejaVuSans-69" x="261.433594"/>
      <use xlink:href="#DejaVuSans-74" x="289.216797"/>
      <use xlink:href="#DejaVuSans-65" x="328.425781"/>
      <use xlink:href="#DejaVuSans-72" x="389.949219"/>
      <use xlink:href="#DejaVuSans-61" x="431.0625"/>
      <use xlink:href="#DejaVuSans-74" x="492.341797"/>
      <use xlink:href="#DejaVuSans-69" x="531.550781"/>
      <use xlink:href="#DejaVuSans-6f" x="559.333984"/>
      <use xlink:href="#DejaVuSans-6e" x="620.515625"/>
     </g>
    </g>
    <g id="line2d_21">
     <path d="M 349.51 165.720313 
L 359.51 165.720313 
L 369.51 165.720313 
" style="fill: none; stroke: #9467bd; stroke-width: 1.5; stroke-linecap: square"/>
    </g>
    <g id="text_13">
     <!-- No.4 iteration -->
     <g transform="translate(377.51 169.220313)scale(0.1 -0.1)">
      <use xlink:href="#DejaVuSans-4e"/>
      <use xlink:href="#DejaVuSans-6f" x="74.804688"/>
      <use xlink:href="#DejaVuSans-2e" x="134.236328"/>
      <use xlink:href="#DejaVuSans-34" x="166.023438"/>
      <use xlink:href="#DejaVuSans-20" x="229.646484"/>
      <use xlink:href="#DejaVuSans-69" x="261.433594"/>
      <use xlink:href="#DejaVuSans-74" x="289.216797"/>
      <use xlink:href="#DejaVuSans-65" x="328.425781"/>
      <use xlink:href="#DejaVuSans-72" x="389.949219"/>
      <use xlink:href="#DejaVuSans-61" x="431.0625"/>
      <use xlink:href="#DejaVuSans-74" x="492.341797"/>
      <use xlink:href="#DejaVuSans-69" x="531.550781"/>
      <use xlink:href="#DejaVuSans-6f" x="559.333984"/>
      <use xlink:href="#DejaVuSans-6e" x="620.515625"/>
     </g>
    </g>
    <g id="line2d_22">
     <path d="M 349.51 180.398438 
L 359.51 180.398438 
L 369.51 180.398438 
" style="fill: none; stroke: #8c564b; stroke-width: 1.5; stroke-linecap: square"/>
    </g>
    <g id="text_14">
     <!-- No.5 iteration -->
     <g transform="translate(377.51 183.898438)scale(0.1 -0.1)">
      <use xlink:href="#DejaVuSans-4e"/>
      <use xlink:href="#DejaVuSans-6f" x="74.804688"/>
      <use xlink:href="#DejaVuSans-2e" x="134.236328"/>
      <use xlink:href="#DejaVuSans-35" x="166.023438"/>
      <use xlink:href="#DejaVuSans-20" x="229.646484"/>
      <use xlink:href="#DejaVuSans-69" x="261.433594"/>
      <use xlink:href="#DejaVuSans-74" x="289.216797"/>
      <use xlink:href="#DejaVuSans-65" x="328.425781"/>
      <use xlink:href="#DejaVuSans-72" x="389.949219"/>
      <use xlink:href="#DejaVuSans-61" x="431.0625"/>
      <use xlink:href="#DejaVuSans-74" x="492.341797"/>
      <use xlink:href="#DejaVuSans-69" x="531.550781"/>
      <use xlink:href="#DejaVuSans-6f" x="559.333984"/>
      <use xlink:href="#DejaVuSans-6e" x="620.515625"/>
     </g>
    </g>
    <g id="line2d_23">
     <path d="M 349.51 195.076563 
L 359.51 195.076563 
L 369.51 195.076563 
" style="fill: none; stroke: #e377c2; stroke-width: 1.5; stroke-linecap: square"/>
    </g>
    <g id="text_15">
     <!-- No.6 iteration -->
     <g transform="translate(377.51 198.576563)scale(0.1 -0.1)">
      <use xlink:href="#DejaVuSans-4e"/>
      <use xlink:href="#DejaVuSans-6f" x="74.804688"/>
      <use xlink:href="#DejaVuSans-2e" x="134.236328"/>
      <use xlink:href="#DejaVuSans-36" x="166.023438"/>
      <use xlink:href="#DejaVuSans-20" x="229.646484"/>
      <use xlink:href="#DejaVuSans-69" x="261.433594"/>
      <use xlink:href="#DejaVuSans-74" x="289.216797"/>
      <use xlink:href="#DejaVuSans-65" x="328.425781"/>
      <use xlink:href="#DejaVuSans-72" x="389.949219"/>
      <use xlink:href="#DejaVuSans-61" x="431.0625"/>
      <use xlink:href="#DejaVuSans-74" x="492.341797"/>
      <use xlink:href="#DejaVuSans-69" x="531.550781"/>
      <use xlink:href="#DejaVuSans-6f" x="559.333984"/>
      <use xlink:href="#DejaVuSans-6e" x="620.515625"/>
     </g>
    </g>
    <g id="line2d_24">
     <path d="M 349.51 209.754687 
L 359.51 209.754687 
L 369.51 209.754687 
" style="fill: none; stroke: #7f7f7f; stroke-width: 1.5; stroke-linecap: square"/>
    </g>
    <g id="text_16">
     <!-- No.7 iteration -->
     <g transform="translate(377.51 213.254687)scale(0.1 -0.1)">
      <use xlink:href="#DejaVuSans-4e"/>
      <use xlink:href="#DejaVuSans-6f" x="74.804688"/>
      <use xlink:href="#DejaVuSans-2e" x="134.236328"/>
      <use xlink:href="#DejaVuSans-37" x="166.023438"/>
      <use xlink:href="#DejaVuSans-20" x="229.646484"/>
      <use xlink:href="#DejaVuSans-69" x="261.433594"/>
      <use xlink:href="#DejaVuSans-74" x="289.216797"/>
      <use xlink:href="#DejaVuSans-65" x="328.425781"/>
      <use xlink:href="#DejaVuSans-72" x="389.949219"/>
      <use xlink:href="#DejaVuSans-61" x="431.0625"/>
      <use xlink:href="#DejaVuSans-74" x="492.341797"/>
      <use xlink:href="#DejaVuSans-69" x="531.550781"/>
      <use xlink:href="#DejaVuSans-6f" x="559.333984"/>
      <use xlink:href="#DejaVuSans-6e" x="620.515625"/>
     </g>
    </g>
    <g id="line2d_25">
     <path d="M 349.51 224.432813 
L 359.51 224.432813 
L 369.51 224.432813 
" style="fill: none; stroke: #bcbd22; stroke-width: 1.5; stroke-linecap: square"/>
    </g>
    <g id="text_17">
     <!-- No.8 iteration -->
     <g transform="translate(377.51 227.932813)scale(0.1 -0.1)">
      <use xlink:href="#DejaVuSans-4e"/>
      <use xlink:href="#DejaVuSans-6f" x="74.804688"/>
      <use xlink:href="#DejaVuSans-2e" x="134.236328"/>
      <use xlink:href="#DejaVuSans-38" x="166.023438"/>
      <use xlink:href="#DejaVuSans-20" x="229.646484"/>
      <use xlink:href="#DejaVuSans-69" x="261.433594"/>
      <use xlink:href="#DejaVuSans-74" x="289.216797"/>
      <use xlink:href="#DejaVuSans-65" x="328.425781"/>
      <use xlink:href="#DejaVuSans-72" x="389.949219"/>
      <use xlink:href="#DejaVuSans-61" x="431.0625"/>
      <use xlink:href="#DejaVuSans-74" x="492.341797"/>
      <use xlink:href="#DejaVuSans-69" x="531.550781"/>
      <use xlink:href="#DejaVuSans-6f" x="559.333984"/>
      <use xlink:href="#DejaVuSans-6e" x="620.515625"/>
     </g>
    </g>
    <g id="line2d_26">
     <path d="M 349.51 239.110937 
L 359.51 239.110937 
L 369.51 239.110937 
" style="fill: none; stroke: #17becf; stroke-width: 1.5; stroke-linecap: square"/>
    </g>
    <g id="text_18">
     <!-- No.9 iteration -->
     <g transform="translate(377.51 242.610937)scale(0.1 -0.1)">
      <defs>
       <path id="DejaVuSans-39" d="M 703 97 
L 703 672 
Q 941 559 1184 500 
Q 1428 441 1663 441 
Q 2288 441 2617 861 
Q 2947 1281 2994 2138 
Q 2813 1869 2534 1725 
Q 2256 1581 1919 1581 
Q 1219 1581 811 2004 
Q 403 2428 403 3163 
Q 403 3881 828 4315 
Q 1253 4750 1959 4750 
Q 2769 4750 3195 4129 
Q 3622 3509 3622 2328 
Q 3622 1225 3098 567 
Q 2575 -91 1691 -91 
Q 1453 -91 1209 -44 
Q 966 3 703 97 
z
M 1959 2075 
Q 2384 2075 2632 2365 
Q 2881 2656 2881 3163 
Q 2881 3666 2632 3958 
Q 2384 4250 1959 4250 
Q 1534 4250 1286 3958 
Q 1038 3666 1038 3163 
Q 1038 2656 1286 2365 
Q 1534 2075 1959 2075 
z
" transform="scale(0.015625)"/>
      </defs>
      <use xlink:href="#DejaVuSans-4e"/>
      <use xlink:href="#DejaVuSans-6f" x="74.804688"/>
      <use xlink:href="#DejaVuSans-2e" x="134.236328"/>
      <use xlink:href="#DejaVuSans-39" x="166.023438"/>
      <use xlink:href="#DejaVuSans-20" x="229.646484"/>
      <use xlink:href="#DejaVuSans-69" x="261.433594"/>
      <use xlink:href="#DejaVuSans-74" x="289.216797"/>
      <use xlink:href="#DejaVuSans-65" x="328.425781"/>
      <use xlink:href="#DejaVuSans-72" x="389.949219"/>
      <use xlink:href="#DejaVuSans-61" x="431.0625"/>
      <use xlink:href="#DejaVuSans-74" x="492.341797"/>
      <use xlink:href="#DejaVuSans-69" x="531.550781"/>
      <use xlink:href="#DejaVuSans-6f" x="559.333984"/>
      <use xlink:href="#DejaVuSans-6e" x="620.515625"/>
     </g>
    </g>
   </g>
  </g>
 </g>
 <defs>
  <clipPath id="p0971eb97ae">
   <rect x="33.64" y="26.88" width="306.87" height="293.84"/>
  </clipPath>
 </defs>
</svg>
