<?xml version="1.0" encoding="utf-8" standalone="no"?>
<!DOCTYPE svg PUBLIC "-//W3C//DTD SVG 1.1//EN"
        "http://www.w3.org/Graphics/SVG/1.1/DTD/svg11.dtd">
<svg xmlns:xlink="http://www.w3.org/1999/xlink" width="460.8pt" height="345.6pt" viewBox="0 0 460.8 345.6"
     xmlns="http://www.w3.org/2000/svg" version="1.1">
    <metadata>
        <rdf:RDF xmlns:dc="http://purl.org/dc/elements/1.1/" xmlns:cc="http://creativecommons.org/ns#"
                 xmlns:rdf="http://www.w3.org/1999/02/22-rdf-syntax-ns#">
            <cc:Work>
                <dc:type rdf:resource="http://purl.org/dc/dcmitype/StillImage"/>
                <dc:date>2022-04-07T19:17:29.383152</dc:date>
                <dc:format>image/svg+xml</dc:format>
                <dc:creator>
                    <cc:Agent>
                        <dc:title>Matplotlib v3.5.1, https://matplotlib.org/</dc:title>
                    </cc:Agent>
                </dc:creator>
            </cc:Work>
        </rdf:RDF>
    </metadata>
    <defs>
        <style type="text/css">*{stroke-linejoin: round; stroke-linecap: butt}</style>
    </defs>
    <g id="figure_1">
        <g id="patch_1">
            <path d="M 0 345.6
L 460.8 345.6 
L 460.8 0 
L 0 0 
z
" style="fill: #ffffff"/>
        </g>
        <g id="axes_1">
            <g id="patch_2">
                <path d="M 39.94 320.72
L 340.51 320.72 
L 340.51 26.88 
L 39.94 26.88 
z
" style="fill: #ffffff"/>
            </g>
            <g id="matplotlib.axis_1">
                <g id="text_1">
                    <!-- Iterations -->
                    <g transform="translate(166.411719 332.318437)scale(0.1 -0.1)">
                        <defs>
                            <path id="DejaVuSans-49" d="M 628 4666
L 1259 4666 
L 1259 0 
L 628 0 
L 628 4666 
z
" transform="scale(0.015625)"/>
                            <path id="DejaVuSans-74" d="M 1172 4494
L 1172 3500 
L 2356 3500 
L 2356 3053 
L 1172 3053 
L 1172 1153 
Q 1172 725 1289 603 
Q 1406 481 1766 481 
L 2356 481 
L 2356 0 
L 1766 0 
Q 1100 0 847 248 
Q 594 497 594 1153 
L 594 3053 
L 172 3053 
L 172 3500 
L 594 3500 
L 594 4494 
L 1172 4494 
z
" transform="scale(0.015625)"/>
                            <path id="DejaVuSans-65" d="M 3597 1894
L 3597 1613 
L 953 1613 
Q 991 1019 1311 708 
Q 1631 397 2203 397 
Q 2534 397 2845 478 
Q 3156 559 3463 722 
L 3463 178 
Q 3153 47 2828 -22 
Q 2503 -91 2169 -91 
Q 1331 -91 842 396 
Q 353 884 353 1716 
Q 353 2575 817 3079 
Q 1281 3584 2069 3584 
Q 2775 3584 3186 3129 
Q 3597 2675 3597 1894 
z
M 3022 2063 
Q 3016 2534 2758 2815 
Q 2500 3097 2075 3097 
Q 1594 3097 1305 2825 
Q 1016 2553 972 2059 
L 3022 2063 
z
" transform="scale(0.015625)"/>
                            <path id="DejaVuSans-72" d="M 2631 2963
Q 2534 3019 2420 3045 
Q 2306 3072 2169 3072 
Q 1681 3072 1420 2755 
Q 1159 2438 1159 1844 
L 1159 0 
L 581 0 
L 581 3500 
L 1159 3500 
L 1159 2956 
Q 1341 3275 1631 3429 
Q 1922 3584 2338 3584 
Q 2397 3584 2469 3576 
Q 2541 3569 2628 3553 
L 2631 2963 
z
" transform="scale(0.015625)"/>
                            <path id="DejaVuSans-61" d="M 2194 1759
Q 1497 1759 1228 1600 
Q 959 1441 959 1056 
Q 959 750 1161 570 
Q 1363 391 1709 391 
Q 2188 391 2477 730 
Q 2766 1069 2766 1631 
L 2766 1759 
L 2194 1759 
z
M 3341 1997 
L 3341 0 
L 2766 0 
L 2766 531 
Q 2569 213 2275 61 
Q 1981 -91 1556 -91 
Q 1019 -91 701 211 
Q 384 513 384 1019 
Q 384 1609 779 1909 
Q 1175 2209 1959 2209 
L 2766 2209 
L 2766 2266 
Q 2766 2663 2505 2880 
Q 2244 3097 1772 3097 
Q 1472 3097 1187 3025 
Q 903 2953 641 2809 
L 641 3341 
Q 956 3463 1253 3523 
Q 1550 3584 1831 3584 
Q 2591 3584 2966 3190 
Q 3341 2797 3341 1997 
z
" transform="scale(0.015625)"/>
                            <path id="DejaVuSans-69" d="M 603 3500
L 1178 3500 
L 1178 0 
L 603 0 
L 603 3500 
z
M 603 4863 
L 1178 4863 
L 1178 4134 
L 603 4134 
L 603 4863 
z
" transform="scale(0.015625)"/>
                            <path id="DejaVuSans-6f" d="M 1959 3097
Q 1497 3097 1228 2736 
Q 959 2375 959 1747 
Q 959 1119 1226 758 
Q 1494 397 1959 397 
Q 2419 397 2687 759 
Q 2956 1122 2956 1747 
Q 2956 2369 2687 2733 
Q 2419 3097 1959 3097 
z
M 1959 3584 
Q 2709 3584 3137 3096 
Q 3566 2609 3566 1747 
Q 3566 888 3137 398 
Q 2709 -91 1959 -91 
Q 1206 -91 779 398 
Q 353 888 353 1747 
Q 353 2609 779 3096 
Q 1206 3584 1959 3584 
z
" transform="scale(0.015625)"/>
                            <path id="DejaVuSans-6e" d="M 3513 2113
L 3513 0 
L 2938 0 
L 2938 2094 
Q 2938 2591 2744 2837 
Q 2550 3084 2163 3084 
Q 1697 3084 1428 2787 
Q 1159 2491 1159 1978 
L 1159 0 
L 581 0 
L 581 3500 
L 1159 3500 
L 1159 2956 
Q 1366 3272 1645 3428 
Q 1925 3584 2291 3584 
Q 2894 3584 3203 3211 
Q 3513 2838 3513 2113 
z
" transform="scale(0.015625)"/>
                            <path id="DejaVuSans-73" d="M 2834 3397
L 2834 2853 
Q 2591 2978 2328 3040 
Q 2066 3103 1784 3103 
Q 1356 3103 1142 2972 
Q 928 2841 928 2578 
Q 928 2378 1081 2264 
Q 1234 2150 1697 2047 
L 1894 2003 
Q 2506 1872 2764 1633 
Q 3022 1394 3022 966 
Q 3022 478 2636 193 
Q 2250 -91 1575 -91 
Q 1294 -91 989 -36 
Q 684 19 347 128 
L 347 722 
Q 666 556 975 473 
Q 1284 391 1588 391 
Q 1994 391 2212 530 
Q 2431 669 2431 922 
Q 2431 1156 2273 1281 
Q 2116 1406 1581 1522 
L 1381 1569 
Q 847 1681 609 1914 
Q 372 2147 372 2553 
Q 372 3047 722 3315 
Q 1072 3584 1716 3584 
Q 2034 3584 2315 3537 
Q 2597 3491 2834 3397 
z
" transform="scale(0.015625)"/>
                        </defs>
                        <use xlink:href="#DejaVuSans-49"/>
                        <use xlink:href="#DejaVuSans-74" x="29.492188"/>
                        <use xlink:href="#DejaVuSans-65" x="68.701172"/>
                        <use xlink:href="#DejaVuSans-72" x="130.224609"/>
                        <use xlink:href="#DejaVuSans-61" x="171.337891"/>
                        <use xlink:href="#DejaVuSans-74" x="232.617188"/>
                        <use xlink:href="#DejaVuSans-69" x="271.826172"/>
                        <use xlink:href="#DejaVuSans-6f" x="299.609375"/>
                        <use xlink:href="#DejaVuSans-6e" x="360.791016"/>
                        <use xlink:href="#DejaVuSans-73" x="424.169922"/>
                    </g>
                </g>
            </g>
            <g id="matplotlib.axis_2">
                <g id="ytick_1">
                    <g id="line2d_1">
                        <defs>
                            <path id="mf390988393" d="M 0 0
L -3.5 0 
" style="stroke: #000000; stroke-width: 0.8"/>
                        </defs>
                        <g>
                            <use xlink:href="#mf390988393" x="39.94" y="304.302889"
                                 style="stroke: #000000; stroke-width: 0.8"/>
                        </g>
                    </g>
                    <g id="text_2">
                        <!-- 0.50 -->
                        <g transform="translate(10.674375 308.102107)scale(0.1 -0.1)">
                            <defs>
                                <path id="DejaVuSans-30" d="M 2034 4250
Q 1547 4250 1301 3770 
Q 1056 3291 1056 2328 
Q 1056 1369 1301 889 
Q 1547 409 2034 409 
Q 2525 409 2770 889 
Q 3016 1369 3016 2328 
Q 3016 3291 2770 3770 
Q 2525 4250 2034 4250 
z
M 2034 4750 
Q 2819 4750 3233 4129 
Q 3647 3509 3647 2328 
Q 3647 1150 3233 529 
Q 2819 -91 2034 -91 
Q 1250 -91 836 529 
Q 422 1150 422 2328 
Q 422 3509 836 4129 
Q 1250 4750 2034 4750 
z
" transform="scale(0.015625)"/>
                                <path id="DejaVuSans-2e" d="M 684 794
L 1344 794 
L 1344 0 
L 684 0 
L 684 794 
z
" transform="scale(0.015625)"/>
                                <path id="DejaVuSans-35" d="M 691 4666
L 3169 4666 
L 3169 4134 
L 1269 4134 
L 1269 2991 
Q 1406 3038 1543 3061 
Q 1681 3084 1819 3084 
Q 2600 3084 3056 2656 
Q 3513 2228 3513 1497 
Q 3513 744 3044 326 
Q 2575 -91 1722 -91 
Q 1428 -91 1123 -41 
Q 819 9 494 109 
L 494 744 
Q 775 591 1075 516 
Q 1375 441 1709 441 
Q 2250 441 2565 725 
Q 2881 1009 2881 1497 
Q 2881 1984 2565 2268 
Q 2250 2553 1709 2553 
Q 1456 2553 1204 2497 
Q 953 2441 691 2322 
L 691 4666 
z
" transform="scale(0.015625)"/>
                            </defs>
                            <use xlink:href="#DejaVuSans-30"/>
                            <use xlink:href="#DejaVuSans-2e" x="63.623047"/>
                            <use xlink:href="#DejaVuSans-35" x="95.410156"/>
                            <use xlink:href="#DejaVuSans-30" x="159.033203"/>
                        </g>
                    </g>
                </g>
                <g id="ytick_2">
                    <g id="line2d_2">
                        <g>
                            <use xlink:href="#mf390988393" x="39.94" y="268.316717"
                                 style="stroke: #000000; stroke-width: 0.8"/>
                        </g>
                    </g>
                    <g id="text_3">
                        <!-- 0.55 -->
                        <g transform="translate(10.674375 272.115936)scale(0.1 -0.1)">
                            <use xlink:href="#DejaVuSans-30"/>
                            <use xlink:href="#DejaVuSans-2e" x="63.623047"/>
                            <use xlink:href="#DejaVuSans-35" x="95.410156"/>
                            <use xlink:href="#DejaVuSans-35" x="159.033203"/>
                        </g>
                    </g>
                </g>
                <g id="ytick_3">
                    <g id="line2d_3">
                        <g>
                            <use xlink:href="#mf390988393" x="39.94" y="232.330546"
                                 style="stroke: #000000; stroke-width: 0.8"/>
                        </g>
                    </g>
                    <g id="text_4">
                        <!-- 0.60 -->
                        <g transform="translate(10.674375 236.129765)scale(0.1 -0.1)">
                            <defs>
                                <path id="DejaVuSans-36" d="M 2113 2584
Q 1688 2584 1439 2293 
Q 1191 2003 1191 1497 
Q 1191 994 1439 701 
Q 1688 409 2113 409 
Q 2538 409 2786 701 
Q 3034 994 3034 1497 
Q 3034 2003 2786 2293 
Q 2538 2584 2113 2584 
z
M 3366 4563 
L 3366 3988 
Q 3128 4100 2886 4159 
Q 2644 4219 2406 4219 
Q 1781 4219 1451 3797 
Q 1122 3375 1075 2522 
Q 1259 2794 1537 2939 
Q 1816 3084 2150 3084 
Q 2853 3084 3261 2657 
Q 3669 2231 3669 1497 
Q 3669 778 3244 343 
Q 2819 -91 2113 -91 
Q 1303 -91 875 529 
Q 447 1150 447 2328 
Q 447 3434 972 4092 
Q 1497 4750 2381 4750 
Q 2619 4750 2861 4703 
Q 3103 4656 3366 4563 
z
" transform="scale(0.015625)"/>
                            </defs>
                            <use xlink:href="#DejaVuSans-30"/>
                            <use xlink:href="#DejaVuSans-2e" x="63.623047"/>
                            <use xlink:href="#DejaVuSans-36" x="95.410156"/>
                            <use xlink:href="#DejaVuSans-30" x="159.033203"/>
                        </g>
                    </g>
                </g>
                <g id="ytick_4">
                    <g id="line2d_4">
                        <g>
                            <use xlink:href="#mf390988393" x="39.94" y="196.344375"
                                 style="stroke: #000000; stroke-width: 0.8"/>
                        </g>
                    </g>
                    <g id="text_5">
                        <!-- 0.65 -->
                        <g transform="translate(10.674375 200.143593)scale(0.1 -0.1)">
                            <use xlink:href="#DejaVuSans-30"/>
                            <use xlink:href="#DejaVuSans-2e" x="63.623047"/>
                            <use xlink:href="#DejaVuSans-36" x="95.410156"/>
                            <use xlink:href="#DejaVuSans-35" x="159.033203"/>
                        </g>
                    </g>
                </g>
                <g id="ytick_5">
                    <g id="line2d_5">
                        <g>
                            <use xlink:href="#mf390988393" x="39.94" y="160.358203"
                                 style="stroke: #000000; stroke-width: 0.8"/>
                        </g>
                    </g>
                    <g id="text_6">
                        <!-- 0.70 -->
                        <g transform="translate(10.674375 164.157422)scale(0.1 -0.1)">
                            <defs>
                                <path id="DejaVuSans-37" d="M 525 4666
L 3525 4666 
L 3525 4397 
L 1831 0 
L 1172 0 
L 2766 4134 
L 525 4134 
L 525 4666 
z
" transform="scale(0.015625)"/>
                            </defs>
                            <use xlink:href="#DejaVuSans-30"/>
                            <use xlink:href="#DejaVuSans-2e" x="63.623047"/>
                            <use xlink:href="#DejaVuSans-37" x="95.410156"/>
                            <use xlink:href="#DejaVuSans-30" x="159.033203"/>
                        </g>
                    </g>
                </g>
                <g id="ytick_6">
                    <g id="line2d_6">
                        <g>
                            <use xlink:href="#mf390988393" x="39.94" y="124.372032"
                                 style="stroke: #000000; stroke-width: 0.8"/>
                        </g>
                    </g>
                    <g id="text_7">
                        <!-- 0.75 -->
                        <g transform="translate(10.674375 128.171251)scale(0.1 -0.1)">
                            <use xlink:href="#DejaVuSans-30"/>
                            <use xlink:href="#DejaVuSans-2e" x="63.623047"/>
                            <use xlink:href="#DejaVuSans-37" x="95.410156"/>
                            <use xlink:href="#DejaVuSans-35" x="159.033203"/>
                        </g>
                    </g>
                </g>
                <g id="ytick_7">
                    <g id="line2d_7">
                        <g>
                            <use xlink:href="#mf390988393" x="39.94" y="88.385861"
                                 style="stroke: #000000; stroke-width: 0.8"/>
                        </g>
                    </g>
                    <g id="text_8">
                        <!-- 0.80 -->
                        <g transform="translate(10.674375 92.18508)scale(0.1 -0.1)">
                            <defs>
                                <path id="DejaVuSans-38" d="M 2034 2216
Q 1584 2216 1326 1975 
Q 1069 1734 1069 1313 
Q 1069 891 1326 650 
Q 1584 409 2034 409 
Q 2484 409 2743 651 
Q 3003 894 3003 1313 
Q 3003 1734 2745 1975 
Q 2488 2216 2034 2216 
z
M 1403 2484 
Q 997 2584 770 2862 
Q 544 3141 544 3541 
Q 544 4100 942 4425 
Q 1341 4750 2034 4750 
Q 2731 4750 3128 4425 
Q 3525 4100 3525 3541 
Q 3525 3141 3298 2862 
Q 3072 2584 2669 2484 
Q 3125 2378 3379 2068 
Q 3634 1759 3634 1313 
Q 3634 634 3220 271 
Q 2806 -91 2034 -91 
Q 1263 -91 848 271 
Q 434 634 434 1313 
Q 434 1759 690 2068 
Q 947 2378 1403 2484 
z
M 1172 3481 
Q 1172 3119 1398 2916 
Q 1625 2713 2034 2713 
Q 2441 2713 2670 2916 
Q 2900 3119 2900 3481 
Q 2900 3844 2670 4047 
Q 2441 4250 2034 4250 
Q 1625 4250 1398 4047 
Q 1172 3844 1172 3481 
z
" transform="scale(0.015625)"/>
                            </defs>
                            <use xlink:href="#DejaVuSans-30"/>
                            <use xlink:href="#DejaVuSans-2e" x="63.623047"/>
                            <use xlink:href="#DejaVuSans-38" x="95.410156"/>
                            <use xlink:href="#DejaVuSans-30" x="159.033203"/>
                        </g>
                    </g>
                </g>
                <g id="ytick_8">
                    <g id="line2d_8">
                        <g>
                            <use xlink:href="#mf390988393" x="39.94" y="52.39969"
                                 style="stroke: #000000; stroke-width: 0.8"/>
                        </g>
                    </g>
                    <g id="text_9">
                        <!-- 0.85 -->
                        <g transform="translate(10.674375 56.198908)scale(0.1 -0.1)">
                            <use xlink:href="#DejaVuSans-30"/>
                            <use xlink:href="#DejaVuSans-2e" x="63.623047"/>
                            <use xlink:href="#DejaVuSans-38" x="95.410156"/>
                            <use xlink:href="#DejaVuSans-35" x="159.033203"/>
                        </g>
                    </g>
                </g>
            </g>
            <g id="line2d_9">
                <path d="M 53.602273 307.253755
L 53.733449 307.363636 
L 53.864626 307.189596 
L 54.126979 306.187065 
L 55.24198 300.621925 
L 55.373157 300.663434 
L 55.569922 301.118005 
L 55.832275 302.380131 
L 56.42257 305.766263 
L 56.488158 305.79431 
L 56.619335 305.406082 
L 56.8161 303.583081 
L 57.406394 297.251758 
L 57.471983 297.274878 
L 57.603159 297.922574 
L 58.259042 303.538288 
L 58.324631 303.526215 
L 58.455807 303.104533 
L 58.718161 301.189684 
L 59.308455 296.753442 
L 59.50522 296.409981 
L 59.636397 296.698508 
L 59.833162 298.01494 
L 60.423456 302.702322 
L 60.489045 302.688379 
L 60.620221 302.160254 
L 61.341693 297.295495 
L 61.407281 297.384951 
L 61.669634 298.42185 
L 61.997576 299.576266 
L 62.128752 299.492917 
L 62.325517 298.811397 
L 63.243754 294.438894 
L 63.37493 294.507472 
L 63.571695 295.257022 
L 63.965225 298.393984 
L 64.358755 300.876087 
L 64.55552 301.104679 
L 64.686696 300.938827 
L 64.949049 300.077261 
L 66.195227 294.97597 
L 66.391992 294.929916 
L 66.588757 295.288798 
L 66.916699 296.646182 
L 67.441405 298.676748 
L 67.63817 298.850456 
L 67.769347 298.760689 
L 67.966112 298.321484 
L 68.294053 296.868792 
L 68.687583 295.22791 
L 68.818759 295.089007 
L 68.949936 295.272939 
L 69.277878 296.568066 
L 69.605819 297.634971 
L 69.736996 297.655791 
L 69.999349 297.264901 
L 70.261702 297.013579 
L 70.392879 297.207099 
L 70.72082 298.536022 
L 70.983174 299.331362 
L 71.11435 299.250935 
L 71.311115 298.335587 
L 71.835822 295.204593 
L 71.966998 295.2349 
L 72.163763 295.987035 
L 72.557293 297.469071 
L 72.622881 297.410077 
L 72.819646 296.419581 
L 73.344353 293.104298 
L 73.409941 293.19199 
L 73.606706 294.510355 
L 74.262589 300.668224 
L 74.393765 300.648536 
L 74.59053 299.930665 
L 75.180825 297.344079 
L 75.443178 297.085332 
L 75.77112 297.137933 
L 76.361415 297.477086 
L 76.820533 297.756089 
L 77.017298 297.607924 
L 77.214063 297.119679 
L 77.869946 294.88435 
L 78.001122 295.156424 
L 78.263475 296.715479 
L 78.657005 298.814057 
L 78.722594 298.830417 
L 78.85377 298.432618 
L 79.181712 296.00265 
L 79.509653 294.002466 
L 79.64083 293.920621 
L 79.772006 294.208779 
L 80.690243 297.335766 
L 81.083773 297.822368 
L 81.739656 298.908263 
L 81.93642 298.727681 
L 82.264362 297.875868 
L 82.985833 295.899036 
L 83.313775 295.504207 
L 83.576128 295.465148 
L 83.90407 295.701678 
L 84.363188 296.403848 
L 84.953483 297.765556 
L 85.412601 298.687558 
L 85.609366 298.749465 
L 85.80613 298.474857 
L 86.068484 297.421821 
L 86.330837 295.378318 
L 86.330837 295.378318 
" clip-path="url(#p2aefdaf50d)" style="fill: none; stroke: #1f77b4; stroke-width: 1.5; stroke-linecap: square"/>
            </g>
            <g id="line2d_10">
                <path d="M 87.091966 297.825378
L 87.384826 302.331691 
L 87.60447 303.35368 
L 87.677685 303.347212 
L 87.824115 302.928289 
L 88.116974 301.001802 
L 88.702693 297.068083 
L 88.922338 296.792321 
L 89.068767 296.923896 
L 89.434842 297.758816 
L 89.947346 298.731001 
L 90.16699 298.830991 
L 90.386635 298.676121 
L 90.752709 298.052119 
L 91.338428 297.04082 
L 91.558072 297.005908 
L 91.777717 297.326618 
L 92.363436 298.49323 
L 92.509865 298.352538 
L 92.802725 297.498125 
L 93.168799 296.608019 
L 93.315229 296.667892 
L 93.608088 297.307264 
L 93.900948 297.819774 
L 94.047377 297.733645 
L 94.267022 297.154006 
L 95.072385 294.398859 
L 95.218815 294.308621 
L 95.365245 294.434683 
L 95.584889 295.086841 
L 96.097393 297.875221 
L 96.536682 299.679441 
L 96.756327 300.01192 
L 96.902757 300.003673 
L 97.122401 299.634423 
L 97.488475 298.317722 
L 98.293839 294.341427 
L 98.659913 290.652283 
L 99.245632 284.528485 
L 99.392061 284.296632 
L 99.538491 284.628403 
L 99.97778 286.064862 
L 100.050995 285.982537 
L 100.197425 285.331354 
L 100.563499 281.997968 
L 101.002788 278.281884 
L 101.295648 277.201058 
L 101.515292 277.012116 
L 101.734937 277.228938 
L 102.174226 277.823118 
L 102.320656 277.736242 
L 102.5403 277.133664 
L 103.492093 273.720638 
L 103.638523 273.706149 
L 103.784953 273.888376 
L 104.077812 274.7934 
L 104.443886 275.867851 
L 104.590316 275.883495 
L 104.736746 275.508337 
L 105.029605 273.846576 
L 105.834968 268.48895 
L 106.054613 268.019892 
L 106.201043 268.140744 
L 106.786762 269.46351 
L 106.933191 269.031974 
L 107.226051 266.851876 
L 107.592125 264.221692 
L 107.738555 263.998804 
L 107.884984 264.339135 
L 108.690348 267.432046 
L 108.909992 267.138756 
L 109.642141 265.290767 
L 110.008215 263.917105 
L 110.447504 261.332626 
L 111.472512 254.447409 
L 111.618942 254.346511 
L 111.838586 254.62019 
L 112.204661 255.075359 
L 112.35109 254.891459 
L 112.64395 253.903193 
L 113.522528 250.506911 
L 113.888602 249.930358 
L 114.620751 249.235969 
L 114.91361 248.3148 
L 115.20647 246.593382 
L 115.645759 242.332313 
L 116.304692 236.358795 
L 116.670767 233.007732 
L 117.036841 227.123983 
L 117.549345 218.821176 
L 117.842204 217.176475 
L 118.208278 216.123183 
L 118.427923 214.341306 
L 119.74579 199.933651 
L 120.258294 195.99054 
L 120.844013 189.540556 
L 121.283302 185.39616 
L 121.502947 184.772824 
L 121.795806 184.517773 
L 121.942236 183.878365 
L 122.16188 181.334119 
L 122.527955 172.769459 
L 123.113674 159.079441 
L 123.333318 157.732256 
L 123.479748 158.912829 
L 123.626178 162.157512 
L 123.626178 162.157512 
" clip-path="url(#p2aefdaf50d)" style="fill: none; stroke: #ff7f0e; stroke-width: 1.5; stroke-linecap: square"/>
            </g>
            <g id="line2d_11">
                <path d="M 124.387307 276.017758
L 124.829647 271.010111 
L 125.935496 257.98812 
L 126.245134 256.554531 
L 126.510538 256.180905 
L 126.687474 256.238808 
L 126.997111 256.413062 
L 127.129813 256.179271 
L 127.306749 255.245299 
L 127.527919 252.641768 
L 128.456832 239.225268 
L 128.5453 239.145609 
L 128.589534 239.183133 
L 128.722236 239.557948 
L 129.031874 241.456696 
L 129.474214 244.105608 
L 129.606916 244.226521 
L 129.739618 243.789892 
L 129.960788 241.784715 
L 130.845467 232.180586 
L 131.155105 231.236229 
L 131.818614 229.997455 
L 132.084018 228.36437 
L 132.614826 222.831614 
L 133.1014 218.881828 
L 134.207249 212.245301 
L 134.649589 205.656494 
L 135.00346 201.924177 
L 135.091928 201.791982 
L 135.136162 201.86816 
L 135.313098 202.808862 
L 135.66697 204.876121 
L 135.755438 204.788446 
L 135.88814 203.784626 
L 136.153544 199.174771 
L 136.817053 186.721716 
L 137.126691 184.619494 
L 137.436329 183.836036 
L 137.834435 183.011172 
L 138.099839 181.646141 
L 138.497944 177.812962 
L 138.984518 173.737631 
L 139.78073 169.692178 
L 140.621175 162.762959 
L 140.975047 160.788352 
L 141.240451 157.700276 
L 142.12513 145.167118 
L 142.434768 144.278853 
L 142.700172 143.552264 
L 143.00981 141.647253 
L 143.717553 135.20356 
L 144.381063 130.140773 
L 146.46006 118.902134 
L 146.46006 118.902134 
" clip-path="url(#p2aefdaf50d)" style="fill: none; stroke: #2ca02c; stroke-width: 1.5; stroke-linecap: square"/>
            </g>
            <g id="line2d_12">
                <path d="M 147.221189 254.641972
L 147.796231 248.941609 
L 148.857846 238.294512 
L 149.477122 233.157623 
L 149.919461 226.706924 
L 150.715673 215.341975 
L 152.5735 194.568588 
L 153.458179 186.816703 
L 154.608262 175.411047 
L 155.006368 173.66136 
L 155.271772 172.485176 
L 155.492942 170.308868 
L 155.758346 165.160669 
L 156.377621 152.489462 
L 156.466089 152.176916 
L 156.510323 152.196552 
L 156.643025 152.793625 
L 157.173833 156.642785 
L 157.218067 156.621934 
L 157.350769 156.114075 
L 157.616173 153.568009 
L 159.164362 135.147284 
L 160.137509 127.919171 
L 160.801019 125.098806 
L 161.066423 121.405813 
L 161.729932 111.005043 
L 161.862634 110.806792 
L 161.995336 111.176507 
L 162.393442 112.524992 
L 162.48191 112.273125 
L 162.658846 110.834325 
L 164.074333 93.639756 
L 164.60514 84.486081 
L 164.693608 84.215793 
L 164.737842 84.326287 
L 164.870544 85.598885 
L 165.445586 93.457551 
L 165.48982 93.269765 
L 165.622522 91.435526 
L 165.93216 82.676748 
L 166.330265 73.035811 
L 166.507201 72.273207 
L 166.639903 72.73267 
L 167.126477 75.315976 
L 167.259179 75.010073 
L 167.480349 73.624794 
L 168.49773 66.075431 
L 168.674666 65.932587 
L 168.807368 66.229685 
L 169.028538 67.625915 
L 169.293942 71.040526 
L 169.293942 71.040526 
" clip-path="url(#p2aefdaf50d)" style="fill: none; stroke: #d62728; stroke-width: 1.5; stroke-linecap: square"/>
            </g>
            <g id="line2d_13">
                <path d="M 170.055071 256.513253
L 170.158792 256.607613 
L 170.262513 256.263688 
L 170.469955 254.455764 
L 170.832979 248.71382 
L 171.870189 230.934446 
L 172.336934 227.51683 
L 172.95926 223.579693 
L 173.322284 219.067407 
L 174.100191 208.863116 
L 174.670657 203.472295 
L 175.552286 192.145617 
L 175.811589 191.666353 
L 176.070891 191.383569 
L 176.226473 190.781086 
L 176.485775 188.652206 
L 176.848799 183.419551 
L 177.782288 167.919406 
L 177.98973 167.535321 
L 178.197173 167.771699 
L 178.352754 167.865994 
L 178.456475 167.698915 
L 178.663917 166.650504 
L 179.182522 162.06682 
L 179.96043 154.514285 
L 180.94578 140.528817 
L 181.619967 137.460554 
L 182.034851 132.342265 
L 182.812759 122.611293 
L 182.96834 122.192049 
L 183.072061 122.434827 
L 183.331364 124.192724 
L 183.642527 125.728184 
L 183.746248 125.434904 
L 183.95369 123.101634 
L 184.627877 113.396699 
L 184.731598 113.305634 
L 184.88718 113.710196 
L 185.198343 114.672348 
L 185.302064 114.506994 
L 185.457645 113.497459 
L 185.768809 109.615806 
L 186.494856 100.251082 
L 186.9616 96.976966 
L 187.791369 92.340526 
L 188.465556 87.778161 
L 189.450905 83.619229 
L 190.073232 78.369508 
L 191.214163 68.268234 
L 191.317884 68.122474 
L 191.369745 68.166544 
L 191.525326 68.751185 
L 192.147653 72.120744 
L 192.251374 71.911874 
L 192.458816 70.559864 
L 192.821839 66.075338 
L 193.496026 57.375423 
L 193.651608 57.007657 
L 193.755329 57.370844 
L 194.014631 59.705686 
L 194.429515 63.329396 
L 194.533236 63.42331 
L 194.636957 63.108422 
L 194.8444 61.404822 
L 195.207423 55.773869 
L 195.93347 40.236364 
L 195.93347 40.236364 
" clip-path="url(#p2aefdaf50d)" style="fill: none; stroke: #9467bd; stroke-width: 1.5; stroke-linecap: square"/>
            </g>
            <g id="line2d_14">
                <path d="M 196.6946 248.380378
L 197.495387 244.552963 
L 198.029246 240.755854 
L 199.203734 231.292491 
L 199.524049 230.302869 
L 199.737592 228.6053 
L 200.111293 222.757054 
L 200.53838 217.278925 
L 200.698537 216.960558 
L 200.858695 217.286126 
L 201.125624 217.910915 
L 201.232395 217.760431 
L 201.392553 216.728266 
L 201.766254 212.019077 
L 202.139955 208.183429 
L 202.406884 207.30536 
L 202.727199 206.487654 
L 202.940742 205.053035 
L 203.367829 200.205711 
L 204.061844 192.728736 
L 204.488931 190.093912 
L 204.969403 188.548444 
L 205.39649 187.158957 
L 205.716805 185.192543 
L 206.090506 181.056137 
L 207.158223 167.730341 
L 207.531923 165.740618 
L 207.852238 165.099084 
L 208.225939 164.391179 
L 208.59964 162.93843 
L 209.080112 160.083272 
L 209.667357 155.131934 
L 210.468144 148.009367 
L 210.841845 146.752084 
L 211.16216 145.720787 
L 211.535861 143.47578 
L 212.283262 138.914151 
L 212.923892 135.400158 
L 213.244207 132.211674 
L 213.617908 125.841492 
L 214.09838 118.265 
L 214.205152 117.97025 
L 214.311924 118.450347 
L 214.632239 122.262036 
L 214.899168 124.205189 
L 215.005939 123.669406 
L 215.219483 120.134652 
L 215.753341 109.743008 
L 215.860113 109.460861 
L 215.966884 109.856717 
L 216.233814 112.433375 
L 216.554129 114.773767 
L 216.607514 114.768806 
L 216.714286 114.400858 
L 216.927829 112.424885 
L 217.30153 106.133699 
L 217.94216 95.2789 
L 218.102318 94.619991 
L 218.209089 94.814713 
L 218.422633 96.250501 
L 219.063263 101.403735 
L 219.22342 101.560729 
L 219.330192 101.281354 
L 219.543735 99.663235 
L 219.917436 93.949152 
L 220.397908 87.441272 
L 220.664837 86.265954 
L 221.038538 85.072724 
L 221.358853 82.417431 
L 221.839326 78.477564 
L 222.052869 78.139438 
L 222.213026 78.444363 
L 222.533341 79.893321 
L 223.0672 82.20881 
L 223.227357 82.248959 
L 223.334129 81.980322 
L 223.334129 81.980322 
" clip-path="url(#p2aefdaf50d)" style="fill: none; stroke: #8c564b; stroke-width: 1.5; stroke-linecap: square"/>
            </g>
            <g id="line2d_15">
                <path d="M 224.095258 245.645429
L 224.510142 238.219858 
L 224.925027 234.420453 
L 225.495492 229.77157 
L 225.858516 224.31408 
L 226.532703 214.145228 
L 226.843866 212.419865 
L 227.673634 209.306079 
L 228.451542 204.884599 
L 228.918287 200.575028 
L 229.540613 192.223197 
L 230.162939 184.474071 
L 230.474102 183.144782 
L 230.733405 182.306223 
L 230.940847 180.775066 
L 231.355731 174.793938 
L 231.666894 171.903679 
L 231.718755 171.88505 
L 231.822476 172.32636 
L 232.341081 176.779577 
L 232.444802 176.511363 
L 232.600384 174.471487 
L 233.015268 163.887296 
L 233.326431 158.093632 
L 233.533873 157.258758 
L 233.637594 157.381225 
L 233.948757 157.968489 
L 234.052478 157.707765 
L 234.25992 156.219493 
L 235.089689 149.07257 
L 235.452712 147.046061 
L 235.815736 143.056085 
L 236.23062 138.886693 
L 236.386202 138.489835 
L 236.489923 138.599633 
L 236.904807 139.608866 
L 236.956667 139.567127 
L 237.060388 139.217557 
L 237.26783 137.436472 
L 238.25318 127.009239 
L 239.342251 121.719251 
L 240.586904 111.58658 
L 241.001788 109.042562 
L 241.624114 103.194208 
L 242.142719 98.8363 
L 242.350161 98.314457 
L 242.453882 98.470017 
L 242.713185 99.661154 
L 243.076209 101.065917 
L 243.17993 100.946026 
L 243.387372 99.823622 
L 243.854117 95.173591 
L 244.424582 90.505983 
L 245.617374 82.273314 
L 246.395282 74.999426 
L 246.706445 73.827397 
L 246.913887 73.628983 
L 247.121329 73.790011 
L 247.328771 73.894434 
L 247.484353 73.626256 
L 247.639934 72.820018 
L 247.899237 69.974933 
L 248.365982 65.157214 
L 248.417842 65.094794 
L 248.469703 65.192577 
L 248.625284 66.390171 
L 249.092029 73.452313 
L 249.351332 75.62779 
L 249.403192 75.610799 
L 249.506913 74.963523 
L 249.662495 72.157112 
L 249.869937 64.142631 
L 249.973658 57.94156 
L 249.973658 57.94156 
" clip-path="url(#p2aefdaf50d)" style="fill: none; stroke: #e377c2; stroke-width: 1.5; stroke-linecap: square"/>
            </g>
            <g id="line2d_16">
                <path d="M 250.734787 234.057882
L 251.161874 226.176335 
L 251.588961 222.1857 
L 252.976992 213.045659 
L 253.77778 205.143929 
L 254.578567 196.221472 
L 254.79211 195.676221 
L 255.112425 195.299064 
L 255.272583 194.600801 
L 255.539512 191.875409 
L 256.660614 178.023335 
L 257.461402 170.290916 
L 258.262189 162.516072 
L 258.475733 161.885177 
L 258.849433 161.549943 
L 259.009591 160.794959 
L 259.223134 158.419013 
L 259.863764 149.647057 
L 259.91715 149.578822 
L 259.970536 149.669483 
L 260.130693 150.630081 
L 260.55778 153.581311 
L 260.611166 153.513451 
L 260.771323 152.234154 
L 261.091638 146.300932 
L 261.732268 134.216758 
L 262.372898 127.571848 
L 263.013528 122.544495 
L 263.387229 121.11911 
L 263.600772 120.937068 
L 263.76093 121.122214 
L 264.081245 121.55727 
L 264.188016 121.393519 
L 264.348174 120.548124 
L 264.561717 117.891624 
L 265.41589 104.452905 
L 265.576048 104.224307 
L 265.736205 104.721155 
L 266.003135 106.730952 
L 266.483607 110.522941 
L 266.536993 110.598062 
L 266.590379 110.548857 
L 266.69715 110.017378 
L 266.910694 107.084674 
L 267.764867 92.504791 
L 267.97841 91.918104 
L 268.191954 91.902837 
L 268.405497 91.845542 
L 268.565654 91.54409 
L 268.779198 90.59145 
L 269.046127 88.157457 
L 269.740143 80.298937 
L 269.793528 80.231809 
L 269.846914 80.296132 
L 270.007072 81.078958 
L 270.487544 84.018366 
L 270.594316 83.770503 
L 270.807859 81.920353 
L 271.608647 73.464375 
L 272.142505 70.683003 
L 272.889907 65.03431 
L 273.050064 64.910517 
L 273.316993 65.189234 
L 273.477151 65.253684 
L 273.583922 65.104696 
L 273.797466 64.156949 
L 274.117781 61.213816 
L 274.598253 54.132312 
L 275.02534 49.233135 
L 275.132111 48.983923 
L 275.185497 49.049925 
L 275.345655 49.816001 
L 275.879513 53.139561 
L 275.986285 52.949633 
L 276.199828 51.506875 
L 276.626915 46.239826 
L 277.107387 40.98947 
L 277.32093 40.404848 
L 277.374316 40.524253 
L 277.374316 40.524253 
" clip-path="url(#p2aefdaf50d)" style="fill: none; stroke: #7f7f7f; stroke-width: 1.5; stroke-linecap: square"/>
            </g>
            <g id="line2d_17">
                <path d="M 278.135446 232.834352
L 278.525925 221.122733 
L 278.867594 216.394133 
L 279.746172 208.204766 
L 280.380701 194.514614 
L 280.81999 187.713573 
L 281.16166 185.385016 
L 281.356899 185.125732 
L 281.649759 185.040615 
L 281.796188 184.563615 
L 281.991428 182.888413 
L 282.333097 177.070813 
L 282.967626 166.539365 
L 283.309295 164.20706 
L 283.602155 163.527558 
L 283.895014 163.053193 
L 284.090254 162.126758 
L 284.334303 159.536601 
L 285.359311 145.797896 
L 285.74979 142.689431 
L 286.189079 136.009336 
L 286.579559 131.432328 
L 286.774798 130.840347 
L 286.921228 130.856133 
L 287.214087 131.001083 
L 287.360517 130.653409 
L 287.653376 129.024316 
L 288.141475 126.471609 
L 288.531955 125.300644 
L 288.727194 123.684159 
L 289.020054 118.744826 
L 289.556963 109.732495 
L 289.654582 109.402469 
L 289.703392 109.418363 
L 289.849822 109.970999 
L 290.240301 111.940341 
L 290.337921 111.756369 
L 290.533161 110.084685 
L 291.118879 103.977647 
L 291.216499 104.069736 
L 291.460549 105.298582 
L 291.704598 106.087901 
L 291.802218 105.758045 
L 291.997458 103.394106 
L 292.876036 88.801744 
L 293.071276 88.497641 
L 293.364135 88.374288 
L 293.608184 87.525137 
L 293.949854 86.538352 
L 294.047474 86.662957 
L 294.193903 87.431715 
L 294.682002 91.056517 
L 294.730812 91.031441 
L 294.828432 90.526005 
L 295.023672 87.351878 
L 295.85344 69.074513 
L 295.95106 69.010775 
L 296.097489 69.595489 
L 296.829638 73.76769 
L 296.927258 73.622396 
L 297.073687 72.899685 
L 297.317737 70.214876 
L 297.854646 63.656423 
L 297.952266 63.493205 
L 298.049885 63.84752 
L 298.293935 66.112168 
L 298.635604 69.021945 
L 298.684414 69.097082 
L 298.733224 69.037569 
L 298.879654 68.170308 
L 299.611802 61.507765 
L 299.660612 61.513955 
L 300.002282 61.849151 
L 300.051091 61.763754 
L 300.197521 60.986847 
L 300.441571 57.606157 
L 301.173719 45.945104 
L 301.368959 45.384968 
L 301.466579 45.47298 
L 301.661818 46.191191 
L 302.491586 50.672353 
L 302.491586 50.672353 
" clip-path="url(#p2aefdaf50d)" style="fill: none; stroke: #bcbd22; stroke-width: 1.5; stroke-linecap: square"/>
            </g>
            <g id="line2d_18">
                <path d="M 303.252716 250.035742
L 303.678277 234.658875 
L 304.103839 226.50551 
L 304.576684 221.786583 
L 305.096815 216.697672 
L 305.569661 209.640737 
L 306.562637 193.397908 
L 307.224622 185.897542 
L 307.886606 177.327555 
L 308.170313 176.426479 
L 308.406736 175.68837 
L 308.595875 174.147045 
L 308.974152 168.086849 
L 309.305144 164.026522 
L 309.399713 163.829735 
L 309.446997 163.919446 
L 309.636136 165.061451 
L 309.967128 166.907047 
L 310.061697 166.596307 
L 310.203551 164.878488 
L 310.534543 156.670337 
L 311.007389 145.428275 
L 311.291097 143.021066 
L 311.480235 142.63257 
L 311.669373 142.67858 
L 311.905796 142.735687 
L 312.04765 142.543639 
L 312.236788 141.769786 
L 312.473211 139.57638 
L 313.371619 128.911122 
L 313.608042 128.545663 
L 313.844464 128.33309 
L 314.033603 127.709239 
L 314.364595 125.514425 
L 315.404856 117.930409 
L 316.208694 114.288916 
L 316.586971 109.574697 
L 317.627232 95.052489 
L 317.863655 94.232089 
L 318.005509 94.311095 
L 318.43107 94.97259 
L 318.478354 94.931275 
L 318.620208 94.542175 
L 318.9512 92.686186 
L 319.424046 90.376817 
L 319.707754 89.266188 
L 319.944177 87.271595 
L 320.275169 81.756476 
L 320.70073 75.139307 
L 320.842584 74.620707 
L 320.937153 74.859885 
L 321.173576 76.624292 
L 321.504568 78.863796 
L 321.599138 78.823409 
L 321.740991 78.071721 
L 322.024699 74.878207 
L 322.686683 66.871447 
L 322.923106 65.99732 
L 323.017675 66.132382 
L 323.206814 67.262422 
L 323.632375 69.873056 
L 323.726944 69.596707 
L 323.868798 68.063088 
L 324.247075 59.85489 
L 324.530782 55.659073 
L 324.578067 55.561478 
L 324.625351 55.684412 
L 324.767205 57.123282 
L 325.381905 65.901768 
L 325.476474 65.386642 
L 325.665612 62.58012 
L 326.56402 44.223022 
L 326.611304 44.227019 
L 326.705873 44.856114 
L 326.847727 47.577543 
L 326.847727 47.577543 
" clip-path="url(#p2aefdaf50d)" style="fill: none; stroke: #17becf; stroke-width: 1.5; stroke-linecap: square"/>
            </g>
            <g id="patch_3">
                <path d="M 39.94 320.72
L 39.94 26.88 
" style="fill: none; stroke: #000000; stroke-width: 0.8; stroke-linejoin: miter; stroke-linecap: square"/>
            </g>
            <g id="patch_4">
                <path d="M 340.51 320.72
L 340.51 26.88 
" style="fill: none; stroke: #000000; stroke-width: 0.8; stroke-linejoin: miter; stroke-linecap: square"/>
            </g>
            <g id="patch_5">
                <path d="M 39.94 320.72
L 340.51 320.72 
" style="fill: none; stroke: #000000; stroke-width: 0.8; stroke-linejoin: miter; stroke-linecap: square"/>
            </g>
            <g id="patch_6">
                <path d="M 39.94 26.88
L 340.51 26.88 
" style="fill: none; stroke: #000000; stroke-width: 0.8; stroke-linejoin: miter; stroke-linecap: square"/>
            </g>
            <g id="text_10">
                <!-- Train acc Curve -->
                <g transform="translate(144.041875 20.88)scale(0.12 -0.12)">
                    <defs>
                        <path id="DejaVuSans-54" d="M -19 4666
L 3928 4666 
L 3928 4134 
L 2272 4134 
L 2272 0 
L 1638 0 
L 1638 4134 
L -19 4134 
L -19 4666 
z
" transform="scale(0.015625)"/>
                        <path id="DejaVuSans-20" transform="scale(0.015625)"/>
                        <path id="DejaVuSans-63" d="M 3122 3366
L 3122 2828 
Q 2878 2963 2633 3030 
Q 2388 3097 2138 3097 
Q 1578 3097 1268 2742 
Q 959 2388 959 1747 
Q 959 1106 1268 751 
Q 1578 397 2138 397 
Q 2388 397 2633 464 
Q 2878 531 3122 666 
L 3122 134 
Q 2881 22 2623 -34 
Q 2366 -91 2075 -91 
Q 1284 -91 818 406 
Q 353 903 353 1747 
Q 353 2603 823 3093 
Q 1294 3584 2113 3584 
Q 2378 3584 2631 3529 
Q 2884 3475 3122 3366 
z
" transform="scale(0.015625)"/>
                        <path id="DejaVuSans-43" d="M 4122 4306
L 4122 3641 
Q 3803 3938 3442 4084 
Q 3081 4231 2675 4231 
Q 1875 4231 1450 3742 
Q 1025 3253 1025 2328 
Q 1025 1406 1450 917 
Q 1875 428 2675 428 
Q 3081 428 3442 575 
Q 3803 722 4122 1019 
L 4122 359 
Q 3791 134 3420 21 
Q 3050 -91 2638 -91 
Q 1578 -91 968 557 
Q 359 1206 359 2328 
Q 359 3453 968 4101 
Q 1578 4750 2638 4750 
Q 3056 4750 3426 4639 
Q 3797 4528 4122 4306 
z
" transform="scale(0.015625)"/>
                        <path id="DejaVuSans-75" d="M 544 1381
L 544 3500 
L 1119 3500 
L 1119 1403 
Q 1119 906 1312 657 
Q 1506 409 1894 409 
Q 2359 409 2629 706 
Q 2900 1003 2900 1516 
L 2900 3500 
L 3475 3500 
L 3475 0 
L 2900 0 
L 2900 538 
Q 2691 219 2414 64 
Q 2138 -91 1772 -91 
Q 1169 -91 856 284 
Q 544 659 544 1381 
z
M 1991 3584 
L 1991 3584 
z
" transform="scale(0.015625)"/>
                        <path id="DejaVuSans-76" d="M 191 3500
L 800 3500 
L 1894 563 
L 2988 3500 
L 3597 3500 
L 2284 0 
L 1503 0 
L 191 3500 
z
" transform="scale(0.015625)"/>
                    </defs>
                    <use xlink:href="#DejaVuSans-54"/>
                    <use xlink:href="#DejaVuSans-72" x="46.333984"/>
                    <use xlink:href="#DejaVuSans-61" x="87.447266"/>
                    <use xlink:href="#DejaVuSans-69" x="148.726562"/>
                    <use xlink:href="#DejaVuSans-6e" x="176.509766"/>
                    <use xlink:href="#DejaVuSans-20" x="239.888672"/>
                    <use xlink:href="#DejaVuSans-61" x="271.675781"/>
                    <use xlink:href="#DejaVuSans-63" x="332.955078"/>
                    <use xlink:href="#DejaVuSans-63" x="387.935547"/>
                    <use xlink:href="#DejaVuSans-20" x="442.916016"/>
                    <use xlink:href="#DejaVuSans-43" x="474.703125"/>
                    <use xlink:href="#DejaVuSans-75" x="544.527344"/>
                    <use xlink:href="#DejaVuSans-72" x="607.90625"/>
                    <use xlink:href="#DejaVuSans-76" x="649.019531"/>
                    <use xlink:href="#DejaVuSans-65" x="708.199219"/>
                </g>
            </g>
            <g id="legend_1">
                <g id="patch_7">
                    <path d="M 349.51 250.690625
L 449.899062 250.690625 
Q 451.899062 250.690625 451.899062 248.690625 
L 451.899062 102.909375 
Q 451.899062 100.909375 449.899062 100.909375 
L 349.51 100.909375 
Q 347.51 100.909375 347.51 102.909375 
L 347.51 248.690625 
Q 347.51 250.690625 349.51 250.690625 
z
" style="fill: #4c4c4c; opacity: 0.5; stroke: #4c4c4c; stroke-linejoin: miter"/>
                </g>
                <g id="patch_8">
                    <path d="M 347.51 248.690625
L 447.899062 248.690625 
Q 449.899062 248.690625 449.899062 246.690625 
L 449.899062 100.909375 
Q 449.899062 98.909375 447.899062 98.909375 
L 347.51 98.909375 
Q 345.51 98.909375 345.51 100.909375 
L 345.51 246.690625 
Q 345.51 248.690625 347.51 248.690625 
z
" style="fill: #ffffff; stroke: #cccccc; stroke-linejoin: miter"/>
                </g>
                <g id="line2d_19">
                    <path d="M 349.51 107.007812
L 359.51 107.007812 
L 369.51 107.007812 
" style="fill: none; stroke: #1f77b4; stroke-width: 1.5; stroke-linecap: square"/>
                </g>
                <g id="text_11">
                    <!-- No.0 iteration -->
                    <g transform="translate(377.51 110.507812)scale(0.1 -0.1)">
                        <defs>
                            <path id="DejaVuSans-4e" d="M 628 4666
L 1478 4666 
L 3547 763 
L 3547 4666 
L 4159 4666 
L 4159 0 
L 3309 0 
L 1241 3903 
L 1241 0 
L 628 0 
L 628 4666 
z
" transform="scale(0.015625)"/>
                        </defs>
                        <use xlink:href="#DejaVuSans-4e"/>
                        <use xlink:href="#DejaVuSans-6f" x="74.804688"/>
                        <use xlink:href="#DejaVuSans-2e" x="134.236328"/>
                        <use xlink:href="#DejaVuSans-30" x="166.023438"/>
                        <use xlink:href="#DejaVuSans-20" x="229.646484"/>
                        <use xlink:href="#DejaVuSans-69" x="261.433594"/>
                        <use xlink:href="#DejaVuSans-74" x="289.216797"/>
                        <use xlink:href="#DejaVuSans-65" x="328.425781"/>
                        <use xlink:href="#DejaVuSans-72" x="389.949219"/>
                        <use xlink:href="#DejaVuSans-61" x="431.0625"/>
                        <use xlink:href="#DejaVuSans-74" x="492.341797"/>
                        <use xlink:href="#DejaVuSans-69" x="531.550781"/>
                        <use xlink:href="#DejaVuSans-6f" x="559.333984"/>
                        <use xlink:href="#DejaVuSans-6e" x="620.515625"/>
                    </g>
                </g>
                <g id="line2d_20">
                    <path d="M 349.51 121.685938
L 359.51 121.685938 
L 369.51 121.685938 
" style="fill: none; stroke: #ff7f0e; stroke-width: 1.5; stroke-linecap: square"/>
                </g>
                <g id="text_12">
                    <!-- No.1 iteration -->
                    <g transform="translate(377.51 125.185938)scale(0.1 -0.1)">
                        <defs>
                            <path id="DejaVuSans-31" d="M 794 531
L 1825 531 
L 1825 4091 
L 703 3866 
L 703 4441 
L 1819 4666 
L 2450 4666 
L 2450 531 
L 3481 531 
L 3481 0 
L 794 0 
L 794 531 
z
" transform="scale(0.015625)"/>
                        </defs>
                        <use xlink:href="#DejaVuSans-4e"/>
                        <use xlink:href="#DejaVuSans-6f" x="74.804688"/>
                        <use xlink:href="#DejaVuSans-2e" x="134.236328"/>
                        <use xlink:href="#DejaVuSans-31" x="166.023438"/>
                        <use xlink:href="#DejaVuSans-20" x="229.646484"/>
                        <use xlink:href="#DejaVuSans-69" x="261.433594"/>
                        <use xlink:href="#DejaVuSans-74" x="289.216797"/>
                        <use xlink:href="#DejaVuSans-65" x="328.425781"/>
                        <use xlink:href="#DejaVuSans-72" x="389.949219"/>
                        <use xlink:href="#DejaVuSans-61" x="431.0625"/>
                        <use xlink:href="#DejaVuSans-74" x="492.341797"/>
                        <use xlink:href="#DejaVuSans-69" x="531.550781"/>
                        <use xlink:href="#DejaVuSans-6f" x="559.333984"/>
                        <use xlink:href="#DejaVuSans-6e" x="620.515625"/>
                    </g>
                </g>
                <g id="line2d_21">
                    <path d="M 349.51 136.364063
L 359.51 136.364063 
L 369.51 136.364063 
" style="fill: none; stroke: #2ca02c; stroke-width: 1.5; stroke-linecap: square"/>
                </g>
                <g id="text_13">
                    <!-- No.2 iteration -->
                    <g transform="translate(377.51 139.864063)scale(0.1 -0.1)">
                        <defs>
                            <path id="DejaVuSans-32" d="M 1228 531
L 3431 531 
L 3431 0 
L 469 0 
L 469 531 
Q 828 903 1448 1529 
Q 2069 2156 2228 2338 
Q 2531 2678 2651 2914 
Q 2772 3150 2772 3378 
Q 2772 3750 2511 3984 
Q 2250 4219 1831 4219 
Q 1534 4219 1204 4116 
Q 875 4013 500 3803 
L 500 4441 
Q 881 4594 1212 4672 
Q 1544 4750 1819 4750 
Q 2544 4750 2975 4387 
Q 3406 4025 3406 3419 
Q 3406 3131 3298 2873 
Q 3191 2616 2906 2266 
Q 2828 2175 2409 1742 
Q 1991 1309 1228 531 
z
" transform="scale(0.015625)"/>
                        </defs>
                        <use xlink:href="#DejaVuSans-4e"/>
                        <use xlink:href="#DejaVuSans-6f" x="74.804688"/>
                        <use xlink:href="#DejaVuSans-2e" x="134.236328"/>
                        <use xlink:href="#DejaVuSans-32" x="166.023438"/>
                        <use xlink:href="#DejaVuSans-20" x="229.646484"/>
                        <use xlink:href="#DejaVuSans-69" x="261.433594"/>
                        <use xlink:href="#DejaVuSans-74" x="289.216797"/>
                        <use xlink:href="#DejaVuSans-65" x="328.425781"/>
                        <use xlink:href="#DejaVuSans-72" x="389.949219"/>
                        <use xlink:href="#DejaVuSans-61" x="431.0625"/>
                        <use xlink:href="#DejaVuSans-74" x="492.341797"/>
                        <use xlink:href="#DejaVuSans-69" x="531.550781"/>
                        <use xlink:href="#DejaVuSans-6f" x="559.333984"/>
                        <use xlink:href="#DejaVuSans-6e" x="620.515625"/>
                    </g>
                </g>
                <g id="line2d_22">
                    <path d="M 349.51 151.042188
L 359.51 151.042188 
L 369.51 151.042188 
" style="fill: none; stroke: #d62728; stroke-width: 1.5; stroke-linecap: square"/>
                </g>
                <g id="text_14">
                    <!-- No.3 iteration -->
                    <g transform="translate(377.51 154.542188)scale(0.1 -0.1)">
                        <defs>
                            <path id="DejaVuSans-33" d="M 2597 2516
Q 3050 2419 3304 2112 
Q 3559 1806 3559 1356 
Q 3559 666 3084 287 
Q 2609 -91 1734 -91 
Q 1441 -91 1130 -33 
Q 819 25 488 141 
L 488 750 
Q 750 597 1062 519 
Q 1375 441 1716 441 
Q 2309 441 2620 675 
Q 2931 909 2931 1356 
Q 2931 1769 2642 2001 
Q 2353 2234 1838 2234 
L 1294 2234 
L 1294 2753 
L 1863 2753 
Q 2328 2753 2575 2939 
Q 2822 3125 2822 3475 
Q 2822 3834 2567 4026 
Q 2313 4219 1838 4219 
Q 1578 4219 1281 4162 
Q 984 4106 628 3988 
L 628 4550 
Q 988 4650 1302 4700 
Q 1616 4750 1894 4750 
Q 2613 4750 3031 4423 
Q 3450 4097 3450 3541 
Q 3450 3153 3228 2886 
Q 3006 2619 2597 2516 
z
" transform="scale(0.015625)"/>
                        </defs>
                        <use xlink:href="#DejaVuSans-4e"/>
                        <use xlink:href="#DejaVuSans-6f" x="74.804688"/>
                        <use xlink:href="#DejaVuSans-2e" x="134.236328"/>
                        <use xlink:href="#DejaVuSans-33" x="166.023438"/>
                        <use xlink:href="#DejaVuSans-20" x="229.646484"/>
                        <use xlink:href="#DejaVuSans-69" x="261.433594"/>
                        <use xlink:href="#DejaVuSans-74" x="289.216797"/>
                        <use xlink:href="#DejaVuSans-65" x="328.425781"/>
                        <use xlink:href="#DejaVuSans-72" x="389.949219"/>
                        <use xlink:href="#DejaVuSans-61" x="431.0625"/>
                        <use xlink:href="#DejaVuSans-74" x="492.341797"/>
                        <use xlink:href="#DejaVuSans-69" x="531.550781"/>
                        <use xlink:href="#DejaVuSans-6f" x="559.333984"/>
                        <use xlink:href="#DejaVuSans-6e" x="620.515625"/>
                    </g>
                </g>
                <g id="line2d_23">
                    <path d="M 349.51 165.720313
L 359.51 165.720313 
L 369.51 165.720313 
" style="fill: none; stroke: #9467bd; stroke-width: 1.5; stroke-linecap: square"/>
                </g>
                <g id="text_15">
                    <!-- No.4 iteration -->
                    <g transform="translate(377.51 169.220313)scale(0.1 -0.1)">
                        <defs>
                            <path id="DejaVuSans-34" d="M 2419 4116
L 825 1625 
L 2419 1625 
L 2419 4116 
z
M 2253 4666 
L 3047 4666 
L 3047 1625 
L 3713 1625 
L 3713 1100 
L 3047 1100 
L 3047 0 
L 2419 0 
L 2419 1100 
L 313 1100 
L 313 1709 
L 2253 4666 
z
" transform="scale(0.015625)"/>
                        </defs>
                        <use xlink:href="#DejaVuSans-4e"/>
                        <use xlink:href="#DejaVuSans-6f" x="74.804688"/>
                        <use xlink:href="#DejaVuSans-2e" x="134.236328"/>
                        <use xlink:href="#DejaVuSans-34" x="166.023438"/>
                        <use xlink:href="#DejaVuSans-20" x="229.646484"/>
                        <use xlink:href="#DejaVuSans-69" x="261.433594"/>
                        <use xlink:href="#DejaVuSans-74" x="289.216797"/>
                        <use xlink:href="#DejaVuSans-65" x="328.425781"/>
                        <use xlink:href="#DejaVuSans-72" x="389.949219"/>
                        <use xlink:href="#DejaVuSans-61" x="431.0625"/>
                        <use xlink:href="#DejaVuSans-74" x="492.341797"/>
                        <use xlink:href="#DejaVuSans-69" x="531.550781"/>
                        <use xlink:href="#DejaVuSans-6f" x="559.333984"/>
                        <use xlink:href="#DejaVuSans-6e" x="620.515625"/>
                    </g>
                </g>
                <g id="line2d_24">
                    <path d="M 349.51 180.398438
L 359.51 180.398438 
L 369.51 180.398438 
" style="fill: none; stroke: #8c564b; stroke-width: 1.5; stroke-linecap: square"/>
                </g>
                <g id="text_16">
                    <!-- No.5 iteration -->
                    <g transform="translate(377.51 183.898438)scale(0.1 -0.1)">
                        <use xlink:href="#DejaVuSans-4e"/>
                        <use xlink:href="#DejaVuSans-6f" x="74.804688"/>
                        <use xlink:href="#DejaVuSans-2e" x="134.236328"/>
                        <use xlink:href="#DejaVuSans-35" x="166.023438"/>
                        <use xlink:href="#DejaVuSans-20" x="229.646484"/>
                        <use xlink:href="#DejaVuSans-69" x="261.433594"/>
                        <use xlink:href="#DejaVuSans-74" x="289.216797"/>
                        <use xlink:href="#DejaVuSans-65" x="328.425781"/>
                        <use xlink:href="#DejaVuSans-72" x="389.949219"/>
                        <use xlink:href="#DejaVuSans-61" x="431.0625"/>
                        <use xlink:href="#DejaVuSans-74" x="492.341797"/>
                        <use xlink:href="#DejaVuSans-69" x="531.550781"/>
                        <use xlink:href="#DejaVuSans-6f" x="559.333984"/>
                        <use xlink:href="#DejaVuSans-6e" x="620.515625"/>
                    </g>
                </g>
                <g id="line2d_25">
                    <path d="M 349.51 195.076563
L 359.51 195.076563 
L 369.51 195.076563 
" style="fill: none; stroke: #e377c2; stroke-width: 1.5; stroke-linecap: square"/>
                </g>
                <g id="text_17">
                    <!-- No.6 iteration -->
                    <g transform="translate(377.51 198.576563)scale(0.1 -0.1)">
                        <use xlink:href="#DejaVuSans-4e"/>
                        <use xlink:href="#DejaVuSans-6f" x="74.804688"/>
                        <use xlink:href="#DejaVuSans-2e" x="134.236328"/>
                        <use xlink:href="#DejaVuSans-36" x="166.023438"/>
                        <use xlink:href="#DejaVuSans-20" x="229.646484"/>
                        <use xlink:href="#DejaVuSans-69" x="261.433594"/>
                        <use xlink:href="#DejaVuSans-74" x="289.216797"/>
                        <use xlink:href="#DejaVuSans-65" x="328.425781"/>
                        <use xlink:href="#DejaVuSans-72" x="389.949219"/>
                        <use xlink:href="#DejaVuSans-61" x="431.0625"/>
                        <use xlink:href="#DejaVuSans-74" x="492.341797"/>
                        <use xlink:href="#DejaVuSans-69" x="531.550781"/>
                        <use xlink:href="#DejaVuSans-6f" x="559.333984"/>
                        <use xlink:href="#DejaVuSans-6e" x="620.515625"/>
                    </g>
                </g>
                <g id="line2d_26">
                    <path d="M 349.51 209.754687
L 359.51 209.754687 
L 369.51 209.754687 
" style="fill: none; stroke: #7f7f7f; stroke-width: 1.5; stroke-linecap: square"/>
                </g>
                <g id="text_18">
                    <!-- No.7 iteration -->
                    <g transform="translate(377.51 213.254687)scale(0.1 -0.1)">
                        <use xlink:href="#DejaVuSans-4e"/>
                        <use xlink:href="#DejaVuSans-6f" x="74.804688"/>
                        <use xlink:href="#DejaVuSans-2e" x="134.236328"/>
                        <use xlink:href="#DejaVuSans-37" x="166.023438"/>
                        <use xlink:href="#DejaVuSans-20" x="229.646484"/>
                        <use xlink:href="#DejaVuSans-69" x="261.433594"/>
                        <use xlink:href="#DejaVuSans-74" x="289.216797"/>
                        <use xlink:href="#DejaVuSans-65" x="328.425781"/>
                        <use xlink:href="#DejaVuSans-72" x="389.949219"/>
                        <use xlink:href="#DejaVuSans-61" x="431.0625"/>
                        <use xlink:href="#DejaVuSans-74" x="492.341797"/>
                        <use xlink:href="#DejaVuSans-69" x="531.550781"/>
                        <use xlink:href="#DejaVuSans-6f" x="559.333984"/>
                        <use xlink:href="#DejaVuSans-6e" x="620.515625"/>
                    </g>
                </g>
                <g id="line2d_27">
                    <path d="M 349.51 224.432813
L 359.51 224.432813 
L 369.51 224.432813 
" style="fill: none; stroke: #bcbd22; stroke-width: 1.5; stroke-linecap: square"/>
                </g>
                <g id="text_19">
                    <!-- No.8 iteration -->
                    <g transform="translate(377.51 227.932813)scale(0.1 -0.1)">
                        <use xlink:href="#DejaVuSans-4e"/>
                        <use xlink:href="#DejaVuSans-6f" x="74.804688"/>
                        <use xlink:href="#DejaVuSans-2e" x="134.236328"/>
                        <use xlink:href="#DejaVuSans-38" x="166.023438"/>
                        <use xlink:href="#DejaVuSans-20" x="229.646484"/>
                        <use xlink:href="#DejaVuSans-69" x="261.433594"/>
                        <use xlink:href="#DejaVuSans-74" x="289.216797"/>
                        <use xlink:href="#DejaVuSans-65" x="328.425781"/>
                        <use xlink:href="#DejaVuSans-72" x="389.949219"/>
                        <use xlink:href="#DejaVuSans-61" x="431.0625"/>
                        <use xlink:href="#DejaVuSans-74" x="492.341797"/>
                        <use xlink:href="#DejaVuSans-69" x="531.550781"/>
                        <use xlink:href="#DejaVuSans-6f" x="559.333984"/>
                        <use xlink:href="#DejaVuSans-6e" x="620.515625"/>
                    </g>
                </g>
                <g id="line2d_28">
                    <path d="M 349.51 239.110937
L 359.51 239.110937 
L 369.51 239.110937 
" style="fill: none; stroke: #17becf; stroke-width: 1.5; stroke-linecap: square"/>
                </g>
                <g id="text_20">
                    <!-- No.9 iteration -->
                    <g transform="translate(377.51 242.610937)scale(0.1 -0.1)">
                        <defs>
                            <path id="DejaVuSans-39" d="M 703 97
L 703 672 
Q 941 559 1184 500 
Q 1428 441 1663 441 
Q 2288 441 2617 861 
Q 2947 1281 2994 2138 
Q 2813 1869 2534 1725 
Q 2256 1581 1919 1581 
Q 1219 1581 811 2004 
Q 403 2428 403 3163 
Q 403 3881 828 4315 
Q 1253 4750 1959 4750 
Q 2769 4750 3195 4129 
Q 3622 3509 3622 2328 
Q 3622 1225 3098 567 
Q 2575 -91 1691 -91 
Q 1453 -91 1209 -44 
Q 966 3 703 97 
z
M 1959 2075 
Q 2384 2075 2632 2365 
Q 2881 2656 2881 3163 
Q 2881 3666 2632 3958 
Q 2384 4250 1959 4250 
Q 1534 4250 1286 3958 
Q 1038 3666 1038 3163 
Q 1038 2656 1286 2365 
Q 1534 2075 1959 2075 
z
" transform="scale(0.015625)"/>
                        </defs>
                        <use xlink:href="#DejaVuSans-4e"/>
                        <use xlink:href="#DejaVuSans-6f" x="74.804688"/>
                        <use xlink:href="#DejaVuSans-2e" x="134.236328"/>
                        <use xlink:href="#DejaVuSans-39" x="166.023438"/>
                        <use xlink:href="#DejaVuSans-20" x="229.646484"/>
                        <use xlink:href="#DejaVuSans-69" x="261.433594"/>
                        <use xlink:href="#DejaVuSans-74" x="289.216797"/>
                        <use xlink:href="#DejaVuSans-65" x="328.425781"/>
                        <use xlink:href="#DejaVuSans-72" x="389.949219"/>
                        <use xlink:href="#DejaVuSans-61" x="431.0625"/>
                        <use xlink:href="#DejaVuSans-74" x="492.341797"/>
                        <use xlink:href="#DejaVuSans-69" x="531.550781"/>
                        <use xlink:href="#DejaVuSans-6f" x="559.333984"/>
                        <use xlink:href="#DejaVuSans-6e" x="620.515625"/>
                    </g>
                </g>
            </g>
        </g>
    </g>
    <defs>
        <clipPath id="p2aefdaf50d">
            <rect x="39.94" y="26.88" width="300.57" height="293.84"/>
        </clipPath>
    </defs>
</svg>
